<?xml version="1.0"?>
<svg width="112" height="20" xmlns="http://www.w3.org/2000/svg">

 <g>
  <title>background</title>
  <rect fill="none" id="canvas_background" height="22" width="114" y="-1" x="-1"/>
 </g>
 <g>
  <title>Layer 1</title>
  <rect stroke="#333333" rx="4" id="svg_7" height="20" width="111.852225" y="-0.100091" x="0.167717" fill="#333333"/>
  <path stroke="null" id="svg_2" d="m16.89201,2.561325c0.155117,-0.057732 0.337637,-0.047233 0.485754,0.027989c1.994356,0.878802 3.996878,1.740104 5.989477,2.624151c-0.10438,0.071727 -0.225674,0.111383 -0.340559,0.160949c-1.960526,0.840314 -3.922808,1.677124 -5.882755,2.5186c-2.097567,-0.913789 -4.193391,-1.829906 -6.289213,-2.748359c2.012435,-0.860722 4.025447,-1.721443 6.037296,-2.58333z" fill="#c0392b"/>
  <path stroke="null" id="svg_3" d="m9.837949,7.435078c1.97345,0.854451 3.947433,1.707837 5.920882,2.562819c-0.001066,2.344674 -0.000533,4.689345 -0.000533,7.034015c-1.975581,-0.846983 -3.946366,-1.706764 -5.920349,-2.55855c0,-2.346273 0,-4.692011 0,-7.038284z" fill="#c0392b"/>
  <path stroke="null" id="svg_4" d="m18.383657,10.032043c1.971037,-0.85288 3.940481,-1.710016 5.914188,-2.556498c-0.001068,2.341811 -0.000534,4.683622 -0.000534,7.025436c-1.971037,0.853413 -3.941549,1.706818 -5.913124,2.558628c-0.00053,-2.342345 0.000532,-4.68469 -0.00053,-7.027567z" fill="#c0392b"/>
  <line stroke="#555555" stroke-linecap="null" stroke-linejoin="null" id="svg_6" y2="20.596219" x2="32.738764" y1="0.004914" x1="32.738764" fill-opacity="null" stroke-width="null" fill="none"/>
  <text xml:space="preserve" text-anchor="left" font-family="Helvetica, Arial, sans-serif" font-size="12" id="svg_8" y="13.756229" x="43.23917" stroke-opacity="null" stroke-width="0" stroke="#555555" fill="#ffffff">leave a tip</text>
 </g>
</svg>