<?xml version="1.0" encoding="UTF-8" standalone="no"?>
<!DOCTYPE svg PUBLIC "-//W3C//DTD SVG 1.1//EN"
 "http://www.w3.org/Graphics/SVG/1.1/DTD/svg11.dtd">
<!-- Generated by graphviz version 2.40.1 (20161225.0304)
 -->
<!-- Title: %3 Pages: 1 -->
<svg width="564pt" height="260pt"
 viewBox="0.00 0.00 563.54 260.00" xmlns="http://www.w3.org/2000/svg" xmlns:xlink="http://www.w3.org/1999/xlink">
<g id="graph0" class="graph" transform="scale(1 1) rotate(0) translate(4 256)">
<title>%3</title>
<polygon fill="#ffffff" stroke="transparent" points="-4,4 -4,-256 559.5415,-256 559.5415,4 -4,4"/>
<!-- WAN (ISP) -->
<g id="node1" class="node">
<title>WAN (ISP)</title>
<ellipse fill="none" stroke="#000000" cx="266.846" cy="-234" rx="53.8905" ry="18"/>
<text text-anchor="middle" x="266.846" y="-230.3" font-family="Times,serif" font-size="14.00" fill="#000000">WAN (ISP)</text>
</g>
<!-- My gateway -->
<g id="node2" class="node">
<title>My gateway</title>
<ellipse fill="none" stroke="#000000" cx="266.846" cy="-162" rx="57.3905" ry="18"/>
<text text-anchor="middle" x="266.846" y="-158.3" font-family="Times,serif" font-size="14.00" fill="#000000">My gateway</text>
</g>
<!-- WAN (ISP)&#45;&gt;My gateway -->
<g id="edge1" class="edge">
<title>WAN (ISP)&#45;&gt;My gateway</title>
<path fill="none" stroke="#000000" d="M266.846,-215.8314C266.846,-208.131 266.846,-198.9743 266.846,-190.4166"/>
<polygon fill="#000000" stroke="#000000" points="270.3461,-190.4132 266.846,-180.4133 263.3461,-190.4133 270.3461,-190.4132"/>
</g>
<!-- My switch -->
<g id="node3" class="node">
<title>My switch</title>
<ellipse fill="none" stroke="#000000" cx="266.846" cy="-90" rx="50.0912" ry="18"/>
<text text-anchor="middle" x="266.846" y="-86.3" font-family="Times,serif" font-size="14.00" fill="#000000">My switch</text>
</g>
<!-- My gateway&#45;&gt;My switch -->
<g id="edge2" class="edge">
<title>My gateway&#45;&gt;My switch</title>
<path fill="none" stroke="#000000" d="M266.846,-143.8314C266.846,-136.131 266.846,-126.9743 266.846,-118.4166"/>
<polygon fill="#000000" stroke="#000000" points="270.3461,-118.4132 266.846,-108.4133 263.3461,-118.4133 270.3461,-118.4132"/>
</g>
<!-- Laptop 1 -->
<g id="node4" class="node">
<title>Laptop 1</title>
<ellipse fill="none" stroke="#000000" cx="44.846" cy="-18" rx="44.6926" ry="18"/>
<text text-anchor="middle" x="44.846" y="-14.3" font-family="Times,serif" font-size="14.00" fill="#000000">Laptop 1</text>
</g>
<!-- My switch&#45;&gt;Laptop 1 -->
<g id="edge3" class="edge">
<title>My switch&#45;&gt;Laptop 1</title>
<path fill="none" stroke="#000000" d="M229.11,-77.9983C195.0365,-67.131 143.5388,-50.6311 98.846,-36 95.6998,-34.97 92.4523,-33.9014 89.1839,-32.8218"/>
<polygon fill="#000000" stroke="#000000" points="89.9898,-29.4017 79.3964,-29.5782 87.7877,-36.0464 89.9898,-29.4017"/>
</g>
<!-- Laptop 2 -->
<g id="node5" class="node">
<title>Laptop 2</title>
<ellipse fill="none" stroke="#000000" cx="152.846" cy="-18" rx="44.6926" ry="18"/>
<text text-anchor="middle" x="152.846" y="-14.3" font-family="Times,serif" font-size="14.00" fill="#000000">Laptop 2</text>
</g>
<!-- My switch&#45;&gt;Laptop 2 -->
<g id="edge4" class="edge">
<title>My switch&#45;&gt;Laptop 2</title>
<path fill="none" stroke="#000000" d="M241.8282,-74.1993C225.4191,-63.8356 203.7814,-50.1697 185.9522,-38.9091"/>
<polygon fill="#000000" stroke="#000000" points="187.3475,-35.6508 177.0236,-33.27 183.6095,-41.5692 187.3475,-35.6508"/>
</g>
<!-- TV STB 1 -->
<g id="node6" class="node">
<title>TV STB 1</title>
<ellipse fill="none" stroke="#000000" cx="266.846" cy="-18" rx="50.8918" ry="18"/>
<text text-anchor="middle" x="266.846" y="-14.3" font-family="Times,serif" font-size="14.00" fill="#000000">TV STB 1</text>
</g>
<!-- My switch&#45;&gt;TV STB 1 -->
<g id="edge5" class="edge">
<title>My switch&#45;&gt;TV STB 1</title>
<path fill="none" stroke="#000000" d="M266.846,-71.8314C266.846,-64.131 266.846,-54.9743 266.846,-46.4166"/>
<polygon fill="#000000" stroke="#000000" points="270.3461,-46.4132 266.846,-36.4133 263.3461,-46.4133 270.3461,-46.4132"/>
</g>
<!-- TV STB 2 -->
<g id="node7" class="node">
<title>TV STB 2</title>
<ellipse fill="none" stroke="#000000" cx="385.846" cy="-18" rx="50.8918" ry="18"/>
<text text-anchor="middle" x="385.846" y="-14.3" font-family="Times,serif" font-size="14.00" fill="#000000">TV STB 2</text>
</g>
<!-- My switch&#45;&gt;TV STB 2 -->
<g id="edge6" class="edge">
<title>My switch&#45;&gt;TV STB 2</title>
<path fill="none" stroke="#000000" d="M292.6672,-74.3771C309.8986,-63.9514 332.749,-50.1259 351.5086,-38.7756"/>
<polygon fill="#000000" stroke="#000000" points="353.3312,-41.7637 360.0752,-33.5924 349.7075,-35.7746 353.3312,-41.7637"/>
</g>
<!-- TV STB 3 -->
<g id="node8" class="node">
<title>TV STB 3</title>
<ellipse fill="none" stroke="#000000" cx="504.846" cy="-18" rx="50.8918" ry="18"/>
<text text-anchor="middle" x="504.846" y="-14.3" font-family="Times,serif" font-size="14.00" fill="#000000">TV STB 3</text>
</g>
<!-- My switch&#45;&gt;TV STB 3 -->
<g id="edge7" class="edge">
<title>My switch&#45;&gt;TV STB 3</title>
<path fill="none" stroke="#000000" d="M305.2657,-78.4475C341.5201,-67.5371 397.3897,-50.7006 445.846,-36 449.3303,-34.9429 452.9298,-33.8492 456.5524,-32.747"/>
<polygon fill="#000000" stroke="#000000" points="457.5858,-36.0911 466.1325,-29.8298 455.5466,-29.3947 457.5858,-36.0911"/>
</g>
</g>
</svg>
