<?xml version="1.0" encoding="UTF-8" standalone="no"?>
<!DOCTYPE svg PUBLIC "-//W3C//DTD SVG 1.1//EN"
 "http://www.w3.org/Graphics/SVG/1.1/DTD/svg11.dtd">
<!-- Generated by graphviz version 2.40.1 (20161225.0304)
 -->
<!-- Title: %3 Pages: 1 -->
<svg width="522pt" height="332pt"
 viewBox="0.00 0.00 521.54 332.00" xmlns="http://www.w3.org/2000/svg" xmlns:xlink="http://www.w3.org/1999/xlink">
<g id="graph0" class="graph" transform="scale(1 1) rotate(0) translate(4 328)">
<title>%3</title>
<polygon fill="#ffffff" stroke="transparent" points="-4,4 -4,-328 517.5415,-328 517.5415,4 -4,4"/>
<!-- WAN (ISP) -->
<g id="node1" class="node">
<title>WAN (ISP)</title>
<ellipse fill="none" stroke="#000000" cx="283.846" cy="-306" rx="53.8905" ry="18"/>
<text text-anchor="middle" x="283.846" y="-302.3" font-family="Times,serif" font-size="14.00" fill="#000000">WAN (ISP)</text>
</g>
<!-- ISP switch -->
<g id="node2" class="node">
<title>ISP switch</title>
<ellipse fill="none" stroke="#000000" cx="283.846" cy="-234" rx="50.0912" ry="18"/>
<text text-anchor="middle" x="283.846" y="-230.3" font-family="Times,serif" font-size="14.00" fill="#000000">ISP switch</text>
</g>
<!-- WAN (ISP)&#45;&gt;ISP switch -->
<g id="edge1" class="edge">
<title>WAN (ISP)&#45;&gt;ISP switch</title>
<path fill="none" stroke="#000000" d="M283.846,-287.8314C283.846,-280.131 283.846,-270.9743 283.846,-262.4166"/>
<polygon fill="#000000" stroke="#000000" points="287.3461,-262.4132 283.846,-252.4133 280.3461,-262.4133 287.3461,-262.4132"/>
</g>
<!-- My gateway -->
<g id="node3" class="node">
<title>My gateway</title>
<ellipse fill="none" stroke="#000000" cx="98.846" cy="-162" rx="57.3905" ry="18"/>
<text text-anchor="middle" x="98.846" y="-158.3" font-family="Times,serif" font-size="14.00" fill="#000000">My gateway</text>
</g>
<!-- ISP switch&#45;&gt;My gateway -->
<g id="edge2" class="edge">
<title>ISP switch&#45;&gt;My gateway</title>
<path fill="none" stroke="#000000" d="M249.4825,-220.6261C219.937,-209.1273 177.0838,-192.4493 144.6318,-179.8193"/>
<polygon fill="#000000" stroke="#000000" points="145.5092,-176.4051 134.9207,-176.0399 142.9704,-182.9285 145.5092,-176.4051"/>
</g>
<!-- TV STB 1 -->
<g id="node7" class="node">
<title>TV STB 1</title>
<ellipse fill="none" stroke="#000000" cx="224.846" cy="-162" rx="50.8918" ry="18"/>
<text text-anchor="middle" x="224.846" y="-158.3" font-family="Times,serif" font-size="14.00" fill="#000000">TV STB 1</text>
</g>
<!-- ISP switch&#45;&gt;TV STB 1 -->
<g id="edge6" class="edge">
<title>ISP switch&#45;&gt;TV STB 1</title>
<path fill="none" stroke="#000000" d="M269.5638,-216.5708C262.37,-207.7919 253.5136,-196.9841 245.5856,-187.3093"/>
<polygon fill="#000000" stroke="#000000" points="248.2467,-185.0347 239.2012,-179.5182 242.8323,-189.4714 248.2467,-185.0347"/>
</g>
<!-- TV STB 2 -->
<g id="node8" class="node">
<title>TV STB 2</title>
<ellipse fill="none" stroke="#000000" cx="343.846" cy="-162" rx="50.8918" ry="18"/>
<text text-anchor="middle" x="343.846" y="-158.3" font-family="Times,serif" font-size="14.00" fill="#000000">TV STB 2</text>
</g>
<!-- ISP switch&#45;&gt;TV STB 2 -->
<g id="edge7" class="edge">
<title>ISP switch&#45;&gt;TV STB 2</title>
<path fill="none" stroke="#000000" d="M298.3703,-216.5708C305.7403,-207.7269 314.8261,-196.8239 322.934,-187.0945"/>
<polygon fill="#000000" stroke="#000000" points="325.7424,-189.1916 329.4554,-179.2687 320.3648,-184.7103 325.7424,-189.1916"/>
</g>
<!-- TV STB 3 -->
<g id="node9" class="node">
<title>TV STB 3</title>
<ellipse fill="none" stroke="#000000" cx="462.846" cy="-162" rx="50.8918" ry="18"/>
<text text-anchor="middle" x="462.846" y="-158.3" font-family="Times,serif" font-size="14.00" fill="#000000">TV STB 3</text>
</g>
<!-- ISP switch&#45;&gt;TV STB 3 -->
<g id="edge8" class="edge">
<title>ISP switch&#45;&gt;TV STB 3</title>
<path fill="none" stroke="#000000" d="M317.5146,-220.4574C346.4249,-208.8286 388.276,-191.9946 419.6501,-179.3749"/>
<polygon fill="#000000" stroke="#000000" points="421.0532,-182.5831 429.0246,-175.6041 418.4409,-176.0888 421.0532,-182.5831"/>
</g>
<!-- My switch -->
<g id="node4" class="node">
<title>My switch</title>
<ellipse fill="none" stroke="#000000" cx="98.846" cy="-90" rx="50.0912" ry="18"/>
<text text-anchor="middle" x="98.846" y="-86.3" font-family="Times,serif" font-size="14.00" fill="#000000">My switch</text>
</g>
<!-- My gateway&#45;&gt;My switch -->
<g id="edge3" class="edge">
<title>My gateway&#45;&gt;My switch</title>
<path fill="none" stroke="#000000" d="M98.846,-143.8314C98.846,-136.131 98.846,-126.9743 98.846,-118.4166"/>
<polygon fill="#000000" stroke="#000000" points="102.3461,-118.4132 98.846,-108.4133 95.3461,-118.4133 102.3461,-118.4132"/>
</g>
<!-- Laptop 1 -->
<g id="node5" class="node">
<title>Laptop 1</title>
<ellipse fill="none" stroke="#000000" cx="44.846" cy="-18" rx="44.6926" ry="18"/>
<text text-anchor="middle" x="44.846" y="-14.3" font-family="Times,serif" font-size="14.00" fill="#000000">Laptop 1</text>
</g>
<!-- My switch&#45;&gt;Laptop 1 -->
<g id="edge4" class="edge">
<title>My switch&#45;&gt;Laptop 1</title>
<path fill="none" stroke="#000000" d="M85.7741,-72.5708C79.2075,-63.8153 71.1273,-53.0418 63.886,-43.3867"/>
<polygon fill="#000000" stroke="#000000" points="66.5976,-41.1687 57.7975,-35.2687 60.9976,-45.3687 66.5976,-41.1687"/>
</g>
<!-- Laptop 2 -->
<g id="node6" class="node">
<title>Laptop 2</title>
<ellipse fill="none" stroke="#000000" cx="152.846" cy="-18" rx="44.6926" ry="18"/>
<text text-anchor="middle" x="152.846" y="-14.3" font-family="Times,serif" font-size="14.00" fill="#000000">Laptop 2</text>
</g>
<!-- My switch&#45;&gt;Laptop 2 -->
<g id="edge5" class="edge">
<title>My switch&#45;&gt;Laptop 2</title>
<path fill="none" stroke="#000000" d="M111.9179,-72.5708C118.4845,-63.8153 126.5647,-53.0418 133.806,-43.3867"/>
<polygon fill="#000000" stroke="#000000" points="136.6945,-45.3687 139.8945,-35.2687 131.0945,-41.1687 136.6945,-45.3687"/>
</g>
</g>
</svg>
