<?xml version="1.0" encoding="UTF-8" standalone="no"?>
<!-- Created with Inkscape (http://www.inkscape.org/) -->

<svg
   xmlns:dc="http://purl.org/dc/elements/1.1/"
   xmlns:cc="http://creativecommons.org/ns#"
   xmlns:rdf="http://www.w3.org/1999/02/22-rdf-syntax-ns#"
   xmlns:svg="http://www.w3.org/2000/svg"
   xmlns="http://www.w3.org/2000/svg"
   xmlns:sodipodi="http://sodipodi.sourceforge.net/DTD/sodipodi-0.dtd"
   xmlns:inkscape="http://www.inkscape.org/namespaces/inkscape"
   width="1001.6183"
   height="1001.6182"
   viewBox="0 0 1001.6183 1001.6182"
   id="svg2"
   version="1.1"
   inkscape:version="0.91 r13725"
   sodipodi:docname="logo.svg"
   inkscape:export-filename="/home/maxk/src/github.com/sshadder/logo.svg.png"
   inkscape:export-xdpi="90.034302"
   inkscape:export-ydpi="90.034302">
  <defs
     id="defs4">
    <filter
       inkscape:collect="always"
       id="filter3252">
      <feGaussianBlur
         inkscape:collect="always"
         stdDeviation="1.1789063"
         id="feGaussianBlur3254" />
    </filter>
    <filter
       inkscape:collect="always"
       id="filter3208">
      <feGaussianBlur
         inkscape:collect="always"
         stdDeviation="1.14875"
         id="feGaussianBlur3210" />
    </filter>
    <filter
       inkscape:collect="always"
       id="filter3148">
      <feGaussianBlur
         inkscape:collect="always"
         stdDeviation="1.4028125"
         id="feGaussianBlur3150" />
    </filter>
    <filter
       inkscape:collect="always"
       id="filter3135">
      <feGaussianBlur
         inkscape:collect="always"
         stdDeviation="2.8346875"
         id="feGaussianBlur3137" />
    </filter>
  </defs>
  <sodipodi:namedview
     id="base"
     pagecolor="#ffffff"
     bordercolor="#666666"
     borderopacity="1.0"
     inkscape:pageopacity="0.0"
     inkscape:pageshadow="2"
     inkscape:zoom="1"
     inkscape:cx="949.63535"
     inkscape:cy="499.11192"
     inkscape:document-units="px"
     inkscape:current-layer="layer1"
     showgrid="true"
     units="px"
     fit-margin-top="10"
     fit-margin-left="10"
     fit-margin-right="10"
     fit-margin-bottom="10"
     inkscape:window-width="2560"
     inkscape:window-height="1387"
     inkscape:window-x="0"
     inkscape:window-y="27"
     inkscape:window-maximized="1">
    <inkscape:grid
       type="xygrid"
       id="grid4063" />
  </sodipodi:namedview>
  <metadata
     id="metadata7">
    <rdf:RDF>
      <cc:Work
         rdf:about="">
        <dc:format>image/svg+xml</dc:format>
        <dc:type
           rdf:resource="http://purl.org/dc/dcmitype/StillImage" />
        <dc:title></dc:title>
      </cc:Work>
    </rdf:RDF>
  </metadata>
  <g
     inkscape:label="Layer 1"
     inkscape:groupmode="layer"
     id="layer1"
     transform="translate(139.61762,-27.032422)">
    <circle
       style="fill:#2024ff;fill-rule:evenodd;stroke:#000000;stroke-width:1px;stroke-linecap:butt;stroke-linejoin:miter;stroke-opacity:1;fill-opacity:1;opacity:0.47"
       id="path4067"
       cx="361.19153"
       cy="527.84155"
       r="480" />
    <g
       id="g3984"
       transform="translate(6860.9561,1721.2999)">
      <g
         id="g3906">
        <g
           id="g3829">
          <g
             transform="translate(-7079.149,-1389.9699)"
             id="g3753">
            <g
               id="g3641">
              <g
                 transform="matrix(0.47448893,0,0,0.47448893,104.94863,21.50641)"
                 inkscape:label="Warstwa 1"
                 id="g3587">
                <g
                   transform="matrix(2.1166,0,0,2.1166,-102.65,-421.38)"
                   inkscape:label="Warstwa 1"
                   id="g3589">
                  <path
                     d="m 173.53,283.56 c -53.64,0 -97.186,40.89 -97.186,91.28 0,50.4 43.546,91.32 97.186,91.32 40.29,0 74.87,-23.07 89.59,-55.91 l 25.26,0 c 0.33,-17.89 -0.7,-15.44 -0.7,-15.44 l 20.88,8.25 2.13,0 10.37,-15.44 9.47,14.29 3.07,0.11 12.65,-13.86 19.33,17.05 8.4,0 22.08,-17.59 14.81,16.11 3.4,-0.13 9.54,-6.72 13.13,5.01 11.57,-0.53 14.83,-15.77 11.21,14.39 6.94,0 36.35,-47.14 0,-13.4 -254.72,0 c -14.72,-32.83 -49.3,-55.88 -89.59,-55.88 z m -46.37,65.88 c 14.03,0 25.4,11.4 25.4,25.44 0,14.03 -11.37,25.4 -25.4,25.4 -14.04,0 -25.44,-11.4 -25.44,-25.44 0,-14.03 11.4,-25.4 25.44,-25.4 z"
                     style="fill:#ffcc00;stroke:#000000;stroke-width:0.5;stroke-linecap:round;stroke-linejoin:round"
                     sodipodi:nodetypes="csscccccccccccccccccccccccccsssc"
                     id="path3591"
                     inkscape:connector-curvature="0" />
                  <rect
                     x="268.10001"
                     y="347.76001"
                     width="236.00999"
                     height="7.6531"
                     style="fill:#d4aa00;stroke:#000000;stroke-width:0.5;stroke-linecap:round;stroke-linejoin:round"
                     id="rect3593" />
                  <rect
                     x="268.10001"
                     y="364.67999"
                     width="223.84"
                     height="7.6531"
                     style="fill:#d4aa00;stroke:#000000;stroke-width:0.5;stroke-linecap:round;stroke-linejoin:round"
                     id="rect3595" />
                  <path
                     d="m 517.27,337.7 0,11.1 -36.37,47.12 -6.94,0 -11.19,-14.37 -14.84,15.75 -11.56,0.53 -13.13,-5 -9.56,6.72 -3.37,0.12 -14.82,-16.09 -22.09,17.59 -8.41,-0.03 -19.31,-17.03 -12.66,13.84 -3.06,-0.09 -9.47,-14.28 -10.37,15.43 -2.13,0 -20.62,-8.15 c 0.27,0.72 0.65,3.77 0.44,15.34 l -25.25,0 c -14.73,32.84 -49.31,55.91 -89.6,55.91 -45.57,0 -83.85,-29.53 -94.342,-69.31 9.599,40.93 48.462,71.62 94.902,71.62 40.29,0 74.87,-23.07 89.6,-55.91 l 25.25,0 c 0.21,-11.18 -0.11,-14.42 -0.38,-15.28 l 20.57,8.1 2.12,0 10.38,-15.44 9.46,14.28 3.07,0.09 12.65,-13.84 19.35,17.03 8.4,0.03 22.07,-17.59 14.81,16.09 3.4,-0.12 9.54,-6.72 13.12,5 11.59,-0.53 14.82,-15.75 11.22,14.37 6.93,0 36.35,-47.12 0,-13.41 -0.57,0 z m -390.68,7.69 c -14.04,0 -25.44,11.37 -25.44,25.41 0,2.58 0.37,5.08 1.09,7.43 -0.34,-1.65 -0.53,-3.37 -0.53,-5.12 0,-14.04 11.4,-25.41 25.44,-25.41 11.4,0 21.06,7.53 24.28,17.88 -2.42,-11.53 -12.61,-20.19 -24.84,-20.19 z"
                     style="fill:#000000;stroke:#000000;stroke-width:0.5;stroke-linecap:round;stroke-linejoin:round;filter:url(#filter3135)"
                     id="path3597"
                     inkscape:connector-curvature="0" />
                  <path
                     d="m 173.53,283.56 c -53.64,0 -97.186,40.89 -97.186,91.28 0,6.3 0.673,12.47 1.968,18.41 -0.917,-5.04 -1.374,-10.22 -1.374,-15.5 0,-50.39 43.542,-91.28 97.182,-91.28 40.29,0 74.87,23.05 89.6,55.87 l 254.12,0 0,-2.9 -254.72,0 c -14.72,-32.83 -49.3,-55.88 -89.59,-55.88 z m -21.19,87.88 c 0.16,1.12 0.22,2.27 0.22,3.44 0,14.03 -11.37,25.4 -25.4,25.4 -11.82,0 -21.75,-8.07 -24.6,-19 1.72,12.37 12.35,21.91 25.19,21.91 14.04,0 25.41,-11.37 25.41,-25.41 0,-2.19 -0.29,-4.31 -0.82,-6.34 z"
                     style="fill:#ffffff;filter:url(#filter3148)"
                     id="path3599"
                     inkscape:connector-curvature="0" />
                  <path
                     d="m 191,294.92 c -2.04,0.38 -3.96,1.35 -5.47,2.81 -2.07,2 -3.22,4.75 -3.22,7.63 l 0,138.53 c 0,2.83 1.12,5.53 3.09,7.5 -0.87,-1.56 -1.37,-3.32 -1.37,-5.16 l 0,-138.53 c 0,-2.87 1.15,-5.62 3.22,-7.62 1.07,-1.04 2.36,-1.84 3.75,-2.35 l 0,-2.81 z m 4.62,0.19 0,159.03 c 0.58,-0.14 1.15,-0.29 1.72,-0.44 l 0,-156.25 c 2.56,0.62 5.08,1.36 7.53,2.19 l 0,-1.75 c -3.01,-1.08 -6.08,-2.01 -9.25,-2.78 z m 13.88,4.56 0,149.91 c 0.58,-0.25 1.14,-0.49 1.72,-0.75 l 0,-146.81 c 2.57,1.08 5.09,2.25 7.53,3.56 l 0,-1.38 c -2.97,-1.67 -6.07,-3.19 -9.25,-4.53 z m 13.87,7.35 0,135.21 c 0.58,-0.37 1.15,-0.73 1.72,-1.12 l 0,-131.75 c 2.62,1.69 5.13,3.5 7.53,5.44 l 0,-0.91 c -2.91,-2.48 -6,-4.77 -9.25,-6.87 z m 13.88,11.15 0,112.91 c 0.58,-0.58 1.15,-1.16 1.72,-1.75 l 0,-108.81 c 2.53,2.5 4.93,5.12 7.12,7.9 -2.65,-3.63 -5.61,-7.06 -8.84,-10.25 z m 8.84,10.25 c 0.14,0.18 0.27,0.36 0.41,0.53 l 0,-0.03 c -0.13,-0.17 -0.28,-0.33 -0.41,-0.5 z m 5.03,7.78 0,76.82 c 0.6,-1.07 1.17,-2.13 1.72,-3.22 l 0,-70.35 c -0.55,-1.09 -1.12,-2.18 -1.72,-3.25 z"
                     style="fill:#808080;filter:url(#filter3208)"
                     id="path3601"
                     inkscape:connector-curvature="0" />
                  <path
                     d="m 191.5,295.42 c -1.01,0.19 -1.99,0.54 -2.91,1 l 0,156.06 c -1.1,-0.2 -2.16,-0.58 -3.16,-1.12 0.43,0.48 0.9,0.94 1.41,1.34 1.38,1.09 2.98,1.79 4.66,2.1 l 0,-159.38 z m 10.97,2 0,152.13 c -2.08,0.74 -4.2,1.43 -6.35,2.03 l 0,3.06 c 3.17,-0.77 6.24,-1.7 9.25,-2.78 l 0,-153.47 c -0.96,-0.34 -1.93,-0.65 -2.9,-0.97 z m 13.87,5.72 0,140.09 c -2.06,1.16 -4.17,2.25 -6.34,3.25 l 0,3.6 c 3.18,-1.34 6.28,-2.86 9.25,-4.53 l 0,-140.85 c -0.96,-0.53 -1.93,-1.05 -2.91,-1.56 z m 13.88,8.94 0,121.44 c -2.03,1.72 -4.16,3.35 -6.35,4.9 l 0,4.31 c 3.26,-2.1 6.34,-4.42 9.25,-6.9 l 0,-121.44 c -0.94,-0.8 -1.92,-1.55 -2.9,-2.31 z m 7.53,6.59 0,0.69 c 2.28,2.46 4.4,5.04 6.34,7.75 l 0,91.37 c -1.94,2.71 -4.07,5.29 -6.34,7.75 l 0,5.35 c 3.38,-3.34 6.5,-6.95 9.25,-10.78 l 0,-91.38 c -2.75,-3.83 -5.87,-7.41 -9.25,-10.75 z m 13.87,18.03 0,3.32 c 4.7,10.05 7.31,21.15 7.31,32.78 0,11.63 -2.61,22.72 -7.31,32.78 l 0,7.94 c 6.51,-11.49 10.22,-24.57 10.22,-38.41 0,-13.84 -3.71,-26.92 -10.22,-38.41 z"
                     style="fill:#ffdd55;filter:url(#filter3252)"
                     id="path3603"
                     inkscape:connector-curvature="0" />
                </g>
              </g>
              <g
                 transform="matrix(0,-0.47448893,0.47448893,0,404.37927,670.9473)"
                 inkscape:label="Warstwa 1"
                 id="g3453">
                <g
                   transform="matrix(2.1166,0,0,2.1166,-102.65,-421.38)"
                   inkscape:label="Warstwa 1"
                   id="g3455">
                  <path
                     d="m 173.53,283.56 c -53.64,0 -97.186,40.89 -97.186,91.28 0,50.4 43.546,91.32 97.186,91.32 40.29,0 74.87,-23.07 89.59,-55.91 l 25.26,0 c 0.33,-17.89 -0.7,-15.44 -0.7,-15.44 l 20.88,8.25 2.13,0 10.37,-15.44 9.47,14.29 3.07,0.11 12.65,-13.86 19.33,17.05 8.4,0 22.08,-17.59 14.81,16.11 3.4,-0.13 9.54,-6.72 13.13,5.01 11.57,-0.53 14.83,-15.77 11.21,14.39 6.94,0 36.35,-47.14 0,-13.4 -254.72,0 c -14.72,-32.83 -49.3,-55.88 -89.59,-55.88 z m -46.37,65.88 c 14.03,0 25.4,11.4 25.4,25.44 0,14.03 -11.37,25.4 -25.4,25.4 -14.04,0 -25.44,-11.4 -25.44,-25.44 0,-14.03 11.4,-25.4 25.44,-25.4 z"
                     style="fill:#ffcc00;stroke:#000000;stroke-width:0.5;stroke-linecap:round;stroke-linejoin:round"
                     sodipodi:nodetypes="csscccccccccccccccccccccccccsssc"
                     id="path3457"
                     inkscape:connector-curvature="0" />
                  <rect
                     x="268.10001"
                     y="347.76001"
                     width="236.00999"
                     height="7.6531"
                     style="fill:#d4aa00;stroke:#000000;stroke-width:0.5;stroke-linecap:round;stroke-linejoin:round"
                     id="rect3459" />
                  <rect
                     x="268.10001"
                     y="364.67999"
                     width="223.84"
                     height="7.6531"
                     style="fill:#d4aa00;stroke:#000000;stroke-width:0.5;stroke-linecap:round;stroke-linejoin:round"
                     id="rect3461" />
                  <path
                     d="m 517.27,337.7 0,11.1 -36.37,47.12 -6.94,0 -11.19,-14.37 -14.84,15.75 -11.56,0.53 -13.13,-5 -9.56,6.72 -3.37,0.12 -14.82,-16.09 -22.09,17.59 -8.41,-0.03 -19.31,-17.03 -12.66,13.84 -3.06,-0.09 -9.47,-14.28 -10.37,15.43 -2.13,0 -20.62,-8.15 c 0.27,0.72 0.65,3.77 0.44,15.34 l -25.25,0 c -14.73,32.84 -49.31,55.91 -89.6,55.91 -45.57,0 -83.85,-29.53 -94.342,-69.31 9.599,40.93 48.462,71.62 94.902,71.62 40.29,0 74.87,-23.07 89.6,-55.91 l 25.25,0 c 0.21,-11.18 -0.11,-14.42 -0.38,-15.28 l 20.57,8.1 2.12,0 10.38,-15.44 9.46,14.28 3.07,0.09 12.65,-13.84 19.35,17.03 8.4,0.03 22.07,-17.59 14.81,16.09 3.4,-0.12 9.54,-6.72 13.12,5 11.59,-0.53 14.82,-15.75 11.22,14.37 6.93,0 36.35,-47.12 0,-13.41 -0.57,0 z m -390.68,7.69 c -14.04,0 -25.44,11.37 -25.44,25.41 0,2.58 0.37,5.08 1.09,7.43 -0.34,-1.65 -0.53,-3.37 -0.53,-5.12 0,-14.04 11.4,-25.41 25.44,-25.41 11.4,0 21.06,7.53 24.28,17.88 -2.42,-11.53 -12.61,-20.19 -24.84,-20.19 z"
                     style="fill:#000000;stroke:#000000;stroke-width:0.5;stroke-linecap:round;stroke-linejoin:round;filter:url(#filter3135)"
                     id="path3463"
                     inkscape:connector-curvature="0" />
                  <path
                     d="m 173.53,283.56 c -53.64,0 -97.186,40.89 -97.186,91.28 0,6.3 0.673,12.47 1.968,18.41 -0.917,-5.04 -1.374,-10.22 -1.374,-15.5 0,-50.39 43.542,-91.28 97.182,-91.28 40.29,0 74.87,23.05 89.6,55.87 l 254.12,0 0,-2.9 -254.72,0 c -14.72,-32.83 -49.3,-55.88 -89.59,-55.88 z m -21.19,87.88 c 0.16,1.12 0.22,2.27 0.22,3.44 0,14.03 -11.37,25.4 -25.4,25.4 -11.82,0 -21.75,-8.07 -24.6,-19 1.72,12.37 12.35,21.91 25.19,21.91 14.04,0 25.41,-11.37 25.41,-25.41 0,-2.19 -0.29,-4.31 -0.82,-6.34 z"
                     style="fill:#ffffff;filter:url(#filter3148)"
                     id="path3465"
                     inkscape:connector-curvature="0" />
                  <path
                     d="m 191,294.92 c -2.04,0.38 -3.96,1.35 -5.47,2.81 -2.07,2 -3.22,4.75 -3.22,7.63 l 0,138.53 c 0,2.83 1.12,5.53 3.09,7.5 -0.87,-1.56 -1.37,-3.32 -1.37,-5.16 l 0,-138.53 c 0,-2.87 1.15,-5.62 3.22,-7.62 1.07,-1.04 2.36,-1.84 3.75,-2.35 l 0,-2.81 z m 4.62,0.19 0,159.03 c 0.58,-0.14 1.15,-0.29 1.72,-0.44 l 0,-156.25 c 2.56,0.62 5.08,1.36 7.53,2.19 l 0,-1.75 c -3.01,-1.08 -6.08,-2.01 -9.25,-2.78 z m 13.88,4.56 0,149.91 c 0.58,-0.25 1.14,-0.49 1.72,-0.75 l 0,-146.81 c 2.57,1.08 5.09,2.25 7.53,3.56 l 0,-1.38 c -2.97,-1.67 -6.07,-3.19 -9.25,-4.53 z m 13.87,7.35 0,135.21 c 0.58,-0.37 1.15,-0.73 1.72,-1.12 l 0,-131.75 c 2.62,1.69 5.13,3.5 7.53,5.44 l 0,-0.91 c -2.91,-2.48 -6,-4.77 -9.25,-6.87 z m 13.88,11.15 0,112.91 c 0.58,-0.58 1.15,-1.16 1.72,-1.75 l 0,-108.81 c 2.53,2.5 4.93,5.12 7.12,7.9 -2.65,-3.63 -5.61,-7.06 -8.84,-10.25 z m 8.84,10.25 c 0.14,0.18 0.27,0.36 0.41,0.53 l 0,-0.03 c -0.13,-0.17 -0.28,-0.33 -0.41,-0.5 z m 5.03,7.78 0,76.82 c 0.6,-1.07 1.17,-2.13 1.72,-3.22 l 0,-70.35 c -0.55,-1.09 -1.12,-2.18 -1.72,-3.25 z"
                     style="fill:#808080;filter:url(#filter3208)"
                     id="path3467"
                     inkscape:connector-curvature="0" />
                  <path
                     d="m 191.5,295.42 c -1.01,0.19 -1.99,0.54 -2.91,1 l 0,156.06 c -1.1,-0.2 -2.16,-0.58 -3.16,-1.12 0.43,0.48 0.9,0.94 1.41,1.34 1.38,1.09 2.98,1.79 4.66,2.1 l 0,-159.38 z m 10.97,2 0,152.13 c -2.08,0.74 -4.2,1.43 -6.35,2.03 l 0,3.06 c 3.17,-0.77 6.24,-1.7 9.25,-2.78 l 0,-153.47 c -0.96,-0.34 -1.93,-0.65 -2.9,-0.97 z m 13.87,5.72 0,140.09 c -2.06,1.16 -4.17,2.25 -6.34,3.25 l 0,3.6 c 3.18,-1.34 6.28,-2.86 9.25,-4.53 l 0,-140.85 c -0.96,-0.53 -1.93,-1.05 -2.91,-1.56 z m 13.88,8.94 0,121.44 c -2.03,1.72 -4.16,3.35 -6.35,4.9 l 0,4.31 c 3.26,-2.1 6.34,-4.42 9.25,-6.9 l 0,-121.44 c -0.94,-0.8 -1.92,-1.55 -2.9,-2.31 z m 7.53,6.59 0,0.69 c 2.28,2.46 4.4,5.04 6.34,7.75 l 0,91.37 c -1.94,2.71 -4.07,5.29 -6.34,7.75 l 0,5.35 c 3.38,-3.34 6.5,-6.95 9.25,-10.78 l 0,-91.38 c -2.75,-3.83 -5.87,-7.41 -9.25,-10.75 z m 13.87,18.03 0,3.32 c 4.7,10.05 7.31,21.15 7.31,32.78 0,11.63 -2.61,22.72 -7.31,32.78 l 0,7.94 c 6.51,-11.49 10.22,-24.57 10.22,-38.41 0,-13.84 -3.71,-26.92 -10.22,-38.41 z"
                     style="fill:#ffdd55;filter:url(#filter3252)"
                     id="path3469"
                     inkscape:connector-curvature="0" />
                </g>
              </g>
              <g
                 id="g3569"
                 inkscape:label="Warstwa 1"
                 transform="matrix(-0.47448893,0,0,-0.47448893,1053.8202,373.53695)">
                <g
                   id="g3571"
                   inkscape:label="Warstwa 1"
                   transform="matrix(2.1166,0,0,2.1166,-102.65,-421.38)">
                  <path
                     inkscape:connector-curvature="0"
                     id="path3573"
                     sodipodi:nodetypes="csscccccccccccccccccccccccccsssc"
                     style="fill:#ffcc00;stroke:#000000;stroke-width:0.5;stroke-linecap:round;stroke-linejoin:round"
                     d="m 173.53,283.56 c -53.64,0 -97.186,40.89 -97.186,91.28 0,50.4 43.546,91.32 97.186,91.32 40.29,0 74.87,-23.07 89.59,-55.91 l 25.26,0 c 0.33,-17.89 -0.7,-15.44 -0.7,-15.44 l 20.88,8.25 2.13,0 10.37,-15.44 9.47,14.29 3.07,0.11 12.65,-13.86 19.33,17.05 8.4,0 22.08,-17.59 14.81,16.11 3.4,-0.13 9.54,-6.72 13.13,5.01 11.57,-0.53 14.83,-15.77 11.21,14.39 6.94,0 36.35,-47.14 0,-13.4 -254.72,0 c -14.72,-32.83 -49.3,-55.88 -89.59,-55.88 z m -46.37,65.88 c 14.03,0 25.4,11.4 25.4,25.44 0,14.03 -11.37,25.4 -25.4,25.4 -14.04,0 -25.44,-11.4 -25.44,-25.44 0,-14.03 11.4,-25.4 25.44,-25.4 z" />
                  <rect
                     id="rect3575"
                     style="fill:#d4aa00;stroke:#000000;stroke-width:0.5;stroke-linecap:round;stroke-linejoin:round"
                     height="7.6531"
                     width="236.00999"
                     y="347.76001"
                     x="268.10001" />
                  <rect
                     id="rect3577"
                     style="fill:#d4aa00;stroke:#000000;stroke-width:0.5;stroke-linecap:round;stroke-linejoin:round"
                     height="7.6531"
                     width="223.84"
                     y="364.67999"
                     x="268.10001" />
                  <path
                     inkscape:connector-curvature="0"
                     id="path3579"
                     style="fill:#000000;stroke:#000000;stroke-width:0.5;stroke-linecap:round;stroke-linejoin:round;filter:url(#filter3135)"
                     d="m 517.27,337.7 0,11.1 -36.37,47.12 -6.94,0 -11.19,-14.37 -14.84,15.75 -11.56,0.53 -13.13,-5 -9.56,6.72 -3.37,0.12 -14.82,-16.09 -22.09,17.59 -8.41,-0.03 -19.31,-17.03 -12.66,13.84 -3.06,-0.09 -9.47,-14.28 -10.37,15.43 -2.13,0 -20.62,-8.15 c 0.27,0.72 0.65,3.77 0.44,15.34 l -25.25,0 c -14.73,32.84 -49.31,55.91 -89.6,55.91 -45.57,0 -83.85,-29.53 -94.342,-69.31 9.599,40.93 48.462,71.62 94.902,71.62 40.29,0 74.87,-23.07 89.6,-55.91 l 25.25,0 c 0.21,-11.18 -0.11,-14.42 -0.38,-15.28 l 20.57,8.1 2.12,0 10.38,-15.44 9.46,14.28 3.07,0.09 12.65,-13.84 19.35,17.03 8.4,0.03 22.07,-17.59 14.81,16.09 3.4,-0.12 9.54,-6.72 13.12,5 11.59,-0.53 14.82,-15.75 11.22,14.37 6.93,0 36.35,-47.12 0,-13.41 -0.57,0 z m -390.68,7.69 c -14.04,0 -25.44,11.37 -25.44,25.41 0,2.58 0.37,5.08 1.09,7.43 -0.34,-1.65 -0.53,-3.37 -0.53,-5.12 0,-14.04 11.4,-25.41 25.44,-25.41 11.4,0 21.06,7.53 24.28,17.88 -2.42,-11.53 -12.61,-20.19 -24.84,-20.19 z" />
                  <path
                     inkscape:connector-curvature="0"
                     id="path3581"
                     style="fill:#ffffff;filter:url(#filter3148)"
                     d="m 173.53,283.56 c -53.64,0 -97.186,40.89 -97.186,91.28 0,6.3 0.673,12.47 1.968,18.41 -0.917,-5.04 -1.374,-10.22 -1.374,-15.5 0,-50.39 43.542,-91.28 97.182,-91.28 40.29,0 74.87,23.05 89.6,55.87 l 254.12,0 0,-2.9 -254.72,0 c -14.72,-32.83 -49.3,-55.88 -89.59,-55.88 z m -21.19,87.88 c 0.16,1.12 0.22,2.27 0.22,3.44 0,14.03 -11.37,25.4 -25.4,25.4 -11.82,0 -21.75,-8.07 -24.6,-19 1.72,12.37 12.35,21.91 25.19,21.91 14.04,0 25.41,-11.37 25.41,-25.41 0,-2.19 -0.29,-4.31 -0.82,-6.34 z" />
                  <path
                     inkscape:connector-curvature="0"
                     id="path3583"
                     style="fill:#808080;filter:url(#filter3208)"
                     d="m 191,294.92 c -2.04,0.38 -3.96,1.35 -5.47,2.81 -2.07,2 -3.22,4.75 -3.22,7.63 l 0,138.53 c 0,2.83 1.12,5.53 3.09,7.5 -0.87,-1.56 -1.37,-3.32 -1.37,-5.16 l 0,-138.53 c 0,-2.87 1.15,-5.62 3.22,-7.62 1.07,-1.04 2.36,-1.84 3.75,-2.35 l 0,-2.81 z m 4.62,0.19 0,159.03 c 0.58,-0.14 1.15,-0.29 1.72,-0.44 l 0,-156.25 c 2.56,0.62 5.08,1.36 7.53,2.19 l 0,-1.75 c -3.01,-1.08 -6.08,-2.01 -9.25,-2.78 z m 13.88,4.56 0,149.91 c 0.58,-0.25 1.14,-0.49 1.72,-0.75 l 0,-146.81 c 2.57,1.08 5.09,2.25 7.53,3.56 l 0,-1.38 c -2.97,-1.67 -6.07,-3.19 -9.25,-4.53 z m 13.87,7.35 0,135.21 c 0.58,-0.37 1.15,-0.73 1.72,-1.12 l 0,-131.75 c 2.62,1.69 5.13,3.5 7.53,5.44 l 0,-0.91 c -2.91,-2.48 -6,-4.77 -9.25,-6.87 z m 13.88,11.15 0,112.91 c 0.58,-0.58 1.15,-1.16 1.72,-1.75 l 0,-108.81 c 2.53,2.5 4.93,5.12 7.12,7.9 -2.65,-3.63 -5.61,-7.06 -8.84,-10.25 z m 8.84,10.25 c 0.14,0.18 0.27,0.36 0.41,0.53 l 0,-0.03 c -0.13,-0.17 -0.28,-0.33 -0.41,-0.5 z m 5.03,7.78 0,76.82 c 0.6,-1.07 1.17,-2.13 1.72,-3.22 l 0,-70.35 c -0.55,-1.09 -1.12,-2.18 -1.72,-3.25 z" />
                  <path
                     inkscape:connector-curvature="0"
                     id="path3585"
                     style="fill:#ffdd55;filter:url(#filter3252)"
                     d="m 191.5,295.42 c -1.01,0.19 -1.99,0.54 -2.91,1 l 0,156.06 c -1.1,-0.2 -2.16,-0.58 -3.16,-1.12 0.43,0.48 0.9,0.94 1.41,1.34 1.38,1.09 2.98,1.79 4.66,2.1 l 0,-159.38 z m 10.97,2 0,152.13 c -2.08,0.74 -4.2,1.43 -6.35,2.03 l 0,3.06 c 3.17,-0.77 6.24,-1.7 9.25,-2.78 l 0,-153.47 c -0.96,-0.34 -1.93,-0.65 -2.9,-0.97 z m 13.87,5.72 0,140.09 c -2.06,1.16 -4.17,2.25 -6.34,3.25 l 0,3.6 c 3.18,-1.34 6.28,-2.86 9.25,-4.53 l 0,-140.85 c -0.96,-0.53 -1.93,-1.05 -2.91,-1.56 z m 13.88,8.94 0,121.44 c -2.03,1.72 -4.16,3.35 -6.35,4.9 l 0,4.31 c 3.26,-2.1 6.34,-4.42 9.25,-6.9 l 0,-121.44 c -0.94,-0.8 -1.92,-1.55 -2.9,-2.31 z m 7.53,6.59 0,0.69 c 2.28,2.46 4.4,5.04 6.34,7.75 l 0,91.37 c -1.94,2.71 -4.07,5.29 -6.34,7.75 l 0,5.35 c 3.38,-3.34 6.5,-6.95 9.25,-10.78 l 0,-91.38 c -2.75,-3.83 -5.87,-7.41 -9.25,-10.75 z m 13.87,18.03 0,3.32 c 4.7,10.05 7.31,21.15 7.31,32.78 0,11.63 -2.61,22.72 -7.31,32.78 l 0,7.94 c 6.51,-11.49 10.22,-24.57 10.22,-38.41 0,-13.84 -3.71,-26.92 -10.22,-38.41 z" />
                </g>
              </g>
              <g
                 id="g3471"
                 inkscape:label="Warstwa 1"
                 transform="matrix(0,0.47448893,-0.47448893,0,756.40981,-277.92423)">
                <g
                   id="g3473"
                   inkscape:label="Warstwa 1"
                   transform="matrix(2.1166,0,0,2.1166,-102.65,-421.38)">
                  <path
                     inkscape:connector-curvature="0"
                     id="path3475"
                     sodipodi:nodetypes="csscccccccccccccccccccccccccsssc"
                     style="fill:#ffcc00;stroke:#000000;stroke-width:0.5;stroke-linecap:round;stroke-linejoin:round"
                     d="m 173.53,283.56 c -53.64,0 -97.186,40.89 -97.186,91.28 0,50.4 43.546,91.32 97.186,91.32 40.29,0 74.87,-23.07 89.59,-55.91 l 25.26,0 c 0.33,-17.89 -0.7,-15.44 -0.7,-15.44 l 20.88,8.25 2.13,0 10.37,-15.44 9.47,14.29 3.07,0.11 12.65,-13.86 19.33,17.05 8.4,0 22.08,-17.59 14.81,16.11 3.4,-0.13 9.54,-6.72 13.13,5.01 11.57,-0.53 14.83,-15.77 11.21,14.39 6.94,0 36.35,-47.14 0,-13.4 -254.72,0 c -14.72,-32.83 -49.3,-55.88 -89.59,-55.88 z m -46.37,65.88 c 14.03,0 25.4,11.4 25.4,25.44 0,14.03 -11.37,25.4 -25.4,25.4 -14.04,0 -25.44,-11.4 -25.44,-25.44 0,-14.03 11.4,-25.4 25.44,-25.4 z" />
                  <rect
                     id="rect3477"
                     style="fill:#d4aa00;stroke:#000000;stroke-width:0.5;stroke-linecap:round;stroke-linejoin:round"
                     height="7.6531"
                     width="236.00999"
                     y="347.76001"
                     x="268.10001" />
                  <rect
                     id="rect3479"
                     style="fill:#d4aa00;stroke:#000000;stroke-width:0.5;stroke-linecap:round;stroke-linejoin:round"
                     height="7.6531"
                     width="223.84"
                     y="364.67999"
                     x="268.10001" />
                  <path
                     inkscape:connector-curvature="0"
                     id="path3481"
                     style="fill:#000000;stroke:#000000;stroke-width:0.5;stroke-linecap:round;stroke-linejoin:round;filter:url(#filter3135)"
                     d="m 517.27,337.7 0,11.1 -36.37,47.12 -6.94,0 -11.19,-14.37 -14.84,15.75 -11.56,0.53 -13.13,-5 -9.56,6.72 -3.37,0.12 -14.82,-16.09 -22.09,17.59 -8.41,-0.03 -19.31,-17.03 -12.66,13.84 -3.06,-0.09 -9.47,-14.28 -10.37,15.43 -2.13,0 -20.62,-8.15 c 0.27,0.72 0.65,3.77 0.44,15.34 l -25.25,0 c -14.73,32.84 -49.31,55.91 -89.6,55.91 -45.57,0 -83.85,-29.53 -94.342,-69.31 9.599,40.93 48.462,71.62 94.902,71.62 40.29,0 74.87,-23.07 89.6,-55.91 l 25.25,0 c 0.21,-11.18 -0.11,-14.42 -0.38,-15.28 l 20.57,8.1 2.12,0 10.38,-15.44 9.46,14.28 3.07,0.09 12.65,-13.84 19.35,17.03 8.4,0.03 22.07,-17.59 14.81,16.09 3.4,-0.12 9.54,-6.72 13.12,5 11.59,-0.53 14.82,-15.75 11.22,14.37 6.93,0 36.35,-47.12 0,-13.41 -0.57,0 z m -390.68,7.69 c -14.04,0 -25.44,11.37 -25.44,25.41 0,2.58 0.37,5.08 1.09,7.43 -0.34,-1.65 -0.53,-3.37 -0.53,-5.12 0,-14.04 11.4,-25.41 25.44,-25.41 11.4,0 21.06,7.53 24.28,17.88 -2.42,-11.53 -12.61,-20.19 -24.84,-20.19 z" />
                  <path
                     inkscape:connector-curvature="0"
                     id="path3483"
                     style="fill:#ffffff;filter:url(#filter3148)"
                     d="m 173.53,283.56 c -53.64,0 -97.186,40.89 -97.186,91.28 0,6.3 0.673,12.47 1.968,18.41 -0.917,-5.04 -1.374,-10.22 -1.374,-15.5 0,-50.39 43.542,-91.28 97.182,-91.28 40.29,0 74.87,23.05 89.6,55.87 l 254.12,0 0,-2.9 -254.72,0 c -14.72,-32.83 -49.3,-55.88 -89.59,-55.88 z m -21.19,87.88 c 0.16,1.12 0.22,2.27 0.22,3.44 0,14.03 -11.37,25.4 -25.4,25.4 -11.82,0 -21.75,-8.07 -24.6,-19 1.72,12.37 12.35,21.91 25.19,21.91 14.04,0 25.41,-11.37 25.41,-25.41 0,-2.19 -0.29,-4.31 -0.82,-6.34 z" />
                  <path
                     inkscape:connector-curvature="0"
                     id="path3485"
                     style="fill:#808080;filter:url(#filter3208)"
                     d="m 191,294.92 c -2.04,0.38 -3.96,1.35 -5.47,2.81 -2.07,2 -3.22,4.75 -3.22,7.63 l 0,138.53 c 0,2.83 1.12,5.53 3.09,7.5 -0.87,-1.56 -1.37,-3.32 -1.37,-5.16 l 0,-138.53 c 0,-2.87 1.15,-5.62 3.22,-7.62 1.07,-1.04 2.36,-1.84 3.75,-2.35 l 0,-2.81 z m 4.62,0.19 0,159.03 c 0.58,-0.14 1.15,-0.29 1.72,-0.44 l 0,-156.25 c 2.56,0.62 5.08,1.36 7.53,2.19 l 0,-1.75 c -3.01,-1.08 -6.08,-2.01 -9.25,-2.78 z m 13.88,4.56 0,149.91 c 0.58,-0.25 1.14,-0.49 1.72,-0.75 l 0,-146.81 c 2.57,1.08 5.09,2.25 7.53,3.56 l 0,-1.38 c -2.97,-1.67 -6.07,-3.19 -9.25,-4.53 z m 13.87,7.35 0,135.21 c 0.58,-0.37 1.15,-0.73 1.72,-1.12 l 0,-131.75 c 2.62,1.69 5.13,3.5 7.53,5.44 l 0,-0.91 c -2.91,-2.48 -6,-4.77 -9.25,-6.87 z m 13.88,11.15 0,112.91 c 0.58,-0.58 1.15,-1.16 1.72,-1.75 l 0,-108.81 c 2.53,2.5 4.93,5.12 7.12,7.9 -2.65,-3.63 -5.61,-7.06 -8.84,-10.25 z m 8.84,10.25 c 0.14,0.18 0.27,0.36 0.41,0.53 l 0,-0.03 c -0.13,-0.17 -0.28,-0.33 -0.41,-0.5 z m 5.03,7.78 0,76.82 c 0.6,-1.07 1.17,-2.13 1.72,-3.22 l 0,-70.35 c -0.55,-1.09 -1.12,-2.18 -1.72,-3.25 z" />
                  <path
                     inkscape:connector-curvature="0"
                     id="path3487"
                     style="fill:#ffdd55;filter:url(#filter3252)"
                     d="m 191.5,295.42 c -1.01,0.19 -1.99,0.54 -2.91,1 l 0,156.06 c -1.1,-0.2 -2.16,-0.58 -3.16,-1.12 0.43,0.48 0.9,0.94 1.41,1.34 1.38,1.09 2.98,1.79 4.66,2.1 l 0,-159.38 z m 10.97,2 0,152.13 c -2.08,0.74 -4.2,1.43 -6.35,2.03 l 0,3.06 c 3.17,-0.77 6.24,-1.7 9.25,-2.78 l 0,-153.47 c -0.96,-0.34 -1.93,-0.65 -2.9,-0.97 z m 13.87,5.72 0,140.09 c -2.06,1.16 -4.17,2.25 -6.34,3.25 l 0,3.6 c 3.18,-1.34 6.28,-2.86 9.25,-4.53 l 0,-140.85 c -0.96,-0.53 -1.93,-1.05 -2.91,-1.56 z m 13.88,8.94 0,121.44 c -2.03,1.72 -4.16,3.35 -6.35,4.9 l 0,4.31 c 3.26,-2.1 6.34,-4.42 9.25,-6.9 l 0,-121.44 c -0.94,-0.8 -1.92,-1.55 -2.9,-2.31 z m 7.53,6.59 0,0.69 c 2.28,2.46 4.4,5.04 6.34,7.75 l 0,91.37 c -1.94,2.71 -4.07,5.29 -6.34,7.75 l 0,5.35 c 3.38,-3.34 6.5,-6.95 9.25,-10.78 l 0,-91.38 c -2.75,-3.83 -5.87,-7.41 -9.25,-10.75 z m 13.87,18.03 0,3.32 c 4.7,10.05 7.31,21.15 7.31,32.78 0,11.63 -2.61,22.72 -7.31,32.78 l 0,7.94 c 6.51,-11.49 10.22,-24.57 10.22,-38.41 0,-13.84 -3.71,-26.92 -10.22,-38.41 z" />
                </g>
              </g>
            </g>
            <g
               id="g3679"
               transform="matrix(0.70710678,-0.70710678,0.70710678,0.70710678,30.743127,467.24354)">
              <g
                 id="g3681"
                 inkscape:label="Warstwa 1"
                 transform="matrix(0.47448893,0,0,0.47448893,104.94863,21.50641)">
                <g
                   id="g3683"
                   inkscape:label="Warstwa 1"
                   transform="matrix(2.1166,0,0,2.1166,-102.65,-421.38)">
                  <path
                     inkscape:connector-curvature="0"
                     id="path3685"
                     sodipodi:nodetypes="csscccccccccccccccccccccccccsssc"
                     style="fill:#ffcc00;stroke:#000000;stroke-width:0.5;stroke-linecap:round;stroke-linejoin:round"
                     d="m 173.53,283.56 c -53.64,0 -97.186,40.89 -97.186,91.28 0,50.4 43.546,91.32 97.186,91.32 40.29,0 74.87,-23.07 89.59,-55.91 l 25.26,0 c 0.33,-17.89 -0.7,-15.44 -0.7,-15.44 l 20.88,8.25 2.13,0 10.37,-15.44 9.47,14.29 3.07,0.11 12.65,-13.86 19.33,17.05 8.4,0 22.08,-17.59 14.81,16.11 3.4,-0.13 9.54,-6.72 13.13,5.01 11.57,-0.53 14.83,-15.77 11.21,14.39 6.94,0 36.35,-47.14 0,-13.4 -254.72,0 c -14.72,-32.83 -49.3,-55.88 -89.59,-55.88 z m -46.37,65.88 c 14.03,0 25.4,11.4 25.4,25.44 0,14.03 -11.37,25.4 -25.4,25.4 -14.04,0 -25.44,-11.4 -25.44,-25.44 0,-14.03 11.4,-25.4 25.44,-25.4 z" />
                  <rect
                     id="rect3687"
                     style="fill:#d4aa00;stroke:#000000;stroke-width:0.5;stroke-linecap:round;stroke-linejoin:round"
                     height="7.6531"
                     width="236.00999"
                     y="347.76001"
                     x="268.10001" />
                  <rect
                     id="rect3689"
                     style="fill:#d4aa00;stroke:#000000;stroke-width:0.5;stroke-linecap:round;stroke-linejoin:round"
                     height="7.6531"
                     width="223.84"
                     y="364.67999"
                     x="268.10001" />
                  <path
                     inkscape:connector-curvature="0"
                     id="path3691"
                     style="fill:#000000;stroke:#000000;stroke-width:0.5;stroke-linecap:round;stroke-linejoin:round;filter:url(#filter3135)"
                     d="m 517.27,337.7 0,11.1 -36.37,47.12 -6.94,0 -11.19,-14.37 -14.84,15.75 -11.56,0.53 -13.13,-5 -9.56,6.72 -3.37,0.12 -14.82,-16.09 -22.09,17.59 -8.41,-0.03 -19.31,-17.03 -12.66,13.84 -3.06,-0.09 -9.47,-14.28 -10.37,15.43 -2.13,0 -20.62,-8.15 c 0.27,0.72 0.65,3.77 0.44,15.34 l -25.25,0 c -14.73,32.84 -49.31,55.91 -89.6,55.91 -45.57,0 -83.85,-29.53 -94.342,-69.31 9.599,40.93 48.462,71.62 94.902,71.62 40.29,0 74.87,-23.07 89.6,-55.91 l 25.25,0 c 0.21,-11.18 -0.11,-14.42 -0.38,-15.28 l 20.57,8.1 2.12,0 10.38,-15.44 9.46,14.28 3.07,0.09 12.65,-13.84 19.35,17.03 8.4,0.03 22.07,-17.59 14.81,16.09 3.4,-0.12 9.54,-6.72 13.12,5 11.59,-0.53 14.82,-15.75 11.22,14.37 6.93,0 36.35,-47.12 0,-13.41 -0.57,0 z m -390.68,7.69 c -14.04,0 -25.44,11.37 -25.44,25.41 0,2.58 0.37,5.08 1.09,7.43 -0.34,-1.65 -0.53,-3.37 -0.53,-5.12 0,-14.04 11.4,-25.41 25.44,-25.41 11.4,0 21.06,7.53 24.28,17.88 -2.42,-11.53 -12.61,-20.19 -24.84,-20.19 z" />
                  <path
                     inkscape:connector-curvature="0"
                     id="path3693"
                     style="fill:#ffffff;filter:url(#filter3148)"
                     d="m 173.53,283.56 c -53.64,0 -97.186,40.89 -97.186,91.28 0,6.3 0.673,12.47 1.968,18.41 -0.917,-5.04 -1.374,-10.22 -1.374,-15.5 0,-50.39 43.542,-91.28 97.182,-91.28 40.29,0 74.87,23.05 89.6,55.87 l 254.12,0 0,-2.9 -254.72,0 c -14.72,-32.83 -49.3,-55.88 -89.59,-55.88 z m -21.19,87.88 c 0.16,1.12 0.22,2.27 0.22,3.44 0,14.03 -11.37,25.4 -25.4,25.4 -11.82,0 -21.75,-8.07 -24.6,-19 1.72,12.37 12.35,21.91 25.19,21.91 14.04,0 25.41,-11.37 25.41,-25.41 0,-2.19 -0.29,-4.31 -0.82,-6.34 z" />
                  <path
                     inkscape:connector-curvature="0"
                     id="path3695"
                     style="fill:#808080;filter:url(#filter3208)"
                     d="m 191,294.92 c -2.04,0.38 -3.96,1.35 -5.47,2.81 -2.07,2 -3.22,4.75 -3.22,7.63 l 0,138.53 c 0,2.83 1.12,5.53 3.09,7.5 -0.87,-1.56 -1.37,-3.32 -1.37,-5.16 l 0,-138.53 c 0,-2.87 1.15,-5.62 3.22,-7.62 1.07,-1.04 2.36,-1.84 3.75,-2.35 l 0,-2.81 z m 4.62,0.19 0,159.03 c 0.58,-0.14 1.15,-0.29 1.72,-0.44 l 0,-156.25 c 2.56,0.62 5.08,1.36 7.53,2.19 l 0,-1.75 c -3.01,-1.08 -6.08,-2.01 -9.25,-2.78 z m 13.88,4.56 0,149.91 c 0.58,-0.25 1.14,-0.49 1.72,-0.75 l 0,-146.81 c 2.57,1.08 5.09,2.25 7.53,3.56 l 0,-1.38 c -2.97,-1.67 -6.07,-3.19 -9.25,-4.53 z m 13.87,7.35 0,135.21 c 0.58,-0.37 1.15,-0.73 1.72,-1.12 l 0,-131.75 c 2.62,1.69 5.13,3.5 7.53,5.44 l 0,-0.91 c -2.91,-2.48 -6,-4.77 -9.25,-6.87 z m 13.88,11.15 0,112.91 c 0.58,-0.58 1.15,-1.16 1.72,-1.75 l 0,-108.81 c 2.53,2.5 4.93,5.12 7.12,7.9 -2.65,-3.63 -5.61,-7.06 -8.84,-10.25 z m 8.84,10.25 c 0.14,0.18 0.27,0.36 0.41,0.53 l 0,-0.03 c -0.13,-0.17 -0.28,-0.33 -0.41,-0.5 z m 5.03,7.78 0,76.82 c 0.6,-1.07 1.17,-2.13 1.72,-3.22 l 0,-70.35 c -0.55,-1.09 -1.12,-2.18 -1.72,-3.25 z" />
                  <path
                     inkscape:connector-curvature="0"
                     id="path3697"
                     style="fill:#ffdd55;filter:url(#filter3252)"
                     d="m 191.5,295.42 c -1.01,0.19 -1.99,0.54 -2.91,1 l 0,156.06 c -1.1,-0.2 -2.16,-0.58 -3.16,-1.12 0.43,0.48 0.9,0.94 1.41,1.34 1.38,1.09 2.98,1.79 4.66,2.1 l 0,-159.38 z m 10.97,2 0,152.13 c -2.08,0.74 -4.2,1.43 -6.35,2.03 l 0,3.06 c 3.17,-0.77 6.24,-1.7 9.25,-2.78 l 0,-153.47 c -0.96,-0.34 -1.93,-0.65 -2.9,-0.97 z m 13.87,5.72 0,140.09 c -2.06,1.16 -4.17,2.25 -6.34,3.25 l 0,3.6 c 3.18,-1.34 6.28,-2.86 9.25,-4.53 l 0,-140.85 c -0.96,-0.53 -1.93,-1.05 -2.91,-1.56 z m 13.88,8.94 0,121.44 c -2.03,1.72 -4.16,3.35 -6.35,4.9 l 0,4.31 c 3.26,-2.1 6.34,-4.42 9.25,-6.9 l 0,-121.44 c -0.94,-0.8 -1.92,-1.55 -2.9,-2.31 z m 7.53,6.59 0,0.69 c 2.28,2.46 4.4,5.04 6.34,7.75 l 0,91.37 c -1.94,2.71 -4.07,5.29 -6.34,7.75 l 0,5.35 c 3.38,-3.34 6.5,-6.95 9.25,-10.78 l 0,-91.38 c -2.75,-3.83 -5.87,-7.41 -9.25,-10.75 z m 13.87,18.03 0,3.32 c 4.7,10.05 7.31,21.15 7.31,32.78 0,11.63 -2.61,22.72 -7.31,32.78 l 0,7.94 c 6.51,-11.49 10.22,-24.57 10.22,-38.41 0,-13.84 -3.71,-26.92 -10.22,-38.41 z" />
                </g>
              </g>
              <g
                 id="g3699"
                 inkscape:label="Warstwa 1"
                 transform="matrix(0,-0.47448893,0.47448893,0,404.37927,670.9473)">
                <g
                   id="g3701"
                   inkscape:label="Warstwa 1"
                   transform="matrix(2.1166,0,0,2.1166,-102.65,-421.38)">
                  <path
                     inkscape:connector-curvature="0"
                     id="path3703"
                     sodipodi:nodetypes="csscccccccccccccccccccccccccsssc"
                     style="fill:#ffcc00;stroke:#000000;stroke-width:0.5;stroke-linecap:round;stroke-linejoin:round"
                     d="m 173.53,283.56 c -53.64,0 -97.186,40.89 -97.186,91.28 0,50.4 43.546,91.32 97.186,91.32 40.29,0 74.87,-23.07 89.59,-55.91 l 25.26,0 c 0.33,-17.89 -0.7,-15.44 -0.7,-15.44 l 20.88,8.25 2.13,0 10.37,-15.44 9.47,14.29 3.07,0.11 12.65,-13.86 19.33,17.05 8.4,0 22.08,-17.59 14.81,16.11 3.4,-0.13 9.54,-6.72 13.13,5.01 11.57,-0.53 14.83,-15.77 11.21,14.39 6.94,0 36.35,-47.14 0,-13.4 -254.72,0 c -14.72,-32.83 -49.3,-55.88 -89.59,-55.88 z m -46.37,65.88 c 14.03,0 25.4,11.4 25.4,25.44 0,14.03 -11.37,25.4 -25.4,25.4 -14.04,0 -25.44,-11.4 -25.44,-25.44 0,-14.03 11.4,-25.4 25.44,-25.4 z" />
                  <rect
                     id="rect3705"
                     style="fill:#d4aa00;stroke:#000000;stroke-width:0.5;stroke-linecap:round;stroke-linejoin:round"
                     height="7.6531"
                     width="236.00999"
                     y="347.76001"
                     x="268.10001" />
                  <rect
                     id="rect3707"
                     style="fill:#d4aa00;stroke:#000000;stroke-width:0.5;stroke-linecap:round;stroke-linejoin:round"
                     height="7.6531"
                     width="223.84"
                     y="364.67999"
                     x="268.10001" />
                  <path
                     inkscape:connector-curvature="0"
                     id="path3709"
                     style="fill:#000000;stroke:#000000;stroke-width:0.5;stroke-linecap:round;stroke-linejoin:round;filter:url(#filter3135)"
                     d="m 517.27,337.7 0,11.1 -36.37,47.12 -6.94,0 -11.19,-14.37 -14.84,15.75 -11.56,0.53 -13.13,-5 -9.56,6.72 -3.37,0.12 -14.82,-16.09 -22.09,17.59 -8.41,-0.03 -19.31,-17.03 -12.66,13.84 -3.06,-0.09 -9.47,-14.28 -10.37,15.43 -2.13,0 -20.62,-8.15 c 0.27,0.72 0.65,3.77 0.44,15.34 l -25.25,0 c -14.73,32.84 -49.31,55.91 -89.6,55.91 -45.57,0 -83.85,-29.53 -94.342,-69.31 9.599,40.93 48.462,71.62 94.902,71.62 40.29,0 74.87,-23.07 89.6,-55.91 l 25.25,0 c 0.21,-11.18 -0.11,-14.42 -0.38,-15.28 l 20.57,8.1 2.12,0 10.38,-15.44 9.46,14.28 3.07,0.09 12.65,-13.84 19.35,17.03 8.4,0.03 22.07,-17.59 14.81,16.09 3.4,-0.12 9.54,-6.72 13.12,5 11.59,-0.53 14.82,-15.75 11.22,14.37 6.93,0 36.35,-47.12 0,-13.41 -0.57,0 z m -390.68,7.69 c -14.04,0 -25.44,11.37 -25.44,25.41 0,2.58 0.37,5.08 1.09,7.43 -0.34,-1.65 -0.53,-3.37 -0.53,-5.12 0,-14.04 11.4,-25.41 25.44,-25.41 11.4,0 21.06,7.53 24.28,17.88 -2.42,-11.53 -12.61,-20.19 -24.84,-20.19 z" />
                  <path
                     inkscape:connector-curvature="0"
                     id="path3711"
                     style="fill:#ffffff;filter:url(#filter3148)"
                     d="m 173.53,283.56 c -53.64,0 -97.186,40.89 -97.186,91.28 0,6.3 0.673,12.47 1.968,18.41 -0.917,-5.04 -1.374,-10.22 -1.374,-15.5 0,-50.39 43.542,-91.28 97.182,-91.28 40.29,0 74.87,23.05 89.6,55.87 l 254.12,0 0,-2.9 -254.72,0 c -14.72,-32.83 -49.3,-55.88 -89.59,-55.88 z m -21.19,87.88 c 0.16,1.12 0.22,2.27 0.22,3.44 0,14.03 -11.37,25.4 -25.4,25.4 -11.82,0 -21.75,-8.07 -24.6,-19 1.72,12.37 12.35,21.91 25.19,21.91 14.04,0 25.41,-11.37 25.41,-25.41 0,-2.19 -0.29,-4.31 -0.82,-6.34 z" />
                  <path
                     inkscape:connector-curvature="0"
                     id="path3713"
                     style="fill:#808080;filter:url(#filter3208)"
                     d="m 191,294.92 c -2.04,0.38 -3.96,1.35 -5.47,2.81 -2.07,2 -3.22,4.75 -3.22,7.63 l 0,138.53 c 0,2.83 1.12,5.53 3.09,7.5 -0.87,-1.56 -1.37,-3.32 -1.37,-5.16 l 0,-138.53 c 0,-2.87 1.15,-5.62 3.22,-7.62 1.07,-1.04 2.36,-1.84 3.75,-2.35 l 0,-2.81 z m 4.62,0.19 0,159.03 c 0.58,-0.14 1.15,-0.29 1.72,-0.44 l 0,-156.25 c 2.56,0.62 5.08,1.36 7.53,2.19 l 0,-1.75 c -3.01,-1.08 -6.08,-2.01 -9.25,-2.78 z m 13.88,4.56 0,149.91 c 0.58,-0.25 1.14,-0.49 1.72,-0.75 l 0,-146.81 c 2.57,1.08 5.09,2.25 7.53,3.56 l 0,-1.38 c -2.97,-1.67 -6.07,-3.19 -9.25,-4.53 z m 13.87,7.35 0,135.21 c 0.58,-0.37 1.15,-0.73 1.72,-1.12 l 0,-131.75 c 2.62,1.69 5.13,3.5 7.53,5.44 l 0,-0.91 c -2.91,-2.48 -6,-4.77 -9.25,-6.87 z m 13.88,11.15 0,112.91 c 0.58,-0.58 1.15,-1.16 1.72,-1.75 l 0,-108.81 c 2.53,2.5 4.93,5.12 7.12,7.9 -2.65,-3.63 -5.61,-7.06 -8.84,-10.25 z m 8.84,10.25 c 0.14,0.18 0.27,0.36 0.41,0.53 l 0,-0.03 c -0.13,-0.17 -0.28,-0.33 -0.41,-0.5 z m 5.03,7.78 0,76.82 c 0.6,-1.07 1.17,-2.13 1.72,-3.22 l 0,-70.35 c -0.55,-1.09 -1.12,-2.18 -1.72,-3.25 z" />
                  <path
                     inkscape:connector-curvature="0"
                     id="path3715"
                     style="fill:#ffdd55;filter:url(#filter3252)"
                     d="m 191.5,295.42 c -1.01,0.19 -1.99,0.54 -2.91,1 l 0,156.06 c -1.1,-0.2 -2.16,-0.58 -3.16,-1.12 0.43,0.48 0.9,0.94 1.41,1.34 1.38,1.09 2.98,1.79 4.66,2.1 l 0,-159.38 z m 10.97,2 0,152.13 c -2.08,0.74 -4.2,1.43 -6.35,2.03 l 0,3.06 c 3.17,-0.77 6.24,-1.7 9.25,-2.78 l 0,-153.47 c -0.96,-0.34 -1.93,-0.65 -2.9,-0.97 z m 13.87,5.72 0,140.09 c -2.06,1.16 -4.17,2.25 -6.34,3.25 l 0,3.6 c 3.18,-1.34 6.28,-2.86 9.25,-4.53 l 0,-140.85 c -0.96,-0.53 -1.93,-1.05 -2.91,-1.56 z m 13.88,8.94 0,121.44 c -2.03,1.72 -4.16,3.35 -6.35,4.9 l 0,4.31 c 3.26,-2.1 6.34,-4.42 9.25,-6.9 l 0,-121.44 c -0.94,-0.8 -1.92,-1.55 -2.9,-2.31 z m 7.53,6.59 0,0.69 c 2.28,2.46 4.4,5.04 6.34,7.75 l 0,91.37 c -1.94,2.71 -4.07,5.29 -6.34,7.75 l 0,5.35 c 3.38,-3.34 6.5,-6.95 9.25,-10.78 l 0,-91.38 c -2.75,-3.83 -5.87,-7.41 -9.25,-10.75 z m 13.87,18.03 0,3.32 c 4.7,10.05 7.31,21.15 7.31,32.78 0,11.63 -2.61,22.72 -7.31,32.78 l 0,7.94 c 6.51,-11.49 10.22,-24.57 10.22,-38.41 0,-13.84 -3.71,-26.92 -10.22,-38.41 z" />
                </g>
              </g>
              <g
                 transform="matrix(-0.47448893,0,0,-0.47448893,1053.8202,373.53695)"
                 inkscape:label="Warstwa 1"
                 id="g3717">
                <g
                   transform="matrix(2.1166,0,0,2.1166,-102.65,-421.38)"
                   inkscape:label="Warstwa 1"
                   id="g3719">
                  <path
                     d="m 173.53,283.56 c -53.64,0 -97.186,40.89 -97.186,91.28 0,50.4 43.546,91.32 97.186,91.32 40.29,0 74.87,-23.07 89.59,-55.91 l 25.26,0 c 0.33,-17.89 -0.7,-15.44 -0.7,-15.44 l 20.88,8.25 2.13,0 10.37,-15.44 9.47,14.29 3.07,0.11 12.65,-13.86 19.33,17.05 8.4,0 22.08,-17.59 14.81,16.11 3.4,-0.13 9.54,-6.72 13.13,5.01 11.57,-0.53 14.83,-15.77 11.21,14.39 6.94,0 36.35,-47.14 0,-13.4 -254.72,0 c -14.72,-32.83 -49.3,-55.88 -89.59,-55.88 z m -46.37,65.88 c 14.03,0 25.4,11.4 25.4,25.44 0,14.03 -11.37,25.4 -25.4,25.4 -14.04,0 -25.44,-11.4 -25.44,-25.44 0,-14.03 11.4,-25.4 25.44,-25.4 z"
                     style="fill:#ffcc00;stroke:#000000;stroke-width:0.5;stroke-linecap:round;stroke-linejoin:round"
                     sodipodi:nodetypes="csscccccccccccccccccccccccccsssc"
                     id="path3721"
                     inkscape:connector-curvature="0" />
                  <rect
                     x="268.10001"
                     y="347.76001"
                     width="236.00999"
                     height="7.6531"
                     style="fill:#d4aa00;stroke:#000000;stroke-width:0.5;stroke-linecap:round;stroke-linejoin:round"
                     id="rect3723" />
                  <rect
                     x="268.10001"
                     y="364.67999"
                     width="223.84"
                     height="7.6531"
                     style="fill:#d4aa00;stroke:#000000;stroke-width:0.5;stroke-linecap:round;stroke-linejoin:round"
                     id="rect3725" />
                  <path
                     d="m 517.27,337.7 0,11.1 -36.37,47.12 -6.94,0 -11.19,-14.37 -14.84,15.75 -11.56,0.53 -13.13,-5 -9.56,6.72 -3.37,0.12 -14.82,-16.09 -22.09,17.59 -8.41,-0.03 -19.31,-17.03 -12.66,13.84 -3.06,-0.09 -9.47,-14.28 -10.37,15.43 -2.13,0 -20.62,-8.15 c 0.27,0.72 0.65,3.77 0.44,15.34 l -25.25,0 c -14.73,32.84 -49.31,55.91 -89.6,55.91 -45.57,0 -83.85,-29.53 -94.342,-69.31 9.599,40.93 48.462,71.62 94.902,71.62 40.29,0 74.87,-23.07 89.6,-55.91 l 25.25,0 c 0.21,-11.18 -0.11,-14.42 -0.38,-15.28 l 20.57,8.1 2.12,0 10.38,-15.44 9.46,14.28 3.07,0.09 12.65,-13.84 19.35,17.03 8.4,0.03 22.07,-17.59 14.81,16.09 3.4,-0.12 9.54,-6.72 13.12,5 11.59,-0.53 14.82,-15.75 11.22,14.37 6.93,0 36.35,-47.12 0,-13.41 -0.57,0 z m -390.68,7.69 c -14.04,0 -25.44,11.37 -25.44,25.41 0,2.58 0.37,5.08 1.09,7.43 -0.34,-1.65 -0.53,-3.37 -0.53,-5.12 0,-14.04 11.4,-25.41 25.44,-25.41 11.4,0 21.06,7.53 24.28,17.88 -2.42,-11.53 -12.61,-20.19 -24.84,-20.19 z"
                     style="fill:#000000;stroke:#000000;stroke-width:0.5;stroke-linecap:round;stroke-linejoin:round;filter:url(#filter3135)"
                     id="path3727"
                     inkscape:connector-curvature="0" />
                  <path
                     d="m 173.53,283.56 c -53.64,0 -97.186,40.89 -97.186,91.28 0,6.3 0.673,12.47 1.968,18.41 -0.917,-5.04 -1.374,-10.22 -1.374,-15.5 0,-50.39 43.542,-91.28 97.182,-91.28 40.29,0 74.87,23.05 89.6,55.87 l 254.12,0 0,-2.9 -254.72,0 c -14.72,-32.83 -49.3,-55.88 -89.59,-55.88 z m -21.19,87.88 c 0.16,1.12 0.22,2.27 0.22,3.44 0,14.03 -11.37,25.4 -25.4,25.4 -11.82,0 -21.75,-8.07 -24.6,-19 1.72,12.37 12.35,21.91 25.19,21.91 14.04,0 25.41,-11.37 25.41,-25.41 0,-2.19 -0.29,-4.31 -0.82,-6.34 z"
                     style="fill:#ffffff;filter:url(#filter3148)"
                     id="path3729"
                     inkscape:connector-curvature="0" />
                  <path
                     d="m 191,294.92 c -2.04,0.38 -3.96,1.35 -5.47,2.81 -2.07,2 -3.22,4.75 -3.22,7.63 l 0,138.53 c 0,2.83 1.12,5.53 3.09,7.5 -0.87,-1.56 -1.37,-3.32 -1.37,-5.16 l 0,-138.53 c 0,-2.87 1.15,-5.62 3.22,-7.62 1.07,-1.04 2.36,-1.84 3.75,-2.35 l 0,-2.81 z m 4.62,0.19 0,159.03 c 0.58,-0.14 1.15,-0.29 1.72,-0.44 l 0,-156.25 c 2.56,0.62 5.08,1.36 7.53,2.19 l 0,-1.75 c -3.01,-1.08 -6.08,-2.01 -9.25,-2.78 z m 13.88,4.56 0,149.91 c 0.58,-0.25 1.14,-0.49 1.72,-0.75 l 0,-146.81 c 2.57,1.08 5.09,2.25 7.53,3.56 l 0,-1.38 c -2.97,-1.67 -6.07,-3.19 -9.25,-4.53 z m 13.87,7.35 0,135.21 c 0.58,-0.37 1.15,-0.73 1.72,-1.12 l 0,-131.75 c 2.62,1.69 5.13,3.5 7.53,5.44 l 0,-0.91 c -2.91,-2.48 -6,-4.77 -9.25,-6.87 z m 13.88,11.15 0,112.91 c 0.58,-0.58 1.15,-1.16 1.72,-1.75 l 0,-108.81 c 2.53,2.5 4.93,5.12 7.12,7.9 -2.65,-3.63 -5.61,-7.06 -8.84,-10.25 z m 8.84,10.25 c 0.14,0.18 0.27,0.36 0.41,0.53 l 0,-0.03 c -0.13,-0.17 -0.28,-0.33 -0.41,-0.5 z m 5.03,7.78 0,76.82 c 0.6,-1.07 1.17,-2.13 1.72,-3.22 l 0,-70.35 c -0.55,-1.09 -1.12,-2.18 -1.72,-3.25 z"
                     style="fill:#808080;filter:url(#filter3208)"
                     id="path3731"
                     inkscape:connector-curvature="0" />
                  <path
                     d="m 191.5,295.42 c -1.01,0.19 -1.99,0.54 -2.91,1 l 0,156.06 c -1.1,-0.2 -2.16,-0.58 -3.16,-1.12 0.43,0.48 0.9,0.94 1.41,1.34 1.38,1.09 2.98,1.79 4.66,2.1 l 0,-159.38 z m 10.97,2 0,152.13 c -2.08,0.74 -4.2,1.43 -6.35,2.03 l 0,3.06 c 3.17,-0.77 6.24,-1.7 9.25,-2.78 l 0,-153.47 c -0.96,-0.34 -1.93,-0.65 -2.9,-0.97 z m 13.87,5.72 0,140.09 c -2.06,1.16 -4.17,2.25 -6.34,3.25 l 0,3.6 c 3.18,-1.34 6.28,-2.86 9.25,-4.53 l 0,-140.85 c -0.96,-0.53 -1.93,-1.05 -2.91,-1.56 z m 13.88,8.94 0,121.44 c -2.03,1.72 -4.16,3.35 -6.35,4.9 l 0,4.31 c 3.26,-2.1 6.34,-4.42 9.25,-6.9 l 0,-121.44 c -0.94,-0.8 -1.92,-1.55 -2.9,-2.31 z m 7.53,6.59 0,0.69 c 2.28,2.46 4.4,5.04 6.34,7.75 l 0,91.37 c -1.94,2.71 -4.07,5.29 -6.34,7.75 l 0,5.35 c 3.38,-3.34 6.5,-6.95 9.25,-10.78 l 0,-91.38 c -2.75,-3.83 -5.87,-7.41 -9.25,-10.75 z m 13.87,18.03 0,3.32 c 4.7,10.05 7.31,21.15 7.31,32.78 0,11.63 -2.61,22.72 -7.31,32.78 l 0,7.94 c 6.51,-11.49 10.22,-24.57 10.22,-38.41 0,-13.84 -3.71,-26.92 -10.22,-38.41 z"
                     style="fill:#ffdd55;filter:url(#filter3252)"
                     id="path3733"
                     inkscape:connector-curvature="0" />
                </g>
              </g>
              <g
                 transform="matrix(0,0.47448893,-0.47448893,0,756.40981,-277.92423)"
                 inkscape:label="Warstwa 1"
                 id="g3735">
                <g
                   transform="matrix(2.1166,0,0,2.1166,-102.65,-421.38)"
                   inkscape:label="Warstwa 1"
                   id="g3737">
                  <path
                     d="m 173.53,283.56 c -53.64,0 -97.186,40.89 -97.186,91.28 0,50.4 43.546,91.32 97.186,91.32 40.29,0 74.87,-23.07 89.59,-55.91 l 25.26,0 c 0.33,-17.89 -0.7,-15.44 -0.7,-15.44 l 20.88,8.25 2.13,0 10.37,-15.44 9.47,14.29 3.07,0.11 12.65,-13.86 19.33,17.05 8.4,0 22.08,-17.59 14.81,16.11 3.4,-0.13 9.54,-6.72 13.13,5.01 11.57,-0.53 14.83,-15.77 11.21,14.39 6.94,0 36.35,-47.14 0,-13.4 -254.72,0 c -14.72,-32.83 -49.3,-55.88 -89.59,-55.88 z m -46.37,65.88 c 14.03,0 25.4,11.4 25.4,25.44 0,14.03 -11.37,25.4 -25.4,25.4 -14.04,0 -25.44,-11.4 -25.44,-25.44 0,-14.03 11.4,-25.4 25.44,-25.4 z"
                     style="fill:#ffcc00;stroke:#000000;stroke-width:0.5;stroke-linecap:round;stroke-linejoin:round"
                     sodipodi:nodetypes="csscccccccccccccccccccccccccsssc"
                     id="path3739"
                     inkscape:connector-curvature="0" />
                  <rect
                     x="268.10001"
                     y="347.76001"
                     width="236.00999"
                     height="7.6531"
                     style="fill:#d4aa00;stroke:#000000;stroke-width:0.5;stroke-linecap:round;stroke-linejoin:round"
                     id="rect3741" />
                  <rect
                     x="268.10001"
                     y="364.67999"
                     width="223.84"
                     height="7.6531"
                     style="fill:#d4aa00;stroke:#000000;stroke-width:0.5;stroke-linecap:round;stroke-linejoin:round"
                     id="rect3743" />
                  <path
                     d="m 517.27,337.7 0,11.1 -36.37,47.12 -6.94,0 -11.19,-14.37 -14.84,15.75 -11.56,0.53 -13.13,-5 -9.56,6.72 -3.37,0.12 -14.82,-16.09 -22.09,17.59 -8.41,-0.03 -19.31,-17.03 -12.66,13.84 -3.06,-0.09 -9.47,-14.28 -10.37,15.43 -2.13,0 -20.62,-8.15 c 0.27,0.72 0.65,3.77 0.44,15.34 l -25.25,0 c -14.73,32.84 -49.31,55.91 -89.6,55.91 -45.57,0 -83.85,-29.53 -94.342,-69.31 9.599,40.93 48.462,71.62 94.902,71.62 40.29,0 74.87,-23.07 89.6,-55.91 l 25.25,0 c 0.21,-11.18 -0.11,-14.42 -0.38,-15.28 l 20.57,8.1 2.12,0 10.38,-15.44 9.46,14.28 3.07,0.09 12.65,-13.84 19.35,17.03 8.4,0.03 22.07,-17.59 14.81,16.09 3.4,-0.12 9.54,-6.72 13.12,5 11.59,-0.53 14.82,-15.75 11.22,14.37 6.93,0 36.35,-47.12 0,-13.41 -0.57,0 z m -390.68,7.69 c -14.04,0 -25.44,11.37 -25.44,25.41 0,2.58 0.37,5.08 1.09,7.43 -0.34,-1.65 -0.53,-3.37 -0.53,-5.12 0,-14.04 11.4,-25.41 25.44,-25.41 11.4,0 21.06,7.53 24.28,17.88 -2.42,-11.53 -12.61,-20.19 -24.84,-20.19 z"
                     style="fill:#000000;stroke:#000000;stroke-width:0.5;stroke-linecap:round;stroke-linejoin:round;filter:url(#filter3135)"
                     id="path3745"
                     inkscape:connector-curvature="0" />
                  <path
                     d="m 173.53,283.56 c -53.64,0 -97.186,40.89 -97.186,91.28 0,6.3 0.673,12.47 1.968,18.41 -0.917,-5.04 -1.374,-10.22 -1.374,-15.5 0,-50.39 43.542,-91.28 97.182,-91.28 40.29,0 74.87,23.05 89.6,55.87 l 254.12,0 0,-2.9 -254.72,0 c -14.72,-32.83 -49.3,-55.88 -89.59,-55.88 z m -21.19,87.88 c 0.16,1.12 0.22,2.27 0.22,3.44 0,14.03 -11.37,25.4 -25.4,25.4 -11.82,0 -21.75,-8.07 -24.6,-19 1.72,12.37 12.35,21.91 25.19,21.91 14.04,0 25.41,-11.37 25.41,-25.41 0,-2.19 -0.29,-4.31 -0.82,-6.34 z"
                     style="fill:#ffffff;filter:url(#filter3148)"
                     id="path3747"
                     inkscape:connector-curvature="0" />
                  <path
                     d="m 191,294.92 c -2.04,0.38 -3.96,1.35 -5.47,2.81 -2.07,2 -3.22,4.75 -3.22,7.63 l 0,138.53 c 0,2.83 1.12,5.53 3.09,7.5 -0.87,-1.56 -1.37,-3.32 -1.37,-5.16 l 0,-138.53 c 0,-2.87 1.15,-5.62 3.22,-7.62 1.07,-1.04 2.36,-1.84 3.75,-2.35 l 0,-2.81 z m 4.62,0.19 0,159.03 c 0.58,-0.14 1.15,-0.29 1.72,-0.44 l 0,-156.25 c 2.56,0.62 5.08,1.36 7.53,2.19 l 0,-1.75 c -3.01,-1.08 -6.08,-2.01 -9.25,-2.78 z m 13.88,4.56 0,149.91 c 0.58,-0.25 1.14,-0.49 1.72,-0.75 l 0,-146.81 c 2.57,1.08 5.09,2.25 7.53,3.56 l 0,-1.38 c -2.97,-1.67 -6.07,-3.19 -9.25,-4.53 z m 13.87,7.35 0,135.21 c 0.58,-0.37 1.15,-0.73 1.72,-1.12 l 0,-131.75 c 2.62,1.69 5.13,3.5 7.53,5.44 l 0,-0.91 c -2.91,-2.48 -6,-4.77 -9.25,-6.87 z m 13.88,11.15 0,112.91 c 0.58,-0.58 1.15,-1.16 1.72,-1.75 l 0,-108.81 c 2.53,2.5 4.93,5.12 7.12,7.9 -2.65,-3.63 -5.61,-7.06 -8.84,-10.25 z m 8.84,10.25 c 0.14,0.18 0.27,0.36 0.41,0.53 l 0,-0.03 c -0.13,-0.17 -0.28,-0.33 -0.41,-0.5 z m 5.03,7.78 0,76.82 c 0.6,-1.07 1.17,-2.13 1.72,-3.22 l 0,-70.35 c -0.55,-1.09 -1.12,-2.18 -1.72,-3.25 z"
                     style="fill:#808080;filter:url(#filter3208)"
                     id="path3749"
                     inkscape:connector-curvature="0" />
                  <path
                     d="m 191.5,295.42 c -1.01,0.19 -1.99,0.54 -2.91,1 l 0,156.06 c -1.1,-0.2 -2.16,-0.58 -3.16,-1.12 0.43,0.48 0.9,0.94 1.41,1.34 1.38,1.09 2.98,1.79 4.66,2.1 l 0,-159.38 z m 10.97,2 0,152.13 c -2.08,0.74 -4.2,1.43 -6.35,2.03 l 0,3.06 c 3.17,-0.77 6.24,-1.7 9.25,-2.78 l 0,-153.47 c -0.96,-0.34 -1.93,-0.65 -2.9,-0.97 z m 13.87,5.72 0,140.09 c -2.06,1.16 -4.17,2.25 -6.34,3.25 l 0,3.6 c 3.18,-1.34 6.28,-2.86 9.25,-4.53 l 0,-140.85 c -0.96,-0.53 -1.93,-1.05 -2.91,-1.56 z m 13.88,8.94 0,121.44 c -2.03,1.72 -4.16,3.35 -6.35,4.9 l 0,4.31 c 3.26,-2.1 6.34,-4.42 9.25,-6.9 l 0,-121.44 c -0.94,-0.8 -1.92,-1.55 -2.9,-2.31 z m 7.53,6.59 0,0.69 c 2.28,2.46 4.4,5.04 6.34,7.75 l 0,91.37 c -1.94,2.71 -4.07,5.29 -6.34,7.75 l 0,5.35 c 3.38,-3.34 6.5,-6.95 9.25,-10.78 l 0,-91.38 c -2.75,-3.83 -5.87,-7.41 -9.25,-10.75 z m 13.87,18.03 0,3.32 c 4.7,10.05 7.31,21.15 7.31,32.78 0,11.63 -2.61,22.72 -7.31,32.78 l 0,7.94 c 6.51,-11.49 10.22,-24.57 10.22,-38.41 0,-13.84 -3.71,-26.92 -10.22,-38.41 z"
                     style="fill:#ffdd55;filter:url(#filter3252)"
                     id="path3751"
                     inkscape:connector-curvature="0" />
                </g>
              </g>
            </g>
          </g>
        </g>
      </g>
    </g>
  </g>
</svg>
