<?xml version="1.0" standalone="no"?>
<!DOCTYPE svg PUBLIC "-//W3C//DTD SVG 20010904//EN"
 "http://www.w3.org/TR/2001/REC-SVG-20010904/DTD/svg10.dtd">
<svg version="1.0" xmlns="http://www.w3.org/2000/svg"
 width="290.000000pt" height="290.000000pt" viewBox="0 0 290.000000 290.000000"
 preserveAspectRatio="xMidYMid meet">
<metadata>
Created by potrace 1.11, written by Peter Selinger 2001-2013
</metadata>
<g transform="translate(0.000000,290.000000) scale(0.100000,-0.100000)"
fill="#000000" stroke="none">
<path d="M1438 2848 c-2 -13 0 -36 4 -52 4 -17 6 -46 4 -65 -3 -20 -7 -69 -11
-108 -4 -40 -8 -81 -10 -90 -1 -10 -6 -59 -10 -109 -7 -84 -9 -93 -31 -103
-13 -6 -24 -17 -24 -25 0 -8 -5 -18 -11 -22 -8 -5 -10 3 -7 25 2 17 1 31 -4
31 -4 0 -8 -15 -8 -32 -1 -29 -2 -31 -14 -16 -18 24 -106 35 -106 13 0 -18
-17 -20 -23 -2 -3 9 -7 9 -19 0 -8 -7 -17 -11 -19 -8 -6 6 -80 14 -179 20
-153 8 -285 17 -310 20 -14 2 -55 4 -92 4 -54 1 -68 4 -68 16 0 19 -26 20 -34
0 -3 -8 -11 -12 -19 -9 -8 3 -20 -2 -27 -11 -10 -12 -10 -18 0 -30 11 -14 -1
-15 -113 -13 -114 2 -150 -2 -135 -17 3 -3 61 -6 130 -8 l125 -2 -17 -38 c-20
-43 -17 -108 7 -143 19 -30 69 -44 155 -44 109 0 291 46 339 86 13 11 30 11
100 0 78 -14 107 -17 244 -32 28 -3 55 -7 60 -8 6 -2 9 -36 7 -82 -1 -44 -3
-91 -3 -105 0 -15 9 -78 20 -140 12 -63 23 -127 26 -144 3 -16 13 -64 21 -105
9 -41 18 -86 20 -100 3 -14 38 -191 79 -395 40 -203 76 -383 78 -400 3 -16 10
-43 16 -58 11 -29 16 -157 6 -157 -4 0 -20 7 -37 16 -24 12 -30 13 -26 3 4
-11 -9 -13 -66 -11 -39 2 -75 8 -81 13 -12 12 -28 12 -20 -1 8 -14 -120 -13
-146 0 -11 6 -19 7 -19 2 0 -6 -30 -13 -67 -17 -38 -4 -75 -11 -84 -15 -8 -5
-60 -11 -115 -14 -54 -4 -114 -9 -132 -12 -18 -4 -38 -2 -45 2 -6 5 -28 9 -47
9 -32 0 -35 -3 -40 -35 -7 -45 -2 -60 20 -60 14 0 17 -7 15 -37 -4 -66 5 -73
95 -73 90 0 98 7 93 72 l-2 38 94 0 95 0 80 -62 c45 -33 113 -90 152 -125 l70
-63 417 0 c385 0 419 2 457 19 60 27 124 88 124 117 0 40 -45 117 -95 163 -40
37 -48 41 -63 29 -9 -7 -13 -8 -9 -1 4 6 4 18 1 27 -5 12 -20 16 -66 16 -34 0
-72 7 -90 16 -28 15 -30 15 -25 0 5 -13 -1 -16 -36 -17 -60 -2 -78 1 -111 18
-26 14 -28 14 -23 -1 5 -14 -3 -16 -54 -16 -38 0 -69 6 -84 16 -23 15 -25 15
-25 0 0 -9 -7 -16 -15 -16 -8 0 -15 6 -15 13 0 7 -8 23 -17 37 -12 16 -17 47
-19 99 -2 71 -25 203 -89 511 -15 69 -28 136 -31 150 -3 14 -16 77 -29 140
-51 242 -57 271 -80 415 -9 55 -23 125 -29 155 -7 30 -12 62 -11 70 4 27 50
87 66 85 15 -3 82 -9 224 -22 44 -4 157 -7 250 -7 152 0 176 3 230 23 71 27
50 25 255 16 283 -12 340 -12 340 2 0 9 -19 13 -62 14 -115 1 -336 9 -370 13
-18 3 -44 5 -57 5 -16 1 -21 5 -18 15 7 17 -9 32 -38 38 -11 2 -20 8 -20 15 0
20 -14 27 -21 9 -6 -17 -64 -23 -78 -8 -4 4 -11 7 -14 8 -4 0 -34 4 -67 9 -33
4 -69 9 -80 10 -11 1 -42 5 -70 9 -27 4 -99 14 -160 22 -164 22 -162 21 -169
55 -5 28 -26 42 -26 17 0 -6 -9 -3 -20 7 -16 14 -19 27 -16 59 10 86 19 180
32 321 3 39 11 79 16 89 6 11 13 34 15 51 4 28 1 31 -26 33 -24 2 -30 -2 -33
-20z m-35 -556 c-5 -20 -33 -26 -33 -7 0 15 10 25 26 25 7 0 10 -8 7 -18z m51
-13 c-10 -16 -24 -9 -24 12 0 18 2 19 15 9 8 -7 12 -16 9 -21z m-834 -14 c74
-4 155 -9 180 -11 124 -10 163 -13 260 -24 58 -6 125 -13 150 -16 25 -2 68 -7
95 -10 28 -4 61 -8 75 -9 57 -7 138 -16 175 -21 22 -3 51 -7 65 -8 14 -2 52
-6 85 -10 33 -4 78 -9 100 -12 50 -6 100 -11 197 -19 42 -4 85 -8 95 -10 10
-2 37 -4 61 -4 28 -1 41 -5 37 -12 -4 -6 -28 -8 -63 -4 -32 4 -82 8 -112 11
-30 2 -71 6 -90 8 -19 3 -64 8 -100 11 -91 10 -181 20 -250 30 -14 2 -56 7
-95 11 -38 3 -78 8 -89 10 -10 2 -44 6 -75 9 -31 3 -72 8 -91 10 -19 3 -62 7
-95 10 -33 3 -80 8 -105 11 -25 3 -70 7 -100 10 -30 2 -82 6 -115 9 -78 7
-268 18 -322 19 -24 0 -43 3 -43 6 0 11 12 19 23 15 7 -2 73 -7 147 -10z
m1662 -1990 c84 -105 73 -146 -15 -59 -28 27 -47 55 -47 68 0 45 21 42 62 -9z
m-1072 -19 c0 -20 -20 -25 -47 -13 -34 15 -28 27 12 27 24 0 35 -5 35 -14z
m957 -13 c21 -63 -4 -144 -50 -159 -12 -4 -166 -8 -342 -9 -347 -1 -342 -2
-417 57 -45 35 -74 74 -83 111 l-7 27 445 0 445 0 9 -27z"/>
<path d="M1379 2768 c-5 -27 -10 -92 -6 -88 7 7 18 90 12 90 -3 0 -5 -1 -6 -2z"/>
<path d="M1365 2661 c-3 -5 -2 -12 3 -15 5 -3 9 1 9 9 0 17 -3 19 -12 6z"/>
<path d="M1358 2594 c-2 -19 -1 -37 2 -39 3 -2 7 14 8 36 3 49 -4 52 -10 3z"/>
<path d="M1352 2495 c0 -16 2 -22 5 -12 2 9 2 23 0 30 -3 6 -5 -1 -5 -18z"/>
<path d="M1344 2446 c-3 -8 -4 -31 -2 -52 3 -36 4 -35 8 14 5 53 4 63 -6 38z"/>
</g>
</svg>
