<?xml version="1.0" encoding="UTF-8" standalone="no"?>
<!-- Created with Inkscape (http://www.inkscape.org/) -->

<svg
   xmlns:dc="http://purl.org/dc/elements/1.1/"
   xmlns:cc="http://creativecommons.org/ns#"
   xmlns:rdf="http://www.w3.org/1999/02/22-rdf-syntax-ns#"
   xmlns:svg="http://www.w3.org/2000/svg"
   xmlns="http://www.w3.org/2000/svg"
   xmlns:sodipodi="http://sodipodi.sourceforge.net/DTD/sodipodi-0.dtd"
   xmlns:inkscape="http://www.inkscape.org/namespaces/inkscape"
   width="24"
   height="24"
   id="svg2"
   version="1.1"
   inkscape:version="0.48.4 r9939"
   sodipodi:docname="magnify-reset.svg">
  <defs
     id="defs4" />
  <sodipodi:namedview
     id="base"
     pagecolor="#ffffff"
     bordercolor="#666666"
     borderopacity="1.0"
     inkscape:pageopacity="0.0"
     inkscape:pageshadow="2"
     inkscape:zoom="7.919596"
     inkscape:cx="73.921662"
     inkscape:cy="65.196428"
     inkscape:document-units="px"
     inkscape:current-layer="g2987"
     showgrid="false"
     inkscape:window-width="1792"
     inkscape:window-height="1355"
     inkscape:window-x="469"
     inkscape:window-y="173"
     inkscape:window-maximized="0" />
  <metadata
     id="metadata7">
    <rdf:RDF>
      <cc:Work
         rdf:about="">
        <dc:format>image/svg+xml</dc:format>
        <dc:type
           rdf:resource="http://purl.org/dc/dcmitype/StillImage" />
        <dc:title />
      </cc:Work>
    </rdf:RDF>
  </metadata>
  <g
     inkscape:label="Layer 1"
     inkscape:groupmode="layer"
     id="layer1"
     transform="translate(0,-1028.3622)">
    <g
       id="g2987"
       transform="translate(319.64498,-653.3356)">
      <rect
         id="rect2989"
         x="-1417.1649"
         y="983.3736"
         width="4"
         height="10"
         transform="matrix(0.70710678,-0.70710678,0.70710678,0.70710678,0,0)"
         style="fill:#95a5a6" />
      <rect
         id="rect2991"
         x="-1417.1649"
         y="983.3736"
         width="4"
         height="3"
         transform="matrix(0.70710678,-0.70710678,0.70710678,0.70710678,0,0)"
         style="fill:#7f8c8d" />
      <path
         id="path2993"
         d="m -316.63855,1684.7161 c -3.5147,3.5 -3.5147,9.2 0,12.7 3.5148,3.5 9.213,3.5 12.728,0 3.515,-3.5 3.515,-9.2 0,-12.7 -3.515,-3.5 -9.2133,-3.5 -12.728,0 z m 2.1213,2.1 c 2.3432,-2.3 6.1417,-2.3 8.4857,0 2.343,2.4 2.343,6.2 0,8.5 -2.344,2.3 -6.1425,2.3 -8.4857,0 -2.3431,-2.3 -2.3431,-6.1 0,-8.5 z"
         inkscape:connector-curvature="0"
         style="fill:#bdc3c7" />
      <path
         id="path2995"
         d="m -303.83955,1691.2161 c 0,3.59 -2.91,6.5 -6.5,6.5 -3.5899,0 -6.5,-2.91 -6.5,-6.5 0,-3.5899 2.9101,-6.5 6.5,-6.5 3.59,0 6.5,2.9101 6.5,6.5 z"
         inkscape:connector-curvature="0"
         style="fill:#ecf0f1" />
      <path
         style="fill:none;stroke:#95a5a6;stroke-width:1px;stroke-linecap:butt;stroke-linejoin:miter;stroke-opacity:1"
         d="m -313.16756,1690.1746 c 5.40177,0 5.40177,0 5.40177,0"
         id="path3779"
         inkscape:connector-curvature="0" />
      <path
         style="fill:none;stroke:#95a5a6;stroke-width:1px;stroke-linecap:butt;stroke-linejoin:miter;stroke-opacity:1"
         d="m -313.16756,1692.8889 c 5.40177,0 5.40177,0 5.40177,0"
         id="path3779-7"
         inkscape:connector-curvature="0" />
    </g>
  </g>
</svg>
