<?xml version="1.0" encoding="UTF-8" standalone="no"?>
<svg
   xmlns:dc="http://purl.org/dc/elements/1.1/"
   xmlns:cc="http://creativecommons.org/ns#"
   xmlns:rdf="http://www.w3.org/1999/02/22-rdf-syntax-ns#"
   xmlns:svg="http://www.w3.org/2000/svg"
   xmlns="http://www.w3.org/2000/svg"
   xmlns:sodipodi="http://sodipodi.sourceforge.net/DTD/sodipodi-0.dtd"
   xmlns:inkscape="http://www.inkscape.org/namespaces/inkscape"
   height="24"
   width="40"
   version="1.1"
   id="svg2"
   inkscape:version="0.48.4 r9939"
   sodipodi:docname="switch-on-wide.svg">
  <metadata
     id="metadata36">
    <rdf:RDF>
      <cc:Work
         rdf:about="">
        <dc:format>image/svg+xml</dc:format>
        <dc:type
           rdf:resource="http://purl.org/dc/dcmitype/StillImage" />
      </cc:Work>
    </rdf:RDF>
  </metadata>
  <defs
     id="defs34" />
  <sodipodi:namedview
     pagecolor="#ffffff"
     bordercolor="#666666"
     borderopacity="1"
     objecttolerance="10"
     gridtolerance="10"
     guidetolerance="10"
     inkscape:pageopacity="0"
     inkscape:pageshadow="2"
     inkscape:window-width="1455"
     inkscape:window-height="1233"
     id="namedview32"
     showgrid="false"
     fit-margin-top="1"
     fit-margin-left="0"
     fit-margin-right="0"
     fit-margin-bottom="0"
     inkscape:zoom="4.9166665"
     inkscape:cx="67.883338"
     inkscape:cy="20.890868"
     inkscape:window-x="1401"
     inkscape:window-y="344"
     inkscape:window-maximized="0"
     inkscape:current-layer="svg2"
     showguides="true"
     inkscape:guide-bbox="true" />
  <g
     id="g6"
     transform="matrix(1.7950694,0,0,1.688902,-1.4899846,-1745.1788)">
    <path
       style="fill:#95a5a6"
       inkscape:connector-curvature="0"
       id="path8"
       d="m 17,1034.4 c 3.314,0 6,2.6 6,6 0,3.3 -2.686,6 -6,6 H 12 7 c -3.3137,0 -6,-2.7 -6,-6 0,-3.4 2.6863,-6 6,-6 h 5 5 z" />
    <path
       style="fill:#bdc3c7"
       inkscape:connector-curvature="0"
       id="path10"
       d="m 17,1033.4 c 3.314,0 6,2.6 6,6 0,3.3 -2.686,6 -6,6 H 12 7 c -3.3137,0 -6,-2.7 -6,-6 0,-3.4 2.6863,-6 6,-6 h 5 5 z" />
    <path
       style="fill:#2ecc71"
       inkscape:connector-curvature="0"
       id="path12"
       d="m 17,1035.4 c 2.209,0 4,1.8 4,4 0,2.2 -1.791,4 -4,4 H 12 7 c -2.2091,0 -4,-1.8 -4,-4 0,-2.2 1.7909,-4 4,-4 h 5 5 z" />
    <path
       style="fill:#27ae60"
       inkscape:connector-curvature="0"
       id="path14"
       d="m 17,1035.4 c 2.209,0 4,1.8 4,4 0,0.1 -0.042,0.3 -0.062,0.5 -0.248,-2 -1.899,-3.5 -3.938,-3.5 H 12 7 c -2.039,0 -3.6904,1.5 -3.9375,3.5 C 3.0419,1039.7 3,1039.5 3,1039.4 c 0,-2.2 1.7909,-4 4,-4 h 5 5 z" />
  </g>
  <text
     xml:space="preserve"
     style="font-size:10px;font-style:normal;font-variant:normal;font-weight:bold;font-stretch:normal;text-align:start;line-height:125%;letter-spacing:0px;word-spacing:0px;writing-mode:lr-tb;text-anchor:start;fill:#ecf0f1;fill-opacity:1;stroke:none;font-family:Noto Sans;-inkscape-font-specification:Noto Sans Bold"
     x="17.739578"
     y="14.715375"
     id="text3032"
     sodipodi:linespacing="125%"
     transform="scale(1.044847,0.95707791)"><tspan
       sodipodi:role="line"
       id="tspan3034"
       x="17.739578"
       y="14.715375"
       style="font-size:10px;font-style:normal;font-variant:normal;font-weight:bold;font-stretch:normal;text-align:start;line-height:125%;writing-mode:lr-tb;text-anchor:start;fill:#ecf0f1;fill-opacity:1;font-family:Noto Sans;-inkscape-font-specification:Noto Sans Bold">on</tspan></text>
  <path
     d="m 3.9198447,8.0774064 -0.033709,2.2838386 c -0.058619,3.616107 2.2965817,6.661339 5.1295691,6.661339 h 2.1983862 c 3.237492,0 5.862365,-3.425929 5.862365,-7.6129094 0,-0.7613935 -0.108453,-1.3322682 -0.228632,-1.9033133 z"
     id="path20"
     inkscape:connector-curvature="0"
     style="fill:#7f8c8d" />
  <path
     d="m 9.0157052,2.7846658 c -2.8329874,0 -5.1295691,2.6430438 -5.1295691,6.1672174 0,3.3481518 2.2965817,6.1673878 5.1295691,6.1673878 h 2.9311818 c 2.832989,0 5.12957,-2.819236 5.12957,-6.1673878 0,-3.5241736 -2.296581,-6.1672174 -5.12957,-6.1672174 H 9.0157052 z"
     id="path22"
     inkscape:connector-curvature="0"
     style="fill:#ecf0f1" />
</svg>
