<?xml version="1.0" encoding="UTF-8" standalone="no"?>
<svg
   xmlns:dc="http://purl.org/dc/elements/1.1/"
   xmlns:cc="http://creativecommons.org/ns#"
   xmlns:rdf="http://www.w3.org/1999/02/22-rdf-syntax-ns#"
   xmlns:svg="http://www.w3.org/2000/svg"
   xmlns="http://www.w3.org/2000/svg"
   xmlns:sodipodi="http://sodipodi.sourceforge.net/DTD/sodipodi-0.dtd"
   xmlns:inkscape="http://www.inkscape.org/namespaces/inkscape"
   height="24"
   width="40"
   version="1.1"
   id="svg2"
   inkscape:version="0.48.4 r9939"
   sodipodi:docname="switch-off-wide.svg">
  <metadata
     id="metadata36">
    <rdf:RDF>
      <cc:Work
         rdf:about="">
        <dc:format>image/svg+xml</dc:format>
        <dc:type
           rdf:resource="http://purl.org/dc/dcmitype/StillImage" />
        <dc:title />
      </cc:Work>
    </rdf:RDF>
  </metadata>
  <defs
     id="defs34" />
  <sodipodi:namedview
     pagecolor="#ffffff"
     bordercolor="#666666"
     borderopacity="1"
     objecttolerance="10"
     gridtolerance="10"
     guidetolerance="10"
     inkscape:pageopacity="0"
     inkscape:pageshadow="2"
     inkscape:window-width="2880"
     inkscape:window-height="1543"
     id="namedview32"
     showgrid="false"
     fit-margin-top="1"
     fit-margin-left="0"
     fit-margin-right="0"
     fit-margin-bottom="0"
     inkscape:zoom="6.9532165"
     inkscape:cx="-2.9306124"
     inkscape:cy="0.33828384"
     inkscape:window-x="-12"
     inkscape:window-y="-3"
     inkscape:window-maximized="1"
     inkscape:current-layer="svg2" />
  <path
     d="m 10.954353,1.6750153 c -5.9954546,0 -10.8547759,4.4672333 -10.8547759,10.3092147 0,5.670301 4.8593213,10.309401 10.8547759,10.309401 h 9.045646 9.045647 c 5.994912,0 10.854776,-4.6391 10.854776,-10.309401 0,-5.8419814 -4.859864,-10.3092147 -10.854776,-10.3092147 h -9.045647 -9.045646 z"
     id="path8"
     inkscape:connector-curvature="0"
     style="fill:#95a5a6" />
  <path
     d="m 10.954353,-0.0432803 c -5.9954546,0 -10.8547759,4.4674196 -10.8547759,10.3094013 0,5.670115 4.8593213,10.309401 10.8547759,10.309401 h 9.045646 9.045647 c 5.994912,0 10.854776,-4.639286 10.854776,-10.309401 0,-5.8419817 -4.859864,-10.3094013 -10.854776,-10.3094013 h -9.045647 -9.045646 z"
     id="path10"
     inkscape:connector-curvature="0"
     style="fill:#bdc3c7" />
  <path
     d="m 10.954353,3.3931247 c -3.9963667,0 -7.2365173,3.0928575 -7.2365173,6.8729963 0,3.780138 3.2401506,6.87281 7.2365173,6.87281 h 9.045646 9.045647 c 3.996547,0 7.236517,-3.092672 7.236517,-6.87281 0,-3.7801388 -3.23997,-6.8729963 -7.236517,-6.8729963 h -9.045647 -9.045646 z"
     id="path12"
     inkscape:connector-curvature="0"
     style="fill:#95a5a6;fill-opacity:1" />
  <path
     d="m 10.954353,3.3931247 c -3.9963667,0 -7.2365173,3.0928575 -7.2365173,6.8729963 0,0.171308 0.075983,0.515414 0.112166,0.859148 C 4.2786658,7.6886774 7.2655383,5.1114203 10.954353,5.1114203 h 9.045646 9.045647 c 3.688815,0 6.676411,2.5772571 7.123447,6.0138487 0.03727,-0.343734 0.11307,-0.687281 0.11307,-0.859148 0,-3.7801388 -3.23997,-6.8729963 -7.236517,-6.8729963 h -9.045647 -9.045646 z"
     id="path14"
     inkscape:connector-curvature="0"
     style="fill:#7f8c8d;fill-opacity:1" />
  <text
     xml:space="preserve"
     style="font-size:10px;font-style:normal;font-variant:normal;font-weight:bold;font-stretch:normal;text-align:start;line-height:125%;letter-spacing:0px;word-spacing:0px;writing-mode:lr-tb;text-anchor:start;fill:#ecf0f1;fill-opacity:1;stroke:none;font-family:Noto Sans;-inkscape-font-specification:Noto Sans Bold"
     x="7.0121403"
     y="14.971441"
     id="text3032"
     sodipodi:linespacing="125%"
     transform="scale(1.0205093,0.97990288)"><tspan
       sodipodi:role="line"
       id="tspan3034"
       x="7.0121403"
       y="14.971441"
       style="font-size:10px;font-style:normal;font-variant:normal;font-weight:bold;font-stretch:normal;text-align:start;line-height:125%;writing-mode:lr-tb;text-anchor:start;fill:#ecf0f1;fill-opacity:1;font-family:Noto Sans;-inkscape-font-specification:Noto Sans Bold">off</tspan></text>
  <path
     d="m 23.208917,8.1870746 -0.03371,2.2838384 c -0.05862,3.616107 2.296582,6.661339 5.129569,6.661339 h 2.198386 c 3.237492,0 5.862365,-3.425929 5.862365,-7.6129092 0,-0.7613935 -0.108453,-1.3322682 -0.228632,-1.9033133 z"
     id="path20"
     inkscape:connector-curvature="0"
     style="fill:#7f8c8d" />
  <path
     d="m 28.304778,2.894334 c -2.832988,0 -5.12957,2.6430438 -5.12957,6.1672174 0,3.3481516 2.296582,6.1673876 5.12957,6.1673876 h 2.931181 c 2.832989,0 5.12957,-2.819236 5.12957,-6.1673876 0,-3.5241736 -2.296581,-6.1672174 -5.12957,-6.1672174 h -2.931181 z"
     id="path22"
     inkscape:connector-curvature="0"
     style="fill:#ecf0f1" />
</svg>
