<?xml version="1.0" encoding="UTF-8" standalone="no"?>
<svg
   xmlns:dc="http://purl.org/dc/elements/1.1/"
   xmlns:cc="http://creativecommons.org/ns#"
   xmlns:rdf="http://www.w3.org/1999/02/22-rdf-syntax-ns#"
   xmlns:svg="http://www.w3.org/2000/svg"
   xmlns="http://www.w3.org/2000/svg"
   xmlns:sodipodi="http://sodipodi.sourceforge.net/DTD/sodipodi-0.dtd"
   xmlns:inkscape="http://www.inkscape.org/namespaces/inkscape"
   height="24"
   width="24"
   version="1.1"
   id="svg3589"
   inkscape:version="0.48.4 r9939"
   sodipodi:docname="switch-off.svg">
  <metadata
     id="metadata3623">
    <rdf:RDF>
      <cc:Work
         rdf:about="">
        <dc:format>image/svg+xml</dc:format>
        <dc:type
           rdf:resource="http://purl.org/dc/dcmitype/StillImage" />
      </cc:Work>
    </rdf:RDF>
  </metadata>
  <defs
     id="defs3621" />
  <sodipodi:namedview
     pagecolor="#ffffff"
     bordercolor="#666666"
     borderopacity="1"
     objecttolerance="10"
     gridtolerance="10"
     guidetolerance="10"
     inkscape:pageopacity="0"
     inkscape:pageshadow="2"
     inkscape:window-width="1416"
     inkscape:window-height="1528"
     id="namedview3619"
     showgrid="false"
     inkscape:zoom="27.812867"
     inkscape:cx="15.922858"
     inkscape:cy="4.8381603"
     inkscape:window-x="0"
     inkscape:window-y="0"
     inkscape:window-maximized="0"
     inkscape:current-layer="svg3589" />
  <path
     d="m 7,6 c -3.3137,0 -6,2.6 -6,6 0,3.3 2.6863,6 6,6 h 5 5 c 3.314,0 6,-2.7 6,-6 C 23,8.6 20.314,6 17,6 H 12 7 z"
     id="path3595"
     inkscape:connector-curvature="0"
     style="fill:#95a5a6" />
  <path
     d="m 7,5 c -3.3137,0 -6,2.6 -6,6 0,3.3 2.6863,6 6,6 h 5 5 c 3.314,0 6,-2.7 6,-6 C 23,7.6 20.314,5 17,5 H 12 7 z"
     id="path3597"
     inkscape:connector-curvature="0"
     style="fill:#bdc3c7" />
  <path
     d="m 7,7 c -2.2091,0 -4,1.8 -4,4 0,2.2 1.7909,4 4,4 h 5 5 c 2.209,0 4,-1.8 4,-4 C 21,8.8 19.209,7 17,7 H 12 7 z"
     id="path3599"
     inkscape:connector-curvature="0"
     style="fill:#95a5a6;fill-opacity:1" />
  <path
     d="M 7,7 C 4.7909,7 3,8.8 3,11 3,11.1 3.0419,11.3 3.0625,11.5 3.3096,9.5 4.961,8 7,8 h 5 5 c 2.039,0 3.69,1.5 3.938,3.5 C 20.958,11.3 21,11.1 21,11 21,8.8 19.209,7 17,7 H 12 7 z"
     id="path3601"
     inkscape:connector-curvature="0"
     style="fill:#7f8c8d;fill-opacity:1" />
  <path
     style="fill:#7f8c8d"
     inkscape:connector-curvature="0"
     id="path3607"
     d="M 12.023,10.3 12,11.5 c -0.04,1.9 1.567,3.5 3.5,3.5 H 17 c 2.209,0 4,-1.8 4,-4 0,-0.4 -0.074,-0.7 -0.156,-1 z" />
  <path
     style="fill:#ecf0f1"
     inkscape:connector-curvature="0"
     id="path3609"
     d="M 15.5,7 C 13.567,7 12,8.5 12,10.5 c 0,1.9 1.567,3.5 3.5,3.5 h 2 C 19.433,14 21,12.4 21,10.5 21,8.5 19.433,7 17.5,7 h -2 z" />
</svg>
