<?xml version="1.0" encoding="UTF-8" standalone="no"?>
<svg
   xmlns:dc="http://purl.org/dc/elements/1.1/"
   xmlns:cc="http://creativecommons.org/ns#"
   xmlns:rdf="http://www.w3.org/1999/02/22-rdf-syntax-ns#"
   xmlns:svg="http://www.w3.org/2000/svg"
   xmlns="http://www.w3.org/2000/svg"
   xmlns:sodipodi="http://sodipodi.sourceforge.net/DTD/sodipodi-0.dtd"
   xmlns:inkscape="http://www.inkscape.org/namespaces/inkscape"
   height="24"
   width="24"
   version="1.1"
   id="svg2"
   inkscape:version="0.48.4 r9939"
   sodipodi:docname="sign-minimize.svg">
  <metadata
     id="metadata18">
    <rdf:RDF>
      <cc:Work
         rdf:about="">
        <dc:format>image/svg+xml</dc:format>
        <dc:type
           rdf:resource="http://purl.org/dc/dcmitype/StillImage" />
        <dc:title></dc:title>
      </cc:Work>
    </rdf:RDF>
  </metadata>
  <defs
     id="defs16" />
  <sodipodi:namedview
     pagecolor="#ffffff"
     bordercolor="#666666"
     borderopacity="1"
     objecttolerance="10"
     gridtolerance="10"
     guidetolerance="10"
     inkscape:pageopacity="0"
     inkscape:pageshadow="2"
     inkscape:window-width="1920"
     inkscape:window-height="1180"
     id="namedview14"
     showgrid="false"
     inkscape:zoom="4.9166667"
     inkscape:cx="56.591332"
     inkscape:cy="0.94862202"
     inkscape:window-x="1918"
     inkscape:window-y="-3"
     inkscape:window-maximized="1"
     inkscape:current-layer="svg2" />
  <path
     style="fill:#2980b9"
     inkscape:connector-curvature="0"
     id="path6"
     d="M 22,13 C 22,18.523 17.523,23 12,23 6.4772,23 2,18.523 2,13 2,7.4772 6.4772,3 12,3 17.523,3 22,7.4772 22,13 z" />
  <path
     style="fill:#3498db"
     inkscape:connector-curvature="0"
     id="path8"
     d="M 22,12 C 22,17.523 17.523,22 12,22 6.4772,22 2,17.523 2,12 2,6.4772 6.4772,2 12,2 17.523,2 22,6.4772 22,12 z" />
  <path
     style="fill:#2980b9;fill-opacity:1"
     inkscape:connector-curvature="0"
     id="path12-2"
     d="M 4.9289005,16.814016 11.975735,8.1512799 19.022571,16.814016 z"
     sodipodi:nodetypes="cccc" />
  <path
     style="fill:#ecf0f1"
     inkscape:connector-curvature="0"
     id="path12"
     d="M 4.9520043,15.679229 11.99884,7.0164933 19.045676,15.679229 z"
     sodipodi:nodetypes="cccc" />
</svg>
