<?xml version="1.0" encoding="UTF-8" standalone="no"?>
<!-- Created with Inkscape (http://www.inkscape.org/) -->

<svg
   xmlns:svg="http://www.w3.org/2000/svg"
   xmlns="http://www.w3.org/2000/svg"
   version="1.1"
   width="321.48517"
   height="125.40079"
   id="svg2"
   xml:space="preserve"><defs
     id="defs6" /><g
     transform="matrix(1.25,0,0,-1.25,-214.08734,589.23652)"
     id="g12"><g
       transform="scale(0.1,0.1)"
       id="g14"><path
         d="m 1757.67,4067.3 c -71.71,-26.9 -49.21,-61.48 11.69,-94.53 60.86,-33.04 107.39,-37.54 118.25,58.68 13.66,120.99 235.85,197.3 331.91,194.49 58.72,-1.72 242.77,-358.37 241.96,-386.08 -0.82,-27.73 -36.01,-105.23 26.75,-122.3 83.45,-22.72 223.32,12.32 175.29,83.83 -18.18,27.07 -121.23,63.67 -144.43,88.71 -182.55,196.97 -306.31,573.72 -306.31,573.72 0,0 235.12,138.8 28.27,233.11 -60.87,27.75 -91.66,18.79 -104.78,-7.69 -31.46,-63.48 50.41,-220.93 50.41,-220.93 0,0 -219.34,-132.95 -302.27,-149.42 -110.34,-21.92 -207.96,20.72 -158.52,-89.61 15.55,-34.69 35.06,-55.61 117.55,35.95 38.96,43.24 278.64,99.71 278.64,99.71 0,0 7.6,-158.13 -364.41,-297.64"
         id="path16"
         style="fill:#40c1e6;fill-opacity:1;fill-rule:nonzero;stroke:none" /><path
         d="m 2675.21,4118.63 c 0,-4.84 -8.26,-22.76 -28.93,-42.06 -20.67,-19.28 -49.62,-28.94 -86.15,-28.94 -75.13,0 -124.04,46.87 -124.04,117.17 l 0,89.56 c 0,70.31 48.91,117.18 124.04,117.18 22.05,0 41.35,-4.14 58.58,-11.72 36.54,-16.55 55.81,-43.39 55.81,-57.89 0,-2.75 -1.38,-4.13 -4.13,-5.5 l -44.1,-22.05 c -1.38,-0.71 -2.74,-0.71 -3.45,-0.71 -2.75,0 -3.61,1.27 -5.5,4.15 -15.16,23.04 -28.96,38.61 -57.21,38.61 -35.16,0 -62.02,-28.29 -62.02,-62.07 l 0,-89.56 c 0,-33.78 26.86,-62.05 62.02,-62.05 16.54,0 29.42,7.09 37.91,15.18 18.62,17.75 21.35,28.93 25.51,28.93 1.36,0 2.74,-0.67 4.13,-1.36 l 43.4,-22.04 c 2.75,-1.38 4.13,-2.78 4.13,-4.83"
         id="path18"
         style="fill:#ef333b;fill-opacity:1;fill-rule:nonzero;stroke:none" /><path
         d="m 2786.9,4054.53 -48.23,0 c -4.82,0 -6.9,2.06 -6.9,6.89 l 0,296.35 c 0,4.81 2.08,6.88 6.9,6.88 l 48.23,0 c 4.83,0 6.89,-2.07 6.89,-6.88 l 0,-296.35 c 0,-4.83 -2.06,-6.89 -6.89,-6.89"
         id="path20"
         style="fill:#ef333b;fill-opacity:1;fill-rule:nonzero;stroke:none" /><path
         d="m 2999.86,4048.32 c -56.49,0 -110.92,47.55 -110.92,116.48 l 0,137.84 c 0,4.81 -2.08,6.87 -6.89,6.87 l -37.91,0 c -4.82,0 -6.88,2.08 -6.88,6.92 0,0 -0.07,14.18 -0.07,19.64 0,4.54 2.54,7.14 2.54,7.14 l 76.99,80.18 c 0,0 3.51,3.28 7.49,3.28 2.53,0 19.86,0 19.86,0 4.82,0 6.89,-2.05 6.89,-6.87 l 0,-48.26 c 0,-4.81 2.09,-6.89 6.88,-6.89 l 48.25,0 c 4.83,0 6.89,-2.07 6.89,-6.88 l 0,-41.34 c 0,-4.84 -2.06,-6.92 -6.89,-6.92 l -48.25,0 c -4.79,0 -6.88,-2.06 -6.88,-6.87 l 0,-137.84 c 0,-14.48 3.87,-27.55 15.16,-39.96 7.47,-8.22 19.44,-14.44 41.35,-21.38 3.54,-1.12 5.51,-2.76 5.51,-6.89 l 0,-41.36 c 0,-6.21 -3.45,-6.89 -13.12,-6.89"
         id="path22"
         style="fill:#ef333b;fill-opacity:1;fill-rule:nonzero;stroke:none" /><path
         d="m 3197.6,3892.59 c -32.39,0 -58.81,8.89 -75.14,19.98 -24.96,16.94 -38.87,41.47 -39.94,50.29 -0.25,2.06 1.37,3.44 4.1,4.84 l 43.45,22.03 c 1.38,0.7 2.74,1.4 3.45,1.4 2.73,0 4.14,-2.08 6.19,-4.82 16.55,-21.37 26.18,-38.6 57.89,-38.6 35.15,0 62.03,28.26 62.03,62.04 l 0,57.18 c 0,4.83 -2.77,7.59 -5.53,7.59 -8.94,0 -24.12,-19.99 -56.5,-19.99 -75.14,0 -124.06,46.86 -124.06,117.15 l 0,186.09 c 0,4.81 2.1,6.88 6.91,6.88 l 48.22,0 c 4.85,0 6.92,-2.07 6.92,-6.88 l 0,-186.09 c 0,-33.77 26.85,-62.02 62.01,-62.02 35.15,0 62.03,28.25 62.03,62.02 l 0,186.09 c 0,4.81 2.07,6.88 6.89,6.88 l 48.25,0 c 4.81,0 6.87,-2.07 6.87,-6.88 l 0,-341.15 c 0,-76.48 -46.84,-124.03 -124.04,-124.03"
         id="path24"
         style="fill:#ef333b;fill-opacity:1;fill-rule:nonzero;stroke:none" /><path
         d="m 3662.26,4054.53 -48.23,0 c -4.83,0 -6.91,2.06 -6.91,6.89 l 0,296.35 c 0,4.81 2.08,6.88 6.91,6.88 l 48.23,0 c 4.83,0 6.9,-2.07 6.9,-6.88 l 0,-296.35 c 0,-4.83 -2.07,-6.89 -6.9,-6.89"
         id="path26"
         style="fill:#40c1e6;fill-opacity:1;fill-rule:nonzero;stroke:none" /><path
         d="m 3890.37,4058.66 c -1.46,-2.74 -3.03,-4.13 -6.2,-4.13 l -44.09,0 c -3.46,0 -4.85,1.38 -6.22,4.13 l -117.17,296.33 c -0.65,1.4 -0.65,2.78 -0.65,4.13 0,3.46 2.03,5.53 6.88,5.53 l 51.68,0 c 3.84,-0.45 5.09,-1.54 6.19,-4.12 l 80.64,-225.37 82.03,225.37 c 1.07,2.58 2.48,4.12 6.18,4.12 l 51.68,0 c 4.81,0 6.89,-2.07 6.89,-5.53 0,-1.35 0,-2.73 -0.7,-4.13 l -117.14,-296.33"
         id="path28"
         style="fill:#40c1e6;fill-opacity:1;fill-rule:nonzero;stroke:none" /><path
         d="m 4277.7,4199.26 -172.3,0 c -4.83,0 -6.88,-2.08 -6.88,-6.88 l 0,-27.58 c 0,-33.78 26.87,-62.05 62.02,-62.05 16.55,0 29.82,6.69 37.91,15.18 16.39,17.21 21.36,28.93 25.49,28.93 1.38,0 2.78,-0.67 4.13,-1.36 l 43.43,-22.04 c 2.75,-1.38 4.14,-2.78 4.14,-4.83 0,-4.84 -8.28,-22.76 -28.96,-42.06 -20.68,-19.28 -49.61,-28.94 -86.14,-28.94 -75.12,0 -124.06,46.87 -124.06,117.17 l 0,89.56 c 0,62.75 55.15,117.18 124.06,117.18 68.91,0 124.04,-54.43 124.04,-117.18 l 0,-48.23 c 0,-4.8 -2.07,-6.87 -6.88,-6.87 z m -55.14,59.94 c 0,29.64 -29.65,57.23 -62.02,57.23 -33.1,0 -62.02,-28.29 -62.02,-58.59 0,-7.61 0.68,-10.34 6.88,-10.34 l 110.25,0 c 6.24,0 6.91,3.43 6.91,11.7"
         id="path30"
         style="fill:#40c1e6;fill-opacity:1;fill-rule:nonzero;stroke:none" /><path
         d="m 2721.58,4457.73 c 0,22.76 18.45,41.21 41.2,41.21 22.76,0 41.2,-18.45 41.2,-41.21 0,-22.75 -18.44,-41.2 -41.2,-41.2 -22.75,0 -41.2,18.45 -41.2,41.2"
         id="path32"
         style="fill:#ef333b;fill-opacity:1;fill-rule:nonzero;stroke:none" /><path
         d="m 3596.94,4457.73 c 0,22.76 18.44,41.21 41.2,41.21 22.75,0 41.21,-18.45 41.21,-41.21 0,-22.75 -18.46,-41.2 -41.21,-41.2 -22.76,0 -41.2,18.45 -41.2,41.2"
         id="path34"
         style="fill:#ef333b;fill-opacity:1;fill-rule:nonzero;stroke:none" /><path
         d="m 3537.3,4101.91 c -18.49,4.95 -32.38,10.88 -40.6,21 -10.34,12.68 -14.88,25.04 -14.88,39.22 l 0,326.71 c 0,4.74 -1.96,6.77 -6.7,6.77 l -47.35,0 c -4.73,0 -6.77,-2.03 -6.77,-6.77 l 0,-0.21 -0.06,0 0,-326.5 c 0,-67.68 53.45,-114.32 108.92,-114.32 9.48,0 12.87,0.65 12.87,6.76 l 0,40.59 c 0,4.08 -1.88,5.82 -5.43,6.75"
         id="path36"
         style="fill:#40c1e6;fill-opacity:1;fill-rule:nonzero;stroke:none" /></g></g></svg>