<?xml version="1.0" encoding="utf-8"?>
<!-- Generator: Adobe Illustrator 13.0.0, SVG Export Plug-In . SVG Version: 6.00 Build 14948)  -->
<!DOCTYPE svg PUBLIC "-//W3C//DTD SVG 1.1//EN" "http://www.w3.org/Graphics/SVG/1.1/DTD/svg11.dtd">
<svg version="1.1"
	 id="svg2" xmlns:dc="http://purl.org/dc/elements/1.1/" xmlns:cc="http://creativecommons.org/ns#" xmlns:rdf="http://www.w3.org/1999/02/22-rdf-syntax-ns#" xmlns:svg="http://www.w3.org/2000/svg" xmlns:sodipodi="http://sodipodi.sourceforge.net/DTD/sodipodi-0.dtd" xmlns:inkscape="http://www.inkscape.org/namespaces/inkscape" sodipodi:docname="sim_placeholder.svg" inkscape:version="0.47 r22583"
	 xmlns="http://www.w3.org/2000/svg" xmlns:xlink="http://www.w3.org/1999/xlink" x="0px" y="0px" width="351.787px"
	 height="206.512px" viewBox="0 0 351.787 206.512" enable-background="new 0 0 351.787 206.512" xml:space="preserve">
<defs>
	
	
		<inkscape:perspective  id="perspective10" inkscape:vp_z="789.54906 : 506.48412 : 1" inkscape:vp_y="0 : 1000 : 0" inkscape:vp_x="0 : 526.18109 : 1" sodipodi:type="inkscape:persp3d" inkscape:persp3d-origin="372.04724 : 350.78739 : 1">
		</inkscape:perspective>
	
		<inkscape:perspective  id="perspective2939" inkscape:vp_z="170.07899 : 88.734497 : 1" inkscape:vp_y="0 : 1000 : 0" inkscape:vp_x="0 : 88.734497 : 1" sodipodi:type="inkscape:persp3d" inkscape:persp3d-origin="85.039497 : 59.156331 : 1">
		</inkscape:perspective>
	
		<inkscape:perspective  id="perspective2874" inkscape:vp_z="170.07899 : 88.734497 : 1" inkscape:vp_y="0 : 1000 : 0" inkscape:vp_x="0 : 88.734497 : 1" sodipodi:type="inkscape:persp3d" inkscape:persp3d-origin="85.039497 : 59.156331 : 1">
		</inkscape:perspective>
</defs>
<sodipodi:namedview  units="cm" id="base" borderlayer="false" showborder="true" showgrid="false" inkscape:cy="107.98749" inkscape:cx="179.08063" inkscape:zoom="3.054069" borderopacity="1.0" bordercolor="#999999" pagecolor="#ffffff" inkscape:window-maximized="1" inkscape:snap-object-midpoints="true" inkscape:showpageshadow="true" inkscape:snap-center="false" inkscape:window-y="25" inkscape:window-x="0" inkscape:window-height="980" inkscape:window-width="1680" inkscape:snap-page="true" inkscape:snap-bbox="false" inkscape:current-layer="layer1" inkscape:document-units="cm" inkscape:pageshadow="2" inkscape:pageopacity="0.0">
	</sodipodi:namedview>
<g id="layer1" transform="translate(0.5,0.49975405)" inkscape:label="Layer 1" inkscape:groupmode="layer">
	<path id="rect2836" fill="none" stroke="#999999" stroke-width="1.5" d="M17.716,0h315.354c9.784,0,17.717,7.932,17.717,17.717v170.079
		c0,9.785-7.933,17.717-17.717,17.717H17.716C7.932,205.512,0,197.58,0,187.795V17.717C0,7.932,7.932,0,17.716,0z"/>
	<path id="path2866" display="none" stroke="#000000" d="M147.443,142.703l-1.091,3.215h1.555l0.967-2.848
		c0.51,0.092,1.157,0.137,1.763,0.137c4.106,0.002,6.585-1.587,8.012-3.631c1.43-2.043,1.821-4.525,1.821-6.331
		c0.003-4.038-2.206-7.162-5.542-8.283l1.191-3.495h-1.528l-1.069,3.156c-0.612-0.095-1.253-0.164-1.965-0.164
		c-6.173,0.045-9.639,4.341-9.63,9.988C141.92,138.229,143.735,141.41,147.443,142.703z M154.246,127.028
		c2.086,1.738,2.841,4.504,2.841,7.215c-0.013,4.23-1.397,7.549-5.713,7.629c-0.731,0.002-1.489-0.135-2.001-0.375L154.246,127.028
		L154.246,127.028z M150.79,125.794c0.714,0,1.597,0.141,2.181,0.448l-4.873,14.467c-2.008-1.828-2.795-5.215-2.791-7.719
		C145.319,129.297,146.555,125.873,150.79,125.794z M219.535,138.819c-0.001-0.505-0.221-0.68-0.399-0.682
		c-0.642,0.055-0.729,0.91-1.55,1.711c-0.8,0.812-2.254,1.639-5.405,1.639c-1.603-0.028-1.59-0.611-1.623-1.932
		c0-0.145,0.002-0.296,0.002-0.455v-11.992c0.014-0.932,0.39-1.1,0.821-1.236c0.41-0.117,0.98-0.131,0.993-0.732
		c0.009-0.16-0.048-0.326-0.199-0.389c-0.142-0.061-0.312-0.061-0.583-0.063c-0.43,0-0.716,0.102-2.888,0.102
		c-0.966,0.001-2.449-0.102-3.478-0.102c-0.556,0-0.925,0.21-0.937,0.554c0.053,0.611,0.84,0.6,1.529,0.821
		c0.714,0.219,1.354,0.535,1.359,1.555v12.096c-0.01,1.541-0.456,1.893-0.896,2.076c-0.228,0.09-0.467,0.123-0.674,0.218
		c-0.212,0.089-0.38,0.294-0.372,0.621c0.003,0.25,0.252,0.398,0.604,0.398c1.412,0,2.488-0.102,3.272-0.102
		c1.272,0,2.811,0.102,6.699,0.102C217.994,143.022,219.533,140.867,219.535,138.819L219.535,138.819z M178.75,132.823
		c1.679-0.65,2.589-2.044,2.586-3.616c0-0.313-0.005-1.446-0.82-2.501c-0.814-1.059-2.434-2.017-5.587-2.016
		c-2.152,0-4.326,0.104-6.495,0.102c-1.177,0-1.313-0.098-1.534-0.102c-0.008,0-0.025-0.002-0.05-0.002
		c-0.076,0.002-0.197,0.002-0.311,0.075c-0.117,0.073-0.195,0.224-0.193,0.429c-0.007,0.363,0.228,0.574,0.499,0.67
		c0.822,0.333,2.187,0.123,2.212,2.706v11.302c-0.008,1.205-0.506,1.582-1.028,1.822c-0.507,0.242-1.133,0.247-1.171,0.813
		c-0.008,0.203,0.097,0.381,0.274,0.447c0.173,0.07,0.391,0.078,0.689,0.079c0.55,0,1.214-0.102,1.814-0.102
		c1.271,0,2.556,0.102,6.367,0.102c2.103,0,3.764-0.554,4.9-1.552c1.137-0.994,1.738-2.426,1.737-4.141
		C182.654,135.069,181.669,133.623,178.75,132.823L178.75,132.823z M172.439,128.336c0.027-1.48,0.008-2.291,1.673-2.312
		c2.219,0.004,4.048,1.587,4.048,3.87c-0.021,1.865-0.671,2.727-2.565,2.745h-1.535c-1.492-0.146-1.582-0.11-1.621-1.34
		L172.439,128.336L172.439,128.336z M175.465,141.77c-2.458-0.033-2.994-0.617-3.026-3.027v-2.863
		c0.035-1.351-0.012-1.819,1.442-1.851c4.61,0.019,5.258,2.224,5.275,3.718C179.144,140.186,177.91,141.76,175.465,141.77z
		 M239.632,138.82c0-0.507-0.222-0.681-0.399-0.681c-0.643,0.053-0.729,0.908-1.549,1.709c-0.8,0.813-2.254,1.639-5.407,1.639
		c-1.603-0.028-1.588-0.613-1.621-1.933c0-0.146,0-0.296,0-0.455v-3.272c0-0.221-0.003-0.414-0.003-0.584
		c0.046-0.994-0.021-1.043,0.96-1.086h1.892c1.285,0.008,1.705,0.623,1.96,1.277c0.268,0.639,0.226,1.374,0.802,1.432
		c0.498-0.008,0.587-0.494,0.588-0.848c0-0.213-0.026-0.418-0.036-0.533l-0.179-4.548c-0.012-0.312-0.071-0.501-0.181-0.62
		c-0.112-0.122-0.258-0.134-0.349-0.132c-0.03,0-0.056,0.001-0.073,0.001c-0.233,0.017-0.329,0.215-0.447,0.432
		c-0.354,0.683-0.771,1.92-2.34,1.922h-1.611c-0.552,0.002-0.784-0.058-0.867-0.182c-0.102-0.121-0.119-0.429-0.115-0.979v-3.581
		c0-0.895,0.038-1.275,0.376-1.453c0.355-0.203,1.158-0.222,2.703-0.219c2.451,0.008,3.105,0.724,3.36,1.418
		c0.127,0.354,0.144,0.716,0.205,1.013c0.048,0.286,0.211,0.57,0.577,0.561c0.494-0.006,0.579-0.486,0.581-0.83
		c0-0.188-0.021-0.363-0.028-0.473l-0.102-2.527c0-0.283-0.229-0.6-0.63-0.6c-2.254,0-4.021,0.103-5.83,0.103
		c-3.911,0-5.747-0.103-6.801-0.103c-0.401,0-0.681,0.245-0.682,0.554c0.044,0.663,0.844,0.669,1.529,0.886
		c0.713,0.219,1.354,0.531,1.359,1.621v11.967c-0.01,1.541-0.455,1.892-0.895,2.074c-0.228,0.092-0.469,0.125-0.676,0.221
		c-0.211,0.088-0.381,0.293-0.371,0.619c0.003,0.25,0.251,0.398,0.604,0.398c1.411,0,2.49-0.102,3.272-0.102
		c1.271,0,2.811,0.102,6.697,0.104C238.091,143.022,239.632,140.867,239.632,138.82L239.632,138.82z M191.009,141.745
		c-0.417,0.236-0.963,0.292-0.982,0.858c0,0.146,0.087,0.424,0.399,0.424c0.677,0,1.771-0.102,2.865-0.102
		c1.989,0,2.931,0.102,3.886,0.102c0.301,0,0.517-0.023,0.68-0.096c0.165-0.071,0.263-0.232,0.257-0.404
		c-0.004-0.301-0.276-0.408-0.543-0.455c-0.846-0.186-2.304-0.055-2.32-2.332v-12.197c0.012-1.186,0.438-1.483,0.883-1.662
		c0.228-0.088,0.463-0.129,0.662-0.209c0.197-0.074,0.379-0.238,0.373-0.508c0.011-0.16-0.056-0.34-0.233-0.402
		c-0.165-0.064-0.393-0.07-0.78-0.072c-1.463,0-2.388,0.102-3.299,0.102c-0.886,0-1.884-0.102-2.888-0.103
		c-0.054,0.001-0.146-0.006-0.246-0.006c-0.265,0.001-0.727,0.038-0.742,0.481c0.054,0.613,0.841,0.594,1.527,0.83
		c0.709,0.229,1.354,0.574,1.361,1.676v12.274C191.86,141.131,191.441,141.502,191.009,141.745L191.009,141.745z M132.706,142.926
		c0.73,0,1.446,0.102,2.198,0.102c0.449,0,0.757,0.004,0.981-0.057c0.229-0.052,0.377-0.248,0.365-0.496
		c0.006-0.296-0.215-0.459-0.448-0.534c-0.709-0.268-1.914-0.183-2.032-2.64l-0.436-11.326c-0.002-0.059-0.003-0.115-0.003-0.168
		c0.011-1.33,0.554-1.701,1.125-1.92c0.555-0.221,1.238-0.168,1.282-0.771c0.007-0.104-0.026-0.266-0.176-0.336
		c-0.14-0.068-0.332-0.088-0.685-0.09c-0.727,0-1.22,0.104-1.662,0.104c-0.363,0-0.856-0.102-1.482-0.104
		c-0.557-0.01-0.689,0.43-0.747,0.584l-5.932,12.37c-0.01,0.03-0.075,0.171-0.148,0.284c-0.036,0.059-0.078,0.114-0.113,0.148
		c-0.017,0.018-0.032,0.029-0.041,0.035v0.004c-0.039,0.018-0.123-0.095-0.224-0.34l-5.626-12.274
		c-0.324-0.738-0.671-0.825-0.951-0.812h-0.052c-0.853,0-1.801,0.104-2.377,0.104c-0.811,0-1.178-0.102-1.535-0.104
		c-0.276,0.015-0.419,0.27-0.424,0.477c0.033,0.685,0.764,0.658,1.356,0.985c0.61,0.326,1.224,0.935,1.231,2.821
		c0,0.107-0.001,0.218-0.006,0.331l-0.357,10.28c-0.057,1.311-0.565,1.762-1.076,2.044c-0.495,0.282-1.097,0.339-1.123,0.926
		c0.001,0.208,0.177,0.475,0.604,0.475c0.398,0,1.283-0.103,2.532-0.101c1.167-0.002,1.702,0.101,2.633,0.103
		c0.291-0.002,0.47-0.048,0.59-0.134c0.12-0.088,0.149-0.221,0.147-0.303c0-0.045-0.005-0.084-0.005-0.091
		c0.006-0.322-0.243-0.481-0.501-0.55c-0.785-0.26-2.136-0.134-2.165-3.054c0-0.105,0.002-0.216,0.006-0.331l0.256-7.159
		c0-0.093,0.001-0.248,0.021-0.372c0.01-0.057,0.024-0.108,0.038-0.135c0.043,0.061,0.128,0.238,0.178,0.352l4.959,11.017
		c0.123,0.256,0.25,0.769,0.746,0.786c0.51-0.01,0.629-0.48,0.771-0.785l4.832-10.1c0.191-0.42,0.362-0.757,0.497-0.984
		c0.067-0.113,0.125-0.199,0.168-0.254c0.007-0.009,0.013-0.016,0.018-0.022c0.016,0.04,0.036,0.118,0.046,0.233
		c0.021,0.182,0.032,0.441,0.043,0.776l0.384,7.749c0.006,0.104,0.009,0.201,0.009,0.295c-0.009,1.213-0.43,1.571-0.857,1.791
		c-0.415,0.217-0.967,0.225-0.992,0.773c0.016,0.471,0.494,0.506,0.885,0.506c0.138,0,0.278-0.006,0.409-0.006
		c0.604-0.001,1.206-0.104,2.864-0.102L132.706,142.926z M242.463,160.323c-1.854-0.754-3.161-1.217-3.986-1.693
		c-0.825-0.484-1.154-0.933-1.16-1.748c0.008-1.643,1.16-2.551,2.944-2.561c2.331,0.003,3.575,1.154,4.343,2.32
		c0.382,0.584,0.64,1.173,0.842,1.62c0.221,0.438,0.306,0.771,0.618,0.815c0.269,0,0.472-0.057,0.604-0.195
		c0.133-0.141,0.168-0.33,0.168-0.541c0-0.084-0.005-0.174-0.016-0.268l-0.303-3.426c-0.026-0.287-0.018-0.527-0.061-0.723
		c-0.028-0.197-0.199-0.376-0.447-0.361c-0.424,0.012-1.114,0.42-1.41,0.408c-0.742,0.018-1.96-0.994-4.255-0.996
		c-3.29,0.006-5.563,2.205-5.568,5.213c-0.007,2.747,1.705,3.803,4.083,4.767c2.227,0.908,3.776,1.447,4.748,2.019
		c0.971,0.578,1.358,1.137,1.365,2.188c-0.003,1.968-1.577,3.142-3.688,3.149c-2.996,0-4.669-2.264-5.551-4.699
		c-0.088-0.311-0.222-0.659-0.723-0.645c-0.201-0.002-0.359,0.059-0.457,0.172c-0.097,0.115-0.123,0.256-0.124,0.392
		c0.002,0.255,0.092,0.522,0.129,0.687l0.12-0.027l-0.12,0.028l0.857,3.505c0.109,0.58,0.166,0.926,0.894,1.061
		c1.588,0.329,3.008,0.949,4.725,0.951c3.672-0.006,6.279-2.329,6.287-5.748C247.329,162.676,245.418,161.512,242.463,160.323
		L242.463,160.323z M228.129,162.85c-0.93,0-1.824,0.1-2.762,0.1c-1.195,0-2.372-0.1-3.58-0.1c-0.145,0-0.35-0.027-0.557-0.027
		c-0.188,0.002-0.381,0.02-0.545,0.121c-0.166,0.1-0.273,0.296-0.27,0.561c-0.002,0.332,0.297,0.445,0.578,0.47
		c0.896,0.137,2.437-0.172,2.465,2.753c-0.031,1.479-0.003,3.482-4.562,3.512c-2.023-0.002-3.464-1.13-4.418-2.707
		c-0.951-1.576-1.396-3.6-1.396-5.33c0.016-6.427,3.312-7.898,5.637-7.911c3.328,0.003,4.957,1.368,5.854,2.733
		c0.447,0.684,0.706,1.371,0.89,1.891c0.093,0.261,0.165,0.479,0.235,0.641c0.075,0.152,0.126,0.29,0.308,0.309
		c0.252,0,0.435-0.029,0.572-0.127c0.139-0.104,0.188-0.27,0.185-0.45v-4.271c-0.01-0.387,0.044-1.043-0.501-1.09
		c-0.288,0.008-0.42,0.238-0.549,0.405c-0.135,0.177-0.251,0.31-0.473,0.31c-0.296,0.012-1.007-0.409-2.098-0.83
		c-1.075-0.417-2.521-0.832-4.295-0.83c-6.529,0.002-9.188,5.73-9.195,10.064c0.008,2.043,1.176,8.681,8.76,8.684
		c2.819-0.002,5.674-1.188,8.11-2.521c0.275-0.142,0.329-0.372,0.317-0.769c0-0.371-0.077-1.078-0.077-2.122
		c0.008-1.624,0.424-2.021,0.813-2.204c0.203-0.092,0.418-0.123,0.608-0.209c0.192-0.08,0.353-0.271,0.343-0.578
		C228.528,163.019,228.32,162.85,228.129,162.85L228.129,162.85z M203.908,153.21c-0.249,0-1.127,0.101-2.736,0.101
		c-1.763,0-2.491-0.101-2.916-0.101c-0.412,0-0.526,0.351-0.526,0.552c0.06,0.592,0.886,0.613,1.637,0.91
		c0.77,0.285,1.479,0.701,1.481,1.801l0.001,8.514c0,0.314-0.015,0.548-0.043,0.688c-0.014,0.07-0.032,0.117-0.045,0.133
		l0.002,0.008c-0.035,0.027-0.393-0.271-0.707-0.628l-10.277-11.274c-0.221-0.231-0.24-0.367-0.348-0.51
		c-0.12-0.15-0.304-0.195-0.712-0.192c-1.361,0-2.034,0.101-2.685,0.101c-0.47,0.002-0.93-0.101-1.433-0.101
		c-0.368,0-0.552,0.281-0.552,0.552c-0.008,0.364,0.248,0.551,0.526,0.638c0.836,0.313,2.306,0.192,2.338,3.837h-0.001v9.717
		c-0.007,1.264-0.572,1.74-1.166,2.076c-0.58,0.334-1.264,0.458-1.289,1.096c-0.004,0.163,0.071,0.3,0.186,0.365
		c0.112,0.065,0.235,0.075,0.354,0.075c0.14,0,0.278-0.018,0.371-0.018c0.703,0,1.391-0.101,2.198-0.101
		c0.887,0,1.758,0.101,3.018,0.101h0.138c0.331-0.013,0.904,0.026,0.953-0.449c0.004-0.372-0.288-0.54-0.6-0.614
		c-0.954-0.277-2.645-0.125-2.674-3.756l0.001-8.693c-0.001-0.107,0.013-0.197,0.034-0.244c0.026-0.049,0.026-0.045,0.052-0.049
		c0.048-0.01,0.2,0.09,0.371,0.293l12.302,13.297c0.166,0.199,0.354,0.402,0.751,0.396c0.009,0.002,0.018,0.002,0.027,0.002
		c0.165,0,0.314-0.102,0.354-0.256c0.047-0.156,0.043-0.348,0.044-0.631V156.5c0.008-1.312,0.508-1.764,1.022-2.033
		c0.5-0.277,1.106-0.271,1.15-0.805c0-0.042,0.003-0.162-0.088-0.271C204.333,153.28,204.168,153.209,203.908,153.21L203.908,153.21
		z M162.735,170.692c-0.441-0.211-1.375-0.281-2.868-2.297l-4.885-6.57c-0.388-0.509-0.601-0.826-0.591-0.979
		c-0.023-0.119,0.373-0.544,0.521-0.65l-0.075-0.091l0.079,0.087l4.5-4.169c1.231-1.116,2.036-1.474,2.538-1.646
		c0.251-0.087,0.427-0.123,0.569-0.194c0.147-0.067,0.238-0.228,0.229-0.419c-0.002-0.523-0.504-0.553-0.715-0.553h-0.068
		c-1.106,0-1.777,0.102-2.404,0.102c-0.762,0-2.521-0.102-2.786-0.102c-0.17,0.002-0.334,0-0.48,0.087
		c-0.151,0.089-0.229,0.269-0.227,0.517c0.031,0.435,0.505,0.469,0.872,0.563c0.4,0.094,0.697,0.195,0.688,0.486
		c0.029,1.027-2.436,3.147-3.161,3.854l-3.375,3.297c-0.303,0.309-0.46,0.416-0.519,0.405c-0.011,0-0.017-0.002-0.021-0.003
		c-0.002,0-0.003,0-0.005-0.001c-0.012-0.039-0.026-0.153-0.022-0.267c0-0.068,0.002-0.137,0.002-0.203v-5.854
		c0.014-1.389,0.424-1.656,0.835-1.785c0.215-0.064,0.44-0.074,0.639-0.139c0.201-0.057,0.379-0.238,0.368-0.531
		c0.007-0.195-0.123-0.338-0.26-0.381c-0.136-0.049-0.279-0.044-0.396-0.045c-0.521,0-2.127,0.102-3.554,0.102
		c-1.735,0-2.568-0.102-3.068-0.102c-0.167,0.001-0.316,0.025-0.437,0.105c-0.123,0.082-0.195,0.228-0.192,0.396
		c-0.007,0.338,0.233,0.527,0.5,0.607c0.818,0.283,2.165,0.065,2.185,2.307v11.124c-0.007,1.918-0.494,2.391-0.952,2.6
		c-0.237,0.105-0.486,0.137-0.703,0.229c-0.222,0.088-0.4,0.297-0.392,0.648c0.065,0.356,0.441,0.304,0.912,0.322
		c0.802,0,2.128-0.103,3.35-0.103c1.452,0,2.136,0.103,2.839,0.103c0.313-0.002,0.498-0.016,0.638-0.078
		c0.149-0.063,0.204-0.222,0.196-0.346c-0.042-0.611-0.749-0.596-1.335-0.805c-0.607-0.21-1.162-0.522-1.172-1.65v-3.35
		c0-0.125-0.003-0.234-0.003-0.33c0.005-0.361,0.02-0.514,0.305-0.846c0.544-0.64,1.032-1.064,1.114-1.033
		c0.003-0.004,0.066,0.025,0.159,0.15c0.094,0.119,0.217,0.299,0.386,0.519l5.086,6.978c0.482,0.672,0.821,0.791,1.281,0.791
		c0.021,0,0.044,0,0.067-0.001c0.727,0,1.244-0.103,1.712-0.103c0.68,0,1.342,0.102,1.919,0.103
		c0.169,0.001,0.301-0.046,0.376-0.147c0.071-0.1,0.073-0.21,0.073-0.303c0.012-0.201-0.117-0.347-0.271-0.41V170.692z
		 M138.352,170.594c-0.847-0.187-2.304-0.056-2.32-2.334v-12.197c0.011-1.185,0.438-1.483,0.883-1.662
		c0.228-0.088,0.464-0.128,0.662-0.207c0.197-0.074,0.38-0.24,0.373-0.508c0.011-0.16-0.055-0.342-0.233-0.404
		c-0.165-0.063-0.392-0.07-0.778-0.072c-1.464,0-2.389,0.102-3.299,0.102c-0.887,0-1.885-0.102-2.89-0.102
		c-0.054,0-0.144-0.006-0.245-0.006c-0.266,0.002-0.728,0.037-0.743,0.482c0.055,0.611,0.84,0.594,1.528,0.828
		c0.709,0.23,1.354,0.574,1.361,1.678v12.273c-0.008,1.186-0.427,1.559-0.858,1.799c-0.418,0.237-0.963,0.295-0.983,0.859
		c0.001,0.146,0.088,0.424,0.4,0.424c0.675,0,1.771-0.102,2.864-0.102c1.99,0,2.932,0.102,3.887,0.104
		c0.301-0.002,0.517-0.023,0.68-0.099c0.166-0.069,0.264-0.23,0.258-0.403C138.89,170.746,138.618,170.641,138.352,170.594
		L138.352,170.594z M123.71,153.28c-0.127-0.069-0.271-0.075-0.436-0.076c-0.116,0-0.243,0.007-0.381,0.007
		c-0.726,0-1.442,0.102-2.147,0.101c-0.73,0.001-1.446-0.101-2.198-0.101c-0.07,0-0.171-0.006-0.28-0.006
		c-0.328,0.001-0.865,0.03-0.888,0.532c0.051,0.609,0.776,0.541,1.379,0.725c0.626,0.184,1.192,0.475,1.204,1.628
		c-0.001,0.396-0.047,1.267-0.809,2.968l-3.502,7.773c-0.042,0.1-0.087,0.23-0.137,0.332c-0.023,0.051-0.05,0.092-0.07,0.115
		c-0.018,0.02-0.018,0.015-0.018,0.02c0,0-0.002,0.001-0.024-0.022c-0.076-0.075-0.168-0.306-0.226-0.442l-3.323-8.23
		c-0.637-1.553-0.964-2.749-0.962-3.484c0.004-0.463,0.302-0.589,0.685-0.721c0.356-0.123,0.829-0.193,0.85-0.66
		c0.003-0.193-0.027-0.367-0.192-0.454c-0.149-0.075-0.332-0.07-0.638-0.073c-0.071,0-0.15,0.002-0.234,0.002
		c-0.426,0-1.152,0.102-2.787,0.102c-0.86,0-1.729-0.102-2.582-0.104c-0.139,0.002-0.361-0.032-0.58-0.032
		c-0.313,0-0.715,0.103-0.715,0.56c0.039,0.319,0.397,0.422,0.489,0.472c1.047,0.267,1.332,0.487,1.771,1.47l6.366,14.879
		c0.465,1.07,0.72,1.386,1.081,1.402h0.005c0.352,0,0.524-0.238,0.792-0.889l0,0l6.955-15.366c0.337-0.731,0.746-1.054,1.085-1.278
		c0.327-0.222,0.653-0.352,0.664-0.738C123.913,153.504,123.842,153.352,123.71,153.28L123.71,153.28z M177.228,170.594
		c-0.848-0.187-2.305-0.056-2.32-2.334v-12.197c0.011-1.185,0.437-1.483,0.883-1.662c0.227-0.088,0.463-0.128,0.661-0.207
		c0.196-0.074,0.379-0.24,0.373-0.508c0.011-0.16-0.056-0.342-0.233-0.404c-0.165-0.063-0.393-0.07-0.78-0.072
		c-1.463,0-2.387,0.102-3.298,0.102c-0.888,0-1.884-0.102-2.89-0.102c-0.053,0-0.144-0.006-0.245-0.006
		c-0.266,0.002-0.727,0.037-0.743,0.482c0.055,0.611,0.841,0.594,1.528,0.828c0.71,0.23,1.355,0.574,1.361,1.678v12.273
		c-0.008,1.186-0.426,1.559-0.857,1.8c-0.418,0.236-0.963,0.294-0.982,0.858c0,0.146,0.088,0.424,0.399,0.424
		c0.675,0,1.771-0.102,2.864-0.102c1.991,0,2.932,0.102,3.887,0.104c0.3-0.002,0.517-0.023,0.68-0.099
		c0.165-0.069,0.263-0.23,0.257-0.403C177.767,170.746,177.494,170.641,177.228,170.594L177.228,170.594z M146.714,110.03
		c-0.604,0.035-10.985,1.174-17.208,2.063c-6.222,0.89-10.097,2.348-10.097,2.348h115.374c0,0-1.214-0.826-4.733-1.358
		c-3.52-0.533-8.321-1.558-13.335-2.589c-5.013-1.031-5.366-3.201-5.366-3.201s3.163,0.43,4.479,1.673
		c-0.463-2.987-1.885-4.089-3.343-4.978c1.85-2.169,0.569-3.306-0.143-3.521c0,0,1.146-1.498,2.337-0.828
		c-1.099-2.037-3.442-1.621-4.398-1.056c0.036-0.924,0.285-1.99,0.747-3.804c2.384,0.369,2.951-1.03,3.021-1.813
		c0.925,0.427,0.996,1.92-0.142,2.418c3.125-0.363,3.909-2.721,3.874-4.286c4.836,1.245,5.02,6.381,4.451,8.089
		c1.031-1.813,1.984-5.83-0.895-9.349s-7.323-3.485-8.996-3.555c-0.213-0.462-0.597-0.877-1.017-1.296
		c1.921-5.261,2.652-10.223,1.267-17.653c-1.386-7.431-6.15-13.297-6.15-13.297s7.145,1.742,8.355,2.026
		c1.209,0.284,1.848-0.391,1.527-1.172c-0.32-0.783-0.461-1.53-0.818-2.916c-0.354-1.387-1.065-2.525-2.204-3.128
		c-1.138-0.604-2.879-1.102-6.328-4.479c-3.447-3.378-6.897-5.902-9.635-7.431c0.355-3.591,2.986-8.355,5.154-9.813
		c-5.831,1.458-9.102,7.111-9.102,7.111l-0.568-1.529l-2.312,1.422c0,0-0.356-0.96-0.854-2.595c0.64-3.591,2.453-6.933,3.875-8.391
		c-6.258,3.058-8.426,8.178-8.426,8.178l-1.492-2.917l-2.312,5.119l-3.733-4.195l-1.635,5.653l-5.049-2.24L171.28,38l-3.769-0.249
		c0,0-0.498-5.902-0.569-6.791c-0.07-0.889-1.209-0.533-1.173,0.071c0.035,0.605,0.213,5.866,0.284,9.244
		c-12.266,2.986-18.345,10.844-18.345,10.844s-1.03-0.178-1.885-0.249c-0.854-0.071-0.712,0.925-0.391,1.03
		c0.319,0.106,0.568,0.143,1.28,0.355c-5.12,6.293-6.361,12.511-6.646,14.466c-0.31-0.503-0.643-0.601-1.033-0.814
		c-0.32-1.529-0.035-5.12,0.249-6.862c-2.809,4.8-3.022,14.826-2.986,16.461c-1.209,0.106-1.297,2.846-0.407,6.579
		c0.889,3.733,2.053,6.055,2.053,6.055s-1.079-0.279-2.393,0.558c-1.868,1.188-1.85,2.843-1.352,3.732
		c-1.102,0.214-1.6,1.28-1.493,2.064c-3.982,2.63-3.555,5.473-3.555,5.473s0.64-0.639,1.6-0.959
		c-0.284,0.463-0.817,2.382,0.89,3.662c1.706,1.28,3.84,0.355,3.84,0.355s0.214,0.818,0.96,1.387
		c-4.089,4.017-4.302,6.043-4.302,6.043s1.279-0.854,4.231-1.885c5.581-0.497,9.813,0.783,10.203,0.961
		C146.962,109.71,147.319,109.994,146.714,110.03L146.714,110.03z M127.843,113.379c1.814-0.045,27.62-1.504,29.831-1.682
		c0.266-1.326-1.282-2.697-3.008-3.185c-1.726-0.486-4.38-0.222-6.37-0.665c-1.991-0.44-1.416-1.68-1.194-1.988
		c0.222-0.311,1.327-0.355,5.309,1.193c3.98,1.548,12.386,5.132,17.384,5.574c4.999,0.442,11.014-0.088,14.907-0.088
		c3.893,0,14.51-0.177,19.817-0.266c5.308-0.088,7.211,0.089,13.314,0.311c6.104,0.223,9.576,0.967,9.576,0.967
		S132.222,113.512,127.843,113.379L127.843,113.379z M202.175,111.567c-7.786,0-14.598,0.266-14.996,0.045
		c-0.399-0.222,2.035-0.885,4.866-1.549C194.876,110.682,202.175,111.567,202.175,111.567L202.175,111.567z M194.123,109.619
		c0,0,0.576-0.177,2.433-0.574c6.681,1.503,12.254,2.257,12.254,2.257C201.29,111.124,194.123,109.619,194.123,109.619z
		 M220.842,112.097c0,0-7.563-0.575-13.846-1.548c-6.281-0.973-8.848-1.813-8.848-1.813l2.964-0.621c0,0,1.549,1.107,4.025,1.107
		c2.478,0,3.539-0.09,6.681,0.84C214.958,110.991,220.842,112.097,220.842,112.097L220.842,112.097z M211.376,109.002
		c-2.168-0.797-4.158-0.752-5.927-0.664c-1.77,0.088-2.433-0.575-2.433-0.575c5.352-1.02,7.431-0.575,7.431-0.575
		S210.447,108.028,211.376,109.002z M214.561,107.143c-2.919-1.547-7.299-1.592-16.456,0.443
		c-9.155,2.034-14.729,3.361-21.983,4.025s-13.094-1.328-18.137-3.318c-5.042-1.99-5.468-2.395-7.835-3.051
		c4.124-0.356,5.673-0.236,9.718,0.325c4.872,0.678,8.334,1.456,15.678,1.765c7.344,0.311,13.931-1.457,15.878-2.696
		c5.862-0.123,8.673-2.183,10.841-2.448c2.167-0.265,2.212,0.84,2.078,1.373C212.968,103.694,214.561,107.143,214.561,107.143z
		 M197.264,102.101c1.15-0.665,2.567-1.018,3.274-0.576c-1.858,0.839-3.938,1.592-5.133,1.725c0-1.061,0.664-2.609,1.77-4.467
		c1.106-1.858,2.567-1.858,2.567-1.858C198.194,99.579,197.751,100.552,197.264,102.101z M200.715,97.324
		c0.31,0.441,0.618,1.371-0.709,3.229c-0.441-0.088-1.104,0.044-1.104,0.044S199.476,98.872,200.715,97.324z M194.567,103.383
		l-1.239,0.178c0,0,1.105-0.664,2.167-2.699C194.876,102.277,194.567,103.383,194.567,103.383z M205.405,92.9
		c-1.593,0.531-2.39,0.884-3.539,1.813c-0.265-0.487-0.709-0.796-0.709-0.796S202.971,92.635,205.405,92.9z M200.715,93.652
		c-0.398-0.309-0.752-0.442-0.752-0.442s0.973-0.751,3.229-0.663C202.219,92.811,201.156,93.033,200.715,93.652L200.715,93.652z
		 M203.856,94.803c1.15-0.665,1.99-0.974,4.025-1.019c0.222,1.903,0.663,4.735-1.105,8.758c-0.752-0.132-1.549-0.088-1.549-0.088
		s-0.618-1.946-3.805-1.194c-0.088-0.132-0.221-0.265-0.221-0.265S203.149,98.209,203.856,94.803L203.856,94.803z M213.543,99.093
		c-0.974,0-1.77,0.664-2.3,1.857c2.477-0.044,1.15,1.992,0.441,2.786c-1.018-0.44-1.945-0.708-3.582-1.018
		c1.813-5.662,0.84-8.714,0.84-8.714s0.663,0.266,1.328,0.575c-0.62,2.478-0.575,3.81-0.653,5.379
		C211.031,98.234,212.542,98.53,213.543,99.093z M216.153,87.459c3.981,0.752,6.945,4.557,6.636,9.201
		c-0.133-4.29-2.786-6.017-5.84-6.634c0.177,0.62,0.414,3.609-1.766,4.645c0.685-1.166-0.577-2.743-2.127-2.609
		c0.753,0.354,0.223,2.079-1.371,1.99c-1.593-0.087-4.512-1.99-7.829-2.211c-3.317-0.222-5.176,0.928-5.972,1.857
		c1.371-0.398,4.291,0.576,3.627,3.407c-0.486-1.592-3.229-1.328-4.954,0.973c-1.727,2.3-2.256,3.45-3.495,4.29
		c0.619-0.839,0.089-3.847-2.653-4.112c0.841-1.46,1.104-2.833,1.104-2.833s5.839-4.202,11.767-6.369
		C209.208,86.884,212.172,86.708,216.153,87.459z M191.082,71.498c2.262,4.244,3.431,8.208,3.686,12.782
		c0.255,4.575-1.88,9.021-1.88,9.021s-0.28,0.153-1.094,0.636c0.382-3.201,0.229-6.582-2.439-10.47
		c-2.668-3.888-4.98-5.642-6.835-7.014c-0.255-1.779-0.61-2.491-1.449-8.539c-0.838-6.047-0.458-7.599,0.052-10.267
		c0.507-2.668,2.871-4.269,2.871-4.269C181.273,58.615,188.821,67.255,191.082,71.498L191.082,71.498z M207.463,63.891
		c-0.811-0.844-8.575-8.305-9.655-9.452c-1.08-1.148-1.776-1.618-1.587-1.891c0.303-0.439,2.834,0.001,5.906,0.574
		c4.761,5.233,6.854,10.23,7.936,15.058c1.08,4.828,0.033,10.161-0.846,12.996c-1.654-5.503-5.569-7.358-6.379-7.898
		c-0.102-0.337,0.067-1.283,0.438-2.195c0.372-0.911,2.194-1.316,2.396-0.203c0.203,1.114-0.506,1.79-1.553,1.958
		c0.675,0.203,1.283,0.27,2.194,0.102c0.912-0.169,2.565-0.912,2.127-2.836c-0.438-1.924-1.621-1.992-2.363-2.025
		c-0.168-0.372-0.675-1.384-2.025-1.351c-1.351,0.034-2.262,1.013-2.498,2.093c-2.296-0.135-2.836,1.722-2.802,2.6
		c-1.317-0.473-2.499-0.743-4.354-1.013c-0.136-3.308-0.811-6.887-0.811-6.887s2.363,0.54,2.971,0.642
		c0.608,0.102,0.709-0.743,0.169-1.013c-0.541-0.271-3.681-1.553-3.681-1.553s-0.073-0.035-0.174-0.438
		c-2.412-1.086-6.889-3.495-8.138-4.001c-0.067-0.912,0.008-1.434,0.244-2.413c2.599,4.591,7.797,5.266,10.126,6.077
		c2.33,0.81,3.883,1.924,5.538,3.14c1.654,1.216,2.6,2.026,3.341,2.026c0.744,0,1.857-0.203,2.566-0.102
		c0.711,0.102,1.723,0.439,1.925-0.203S208.274,64.735,207.463,63.891L207.463,63.891z M192.643,70.846c0,0,5.436,4.895,8.103,8.946
		c2.667,4.051,2.532,8.305,2.532,8.305s-2.194,0.81-4.626,2.06C198.821,87.219,199.396,80.973,192.643,70.846L192.643,70.846z
		 M195.243,80.873c-1.014-5.469-3.782-10.331-5.808-13.301c0,0,1.689,1.856,2.937,3.714c1.25,1.856,3.443,5.3,4.728,9.588
		c1.283,4.288,1.113,7.157,1.047,9.588c-2.229,1.147-3.547,1.89-3.547,1.89S196.256,86.342,195.243,80.873L195.243,80.873z
		 M189.063,65.445c0,0-0.202-2.667-0.607-5.368c0,0,3.173,1.485,3.579,1.79c0.403,1.823,0.878,4.018,1.013,7.664
		C191.797,68.314,189.063,65.445,189.063,65.445z M194.972,71.284c0,0,2.16,0.405,3.478,0.912c-0.777,0.168-1.621,0.877-1.621,0.877
		L194.972,71.284z M202.838,81.648c1.047,1.587,2.262,3.545,3.14,5.571c-0.946,0.236-1.452,0.405-1.452,0.405
		S204.122,83.742,202.838,81.648z M197.607,73.884c0.403-0.979,2.093-1.654,2.093-1.654s-0.541-0.911,0.202-2.026
		c0.742-1.115,2.227-0.709,2.227-0.709s0.169-1.553,1.588-1.89c1.419-0.337,1.925,1.215,1.925,1.215s1.519-0.304,1.89,1.013
		c0.447,1.585-0.472,2.33-1.788,2.633c0.979-0.54,0.742-2.768-0.946-3.072c-1.688-0.304-3.714,1.384-4.152,3.714
		c-0.438,2.33,1.013,4.288,3.274,7.259c2.263,2.971,2.869,5.975,2.869,5.975C203.783,79.96,198.618,74.796,197.607,73.884
		L197.607,73.884z M201.522,75.808c-1.249-2.397,0.675-4.49,0.675-4.49c-1.315,3.41,2.295,6.65,4.727,8.744
		c2.432,2.094,2.196,3.916,1.857,4.828c1.146,0.068,2.094,0.607,2.431,1.452c-1.047-0.034-2.296,0.27-3.849,0.574
		C207.194,83.303,202.77,78.204,201.522,75.808z M203.073,74.424c2.228,1.654,3.749,3.105,4.829,5.468
		C203.918,76.719,203.073,74.424,203.073,74.424z M188.186,64.533c-2.498-3.039-3.24-6.044-3.24-6.044s0.709,0.337,2.6,1.182
		C187.848,61.291,188.186,64.533,188.186,64.533z M212.223,70.779c0.816,8.019-2.024,13.672-2.024,13.672s0,0-0.473-0.236
		c0.236-1.114-0.101-1.789-0.101-1.789c2.363-7.427,1.586-13.976-0.44-19.377c-2.024-5.401-6.042-9.757-6.042-9.757l2.06,0.404
		C208.51,58.353,211.413,62.811,212.223,70.779z M194.291,34.703c0.342-0.568,1.743-3.333,5.19-5.531
		c-0.947,1.327-2.387,3.333-3.106,7.311c0,0-1.023-0.491-1.591-0.682C194.217,35.612,193.951,35.271,194.291,34.703z
		 M192.512,33.528l0.682,1.895l-2.272-0.72L192.512,33.528z M189.745,34.512l-0.378-0.151l0.038-1.629L189.745,34.512
		L189.745,34.512z M186.434,30.943c1.644-3.165,4.396-5.19,4.396-5.19c-3.074,5.08-2.572,9.276-2.394,11.117
		c0.179,1.84-0.322,2.429-1.216,2.76c-0.894,0.332-2.108-0.146-2.288-1.398C184.753,36.98,184.789,34.108,186.434,30.943z
		 M183.648,29.778l1.061,2.575c0,0-0.379,0.757-0.493,1.478c-0.795-0.038-2.234,0.113-2.234,0.113L183.648,29.778z M177.78,30.501
		l2.969,3.699c0,0-1.927,0.208-4.063,1.198L177.78,30.501z M183.943,35.055c-0.211,2.098-0.263,5.052,1.694,5.472
		c1.958,0.419,3.221-0.401,3.648-1.684c0.321-0.965,0.106-2.341,0.044-3.308c0,0,6.553,1.326,11.403,4.849
		c4.85,3.523,5.387,4.862,9.054,7.577c2.429,1.798,3.338,1.728,3.967,2.707c0.63,0.979,0.699,2.728,1.188,3.566
		c0.491,0.839,0.211,0.909-0.77,0.559c-0.979-0.35-5.174-1.468-9.371-2.448s-8.484-1.481-9.308-0.896
		c-0.854,0.608-0.764,1.386,0.075,2.436c0.839,1.049,10.84,10.21,11.4,10.7c0.56,0.49,0.351,0.63-0.489,0.419
		c-0.839-0.209-1.399-0.35-1.89-0.209c-0.488,0.139-1.188-0.21-2.797-1.608c-1.608-1.399-3.357-2.378-5.524-3.287
		c-2.17-0.909-11.47-2.378-10.071-8.324c-2.519,0.56-4.896,2.309-5.876,5.875s-0.35,10.841,1.049,16.995
		c-2.028-6.435-2.728-12.659-1.748-18.115c0.979-5.455,5.177-7.274,9.162-8.462c3.987-1.189,11.005,0.418,12.711,1.058
		c-1.189-2.014-1.94-4.065-5.787-6.023c-3.847-1.958-7.829-2.416-11.819-0.489c-3.775,1.823-8.044,5.315-7.694,12.729
		c0.351,7.413,2.309,14.547,3.777,19.373c-3.287-2.588-12.939-10.071-12.939-20.702C167.032,43.181,173.801,35.545,183.943,35.055
		L183.943,35.055z M194.787,46.346c0.546,0.572,0.244,0.486-0.204,0.419c-4.263-0.643-11.132,1.272-13.657,5.225
		c-2.523,3.953-2.452,8.43-2.118,12.502s1.835,9.502,2.263,10.906c-0.62-0.381-2.096-5.929-2.905-9.454
		c-0.81-3.525-2.262-10.93-0.882-15.764c1.381-4.834,6.002-6.943,8.716-7.729c2.716-0.786,5.532-0.268,6.058,0.566
		C192.58,43.852,194.238,45.775,194.787,46.346L194.787,46.346z M193.788,43.283c0,0,3.048,1.088,4.86,3.497
		c-1.107-0.299-1.577-0.149-2.238-0.576C195.749,45.779,194.983,44.947,193.788,43.283z M171.762,88.541
		c0,0-0.472,1.793-1.179,3.302c-2.17,0.519-6.791,0.896-9.81,0.802c0.943-1.557,4.15-7.971,4.669-14.527
		c0.519-6.556,0.236-11.46-0.66-16.271c-0.896-4.81-2.17-8.913-2.17-8.913l2.5,0.424l-1.65,1.887l2.122,1.084l-1.273,1.604
		l1.84,0.802l-0.708,1.556c0,0,0.189,0.094,1.085,0.236c0.565,7.64,3.679,10.895,6.744,14.291c0.613,5-0.754,11.036-0.754,11.036
		s-1.32,1.274-1.887,2.736C171.149,88.401,171.762,88.542,171.762,88.541L171.762,88.541z M142.427,90.004
		c0,0-0.567-0.282-1.132-0.424c-0.142-1.697-0.048-4.339,0.519-7.264C142.049,84.06,141.531,86.23,142.427,90.004z M165.745,53.788
		c0,0.521,0.156,1.875,0.156,1.875l-1.719-0.625C164.183,55.038,164.964,54.361,165.745,53.788L165.745,53.788z M165.694,52.642
		l-1.979-0.938c0,0,1.042-0.729,2.188-1.459C165.746,51.548,165.694,52.642,165.694,52.642z M166.111,57.018l0.208,0.833
		l-0.834-0.208L166.111,57.018z M166.111,48.995l-2.396-1.771c0,0,1.719-0.625,3.126-1.094
		C166.422,47.381,166.111,48.995,166.111,48.995L166.111,48.995z M166.892,60.092l-0.833-0.052l0.521-0.989L166.892,60.092z
		 M162.62,47.068l2.865,2.553l-3.123,2.339c-5.992-0.99-10.161-1.245-10.161-1.245l0.313,1.042c0,0,0,0-1.615-0.208
		c5.262-5.731,13.545-8.335,13.545-8.335l1.667,2.396L162.62,47.068z M162.255,93.536c1.614-0.052,5.262-0.208,5.262-0.208
		l-0.053,1.094c0,0-4.429,1.303-8.336,0.053C159.129,94.474,160.641,93.59,162.255,93.536L162.255,93.536z M157.896,94.108
		c0,0-1.084-0.425-1.604-0.802c0,0,2.028,0.235,2.972,0.189C158.557,93.871,157.896,94.108,157.896,94.108z M147.521,90.051
		c1.226-1.322,6.131-9.386,7.498-18.583c1.367-9.197-0.094-14.857-1.368-19.573c4.858,0.377,8.019,0.943,8.019,0.943
		s2.829,7.782,3.254,18.63c0.39,9.955-3.207,17.875-4.999,21.035C151.954,92.315,147.521,90.051,147.521,90.051L147.521,90.051z
		 M152.096,78.402c0,0-1.368,3.82-2.405,5.895c-0.378-0.943-0.613-3.349-0.613-3.349C149.878,79.251,152.096,78.402,152.096,78.402z
		 M149.076,79.251c0.047-1.698,0.802-4.575,0.802-4.575s1.179-0.943,3.679-1.556c-0.472,2.076-1.132,4.339-1.132,4.339
		S150.398,77.929,149.076,79.251z M153.039,53.876c0,0,2.594,8.772,0.707,18.3c-1.461,0.236-3.396,0.99-3.396,0.99
		s0.641-1.987,1.665-4.883c1.032-2.917,1.023-4.975-0.392-6.531c-1.284-1.412-2.969-1.704-4.805-1.229
		c-1.73,0.448-2.788,2.055-2.788,2.055s1.839-5.449,5.471-9.599C151.576,53.499,153.039,53.876,153.039,53.876z M144.738,62.838
		c1.368-1.65,3.631-2.267,5.47-1.229c1.839,1.038,2.029,3.493,1.181,5.898c-0.849,2.406-2.877,6.226-3.442,10.188
		c-0.566,3.962,0.188,6.556,0.849,8.301c-0.473,0.991-1.509,2.5-1.509,2.5c-2.452-4.34-2.122-8.349-1.651-11.037
		c0.472-2.688,0.142-3.302-0.235-4.009c0.282-0.66,0.99-1.604,2.452-3.961c1.462-2.359,1.981-3.349,1.98-4.858
		c0-1.509-1.509-2.216-2.829-1.839c-1.321,0.377-2.028,1.65-1.558,2.924c0.472,1.273,1.651,0.991,1.84,0.565
		c-0.99-0.613-0.566-1.462,0.094-1.65c0.661-0.188,1.698,0.707,1.228,1.745c-0.473,1.038-1.604,1.84-3.161,1.18
		C143.889,66.894,143.37,64.488,144.738,62.838z M149.076,65.054c-0.095-0.236-0.283-0.708-0.896-1.038
		c-0.612-0.331-1.933,0.095-2.074,0.755c-0.048-0.708,0.66-1.651,1.98-1.274C149.407,63.875,149.076,65.054,149.076,65.054z
		 M147.71,68.639c-1.086,1.745-2.123,2.877-2.783,4.198c-0.283-0.236-1.368-0.566-2.076,0.236c0.707-1.697,0.189-3.349-0.188-3.726
		c0-0.566,0.473-3.491,0.473-3.491C144.031,68.827,146.483,69.063,147.71,68.639z M143.512,73.874
		c0.896-0.472,1.415,0.283,1.32,1.462c-0.094,1.179-0.802,3.537-0.424,7.311c0.377,3.773,2.122,6.792,2.122,6.792l-0.85,0.896
		c-2.216-3.868-3.019-8.679-3.301-10.942C142.096,77.128,142.615,74.345,143.512,73.874L143.512,73.874z M144.69,90.947
		c0,0-0.329,0-0.801,0.141c-0.473-0.188-1.274-2.781-1.18-4.952C143.04,87.834,144.69,90.947,144.69,90.947z M143.937,92.455
		c0,0,0.708-1.226,3.868,0.943c-1.604-1.745-1.981-2.593-1.981-2.593s1.745,0.613,3.868,2.924c2.122,2.31,6.555,5.801,11.602,7.121
		c5.047,1.321,8.678,1.086,15.045-1.226c0,0-4.951,4.858-16.648,2.594c-11.696-2.263-15.469-9.243-18.016-11.365
		C142.664,91.277,143.937,92.455,143.937,92.455L143.937,92.455z M161.483,99.624c11.745,1.652,17.307-4.668,17.307-4.668
		s-0.188,1.65-1.131,2.924C168.087,102.407,161.483,99.624,161.483,99.624L161.483,99.624z M160.254,98.493
		c-6.272-1.04-10.234-6.227-10.234-6.227s1.18,0.283,3.49,0.66c4.67,3.584,9.339,3.866,13.819,2.878
		c4.48-0.991,7.451-3.632,8.819-6.227c1.556,0.519,2.64,2.312,2.688,4.198C173.13,99.342,166.528,99.531,160.254,98.493
		L160.254,98.493z M168.663,94.11v-0.885c0,0,1.302-0.105,2.708-0.366C169.81,93.798,168.663,94.11,168.663,94.11z M171.621,91.606
		c0.425-0.613,1.037-2.877,1.037-2.877s1.227,0.047,2.358,0.377C173.933,91.419,172.47,91.419,171.621,91.606z M175.8,35.815
		c0,0-1.615,0.678-3.699,2.449l-0.624-4.636L175.8,35.815L175.8,35.815z M171.477,38.784c0,0-1.875,2.084-2.553,3.178l-1.563-3.542
		L171.477,38.784z M168.663,42.379c-0.99,1.511-1.615,3.126-1.615,3.126l-2.084-2.76C164.964,42.744,165.954,42.64,168.663,42.379
		L168.663,42.379z M166.059,41.129v0.782l-2.188,0.469c0,0,0,0,0.313,0.47c-8.753,2.761-13.963,8.544-13.963,8.544
		s-0.521-0.053-1.458-0.208C155.639,43.421,166.059,41.129,166.059,41.129L166.059,41.129z M147.615,52.414
		c1.132,0.283,1.367,0.424,1.367,0.424s-5.848,6.132-6.886,16.036c-0.519-0.236-0.849-0.284-1.273-0.19
		C140.823,68.685,141.295,60.007,147.615,52.414L147.615,52.414z M136.154,77.269c0.048-1.226,0.949-1.049,1.232-0.625
		c-0.377-3.537,0.372-11.732,1.126-14.515c-0.377,1.462-0.236,3.584,0.048,4.574c1.697,0.661,1.32,2.688,1.32,3.915
		c0.282-0.85,1.084-1.416,1.792-1.038c0.707,0.376,0.943,1.179,0.425,3.537c-0.521,2.359-0.943,3.961-0.66,7.027
		c-1.51,4.197-1.65,8.489-1.65,8.489C136.72,84.39,136.107,78.495,136.154,77.269L136.154,77.269z M136.109,101.462
		c-2.926,1.697-4.905,0.143-4.387-1.837s4.622-4.15,9.197-2.831c-4.48-2.168-8.727-0.047-10.849,1.322
		c0.66-1.651,2.877-2.972,3.537-3.114c-0.282-1.085,0.99-2.027,1.98-1.98c-1.414-1.745,0.095-4.009,2.313-3.49
		c2.216,0.519,3.489,3.208,7.404,6.603c3.915,3.397,11.036,7.972,21.271,7.689c10.235-0.283,13.631-5.471,13.395-10.33
		c-0.235-4.857-5.084-6.075-7.489-5.933c3.301-4.198,10.886-1.377,12.396,0.699c0.66-3.16-6.696-10.093-11.556-15.187
		c-4.858-5.093-5.896-8.914-6.084-12.263c3.302,7.876,8.726,12.074,14.856,16.743c6.131,4.669,8.725,9.857,8.725,14.432
		s-2.452,7.594-2.452,7.594s2.311-1.18,3.348,0.661c1.038,1.838-0.283,3.489-4.291,4.998c-4.011,1.511-11.65,1.887-18.395,0.943
		c-6.744-0.942-9.857-1.933-16.554-2.216c-6.698-0.283-9.34,0.895-12.781,0.518C136.249,104.104,136.109,101.462,136.109,101.462
		L136.109,101.462z M174.262,75.854c0.849,1.038,1.934,4.009,1.934,8.442c0,0-1.65,0.142-2.688,0.991
		C174.027,83.212,174.45,78.07,174.262,75.854L174.262,75.854z M176.809,78.495c4.623,4.435,5.754,7.169,5.754,7.169
		c-2.122-1.085-3.396-1.274-5.141-1.416C177.517,82.079,177.139,80.052,176.809,78.495L176.809,78.495z M133.307,109.099
		c0.849-1.226,2.849-3.438,4.076-4.052c1.273,0.566,2.357,0.85,3.961,0.754c1.604-0.094,4.009-0.234,4.764-0.094
		c-0.142,0.378-0.193,0.512-0.193,0.512S139.713,105.573,133.307,109.099L133.307,109.099z M137.76,107.876
		c1.792-0.472,4.857-0.99,8.253-0.47c1.84,2.215,4.718,1.508,7.075,1.602c2.358,0.094,2.924,1.227,2.924,1.227
		c-3.396-0.473-5.754-0.33-7.876-0.283C147.523,108.49,140.919,107.594,137.76,107.876L137.76,107.876z M156.483,111.274
		c-2.452,0.188-23.487,1.084-23.487,1.084C148.041,110.471,154.077,110.895,156.483,111.274z M211.709,51.478
		c0.541,0.489,1.279,1.973,1.515,0.735c0.189-0.988-0.906-1.517-1.784-1.811C210.564,50.11,211.214,51.03,211.709,51.478z"/>
</g>
<path display="none" fill="#FFFFFF" stroke="#999999" d="M351.727,201.423c0,2.762-2.238,5-5,5H5.06c-2.761,0-5-2.238-5-5V5.089
	c0-2.761,2.239-5,5-5h341.667c2.762,0,5,2.239,5,5V201.423z"/>
<path fill="#999999" d="M145.136,142.152l-1.075,3.168h1.533l0.952-2.807c0.503,0.09,1.141,0.137,1.738,0.137
	c4.05,0.002,6.493-1.566,7.9-3.58c1.41-2.016,1.795-4.463,1.795-6.242c0.003-3.98-2.175-7.063-5.464-8.166l1.174-3.447h-1.507
	l-1.055,3.113c-0.604-0.096-1.235-0.164-1.937-0.164c-6.087,0.043-9.504,4.279-9.495,9.848
	C139.692,137.742,141.48,140.877,145.136,142.152z M151.845,126.697c2.056,1.713,2.801,4.441,2.801,7.113
	c-0.013,4.17-1.378,7.441-5.633,7.523c-0.721,0-1.469-0.137-1.973-0.371L151.845,126.697z M148.437,125.48
	c0.704,0,1.574,0.139,2.15,0.443l-4.804,14.264c-1.979-1.803-2.755-5.143-2.752-7.613
	C143.042,128.936,144.261,125.557,148.437,125.48z M216.217,138.322c0-0.498-0.219-0.67-0.394-0.67
	c-0.634,0.053-0.719,0.895-1.526,1.688c-0.79,0.799-2.225,1.613-5.33,1.613c-1.581-0.027-1.567-0.604-1.601-1.904
	c0-0.143,0.002-0.293,0.002-0.449v-11.822c0.012-0.918,0.383-1.084,0.81-1.219c0.404-0.115,0.967-0.129,0.979-0.723
	c0.007-0.158-0.047-0.322-0.198-0.385c-0.139-0.059-0.306-0.059-0.574-0.059c-0.424,0-0.705,0.098-2.847,0.098
	c-0.953,0.004-2.415-0.098-3.43-0.102c-0.549,0.004-0.912,0.211-0.925,0.549c0.054,0.602,0.829,0.592,1.509,0.811
	c0.704,0.215,1.335,0.527,1.341,1.533v11.924c-0.01,1.52-0.45,1.867-0.884,2.047c-0.225,0.09-0.461,0.123-0.664,0.215
	c-0.21,0.09-0.376,0.291-0.366,0.613c0.002,0.246,0.246,0.393,0.595,0.393c1.392,0,2.453-0.102,3.228-0.102
	c1.252,0,2.77,0.102,6.605,0.102C214.698,142.467,216.215,140.344,216.217,138.322z M176.005,132.412
	c1.654-0.643,2.551-2.018,2.549-3.566c0-0.313-0.005-1.428-0.809-2.469c-0.804-1.043-2.4-1.988-5.509-1.988
	c-2.121,0.004-4.265,0.105-6.403,0.102c-1.161,0-1.295-0.096-1.513-0.098c-0.008,0-0.024-0.004-0.048-0.004
	c-0.076,0-0.195,0.004-0.308,0.074c-0.114,0.072-0.192,0.219-0.19,0.424c-0.006,0.357,0.225,0.564,0.492,0.658
	c0.812,0.33,2.156,0.123,2.181,2.67v11.143c-0.009,1.186-0.499,1.559-1.015,1.793c-0.5,0.24-1.117,0.244-1.154,0.803
	c-0.007,0.201,0.096,0.375,0.271,0.441c0.17,0.068,0.385,0.076,0.68,0.078c0.542,0,1.197-0.102,1.789-0.102
	c1.254,0,2.52,0.102,6.277,0.102c2.074,0,3.711-0.547,4.831-1.529c1.123-0.98,1.715-2.391,1.715-4.082
	C179.852,134.627,178.883,133.201,176.005,132.412z M169.781,127.988c0.027-1.459,0.007-2.262,1.648-2.279
	c2.188,0.002,3.992,1.563,3.992,3.814c-0.022,1.84-0.662,2.688-2.53,2.709h-1.513c-1.471-0.146-1.559-0.111-1.598-1.322V127.988z
	 M172.765,141.232c-2.424-0.035-2.951-0.607-2.983-2.984v-2.824c0.034-1.332-0.012-1.795,1.422-1.824
	c4.546,0.018,5.184,2.191,5.201,3.666C176.392,139.67,175.176,141.223,172.765,141.232z M236.031,138.324
	c0-0.5-0.219-0.672-0.394-0.672c-0.633,0.053-0.719,0.895-1.526,1.686c-0.79,0.801-2.225,1.615-5.333,1.615
	c-1.579-0.027-1.565-0.604-1.598-1.904c0-0.143,0-0.293,0-0.449v-3.227c0-0.217-0.002-0.408-0.002-0.576
	c0.046-0.98-0.021-1.029,0.946-1.07h1.865c1.269,0.006,1.681,0.613,1.934,1.26c0.263,0.631,0.221,1.354,0.79,1.41
	c0.49-0.006,0.578-0.486,0.58-0.836c0-0.209-0.027-0.41-0.037-0.525l-0.177-4.482c-0.01-0.309-0.069-0.494-0.178-0.611
	c-0.11-0.121-0.253-0.133-0.343-0.129c-0.03,0-0.056,0-0.071,0c-0.23,0.016-0.325,0.211-0.442,0.426
	c-0.35,0.672-0.76,1.893-2.307,1.893h-1.589c-0.544,0.002-0.773-0.057-0.856-0.178c-0.1-0.119-0.115-0.424-0.113-0.965v-3.529
	c0-0.885,0.039-1.258,0.373-1.436c0.351-0.199,1.143-0.219,2.664-0.213c2.418,0.006,3.063,0.713,3.313,1.396
	c0.124,0.348,0.141,0.707,0.202,0.998c0.046,0.283,0.207,0.564,0.569,0.555c0.485-0.008,0.57-0.48,0.573-0.82
	c0-0.184-0.021-0.355-0.03-0.465l-0.099-2.494c0-0.277-0.229-0.588-0.622-0.588c-2.222,0-3.965,0.102-5.749,0.102
	c-3.854,0-5.664-0.102-6.705-0.102c-0.396,0-0.67,0.24-0.672,0.545c0.044,0.654,0.831,0.658,1.508,0.873
	c0.702,0.217,1.336,0.521,1.34,1.598v11.797c-0.009,1.52-0.448,1.865-0.882,2.047c-0.223,0.09-0.46,0.123-0.665,0.217
	c-0.207,0.088-0.375,0.289-0.366,0.611c0.002,0.246,0.246,0.393,0.594,0.393c1.394,0,2.457-0.102,3.229-0.102
	c1.252,0,2.771,0.102,6.604,0.104C234.512,142.467,236.031,140.344,236.031,138.324z M188.09,141.209
	c-0.411,0.232-0.948,0.287-0.968,0.848c0,0.143,0.086,0.416,0.395,0.416c0.666,0,1.745-0.102,2.823-0.102
	c1.963,0,2.89,0.102,3.831,0.102c0.297,0,0.51-0.023,0.67-0.094c0.163-0.072,0.26-0.23,0.253-0.398
	c-0.004-0.297-0.272-0.402-0.535-0.449c-0.834-0.184-2.271-0.055-2.287-2.301v-12.025c0.012-1.17,0.431-1.461,0.87-1.639
	c0.224-0.088,0.456-0.127,0.652-0.207c0.195-0.072,0.375-0.234,0.369-0.498c0.009-0.158-0.057-0.338-0.231-0.398
	c-0.164-0.064-0.387-0.07-0.77-0.07c-1.442,0-2.353,0.102-3.251,0.098c-0.872,0.004-1.857-0.098-2.848-0.102
	c-0.053,0.004-0.143-0.004-0.242-0.004c-0.263,0-0.716,0.037-0.732,0.477c0.054,0.604,0.829,0.586,1.506,0.818
	c0.7,0.225,1.336,0.563,1.343,1.652v12.102C188.931,140.602,188.516,140.969,188.09,141.209z M130.607,142.371
	c0.72,0,1.426,0.102,2.168,0.102c0.442,0,0.746,0.002,0.968-0.057c0.227-0.051,0.372-0.244,0.359-0.488
	c0.006-0.293-0.212-0.453-0.442-0.527c-0.699-0.266-1.887-0.18-2.004-2.602l-0.429-11.17c-0.001-0.057-0.002-0.109-0.002-0.166
	c0.01-1.311,0.545-1.676,1.11-1.893c0.546-0.217,1.22-0.166,1.263-0.76c0.007-0.102-0.026-0.262-0.174-0.332
	c-0.137-0.066-0.327-0.086-0.674-0.09c-0.716,0-1.203,0.105-1.639,0.105c-0.358,0-0.844-0.102-1.461-0.105
	c-0.548-0.006-0.68,0.424-0.737,0.576l-5.847,12.199c-0.01,0.029-0.075,0.168-0.147,0.277c-0.037,0.059-0.077,0.113-0.111,0.148
	c-0.017,0.016-0.032,0.027-0.041,0.033l0,0.004c-0.039,0.016-0.122-0.092-0.221-0.334l-5.546-12.102
	c-0.32-0.729-0.662-0.816-0.938-0.803h-0.051c-0.84,0-1.776,0.105-2.345,0.105c-0.798,0-1.16-0.102-1.513-0.105
	c-0.272,0.016-0.413,0.268-0.418,0.473c0.033,0.676,0.753,0.646,1.337,0.969c0.602,0.322,1.207,0.922,1.214,2.785
	c0,0.105-0.001,0.213-0.006,0.324l-0.352,10.135c-0.056,1.295-0.558,1.736-1.061,2.018c-0.488,0.277-1.081,0.334-1.107,0.912
	c0,0.205,0.174,0.469,0.596,0.469c0.393,0,1.265-0.102,2.496-0.102c1.151,0,1.678,0.102,2.596,0.104
	c0.287-0.002,0.463-0.047,0.582-0.133c0.119-0.086,0.148-0.217,0.146-0.297c0-0.047-0.005-0.084-0.005-0.092
	c0.006-0.316-0.239-0.475-0.493-0.541c-0.775-0.256-2.106-0.131-2.134-3.012c0-0.104,0.001-0.213,0.006-0.324l0.252-7.061
	c0-0.092,0.001-0.244,0.02-0.365c0.01-0.059,0.025-0.109,0.038-0.135c0.042,0.061,0.126,0.236,0.176,0.346l4.889,10.863
	c0.121,0.252,0.247,0.758,0.736,0.773c0.503-0.01,0.621-0.473,0.761-0.773l4.764-9.955c0.189-0.418,0.358-0.748,0.49-0.973
	c0.066-0.113,0.124-0.197,0.166-0.25c0.007-0.01,0.013-0.014,0.018-0.021c0.015,0.039,0.035,0.115,0.045,0.229
	c0.021,0.18,0.032,0.436,0.043,0.766l0.377,7.641c0.006,0.104,0.009,0.199,0.009,0.293c-0.009,1.193-0.423,1.547-0.846,1.766
	c-0.409,0.211-0.953,0.221-0.978,0.76c0.016,0.465,0.488,0.5,0.873,0.5c0.136,0,0.274-0.006,0.404-0.006
	C128.378,142.473,128.972,142.371,130.607,142.371z M238.823,159.523c-1.828-0.744-3.115-1.197-3.931-1.668
	c-0.813-0.479-1.138-0.922-1.145-1.725c0.01-1.621,1.145-2.514,2.903-2.523c2.301,0.002,3.525,1.137,4.283,2.289
	c0.375,0.576,0.631,1.156,0.828,1.596c0.219,0.43,0.302,0.76,0.61,0.803c0.265,0,0.466-0.055,0.597-0.193s0.166-0.324,0.166-0.531
	c0-0.084-0.005-0.174-0.017-0.266l-0.297-3.377c-0.027-0.283-0.019-0.521-0.063-0.715c-0.027-0.193-0.195-0.369-0.439-0.354
	c-0.419,0.012-1.099,0.414-1.391,0.402c-0.732,0.016-1.932-0.98-4.195-0.982c-3.244,0.004-5.484,2.174-5.488,5.139
	c-0.008,2.711,1.681,3.75,4.024,4.699c2.196,0.896,3.723,1.428,4.681,1.992c0.958,0.57,1.34,1.121,1.347,2.156
	c-0.002,1.941-1.554,3.1-3.638,3.107c-2.954,0-4.603-2.234-5.473-4.635c-0.085-0.307-0.217-0.65-0.712-0.635
	c-0.197-0.002-0.354,0.057-0.451,0.168c-0.094,0.113-0.122,0.254-0.122,0.385c0.003,0.252,0.09,0.52,0.127,0.68l0.12-0.027
	l-0.12,0.027l0.848,3.457c0.105,0.57,0.163,0.91,0.879,1.045c1.565,0.324,2.966,0.934,4.658,0.938
	c3.621-0.008,6.193-2.299,6.2-5.668C243.62,161.846,241.735,160.697,238.823,159.523z M224.69,162.016c-0.916,0-1.798,0.1-2.724,0.1
	c-1.177,0-2.337-0.1-3.527-0.1c-0.143,0-0.346-0.027-0.55-0.027c-0.185,0.002-0.376,0.021-0.537,0.119
	c-0.163,0.1-0.27,0.293-0.267,0.553c-0.003,0.33,0.292,0.439,0.57,0.463c0.885,0.137,2.401-0.17,2.432,2.715
	c-0.032,1.457-0.005,3.434-4.499,3.463c-1.996-0.002-3.414-1.113-4.356-2.67c-0.937-1.555-1.374-3.549-1.374-5.256
	c0.014-6.336,3.263-7.785,5.556-7.799c3.281,0.004,4.888,1.348,5.772,2.695c0.439,0.672,0.695,1.352,0.877,1.865
	c0.09,0.256,0.161,0.469,0.23,0.631c0.076,0.146,0.124,0.285,0.304,0.303c0.249,0,0.429-0.029,0.564-0.125
	c0.138-0.102,0.184-0.266,0.182-0.445v-4.209c-0.009-0.383,0.044-1.029-0.493-1.074c-0.283,0.006-0.414,0.234-0.541,0.4
	c-0.133,0.174-0.248,0.303-0.467,0.307c-0.293,0.01-0.992-0.406-2.068-0.82c-1.061-0.412-2.483-0.82-4.233-0.82
	c-6.438,0.002-9.061,5.65-9.067,9.924c0.007,2.016,1.16,8.559,8.637,8.563c2.781-0.002,5.595-1.172,7.996-2.484
	c0.271-0.141,0.325-0.367,0.313-0.76c0-0.365-0.076-1.061-0.076-2.09c0.009-1.604,0.419-1.992,0.801-2.174
	c0.201-0.092,0.412-0.123,0.602-0.207c0.188-0.078,0.348-0.268,0.338-0.57C225.083,162.182,224.879,162.016,224.69,162.016z
	 M200.809,152.512c-0.245,0-1.112,0.1-2.698,0.1c-1.737,0-2.454-0.1-2.873-0.1c-0.407,0-0.521,0.346-0.521,0.545
	c0.06,0.584,0.875,0.604,1.613,0.896c0.76,0.281,1.458,0.693,1.463,1.775v8.396c0,0.309-0.015,0.539-0.042,0.678
	c-0.014,0.068-0.032,0.115-0.045,0.131l0.001,0.006c-0.034,0.027-0.387-0.266-0.696-0.619l-10.133-11.115
	c-0.218-0.229-0.236-0.361-0.342-0.502c-0.12-0.15-0.301-0.193-0.702-0.191c-1.343,0-2.006,0.1-2.648,0.1
	c-0.463,0.002-0.916-0.1-1.411-0.1c-0.363,0-0.544,0.275-0.544,0.545c-0.009,0.357,0.243,0.545,0.519,0.627
	c0.824,0.309,2.272,0.191,2.305,3.785h-0.001v9.58c-0.006,1.246-0.563,1.715-1.148,2.045c-0.572,0.33-1.246,0.451-1.272,1.08
	c-0.002,0.16,0.071,0.297,0.185,0.361c0.11,0.064,0.231,0.074,0.35,0.074c0.136,0,0.273-0.018,0.365-0.018
	c0.692,0,1.371-0.1,2.167-0.1c0.874,0,1.734,0.1,2.976,0.1h0.136c0.325-0.014,0.891,0.025,0.939-0.443
	c0.004-0.367-0.283-0.531-0.591-0.605c-0.94-0.273-2.607-0.125-2.638-3.705l0.001-8.572c-0.001-0.104,0.013-0.193,0.033-0.238
	c0.028-0.049,0.028-0.045,0.051-0.049c0.048-0.01,0.198,0.09,0.366,0.289l12.13,13.111c0.163,0.195,0.35,0.398,0.741,0.391
	c0.009,0,0.019,0,0.026,0c0.162,0,0.311-0.1,0.349-0.25c0.046-0.154,0.041-0.344,0.043-0.623v-14.143
	c0.008-1.295,0.5-1.738,1.008-2.006c0.493-0.271,1.091-0.268,1.134-0.793c0-0.041,0.003-0.158-0.086-0.266
	C201.228,152.58,201.065,152.51,200.809,152.512z M160.213,169.748c-0.435-0.207-1.355-0.279-2.828-2.266l-4.815-6.477
	c-0.381-0.502-0.592-0.816-0.583-0.965c-0.023-0.117,0.368-0.537,0.514-0.643l-0.075-0.09l0.079,0.084l4.437-4.109
	c1.213-1.1,2.008-1.453,2.502-1.623c0.248-0.084,0.422-0.119,0.563-0.191c0.146-0.066,0.234-0.223,0.226-0.412
	c-0.003-0.516-0.497-0.545-0.705-0.545h-0.067c-1.09,0-1.752,0.1-2.37,0.1c-0.751,0-2.485-0.1-2.747-0.1
	c-0.167,0.002-0.33,0-0.474,0.086c-0.149,0.086-0.226,0.264-0.223,0.508c0.031,0.428,0.498,0.463,0.859,0.555
	c0.395,0.096,0.688,0.193,0.678,0.479c0.029,1.014-2.401,3.104-3.117,3.799l-3.327,3.252c-0.299,0.305-0.454,0.41-0.512,0.4
	c-0.01,0-0.017-0.002-0.021-0.002c-0.001,0-0.003,0-0.005-0.002c-0.011-0.037-0.026-0.15-0.022-0.264
	c0-0.066,0.001-0.135,0.001-0.199v-5.773c0.013-1.369,0.418-1.631,0.823-1.758c0.211-0.064,0.435-0.074,0.629-0.137
	c0.198-0.057,0.374-0.236,0.362-0.525c0.007-0.193-0.12-0.332-0.256-0.375c-0.133-0.047-0.275-0.043-0.389-0.043
	c-0.514,0-2.097,0.1-3.504,0.1c-1.711,0-2.533-0.1-3.025-0.1c-0.164,0-0.312,0.025-0.431,0.104c-0.121,0.08-0.192,0.227-0.19,0.391
	c-0.007,0.334,0.23,0.52,0.493,0.598c0.807,0.281,2.134,0.066,2.154,2.273v10.969c-0.007,1.891-0.487,2.355-0.938,2.563
	c-0.234,0.105-0.479,0.135-0.694,0.227c-0.217,0.088-0.394,0.295-0.385,0.641c0.065,0.352,0.435,0.299,0.899,0.316
	c0.79,0,2.098-0.1,3.302-0.1c1.432,0,2.105,0.1,2.799,0.1c0.308-0.002,0.491-0.016,0.628-0.074c0.148-0.063,0.201-0.219,0.194-0.344
	c-0.042-0.602-0.738-0.588-1.316-0.793c-0.598-0.207-1.145-0.516-1.155-1.627v-3.303c0-0.123-0.003-0.229-0.003-0.324
	c0.005-0.357,0.02-0.506,0.301-0.836c0.536-0.629,1.018-1.047,1.098-1.018c0.003-0.004,0.066,0.025,0.157,0.148
	c0.093,0.117,0.214,0.295,0.381,0.51l5.014,6.881c0.476,0.662,0.811,0.779,1.264,0.779c0.021,0,0.044,0,0.066,0
	c0.716,0,1.227-0.1,1.688-0.1c0.67,0,1.324,0.1,1.891,0.1c0.167,0,0.298-0.043,0.372-0.145c0.07-0.1,0.071-0.207,0.071-0.299
	C160.492,169.953,160.365,169.811,160.213,169.748z M136.173,169.65c-0.834-0.184-2.271-0.055-2.287-2.299v-12.027
	c0.01-1.168,0.431-1.461,0.87-1.641c0.225-0.086,0.457-0.125,0.653-0.203c0.194-0.074,0.375-0.236,0.368-0.5
	c0.01-0.158-0.055-0.338-0.231-0.398c-0.162-0.064-0.386-0.068-0.767-0.072c-1.443,0-2.354,0.102-3.252,0.102
	c-0.874,0-1.857-0.102-2.849-0.102c-0.053,0-0.142-0.006-0.242-0.006c-0.262,0.004-0.717,0.037-0.732,0.477
	c0.053,0.602,0.828,0.586,1.506,0.816c0.699,0.227,1.335,0.566,1.342,1.654v12.102c-0.007,1.168-0.421,1.537-0.846,1.773
	c-0.412,0.234-0.95,0.291-0.969,0.848c0.001,0.145,0.086,0.418,0.394,0.418c0.666,0,1.746-0.1,2.824-0.1c1.961,0,2.89,0.1,3.832,0.1
	c0.296,0,0.509-0.021,0.669-0.096c0.164-0.068,0.26-0.229,0.253-0.398C136.705,169.803,136.436,169.697,136.173,169.65z
	 M121.738,152.58c-0.125-0.068-0.267-0.072-0.429-0.076c-0.115,0-0.24,0.008-0.375,0.008c-0.716,0-1.422,0.102-2.118,0.1
	c-0.72,0.002-1.426-0.1-2.167-0.1c-0.069,0-0.167-0.004-0.276-0.004c-0.324,0-0.854,0.029-0.875,0.521
	c0.049,0.602,0.765,0.535,1.359,0.717c0.616,0.18,1.176,0.467,1.188,1.604c-0.001,0.391-0.046,1.248-0.797,2.928l-3.454,7.664
	c-0.041,0.098-0.085,0.229-0.134,0.328c-0.023,0.049-0.05,0.092-0.069,0.111c-0.018,0.021-0.018,0.014-0.018,0.021
	c-0.001,0-0.002,0-0.024-0.023c-0.075-0.074-0.166-0.301-0.223-0.436l-3.275-8.115c-0.629-1.531-0.952-2.713-0.949-3.436
	c0.004-0.459,0.297-0.582,0.675-0.711c0.351-0.121,0.818-0.191,0.837-0.652c0.003-0.191-0.028-0.363-0.189-0.447
	c-0.148-0.072-0.328-0.068-0.63-0.072c-0.07,0-0.148,0.002-0.23,0.002c-0.42,0-1.138,0.1-2.748,0.102
	c-0.849,0-1.706-0.102-2.546-0.104c-0.137,0.002-0.356-0.033-0.572-0.033c-0.308,0-0.705,0.104-0.705,0.553
	c0.039,0.316,0.392,0.418,0.483,0.465c1.032,0.264,1.313,0.482,1.745,1.449l6.277,14.67c0.458,1.055,0.709,1.365,1.066,1.383h0.004
	c0.347,0,0.518-0.236,0.781-0.875h0l6.858-15.15c0.332-0.723,0.735-1.041,1.069-1.262c0.323-0.219,0.644-0.346,0.655-0.729
	C121.937,152.801,121.867,152.652,121.738,152.58z M174.504,169.65c-0.836-0.184-2.273-0.055-2.288-2.299v-12.027
	c0.011-1.168,0.43-1.461,0.869-1.641c0.225-0.086,0.457-0.125,0.654-0.203c0.193-0.074,0.373-0.236,0.367-0.5
	c0.01-0.158-0.057-0.338-0.231-0.398c-0.162-0.064-0.387-0.068-0.768-0.072c-1.443,0-2.354,0.102-3.253,0.102
	c-0.873,0-1.857-0.102-2.849-0.102c-0.052,0-0.142-0.006-0.241-0.006c-0.262,0.004-0.717,0.037-0.732,0.477
	c0.054,0.602,0.828,0.586,1.507,0.816c0.7,0.227,1.336,0.566,1.343,1.654v12.102c-0.009,1.168-0.421,1.537-0.847,1.773
	c-0.411,0.234-0.949,0.291-0.969,0.848c0,0.145,0.087,0.418,0.394,0.418c0.666,0,1.746-0.1,2.823-0.1c1.963,0,2.89,0.1,3.832,0.1
	c0.296,0,0.51-0.021,0.67-0.096c0.163-0.068,0.26-0.229,0.253-0.398C175.034,169.803,174.766,169.697,174.504,169.65z
	 M144.418,109.938c-0.596,0.035-10.832,1.158-16.966,2.035c-6.134,0.875-9.955,2.313-9.955,2.313h113.755
	c0,0-1.197-0.814-4.667-1.338c-3.47-0.525-8.204-1.537-13.147-2.555c-4.943-1.014-5.292-3.154-5.292-3.154s3.118,0.422,4.417,1.648
	c-0.456-2.943-1.857-4.029-3.297-4.904c1.823-2.141,0.562-3.262-0.141-3.473c0,0,1.131-1.478,2.305-0.817
	c-1.082-2.008-3.394-1.598-4.338-1.041c0.036-0.911,0.281-1.962,0.737-3.751c2.351,0.364,2.91-1.016,2.979-1.789
	c0.911,0.421,0.98,1.894-0.141,2.385c3.083-0.358,3.854-2.684,3.819-4.226c4.769,1.227,4.95,6.291,4.389,7.974
	c1.018-1.788,1.957-5.748-0.882-9.218s-7.221-3.435-8.869-3.505c-0.209-0.456-0.588-0.864-1.001-1.278
	c1.893-5.188,2.615-10.08,1.247-17.405c-1.366-7.326-6.064-13.11-6.064-13.11s7.046,1.717,8.238,1.997s1.823-0.385,1.508-1.156
	c-0.317-0.771-0.455-1.507-0.808-2.875c-0.351-1.367-1.05-2.489-2.171-3.085c-1.123-0.596-2.841-1.086-6.241-4.417
	c-3.399-3.331-6.8-5.819-9.499-7.326c0.35-3.541,2.943-8.238,5.082-9.675c-5.749,1.437-8.973,7.011-8.973,7.011l-0.561-1.507
	l-2.279,1.402c0,0-0.352-0.947-0.842-2.559c0.631-3.541,2.42-6.835,3.82-8.272c-6.169,3.015-8.308,8.063-8.308,8.063l-1.471-2.875
	l-2.279,5.048l-3.681-4.136l-1.611,5.574l-4.979-2.208l0.386,5.188l-3.716-0.246c0,0-0.49-5.818-0.561-6.695
	c-0.07-0.876-1.191-0.526-1.157,0.07c0.035,0.596,0.211,5.784,0.28,9.114C151.394,44.107,145.4,51.854,145.4,51.854
	s-1.017-0.175-1.857-0.245c-0.841-0.07-0.702,0.911-0.386,1.017c0.315,0.104,0.56,0.141,1.262,0.351
	c-5.047,6.205-6.272,12.335-6.553,14.264c-0.305-0.496-0.634-0.593-1.019-0.803c-0.315-1.507-0.035-5.048,0.245-6.766
	c-2.77,4.733-2.98,14.617-2.944,16.23c-1.191,0.106-1.278,2.806-0.401,6.486c0.875,3.682,2.023,5.97,2.023,5.97
	s-1.063-0.275-2.358,0.549c-1.842,1.171-1.823,2.803-1.332,3.679c-1.086,0.211-1.578,1.262-1.473,2.035
	c-3.926,2.593-3.505,5.396-3.505,5.396s0.631-0.63,1.577-0.946c-0.28,0.456-0.806,2.348,0.876,3.612
	c1.683,1.262,3.786,0.35,3.786,0.35s0.211,0.805,0.947,1.367c-4.031,3.959-4.242,5.959-4.242,5.959s1.262-0.842,4.172-1.859
	c5.503-0.49,9.675,0.771,10.061,0.947C144.663,109.625,145.014,109.902,144.418,109.938z M125.812,113.242
	c1.789-0.047,27.232-1.484,29.413-1.658c0.262-1.309-1.264-2.66-2.966-3.141c-1.701-0.479-4.317-0.219-6.28-0.656
	c-1.963-0.436-1.396-1.654-1.178-1.959c0.218-0.307,1.309-0.35,5.234,1.176s12.212,5.059,17.141,5.496
	c4.929,0.436,10.858-0.088,14.698-0.088c3.838,0,14.306-0.174,19.539-0.262s7.108,0.088,13.126,0.307
	c6.021,0.219,9.442,0.955,9.442,0.955S130.13,113.371,125.812,113.242z M199.101,111.453c-7.678,0-14.394,0.262-14.786,0.043
	c-0.393-0.217,2.006-0.871,4.798-1.527C191.904,110.58,199.101,111.453,199.101,111.453z M191.161,109.535
	c0,0,0.568-0.176,2.399-0.57c6.585,1.484,12.081,2.227,12.081,2.227C198.228,111.018,191.161,109.535,191.161,109.535z
	 M217.506,111.975c0,0-7.457-0.566-13.652-1.523c-6.193-0.961-8.723-1.789-8.723-1.789l2.922-0.611c0,0,1.526,1.092,3.97,1.092
	c2.442,0,3.488-0.09,6.585,0.826C211.704,110.887,217.506,111.975,217.506,111.975z M208.172,108.924
	c-2.137-0.785-4.101-0.74-5.844-0.656c-1.745,0.09-2.398-0.564-2.398-0.564c5.276-1.006,7.326-0.568,7.326-0.568
	S207.256,107.965,208.172,108.924z M211.313,107.092c-2.878-1.523-7.197-1.57-16.226,0.438c-9.027,2.006-14.521,3.313-21.675,3.967
	c-7.153,0.656-12.91-1.309-17.882-3.271c-4.972-1.961-5.392-2.359-7.725-3.004c4.066-0.354,5.593-0.234,9.582,0.316
	c4.804,0.668,8.218,1.438,15.458,1.74c7.24,0.307,13.735-1.436,15.654-2.656c5.78-0.121,8.551-2.152,10.688-2.412
	c2.137-0.264,2.181,0.826,2.05,1.352C209.742,103.691,211.313,107.092,211.313,107.092z M194.259,102.121
	c1.134-0.654,2.53-1.004,3.228-0.566c-1.833,0.828-3.882,1.57-5.061,1.699c0-1.045,0.655-2.572,1.745-4.404
	c1.091-1.832,2.53-1.832,2.53-1.832C195.175,99.634,194.739,100.594,194.259,102.121z M197.66,97.412
	c0.307,0.435,0.611,1.351-0.699,3.182c-0.435-0.086-1.089,0.045-1.089,0.045S196.439,98.938,197.66,97.412z M191.599,103.385
	l-1.221,0.176c0,0,1.09-0.654,2.135-2.662C191.904,102.295,191.599,103.385,191.599,103.385z M202.284,93.049
	c-1.571,0.524-2.356,0.873-3.49,1.789c-0.26-0.481-0.697-0.787-0.697-0.787S199.886,92.788,202.284,93.049z M197.66,93.79
	c-0.393-0.304-0.741-0.436-0.741-0.436s0.959-0.74,3.183-0.654C199.145,92.961,198.097,93.18,197.66,93.79z M200.758,94.925
	c1.133-0.655,1.962-0.961,3.968-1.004c0.219,1.875,0.653,4.667-1.091,8.635c-0.74-0.129-1.525-0.088-1.525-0.088
	s-0.609-1.918-3.752-1.178c-0.086-0.129-0.217-0.26-0.217-0.26S200.061,98.283,200.758,94.925z M210.309,99.155
	c-0.96,0-1.745,0.656-2.268,1.832c2.442-0.043,1.134,1.963,0.435,2.748c-1.004-0.434-1.918-0.699-3.531-1.004
	c1.787-5.582,0.828-8.591,0.828-8.591s0.654,0.262,1.309,0.566c-0.61,2.443-0.565,3.756-0.644,5.304
	C207.831,98.308,209.322,98.6,210.309,99.155z M212.883,87.684c3.926,0.741,6.848,4.493,6.541,9.072
	c-0.131-4.229-2.747-5.933-5.758-6.542c0.175,0.611,0.409,3.559-1.741,4.58c0.675-1.149-0.568-2.704-2.098-2.573
	c0.744,0.348,0.219,2.049-1.352,1.961c-1.57-0.086-4.448-1.961-7.718-2.18c-3.271-0.219-5.104,0.915-5.89,1.832
	c1.352-0.393,4.232,0.567,3.578,3.358c-0.479-1.57-3.185-1.308-4.886,0.96c-1.701,2.268-2.224,3.4-3.445,4.23
	c0.61-0.828,0.086-3.794-2.617-4.056c0.829-1.44,1.09-2.793,1.09-2.793s5.758-4.143,11.602-6.28
	C206.035,87.118,208.957,86.943,212.883,87.684z M188.163,71.948c2.229,4.185,3.382,8.093,3.633,12.602
	c0.252,4.511-1.854,8.895-1.854,8.895s-0.276,0.152-1.079,0.627c0.378-3.157,0.228-6.489-2.404-10.323
	c-2.631-3.833-4.91-5.563-6.739-6.915c-0.251-1.754-0.603-2.456-1.429-8.419c-0.826-5.963-0.451-7.492,0.051-10.122
	c0.499-2.631,2.829-4.209,2.829-4.209C178.491,59.245,185.933,67.764,188.163,71.948z M204.314,64.447
	c-0.8-0.832-8.455-8.188-9.519-9.32c-1.066-1.131-1.752-1.595-1.565-1.864c0.299-0.433,2.795,0,5.823,0.566
	c4.694,5.159,6.759,10.086,7.824,14.846c1.064,4.76,0.033,10.018-0.832,12.813c-1.633-5.426-5.492-7.255-6.291-7.788
	c-0.101-0.332,0.066-1.264,0.432-2.163c0.367-0.898,2.164-1.299,2.364-0.199c0.2,1.098-0.5,1.764-1.531,1.931
	c0.665,0.199,1.265,0.266,2.164,0.1c0.899-0.167,2.528-0.899,2.097-2.796c-0.432-1.897-1.599-1.964-2.33-1.997
	c-0.166-0.366-0.666-1.365-1.998-1.332c-1.33,0.033-2.23,0.999-2.463,2.063c-2.264-0.132-2.796,1.697-2.764,2.564
	c-1.297-0.466-2.462-0.733-4.291-1c-0.135-3.262-0.801-6.791-0.801-6.791s2.332,0.533,2.931,0.632
	c0.599,0.1,0.697-0.732,0.165-0.998c-0.531-0.266-3.628-1.531-3.628-1.531s-0.072-0.034-0.171-0.433
	c-2.378-1.07-6.792-3.445-8.023-3.945c-0.067-0.899,0.007-1.414,0.239-2.379c2.563,4.527,7.688,5.193,9.985,5.992
	c2.298,0.799,3.827,1.897,5.459,3.096c1.632,1.198,2.563,1.998,3.295,1.998s1.83-0.201,2.53-0.101c0.7,0.101,1.697,0.433,1.897-0.2
	C205.512,65.579,205.113,65.28,204.314,64.447z M189.702,71.305c0,0,5.359,4.826,7.988,8.82c2.63,3.994,2.497,8.189,2.497,8.189
	s-2.165,0.799-4.562,2.031C195.793,87.448,196.36,81.29,189.702,71.305z M192.265,81.19c-0.998-5.392-3.728-10.186-5.724-13.115
	c0,0,1.664,1.831,2.894,3.662c1.232,1.831,3.396,5.226,4.66,9.453c1.267,4.228,1.099,7.057,1.033,9.454
	c-2.198,1.13-3.497,1.862-3.497,1.862S193.264,86.583,192.265,81.19z M186.172,65.979c0,0-0.199-2.629-0.599-5.292
	c0,0,3.129,1.464,3.527,1.764c0.399,1.797,0.866,3.961,1,7.557C188.868,68.809,186.172,65.979,186.172,65.979z M191.998,71.736
	c0,0,2.129,0.4,3.429,0.899c-0.766,0.167-1.598,0.866-1.598,0.866L191.998,71.736z M199.754,81.956
	c1.032,1.564,2.23,3.495,3.095,5.493c-0.933,0.232-1.431,0.399-1.431,0.399S201.019,84.02,199.754,81.956z M194.595,74.3
	c0.399-0.966,2.065-1.63,2.065-1.63s-0.534-0.899,0.197-1.999c0.732-1.098,2.197-0.699,2.197-0.699s0.167-1.531,1.565-1.864
	c1.397-0.333,1.897,1.198,1.897,1.198s1.496-0.299,1.862,0.998c0.442,1.563-0.465,2.297-1.764,2.596
	c0.966-0.532,0.732-2.729-0.933-3.029c-1.662-0.299-3.661,1.365-4.094,3.662c-0.432,2.296,0.999,4.227,3.229,7.156
	c2.229,2.93,2.828,5.892,2.828,5.892C200.686,80.291,195.594,75.199,194.595,74.3z M198.456,76.197
	c-1.232-2.363,0.665-4.426,0.665-4.426c-1.299,3.361,2.264,6.557,4.66,8.62c2.396,2.064,2.164,3.861,1.83,4.76
	c1.131,0.067,2.065,0.599,2.397,1.431c-1.032-0.034-2.264,0.266-3.795,0.566C204.048,83.587,199.688,78.561,198.456,76.197z
	 M199.987,74.833c2.197,1.63,3.696,3.061,4.761,5.391C200.82,77.096,199.987,74.833,199.987,74.833z M185.307,65.081
	c-2.464-2.996-3.194-5.958-3.194-5.958s0.698,0.332,2.563,1.164C184.975,61.884,185.307,65.081,185.307,65.081z M209.007,71.238
	c0.805,7.907-1.996,13.479-1.996,13.479s0,0-0.467-0.232c0.232-1.098-0.099-1.764-0.099-1.764c2.33-7.323,1.563-13.78-0.436-19.105
	c-1.996-5.326-5.957-9.62-5.957-9.62l2.03,0.399C205.347,58.987,208.209,63.382,209.007,71.238z M191.327,35.668
	c0.338-0.56,1.719-3.286,5.117-5.453c-0.934,1.308-2.353,3.287-3.063,7.208c0,0-1.008-0.485-1.567-0.672
	C191.254,36.565,190.991,36.229,191.327,35.668z M189.573,34.511l0.671,1.867l-2.24-0.71L189.573,34.511z M186.845,35.482
	l-0.373-0.149l0.039-1.606L186.845,35.482z M183.58,31.962c1.62-3.121,4.334-5.118,4.334-5.118
	c-3.031,5.009-2.536,9.146-2.361,10.961c0.176,1.815-0.317,2.395-1.199,2.722c-0.88,0.327-2.077-0.145-2.254-1.379
	C181.923,37.914,181.959,35.083,183.58,31.962z M180.833,30.813l1.045,2.54c0,0-0.373,0.747-0.485,1.457
	c-0.784-0.037-2.204,0.112-2.204,0.112L180.833,30.813z M175.047,31.526l2.929,3.647c0,0-1.9,0.206-4.008,1.182L175.047,31.526z
	 M181.123,36.016c-0.207,2.069-0.258,4.981,1.672,5.396c1.932,0.414,3.175-0.397,3.596-1.66c0.318-0.952,0.106-2.308,0.044-3.261
	c0,0,6.461,1.307,11.243,4.781c4.78,3.473,5.312,4.794,8.926,7.47c2.395,1.773,3.291,1.704,3.912,2.669
	c0.619,0.965,0.688,2.689,1.172,3.517c0.483,0.828,0.207,0.897-0.76,0.552c-0.965-0.345-5.1-1.448-9.238-2.413
	s-8.366-1.46-9.177-0.884c-0.843,0.599-0.753,1.367,0.074,2.401c0.826,1.034,10.688,10.067,11.24,10.55
	c0.551,0.483,0.346,0.621-0.483,0.414c-0.826-0.207-1.379-0.345-1.862-0.207c-0.481,0.138-1.172-0.207-2.759-1.585
	c-1.584-1.38-3.31-2.345-5.445-3.241c-2.139-0.897-11.31-2.345-9.931-8.207c-2.481,0.552-4.828,2.276-5.793,5.793
	c-0.966,3.516-0.345,10.688,1.034,16.756c-2-6.343-2.689-12.48-1.724-17.859c0.965-5.378,5.104-7.171,9.034-8.344
	c3.93-1.172,10.852,0.412,12.532,1.043c-1.174-1.986-1.914-4.008-5.706-5.939s-7.72-2.382-11.653-0.482
	c-3.722,1.797-7.931,5.24-7.586,12.55c0.346,7.309,2.276,14.342,3.724,19.1c-3.241-2.551-12.757-9.929-12.757-20.411
	C164.452,44.032,171.125,36.499,181.123,36.016z M191.816,47.149c0.539,0.564,0.242,0.479-0.2,0.413
	c-4.204-0.633-10.977,1.254-13.466,5.151s-2.418,8.313-2.09,12.328c0.329,4.014,1.81,9.367,2.231,10.753
	c-0.61-0.376-2.065-5.847-2.864-9.322c-0.798-3.474-2.231-10.776-0.869-15.542s5.918-6.846,8.594-7.621
	c2.678-0.774,5.454-0.264,5.972,0.559C189.64,44.689,191.275,46.586,191.816,47.149z M190.831,44.129c0,0,3.006,1.072,4.793,3.448
	c-1.092-0.294-1.557-0.147-2.208-0.567C192.764,46.589,192.009,45.77,190.831,44.129z M169.115,88.751c0,0-0.465,1.768-1.162,3.255
	c-2.14,0.511-6.696,0.884-9.672,0.791c0.93-1.536,4.092-7.859,4.604-14.324c0.511-6.463,0.232-11.299-0.651-16.042
	c-0.884-4.743-2.14-8.789-2.14-8.789l2.465,0.418l-1.627,1.86l2.092,1.069l-1.256,1.582l1.814,0.791l-0.697,1.535
	c0,0,0.186,0.092,1.068,0.232c0.559,7.533,3.628,10.742,6.651,14.09c0.603,4.93-0.744,10.881-0.744,10.881s-1.303,1.256-1.861,2.697
	C168.51,88.613,169.115,88.751,169.115,88.751z M140.191,90.194c0,0-0.559-0.28-1.116-0.419c-0.139-1.674-0.046-4.278,0.512-7.162
	C139.819,84.334,139.307,86.473,140.191,90.194z M163.183,54.486c0,0.514,0.153,1.849,0.153,1.849l-1.695-0.617
	C161.641,55.719,162.412,55.051,163.183,54.486z M163.131,53.357l-1.952-0.925c0,0,1.027-0.72,2.157-1.438
	C163.183,52.278,163.131,53.357,163.131,53.357z M163.542,57.671l0.205,0.821l-0.822-0.206L163.542,57.671z M163.542,49.761
	l-2.363-1.747c0,0,1.695-0.616,3.082-1.079C163.85,48.168,163.542,49.761,163.542,49.761z M164.313,60.701l-0.822-0.051l0.514-0.976
	L164.313,60.701z M160.101,47.86l2.824,2.517l-3.079,2.307c-5.907-0.976-10.018-1.228-10.018-1.228l0.309,1.027c0,0,0,0-1.593-0.205
	c5.188-5.65,13.355-8.219,13.355-8.219l1.644,2.363L160.101,47.86z M159.741,93.676c1.592-0.051,5.188-0.205,5.188-0.205
	l-0.051,1.079c0,0-4.367,1.285-8.22,0.052C156.658,94.602,158.149,93.729,159.741,93.676z M155.444,94.24
	c0,0-1.069-0.419-1.581-0.792c0,0,2,0.232,2.929,0.187C156.094,94.007,155.444,94.24,155.444,94.24z M145.213,90.24
	c1.209-1.302,6.045-9.253,7.394-18.322c1.348-9.067-0.093-14.648-1.349-19.298c4.79,0.372,7.906,0.93,7.906,0.93
	s2.79,7.673,3.208,18.368c0.385,9.815-3.162,17.624-4.929,20.741C149.584,92.472,145.213,90.24,145.213,90.24z M149.724,78.754
	c0,0-1.349,3.767-2.372,5.813c-0.372-0.93-0.604-3.3-0.604-3.3C147.538,79.591,149.724,78.754,149.724,78.754z M146.748,79.591
	c0.046-1.674,0.791-4.51,0.791-4.51s1.163-0.93,3.627-1.535c-0.465,2.046-1.116,4.278-1.116,4.278S148.05,78.289,146.748,79.591z
	 M150.654,54.573c0,0,2.557,8.649,0.698,18.042c-1.441,0.232-3.349,0.978-3.349,0.978s0.631-1.959,1.642-4.815
	c1.019-2.876,1.009-4.904-0.386-6.439c-1.266-1.393-2.927-1.68-4.738-1.211c-1.706,0.441-2.748,2.026-2.748,2.026
	s1.813-5.372,5.394-9.464C149.212,54.202,150.654,54.573,150.654,54.573z M142.47,63.409c1.348-1.627,3.579-2.235,5.392-1.212
	c1.813,1.023,2.001,3.444,1.164,5.815s-2.836,6.138-3.395,10.044c-0.558,3.906,0.186,6.464,0.837,8.185
	c-0.465,0.976-1.488,2.463-1.488,2.463c-2.417-4.278-2.093-8.23-1.628-10.881c0.465-2.651,0.14-3.255-0.232-3.953
	c0.279-0.65,0.977-1.581,2.418-3.905c1.441-2.326,1.954-3.302,1.953-4.791c0-1.488-1.487-2.185-2.789-1.813
	c-1.303,0.372-2,1.627-1.536,2.883c0.465,1.255,1.628,0.976,1.814,0.558c-0.976-0.604-0.559-1.441,0.093-1.628
	c0.651-0.186,1.674,0.698,1.209,1.721c-0.466,1.024-1.581,1.814-3.117,1.163C141.632,67.408,141.121,65.036,142.47,63.409z
	 M146.748,65.595c-0.093-0.233-0.279-0.698-0.884-1.023c-0.605-0.326-1.906,0.093-2.045,0.744c-0.047-0.698,0.651-1.628,1.953-1.256
	C147.073,64.432,146.748,65.595,146.748,65.595z M145.4,69.129c-1.07,1.72-2.093,2.836-2.745,4.139
	c-0.278-0.233-1.349-0.559-2.046,0.232c0.697-1.674,0.187-3.302-0.186-3.674c0-0.558,0.466-3.442,0.466-3.442
	C141.772,69.314,144.19,69.547,145.4,69.129z M141.26,74.29c0.884-0.465,1.395,0.279,1.303,1.441
	c-0.093,1.163-0.792,3.488-0.418,7.208c0.371,3.721,2.092,6.696,2.092,6.696L143.4,90.52c-2.185-3.814-2.976-8.557-3.255-10.789
	C139.865,77.498,140.377,74.755,141.26,74.29z M142.423,91.123c0,0-0.325,0-0.79,0.14c-0.466-0.186-1.256-2.742-1.163-4.882
	C140.796,88.054,142.423,91.123,142.423,91.123z M141.681,92.61c0,0,0.697-1.209,3.813,0.93c-1.582-1.72-1.954-2.557-1.954-2.557
	s1.721,0.604,3.813,2.884c2.093,2.277,6.463,5.719,11.439,7.02c4.976,1.305,8.557,1.072,14.833-1.208c0,0-4.882,4.79-16.414,2.557
	c-11.533-2.232-15.253-9.114-17.764-11.206C140.425,91.449,141.681,92.61,141.681,92.61z M158.98,99.679
	c11.58,1.629,17.064-4.603,17.064-4.603s-0.187,1.626-1.115,2.882C165.49,102.424,158.98,99.679,158.98,99.679z M157.768,98.564
	c-6.184-1.026-10.09-6.14-10.09-6.14s1.162,0.28,3.441,0.65c4.604,3.534,9.207,3.813,13.625,2.838
	c4.418-0.978,7.347-3.582,8.695-6.14c1.535,0.512,2.604,2.279,2.65,4.14C170.463,99.4,163.953,99.586,157.768,98.564z
	 M166.059,94.243V93.37c0,0,1.284-0.104,2.672-0.36C167.19,93.934,166.059,94.243,166.059,94.243z M168.976,91.774
	c0.419-0.605,1.022-2.836,1.022-2.836s1.208,0.046,2.325,0.372C171.254,91.588,169.813,91.588,168.976,91.774z M173.096,36.766
	c0,0-1.593,0.668-3.647,2.414l-0.615-4.571L173.096,36.766z M168.833,39.693c0,0-1.85,2.054-2.518,3.133l-1.541-3.492
	L168.833,39.693z M166.059,43.237c-0.976,1.49-1.592,3.083-1.592,3.083l-2.055-2.722C162.412,43.598,163.388,43.495,166.059,43.237z
	 M163.49,42.004v0.771l-2.157,0.462c0,0,0,0,0.308,0.462c-8.628,2.723-13.766,8.424-13.766,8.424s-0.513-0.052-1.438-0.206
	C153.218,44.265,163.49,42.004,163.49,42.004z M145.306,53.132c1.116,0.279,1.349,0.418,1.349,0.418s-5.766,6.045-6.789,15.811
	c-0.511-0.232-0.837-0.28-1.256-0.187C138.61,69.175,139.074,60.618,145.306,53.132z M134.006,77.637
	c0.047-1.208,0.936-1.034,1.215-0.616c-0.373-3.487,0.366-11.567,1.11-14.31c-0.372,1.441-0.233,3.534,0.046,4.51
	c1.674,0.651,1.303,2.651,1.303,3.86c0.279-0.838,1.069-1.395,1.767-1.022c0.697,0.371,0.93,1.162,0.418,3.487
	c-0.513,2.326-0.93,3.906-0.651,6.929c-1.488,4.138-1.627,8.37-1.627,8.37C134.565,84.66,133.96,78.847,134.006,77.637z
	 M133.961,101.49c-2.884,1.674-4.836,0.143-4.325-1.811c0.512-1.953,4.558-4.092,9.069-2.791c-4.418-2.138-8.604-0.046-10.696,1.303
	c0.651-1.628,2.837-2.93,3.487-3.07c-0.278-1.07,0.977-1.999,1.953-1.953c-1.395-1.721,0.093-3.952,2.279-3.441
	c2.185,0.511,3.44,3.162,7.3,6.51c3.861,3.349,10.881,7.86,20.973,7.581c10.091-0.279,13.438-5.395,13.205-10.186
	c-0.232-4.789-5.012-5.989-7.384-5.849c3.255-4.139,10.733-1.357,12.222,0.688c0.651-3.114-6.604-9.951-11.394-14.973
	c-4.79-5.022-5.812-8.789-5.998-12.091c3.255,7.766,8.602,11.904,14.647,16.508s8.603,9.717,8.603,14.229
	c0,4.51-2.419,7.486-2.419,7.486s2.28-1.163,3.302,0.652c1.023,1.813-0.278,3.441-4.231,4.928c-3.953,1.49-11.485,1.859-18.136,0.93
	c-6.649-0.93-9.718-1.906-16.321-2.184c-6.604-0.279-9.208,0.883-12.603,0.51C134.1,104.098,133.961,101.49,133.961,101.49z
	 M171.579,76.242c0.837,1.023,1.906,3.953,1.906,8.324c0,0-1.627,0.14-2.649,0.977C171.347,83.497,171.766,78.428,171.579,76.242z
	 M174.09,78.846c4.558,4.373,5.675,7.068,5.675,7.068c-2.093-1.069-3.351-1.255-5.07-1.395
	C174.788,82.38,174.416,80.382,174.09,78.846z M131.199,109.021c0.837-1.209,2.81-3.391,4.019-3.996
	c1.255,0.559,2.324,0.838,3.905,0.746c1.581-0.096,3.953-0.234,4.697-0.096c-0.14,0.373-0.191,0.508-0.191,0.508
	S137.516,105.545,131.199,109.021z M135.59,107.814c1.767-0.465,4.789-0.977,8.137-0.463c1.813,2.184,4.65,1.484,6.976,1.58
	c2.325,0.092,2.883,1.209,2.883,1.209c-3.349-0.465-5.673-0.326-7.766-0.279C145.216,108.42,138.705,107.535,135.59,107.814z
	 M154.05,111.164c-2.417,0.186-23.158,1.068-23.158,1.068C145.726,110.373,151.678,110.791,154.05,111.164z M208.501,52.209
	c0.532,0.482,1.261,1.944,1.492,0.724c0.187-0.974-0.894-1.496-1.759-1.785C207.371,50.859,208.013,51.767,208.501,52.209z"/>
<text transform="matrix(1 0 0 1 175.7273 17.4233)" fill="#999999" font-family="Goudy" font-size="12" style="text-anchor: middle">!cardnumber!</text>
</svg>
