<?xml version="1.0" encoding="UTF-8" standalone="no"?>
<svg
   xmlns:dc="http://purl.org/dc/elements/1.1/"
   xmlns:cc="http://creativecommons.org/ns#"
   xmlns:rdf="http://www.w3.org/1999/02/22-rdf-syntax-ns#"
   xmlns:svg="http://www.w3.org/2000/svg"
   xmlns="http://www.w3.org/2000/svg"
   xmlns:sodipodi="http://sodipodi.sourceforge.net/DTD/sodipodi-0.dtd"
   xmlns:inkscape="http://www.inkscape.org/namespaces/inkscape"
   height="24"
   width="24"
   version="1.1"
   id="svg3732"
   inkscape:version="0.48.4 r9939"
   sodipodi:docname="switch-on.svg">
  <metadata
     id="metadata3766">
    <rdf:RDF>
      <cc:Work
         rdf:about="">
        <dc:format>image/svg+xml</dc:format>
        <dc:type
           rdf:resource="http://purl.org/dc/dcmitype/StillImage" />
      </cc:Work>
    </rdf:RDF>
  </metadata>
  <defs
     id="defs3764" />
  <sodipodi:namedview
     pagecolor="#ffffff"
     bordercolor="#666666"
     borderopacity="1"
     objecttolerance="10"
     gridtolerance="10"
     guidetolerance="10"
     inkscape:pageopacity="0"
     inkscape:pageshadow="2"
     inkscape:window-width="705"
     inkscape:window-height="484"
     id="namedview3762"
     showgrid="false"
     inkscape:zoom="9.8333333"
     inkscape:cx="12"
     inkscape:cy="12"
     inkscape:window-x="1428"
     inkscape:window-y="412"
     inkscape:window-maximized="0"
     inkscape:current-layer="svg3732" />
  <g
     id="g3736"
     transform="translate(0,-1028.4)">
    <path
       style="fill:#95a5a6"
       inkscape:connector-curvature="0"
       id="path3738"
       d="m 17,1034.4 c 3.314,0 6,2.6 6,6 0,3.3 -2.686,6 -6,6 H 12 7 c -3.3137,0 -6,-2.7 -6,-6 0,-3.4 2.6863,-6 6,-6 h 5 5 z" />
    <path
       style="fill:#bdc3c7"
       inkscape:connector-curvature="0"
       id="path3740"
       d="m 17,1033.4 c 3.314,0 6,2.6 6,6 0,3.3 -2.686,6 -6,6 H 12 7 c -3.3137,0 -6,-2.7 -6,-6 0,-3.4 2.6863,-6 6,-6 h 5 5 z" />
    <path
       style="fill:#2ecc71"
       inkscape:connector-curvature="0"
       id="path3742"
       d="m 17,1035.4 c 2.209,0 4,1.8 4,4 0,2.2 -1.791,4 -4,4 H 12 7 c -2.2091,0 -4,-1.8 -4,-4 0,-2.2 1.7909,-4 4,-4 h 5 5 z" />
    <path
       style="fill:#27ae60"
       inkscape:connector-curvature="0"
       id="path3744"
       d="m 17,1035.4 c 2.209,0 4,1.8 4,4 0,0.1 -0.042,0.3 -0.062,0.5 -0.248,-2 -1.899,-3.5 -3.938,-3.5 H 12 7 c -2.039,0 -3.6904,1.5 -3.9375,3.5 C 3.0419,1039.7 3,1039.5 3,1039.4 c 0,-2.2 1.7909,-4 4,-4 h 5 5 z" />
  </g>
  <path
     style="fill:#7f8c8d"
     inkscape:connector-curvature="0"
     id="path3750"
     d="M 11.977,10.3 12,11.5 C 12.04,13.4 10.433,15 8.5,15 H 7 C 4.791,15 3,13.2 3,11 3,10.6 3.074,10.3 3.156,10 z" />
  <path
     style="fill:#ecf0f1"
     inkscape:connector-curvature="0"
     id="path3752"
     d="M 8.5,7 C 10.433,7 12,8.5 12,10.5 12,12.4 10.433,14 8.5,14 h -2 C 4.567,14 3,12.4 3,10.5 3,8.5 4.567,7 6.5,7 h 2 z" />
</svg>
