999
dxfrw 0.5.10
999
last saved by ezdxf 0.8.2 on 2017-05-15 22:20:00
  0
SECTION
  2
HEADER
  9
$ACADVER
  1
AC1021
  9
$HANDSEED
  5
2023A
  9
$DWGCODEPAGE
  3
ANSI_1250
  9
$INSBASE
 10
0.0
 20
0.0
 30
0.0
  9
$EXTMIN
 10
-70597.3620897
 20
-49408.4818994
 30
0.0
  9
$EXTMAX
 10
79535.3824153
 20
89445.6105664
 30
0.0
  9
$LIMMIN
 10
0.0
 20
0.0
  9
$LIMMAX
 10
420.0
 20
297.0
  9
$ORTHOMODE
 70
0
  9
$LTSCALE
 40
1.0
  9
$TEXTSTYLE
  7
standard
  9
$CLAYER
  8
0
  9
$DIMASZ
 40
2.5
  9
$DIMLFAC
 40
1.0
  9
$DIMSCALE
 40
2.5
  9
$DIMEXO
 40
0.625
  9
$DIMEXE
 40
1.25
  9
$DIMTXT
 40
2.5
  9
$DIMTSZ
 40
0.0
  9
$DIMAUNIT
 70
0
  9
$DIMADEC
 70
0
  9
$DIMLUNIT
 70
2
  9
$DIMSTYLE
  2
Standard
  9
$DIMGAP
 40
0.625
  9
$DIMTIH
 70
0
  9
$LUNITS
 70
2
  9
$LUPREC
 70
4
  9
$AUNITS
 70
0
  9
$AUPREC
 70
2
  9
$SPLINESEGS
 70
8
  9
$GRIDMODE
 70
0
  9
$SNAPSTYLE
 70
0
  9
$PINSBASE
 10
0.0
 20
0.0
 30
0.0
  9
$PLIMMIN
 10
-0.700787401575
 20
-0.228346456693
  9
$PLIMMAX
 10
10.2992125984
 20
8.27165354331
  9
$INSUNITS
 70
0
  9
$PSVPSCALE
 40
1.0
  9
$TDUPDATE
 40
2457889.93056
  0
ENDSEC
  0
SECTION
  2
CLASSES
  0
ENDSEC
  0
SECTION
  2
TABLES
  0
TABLE
  2
VPORT
  5
8
330
0
100
AcDbSymbolTable
 70
1
  0
VPORT
  5
31
330
8
100
AcDbSymbolTableRecord
100
AcDbViewportTableRecord
  2
*ACTIVE
 70
0
 10
0.0
 20
0.0
 11
1.0
 21
1.0
 12
1467.53054357
 22
821.379035579
 13
0.0
 23
0.0
 14
10.0
 24
10.0
 15
10.0
 25
10.0
 16
0.0
 26
0.0
 36
1.0
 17
0.0
 27
0.0
 37
0.0
 40
3236.23340018
 41
1.84602368866
 42
50.0
 43
0.0
 44
0.0
 50
0.0
 51
0.0
 71
0
 72
100
 73
1
 74
3
 75
0
 76
0
 77
0
 78
0
281
0
 65
1
110
0.0
120
0.0
130
0.0
111
1.0
121
0.0
131
0.0
112
0.0
122
1.0
132
0.0
 79
0
146
0.0
348
10020
 60
7
 61
5
292
1
282
1
141
0.0
142
0.0
 63
250
421
3358443
  0
ENDTAB
  0
TABLE
  2
LTYPE
  5
5
330
0
100
AcDbSymbolTable
 70
21
  0
LTYPE
  5
14
330
5
100
AcDbSymbolTableRecord
100
AcDbLinetypeTableRecord
  2
ByBlock
 70
0
  3

 72
65
 73
0
 40
0.0
  0
LTYPE
  5
15
330
5
100
AcDbSymbolTableRecord
100
AcDbLinetypeTableRecord
  2
ByLayer
 70
0
  3

 72
65
 73
0
 40
0.0
  0
LTYPE
  5
16
330
5
100
AcDbSymbolTableRecord
100
AcDbLinetypeTableRecord
  2
Continuous
 70
0
  3
Solid line
 72
65
 73
0
 40
0.0
  0
LTYPE
  5
32
330
5
100
AcDbSymbolTableRecord
100
AcDbLinetypeTableRecord
  2
DOT
 70
0
  3
Dot . . . . . . . . . . . . . . . . . . . . . .
 72
65
 73
2
 40
6.35
 49
0.0
 74
0
 49
-6.35
 74
0
  0
LTYPE
  5
33
330
5
100
AcDbSymbolTableRecord
100
AcDbLinetypeTableRecord
  2
DOT2
 70
0
  3
Dot (.5x) .....................................
 72
65
 73
2
 40
3.175
 49
0.0
 74
0
 49
-3.175
 74
0
  0
LTYPE
  5
34
330
5
100
AcDbSymbolTableRecord
100
AcDbLinetypeTableRecord
  2
DOTX2
 70
0
  3
Dot (2x) .  .  .  .  .  .  .  .  .  .  .  .  .
 72
65
 73
2
 40
12.7
 49
0.0
 74
0
 49
-12.7
 74
0
  0
LTYPE
  5
35
330
5
100
AcDbSymbolTableRecord
100
AcDbLinetypeTableRecord
  2
DASHED
 70
0
  3
Dot . . . . . . . . . . . . . . . . . . . . . .
 72
65
 73
2
 40
19.05
 49
12.7
 74
0
 49
-6.35
 74
0
  0
LTYPE
  5
36
330
5
100
AcDbSymbolTableRecord
100
AcDbLinetypeTableRecord
  2
DASHED2
 70
0
  3
Dashed (.5x) _ _ _ _ _ _ _ _ _ _ _ _ _ _ _ _ _
 72
65
 73
2
 40
9.525
 49
6.35
 74
0
 49
-3.175
 74
0
  0
LTYPE
  5
37
330
5
100
AcDbSymbolTableRecord
100
AcDbLinetypeTableRecord
  2
DASHEDX2
 70
0
  3
Dashed (2x) ____  ____  ____  ____  ____  ___
 72
65
 73
2
 40
38.1
 49
25.4
 74
0
 49
-12.7
 74
0
  0
LTYPE
  5
38
330
5
100
AcDbSymbolTableRecord
100
AcDbLinetypeTableRecord
  2
DASHDOT
 70
0
  3
Dash dot __ . __ . __ . __ . __ . __ . __ . __
 72
65
 73
4
 40
25.4
 49
12.7
 74
0
 49
-6.35
 74
0
 49
0.0
 74
0
 49
-6.35
 74
0
  0
LTYPE
  5
39
330
5
100
AcDbSymbolTableRecord
100
AcDbLinetypeTableRecord
  2
DASHDOT2
 70
0
  3
Dash dot (.5x) _._._._._._._._._._._._._._._.
 72
65
 73
4
 40
12.7
 49
6.35
 74
0
 49
-3.175
 74
0
 49
0.0
 74
0
 49
-3.175
 74
0
  0
LTYPE
  5
3A
330
5
100
AcDbSymbolTableRecord
100
AcDbLinetypeTableRecord
  2
DASHDOTX2
 70
0
  3
Dash dot (2x) ____  .  ____  .  ____  .  ___
 72
65
 73
4
 40
50.8
 49
25.4
 74
0
 49
-12.7
 74
0
 49
0.0
 74
0
 49
-12.7
 74
0
  0
LTYPE
  5
3B
330
5
100
AcDbSymbolTableRecord
100
AcDbLinetypeTableRecord
  2
DIVIDE
 70
0
  3
Divide ____ . . ____ . . ____ . . ____ . . ____
 72
65
 73
6
 40
31.75
 49
12.7
 74
0
 49
-6.35
 74
0
 49
0.0
 74
0
 49
-6.35
 74
0
 49
0.0
 74
0
 49
-6.35
 74
0
  0
LTYPE
  5
3C
330
5
100
AcDbSymbolTableRecord
100
AcDbLinetypeTableRecord
  2
DIVIDE2
 70
0
  3
Divide (.5x) __..__..__..__..__..__..__..__.._
 72
65
 73
6
 40
15.875
 49
6.35
 74
0
 49
-3.175
 74
0
 49
0.0
 74
0
 49
-3.175
 74
0
 49
0.0
 74
0
 49
-3.175
 74
0
  0
LTYPE
  5
3D
330
5
100
AcDbSymbolTableRecord
100
AcDbLinetypeTableRecord
  2
DIVIDEX2
 70
0
  3
Divide (2x) ________  .  .  ________  .  .  _
 72
65
 73
6
 40
63.5
 49
25.4
 74
0
 49
-12.7
 74
0
 49
0.0
 74
0
 49
-12.7
 74
0
 49
0.0
 74
0
 49
-12.7
 74
0
  0
LTYPE
  5
3E
330
5
100
AcDbSymbolTableRecord
100
AcDbLinetypeTableRecord
  2
BORDER
 70
0
  3
Border __ __ . __ __ . __ __ . __ __ . __ __ .
 72
65
 73
6
 40
44.45
 49
12.7
 74
0
 49
-6.35
 74
0
 49
12.7
 74
0
 49
-6.35
 74
0
 49
0.0
 74
0
 49
-6.35
 74
0
  0
LTYPE
  5
3F
330
5
100
AcDbSymbolTableRecord
100
AcDbLinetypeTableRecord
  2
BORDER2
 70
0
  3
Border (.5x) __.__.__.__.__.__.__.__.__.__.__.
 72
65
 73
6
 40
22.225
 49
6.35
 74
0
 49
-3.175
 74
0
 49
6.35
 74
0
 49
-3.175
 74
0
 49
0.0
 74
0
 49
-3.175
 74
0
  0
LTYPE
  5
40
330
5
100
AcDbSymbolTableRecord
100
AcDbLinetypeTableRecord
  2
BORDERX2
 70
0
  3
Border (2x) ____  ____  .  ____  ____  .  ___
 72
65
 73
6
 40
88.9
 49
25.4
 74
0
 49
-12.7
 74
0
 49
25.4
 74
0
 49
-12.7
 74
0
 49
0.0
 74
0
 49
-12.7
 74
0
  0
LTYPE
  5
41
330
5
100
AcDbSymbolTableRecord
100
AcDbLinetypeTableRecord
  2
CENTER
 70
0
  3
Center ____ _ ____ _ ____ _ ____ _ ____ _ ____
 72
65
 73
4
 40
50.8
 49
31.75
 74
0
 49
-6.35
 74
0
 49
6.35
 74
0
 49
-6.35
 74
0
  0
LTYPE
  5
42
330
5
100
AcDbSymbolTableRecord
100
AcDbLinetypeTableRecord
  2
CENTER2
 70
0
  3
Center (.5x) ___ _ ___ _ ___ _ ___ _ ___ _ ___
 72
65
 73
4
 40
28.575
 49
19.05
 74
0
 49
-3.175
 74
0
 49
3.175
 74
0
 49
-3.175
 74
0
  0
LTYPE
  5
43
330
5
100
AcDbSymbolTableRecord
100
AcDbLinetypeTableRecord
  2
CENTERX2
 70
0
  3
Center (2x) ________  __  ________  __  _____
 72
65
 73
4
 40
101.6
 49
63.5
 74
0
 49
-12.7
 74
0
 49
12.7
 74
0
 49
-12.7
 74
0
  0
ENDTAB
  0
TABLE
  2
LAYER
  5
2
330
0
100
AcDbSymbolTable
 70
12
  0
LAYER
  5
10
330
2
100
AcDbSymbolTableRecord
100
AcDbLayerTableRecord
  2
0
 70
0
 62
7
  6
CONTINUOUS
370
0
390
F
  0
LAYER
  5
44
330
2
100
AcDbSymbolTableRecord
100
AcDbLayerTableRecord
  2
noname
 70
0
 62
7
  6
CONTINUOUS
370
0
390
F
  0
LAYER
  5
45
330
2
100
AcDbSymbolTableRecord
100
AcDbLayerTableRecord
  2
DS_CTEXT
 70
0
 62
2
  6
CONTINUOUS
370
0
390
F
  0
LAYER
  5
46
330
2
100
AcDbSymbolTableRecord
100
AcDbLayerTableRecord
  2
DS_CBAR
 70
0
 62
4
  6
CONTINUOUS
370
0
390
F
  0
LAYER
  5
47
330
2
100
AcDbSymbolTableRecord
100
AcDbLayerTableRecord
  2
DS_DEPLINE
 70
0
 62
57
  6
CONTINUOUS
370
0
390
F
  0
LAYER
  5
48
330
2
100
AcDbSymbolTableRecord
100
AcDbLayerTableRecord
  2
DS_RANGE
 70
0
 62
101
  6
CONTINUOUS
370
0
390
F
  0
LAYER
  5
49
330
2
100
AcDbSymbolTableRecord
100
AcDbLayerTableRecord
  2
DS_ELEMENT
 70
0
 62
235
  6
CONTINUOUS
370
0
390
F
  0
LAYER
  5
4A
330
2
100
AcDbSymbolTableRecord
100
AcDbLayerTableRecord
  2
DS_DATA
 70
0
 62
160
  6
CONTINUOUS
370
0
390
F
  0
LAYER
  5
4B
330
2
100
AcDbSymbolTableRecord
100
AcDbLayerTableRecord
  2
DS_COMMAND
 70
0
 62
230
  6
CONTINUOUS
370
0
390
F
  0
LAYER
  5
4C
330
2
100
AcDbSymbolTableRecord
100
AcDbLayerTableRecord
  2
Defpoints
 70
0
 62
7
  6
CONTINUOUS
290
0
370
-3
390
F
  0
LAYER
  5
4D
330
2
100
AcDbSymbolTableRecord
100
AcDbLayerTableRecord
  2
DS_TMPCHECK
 70
0
 62
224
  6
CONTINUOUS
370
0
390
F
  0
LAYER
  5
4E
330
2
100
AcDbSymbolTableRecord
100
AcDbLayerTableRecord
  2
DS_SCHEDULE
 70
0
 62
54
  6
CONTINUOUS
370
0
390
F
  0
ENDTAB
  0
TABLE
  2
STYLE
  5
3
330
0
100
AcDbSymbolTable
 70
1
  0
STYLE
  5
4F
330
3
100
AcDbSymbolTableRecord
100
AcDbTextStyleTableRecord
  2
standard
 70
0
 40
0.0
 41
1.0
 50
0.0
 71
0
 42
1.0
  3
standard
  4

  0
ENDTAB
  0
TABLE
  2
VIEW
  5
6
330
0
100
AcDbSymbolTable
 70
0
  0
ENDTAB
  0
TABLE
  2
UCS
  5
7
330
0
100
AcDbSymbolTable
 70
0
  0
ENDTAB
  0
TABLE
  2
APPID
  5
9
330
0
100
AcDbSymbolTable
 70
3
  0
APPID
  5
12
330
9
100
AcDbSymbolTableRecord
100
AcDbRegAppTableRecord
  2
ACAD
 70
0
  0
APPID
  5
2000D
330
9
100
AcDbSymbolTableRecord
100
AcDbRegAppTableRecord
  2
DXF_STRUCTURE
 70
0
  0
APPID
  5
20010
330
9
100
AcDbSymbolTableRecord
100
AcDbRegAppTableRecord
  2
HATCHBACKGROUNDCOLOR
 70
0
  0
ENDTAB
  0
TABLE
  2
DIMSTYLE
  5
A
330
0
100
AcDbSymbolTable
 70
1
100
AcDbDimStyleTable
 71
1
  0
DIMSTYLE
105
50
330
A
100
AcDbSymbolTableRecord
100
AcDbDimStyleTableRecord
  2
Standard
 70
0
 40
1.0
 41
2.5
 42
0.625
 43
0.38
 44
1.25
 45
0.0
 46
0.0
 47
0.0
 48
0.0
140
2.5
141
0.09
142
0.0
143
25.4
144
1.0
145
0.0
146
1.0
147
0.625
148
0.0
 71
0
 72
0
 73
0
 74
1
 75
0
 76
0
 77
0
 78
0
 79
0
170
0
171
2
172
0
173
0
174
0
175
0
176
0
177
0
178
0
179
0
271
4
272
4
273
2
274
2
275
0
276
0
277
2
278
46
279
0
280
0
281
0
282
0
283
1
284
0
285
0
286
0
288
0
289
3
340
Standard
341

371
-2
372
-2
  0
ENDTAB
  0
TABLE
  2
BLOCK_RECORD
  5
1
330
0
100
AcDbSymbolTable
 70
2
  0
BLOCK_RECORD
  5
1F
330
1
100
AcDbSymbolTableRecord
100
AcDbBlockTableRecord
  2
*Model_Space
 70
0
280
1
281
0
340
2000B
  0
BLOCK_RECORD
  5
1E
330
1
100
AcDbSymbolTableRecord
100
AcDbBlockTableRecord
  2
*Paper_Space
 70
0
280
1
281
0
340
2000C
  0
ENDTAB
  0
ENDSEC
  0
SECTION
  2
BLOCKS
  0
BLOCK
  5
20
330
1F
100
AcDbEntity
  8
0
100
AcDbBlockBegin
  2
*Model_Space
 70
0
 10
0.0
 20
0.0
 30
0.0
  3
*Model_Space
  1

  0
ENDBLK
  5
21
330
1F
100
AcDbEntity
  8
0
100
AcDbBlockEnd
  0
BLOCK
  5
1C
330
1E
100
AcDbEntity
  8
0
100
AcDbBlockBegin
  2
*Paper_Space
 70
0
 10
0.0
 20
0.0
 30
0.0
  3
*Paper_Space
  1

  0
ENDBLK
  5
1D
330
1E
100
AcDbEntity
  8
0
100
AcDbBlockEnd
  0
ENDSEC
  0
SECTION
  2
ENTITIES
  0
TEXT
  5
51
330
1F
100
AcDbEntity
  8
DS_COMMAND
  6
CONTINUOUS
 62
256
370
-1
100
AcDbText
 10
71970.4090273
 20
26333.4617037
 30
0.0
 40
250.0
  1
draw column
 50
0.0
 41
1.0
 51
0.0
  7
standard
 71
0
210
0.0
220
0.0
230
1.0
100
AcDbText
  0
TEXT
  5
52
330
1F
100
AcDbEntity
  8
DS_DATA
  6
CONTINUOUS
 62
256
370
-1
100
AcDbText
 10
77479.8268597
 20
26072.3197459
 30
0.0
 40
250.0
  1
DWG_TITLE: 
 50
0.0
 41
1.0
 51
0.0
  7
standard
 71
0
210
0.0
220
0.0
230
1.0
100
AcDbText
  0
TEXT
  5
53
330
1F
100
AcDbEntity
  8
DS_DATA
  6
CONTINUOUS
 62
256
370
-1
100
AcDbText
 10
77479.8268597
 20
25621.2661188
 30
0.0
 40
250.0
  1
DWG_DATE: 
 50
0.0
 41
1.0
 51
0.0
  7
standard
 71
0
210
0.0
220
0.0
230
1.0
100
AcDbText
  0
TEXT
  5
54
330
1F
100
AcDbEntity
  8
DS_DATA
  6
CONTINUOUS
 62
256
370
-1
100
AcDbText
 10
77479.8268597
 20
25172.5742647
 30
0.0
 40
250.0
  1
OBJECT: 
 50
0.0
 41
1.0
 51
0.0
  7
standard
 71
0
210
0.0
220
0.0
230
1.0
100
AcDbText
  0
LINE
  5
55
330
1F
100
AcDbEntity
  8
0
  6
CONTINUOUS
 62
256
370
-1
100
AcDbLine
 10
-2955.9763524
 20
3633.27677694
 11
-2945.9763524
 21
3633.27677694
  0
LINE
  5
56
330
1F
100
AcDbEntity
  8
0
  6
CONTINUOUS
 62
256
370
-1
100
AcDbLine
 10
-2955.9763524
 20
3633.27677694
 11
-2955.9763524
 21
3643.27677694
  0
LINE
  5
57
330
1F
100
AcDbEntity
  8
0
  6
CONTINUOUS
 62
256
370
-1
100
AcDbLine
 10
-2955.9763524
 20
3633.27677694
 11
-2954.9763524
 21
3639.27677694
  0
LINE
  5
58
330
1F
100
AcDbEntity
  8
0
  6
CONTINUOUS
 62
256
370
-1
100
AcDbLine
 10
-2955.9763524
 20
3633.27677694
 11
-2955.9763524
 21
3634.27677694
  0
LINE
  5
59
330
1F
100
AcDbEntity
  8
0
  6
CONTINUOUS
 62
256
370
-1
100
AcDbLine
 10
-2955.9763524
 20
3638.27677694
 11
-2952.9763524
 21
3634.27677694
  0
CIRCLE
  5
5A
330
1F
100
AcDbEntity
  8
0
  6
CONTINUOUS
 62
256
370
-1
100
AcDbCircle
 10
-2954.9763524
 20
3635.27677694
 40
0.0897109686041
  0
TEXT
  5
5B
330
1F
100
AcDbEntity
  8
0
  6
CONTINUOUS
 62
256
370
-1
100
AcDbText
 10
-2954.92421434
 20
3637.31765048
 30
0.0
 40
0.443715500965
  1
l2
 50
0.0
 41
1.0
 51
0.0
  7
standard
 71
0
210
0.0
220
0.0
230
1.0
100
AcDbText
  0
TEXT
  5
5C
330
1F
100
AcDbEntity
  8
0
  6
CONTINUOUS
 62
256
370
-1
100
AcDbText
 10
-2955.58496487
 20
3635.25152021
 30
0.0
 40
0.443715500965
  1
p
 50
0.0
 41
1.0
 51
0.0
  7
standard
 71
0
210
0.0
220
0.0
230
1.0
100
AcDbText
  0
LWPOLYLINE
  5
5D
330
1F
100
AcDbEntity
  8
0
  6
CONTINUOUS
 62
5
370
-1
100
AcDbPolyline
 90
3
 70
0
 43
0.0
 10
-2952.9763524
 20
3644.27677694
 10
-2952.9763524
 20
3636.27677694
 10
-2949.9763524
 20
3636.27677694
  0
LWPOLYLINE
  5
5E
330
1F
100
AcDbEntity
  8
0
  6
CONTINUOUS
 62
5
370
-1
100
AcDbPolyline
 90
3
 70
0
 43
0.0
 10
-2958.9763524
 20
3634.27677694
 10
-2949.9763524
 20
3640.27677694
 10
-2953.9763524
 20
3642.27677694
  0
TEXT
  5
5F
330
1F
100
AcDbEntity
  8
0
  6
CONTINUOUS
 62
5
370
-1
100
AcDbText
 10
-2951.43714044
 20
3638.65996669
 30
0.0
 40
0.443715500965
  1
pline1
 50
0.0
 41
1.0
 51
0.0
  7
standard
 71
0
210
0.0
220
0.0
230
1.0
100
AcDbText
  0
TEXT
  5
60
330
1F
100
AcDbEntity
  8
0
  6
CONTINUOUS
 62
5
370
-1
100
AcDbText
 10
-2953.77381627
 20
3640.83905223
 30
0.0
 40
0.443715500965
  1
pline2
 50
0.0
 41
1.0
 51
0.0
  7
standard
 71
0
210
0.0
220
0.0
230
1.0
100
AcDbText
  0
LWPOLYLINE
  5
61
330
1F
100
AcDbEntity
  8
0
  6
CONTINUOUS
 62
256
370
-1
100
AcDbPolyline
 90
4
 70
1
 43
0.0
 10
-2959.9763524
 20
3634.27677694
 10
-2947.9763524
 20
3634.27677694
 10
-2947.9763524
 20
3643.27677694
 10
-2959.9763524
 20
3643.27677694
  0
TEXT
  5
62
330
1F
100
AcDbEntity
  8
0
  6
CONTINUOUS
 62
5
370
-1
100
AcDbText
 10
-2959.6046306
 20
3643.5577595
 30
0.0
 40
0.443715500965
  1
rect
 50
0.0
 41
1.0
 51
0.0
  7
standard
 71
0
210
0.0
220
0.0
230
1.0
100
AcDbText
  0
LWPOLYLINE
  5
63
330
1F
100
AcDbEntity
  8
DS_CBAR
  6
ByLayer
 62
256
370
-1
100
AcDbPolyline
 90
3
 70
0
 43
0.0
 10
5175.27497076
 20
35907.3920282
 10
11621.040377
 20
35907.3920282
 10
11621.040377
 20
36655.0728994
  0
TEXT
  5
64
330
1F
100
AcDbEntity
  8
0
  6
CONTINUOUS
 62
256
370
-1
100
AcDbText
 10
-7877.97940154
 20
13792.5263803
 30
0.0
 40
250.0
  1
20#10-[5]-200T
 50
0.0
 41
1.0
 51
0.0
  7
standard
 71
0
210
0.0
220
0.0
230
1.0
100
AcDbText
  0
TEXT
  5
65
330
1F
100
AcDbEntity
  8
DS_COMMAND
  6
CONTINUOUS
 62
256
370
-1
100
AcDbText
 10
74995.5437904
 20
22467.9344974
 30
0.0
 40
250.0
  1
here draw schedule
 50
0.0
 41
1.0
 51
0.0
  7
standard
 71
0
210
0.0
220
0.0
230
1.0
100
AcDbText
  0
LWPOLYLINE
  5
66
330
1F
100
AcDbEntity
  8
DS_ELEMENT
  6
CONTINUOUS
 62
256
370
-1
100
AcDbPolyline
 90
4
 70
1
 43
0.0
 10
-9652.20486885
 20
46760.196193
 10
23523.5668276
 20
46760.196193
 10
23523.5668276
 20
23972.6276828
 10
-9652.20486885
 20
23972.6276828
  0
TEXT
  5
67
330
1F
100
AcDbEntity
  8
DS_ELEMENT
  6
CONTINUOUS
 62
256
370
-1
100
AcDbText
 10
-8956.66826815
 20
45735.3257469
 30
0.0
 40
250.0
  1
Element Bk1 x 5
 50
0.0
 41
1.0
 51
0.0
  7
standard
 71
0
210
0.0
220
0.0
230
1.0
100
AcDbText
  0
LWPOLYLINE
  5
68
330
1F
100
AcDbEntity
  8
DS_CBAR
  6
ByLayer
 62
256
370
-1
100
AcDbPolyline
 90
3
 70
0
 43
0.0
 10
-6773.77278628
 20
42975.8551734
 10
-328.007380036
 20
42975.8551734
 10
-328.007380036
 20
43723.5360446
  0
TEXT
  5
69
330
1F
100
AcDbEntity
  8
DS_CTEXT
  6
ByLayer
 62
256
370
-1
100
AcDbText
 10
6117.8858916
 20
36051.5909987
 30
0.0
 40
250.0
  1
20#10-[19]-200T
 50
0.0
 41
1.0
 51
0.0
  7
standard
 71
0
210
0.0
220
0.0
230
1.0
100
AcDbText
1001
DXF_STRUCTURE
1000
DE344D9039AB11E78473
  0
TEXT
  5
6A
330
1F
100
AcDbEntity
  8
DS_CTEXT
  6
ByLayer
 62
256
370
-1
100
AcDbText
 10
-5151.46425291
 20
43120.0541439
 30
0.0
 40
250.0
  1
5#10-[19]-200T
 50
0.0
 41
1.0
 51
0.0
  7
standard
 71
0
210
0.0
220
0.0
230
1.0
100
AcDbText
1001
DXF_STRUCTURE
1000
DE344D9239AB11E7B86D
  0
LWPOLYLINE
  5
6B
330
1F
100
AcDbEntity
  8
DS_CBAR
  6
ByLayer
 62
256
370
-1
100
AcDbPolyline
 90
3
 70
0
 43
0.0
 10
6263.27373687
 20
38534.0534052
 10
12709.0391431
 20
38534.0534052
 10
12709.0391431
 20
39281.7342764
  0
TEXT
  5
6C
330
1F
100
AcDbEntity
  8
DS_CTEXT
  6
ByLayer
 62
256
370
-1
100
AcDbText
 10
7205.88465771
 20
38678.2523757
 30
0.0
 40
250.0
  1
20#10-[19]-200T
 50
0.0
 41
1.0
 51
0.0
  7
standard
 71
0
210
0.0
220
0.0
230
1.0
100
AcDbText
1001
DXF_STRUCTURE
1000
DE344D9439AB11E78A6E
  0
LWPOLYLINE
  5
6D
330
1F
100
AcDbEntity
  8
DS_CBAR
  6
ByLayer
 62
256
370
-1
100
AcDbPolyline
 90
3
 70
0
 43
0.0
 10
6405.80840308
 20
40073.237494
 10
12851.5738093
 20
40073.237494
 10
12851.5738093
 20
40820.9183652
  0
TEXT
  5
6E
330
1F
100
AcDbEntity
  8
DS_CTEXT
  6
ByLayer
 62
256
370
-1
100
AcDbText
 10
7348.41932392
 20
40217.4364645
 30
0.0
 40
250.0
  1
20#10-[19]-200T
 50
0.0
 41
1.0
 51
0.0
  7
standard
 71
0
210
0.0
220
0.0
230
1.0
100
AcDbText
1001
DXF_STRUCTURE
1000
DE344D9639AB11E780B3
  0
LWPOLYLINE
  5
6F
330
1F
100
AcDbEntity
  8
DS_CBAR
  6
ByLayer
 62
256
370
-1
100
AcDbPolyline
 90
3
 70
0
 43
0.0
 10
6197.52576552
 20
41183.29505
 10
12643.2911718
 20
41183.29505
 10
12643.2911718
 20
41930.9759212
  0
TEXT
  5
70
330
1F
100
AcDbEntity
  8
DS_CTEXT
  6
ByLayer
 62
256
370
-1
100
AcDbText
 10
7140.13668636
 20
41327.4940205
 30
0.0
 40
250.0
  1
20#10-[19]-200T
 50
0.0
 41
1.0
 51
0.0
  7
standard
 71
0
210
0.0
220
0.0
230
1.0
100
AcDbText
1001
DXF_STRUCTURE
1000
DE344D9839AB11E78E41
  0
LWPOLYLINE
  5
71
330
1F
100
AcDbEntity
  8
DS_CBAR
  6
ByLayer
 62
256
370
-1
100
AcDbPolyline
 90
3
 70
0
 43
0.0
 10
6336.38085722
 20
42397.4205019
 10
12782.1462635
 20
42397.4205019
 10
12782.1462635
 20
43145.1013731
  0
TEXT
  5
72
330
1F
100
AcDbEntity
  8
DS_CTEXT
  6
ByLayer
 62
256
370
-1
100
AcDbText
 10
7278.99177806
 20
42541.6194724
 30
0.0
 40
250.0
  1
20#10-[19]-200T
 50
0.0
 41
1.0
 51
0.0
  7
standard
 71
0
210
0.0
220
0.0
230
1.0
100
AcDbText
1001
DXF_STRUCTURE
1000
DE344D9A39AB11E7B9E8
  0
LWPOLYLINE
  5
73
330
1F
100
AcDbEntity
  8
DS_CBAR
  6
ByLayer
 62
256
370
-1
100
AcDbPolyline
 90
3
 70
0
 43
0.0
 10
6371.09463015
 20
43576.8568186
 10
12816.8600364
 20
43576.8568186
 10
12816.8600364
 20
44324.5376898
  0
TEXT
  5
74
330
1F
100
AcDbEntity
  8
DS_CTEXT
  6
ByLayer
 62
256
370
-1
100
AcDbText
 10
7313.70555099
 20
43721.0557891
 30
0.0
 40
250.0
  1
20#10-[19]-200T
 50
0.0
 41
1.0
 51
0.0
  7
standard
 71
0
210
0.0
220
0.0
230
1.0
100
AcDbText
1001
DXF_STRUCTURE
1000
DE344D9C39AB11E7B4E0
  0
LWPOLYLINE
  5
75
330
1F
100
AcDbEntity
  8
DS_CBAR
  6
ByLayer
 62
256
370
-1
100
AcDbPolyline
 90
3
 70
0
 43
0.0
 10
6371.09463015
 20
44478.7785828
 10
12816.8600364
 20
44478.7785828
 10
12816.8600364
 20
45226.459454
  0
TEXT
  5
76
330
1F
100
AcDbEntity
  8
DS_CTEXT
  6
ByLayer
 62
256
370
-1
100
AcDbText
 10
7313.70555099
 20
44622.9775533
 30
0.0
 40
250.0
  1
20#10-[19]-200T
 50
0.0
 41
1.0
 51
0.0
  7
standard
 71
0
210
0.0
220
0.0
230
1.0
100
AcDbText
1001
DXF_STRUCTURE
1000
DE344D9E39AB11E7ACA6
  0
LWPOLYLINE
  5
77
330
1F
100
AcDbEntity
  8
DS_CBAR
  6
ByLayer
 62
256
370
-1
100
AcDbPolyline
 90
6
 70
0
 43
0.0
 10
-5440.21917934
 20
37549.0253605
 10
-3352.39223174
 20
37549.0253605
 10
-2249.57587898
 20
36446.2090077
 10
666.374929432
 20
36446.2090077
 10
1824.01469114
 20
37603.8487694
 10
3557.49357258
 20
37603.8487694
  0
TEXT
  5
78
330
1F
100
AcDbEntity
  8
DS_CTEXT
  6
ByLayer
 62
256
370
-1
100
AcDbText
 10
1905.71666921
 20
37726.2498765
 30
0.0
 40
250.0
  1
5#10-[8]-200T
 50
0.0
 41
1.0
 51
0.0
  7
standard
 71
0
210
0.0
220
0.0
230
1.0
100
AcDbText
1001
DXF_STRUCTURE
1000
DE344DA039AB11E7ABE8
  0
LWPOLYLINE
  5
79
330
1F
100
AcDbEntity
  8
DS_CBAR
  6
ByLayer
 62
256
370
-1
100
AcDbPolyline
 90
3
 70
0
 43
0.0
 10
5172.27497076
 20
33627.4032893
 10
11621.040377
 20
33627.4032893
 10
11621.040377
 20
34375.0841605
  0
TEXT
  5
7A
330
1F
100
AcDbEntity
  8
DS_CTEXT
  6
ByLayer
 62
256
370
-1
100
AcDbText
 10
6117.8858916
 20
33771.6022598
 30
0.0
 40
250.0
  1
20#10-[16]-200T
 50
0.0
 41
1.0
 51
0.0
  7
standard
 71
0
210
0.0
220
0.0
230
1.0
100
AcDbText
1001
DXF_STRUCTURE
1000
DE344DA239AB11E783B7
  0
LWPOLYLINE
  5
7B
330
1F
100
AcDbEntity
  8
DS_CBAR
  6
ByLayer
 62
256
370
-1
100
AcDbPolyline
 90
3
 70
0
 43
0.0
 10
-70042.371422
 20
65230.4313629
 10
-62131.4194632
 20
65230.4313629
 10
-62131.4194632
 20
65978.1122341
  0
TEXT
  5
7C
330
1F
100
AcDbEntity
  8
DS_CTEXT
  6
ByLayer
 62
256
370
-1
100
AcDbText
 10
-67634.5739486
 20
65374.6303334
 30
0.0
 40
250.0
  1
20#10-[12]-200T
 50
0.0
 41
1.0
 51
0.0
  7
standard
 71
0
210
0.0
220
0.0
230
1.0
100
AcDbText
1001
DXF_STRUCTURE
1000
DE344DA439AB11E7A94A
  0
LWPOLYLINE
  5
7D
330
1F
100
AcDbEntity
  8
DS_CBAR
  6
ByLayer
 62
256
370
-1
100
AcDbPolyline
 90
3
 70
0
 43
0.0
 10
-70597.3620897
 20
67161.8826812
 10
-63270.1179016
 20
70196.9265987
 10
-63556.2429837
 20
70887.6936524
  0
TEXT
  5
7E
330
1F
100
AcDbEntity
  8
DS_CTEXT
  6
ByLayer
 62
256
370
-1
100
AcDbText
 10
-68409.5522519
 20
68224.1830288
 30
0.0
 40
250.0
  1
20#10-[11]-200T
 50
22.5000000001
 41
1.0
 51
0.0
  7
standard
 71
0
210
0.0
220
0.0
230
1.0
100
AcDbText
1001
DXF_STRUCTURE
1000
DE344DA639AB11E7ADBC
  0
LWPOLYLINE
  5
7F
330
1F
100
AcDbEntity
  8
DS_CBAR
  6
ByLayer
 62
256
370
-1
100
AcDbPolyline
 90
3
 70
0
 43
0.0
 10
14483.5605628
 20
39127.6345379
 10
20969.3259691
 20
39127.6345379
 10
20969.3259691
 20
39875.3154091
  0
TEXT
  5
80
330
1F
100
AcDbEntity
  8
DS_CTEXT
  6
ByLayer
 62
256
370
-1
100
AcDbText
 10
15426.1714836
 20
39271.8335084
 30
0.0
 40
250.0
  1
20#10-[17]-200T
 50
0.0
 41
1.0
 51
0.0
  7
standard
 71
0
210
0.0
220
0.0
230
1.0
100
AcDbText
1001
DXF_STRUCTURE
1000
DE344DA839AB11E7B50B
  0
LWPOLYLINE
  5
81
330
1F
100
AcDbEntity
  8
DS_CBAR
  6
ByLayer
 62
256
370
-1
100
AcDbPolyline
 90
3
 70
0
 43
0.0
 10
14483.5605628
 20
40029.5563021
 10
20969.3259691
 20
40029.5563021
 10
20969.3259691
 20
40777.2371733
  0
TEXT
  5
82
330
1F
100
AcDbEntity
  8
DS_CTEXT
  6
ByLayer
 62
256
370
-1
100
AcDbText
 10
15426.1714836
 20
40173.7552726
 30
0.0
 40
250.0
  1
20#10-[17]-200T
 50
0.0
 41
1.0
 51
0.0
  7
standard
 71
0
210
0.0
220
0.0
230
1.0
100
AcDbText
1001
DXF_STRUCTURE
1000
DE344DAA39AB11E7A48E
  0
LWPOLYLINE
  5
83
330
1F
100
AcDbEntity
  8
DS_CBAR
  6
ByLayer
 62
256
370
-1
100
AcDbPolyline
 90
6
 70
0
 43
0.0
 10
-6125.17251021
 20
33953.5675075
 10
-4037.34556261
 20
33953.5675075
 10
-2954.52920985
 20
32850.7511547
 10
-18.5784014421
 20
32850.7511547
 10
1139.06136027
 20
34008.3909164
 10
2872.54024171
 20
34008.3909164
  0
TEXT
  5
84
330
1F
100
AcDbEntity
  8
DS_CTEXT
  6
ByLayer
 62
256
370
-1
100
AcDbText
 10
1220.76333834
 20
34130.7920235
 30
0.0
 40
250.0
  1
5#10-[7]-200T
 50
0.0
 41
1.0
 51
0.0
  7
standard
 71
0
210
0.0
220
0.0
230
1.0
100
AcDbText
1001
DXF_STRUCTURE
1000
DE344DAC39AB11E78926
  0
LWPOLYLINE
  5
85
330
1F
100
AcDbEntity
  8
DS_RANGE
  6
CONTINUOUS
 62
256
370
-1
100
AcDbPolyline
 90
2
 70
0
 43
0.0
 10
-6767.61787651
 20
65573.2249864
 10
20069.4501378
 20
48326.9869223
  0
CIRCLE
  5
86
330
1F
100
AcDbEntity
  8
DS_RANGE
  6
CONTINUOUS
 62
256
370
-1
100
AcDbCircle
 10
258.52164948
 20
61058.0344718
 40
235.702342431
  0
LWPOLYLINE
  5
87
330
1F
100
AcDbEntity
  8
DS_CBAR
  6
ByLayer
 62
256
370
-1
100
AcDbPolyline
 90
4
 70
0
 43
0.0
 10
-12198.4491957
 20
51563.4280405
 10
-12198.4491957
 20
53139.5677882
 10
-5752.68378946
 20
53139.5677882
 10
-5752.68378946
 20
54786.2941138
  0
TEXT
  5
88
330
1F
100
AcDbEntity
  8
DS_CTEXT
  6
ByLayer
 62
256
370
-1
100
AcDbText
 10
-9245.71561863
 20
53196.8548658
 30
0.0
 40
250.0
  1
47#10-[9]-200
 50
0.0
 41
1.0
 51
0.0
  7
standard
 71
0
210
0.0
220
0.0
230
1.0
100
AcDbText
1001
DXF_STRUCTURE
1000
DE344DAE39AB11E7B0C0
  0
CIRCLE
  5
89
330
1F
100
AcDbEntity
  8
DS_RANGE
  6
CONTINUOUS
 62
256
370
-1
100
AcDbCircle
 10
-9645.5833281
 20
53139.5677882
 40
102.954384869
  0
LWPOLYLINE
  5
8A
330
1F
100
AcDbEntity
  8
DS_ELEMENT
  6
CONTINUOUS
 62
256
370
-1
100
AcDbPolyline
 90
4
 70
1
 43
0.0
 10
-30673.0934256
 20
58991.5023924
 10
-3355.37017541
 20
58991.5023924
 10
-3355.37017541
 20
48051.186629
 10
-30673.0934256
 20
48051.186629
  0
TEXT
  5
8B
330
1F
100
AcDbEntity
  8
DS_ELEMENT
  6
CONTINUOUS
 62
256
370
-1
100
AcDbText
 10
-13250.5217748
 20
57966.6319463
 30
0.0
 40
250.0
  1
Element slup3 x 10
 50
0.0
 41
1.0
 51
0.0
  7
standard
 71
0
210
0.0
220
0.0
230
1.0
100
AcDbText
  0
LWPOLYLINE
  5
8C
330
1F
100
AcDbEntity
  8
DS_CBAR
  6
ByLayer
 62
256
370
-1
100
AcDbPolyline
 90
4
 70
0
 43
0.0
 10
-12198.4491957
 20
54348.1886427
 10
-12198.4491957
 20
53803.2338062
 10
-5752.68378946
 20
53803.2338062
 10
-5752.68378946
 20
55449.9601318
  0
TEXT
  5
8D
330
1F
100
AcDbEntity
  8
DS_CTEXT
  6
ByLayer
 62
256
370
-1
100
AcDbText
 10
-9245.71561863
 20
53860.5208838
 30
0.0
 40
250.0
  1
47#10-[13]-200DG
 50
0.0
 41
1.0
 51
0.0
  7
standard
 71
0
210
0.0
220
0.0
230
1.0
100
AcDbText
1001
DXF_STRUCTURE
1000
DE344DB039AB11E7A0D8
  0
CIRCLE
  5
8E
330
1F
100
AcDbEntity
  8
DS_RANGE
  6
CONTINUOUS
 62
256
370
-1
100
AcDbCircle
 10
-9645.5833281
 20
53803.2338062
 40
102.954384869
  0
LWPOLYLINE
  5
8F
330
1F
100
AcDbEntity
  8
DS_CBAR
  6
ByLayer
 62
256
370
-1
100
AcDbPolyline
 90
4
 70
0
 43
0.0
 10
-20885.9362547
 20
51941.1994187
 10
-21051.1783727
 20
52460.4978072
 10
-14908.8792983
 20
54414.9935869
 10
-14409.5561845
 20
52845.7950592
  0
TEXT
  5
90
330
1F
100
AcDbEntity
  8
DS_CTEXT
  6
ByLayer
 62
256
370
-1
100
AcDbText
 10
-18254.830037
 20
53410.4206314
 30
0.0
 40
250.0
  1
ASAAASAD
 50
17.651207528
 41
1.0
 51
0.0
  7
standard
 71
0
210
0.0
220
0.0
230
1.0
100
AcDbText
1001
DXF_STRUCTURE
1000
DE344DB239AB11E7B422
  0
CIRCLE
  5
91
330
1F
100
AcDbEntity
  8
DS_RANGE
  6
CONTINUOUS
 62
256
370
-1
100
AcDbCircle
 10
-18618.50131
 20
53234.5820703
 40
102.954384869
  0
TEXT
  5
92
330
1F
100
AcDbEntity
  8
DS_CTEXT
  6
ByLayer
 62
256
370
-1
100
AcDbText
 10
-25115.1566732
 20
49680.9201229
 30
0.0
 40
250.0
  1
5#12-[20]
 50
0.0
 41
1.0
 51
0.0
  7
standard
 71
0
210
0.0
220
0.0
230
1.0
100
AcDbText
1001
DXF_STRUCTURE
1000
8F3593BE2CCE11E785C5
  0
LWPOLYLINE
  5
93
330
1F
100
AcDbEntity
  8
DS_RANGE
  6
CONTINUOUS
 62
256
370
-1
100
AcDbPolyline
 90
4
 70
1
 43
0.0
 10
-26816.9145494
 20
53867.29492
 10
-24361.319919
 20
53867.29492
 10
-24361.319919
 20
50393.556003
 10
-26816.9145494
 20
50393.556003
  0
LINE
  5
94
330
1F
100
AcDbEntity
  8
DS_RANGE
  6
CONTINUOUS
 62
256
370
-1
100
AcDbLine
 10
-23857.6080297
 20
49407.0559965
 11
-25001.4534798
 21
49407.0559965
  0
LINE
  5
95
330
1F
100
AcDbEntity
  8
DS_RANGE
  6
CONTINUOUS
 62
256
370
-1
100
AcDbLine
 10
-25001.4534798
 20
49407.0559965
 11
-26669.9987419
 21
50729.3857608
  0
LINE
  5
96
330
1F
100
AcDbEntity
  8
DS_RANGE
  6
CONTINUOUS
 62
256
370
-1
100
AcDbLine
 10
-25001.4534798
 20
49407.0559965
 11
-24644.6577475
 21
50550.9762486
  0
LWPOLYLINE
  5
97
330
1F
100
AcDbEntity
  8
DS_CBAR
  6
ByLayer
 62
256
370
-1
100
AcDbPolyline
 90
3
 70
0
 43
0.0
 10
-27374.043235
 20
48336.7978018
 10
-20928.2778288
 20
48336.7978018
 10
-20928.2778288
 20
49084.478673
  0
TEXT
  5
98
330
1F
100
AcDbEntity
  8
DS_CTEXT
  6
ByLayer
 62
256
370
-1
100
AcDbText
 10
-25751.7347017
 20
48480.9967723
 30
0.0
 40
250.0
  1
10#12-[20]
 50
0.0
 41
1.0
 51
0.0
  7
standard
 71
0
210
0.0
220
0.0
230
1.0
100
AcDbText
1001
DXF_STRUCTURE
1000
DE344DB439AB11E7A1D3
  0
LWPOLYLINE
  5
99
330
1F
100
AcDbEntity
  8
DS_CBAR
  6
ByLayer
 62
256
370
-1
100
AcDbPolyline
 90
6
 70
0
 43
0.0
 10
-8926.69714252
 20
30991.6035571
 10
-6838.87019492
 20
30991.6035571
 10
-5756.05384216
 20
29888.7872043
 10
-18.5784014421
 20
29888.7872043
 10
1139.06136027
 20
31046.426966
 10
2872.54024171
 20
31046.426966
  0
TEXT
  5
9A
330
1F
100
AcDbEntity
  8
DS_CTEXT
  6
ByLayer
 62
256
370
-1
100
AcDbText
 10
-3798.99973695
 20
30071.6942998
 30
0.0
 40
250.0
  1
47#20-[4]-200T
 50
0.0
 41
1.0
 51
0.0
  7
standard
 71
0
210
0.0
220
0.0
230
1.0
100
AcDbText
1001
DXF_STRUCTURE
1000
DE344DB639AB11E7BD59
  0
CIRCLE
  5
9B
330
1F
100
AcDbEntity
  8
DS_RANGE
  6
CONTINUOUS
 62
256
370
-1
100
AcDbCircle
 10
-4519.07640511
 20
29888.7872043
 40
102.954384869
  0
LWPOLYLINE
  5
9C
330
1F
100
AcDbEntity
  8
DS_CBAR
  6
ByLayer
 62
256
370
-1
100
AcDbPolyline
 90
3
 70
0
 43
0.0
 10
13431.2672707
 20
27811.1375747
 10
19880.0326769
 20
27811.1375747
 10
19880.0326769
 20
28558.8184459
  0
TEXT
  5
9D
330
1F
100
AcDbEntity
  8
DS_CTEXT
  6
ByLayer
 62
256
370
-1
100
AcDbText
 10
14376.8781915
 20
27955.3365452
 30
0.0
 40
250.0
  1
35#10-[16]-200T
 50
0.0
 41
1.0
 51
0.0
  7
standard
 71
0
210
0.0
220
0.0
230
1.0
100
AcDbText
1001
DXF_STRUCTURE
1000
DE344DB839AB11E783D4
  0
CIRCLE
  5
9E
330
1F
100
AcDbEntity
  8
DS_RANGE
  6
CONTINUOUS
 62
256
370
-1
100
AcDbCircle
 10
18536.569768
 20
27811.1375747
 40
102.954384869
  0
LWPOLYLINE
  5
9F
330
1F
100
AcDbEntity
  8
DS_CBAR
  6
ByLayer
 62
256
370
-1
100
AcDbPolyline
 90
4
 70
0
 43
0.0
 10
63807.8136474
 20
55264.5345195
 10
63807.8136474
 20
56840.6742672
 10
70253.5790536
 20
56840.6742672
 10
70253.5790536
 20
58487.4005928
  0
TEXT
  5
A0
330
1F
100
AcDbEntity
  8
DS_CTEXT
  6
ByLayer
 62
256
370
-1
100
AcDbText
 10
66760.5472244
 20
56897.9613448
 30
0.0
 40
250.0
  1
20#10-[9]-200
 50
0.0
 41
1.0
 51
0.0
  7
standard
 71
0
210
0.0
220
0.0
230
1.0
100
AcDbText
1001
DXF_STRUCTURE
1000
DE344DBA39AB11E78A60
  0
LINE
  5
A1
330
1F
100
AcDbEntity
  8
DS_RANGE
  6
CONTINUOUS
 62
256
370
-1
100
AcDbLine
 10
66360.679515
 20
62011.9177364
 11
66360.679515
 21
52784.1679818
  0
CIRCLE
  5
A2
330
1F
100
AcDbEntity
  8
DS_RANGE
  6
CONTINUOUS
 62
256
370
-1
100
AcDbCircle
 10
66360.679515
 20
56840.6742672
 40
102.954384869
  0
LWPOLYLINE
  5
A3
330
1F
100
AcDbEntity
  8
DS_ELEMENT
  6
CONTINUOUS
 62
256
370
-1
100
AcDbPolyline
 90
4
 70
1
 43
0.0
 10
45333.1694175
 20
62692.6088714
 10
72650.8926676
 20
62692.6088714
 10
72650.8926676
 20
51752.293108
 10
45333.1694175
 20
51752.293108
  0
TEXT
  5
A4
330
1F
100
AcDbEntity
  8
DS_ELEMENT
  6
CONTINUOUS
 62
256
370
-1
100
AcDbText
 10
45784.9980806
 20
62297.3002721
 30
0.0
 40
250.0
  1
EL. plyta x 2
 50
0.0
 41
1.0
 51
0.0
  7
standard
 71
0
210
0.0
220
0.0
230
1.0
100
AcDbText
  0
LWPOLYLINE
  5
A5
330
1F
100
AcDbEntity
  8
DS_CBAR
  6
ByLayer
 62
256
370
-1
100
AcDbPolyline
 90
4
 70
0
 43
0.0
 10
63807.8136474
 20
58049.2951217
 10
63807.8136474
 20
57504.3402852
 10
70253.5790536
 20
57504.3402852
 10
70253.5790536
 20
59151.0666108
  0
TEXT
  5
A6
330
1F
100
AcDbEntity
  8
DS_CTEXT
  6
ByLayer
 62
256
370
-1
100
AcDbText
 10
66760.5472244
 20
57561.6273628
 30
0.0
 40
250.0
  1
20#10-[13]-200DG
 50
0.0
 41
1.0
 51
0.0
  7
standard
 71
0
210
0.0
220
0.0
230
1.0
100
AcDbText
1001
DXF_STRUCTURE
1000
DE344DBC39AB11E7B541
  0
CIRCLE
  5
A7
330
1F
100
AcDbEntity
  8
DS_RANGE
  6
CONTINUOUS
 62
256
370
-1
100
AcDbCircle
 10
66360.679515
 20
57504.3402852
 40
102.954384869
  0
LINE
  5
A8
330
1F
100
AcDbEntity
  8
DS_RANGE
  6
CONTINUOUS
 62
256
370
-1
100
AcDbLine
 10
56020.9663506
 20
61231.0494663
 11
58819.0200827
 21
52437.7417357
  0
LWPOLYLINE
  5
A9
330
1F
100
AcDbEntity
  8
DS_CBAR
  6
ByLayer
 62
256
370
-1
100
AcDbPolyline
 90
4
 70
0
 43
0.0
 10
55120.3265884
 20
55642.3058977
 10
54955.0844704
 20
56161.6042862
 10
61097.3835448
 20
58116.1000659
 10
61596.7066586
 20
56546.9015382
  0
TEXT
  5
AA
330
1F
100
AcDbEntity
  8
DS_CTEXT
  6
ByLayer
 62
256
370
-1
100
AcDbText
 10
57751.4328061
 20
57111.5271104
 30
0.0
 40
250.0
  1
1#10-[13]-200DG
 50
17.651207528
 41
1.0
 51
0.0
  7
standard
 71
0
210
0.0
220
0.0
230
1.0
100
AcDbText
1001
DXF_STRUCTURE
1000
DE344DBE39AB11E7842B
  0
CIRCLE
  5
AB
330
1F
100
AcDbEntity
  8
DS_RANGE
  6
CONTINUOUS
 62
256
370
-1
100
AcDbCircle
 10
57387.7615331
 20
56935.6885493
 40
102.954384869
  0
TEXT
  5
AC
330
1F
100
AcDbEntity
  8
DS_CTEXT
  6
ByLayer
 62
256
370
-1
100
AcDbText
 10
50891.1061699
 20
53382.0266019
 30
0.0
 40
250.0
  1
5#12-[20]
 50
0.0
 41
1.0
 51
0.0
  7
standard
 71
0
210
0.0
220
0.0
230
1.0
100
AcDbText
1001
DXF_STRUCTURE
1000
8F35B3762CCE11E785C5
  0
LWPOLYLINE
  5
AD
330
1F
100
AcDbEntity
  8
DS_RANGE
  6
CONTINUOUS
 62
256
370
-1
100
AcDbPolyline
 90
4
 70
1
 43
0.0
 10
49189.3482937
 20
57568.401399
 10
51644.9429241
 20
57568.401399
 10
51644.9429241
 20
54094.662482
 10
49189.3482937
 20
54094.662482
  0
LINE
  5
AE
330
1F
100
AcDbEntity
  8
DS_RANGE
  6
CONTINUOUS
 62
256
370
-1
100
AcDbLine
 10
52148.6548134
 20
53108.1624755
 11
51004.8093633
 21
53108.1624755
  0
LINE
  5
AF
330
1F
100
AcDbEntity
  8
DS_RANGE
  6
CONTINUOUS
 62
256
370
-1
100
AcDbLine
 10
51004.8093633
 20
53108.1624755
 11
49336.2641012
 21
54430.4922398
  0
LINE
  5
B0
330
1F
100
AcDbEntity
  8
DS_RANGE
  6
CONTINUOUS
 62
256
370
-1
100
AcDbLine
 10
51004.8093633
 20
53108.1624755
 11
51361.6050956
 21
54252.0827276
  0
LWPOLYLINE
  5
B1
330
1F
100
AcDbEntity
  8
DS_CBAR
  6
ByLayer
 62
256
370
-1
100
AcDbPolyline
 90
3
 70
0
 43
0.0
 10
48632.2196081
 20
52037.9042808
 10
55077.9850143
 20
52037.9042808
 10
55077.9850143
 20
52785.585152
  0
TEXT
  5
B2
330
1F
100
AcDbEntity
  8
DS_CTEXT
  6
ByLayer
 62
256
370
-1
100
AcDbText
 10
50254.5281414
 20
52182.1032513
 30
0.0
 40
250.0
  1
15#12-[20]
 50
0.0
 41
1.0
 51
0.0
  7
standard
 71
0
210
0.0
220
0.0
230
1.0
100
AcDbText
1001
DXF_STRUCTURE
1000
DE344DC039AB11E780C4
  0
LWPOLYLINE
  5
B3
330
1F
100
AcDbEntity
  8
DS_CBAR
  6
ByLayer
 62
256
370
-1
100
AcDbPolyline
 90
6
 70
0
 43
0.0
 10
241.222264762
 20
27814.9092909
 10
2329.04921236
 20
27814.9092909
 10
3411.86556512
 20
26712.0929381
 10
7650.63997946
 20
26712.0929381
 10
8808.27974117
 20
27869.7326998
 10
10541.7586226
 20
27869.7326998
  0
TEXT
  5
B4
330
1F
100
AcDbEntity
  8
DS_CTEXT
  6
ByLayer
 62
256
370
-1
100
AcDbText
 10
4461.85076363
 20
26895.0000336
 30
0.0
 40
250.0
  1
10#12-[5]-200T
 50
0.0
 41
1.0
 51
0.0
  7
standard
 71
0
210
0.0
220
0.0
230
1.0
100
AcDbText
1001
DXF_STRUCTURE
1000
DE344DC239AB11E7B5DB
  0
LWPOLYLINE
  5
B5
330
1F
100
AcDbEntity
  8
DS_CBAR
  6
ByLayer
 62
256
370
-1
100
AcDbPolyline
 90
6
 70
0
 43
0.0
 10
3543.31722569
 20
26703.9958296
 10
5199.09843971
 20
27975.7701548
 10
5386.07440176
 20
29509.9589149
 10
8747.69546608
 20
32091.95666
 10
10370.9404868
 20
31879.0359274
 10
11745.7008663
 20
32934.9634492
  0
TEXT
  5
B6
330
1F
100
AcDbEntity
  8
DS_CTEXT
  6
ByLayer
 62
256
370
-1
100
AcDbText
 10
5638.16228191
 20
29934.2162084
 30
0.0
 40
250.0
  1
1#10-[6]-200T
 50
37.5271867717
 41
1.0
 51
0.0
  7
standard
 71
0
210
0.0
220
0.0
230
1.0
100
AcDbText
1001
DXF_STRUCTURE
1000
DE344DC439AB11E7A55F
  0
TEXT
  5
B7
330
1F
100
AcDbEntity
  8
DS_CTEXT
  6
ByLayer
 62
256
370
-1
100
AcDbText
 10
12526.8319243
 20
25175.7239191
 30
0.0
 40
250.0
  1
5#12-[5]
 50
0.0
 41
1.0
 51
0.0
  7
standard
 71
0
210
0.0
220
0.0
230
1.0
100
AcDbText
1001
DXF_STRUCTURE
1000
8F35C7302CCE11E785C5
  0
LWPOLYLINE
  5
B8
330
1F
100
AcDbEntity
  8
DS_RANGE
  6
CONTINUOUS
 62
256
370
-1
100
AcDbPolyline
 90
4
 70
1
 43
0.0
 10
10825.0740481
 20
29362.0987162
 10
13280.6686785
 20
29362.0987162
 10
13280.6686785
 20
25888.3597992
 10
10825.0740481
 20
25888.3597992
  0
LINE
  5
B9
330
1F
100
AcDbEntity
  8
DS_RANGE
  6
CONTINUOUS
 62
256
370
-1
100
AcDbLine
 10
13784.3805678
 20
24901.8597927
 11
12640.5351177
 21
24901.8597927
  0
LINE
  5
BA
330
1F
100
AcDbEntity
  8
DS_RANGE
  6
CONTINUOUS
 62
256
370
-1
100
AcDbLine
 10
12640.5351177
 20
24901.8597927
 11
10971.9898556
 21
26224.189557
  0
LINE
  5
BB
330
1F
100
AcDbEntity
  8
DS_RANGE
  6
CONTINUOUS
 62
256
370
-1
100
AcDbLine
 10
12640.5351177
 20
24901.8597927
 11
12997.33085
 21
26045.7800448
  0
LWPOLYLINE
  5
BC
330
1F
100
AcDbEntity
  8
DS_RANGE
  6
CONTINUOUS
 62
256
370
-1
100
AcDbPolyline
 90
2
 70
0
 43
0.0
 10
-4519.07640511
 20
34750.746122
 10
-4519.07640511
 20
25522.9963674
  0
LWPOLYLINE
  5
BD
330
1F
100
AcDbEntity
  8
DS_RANGE
  6
CONTINUOUS
 62
256
370
-1
100
AcDbPolyline
 90
2
 70
0
 43
0.0
 10
18536.569768
 20
25803.9889806
 10
18536.569768
 20
32710.3854903
  0
LWPOLYLINE
  5
BE
330
1F
100
AcDbEntity
  8
DS_RANGE
  6
CONTINUOUS
 62
256
370
-1
100
AcDbPolyline
 90
2
 70
0
 43
0.0
 10
-9645.5833281
 20
58310.8112574
 10
-9645.5833281
 20
49083.0615028
  0
LWPOLYLINE
  5
BF
330
1F
100
AcDbEntity
  8
DS_RANGE
  6
CONTINUOUS
 62
256
370
-1
100
AcDbPolyline
 90
2
 70
0
 43
0.0
 10
-19985.2964925
 20
57529.9429873
 10
-17187.2427604
 20
48736.6352567
  0
TEXT
  5
C0
330
1F
100
AcDbEntity
  8
DS_CTEXT
  6
ByLayer
 62
256
370
-1
100
AcDbText
 10
9588.35816538
 20
24500.7183717
 30
0.0
 40
250.0
  1
5#12-[5]
 50
0.0
 41
1.0
 51
0.0
  7
standard
 71
0
210
0.0
220
0.0
230
1.0
100
AcDbText
1001
DXF_STRUCTURE
1000
8F35CAF02CCE11E785C5
  0
LINE
  5
C1
330
1F
100
AcDbEntity
  8
DS_RANGE
  6
CONTINUOUS
 62
256
370
-1
100
AcDbLine
 10
10845.9068089
 20
24226.8542453
 11
9702.06135878
 21
24226.8542453
  0
LWPOLYLINE
  5
C2
330
1F
100
AcDbEntity
  8
DS_CBAR
  6
ByLayer
 62
256
370
-1
100
AcDbPolyline
 90
6
 70
0
 43
0.0
 10
1986.10382309
 20
27349.0147405
 10
3641.88503711
 20
28620.7890657
 10
3828.86099916
 20
30154.9778258
 10
7190.48206348
 20
32736.9755709
 10
8813.7270842
 20
32524.0548383
 10
10188.4874637
 20
33579.9823601
  0
TEXT
  5
C3
330
1F
100
AcDbEntity
  8
DS_CTEXT
  6
ByLayer
 62
256
370
-1
100
AcDbText
 10
4080.94887931
 20
30579.2351193
 30
0.0
 40
250.0
  1
11#10-[6]-200T
 50
37.5271867717
 41
1.0
 51
0.0
  7
standard
 71
0
210
0.0
220
0.0
230
1.0
100
AcDbText
1001
DXF_STRUCTURE
1000
DE344DC639AB11E7AEBD
  0
LWPOLYLINE
  5
C4
330
1F
100
AcDbEntity
  8
DS_CBAR
  6
ByLayer
 62
256
370
-1
100
AcDbPolyline
 90
4
 70
0
 43
0.0
 10
48097.5251553
 20
70974.8230116
 10
48097.5251553
 20
72550.9627593
 10
54543.2905615
 20
72550.9627593
 10
54543.2905615
 20
74197.6890849
  0
TEXT
  5
C5
330
1F
100
AcDbEntity
  8
DS_CTEXT
  6
ByLayer
 62
256
370
-1
100
AcDbText
 10
51050.2587323
 20
72608.2498369
 30
0.0
 40
250.0
  1
20#10-[9]-200
 50
0.0
 41
1.0
 51
0.0
  7
standard
 71
0
210
0.0
220
0.0
230
1.0
100
AcDbText
1001
DXF_STRUCTURE
1000
DE344DC839AB11E7B5E2
  0
LINE
  5
C6
330
1F
100
AcDbEntity
  8
DS_RANGE
  6
CONTINUOUS
 62
256
370
-1
100
AcDbLine
 10
50650.3910229
 20
77722.2062285
 11
50650.3910229
 21
68494.4564739
  0
CIRCLE
  5
C7
330
1F
100
AcDbEntity
  8
DS_RANGE
  6
CONTINUOUS
 62
256
370
-1
100
AcDbCircle
 10
50650.3910229
 20
72550.9627593
 40
102.954384869
  0
LWPOLYLINE
  5
C8
330
1F
100
AcDbEntity
  8
DS_ELEMENT
  6
CONTINUOUS
 62
256
370
-1
100
AcDbPolyline
 90
4
 70
1
 43
0.0
 10
29622.8809254
 20
78402.8973635
 10
56940.6041755
 20
78402.8973635
 10
56940.6041755
 20
67462.5816001
 10
29622.8809254
 20
67462.5816001
  0
LWPOLYLINE
  5
C9
330
1F
100
AcDbEntity
  8
DS_CBAR
  6
ByLayer
 62
256
370
-1
100
AcDbPolyline
 90
4
 70
0
 43
0.0
 10
48097.5251553
 20
73759.5836138
 10
48097.5251553
 20
73214.6287773
 10
54543.2905615
 20
73214.6287773
 10
54543.2905615
 20
74861.3551029
  0
TEXT
  5
CA
330
1F
100
AcDbEntity
  8
DS_CTEXT
  6
ByLayer
 62
256
370
-1
100
AcDbText
 10
51050.2587323
 20
73271.9158549
 30
0.0
 40
250.0
  1
20#10-[13]-200DG
 50
0.0
 41
1.0
 51
0.0
  7
standard
 71
0
210
0.0
220
0.0
230
1.0
100
AcDbText
1001
DXF_STRUCTURE
1000
DE344DCA39AB11E7AA87
  0
CIRCLE
  5
CB
330
1F
100
AcDbEntity
  8
DS_RANGE
  6
CONTINUOUS
 62
256
370
-1
100
AcDbCircle
 10
50650.3910229
 20
73214.6287773
 40
102.954384869
  0
LINE
  5
CC
330
1F
100
AcDbEntity
  8
DS_RANGE
  6
CONTINUOUS
 62
256
370
-1
100
AcDbLine
 10
40310.6778585
 20
76941.3379584
 11
43108.7315906
 21
68148.0302278
  0
LWPOLYLINE
  5
CD
330
1F
100
AcDbEntity
  8
DS_CBAR
  6
ByLayer
 62
256
370
-1
100
AcDbPolyline
 90
4
 70
0
 43
0.0
 10
39410.0380963
 20
71352.5943898
 10
39244.7959783
 20
71871.8927783
 10
45387.0950527
 20
73826.388558
 10
45886.4181665
 20
72257.1900303
  0
TEXT
  5
CE
330
1F
100
AcDbEntity
  8
DS_CTEXT
  6
ByLayer
 62
256
370
-1
100
AcDbText
 10
42041.144314
 20
72821.8156025
 30
0.0
 40
250.0
  1
1#10-[13]-200DG
 50
17.651207528
 41
1.0
 51
0.0
  7
standard
 71
0
210
0.0
220
0.0
230
1.0
100
AcDbText
1001
DXF_STRUCTURE
1000
DE344DCC39AB11E7A66D
  0
CIRCLE
  5
CF
330
1F
100
AcDbEntity
  8
DS_RANGE
  6
CONTINUOUS
 62
256
370
-1
100
AcDbCircle
 10
41677.473041
 20
72645.9770414
 40
102.954384869
  0
TEXT
  5
D0
330
1F
100
AcDbEntity
  8
DS_CTEXT
  6
ByLayer
 62
256
370
-1
100
AcDbText
 10
35180.8176778
 20
69092.315094
 30
0.0
 40
250.0
  1
5#12-[20]
 50
0.0
 41
1.0
 51
0.0
  7
standard
 71
0
210
0.0
220
0.0
230
1.0
100
AcDbText
1001
DXF_STRUCTURE
1000
8F35EC602CCE11E785C5
  0
LWPOLYLINE
  5
D1
330
1F
100
AcDbEntity
  8
DS_RANGE
  6
CONTINUOUS
 62
256
370
-1
100
AcDbPolyline
 90
4
 70
1
 43
0.0
 10
33479.0598016
 20
73278.6898911
 10
35934.654432
 20
73278.6898911
 10
35934.654432
 20
69804.9509741
 10
33479.0598016
 20
69804.9509741
  0
LINE
  5
D2
330
1F
100
AcDbEntity
  8
DS_RANGE
  6
CONTINUOUS
 62
256
370
-1
100
AcDbLine
 10
36438.3663213
 20
68818.4509676
 11
35294.5208712
 21
68818.4509676
  0
LINE
  5
D3
330
1F
100
AcDbEntity
  8
DS_RANGE
  6
CONTINUOUS
 62
256
370
-1
100
AcDbLine
 10
35294.5208712
 20
68818.4509676
 11
33625.9756091
 21
70140.7807319
  0
LINE
  5
D4
330
1F
100
AcDbEntity
  8
DS_RANGE
  6
CONTINUOUS
 62
256
370
-1
100
AcDbLine
 10
35294.5208712
 20
68818.4509676
 11
35651.3166035
 21
69962.3712197
  0
LWPOLYLINE
  5
D5
330
1F
100
AcDbEntity
  8
DS_CBAR
  6
ByLayer
 62
256
370
-1
100
AcDbPolyline
 90
3
 70
0
 43
0.0
 10
32921.931116
 20
67748.1927729
 10
39367.6965222
 20
67748.1927729
 10
39367.6965222
 20
68495.8736441
  0
TEXT
  5
D6
330
1F
100
AcDbEntity
  8
DS_CTEXT
  6
ByLayer
 62
256
370
-1
100
AcDbText
 10
34544.2396493
 20
67892.3917434
 30
0.0
 40
250.0
  1
15#12-[20]
 50
0.0
 41
1.0
 51
0.0
  7
standard
 71
0
210
0.0
220
0.0
230
1.0
100
AcDbText
1001
DXF_STRUCTURE
1000
DE344DCE39AB11E79AF6
  0
LINE
  5
D7
330
1F
100
AcDbEntity
  8
0
  6
CONTINUOUS
 62
256
370
-1
100
AcDbLine
 10
-37788.5852105
 20
87007.7758443
 11
-37788.5852105
 21
82007.7758443
  0
LINE
  5
D8
330
1F
100
AcDbEntity
  8
0
  6
CONTINUOUS
 62
256
370
-1
100
AcDbLine
 10
-37788.5852105
 20
82007.7758443
 11
-35988.5852105
 21
82007.7758443
  0
LINE
  5
D9
330
1F
100
AcDbEntity
  8
0
  6
CONTINUOUS
 62
256
370
-1
100
AcDbLine
 10
-35988.5852105
 20
82007.7758443
 11
-35988.5852105
 21
79552.2845935
  0
LINE
  5
DA
330
1F
100
AcDbEntity
  8
0
  6
CONTINUOUS
 62
256
370
-1
100
AcDbLine
 10
-35988.5852105
 20
79552.2845935
 11
-21935.1338323
 21
79552.2845935
  0
LINE
  5
DB
330
1F
100
AcDbEntity
  8
0
  6
CONTINUOUS
 62
256
370
-1
100
AcDbLine
 10
-37788.5852105
 20
87007.7758443
 11
-21935.1338323
 21
87007.7758443
  0
LINE
  5
DC
330
1F
100
AcDbEntity
  8
0
  6
CONTINUOUS
 62
256
370
-1
100
AcDbLine
 10
-21935.1338323
 20
79552.2845935
 11
-21935.1338323
 21
87007.7758443
  0
LWPOLYLINE
  5
DD
330
1F
100
AcDbEntity
  8
DS_CBAR
  6
ByLayer
 62
256
370
-1
100
AcDbPolyline
 90
4
 70
0
 43
0.0
 10
-37748.5852105
 20
85249.5885111
 10
-37748.5852105
 20
85099.5885111
 10
-21975.1338323
 20
85099.5885111
 10
-21975.1338323
 20
85249.5885111
  0
LWPOLYLINE
  5
DE
330
1F
100
AcDbEntity
  8
DS_RANGE
  6
CONTINUOUS
 62
256
370
-1
100
AcDbPolyline
 90
2
 70
0
 43
0.0
 10
-29552.787021
 20
82057.7758443
 10
-29552.787021
 20
86957.7758443
  0
TEXT
  5
DF
330
1F
100
AcDbEntity
  8
DS_CTEXT
  6
ByLayer
 62
256
370
-1
100
AcDbText
 10
-36157.6499409
 20
85183.7172152
 30
0.0
 40
125.0
  1
25#12-[2]-200D
 50
0.0
 41
1.0
 51
0.0
  7
standard
 71
0
210
0.0
220
0.0
230
1.0
100
AcDbText
1001
DXF_STRUCTURE
1000
DE344DD039AB11E7ACCF
  0
CIRCLE
  5
E0
330
1F
100
AcDbEntity
  8
DS_RANGE
  6
CONTINUOUS
 62
256
370
-1
100
AcDbCircle
 10
-29552.787021
 20
85099.5885111
 40
50.0
  0
TEXT
  5
E1
330
1F
100
AcDbEntity
  8
DS_CTEXT
  6
ByLayer
 62
256
370
-1
100
AcDbText
 10
-36157.6499409
 20
86381.5827577
 30
0.0
 40
125.0
  1
25#10-[1]-200G
 50
0.0
 41
1.0
 51
0.0
  7
standard
 71
0
210
0.0
220
0.0
230
1.0
100
AcDbText
1001
DXF_STRUCTURE
1000
DE344DD239AB11E793C3
  0
LWPOLYLINE
  5
E2
330
1F
100
AcDbEntity
  8
DS_CBAR
  6
DASHED
 62
256
370
-1
100
AcDbPolyline
 90
4
 70
0
 43
0.0
 10
-37748.5852105
 20
85715.7901764
 10
-37748.5852105
 20
86318.4681777
 10
-21975.1338323
 20
86318.4681777
 10
-21975.1338323
 20
85715.7901764
  0
CIRCLE
  5
E3
330
1F
100
AcDbEntity
  8
DS_RANGE
  6
CONTINUOUS
 62
256
370
-1
100
AcDbCircle
 10
-29552.787021
 20
86318.4681777
 40
50.0
  0
LWPOLYLINE
  5
E4
330
1F
100
AcDbEntity
  8
DS_CBAR
  6
ByLayer
 62
256
370
-1
100
AcDbPolyline
 90
4
 70
0
 43
0.0
 10
-35925.2591831
 20
80320.1950731
 10
-35925.2591831
 20
80170.1950731
 10
-22018.893413
 20
80170.1950731
 10
-22018.893413
 20
80320.1950731
  0
TEXT
  5
E5
330
1F
100
AcDbEntity
  8
DS_CTEXT
  6
ByLayer
 62
256
370
-1
100
AcDbText
 10
-34334.3239136
 20
80254.3237772
 30
0.0
 40
125.0
  1
12#12-[3]-200D
 50
0.0
 41
1.0
 51
0.0
  7
standard
 71
0
210
0.0
220
0.0
230
1.0
100
AcDbText
1001
DXF_STRUCTURE
1000
DE344DD439AB11E7A5EC
  0
TEXT
  5
E6
330
1F
100
AcDbEntity
  8
DS_CTEXT
  6
ByLayer
 62
256
370
-1
100
AcDbText
 10
-34334.3239136
 20
81452.1893197
 30
0.0
 40
125.0
  1
12#10-[10]-200G
 50
0.0
 41
1.0
 51
0.0
  7
standard
 71
0
210
0.0
220
0.0
230
1.0
100
AcDbText
1001
DXF_STRUCTURE
1000
DE344DD639AB11E78F63
  0
LWPOLYLINE
  5
E7
330
1F
100
AcDbEntity
  8
DS_CBAR
  6
DASHED
 62
256
370
-1
100
AcDbPolyline
 90
3
 70
0
 43
0.0
 10
-35925.2591831
 20
80786.3967384
 10
-35925.2591831
 20
81389.0747397
 10
-27578.9434653
 20
81389.0747397
  0
LWPOLYLINE
  5
E8
330
1F
100
AcDbEntity
  8
DS_RANGE
  6
CONTINUOUS
 62
256
370
-1
100
AcDbPolyline
 90
2
 70
0
 43
0.0
 10
-29552.787021
 20
81957.7758443
 10
-29552.787021
 20
79652.2845935
  0
CIRCLE
  5
E9
330
1F
100
AcDbEntity
  8
DS_RANGE
  6
CONTINUOUS
 62
256
370
-1
100
AcDbCircle
 10
-29552.787021
 20
81389.0747397
 40
50.0
  0
CIRCLE
  5
EA
330
1F
100
AcDbEntity
  8
DS_RANGE
  6
CONTINUOUS
 62
256
370
-1
100
AcDbCircle
 10
-29552.787021
 20
80170.1950731
 40
50.0
  0
LWPOLYLINE
  5
EB
330
1F
100
AcDbEntity
  8
DS_CBAR
  6
ByLayer
 62
256
370
-1
100
AcDbPolyline
 90
4
 70
0
 43
0.0
 10
-36706.2323159
 20
82128.4367413
 10
-36556.2323159
 20
82128.4367413
 10
-36556.2323159
 20
86875.1886415
 10
-36706.2323159
 20
86875.1886415
  0
LWPOLYLINE
  5
EC
330
1F
100
AcDbEntity
  8
DS_CBAR
  6
DASHED
 62
256
370
-1
100
AcDbPolyline
 90
4
 70
0
 43
0.0
 10
-36763.722206
 20
82128.4367413
 10
-37366.4002074
 20
82128.4367413
 10
-37366.4002074
 20
86875.1886415
 10
-36763.722206
 20
86875.1886415
  0
LWPOLYLINE
  5
ED
330
1F
100
AcDbEntity
  8
DS_CBAR
  6
ByLayer
 62
256
370
-1
100
AcDbPolyline
 90
4
 70
0
 43
0.0
 10
-24816.3874436
 20
79639.2737161
 10
-24666.3874436
 20
79639.2737161
 10
-24666.3874436
 20
86875.1886415
 10
-24816.3874436
 20
86875.1886415
  0
LWPOLYLINE
  5
EE
330
1F
100
AcDbEntity
  8
DS_CBAR
  6
DASHED
 62
256
370
-1
100
AcDbPolyline
 90
4
 70
0
 43
0.0
 10
-24989.4500299
 20
79639.2737161
 10
-25592.1280313
 20
79639.2737161
 10
-25592.1280313
 20
86875.1886415
 10
-24989.4500299
 20
86875.1886415
  0
TEXT
  5
EF
330
1F
100
AcDbEntity
  8
DS_CTEXT
  6
ByLayer
 62
256
370
-1
100
AcDbText
 10
-36639.3625591
 20
83107.6474452
 30
0.0
 40
125.0
  1
9#12-[24]-200D
 50
90.0
 41
1.0
 51
0.0
  7
standard
 71
0
210
0.0
220
0.0
230
1.0
100
AcDbText
1001
DXF_STRUCTURE
1000
DE344DD839AB11E7B00A
  0
TEXT
  5
F0
330
1F
100
AcDbEntity
  8
DS_CTEXT
  6
ByLayer
 62
256
370
-1
100
AcDbText
 10
-24749.5176868
 20
83107.6474452
 30
0.0
 40
125.0
  1
69#12-[16]-200D
 50
90.0
 41
1.0
 51
0.0
  7
standard
 71
0
210
0.0
220
0.0
230
1.0
100
AcDbText
1001
DXF_STRUCTURE
1000
DE344DDC39AB11E7A703
  0
TEXT
  5
F1
330
1F
100
AcDbEntity
  8
DS_CTEXT
  6
ByLayer
 62
256
370
-1
100
AcDbText
 10
-37440.8464659
 20
83085.394912
 30
0.0
 40
125.0
  1
9#10-[22]-200G
 50
90.0
 41
1.0
 51
0.0
  7
standard
 71
0
210
0.0
220
0.0
230
1.0
100
AcDbText
1001
DXF_STRUCTURE
1000
DE344DDA39AB11E7AB78
  0
LWPOLYLINE
  5
F2
330
1F
100
AcDbEntity
  8
DS_RANGE
  6
CONTINUOUS
 62
256
370
-1
100
AcDbPolyline
 90
2
 70
0
 43
0.0
 10
-37753.6128992
 20
82660.6091711
 10
-35988.5852105
 20
82660.6091711
  0
LWPOLYLINE
  5
F3
330
1F
100
AcDbEntity
  8
DS_RANGE
  6
CONTINUOUS
 62
256
370
-1
100
AcDbPolyline
 90
2
 70
0
 43
0.0
 10
-35666.0189886
 20
82660.6091711
 10
-22057.5991635
 20
82660.6091711
  0
CIRCLE
  5
F4
330
1F
100
AcDbEntity
  8
DS_RANGE
  6
CONTINUOUS
 62
256
370
-1
100
AcDbCircle
 10
-37366.4002074
 20
82660.6091711
 40
50.0
  0
CIRCLE
  5
F5
330
1F
100
AcDbEntity
  8
DS_RANGE
  6
CONTINUOUS
 62
256
370
-1
100
AcDbCircle
 10
-36556.2323159
 20
82660.6091711
 40
50.0
  0
LWPOLYLINE
  5
F6
330
1F
100
AcDbEntity
  8
DS_CBAR
  6
ByLayer
 62
256
370
-1
100
AcDbPolyline
 90
2
 70
0
 43
0.0
 10
-36633.010749
 20
82858.9135039
 10
-35127.229198
 20
81353.131953
  0
LWPOLYLINE
  5
F7
330
1F
100
AcDbEntity
  8
DS_CBAR
  6
ByLayer
 62
256
370
-1
100
AcDbPolyline
 90
2
 70
0
 43
0.0
 10
-36562.3000709
 20
82929.6241821
 10
-35056.5185199
 20
81423.8426311
  0
LWPOLYLINE
  5
F8
330
1F
100
AcDbEntity
  8
DS_CBAR
  6
ByLayer
 62
256
370
-1
100
AcDbPolyline
 90
2
 70
0
 43
0.0
 10
-36491.5893927
 20
83000.3348602
 10
-34985.8078418
 20
81494.5533092
  0
LWPOLYLINE
  5
F9
330
1F
100
AcDbEntity
  8
DS_CBAR
  6
ByLayer
 62
256
370
-1
100
AcDbPolyline
 90
2
 70
0
 43
0.0
 10
-36420.8787146
 20
83071.0455383
 10
-34915.0971637
 20
81565.2639874
  0
TEXT
  5
FA
330
1F
100
AcDbEntity
  8
DS_CTEXT
  6
ByLayer
 62
256
370
-1
100
AcDbText
 10
-36219.2402076
 20
82961.5229718
 30
0.0
 40
125.0
  1
4#10-[27]-DG
 50
315.0
 41
1.0
 51
0.0
  7
standard
 71
0
210
0.0
220
0.0
230
1.0
100
AcDbText
1001
DXF_STRUCTURE
1000
DE344DE039AB11E79446
  0
LWPOLYLINE
  5
FB
330
1F
100
AcDbEntity
  8
DS_CBAR
  6
ByLayer
 62
256
370
-1
100
AcDbPolyline
 90
2
 70
0
 43
0.0
 10
-27937.1475262
 20
80758.4172585
 10
-27937.1475262
 20
85889.5947673
  0
TEXT
  5
FC
330
1F
100
AcDbEntity
  8
DS_CTEXT
  6
ByLayer
 62
256
370
-1
100
AcDbText
 10
-28024.686342
 20
82815.0797302
 30
0.0
 40
125.0
  1
53#16-[23]-120D
 50
90.0
 41
1.0
 51
0.0
  7
standard
 71
0
210
0.0
220
0.0
230
1.0
100
AcDbText
1001
DXF_STRUCTURE
1000
DE344DE239AB11E78BB3
  0
LWPOLYLINE
  5
FD
330
1F
100
AcDbEntity
  8
DS_RANGE
  6
CONTINUOUS
 62
256
370
-1
100
AcDbPolyline
 90
2
 70
0
 43
0.0
 10
-32543.7169526
 20
84711.7915644
 10
-26304.5378586
 20
84711.7915644
  0
CIRCLE
  5
FE
330
1F
100
AcDbEntity
  8
DS_RANGE
  6
CONTINUOUS
 62
256
370
-1
100
AcDbCircle
 10
-27937.1475262
 20
84711.7915644
 40
50.0
  0
LINE
  5
FF
330
1F
100
AcDbEntity
  8
DS_RANGE
  6
CONTINUOUS
 62
256
370
-1
100
AcDbLine
 10
-32543.7169526
 20
84711.7915644
 11
-32299.4043493
 21
84764.0120999
  0
LINE
  5
100
330
1F
100
AcDbEntity
  8
DS_RANGE
  6
CONTINUOUS
 62
256
370
-1
100
AcDbLine
 10
-32543.7169526
 20
84711.7915644
 11
-32299.4043493
 21
84659.5710288
  0
LINE
  5
101
330
1F
100
AcDbEntity
  8
DS_RANGE
  6
CONTINUOUS
 62
256
370
-1
100
AcDbLine
 10
-32543.7169526
 20
84576.1360979
 11
-32543.7169526
 21
84847.4470309
  0
LINE
  5
102
330
1F
100
AcDbEntity
  8
DS_RANGE
  6
CONTINUOUS
 62
256
370
-1
100
AcDbLine
 10
-26304.5378586
 20
84711.7915644
 11
-26548.8504618
 21
84764.0120999
  0
LINE
  5
103
330
1F
100
AcDbEntity
  8
DS_RANGE
  6
CONTINUOUS
 62
256
370
-1
100
AcDbLine
 10
-26304.5378586
 20
84711.7915644
 11
-26548.8504618
 21
84659.5710288
  0
LINE
  5
104
330
1F
100
AcDbEntity
  8
DS_RANGE
  6
CONTINUOUS
 62
256
370
-1
100
AcDbLine
 10
-26304.5378586
 20
84576.1360979
 11
-26304.5378586
 21
84847.4470309
  0
LINE
  5
105
330
1F
100
AcDbEntity
  8
DS_RANGE
  6
CONTINUOUS
 62
256
370
-1
100
AcDbLine
 10
-37753.6128992
 20
82660.6091711
 11
-37509.3002959
 21
82712.8297067
  0
LINE
  5
106
330
1F
100
AcDbEntity
  8
DS_RANGE
  6
CONTINUOUS
 62
256
370
-1
100
AcDbLine
 10
-37753.6128992
 20
82660.6091711
 11
-37509.3002959
 21
82608.3886355
  0
LINE
  5
107
330
1F
100
AcDbEntity
  8
DS_RANGE
  6
CONTINUOUS
 62
256
370
-1
100
AcDbLine
 10
-37753.6128992
 20
82524.9537046
 11
-37753.6128992
 21
82796.2646376
  0
LINE
  5
108
330
1F
100
AcDbEntity
  8
DS_RANGE
  6
CONTINUOUS
 62
256
370
-1
100
AcDbLine
 10
-22057.5991635
 20
82660.6091711
 11
-22301.9117667
 21
82712.8297067
  0
LINE
  5
109
330
1F
100
AcDbEntity
  8
DS_RANGE
  6
CONTINUOUS
 62
256
370
-1
100
AcDbLine
 10
-22057.5991635
 20
82660.6091711
 11
-22301.9117667
 21
82608.3886355
  0
LINE
  5
10A
330
1F
100
AcDbEntity
  8
DS_RANGE
  6
CONTINUOUS
 62
256
370
-1
100
AcDbLine
 10
-22057.5991635
 20
82524.9537046
 11
-22057.5991635
 21
82796.2646376
  0
LINE
  5
10B
330
1F
100
AcDbEntity
  8
DS_RANGE
  6
CONTINUOUS
 62
256
370
-1
100
AcDbLine
 10
-29552.787021
 20
86957.7758443
 11
-29605.0075566
 21
86713.463241
  0
LINE
  5
10C
330
1F
100
AcDbEntity
  8
DS_RANGE
  6
CONTINUOUS
 62
256
370
-1
100
AcDbLine
 10
-29552.787021
 20
86957.7758443
 11
-29500.5664854
 21
86713.463241
  0
LINE
  5
10D
330
1F
100
AcDbEntity
  8
DS_RANGE
  6
CONTINUOUS
 62
256
370
-1
100
AcDbLine
 10
-29417.1315545
 20
86957.7758443
 11
-29688.4424875
 21
86957.7758443
  0
LINE
  5
10E
330
1F
100
AcDbEntity
  8
DS_RANGE
  6
CONTINUOUS
 62
256
370
-1
100
AcDbLine
 10
-29552.787021
 20
82057.7758443
 11
-29605.0075566
 21
82302.0884475
  0
LINE
  5
10F
330
1F
100
AcDbEntity
  8
DS_RANGE
  6
CONTINUOUS
 62
256
370
-1
100
AcDbLine
 10
-29552.787021
 20
82057.7758443
 11
-29500.5664854
 21
82302.0884475
  0
LINE
  5
110
330
1F
100
AcDbEntity
  8
DS_RANGE
  6
CONTINUOUS
 62
256
370
-1
100
AcDbLine
 10
-29417.1315545
 20
82057.7758443
 11
-29688.4424875
 21
82057.7758443
  0
LINE
  5
111
330
1F
100
AcDbEntity
  8
DS_RANGE
  6
CONTINUOUS
 62
256
370
-1
100
AcDbLine
 10
-29552.787021
 20
79652.2845935
 11
-29605.0075566
 21
79896.5971967
  0
LINE
  5
112
330
1F
100
AcDbEntity
  8
DS_RANGE
  6
CONTINUOUS
 62
256
370
-1
100
AcDbLine
 10
-29552.787021
 20
79652.2845935
 11
-29500.5664854
 21
79896.5971967
  0
LINE
  5
113
330
1F
100
AcDbEntity
  8
DS_RANGE
  6
CONTINUOUS
 62
256
370
-1
100
AcDbLine
 10
-29417.1315545
 20
79652.2845935
 11
-29688.4424875
 21
79652.2845935
  0
LINE
  5
114
330
1F
100
AcDbEntity
  8
DS_RANGE
  6
CONTINUOUS
 62
256
370
-1
100
AcDbLine
 10
-29552.787021
 20
81957.7758443
 11
-29605.0075566
 21
81713.463241
  0
LINE
  5
115
330
1F
100
AcDbEntity
  8
DS_RANGE
  6
CONTINUOUS
 62
256
370
-1
100
AcDbLine
 10
-29552.787021
 20
81957.7758443
 11
-29500.5664854
 21
81713.463241
  0
LINE
  5
116
330
1F
100
AcDbEntity
  8
DS_RANGE
  6
CONTINUOUS
 62
256
370
-1
100
AcDbLine
 10
-29417.1315545
 20
81957.7758443
 11
-29688.4424875
 21
81957.7758443
  0
LWPOLYLINE
  5
117
330
1F
100
AcDbEntity
  8
DS_ELEMENT
  6
CONTINUOUS
 62
256
370
-1
100
AcDbPolyline
 90
4
 70
1
 43
0.0
 10
-40453.3179434
 20
89445.6105664
 10
-13135.5946933
 20
89445.6105664
 10
-13135.5946933
 20
76524.5755234
 10
-40453.3179434
 20
76524.5755234
  0
TEXT
  5
118
330
1F
100
AcDbEntity
  8
DS_ELEMENT
  6
CONTINUOUS
 62
256
370
-1
100
AcDbText
 10
-40089.689343
 20
88800.520293
 30
0.0
 40
250.0
  1
Element plytaPz1 x 3
 50
0.0
 41
1.0
 51
0.0
  7
standard
 71
0
210
0.0
220
0.0
230
1.0
100
AcDbText
  0
TEXT
  5
119
330
1F
100
AcDbEntity
  8
DS_CTEXT
  6
ByLayer
 62
256
370
-1
100
AcDbText
 10
-25666.5742898
 20
83085.394912
 30
0.0
 40
125.0
  1
69#10-[15]-200G
 50
90.0
 41
1.0
 51
0.0
  7
standard
 71
0
210
0.0
220
0.0
230
1.0
100
AcDbText
1001
DXF_STRUCTURE
1000
DE344DDE39AB11E78121
  0
CIRCLE
  5
11A
330
1F
100
AcDbEntity
  8
DS_RANGE
  6
CONTINUOUS
 62
256
370
-1
100
AcDbCircle
 10
-25592.1280313
 20
82660.6091711
 40
50.0
  0
CIRCLE
  5
11B
330
1F
100
AcDbEntity
  8
DS_RANGE
  6
CONTINUOUS
 62
256
370
-1
100
AcDbCircle
 10
-24666.3874436
 20
82660.6091711
 40
50.0
  0
LINE
  5
11C
330
1F
100
AcDbEntity
  8
DS_RANGE
  6
CONTINUOUS
 62
256
370
-1
100
AcDbLine
 10
-35988.5852105
 20
82660.6091711
 11
-36232.8978138
 21
82712.8297067
  0
LINE
  5
11D
330
1F
100
AcDbEntity
  8
DS_RANGE
  6
CONTINUOUS
 62
256
370
-1
100
AcDbLine
 10
-35988.5852105
 20
82660.6091711
 11
-36232.8978138
 21
82608.3886355
  0
LINE
  5
11E
330
1F
100
AcDbEntity
  8
DS_RANGE
  6
CONTINUOUS
 62
256
370
-1
100
AcDbLine
 10
-35988.5852105
 20
82524.9537046
 11
-35988.5852105
 21
82796.2646376
  0
LINE
  5
11F
330
1F
100
AcDbEntity
  8
DS_RANGE
  6
CONTINUOUS
 62
256
370
-1
100
AcDbLine
 10
-35666.0189886
 20
82660.6091711
 11
-35421.7063853
 21
82712.8297067
  0
LINE
  5
120
330
1F
100
AcDbEntity
  8
DS_RANGE
  6
CONTINUOUS
 62
256
370
-1
100
AcDbLine
 10
-35666.0189886
 20
82660.6091711
 11
-35421.7063853
 21
82608.3886355
  0
LINE
  5
121
330
1F
100
AcDbEntity
  8
DS_RANGE
  6
CONTINUOUS
 62
256
370
-1
100
AcDbLine
 10
-35666.0189886
 20
82524.9537046
 11
-35666.0189886
 21
82796.2646376
  0
LWPOLYLINE
  5
122
330
1F
100
AcDbEntity
  8
DS_CBAR
  6
DASHED
 62
256
370
-1
100
AcDbPolyline
 90
4
 70
0
 43
0.0
 10
-22275.8457794
 20
83079.8279955
 10
-22019.9309729
 20
83079.8279955
 10
-22019.9309729
 20
83483.3683222
 10
-23799.3381134
 20
83483.3683222
  0
TEXT
  5
123
330
1F
100
AcDbEntity
  8
DS_CTEXT
  6
ByLayer
 62
256
370
-1
100
AcDbText
 10
-22762.3764189
 20
83539.6482307
 30
0.0
 40
125.0
  1
25#12-[26]-200D
 50
0.0
 41
1.0
 51
0.0
  7
standard
 71
0
210
0.0
220
0.0
230
1.0
100
AcDbText
1001
DXF_STRUCTURE
1000
DE344DE439AB11E7BA81
  0
LWPOLYLINE
  5
124
330
1F
100
AcDbEntity
  8
DS_RANGE
  6
CONTINUOUS
 62
256
370
-1
100
AcDbPolyline
 90
2
 70
0
 43
0.0
 10
-23023.4279503
 20
81214.176604
 10
-23023.4279503
 20
86114.176604
  0
CIRCLE
  5
125
330
1F
100
AcDbEntity
  8
DS_RANGE
  6
CONTINUOUS
 62
256
370
-1
100
AcDbCircle
 10
-23023.4279503
 20
83483.3683222
 40
50.0
  0
LINE
  5
126
330
1F
100
AcDbEntity
  8
0
  6
CONTINUOUS
 62
256
370
-1
100
AcDbLine
 10
-33081.9527947
 20
84057.2407007
 11
-33081.9527947
 21
83203.8313275
  0
LINE
  5
127
330
1F
100
AcDbEntity
  8
0
  6
CONTINUOUS
 62
256
370
-1
100
AcDbLine
 10
-33081.9527947
 20
83203.8313275
 11
-31718.345936
 21
83203.8313275
  0
LINE
  5
128
330
1F
100
AcDbEntity
  8
0
  6
CONTINUOUS
 62
256
370
-1
100
AcDbLine
 10
-31718.345936
 20
84057.2407007
 11
-31718.345936
 21
83203.8313275
  0
LINE
  5
129
330
1F
100
AcDbEntity
  8
0
  6
CONTINUOUS
 62
256
370
-1
100
AcDbLine
 10
-33081.9527947
 20
84057.2407007
 11
-31718.345936
 21
84057.2407007
  0
LWPOLYLINE
  5
12A
330
1F
100
AcDbEntity
  8
DS_CBAR
  6
ByLayer
 62
256
370
-1
100
AcDbPolyline
 90
2
 70
0
 43
0.0
 10
-33538.7924577
 20
84183.4123207
 10
-31087.2948733
 20
84183.4123207
  0
LWPOLYLINE
  5
12B
330
1F
100
AcDbEntity
  8
DS_CBAR
  6
ByLayer
 62
256
370
-1
100
AcDbPolyline
 90
2
 70
0
 43
0.0
 10
-33538.7924577
 20
83063.3365624
 10
-31087.2948733
 20
83063.3365624
  0
LWPOLYLINE
  5
12C
330
1F
100
AcDbEntity
  8
DS_CBAR
  6
ByLayer
 62
256
370
-1
100
AcDbPolyline
 90
2
 70
0
 43
0.0
 10
-33208.1244147
 20
84514.0803638
 10
-33208.1244147
 20
82475.0950693
  0
LWPOLYLINE
  5
12D
330
1F
100
AcDbEntity
  8
DS_CBAR
  6
ByLayer
 62
256
370
-1
100
AcDbPolyline
 90
2
 70
0
 43
0.0
 10
-31592.174316
 20
84514.0803638
 10
-31592.174316
 20
82475.0950693
  0
TEXT
  5
12E
330
1F
100
AcDbEntity
  8
DS_CTEXT
  6
ByLayer
 62
256
370
-1
100
AcDbText
 10
-33295.9897462
 20
84359.3445637
 30
0.0
 40
125.0
  1
1#10-[28]-DG
 50
90.0
 41
1.0
 51
0.0
  7
standard
 71
0
210
0.0
220
0.0
230
1.0
100
AcDbText
1001
DXF_STRUCTURE
1000
DE344DEA39AB11E7954B
  0
TEXT
  5
12F
330
1F
100
AcDbEntity
  8
DS_CTEXT
  6
ByLayer
 62
256
370
-1
100
AcDbText
 10
-31318.3370343
 20
84253.9776864
 30
0.0
 40
125.0
  1
1#10-[25]-DG
 50
0.0
 41
1.0
 51
0.0
  7
standard
 71
0
210
0.0
220
0.0
230
1.0
100
AcDbText
1001
DXF_STRUCTURE
1000
DE344DE639AB11E782CF
  0
TEXT
  5
130
330
1F
100
AcDbEntity
  8
DS_CTEXT
  6
ByLayer
 62
256
370
-1
100
AcDbText
 10
-31642.7837902
 20
84359.3445637
 30
0.0
 40
125.0
  1
1#10-[28]-DG
 50
90.0
 41
1.0
 51
0.0
  7
standard
 71
0
210
0.0
220
0.0
230
1.0
100
AcDbText
1001
DXF_STRUCTURE
1000
DE344DEC39AB11E796BE
  0
TEXT
  5
131
330
1F
100
AcDbEntity
  8
DS_CTEXT
  6
ByLayer
 62
256
370
-1
100
AcDbText
 10
-31318.3370343
 20
83133.901928
 30
0.0
 40
125.0
  1
1#10-[25]-DG
 50
0.0
 41
1.0
 51
0.0
  7
standard
 71
0
210
0.0
220
0.0
230
1.0
100
AcDbText
1001
DXF_STRUCTURE
1000
DE344DE839AB11E79991
  0
LINE
  5
132
330
1F
100
AcDbEntity
  8
DS_RANGE
  6
CONTINUOUS
 62
256
370
-1
100
AcDbLine
 10
-23023.4279503
 20
86114.176604
 11
-23075.6484859
 21
85869.8640007
  0
LINE
  5
133
330
1F
100
AcDbEntity
  8
DS_RANGE
  6
CONTINUOUS
 62
256
370
-1
100
AcDbLine
 10
-23023.4279503
 20
86114.176604
 11
-22971.2074147
 21
85869.8640007
  0
LINE
  5
134
330
1F
100
AcDbEntity
  8
DS_RANGE
  6
CONTINUOUS
 62
256
370
-1
100
AcDbLine
 10
-22887.7724838
 20
86114.176604
 11
-23159.0834168
 21
86114.176604
  0
LINE
  5
135
330
1F
100
AcDbEntity
  8
DS_RANGE
  6
CONTINUOUS
 62
256
370
-1
100
AcDbLine
 10
-23023.4279503
 20
81214.176604
 11
-23075.6484859
 21
81458.4892073
  0
LINE
  5
136
330
1F
100
AcDbEntity
  8
DS_RANGE
  6
CONTINUOUS
 62
256
370
-1
100
AcDbLine
 10
-23023.4279503
 20
81214.176604
 11
-22971.2074147
 21
81458.4892073
  0
LINE
  5
137
330
1F
100
AcDbEntity
  8
DS_RANGE
  6
CONTINUOUS
 62
256
370
-1
100
AcDbLine
 10
-22887.7724838
 20
81214.176604
 11
-23159.0834168
 21
81214.176604
  0
TEXT
  5
138
330
1F
100
AcDbEntity
  8
DS_CTEXT
  6
ByLayer
 62
256
370
-1
100
AcDbText
 10
-34334.3239136
 20
81155.160556
 30
0.0
 40
125.0
  1
12#10-[14]-200G
 50
0.0
 41
1.0
 51
0.0
  7
standard
 71
0
210
0.0
220
0.0
230
1.0
100
AcDbText
1001
DXF_STRUCTURE
1000
DE344DEE39AB11E7A4FF
  0
LWPOLYLINE
  5
139
330
1F
100
AcDbEntity
  8
DS_CBAR
  6
DASHED
 62
256
370
-1
100
AcDbPolyline
 90
3
 70
0
 43
0.0
 10
-35925.2591831
 20
80489.3679747
 10
-35925.2591831
 20
81092.045976
 10
-28051.5409495
 20
81092.045976
  0
CIRCLE
  5
13A
330
1F
100
AcDbEntity
  8
DS_RANGE
  6
CONTINUOUS
 62
256
370
-1
100
AcDbCircle
 10
-29552.787021
 20
81092.045976
 40
50.0
  0
LWPOLYLINE
  5
13B
330
1F
100
AcDbEntity
  8
DS_CBAR
  6
DASHED
 62
256
370
-1
100
AcDbPolyline
 90
3
 70
0
 43
0.0
 10
-28569.5259392
 20
81313.5156139
 10
-22018.893413
 20
81313.5156139
 10
-22018.893413
 20
80710.8376126
  0
LWPOLYLINE
  5
13C
330
1F
100
AcDbEntity
  8
DS_CBAR
  6
DASHED
 62
256
370
-1
100
AcDbPolyline
 90
3
 70
0
 43
0.0
 10
-28639.637769
 20
81016.4868502
 10
-22018.893413
 20
81016.4868502
 10
-22018.893413
 20
80413.8088489
  0
TEXT
  5
13D
330
1F
100
AcDbEntity
  8
DS_CTEXT
  6
ByLayer
 62
256
370
-1
100
AcDbText
 10
-27093.7798552
 20
81376.6301939
 30
0.0
 40
125.0
  1
12#10-[21]-200G
 50
0.0
 41
1.0
 51
0.0
  7
standard
 71
0
210
0.0
220
0.0
230
1.0
100
AcDbText
1001
DXF_STRUCTURE
1000
DE344DF039AB11E79BE5
  0
TEXT
  5
13E
330
1F
100
AcDbEntity
  8
DS_CTEXT
  6
ByLayer
 62
256
370
-1
100
AcDbText
 10
-27093.7798552
 20
81079.6014302
 30
0.0
 40
125.0
  1
12#10-[18]-200G
 50
0.0
 41
1.0
 51
0.0
  7
standard
 71
0
210
0.0
220
0.0
230
1.0
100
AcDbText
1001
DXF_STRUCTURE
1000
DE344DF239AB11E7A895
  0
LWPOLYLINE
  5
13F
330
1F
100
AcDbEntity
  8
DS_RANGE
  6
CONTINUOUS
 62
256
370
-1
100
AcDbPolyline
 90
2
 70
0
 43
0.0
 10
-24177.8265896
 20
81957.7758443
 10
-24177.8265896
 20
79652.2845935
  0
CIRCLE
  5
140
330
1F
100
AcDbEntity
  8
DS_RANGE
  6
CONTINUOUS
 62
256
370
-1
100
AcDbCircle
 10
-24177.8265896
 20
81313.5156139
 40
50.0
  0
LINE
  5
141
330
1F
100
AcDbEntity
  8
DS_RANGE
  6
CONTINUOUS
 62
256
370
-1
100
AcDbLine
 10
-24177.8265896
 20
79652.2845935
 11
-24230.0471252
 21
79896.5971967
  0
LINE
  5
142
330
1F
100
AcDbEntity
  8
DS_RANGE
  6
CONTINUOUS
 62
256
370
-1
100
AcDbLine
 10
-24177.8265896
 20
79652.2845935
 11
-24125.606054
 21
79896.5971967
  0
LINE
  5
143
330
1F
100
AcDbEntity
  8
DS_RANGE
  6
CONTINUOUS
 62
256
370
-1
100
AcDbLine
 10
-24042.1711231
 20
79652.2845935
 11
-24313.4820561
 21
79652.2845935
  0
LINE
  5
144
330
1F
100
AcDbEntity
  8
DS_RANGE
  6
CONTINUOUS
 62
256
370
-1
100
AcDbLine
 10
-24177.8265896
 20
81957.7758443
 11
-24230.0471252
 21
81713.463241
  0
LINE
  5
145
330
1F
100
AcDbEntity
  8
DS_RANGE
  6
CONTINUOUS
 62
256
370
-1
100
AcDbLine
 10
-24177.8265896
 20
81957.7758443
 11
-24125.606054
 21
81713.463241
  0
LINE
  5
146
330
1F
100
AcDbEntity
  8
DS_RANGE
  6
CONTINUOUS
 62
256
370
-1
100
AcDbLine
 10
-24042.1711231
 20
81957.7758443
 11
-24313.4820561
 21
81957.7758443
  0
CIRCLE
  5
147
330
1F
100
AcDbEntity
  8
DS_RANGE
  6
CONTINUOUS
 62
256
370
-1
100
AcDbCircle
 10
-24177.8265896
 20
81016.4868502
 40
50.0
  0
LINE
  5
2000E
330
1F
100
AcDbEntity
  8
0
 67
0
 62
5
100
AcDbLine
 10
222.0
 20
200.0
 11
522.0
 21
600.0
  0
LINE
  5
2000F
330
1F
100
AcDbEntity
  8
0
 67
0
 62
5
100
AcDbLine
 10
222.0
 20
200.0
 11
522.0
 21
600.0
  0
LINE
  5
20011
330
1F
100
AcDbEntity
  8
0
 67
0
 62
5
100
AcDbLine
 10
222.0
 20
200.0
 11
522.0
 21
600.0
  0
LINE
  5
20012
330
1F
100
AcDbEntity
  8
0
 67
0
 62
5
100
AcDbLine
 10
222.0
 20
200.0
 11
522.0
 21
600.0
  0
LINE
  5
20175
330
1F
100
AcDbEntity
  8
0
 67
0
 62
5
100
AcDbLine
 10
222.0
 20
200.0
 11
522.0
 21
600.0
  0
LINE
  5
20176
330
1F
100
AcDbEntity
  8
0
 67
0
 62
5
100
AcDbLine
 10
222.0
 20
200.0
 11
522.0
 21
600.0
  0
LINE
  5
20177
330
1F
100
AcDbEntity
  8
0
 67
0
 62
5
100
AcDbLine
 10
222.0
 20
200.0
 11
522.0
 21
600.0
  0
LINE
  5
20178
330
1F
100
AcDbEntity
  8
0
 67
0
 62
5
100
AcDbLine
 10
222.0
 20
200.0
 11
522.0
 21
600.0
  0
LINE
  5
20179
330
1F
100
AcDbEntity
  8
0
 67
0
 62
5
100
AcDbLine
 10
222.0
 20
200.0
 11
522.0
 21
600.0
  0
LINE
  5
2017A
330
1F
100
AcDbEntity
  8
0
 67
0
 62
5
100
AcDbLine
 10
222.0
 20
200.0
 11
522.0
 21
600.0
  0
LINE
  5
2017B
330
1F
100
AcDbEntity
  8
0
 67
0
 62
5
100
AcDbLine
 10
222.0
 20
200.0
 11
522.0
 21
600.0
  0
LINE
  5
2017C
330
1F
100
AcDbEntity
  8
0
 67
0
 62
5
100
AcDbLine
 10
222.0
 20
200.0
 11
522.0
 21
600.0
  0
LINE
  5
2017D
330
1F
100
AcDbEntity
  8
0
 67
0
 62
5
100
AcDbLine
 10
222.0
 20
200.0
 11
522.0
 21
600.0
  0
LINE
  5
2017E
330
1F
100
AcDbEntity
  8
0
 67
0
 62
5
100
AcDbLine
 10
222.0
 20
200.0
 11
522.0
 21
600.0
  0
LINE
  5
2017F
330
1F
100
AcDbEntity
  8
0
 67
0
 62
5
100
AcDbLine
 10
222.0
 20
200.0
 11
522.0
 21
600.0
  0
LINE
  5
20180
330
1F
100
AcDbEntity
  8
0
 67
0
 62
5
100
AcDbLine
 10
222.0
 20
200.0
 11
522.0
 21
600.0
  0
LINE
  5
20181
330
1F
100
AcDbEntity
  8
0
 67
0
 62
5
100
AcDbLine
 10
222.0
 20
200.0
 11
522.0
 21
600.0
  0
LINE
  5
20182
330
1F
100
AcDbEntity
  8
0
 67
0
 62
5
100
AcDbLine
 10
222.0
 20
200.0
 11
522.0
 21
600.0
  0
LINE
  5
20183
330
1F
100
AcDbEntity
  8
0
 67
0
 62
5
100
AcDbLine
 10
222.0
 20
200.0
 11
522.0
 21
600.0
  0
LINE
  5
20184
330
1F
100
AcDbEntity
  8
0
 67
0
 62
5
100
AcDbLine
 10
222.0
 20
200.0
 11
522.0
 21
600.0
  0
LINE
  5
20185
330
1F
100
AcDbEntity
  8
0
 67
0
 62
5
100
AcDbLine
 10
222.0
 20
200.0
 11
522.0
 21
600.0
  0
LINE
  5
20186
330
1F
100
AcDbEntity
  8
0
 67
0
 62
5
100
AcDbLine
 10
222.0
 20
200.0
 11
522.0
 21
600.0
  0
LINE
  5
20187
330
1F
100
AcDbEntity
  8
0
 67
0
 62
5
100
AcDbLine
 10
222.0
 20
200.0
 11
522.0
 21
600.0
  0
LINE
  5
20188
330
1F
100
AcDbEntity
  8
0
 67
0
 62
5
100
AcDbLine
 10
222.0
 20
200.0
 11
522.0
 21
600.0
  0
LINE
  5
20189
330
1F
100
AcDbEntity
  8
0
 67
0
 62
5
100
AcDbLine
 10
222.0
 20
200.0
 11
522.0
 21
600.0
  0
LINE
  5
2018A
330
1F
100
AcDbEntity
  8
0
 67
0
 62
5
100
AcDbLine
 10
222.0
 20
200.0
 11
522.0
 21
600.0
  0
LINE
  5
2018B
330
1F
100
AcDbEntity
  8
0
 67
0
 62
5
100
AcDbLine
 10
222.0
 20
200.0
 11
522.0
 21
600.0
  0
LINE
  5
2018C
330
1F
100
AcDbEntity
  8
0
 67
0
 62
5
100
AcDbLine
 10
222.0
 20
200.0
 11
522.0
 21
600.0
  0
LINE
  5
2018D
330
1F
100
AcDbEntity
  8
0
 67
0
 62
5
100
AcDbLine
 10
222.0
 20
200.0
 11
522.0
 21
600.0
  0
LINE
  5
2018E
330
1F
100
AcDbEntity
  8
0
 67
0
 62
5
100
AcDbLine
 10
222.0
 20
200.0
 11
522.0
 21
600.0
  0
MTEXT
  5
2018F
330
1F
100
AcDbEntity
  8
DS_SCHEDULE
 67
0
 62
2
100
AcDbMText
 50
0.0
 40
150.0
 41
1.0
 71
1
 72
5
 73
1
  3
{\Fcdm;-----------  ----  -----  -----  -----  -----  -----  -------  ------  -------  -------\PElement      Poz.  Typ    Sred.  Dl.    Masa   Ilosc  Pretow   Laczna  Laczna   Laczna\P             nr    stali  preta  preta  preta  elem.  w elem.  ilo
  3
sc   dl.      masa\P                                 [mm]   [kg]                           [m]      [kg]\P---          ---   ---    ---    ---    ---    ---    ---      ---     ---      ---\PBk1          4     B500A  20     12740  31.42  5      47   
  3
    235     2993.9   7383.7\PBk1          5     B500A  12     11245  9.99   5      10       50      562.25   499.5\PBk1          6     B500A  10     11245  6.94   5      12       60      674.71   416.4\PBk1          7     B500A  10     9940   6.13   
  3
5      5        25      248.5    153.25\PBk1          8     B500A  10     9935   6.13   5      5        25      248.38   153.25\PBk1          16    B500A  10     7200   4.44   5      55       275     1980.0   1221.0\PBk1          17    B500A  10     
  3
7235   4.46   5      40       200     1447.0   892.0\PBk1          19    B500A  10     7195   4.44   5      145      725     5216.38  3219.0\P---          ---   ---    ---    ---    ---    ---    ---      ---     ---      ---\Pslup3        9     B500
  3
A  10     9665   5.96   10     47       470     4542.55  2801.2\Pslup3        13    B500A  10     8635   5.33   10     94       940     8116.9   2505.1\Pslup3        20    B500A  12     7195   6.39   10     10       100     719.5    639.0\P---       
  3
   ---   ---    ---    ---    ---    ---    ---      ---     ---      ---\P(not named)  9     B500A  10     9665   5.96   1      20       20      193.3    119.2\P(not named)  13    B500A  10     8635   5.33   1      42       42      362.67   111.93\P
  3
(not named)  20    B500A  12     7195   6.39   1      15       15      107.92   95.85\P---          ---   ---    ---    ---    ---    ---    ---      ---     ---      ---\P(not named)  9     B500A  10     9665   5.96   1      20       20      193.3  
  3
  119.2\P(not named)  13    B500A  10     8635   5.33   1      42       42      362.67   111.93\P(not named)  20    B500A  12     7195   6.39   1      15       15      107.92   95.85\P---          ---   ---    ---    ---    ---    ---    ---      ---
  3
     ---      ---\PplytaPz1     1     B500A  10     16985  10.48  3      25       75      1273.88  786.0\PplytaPz1     2     B500A  12     16075  14.27  3      25       75      1205.63  1070.25\PplytaPz1     3     B500A  12     14205  12.61  3      1
  3
2       36      511.38   453.96\PplytaPz1     10    B500A  10     8950   5.52   3      12       36      322.2    198.72\PplytaPz1     14    B500A  10     8480   5.23   3      12       36      305.28   188.28\PplytaPz1     15    B500A  10     8445   5
  3
.21   3      69       207     1748.12  1078.47\PplytaPz1     16    B500A  12     7535   6.69   3      69       207     1559.74  1384.83\PplytaPz1     18    B500A  10     7225   4.46   3      12       36      260.1    160.56\PplytaPz1     21    B500A 
  3
 10     7155   4.41   3      12       36      257.58   158.76\PplytaPz1     22    B500A  10     5955   3.67   3      9        27      160.78   99.09\PplytaPz1     23    B500A  16     5130   8.1    3      53       159     815.67   1287.9\PplytaPz1    
  3
 24    B500A  12     5045   4.48   3      9        27      136.22   120.96\PplytaPz1     25    B500A  10     2450   1.51   3      4        12      29.4     9.06\PplytaPz1     26    B500A  12     2440   2.17   3      25       75      183.0    162.75\P
  3
plytaPz1     27    B500A  10     2130   1.31   3      8        24      51.12    15.72\PplytaPz1     28    B500A  10     2040   1.26   3      4        12      24.48    7.56\P---          ---   ---    ---    ---    ---    ---    ---      ---     ---   
  3
   ---\PFreeBars     11    B500A  10     8680   5.36   1.0    20       20.0    173.6    107.2\PFreeBars     12    B500A  10     8660   5.34   1.0    20       20.0    173.2    106.8\P-----------  ----  -----  -----  -----  -----  -----  -------  -----
  1
-  -------  -------\PCALKOWITA MASA DLA RYSUNKU : 27934.2 [kg]}
 10
0.0
 20
0.0
 30
0.0
  0
LINE
  5
20190
330
1F
100
AcDbEntity
  8
DS_SCHEDULE
 67
0
 62
1
100
AcDbLine
 10
25000.0
 20
-602.6780013
 11
25000.0
 21
0.0
  0
TEXT
  5
20191
330
1F
100
AcDbEntity
  8
DS_SCHEDULE
 67
0
 62
2
100
AcDbText
 10
25000.0
 20
-301.33900065
 40
180.0
  1
605
 50
0.0
 51
0.0
  7
STANDARD
 41
1.0
 71
0
 72
0
 11
25000.0
 21
-301.33900065
100
AcDbText
 73
2
  0
LINE
  5
20192
330
1F
100
AcDbEntity
  8
DS_SCHEDULE
 67
0
 62
1
100
AcDbLine
 10
25000.0
 20
0.0
 11
40773.4513782
 21
0.0
  0
TEXT
  5
20193
330
1F
100
AcDbEntity
  8
DS_SCHEDULE
 67
0
 62
2
100
AcDbText
 10
32886.7256891
 20
0.0
 40
180.0
  1
15775
 50
0.0
 51
0.0
  7
STANDARD
 41
1.0
 71
0
 72
0
 11
32886.7256891
 21
0.0
100
AcDbText
 73
2
  0
LINE
  5
20194
330
1F
100
AcDbEntity
  8
DS_SCHEDULE
 67
0
 62
1
100
AcDbLine
 10
40773.4513782
 20
0.0
 11
40773.4513782
 21
-602.6780013
  0
TEXT
  5
20195
330
1F
100
AcDbEntity
  8
DS_SCHEDULE
 67
0
 62
2
100
AcDbText
 10
40773.4513782
 20
-301.33900065
 40
180.0
  1
605
 50
0.0
 51
0.0
  7
STANDARD
 41
1.0
 71
0
 72
0
 11
40773.4513782
 21
-301.33900065
100
AcDbText
 73
2
  0
MTEXT
  5
20196
330
1F
100
AcDbEntity
  8
DS_SCHEDULE
 67
0
 62
2
100
AcDbMText
 50
0.0
 40
200.0
 41
1.0
 71
1
 72
5
 73
1
  1
#10[1] L = 16985
 10
25000.0
 20
500.0
 30
0.0
  0
LINE
  5
20197
330
1F
100
AcDbEntity
  8
DS_SCHEDULE
 67
0
 62
1
100
AcDbLine
 10
25000.0
 20
-1702.6780013
 11
25000.0
 21
-1852.6780013
  0
TEXT
  5
20198
330
1F
100
AcDbEntity
  8
DS_SCHEDULE
 67
0
 62
2
100
AcDbText
 10
25000.0
 20
-1777.6780013
 40
180.0
  1
150
 50
0.0
 51
0.0
  7
STANDARD
 41
1.0
 71
0
 72
0
 11
25000.0
 21
-1777.6780013
100
AcDbText
 73
2
  0
LINE
  5
20199
330
1F
100
AcDbEntity
  8
DS_SCHEDULE
 67
0
 62
1
100
AcDbLine
 10
25000.0
 20
-1852.6780013
 11
40773.4513782
 21
-1852.6780013
  0
TEXT
  5
2019A
330
1F
100
AcDbEntity
  8
DS_SCHEDULE
 67
0
 62
2
100
AcDbText
 10
32886.7256891
 20
-1852.6780013
 40
180.0
  1
15775
 50
0.0
 51
0.0
  7
STANDARD
 41
1.0
 71
0
 72
0
 11
32886.7256891
 21
-1852.6780013
100
AcDbText
 73
2
  0
LINE
  5
2019B
330
1F
100
AcDbEntity
  8
DS_SCHEDULE
 67
0
 62
1
100
AcDbLine
 10
40773.4513782
 20
-1852.6780013
 11
40773.4513782
 21
-1702.6780013
  0
TEXT
  5
2019C
330
1F
100
AcDbEntity
  8
DS_SCHEDULE
 67
0
 62
2
100
AcDbText
 10
40773.4513782
 20
-1777.6780013
 40
180.0
  1
150
 50
0.0
 51
0.0
  7
STANDARD
 41
1.0
 71
0
 72
0
 11
40773.4513782
 21
-1777.6780013
100
AcDbText
 73
2
  0
MTEXT
  5
2019D
330
1F
100
AcDbEntity
  8
DS_SCHEDULE
 67
0
 62
2
100
AcDbMText
 50
0.0
 40
200.0
 41
1.0
 71
1
 72
5
 73
1
  1
#12[2] L = 16075
 10
25000.0
 20
-1202.6780013
 30
0.0
  0
LINE
  5
2019E
330
1F
100
AcDbEntity
  8
DS_SCHEDULE
 67
0
 62
1
100
AcDbLine
 10
25000.0
 20
-2952.6780013
 11
25000.0
 21
-3102.6780013
  0
TEXT
  5
2019F
330
1F
100
AcDbEntity
  8
DS_SCHEDULE
 67
0
 62
2
100
AcDbText
 10
25000.0
 20
-3027.6780013
 40
180.0
  1
150
 50
0.0
 51
0.0
  7
STANDARD
 41
1.0
 71
0
 72
0
 11
25000.0
 21
-3027.6780013
100
AcDbText
 73
2
  0
LINE
  5
201A0
330
1F
100
AcDbEntity
  8
DS_SCHEDULE
 67
0
 62
1
100
AcDbLine
 10
25000.0
 20
-3102.6780013
 11
38906.3657701
 21
-3102.6780013
  0
TEXT
  5
201A1
330
1F
100
AcDbEntity
  8
DS_SCHEDULE
 67
0
 62
2
100
AcDbText
 10
31953.1828851
 20
-3102.6780013
 40
180.0
  1
13905
 50
0.0
 51
0.0
  7
STANDARD
 41
1.0
 71
0
 72
0
 11
31953.1828851
 21
-3102.6780013
100
AcDbText
 73
2
  0
LINE
  5
201A2
330
1F
100
AcDbEntity
  8
DS_SCHEDULE
 67
0
 62
1
100
AcDbLine
 10
38906.3657701
 20
-3102.6780013
 11
38906.3657701
 21
-2952.6780013
  0
TEXT
  5
201A3
330
1F
100
AcDbEntity
  8
DS_SCHEDULE
 67
0
 62
2
100
AcDbText
 10
38906.3657701
 20
-3027.6780013
 40
180.0
  1
150
 50
0.0
 51
0.0
  7
STANDARD
 41
1.0
 71
0
 72
0
 11
38906.3657701
 21
-3027.6780013
100
AcDbText
 73
2
  0
MTEXT
  5
201A4
330
1F
100
AcDbEntity
  8
DS_SCHEDULE
 67
0
 62
2
100
AcDbMText
 50
0.0
 40
200.0
 41
1.0
 71
1
 72
5
 73
1
  1
#12[3] L = 14205
 10
25000.0
 20
-2452.6780013
 30
0.0
  0
LINE
  5
201A5
330
1F
100
AcDbEntity
  8
DS_SCHEDULE
 67
0
 62
1
100
AcDbLine
 10
25000.0
 20
-4257.5014102
 11
27087.8269476
 21
-4257.5014102
  0
TEXT
  5
201A6
330
1F
100
AcDbEntity
  8
DS_SCHEDULE
 67
0
 62
2
100
AcDbText
 10
26043.9134738
 20
-4257.5014102
 40
180.0
  1
2090
 50
0.0
 51
0.0
  7
STANDARD
 41
1.0
 71
0
 72
0
 11
26043.9134738
 21
-4257.5014102
100
AcDbText
 73
2
  0
LINE
  5
201A7
330
1F
100
AcDbEntity
  8
DS_SCHEDULE
 67
0
 62
1
100
AcDbLine
 10
27087.8269476
 20
-4257.5014102
 11
28170.6433004
 21
-5360.317763
  0
TEXT
  5
201A8
330
1F
100
AcDbEntity
  8
DS_SCHEDULE
 67
0
 62
2
100
AcDbText
 10
27629.235124
 20
-4808.9095866
 40
180.0
  1
1545
 50
0.0
 51
0.0
  7
STANDARD
 41
1.0
 71
0
 72
0
 11
27629.235124
 21
-4808.9095866
100
AcDbText
 73
2
  0
LINE
  5
201A9
330
1F
100
AcDbEntity
  8
DS_SCHEDULE
 67
0
 62
1
100
AcDbLine
 10
28170.6433004
 20
-5360.317763
 11
33908.1187411
 21
-5360.317763
  0
TEXT
  5
201AA
330
1F
100
AcDbEntity
  8
DS_SCHEDULE
 67
0
 62
2
100
AcDbText
 10
31039.3810207
 20
-5360.317763
 40
180.0
  1
5735
 50
0.0
 51
0.0
  7
STANDARD
 41
1.0
 71
0
 72
0
 11
31039.3810207
 21
-5360.317763
100
AcDbText
 73
2
  0
LINE
  5
201AB
330
1F
100
AcDbEntity
  8
DS_SCHEDULE
 67
0
 62
1
100
AcDbLine
 10
33908.1187411
 20
-5360.317763
 11
35065.7585028
 21
-4202.6780013
  0
TEXT
  5
201AC
330
1F
100
AcDbEntity
  8
DS_SCHEDULE
 67
0
 62
2
100
AcDbText
 10
34486.9386219
 20
-4781.49788215
 40
180.0
  1
1635
 50
0.0
 51
0.0
  7
STANDARD
 41
1.0
 71
0
 72
0
 11
34486.9386219
 21
-4781.49788215
100
AcDbText
 73
2
  0
LINE
  5
201AD
330
1F
100
AcDbEntity
  8
DS_SCHEDULE
 67
0
 62
1
100
AcDbLine
 10
35065.7585028
 20
-4202.6780013
 11
36799.2373842
 21
-4202.6780013
  0
TEXT
  5
201AE
330
1F
100
AcDbEntity
  8
DS_SCHEDULE
 67
0
 62
2
100
AcDbText
 10
35932.4979435
 20
-4202.6780013
 40
180.0
  1
1735
 50
0.0
 51
0.0
  7
STANDARD
 41
1.0
 71
0
 72
0
 11
35932.4979435
 21
-4202.6780013
100
AcDbText
 73
2
  0
MTEXT
  5
201AF
330
1F
100
AcDbEntity
  8
DS_SCHEDULE
 67
0
 62
2
100
AcDbMText
 50
0.0
 40
200.0
 41
1.0
 71
1
 72
5
 73
1
  1
#20[4] L = 12740
 10
25000.0
 20
-3702.6780013
 30
0.0
  0
LINE
  5
201B0
330
1F
100
AcDbEntity
  8
DS_SCHEDULE
 67
0
 62
1
100
AcDbLine
 10
25000.0
 20
-6515.1411719
 11
27087.8269476
 21
-6515.1411719
  0
TEXT
  5
201B1
330
1F
100
AcDbEntity
  8
DS_SCHEDULE
 67
0
 62
2
100
AcDbText
 10
26043.9134738
 20
-6515.1411719
 40
180.0
  1
2090
 50
0.0
 51
0.0
  7
STANDARD
 41
1.0
 71
0
 72
0
 11
26043.9134738
 21
-6515.1411719
100
AcDbText
 73
2
  0
LINE
  5
201B2
330
1F
100
AcDbEntity
  8
DS_SCHEDULE
 67
0
 62
1
100
AcDbLine
 10
27087.8269476
 20
-6515.1411719
 11
28170.6433004
 21
-7617.9575247
  0
TEXT
  5
201B3
330
1F
100
AcDbEntity
  8
DS_SCHEDULE
 67
0
 62
2
100
AcDbText
 10
27629.235124
 20
-7066.5493483
 40
180.0
  1
1545
 50
0.0
 51
0.0
  7
STANDARD
 41
1.0
 71
0
 72
0
 11
27629.235124
 21
-7066.5493483
100
AcDbText
 73
2
  0
LINE
  5
201B4
330
1F
100
AcDbEntity
  8
DS_SCHEDULE
 67
0
 62
1
100
AcDbLine
 10
28170.6433004
 20
-7617.9575247
 11
32409.4177147
 21
-7617.9575247
  0
TEXT
  5
201B5
330
1F
100
AcDbEntity
  8
DS_SCHEDULE
 67
0
 62
2
100
AcDbText
 10
30290.0305075
 20
-7617.9575247
 40
180.0
  1
4240
 50
0.0
 51
0.0
  7
STANDARD
 41
1.0
 71
0
 72
0
 11
30290.0305075
 21
-7617.9575247
100
AcDbText
 73
2
  0
LINE
  5
201B6
330
1F
100
AcDbEntity
  8
DS_SCHEDULE
 67
0
 62
1
100
AcDbLine
 10
32409.4177147
 20
-7617.9575247
 11
33567.0574764
 21
-6460.317763
  0
TEXT
  5
201B7
330
1F
100
AcDbEntity
  8
DS_SCHEDULE
 67
0
 62
2
100
AcDbText
 10
32988.2375956
 20
-7039.13764385
 40
180.0
  1
1635
 50
0.0
 51
0.0
  7
STANDARD
 41
1.0
 71
0
 72
0
 11
32988.2375956
 21
-7039.13764385
100
AcDbText
 73
2
  0
LINE
  5
201B8
330
1F
100
AcDbEntity
  8
DS_SCHEDULE
 67
0
 62
1
100
AcDbLine
 10
33567.0574764
 20
-6460.317763
 11
35300.5363578
 21
-6460.317763
  0
TEXT
  5
201B9
330
1F
100
AcDbEntity
  8
DS_SCHEDULE
 67
0
 62
2
100
AcDbText
 10
34433.7969171
 20
-6460.317763
 40
180.0
  1
1735
 50
0.0
 51
0.0
  7
STANDARD
 41
1.0
 71
0
 72
0
 11
34433.7969171
 21
-6460.317763
100
AcDbText
 73
2
  0
MTEXT
  5
201BA
330
1F
100
AcDbEntity
  8
DS_SCHEDULE
 67
0
 62
2
100
AcDbMText
 50
0.0
 40
200.0
 41
1.0
 71
1
 72
5
 73
1
  1
#12[5] L = 11245
 10
25000.0
 20
-5960.317763
 30
0.0
  0
LINE
  5
201BB
330
1F
100
AcDbEntity
  8
DS_SCHEDULE
 67
0
 62
1
100
AcDbLine
 10
25000.0
 20
-9820.77387747
 11
27087.8269476
 21
-9820.77387755
  0
TEXT
  5
201BC
330
1F
100
AcDbEntity
  8
DS_SCHEDULE
 67
0
 62
2
100
AcDbText
 10
26043.9134738
 20
-9820.77387751
 40
180.0
  1
2090
 50
0.0
 51
0.0
  7
STANDARD
 41
1.0
 71
0
 72
0
 11
26043.9134738
 21
-9820.77387751
100
AcDbText
 73
2
  0
LINE
  5
201BD
330
1F
100
AcDbEntity
  8
DS_SCHEDULE
 67
0
 62
1
100
AcDbLine
 10
27087.8269476
 20
-9820.77387755
 11
28170.6433004
 21
-8717.9575247
  0
TEXT
  5
201BE
330
1F
100
AcDbEntity
  8
DS_SCHEDULE
 67
0
 62
2
100
AcDbText
 10
27629.235124
 20
-9269.36570113
 40
180.0
  1
1545
 50
0.0
 51
0.0
  7
STANDARD
 41
1.0
 71
0
 72
0
 11
27629.235124
 21
-9269.36570113
100
AcDbText
 73
2
  0
LINE
  5
201BF
330
1F
100
AcDbEntity
  8
DS_SCHEDULE
 67
0
 62
1
100
AcDbLine
 10
28170.6433004
 20
-8717.9575247
 11
32409.4177147
 21
-8717.9575247
  0
TEXT
  5
201C0
330
1F
100
AcDbEntity
  8
DS_SCHEDULE
 67
0
 62
2
100
AcDbText
 10
30290.0305075
 20
-8717.9575247
 40
180.0
  1
4240
 50
0.0
 51
0.0
  7
STANDARD
 41
1.0
 71
0
 72
0
 11
30290.0305075
 21
-8717.9575247
100
AcDbText
 73
2
  0
LINE
  5
201C1
330
1F
100
AcDbEntity
  8
DS_SCHEDULE
 67
0
 62
1
100
AcDbLine
 10
32409.4177147
 20
-8717.9575247
 11
33567.0574764
 21
-9875.59728641
  0
TEXT
  5
201C2
330
1F
100
AcDbEntity
  8
DS_SCHEDULE
 67
0
 62
2
100
AcDbText
 10
32988.2375955
 20
-9296.77740556
 40
180.0
  1
1635
 50
0.0
 51
0.0
  7
STANDARD
 41
1.0
 71
0
 72
0
 11
32988.2375955
 21
-9296.77740556
100
AcDbText
 73
2
  0
LINE
  5
201C3
330
1F
100
AcDbEntity
  8
DS_SCHEDULE
 67
0
 62
1
100
AcDbLine
 10
33567.0574764
 20
-9875.59728641
 11
35300.5363578
 21
-9875.59728647
  0
TEXT
  5
201C4
330
1F
100
AcDbEntity
  8
DS_SCHEDULE
 67
0
 62
2
100
AcDbText
 10
34433.7969171
 20
-9875.59728644
 40
180.0
  1
1735
 50
0.0
 51
0.0
  7
STANDARD
 41
1.0
 71
0
 72
0
 11
34433.7969171
 21
-9875.59728644
100
AcDbText
 73
2
  0
MTEXT
  5
201C5
330
1F
100
AcDbEntity
  8
DS_SCHEDULE
 67
0
 62
2
100
AcDbMText
 50
0.0
 40
200.0
 41
1.0
 71
1
 72
5
 73
1
  1
#10[6] L = 11245
 10
25000.0
 20
-8217.9575247
 30
0.0
  0
LINE
  5
201C6
330
1F
100
AcDbEntity
  8
DS_SCHEDULE
 67
0
 62
1
100
AcDbLine
 10
25000.0
 20
-11030.4206954
 11
27087.8269476
 21
-11030.4206954
  0
TEXT
  5
201C7
330
1F
100
AcDbEntity
  8
DS_SCHEDULE
 67
0
 62
2
100
AcDbText
 10
26043.9134738
 20
-11030.4206954
 40
180.0
  1
2090
 50
0.0
 51
0.0
  7
STANDARD
 41
1.0
 71
0
 72
0
 11
26043.9134738
 21
-11030.4206954
100
AcDbText
 73
2
  0
LINE
  5
201C8
330
1F
100
AcDbEntity
  8
DS_SCHEDULE
 67
0
 62
1
100
AcDbLine
 10
27087.8269476
 20
-11030.4206954
 11
28170.6433004
 21
-12133.2370482
  0
TEXT
  5
201C9
330
1F
100
AcDbEntity
  8
DS_SCHEDULE
 67
0
 62
2
100
AcDbText
 10
27629.235124
 20
-11581.8288718
 40
180.0
  1
1545
 50
0.0
 51
0.0
  7
STANDARD
 41
1.0
 71
0
 72
0
 11
27629.235124
 21
-11581.8288718
100
AcDbText
 73
2
  0
LINE
  5
201CA
330
1F
100
AcDbEntity
  8
DS_SCHEDULE
 67
0
 62
1
100
AcDbLine
 10
28170.6433004
 20
-12133.2370482
 11
31106.5941088
 21
-12133.2370482
  0
TEXT
  5
201CB
330
1F
100
AcDbEntity
  8
DS_SCHEDULE
 67
0
 62
2
100
AcDbText
 10
29638.6187046
 20
-12133.2370482
 40
180.0
  1
2935
 50
0.0
 51
0.0
  7
STANDARD
 41
1.0
 71
0
 72
0
 11
29638.6187046
 21
-12133.2370482
100
AcDbText
 73
2
  0
LINE
  5
201CC
330
1F
100
AcDbEntity
  8
DS_SCHEDULE
 67
0
 62
1
100
AcDbLine
 10
31106.5941088
 20
-12133.2370482
 11
32264.2338705
 21
-10975.5972865
  0
TEXT
  5
201CD
330
1F
100
AcDbEntity
  8
DS_SCHEDULE
 67
0
 62
2
100
AcDbText
 10
31685.4139896
 20
-11554.4171673
 40
180.0
  1
1635
 50
0.0
 51
0.0
  7
STANDARD
 41
1.0
 71
0
 72
0
 11
31685.4139896
 21
-11554.4171673
100
AcDbText
 73
2
  0
LINE
  5
201CE
330
1F
100
AcDbEntity
  8
DS_SCHEDULE
 67
0
 62
1
100
AcDbLine
 10
32264.2338705
 20
-10975.5972865
 11
33997.7127519
 21
-10975.5972865
  0
TEXT
  5
201CF
330
1F
100
AcDbEntity
  8
DS_SCHEDULE
 67
0
 62
2
100
AcDbText
 10
33130.9733112
 20
-10975.5972865
 40
180.0
  1
1735
 50
0.0
 51
0.0
  7
STANDARD
 41
1.0
 71
0
 72
0
 11
33130.9733112
 21
-10975.5972865
100
AcDbText
 73
2
  0
MTEXT
  5
201D0
330
1F
100
AcDbEntity
  8
DS_SCHEDULE
 67
0
 62
2
100
AcDbMText
 50
0.0
 40
200.0
 41
1.0
 71
1
 72
5
 73
1
  1
#10[7] L = 9940
 10
25000.0
 20
-10475.5972865
 30
0.0
  0
LINE
  5
201D1
330
1F
100
AcDbEntity
  8
DS_SCHEDULE
 67
0
 62
1
100
AcDbLine
 10
25000.0
 20
-13288.0604571
 11
27087.8269476
 21
-13288.0604571
  0
TEXT
  5
201D2
330
1F
100
AcDbEntity
  8
DS_SCHEDULE
 67
0
 62
2
100
AcDbText
 10
26043.9134738
 20
-13288.0604571
 40
180.0
  1
2090
 50
0.0
 51
0.0
  7
STANDARD
 41
1.0
 71
0
 72
0
 11
26043.9134738
 21
-13288.0604571
100
AcDbText
 73
2
  0
LINE
  5
201D3
330
1F
100
AcDbEntity
  8
DS_SCHEDULE
 67
0
 62
1
100
AcDbLine
 10
27087.8269476
 20
-13288.0604571
 11
28190.6433004
 21
-14390.8768099
  0
TEXT
  5
201D4
330
1F
100
AcDbEntity
  8
DS_SCHEDULE
 67
0
 62
2
100
AcDbText
 10
27639.235124
 20
-13839.4686335
 40
180.0
  1
1560
 50
0.0
 51
0.0
  7
STANDARD
 41
1.0
 71
0
 72
0
 11
27639.235124
 21
-13839.4686335
100
AcDbText
 73
2
  0
LINE
  5
201D5
330
1F
100
AcDbEntity
  8
DS_SCHEDULE
 67
0
 62
1
100
AcDbLine
 10
28190.6433004
 20
-14390.8768099
 11
31106.5941088
 21
-14390.8768099
  0
TEXT
  5
201D6
330
1F
100
AcDbEntity
  8
DS_SCHEDULE
 67
0
 62
2
100
AcDbText
 10
29648.6187046
 20
-14390.8768099
 40
180.0
  1
2915
 50
0.0
 51
0.0
  7
STANDARD
 41
1.0
 71
0
 72
0
 11
29648.6187046
 21
-14390.8768099
100
AcDbText
 73
2
  0
LINE
  5
201D7
330
1F
100
AcDbEntity
  8
DS_SCHEDULE
 67
0
 62
1
100
AcDbLine
 10
31106.5941088
 20
-14390.8768099
 11
32264.2338705
 21
-13233.2370482
  0
TEXT
  5
201D8
330
1F
100
AcDbEntity
  8
DS_SCHEDULE
 67
0
 62
2
100
AcDbText
 10
31685.4139896
 20
-13812.056929
 40
180.0
  1
1635
 50
0.0
 51
0.0
  7
STANDARD
 41
1.0
 71
0
 72
0
 11
31685.4139896
 21
-13812.056929
100
AcDbText
 73
2
  0
LINE
  5
201D9
330
1F
100
AcDbEntity
  8
DS_SCHEDULE
 67
0
 62
1
100
AcDbLine
 10
32264.2338705
 20
-13233.2370482
 11
33997.7127519
 21
-13233.2370482
  0
TEXT
  5
201DA
330
1F
100
AcDbEntity
  8
DS_SCHEDULE
 67
0
 62
2
100
AcDbText
 10
33130.9733112
 20
-13233.2370482
 40
180.0
  1
1735
 50
0.0
 51
0.0
  7
STANDARD
 41
1.0
 71
0
 72
0
 11
33130.9733112
 21
-13233.2370482
100
AcDbText
 73
2
  0
MTEXT
  5
201DB
330
1F
100
AcDbEntity
  8
DS_SCHEDULE
 67
0
 62
2
100
AcDbMText
 50
0.0
 40
200.0
 41
1.0
 71
1
 72
5
 73
1
  1
#10[8] L = 9935
 10
25000.0
 20
-12733.2370482
 30
0.0
  0
LINE
  5
201DC
330
1F
100
AcDbEntity
  8
DS_SCHEDULE
 67
0
 62
1
100
AcDbLine
 10
25000.0
 20
-18713.7428832
 11
25000.0
 21
-17137.6031355
  0
TEXT
  5
201DD
330
1F
100
AcDbEntity
  8
DS_SCHEDULE
 67
0
 62
2
100
AcDbText
 10
25000.0
 20
-17925.6730093
 40
180.0
  1
1575
 50
0.0
 51
0.0
  7
STANDARD
 41
1.0
 71
0
 72
0
 11
25000.0
 21
-17925.6730093
100
AcDbText
 73
2
  0
LINE
  5
201DE
330
1F
100
AcDbEntity
  8
DS_SCHEDULE
 67
0
 62
1
100
AcDbLine
 10
25000.0
 20
-17137.6031355
 11
31445.7654062
 21
-17137.6031355
  0
TEXT
  5
201DF
330
1F
100
AcDbEntity
  8
DS_SCHEDULE
 67
0
 62
2
100
AcDbText
 10
28222.8827031
 20
-17137.6031355
 40
180.0
  1
6445
 50
0.0
 51
0.0
  7
STANDARD
 41
1.0
 71
0
 72
0
 11
28222.8827031
 21
-17137.6031355
100
AcDbText
 73
2
  0
LINE
  5
201E0
330
1F
100
AcDbEntity
  8
DS_SCHEDULE
 67
0
 62
1
100
AcDbLine
 10
31445.7654062
 20
-17137.6031355
 11
31445.7654062
 21
-15490.8768099
  0
TEXT
  5
201E1
330
1F
100
AcDbEntity
  8
DS_SCHEDULE
 67
0
 62
2
100
AcDbText
 10
31445.7654062
 20
-16314.2399727
 40
180.0
  1
1645
 50
0.0
 51
0.0
  7
STANDARD
 41
1.0
 71
0
 72
0
 11
31445.7654062
 21
-16314.2399727
100
AcDbText
 73
2
  0
MTEXT
  5
201E2
330
1F
100
AcDbEntity
  8
DS_SCHEDULE
 67
0
 62
2
100
AcDbMText
 50
0.0
 40
200.0
 41
1.0
 71
1
 72
5
 73
1
  1
#10[9] L = 9665
 10
25000.0
 20
-14990.8768099
 30
0.0
  0
LINE
  5
201E3
330
1F
100
AcDbEntity
  8
DS_SCHEDULE
 67
0
 62
1
100
AcDbLine
 10
25000.0
 20
-20416.4208845
 11
25000.0
 21
-19813.7428832
  0
TEXT
  5
201E4
330
1F
100
AcDbEntity
  8
DS_SCHEDULE
 67
0
 62
2
100
AcDbText
 10
25000.0
 20
-20115.0818838
 40
180.0
  1
605
 50
0.0
 51
0.0
  7
STANDARD
 41
1.0
 71
0
 72
0
 11
25000.0
 21
-20115.0818838
100
AcDbText
 73
2
  0
LINE
  5
201E5
330
1F
100
AcDbEntity
  8
DS_SCHEDULE
 67
0
 62
1
100
AcDbLine
 10
25000.0
 20
-19813.7428832
 11
33346.3157178
 21
-19813.7428832
  0
TEXT
  5
201E6
330
1F
100
AcDbEntity
  8
DS_SCHEDULE
 67
0
 62
2
100
AcDbText
 10
29173.1578589
 20
-19813.7428832
 40
180.0
  1
8345
 50
0.0
 51
0.0
  7
STANDARD
 41
1.0
 71
0
 72
0
 11
29173.1578589
 21
-19813.7428832
100
AcDbText
 73
2
  0
MTEXT
  5
201E7
330
1F
100
AcDbEntity
  8
DS_SCHEDULE
 67
0
 62
2
100
AcDbMText
 50
0.0
 40
200.0
 41
1.0
 71
1
 72
5
 73
1
  1
#10[10] L = 8950
 10
25000.0
 20
-19313.7428832
 30
0.0
  0
LINE
  5
201E8
330
1F
100
AcDbEntity
  8
DS_SCHEDULE
 67
0
 62
1
100
AcDbLine
 10
25000.0
 20
-22264.1017556
 11
32930.9519588
 21
-22264.1017556
  0
TEXT
  5
201E9
330
1F
100
AcDbEntity
  8
DS_SCHEDULE
 67
0
 62
2
100
AcDbText
 10
28965.4759794
 20
-22264.1017556
 40
180.0
  1
7930
 50
0.0
 51
0.0
  7
STANDARD
 41
1.0
 71
0
 72
0
 11
28965.4759794
 21
-22264.1017556
100
AcDbText
 73
2
  0
LINE
  5
201EA
330
1F
100
AcDbEntity
  8
DS_SCHEDULE
 67
0
 62
1
100
AcDbLine
 10
32930.9519588
 20
-22264.1017556
 11
32930.9519588
 21
-21516.4208845
  0
TEXT
  5
201EB
330
1F
100
AcDbEntity
  8
DS_SCHEDULE
 67
0
 62
2
100
AcDbText
 10
32930.9519588
 20
-21890.26132
 40
180.0
  1
750
 50
0.0
 51
0.0
  7
STANDARD
 41
1.0
 71
0
 72
0
 11
32930.9519588
 21
-21890.26132
100
AcDbText
 73
2
  0
MTEXT
  5
201EC
330
1F
100
AcDbEntity
  8
DS_SCHEDULE
 67
0
 62
2
100
AcDbMText
 50
0.0
 40
200.0
 41
1.0
 71
1
 72
5
 73
1
  1
#10[11] L = 8680
 10
25000.0
 20
-21016.4208845
 30
0.0
  0
LINE
  5
201ED
330
1F
100
AcDbEntity
  8
DS_SCHEDULE
 67
0
 62
1
100
AcDbLine
 10
25000.0
 20
-24111.7826268
 11
32910.9519588
 21
-24111.7826268
  0
TEXT
  5
201EE
330
1F
100
AcDbEntity
  8
DS_SCHEDULE
 67
0
 62
2
100
AcDbText
 10
28955.4759794
 20
-24111.7826268
 40
180.0
  1
7910
 50
0.0
 51
0.0
  7
STANDARD
 41
1.0
 71
0
 72
0
 11
28955.4759794
 21
-24111.7826268
100
AcDbText
 73
2
  0
LINE
  5
201EF
330
1F
100
AcDbEntity
  8
DS_SCHEDULE
 67
0
 62
1
100
AcDbLine
 10
32910.9519588
 20
-24111.7826268
 11
32910.9519588
 21
-23364.1017556
  0
TEXT
  5
201F0
330
1F
100
AcDbEntity
  8
DS_SCHEDULE
 67
0
 62
2
100
AcDbText
 10
32910.9519588
 20
-23737.9421912
 40
180.0
  1
750
 50
0.0
 51
0.0
  7
STANDARD
 41
1.0
 71
0
 72
0
 11
32910.9519588
 21
-23737.9421912
100
AcDbText
 73
2
  0
MTEXT
  5
201F1
330
1F
100
AcDbEntity
  8
DS_SCHEDULE
 67
0
 62
2
100
AcDbMText
 50
0.0
 40
200.0
 41
1.0
 71
1
 72
5
 73
1
  1
#10[12] L = 8660
 10
25000.0
 20
-22864.1017556
 30
0.0
  0
LINE
  5
201F2
330
1F
100
AcDbEntity
  8
DS_SCHEDULE
 67
0
 62
1
100
AcDbLine
 10
25000.0
 20
-26313.5541159
 11
25000.0
 21
-26858.5089524
  0
TEXT
  5
201F3
330
1F
100
AcDbEntity
  8
DS_SCHEDULE
 67
0
 62
2
100
AcDbText
 10
25000.0
 20
-26586.0315342
 40
180.0
  1
545
 50
0.0
 51
0.0
  7
STANDARD
 41
1.0
 71
0
 72
0
 11
25000.0
 21
-26586.0315342
100
AcDbText
 73
2
  0
LINE
  5
201F4
330
1F
100
AcDbEntity
  8
DS_SCHEDULE
 67
0
 62
1
100
AcDbLine
 10
25000.0
 20
-26858.5089524
 11
31445.7654062
 21
-26858.5089524
  0
TEXT
  5
201F5
330
1F
100
AcDbEntity
  8
DS_SCHEDULE
 67
0
 62
2
100
AcDbText
 10
28222.8827031
 20
-26858.5089524
 40
180.0
  1
6445
 50
0.0
 51
0.0
  7
STANDARD
 41
1.0
 71
0
 72
0
 11
28222.8827031
 21
-26858.5089524
100
AcDbText
 73
2
  0
LINE
  5
201F6
330
1F
100
AcDbEntity
  8
DS_SCHEDULE
 67
0
 62
1
100
AcDbLine
 10
31445.7654062
 20
-26858.5089524
 11
31445.7654062
 21
-25211.7826268
  0
TEXT
  5
201F7
330
1F
100
AcDbEntity
  8
DS_SCHEDULE
 67
0
 62
2
100
AcDbText
 10
31445.7654062
 20
-26035.1457896
 40
180.0
  1
1645
 50
0.0
 51
0.0
  7
STANDARD
 41
1.0
 71
0
 72
0
 11
31445.7654062
 21
-26035.1457896
100
AcDbText
 73
2
  0
MTEXT
  5
201F8
330
1F
100
AcDbEntity
  8
DS_SCHEDULE
 67
0
 62
2
100
AcDbMText
 50
0.0
 40
200.0
 41
1.0
 71
1
 72
5
 73
1
  1
#10[13] L = 8635
 10
25000.0
 20
-24711.7826268
 30
0.0
  0
LINE
  5
201F9
330
1F
100
AcDbEntity
  8
DS_SCHEDULE
 67
0
 62
1
100
AcDbLine
 10
25000.0
 20
-28561.1869537
 11
25000.0
 21
-27958.5089524
  0
TEXT
  5
201FA
330
1F
100
AcDbEntity
  8
DS_SCHEDULE
 67
0
 62
2
100
AcDbText
 10
25000.0
 20
-28259.8479531
 40
180.0
  1
605
 50
0.0
 51
0.0
  7
STANDARD
 41
1.0
 71
0
 72
0
 11
25000.0
 21
-28259.8479531
100
AcDbText
 73
2
  0
LINE
  5
201FB
330
1F
100
AcDbEntity
  8
DS_SCHEDULE
 67
0
 62
1
100
AcDbLine
 10
25000.0
 20
-27958.5089524
 11
32873.7182336
 21
-27958.5089524
  0
TEXT
  5
201FC
330
1F
100
AcDbEntity
  8
DS_SCHEDULE
 67
0
 62
2
100
AcDbText
 10
28936.8591168
 20
-27958.5089524
 40
180.0
  1
7875
 50
0.0
 51
0.0
  7
STANDARD
 41
1.0
 71
0
 72
0
 11
28936.8591168
 21
-27958.5089524
100
AcDbText
 73
2
  0
MTEXT
  5
201FD
330
1F
100
AcDbEntity
  8
DS_SCHEDULE
 67
0
 62
2
100
AcDbMText
 50
0.0
 40
200.0
 41
1.0
 71
1
 72
5
 73
1
  1
#10[14] L = 8480
 10
25000.0
 20
-27458.5089524
 30
0.0
  0
LINE
  5
201FE
330
1F
100
AcDbEntity
  8
DS_SCHEDULE
 67
0
 62
1
100
AcDbLine
 10
25000.0
 20
-30263.8649551
 11
25000.0
 21
-29661.1869537
  0
TEXT
  5
201FF
330
1F
100
AcDbEntity
  8
DS_SCHEDULE
 67
0
 62
2
100
AcDbText
 10
25000.0
 20
-29962.5259544
 40
180.0
  1
605
 50
0.0
 51
0.0
  7
STANDARD
 41
1.0
 71
0
 72
0
 11
25000.0
 21
-29962.5259544
100
AcDbText
 73
2
  0
LINE
  5
20200
330
1F
100
AcDbEntity
  8
DS_SCHEDULE
 67
0
 62
1
100
AcDbLine
 10
25000.0
 20
-29661.1869537
 11
32235.9149254
 21
-29661.1869537
  0
TEXT
  5
20201
330
1F
100
AcDbEntity
  8
DS_SCHEDULE
 67
0
 62
2
100
AcDbText
 10
28617.9574627
 20
-29661.1869537
 40
180.0
  1
7235
 50
0.0
 51
0.0
  7
STANDARD
 41
1.0
 71
0
 72
0
 11
28617.9574627
 21
-29661.1869537
100
AcDbText
 73
2
  0
LINE
  5
20202
330
1F
100
AcDbEntity
  8
DS_SCHEDULE
 67
0
 62
1
100
AcDbLine
 10
32235.9149254
 20
-29661.1869537
 11
32235.9149254
 21
-30263.8649551
  0
TEXT
  5
20203
330
1F
100
AcDbEntity
  8
DS_SCHEDULE
 67
0
 62
2
100
AcDbText
 10
32235.9149254
 20
-29962.5259544
 40
180.0
  1
605
 50
0.0
 51
0.0
  7
STANDARD
 41
1.0
 71
0
 72
0
 11
32235.9149254
 21
-29962.5259544
100
AcDbText
 73
2
  0
MTEXT
  5
20204
330
1F
100
AcDbEntity
  8
DS_SCHEDULE
 67
0
 62
2
100
AcDbMText
 50
0.0
 40
200.0
 41
1.0
 71
1
 72
5
 73
1
  1
#10[15] L = 8445
 10
25000.0
 20
-29161.1869537
 30
0.0
  0
LINE
  5
20205
330
1F
100
AcDbEntity
  8
DS_SCHEDULE
 67
0
 62
1
100
AcDbLine
 10
25000.0
 20
-31363.8649551
 11
25000.0
 21
-31513.8649551
  0
TEXT
  5
20206
330
1F
100
AcDbEntity
  8
DS_SCHEDULE
 67
0
 62
2
100
AcDbText
 10
25000.0
 20
-31438.8649551
 40
180.0
  1
150
 50
0.0
 51
0.0
  7
STANDARD
 41
1.0
 71
0
 72
0
 11
25000.0
 21
-31438.8649551
100
AcDbText
 73
2
  0
LINE
  5
20207
330
1F
100
AcDbEntity
  8
DS_SCHEDULE
 67
0
 62
1
100
AcDbLine
 10
25000.0
 20
-31513.8649551
 11
32235.9149254
 21
-31513.8649551
  0
TEXT
  5
20208
330
1F
100
AcDbEntity
  8
DS_SCHEDULE
 67
0
 62
2
100
AcDbText
 10
28617.9574627
 20
-31513.8649551
 40
180.0
  1
7235
 50
0.0
 51
0.0
  7
STANDARD
 41
1.0
 71
0
 72
0
 11
28617.9574627
 21
-31513.8649551
100
AcDbText
 73
2
  0
LINE
  5
20209
330
1F
100
AcDbEntity
  8
DS_SCHEDULE
 67
0
 62
1
100
AcDbLine
 10
32235.9149254
 20
-31513.8649551
 11
32235.9149254
 21
-31363.8649551
  0
TEXT
  5
2020A
330
1F
100
AcDbEntity
  8
DS_SCHEDULE
 67
0
 62
2
100
AcDbText
 10
32235.9149254
 20
-31438.8649551
 40
180.0
  1
150
 50
0.0
 51
0.0
  7
STANDARD
 41
1.0
 71
0
 72
0
 11
32235.9149254
 21
-31438.8649551
100
AcDbText
 73
2
  0
MTEXT
  5
2020B
330
1F
100
AcDbEntity
  8
DS_SCHEDULE
 67
0
 62
2
100
AcDbMText
 50
0.0
 40
200.0
 41
1.0
 71
1
 72
5
 73
1
  1
#12[16] L = 7535
 10
25000.0
 20
-30863.8649551
 30
0.0
  0
LINE
  5
2020C
330
1F
100
AcDbEntity
  8
DS_SCHEDULE
 67
0
 62
1
100
AcDbLine
 10
25000.0
 20
-33361.5458263
 11
31485.7654063
 21
-33361.5458263
  0
TEXT
  5
2020D
330
1F
100
AcDbEntity
  8
DS_SCHEDULE
 67
0
 62
2
100
AcDbText
 10
28242.8827032
 20
-33361.5458263
 40
180.0
  1
6485
 50
0.0
 51
0.0
  7
STANDARD
 41
1.0
 71
0
 72
0
 11
28242.8827032
 21
-33361.5458263
100
AcDbText
 73
2
  0
LINE
  5
2020E
330
1F
100
AcDbEntity
  8
DS_SCHEDULE
 67
0
 62
1
100
AcDbLine
 10
31485.7654063
 20
-33361.5458263
 11
31485.7654063
 21
-32613.8649551
  0
TEXT
  5
2020F
330
1F
100
AcDbEntity
  8
DS_SCHEDULE
 67
0
 62
2
100
AcDbText
 10
31485.7654063
 20
-32987.7053907
 40
180.0
  1
750
 50
0.0
 51
0.0
  7
STANDARD
 41
1.0
 71
0
 72
0
 11
31485.7654063
 21
-32987.7053907
100
AcDbText
 73
2
  0
MTEXT
  5
20210
330
1F
100
AcDbEntity
  8
DS_SCHEDULE
 67
0
 62
2
100
AcDbMText
 50
0.0
 40
200.0
 41
1.0
 71
1
 72
5
 73
1
  1
#10[17] L = 7235
 10
25000.0
 20
-32113.8649551
 30
0.0
  0
LINE
  5
20211
330
1F
100
AcDbEntity
  8
DS_SCHEDULE
 67
0
 62
1
100
AcDbLine
 10
25000.0
 20
-34461.5458263
 11
31620.744356
 21
-34461.5458263
  0
TEXT
  5
20212
330
1F
100
AcDbEntity
  8
DS_SCHEDULE
 67
0
 62
2
100
AcDbText
 10
28310.372178
 20
-34461.5458263
 40
180.0
  1
6620
 50
0.0
 51
0.0
  7
STANDARD
 41
1.0
 71
0
 72
0
 11
28310.372178
 21
-34461.5458263
100
AcDbText
 73
2
  0
LINE
  5
20213
330
1F
100
AcDbEntity
  8
DS_SCHEDULE
 67
0
 62
1
100
AcDbLine
 10
31620.744356
 20
-34461.5458263
 11
31620.744356
 21
-35064.2238276
  0
TEXT
  5
20214
330
1F
100
AcDbEntity
  8
DS_SCHEDULE
 67
0
 62
2
100
AcDbText
 10
31620.744356
 20
-34762.884827
 40
180.0
  1
605
 50
0.0
 51
0.0
  7
STANDARD
 41
1.0
 71
0
 72
0
 11
31620.744356
 21
-34762.884827
100
AcDbText
 73
2
  0
MTEXT
  5
20215
330
1F
100
AcDbEntity
  8
DS_SCHEDULE
 67
0
 62
2
100
AcDbMText
 50
0.0
 40
200.0
 41
1.0
 71
1
 72
5
 73
1
  1
#10[18] L = 7225
 10
25000.0
 20
-33961.5458263
 30
0.0
  0
LINE
  5
20216
330
1F
100
AcDbEntity
  8
DS_SCHEDULE
 67
0
 62
1
100
AcDbLine
 10
25000.0
 20
-36911.9046988
 11
31445.7654062
 21
-36911.9046988
  0
TEXT
  5
20217
330
1F
100
AcDbEntity
  8
DS_SCHEDULE
 67
0
 62
2
100
AcDbText
 10
28222.8827031
 20
-36911.9046988
 40
180.0
  1
6445
 50
0.0
 51
0.0
  7
STANDARD
 41
1.0
 71
0
 72
0
 11
28222.8827031
 21
-36911.9046988
100
AcDbText
 73
2
  0
LINE
  5
20218
330
1F
100
AcDbEntity
  8
DS_SCHEDULE
 67
0
 62
1
100
AcDbLine
 10
31445.7654062
 20
-36911.9046988
 11
31445.7654062
 21
-36164.2238276
  0
TEXT
  5
20219
330
1F
100
AcDbEntity
  8
DS_SCHEDULE
 67
0
 62
2
100
AcDbText
 10
31445.7654062
 20
-36538.0642632
 40
180.0
  1
750
 50
0.0
 51
0.0
  7
STANDARD
 41
1.0
 71
0
 72
0
 11
31445.7654062
 21
-36538.0642632
100
AcDbText
 73
2
  0
MTEXT
  5
2021A
330
1F
100
AcDbEntity
  8
DS_SCHEDULE
 67
0
 62
2
100
AcDbMText
 50
0.0
 40
200.0
 41
1.0
 71
1
 72
5
 73
1
  1
#10[19] L = 7195
 10
25000.0
 20
-35664.2238276
 30
0.0
  0
LINE
  5
2021B
330
1F
100
AcDbEntity
  8
DS_SCHEDULE
 67
0
 62
1
100
AcDbLine
 10
25000.0
 20
-38759.58557
 11
31445.7654062
 21
-38759.58557
  0
TEXT
  5
2021C
330
1F
100
AcDbEntity
  8
DS_SCHEDULE
 67
0
 62
2
100
AcDbText
 10
28222.8827031
 20
-38759.58557
 40
180.0
  1
6445
 50
0.0
 51
0.0
  7
STANDARD
 41
1.0
 71
0
 72
0
 11
28222.8827031
 21
-38759.58557
100
AcDbText
 73
2
  0
LINE
  5
2021D
330
1F
100
AcDbEntity
  8
DS_SCHEDULE
 67
0
 62
1
100
AcDbLine
 10
31445.7654062
 20
-38759.58557
 11
31445.7654062
 21
-38011.9046988
  0
TEXT
  5
2021E
330
1F
100
AcDbEntity
  8
DS_SCHEDULE
 67
0
 62
2
100
AcDbText
 10
31445.7654062
 20
-38385.7451344
 40
180.0
  1
750
 50
0.0
 51
0.0
  7
STANDARD
 41
1.0
 71
0
 72
0
 11
31445.7654062
 21
-38385.7451344
100
AcDbText
 73
2
  0
MTEXT
  5
2021F
330
1F
100
AcDbEntity
  8
DS_SCHEDULE
 67
0
 62
2
100
AcDbMText
 50
0.0
 40
200.0
 41
1.0
 71
1
 72
5
 73
1
  1
#12[20] L = 7195
 10
25000.0
 20
-37511.9046988
 30
0.0
  0
LINE
  5
20220
330
1F
100
AcDbEntity
  8
DS_SCHEDULE
 67
0
 62
1
100
AcDbLine
 10
25000.0
 20
-39859.58557
 11
31550.6325262
 21
-39859.58557
  0
TEXT
  5
20221
330
1F
100
AcDbEntity
  8
DS_SCHEDULE
 67
0
 62
2
100
AcDbText
 10
28275.3162631
 20
-39859.58557
 40
180.0
  1
6550
 50
0.0
 51
0.0
  7
STANDARD
 41
1.0
 71
0
 72
0
 11
28275.3162631
 21
-39859.58557
100
AcDbText
 73
2
  0
LINE
  5
20222
330
1F
100
AcDbEntity
  8
DS_SCHEDULE
 67
0
 62
1
100
AcDbLine
 10
31550.6325262
 20
-39859.58557
 11
31550.6325262
 21
-40462.2635713
  0
TEXT
  5
20223
330
1F
100
AcDbEntity
  8
DS_SCHEDULE
 67
0
 62
2
100
AcDbText
 10
31550.6325262
 20
-40160.9245707
 40
180.0
  1
605
 50
0.0
 51
0.0
  7
STANDARD
 41
1.0
 71
0
 72
0
 11
31550.6325262
 21
-40160.9245707
100
AcDbText
 73
2
  0
MTEXT
  5
20224
330
1F
100
AcDbEntity
  8
DS_SCHEDULE
 67
0
 62
2
100
AcDbMText
 50
0.0
 40
200.0
 41
1.0
 71
1
 72
5
 73
1
  1
#10[21] L = 7155
 10
25000.0
 20
-39359.58557
 30
0.0
  0
LINE
  5
20225
330
1F
100
AcDbEntity
  8
DS_SCHEDULE
 67
0
 62
1
100
AcDbLine
 10
25000.0
 20
-42164.9415727
 11
25000.0
 21
-41562.2635713
  0
TEXT
  5
20226
330
1F
100
AcDbEntity
  8
DS_SCHEDULE
 67
0
 62
2
100
AcDbText
 10
25000.0
 20
-41863.602572
 40
180.0
  1
605
 50
0.0
 51
0.0
  7
STANDARD
 41
1.0
 71
0
 72
0
 11
25000.0
 21
-41863.602572
100
AcDbText
 73
2
  0
LINE
  5
20227
330
1F
100
AcDbEntity
  8
DS_SCHEDULE
 67
0
 62
1
100
AcDbLine
 10
25000.0
 20
-41562.2635713
 11
29746.7519002
 21
-41562.2635713
  0
TEXT
  5
20228
330
1F
100
AcDbEntity
  8
DS_SCHEDULE
 67
0
 62
2
100
AcDbText
 10
27373.3759501
 20
-41562.2635713
 40
180.0
  1
4745
 50
0.0
 51
0.0
  7
STANDARD
 41
1.0
 71
0
 72
0
 11
27373.3759501
 21
-41562.2635713
100
AcDbText
 73
2
  0
LINE
  5
20229
330
1F
100
AcDbEntity
  8
DS_SCHEDULE
 67
0
 62
1
100
AcDbLine
 10
29746.7519002
 20
-41562.2635713
 11
29746.7519002
 21
-42164.9415727
  0
TEXT
  5
2022A
330
1F
100
AcDbEntity
  8
DS_SCHEDULE
 67
0
 62
2
100
AcDbText
 10
29746.7519002
 20
-41863.602572
 40
180.0
  1
605
 50
0.0
 51
0.0
  7
STANDARD
 41
1.0
 71
0
 72
0
 11
29746.7519002
 21
-41863.602572
100
AcDbText
 73
2
  0
MTEXT
  5
2022B
330
1F
100
AcDbEntity
  8
DS_SCHEDULE
 67
0
 62
2
100
AcDbMText
 50
0.0
 40
200.0
 41
1.0
 71
1
 72
5
 73
1
  1
#10[22] L = 5955
 10
25000.0
 20
-41062.2635713
 30
0.0
  0
LINE
  5
2022C
330
1F
100
AcDbEntity
  8
DS_SCHEDULE
 67
0
 62
1
100
AcDbLine
 10
25000.0
 20
-43264.9415727
 11
25000.0
 21
-43414.9415727
  0
TEXT
  5
2022D
330
1F
100
AcDbEntity
  8
DS_SCHEDULE
 67
0
 62
2
100
AcDbText
 10
25000.0
 20
-43339.9415727
 40
180.0
  1
150
 50
0.0
 51
0.0
  7
STANDARD
 41
1.0
 71
0
 72
0
 11
25000.0
 21
-43339.9415727
100
AcDbText
 73
2
  0
LINE
  5
2022E
330
1F
100
AcDbEntity
  8
DS_SCHEDULE
 67
0
 62
1
100
AcDbLine
 10
25000.0
 20
-43414.9415727
 11
29746.7519002
 21
-43414.9415727
  0
TEXT
  5
2022F
330
1F
100
AcDbEntity
  8
DS_SCHEDULE
 67
0
 62
2
100
AcDbText
 10
27373.3759501
 20
-43414.9415727
 40
180.0
  1
4745
 50
0.0
 51
0.0
  7
STANDARD
 41
1.0
 71
0
 72
0
 11
27373.3759501
 21
-43414.9415727
100
AcDbText
 73
2
  0
LINE
  5
20230
330
1F
100
AcDbEntity
  8
DS_SCHEDULE
 67
0
 62
1
100
AcDbLine
 10
29746.7519002
 20
-43414.9415727
 11
29746.7519002
 21
-43264.9415727
  0
TEXT
  5
20231
330
1F
100
AcDbEntity
  8
DS_SCHEDULE
 67
0
 62
2
100
AcDbText
 10
29746.7519002
 20
-43339.9415727
 40
180.0
  1
150
 50
0.0
 51
0.0
  7
STANDARD
 41
1.0
 71
0
 72
0
 11
29746.7519002
 21
-43339.9415727
100
AcDbText
 73
2
  0
MTEXT
  5
20232
330
1F
100
AcDbEntity
  8
DS_SCHEDULE
 67
0
 62
2
100
AcDbMText
 50
0.0
 40
200.0
 41
1.0
 71
1
 72
5
 73
1
  1
#12[24] L = 5045
 10
25000.0
 20
-42764.9415727
 30
0.0
  0
LINE
  5
20233
330
1F
100
AcDbEntity
  8
DS_SCHEDULE
 67
0
 62
1
100
AcDbLine
 10
26523.492334
 20
-44918.4818994
 11
26779.4071405
 21
-44918.4818994
  0
TEXT
  5
20234
330
1F
100
AcDbEntity
  8
DS_SCHEDULE
 67
0
 62
2
100
AcDbText
 10
26651.4497373
 20
-44918.4818994
 40
180.0
  1
255
 50
0.0
 51
0.0
  7
STANDARD
 41
1.0
 71
0
 72
0
 11
26651.4497373
 21
-44918.4818994
100
AcDbText
 73
2
  0
LINE
  5
20235
330
1F
100
AcDbEntity
  8
DS_SCHEDULE
 67
0
 62
1
100
AcDbLine
 10
26779.4071405
 20
-44918.4818994
 11
26779.4071405
 21
-44514.9415727
  0
TEXT
  5
20236
330
1F
100
AcDbEntity
  8
DS_SCHEDULE
 67
0
 62
2
100
AcDbText
 10
26779.4071405
 20
-44716.7117361
 40
180.0
  1
405
 50
0.0
 51
0.0
  7
STANDARD
 41
1.0
 71
0
 72
0
 11
26779.4071405
 21
-44716.7117361
100
AcDbText
 73
2
  0
LINE
  5
20237
330
1F
100
AcDbEntity
  8
DS_SCHEDULE
 67
0
 62
1
100
AcDbLine
 10
26779.4071405
 20
-44514.9415727
 11
25000.0
 21
-44514.9415727
  0
TEXT
  5
20238
330
1F
100
AcDbEntity
  8
DS_SCHEDULE
 67
0
 62
2
100
AcDbText
 10
25889.7035702
 20
-44514.9415727
 40
180.0
  1
1780
 50
0.0
 51
0.0
  7
STANDARD
 41
1.0
 71
0
 72
0
 11
25889.7035702
 21
-44514.9415727
100
AcDbText
 73
2
  0
MTEXT
  5
20239
330
1F
100
AcDbEntity
  8
DS_SCHEDULE
 67
0
 62
2
100
AcDbMText
 50
0.0
 40
200.0
 41
1.0
 71
1
 72
5
 73
1
  1
#12[26] L = 2440
 10
25000.0
 20
-44014.9415727
 30
0.0
  0
ENDSEC
  0
SECTION
  2
OBJECTS
  0
DICTIONARY
  5
C
330
0
100
AcDbDictionary
281
1
  3
ACAD_GROUP
350
D
  3
ACAD_COLOR
350
20000
  3
ACAD_LAYOUT
350
20001
  3
ACAD_MATERIAL
350
20002
  3
ACAD_MLEADERSTYLE
350
20003
  3
ACAD_MLINESTYLE
350
20004
  3
ACAD_PLOTSETTINGS
350
20005
  3
ACAD_PLOTSTYLENAME
350
20006
  3
ACAD_SCALELIST
350
20008
  3
ACAD_TABLESTYLE
350
20009
  3
ACAD_VISUALSTYLE
350
2000A
  0
DICTIONARY
  5
D
330
C
100
AcDbDictionary
281
1
  0
DICTIONARY
  5
20000
330
C
100
AcDbDictionary
281
1
  0
DICTIONARY
  5
20001
330
C
100
AcDbDictionary
281
1
  3
Model
350
2000B
  3
Layout1
350
2000C
  0
DICTIONARY
  5
20002
330
C
100
AcDbDictionary
281
1
  0
DICTIONARY
  5
20003
330
C
100
AcDbDictionary
281
1
  0
DICTIONARY
  5
20004
330
C
100
AcDbDictionary
281
1
  0
DICTIONARY
  5
20005
330
C
100
AcDbDictionary
281
1
  0
ACDBDICTIONARYWDFLT
  5
20006
330
C
100
AcDbDictionary
281
1
  3
Normal
350
20007
100
AcDbDictionaryWithDefault
340
20007
  0
ACDBPLACEHOLDER
  5
20007
330
20006
  0
DICTIONARY
  5
20008
330
C
100
AcDbDictionary
281
1
  0
DICTIONARY
  5
20009
330
C
100
AcDbDictionary
281
1
  0
DICTIONARY
  5
2000A
330
C
100
AcDbDictionary
281
1
  0
LAYOUT
  5
2000B
330
20001
100
AcDbPlotSettings
  1

  2
DWFx ePlot (XPS Compatible).pc3
  4
ANSI_A_(8.50_x_11.00_Inches)
  6

 40
5.8
 41
17.8
 42
5.8
 43
17.8
 44
215.9
 45
279.4
 46
0.0
 47
0.0
 48
0.0
 49
0.0
140
0.0
141
0.0
142
1.0
143
14.53
 70
11952
 72
0
 73
1
 74
0
  7

 75
0
147
0.069
148
114.98
149
300.29
100
AcDbLayout
  1
Model
 70
1
 71
0
 10
0.0
 20
0.0
 11
12.0
 21
9.0
 12
0.0
 22
0.0
 32
0.0
 14
0.0
 24
0.0
 34
0.0
 15
0.0
 25
0.0
 35
0.0
146
0.0
 13
0.0
 23
0.0
 33
0.0
 16
1.0
 26
0.0
 36
0.0
 17
0.0
 27
1.0
 37
0.0
 76
0
330
1F
  0
LAYOUT
  5
2000C
330
20001
100
AcDbPlotSettings
  1

  2
DWFx ePlot (XPS Compatible).pc3
  4
ANSI_A_(8.50_x_11.00_Inches)
  6

 40
5.8
 41
17.8
 42
5.8
 43
17.8
 44
215.9
 45
279.4
 46
0.0
 47
0.0
 48
0.0
 49
0.0
140
0.0
141
0.0
142
1.0
143
1.0
 70
688
 72
0
 73
1
 74
5
  7
acad.ctb
 75
16
147
1.0
148
0.0
149
0.0
100
AcDbLayout
  1
Layout1
 70
1
 71
1
 10
-0.7
 20
-0.23
 11
10.3
 21
8.27
 12
0.0
 22
0.0
 32
0.0
 14
0.63
 24
0.8
 34
0.0
 15
9.0
 25
7.2
 35
0.0
146
0.0
 13
0.0
 23
0.0
 33
0.0
 16
1.0
 26
0.0
 36
0.0
 17
0.0
 27
1.0
 37
0.0
 76
0
330
1E
  0
ENDSEC
  0
EOF
