<?xml version="1.0" encoding="utf-8" standalone="no"?>
<!DOCTYPE svg PUBLIC "-//W3C//DTD SVG 1.1//EN"
  "http://www.w3.org/Graphics/SVG/1.1/DTD/svg11.dtd">
<!-- Created with matplotlib (http://matplotlib.org/) -->
<svg height="210pt" version="1.1" viewBox="0 0 1290 210" width="1290pt" xmlns="http://www.w3.org/2000/svg" xmlns:xlink="http://www.w3.org/1999/xlink">
 <defs>
  <style type="text/css">
*{stroke-linecap:butt;stroke-linejoin:round;}
  </style>
 </defs>
 <g id="figure_1">
  <g id="patch_1">
   <path d="M 0 210.76 
L 1290.76 210.76 
L 1290.76 0 
L 0 0 
z
" style="fill:#ffffff;"/>
  </g>
  <g id="axes_1">
   <g id="patch_2">
    <path d="M 10.7 200.06 
L 209.06 200.06 
L 209.06 10.7 
L 10.7 10.7 
z
" style="fill:#ffffff;"/>
   </g>
   <g id="matplotlib.axis_1">
    <g id="xtick_1"/>
    <g id="xtick_2"/>
    <g id="xtick_3"/>
    <g id="xtick_4"/>
    <g id="xtick_5"/>
    <g id="xtick_6"/>
   </g>
   <g id="matplotlib.axis_2">
    <g id="ytick_1"/>
    <g id="ytick_2"/>
    <g id="ytick_3"/>
    <g id="ytick_4"/>
    <g id="ytick_5"/>
    <g id="ytick_6"/>
   </g>
   <g id="LineCollection_1">
    <path clip-path="url(#p9bfa2aef8c)" d="M 19.716364 187.119328 
L 19.716364 19.307273 
" style="fill:none;stroke:#000000;stroke-width:1.5;"/>
    <path clip-path="url(#p9bfa2aef8c)" d="M 23.322909 187.119328 
L 23.322909 164.95655 
" style="fill:none;stroke:#000000;stroke-width:1.5;"/>
    <path clip-path="url(#p9bfa2aef8c)" d="M 26.929455 187.119328 
L 26.929455 181.706744 
" style="fill:none;stroke:#000000;stroke-width:1.5;"/>
    <path clip-path="url(#p9bfa2aef8c)" d="M 30.536 187.119328 
L 30.536 181.864346 
" style="fill:none;stroke:#000000;stroke-width:1.5;"/>
    <path clip-path="url(#p9bfa2aef8c)" d="M 34.142545 187.119328 
L 34.142545 188.253064 
" style="fill:none;stroke:#000000;stroke-width:1.5;"/>
    <path clip-path="url(#p9bfa2aef8c)" d="M 37.749091 187.119328 
L 37.749091 184.505342 
" style="fill:none;stroke:#000000;stroke-width:1.5;"/>
    <path clip-path="url(#p9bfa2aef8c)" d="M 41.355636 187.119328 
L 41.355636 188.813651 
" style="fill:none;stroke:#000000;stroke-width:1.5;"/>
    <path clip-path="url(#p9bfa2aef8c)" d="M 44.962182 187.119328 
L 44.962182 186.26527 
" style="fill:none;stroke:#000000;stroke-width:1.5;"/>
    <path clip-path="url(#p9bfa2aef8c)" d="M 48.568727 187.119328 
L 48.568727 184.839812 
" style="fill:none;stroke:#000000;stroke-width:1.5;"/>
    <path clip-path="url(#p9bfa2aef8c)" d="M 52.175273 187.119328 
L 52.175273 184.654365 
" style="fill:none;stroke:#000000;stroke-width:1.5;"/>
    <path clip-path="url(#p9bfa2aef8c)" d="M 55.781818 187.119328 
L 55.781818 186.039687 
" style="fill:none;stroke:#000000;stroke-width:1.5;"/>
    <path clip-path="url(#p9bfa2aef8c)" d="M 59.388364 187.119328 
L 59.388364 186.714866 
" style="fill:none;stroke:#000000;stroke-width:1.5;"/>
    <path clip-path="url(#p9bfa2aef8c)" d="M 62.994909 187.119328 
L 62.994909 185.855267 
" style="fill:none;stroke:#000000;stroke-width:1.5;"/>
    <path clip-path="url(#p9bfa2aef8c)" d="M 66.601455 187.119328 
L 66.601455 186.086401 
" style="fill:none;stroke:#000000;stroke-width:1.5;"/>
    <path clip-path="url(#p9bfa2aef8c)" d="M 70.208 187.119328 
L 70.208 187.50442 
" style="fill:none;stroke:#000000;stroke-width:1.5;"/>
    <path clip-path="url(#p9bfa2aef8c)" d="M 73.814545 187.119328 
L 73.814545 188.283713 
" style="fill:none;stroke:#000000;stroke-width:1.5;"/>
    <path clip-path="url(#p9bfa2aef8c)" d="M 77.421091 187.119328 
L 77.421091 187.170495 
" style="fill:none;stroke:#000000;stroke-width:1.5;"/>
    <path clip-path="url(#p9bfa2aef8c)" d="M 81.027636 187.119328 
L 81.027636 186.630564 
" style="fill:none;stroke:#000000;stroke-width:1.5;"/>
    <path clip-path="url(#p9bfa2aef8c)" d="M 84.634182 187.119328 
L 84.634182 186.253499 
" style="fill:none;stroke:#000000;stroke-width:1.5;"/>
    <path clip-path="url(#p9bfa2aef8c)" d="M 88.240727 187.119328 
L 88.240727 187.017654 
" style="fill:none;stroke:#000000;stroke-width:1.5;"/>
    <path clip-path="url(#p9bfa2aef8c)" d="M 91.847273 187.119328 
L 91.847273 183.444281 
" style="fill:none;stroke:#000000;stroke-width:1.5;"/>
    <path clip-path="url(#p9bfa2aef8c)" d="M 95.453818 187.119328 
L 95.453818 187.544194 
" style="fill:none;stroke:#000000;stroke-width:1.5;"/>
    <path clip-path="url(#p9bfa2aef8c)" d="M 99.060364 187.119328 
L 99.060364 186.742768 
" style="fill:none;stroke:#000000;stroke-width:1.5;"/>
    <path clip-path="url(#p9bfa2aef8c)" d="M 102.666909 187.119328 
L 102.666909 186.815758 
" style="fill:none;stroke:#000000;stroke-width:1.5;"/>
    <path clip-path="url(#p9bfa2aef8c)" d="M 106.273455 187.119328 
L 106.273455 187.771534 
" style="fill:none;stroke:#000000;stroke-width:1.5;"/>
    <path clip-path="url(#p9bfa2aef8c)" d="M 109.88 187.119328 
L 109.88 189.065729 
" style="fill:none;stroke:#000000;stroke-width:1.5;"/>
    <path clip-path="url(#p9bfa2aef8c)" d="M 113.486545 187.119328 
L 113.486545 190.658348 
" style="fill:none;stroke:#000000;stroke-width:1.5;"/>
    <path clip-path="url(#p9bfa2aef8c)" d="M 117.093091 187.119328 
L 117.093091 186.800481 
" style="fill:none;stroke:#000000;stroke-width:1.5;"/>
    <path clip-path="url(#p9bfa2aef8c)" d="M 120.699636 187.119328 
L 120.699636 185.590109 
" style="fill:none;stroke:#000000;stroke-width:1.5;"/>
    <path clip-path="url(#p9bfa2aef8c)" d="M 124.306182 187.119328 
L 124.306182 186.113832 
" style="fill:none;stroke:#000000;stroke-width:1.5;"/>
    <path clip-path="url(#p9bfa2aef8c)" d="M 127.912727 187.119328 
L 127.912727 186.645104 
" style="fill:none;stroke:#000000;stroke-width:1.5;"/>
    <path clip-path="url(#p9bfa2aef8c)" d="M 131.519273 187.119328 
L 131.519273 186.787484 
" style="fill:none;stroke:#000000;stroke-width:1.5;"/>
    <path clip-path="url(#p9bfa2aef8c)" d="M 135.125818 187.119328 
L 135.125818 184.746723 
" style="fill:none;stroke:#000000;stroke-width:1.5;"/>
    <path clip-path="url(#p9bfa2aef8c)" d="M 138.732364 187.119328 
L 138.732364 185.570585 
" style="fill:none;stroke:#000000;stroke-width:1.5;"/>
    <path clip-path="url(#p9bfa2aef8c)" d="M 142.338909 187.119328 
L 142.338909 186.521582 
" style="fill:none;stroke:#000000;stroke-width:1.5;"/>
    <path clip-path="url(#p9bfa2aef8c)" d="M 145.945455 187.119328 
L 145.945455 189.004549 
" style="fill:none;stroke:#000000;stroke-width:1.5;"/>
    <path clip-path="url(#p9bfa2aef8c)" d="M 149.552 187.119328 
L 149.552 185.825674 
" style="fill:none;stroke:#000000;stroke-width:1.5;"/>
    <path clip-path="url(#p9bfa2aef8c)" d="M 153.158545 187.119328 
L 153.158545 187.544163 
" style="fill:none;stroke:#000000;stroke-width:1.5;"/>
    <path clip-path="url(#p9bfa2aef8c)" d="M 156.765091 187.119328 
L 156.765091 187.864634 
" style="fill:none;stroke:#000000;stroke-width:1.5;"/>
    <path clip-path="url(#p9bfa2aef8c)" d="M 160.371636 187.119328 
L 160.371636 187.559434 
" style="fill:none;stroke:#000000;stroke-width:1.5;"/>
    <path clip-path="url(#p9bfa2aef8c)" d="M 163.978182 187.119328 
L 163.978182 184.56289 
" style="fill:none;stroke:#000000;stroke-width:1.5;"/>
    <path clip-path="url(#p9bfa2aef8c)" d="M 167.584727 187.119328 
L 167.584727 188.652761 
" style="fill:none;stroke:#000000;stroke-width:1.5;"/>
    <path clip-path="url(#p9bfa2aef8c)" d="M 171.191273 187.119328 
L 171.191273 188.730277 
" style="fill:none;stroke:#000000;stroke-width:1.5;"/>
    <path clip-path="url(#p9bfa2aef8c)" d="M 174.797818 187.119328 
L 174.797818 188.018665 
" style="fill:none;stroke:#000000;stroke-width:1.5;"/>
    <path clip-path="url(#p9bfa2aef8c)" d="M 178.404364 187.119328 
L 178.404364 187.567998 
" style="fill:none;stroke:#000000;stroke-width:1.5;"/>
    <path clip-path="url(#p9bfa2aef8c)" d="M 182.010909 187.119328 
L 182.010909 186.896016 
" style="fill:none;stroke:#000000;stroke-width:1.5;"/>
    <path clip-path="url(#p9bfa2aef8c)" d="M 185.617455 187.119328 
L 185.617455 188.054888 
" style="fill:none;stroke:#000000;stroke-width:1.5;"/>
    <path clip-path="url(#p9bfa2aef8c)" d="M 189.224 187.119328 
L 189.224 188.246481 
" style="fill:none;stroke:#000000;stroke-width:1.5;"/>
    <path clip-path="url(#p9bfa2aef8c)" d="M 192.830545 187.119328 
L 192.830545 187.997339 
" style="fill:none;stroke:#000000;stroke-width:1.5;"/>
    <path clip-path="url(#p9bfa2aef8c)" d="M 196.437091 187.119328 
L 196.437091 188.713905 
" style="fill:none;stroke:#000000;stroke-width:1.5;"/>
    <path clip-path="url(#p9bfa2aef8c)" d="M 200.043636 187.119328 
L 200.043636 189.142214 
" style="fill:none;stroke:#000000;stroke-width:1.5;"/>
   </g>
   <g id="line2d_1">
    <path clip-path="url(#p9bfa2aef8c)" d="M 19.716364 182.796776 
L 23.322909 182.79656 
L 26.929455 182.796344 
L 30.536 182.796127 
L 34.142545 182.795911 
L 37.749091 182.795695 
L 41.355636 182.795479 
L 44.962182 182.795262 
L 48.568727 182.795046 
L 52.175273 182.79483 
L 55.781818 182.794613 
L 59.388364 182.794397 
L 62.994909 182.79418 
L 66.601455 182.793964 
L 70.208 182.793747 
L 73.814545 182.79353 
L 77.421091 182.793314 
L 81.027636 182.793097 
L 84.634182 182.79288 
L 88.240727 182.792664 
L 91.847273 182.792447 
L 95.453818 182.79223 
L 99.060364 182.792013 
L 102.666909 182.791796 
L 106.273455 182.79158 
L 109.88 182.791363 
L 113.486545 182.791146 
L 117.093091 182.790929 
L 120.699636 182.790712 
L 124.306182 182.790495 
L 127.912727 182.790278 
L 131.519273 182.79006 
L 135.125818 182.789843 
L 138.732364 182.789626 
L 142.338909 182.789409 
L 145.945455 182.789192 
L 149.552 182.788974 
L 153.158545 182.788757 
L 156.765091 182.78854 
L 160.371636 182.788322 
L 163.978182 182.788105 
L 167.584727 182.787887 
L 171.191273 182.78767 
L 174.797818 182.787452 
L 178.404364 182.787235 
L 182.010909 182.787017 
L 185.617455 182.7868 
L 189.224 182.786582 
L 192.830545 182.786364 
L 196.437091 182.786147 
L 200.043636 182.785929 
" style="fill:none;stroke:#ff0000;stroke-dasharray:5.6,2.4;stroke-dashoffset:0;stroke-width:1.5;"/>
   </g>
   <g id="line2d_2">
    <path clip-path="url(#p9bfa2aef8c)" d="M 19.716364 191.44188 
L 23.322909 191.442096 
L 26.929455 191.442313 
L 30.536 191.442529 
L 34.142545 191.442745 
L 37.749091 191.442961 
L 41.355636 191.443178 
L 44.962182 191.443394 
L 48.568727 191.44361 
L 52.175273 191.443827 
L 55.781818 191.444043 
L 59.388364 191.44426 
L 62.994909 191.444476 
L 66.601455 191.444693 
L 70.208 191.444909 
L 73.814545 191.445126 
L 77.421091 191.445342 
L 81.027636 191.445559 
L 84.634182 191.445776 
L 88.240727 191.445992 
L 91.847273 191.446209 
L 95.453818 191.446426 
L 99.060364 191.446643 
L 102.666909 191.44686 
L 106.273455 191.447077 
L 109.88 191.447294 
L 113.486545 191.44751 
L 117.093091 191.447727 
L 120.699636 191.447945 
L 124.306182 191.448162 
L 127.912727 191.448379 
L 131.519273 191.448596 
L 135.125818 191.448813 
L 138.732364 191.44903 
L 142.338909 191.449247 
L 145.945455 191.449465 
L 149.552 191.449682 
L 153.158545 191.449899 
L 156.765091 191.450117 
L 160.371636 191.450334 
L 163.978182 191.450551 
L 167.584727 191.450769 
L 171.191273 191.450986 
L 174.797818 191.451204 
L 178.404364 191.451421 
L 182.010909 191.451639 
L 185.617455 191.451857 
L 189.224 191.452074 
L 192.830545 191.452292 
L 196.437091 191.45251 
L 200.043636 191.452727 
" style="fill:none;stroke:#ff0000;stroke-dasharray:5.6,2.4;stroke-dashoffset:0;stroke-width:1.5;"/>
   </g>
   <g id="patch_3">
    <path d="M 10.7 200.06 
L 10.7 10.7 
" style="fill:none;stroke:#000000;stroke-linecap:square;stroke-linejoin:miter;stroke-width:0.8;"/>
   </g>
   <g id="patch_4">
    <path d="M 209.06 200.06 
L 209.06 10.7 
" style="fill:none;stroke:#000000;stroke-linecap:square;stroke-linejoin:miter;stroke-width:0.8;"/>
   </g>
   <g id="patch_5">
    <path d="M 10.7 200.06 
L 209.06 200.06 
" style="fill:none;stroke:#000000;stroke-linecap:square;stroke-linejoin:miter;stroke-width:0.8;"/>
   </g>
   <g id="patch_6">
    <path d="M 10.7 10.7 
L 209.06 10.7 
" style="fill:none;stroke:#000000;stroke-linecap:square;stroke-linejoin:miter;stroke-width:0.8;"/>
   </g>
  </g>
  <g id="axes_2">
   <g id="patch_7">
    <path d="M 224.9 200.06 
L 423.26 200.06 
L 423.26 10.7 
L 224.9 10.7 
z
" style="fill:#ffffff;"/>
   </g>
   <g id="matplotlib.axis_3">
    <g id="xtick_7"/>
    <g id="xtick_8"/>
    <g id="xtick_9"/>
    <g id="xtick_10"/>
    <g id="xtick_11"/>
    <g id="xtick_12"/>
   </g>
   <g id="matplotlib.axis_4">
    <g id="ytick_7"/>
    <g id="ytick_8"/>
    <g id="ytick_9"/>
    <g id="ytick_10"/>
    <g id="ytick_11"/>
    <g id="ytick_12"/>
   </g>
   <g id="LineCollection_2">
    <path clip-path="url(#p98ae44aed0)" d="M 233.916364 186.516424 
L 233.916364 19.307273 
" style="fill:none;stroke:#000000;stroke-width:1.5;"/>
    <path clip-path="url(#p98ae44aed0)" d="M 237.522909 186.516424 
L 237.522909 152.879378 
" style="fill:none;stroke:#000000;stroke-width:1.5;"/>
    <path clip-path="url(#p98ae44aed0)" d="M 241.129455 186.516424 
L 241.129455 170.80354 
" style="fill:none;stroke:#000000;stroke-width:1.5;"/>
    <path clip-path="url(#p98ae44aed0)" d="M 244.736 186.516424 
L 244.736 176.731794 
" style="fill:none;stroke:#000000;stroke-width:1.5;"/>
    <path clip-path="url(#p98ae44aed0)" d="M 248.342545 186.516424 
L 248.342545 179.432797 
" style="fill:none;stroke:#000000;stroke-width:1.5;"/>
    <path clip-path="url(#p98ae44aed0)" d="M 251.949091 186.516424 
L 251.949091 180.956288 
" style="fill:none;stroke:#000000;stroke-width:1.5;"/>
    <path clip-path="url(#p98ae44aed0)" d="M 255.555636 186.516424 
L 255.555636 181.513407 
" style="fill:none;stroke:#000000;stroke-width:1.5;"/>
    <path clip-path="url(#p98ae44aed0)" d="M 259.162182 186.516424 
L 259.162182 180.632832 
" style="fill:none;stroke:#000000;stroke-width:1.5;"/>
    <path clip-path="url(#p98ae44aed0)" d="M 262.768727 186.516424 
L 262.768727 182.007029 
" style="fill:none;stroke:#000000;stroke-width:1.5;"/>
    <path clip-path="url(#p98ae44aed0)" d="M 266.375273 186.516424 
L 266.375273 180.264003 
" style="fill:none;stroke:#000000;stroke-width:1.5;"/>
    <path clip-path="url(#p98ae44aed0)" d="M 269.981818 186.516424 
L 269.981818 183.818858 
" style="fill:none;stroke:#000000;stroke-width:1.5;"/>
    <path clip-path="url(#p98ae44aed0)" d="M 273.588364 186.516424 
L 273.588364 183.913973 
" style="fill:none;stroke:#000000;stroke-width:1.5;"/>
    <path clip-path="url(#p98ae44aed0)" d="M 277.194909 186.516424 
L 277.194909 181.687163 
" style="fill:none;stroke:#000000;stroke-width:1.5;"/>
    <path clip-path="url(#p98ae44aed0)" d="M 280.801455 186.516424 
L 280.801455 186.432579 
" style="fill:none;stroke:#000000;stroke-width:1.5;"/>
    <path clip-path="url(#p98ae44aed0)" d="M 284.408 186.516424 
L 284.408 184.109427 
" style="fill:none;stroke:#000000;stroke-width:1.5;"/>
    <path clip-path="url(#p98ae44aed0)" d="M 288.014545 186.516424 
L 288.014545 183.166258 
" style="fill:none;stroke:#000000;stroke-width:1.5;"/>
    <path clip-path="url(#p98ae44aed0)" d="M 291.621091 186.516424 
L 291.621091 183.03131 
" style="fill:none;stroke:#000000;stroke-width:1.5;"/>
    <path clip-path="url(#p98ae44aed0)" d="M 295.227636 186.516424 
L 295.227636 185.733966 
" style="fill:none;stroke:#000000;stroke-width:1.5;"/>
    <path clip-path="url(#p98ae44aed0)" d="M 298.834182 186.516424 
L 298.834182 186.762361 
" style="fill:none;stroke:#000000;stroke-width:1.5;"/>
    <path clip-path="url(#p98ae44aed0)" d="M 302.440727 186.516424 
L 302.440727 182.49171 
" style="fill:none;stroke:#000000;stroke-width:1.5;"/>
    <path clip-path="url(#p98ae44aed0)" d="M 306.047273 186.516424 
L 306.047273 181.188892 
" style="fill:none;stroke:#000000;stroke-width:1.5;"/>
    <path clip-path="url(#p98ae44aed0)" d="M 309.653818 186.516424 
L 309.653818 181.501457 
" style="fill:none;stroke:#000000;stroke-width:1.5;"/>
    <path clip-path="url(#p98ae44aed0)" d="M 313.260364 186.516424 
L 313.260364 181.994488 
" style="fill:none;stroke:#000000;stroke-width:1.5;"/>
    <path clip-path="url(#p98ae44aed0)" d="M 316.866909 186.516424 
L 316.866909 183.143538 
" style="fill:none;stroke:#000000;stroke-width:1.5;"/>
    <path clip-path="url(#p98ae44aed0)" d="M 320.473455 186.516424 
L 320.473455 181.52706 
" style="fill:none;stroke:#000000;stroke-width:1.5;"/>
    <path clip-path="url(#p98ae44aed0)" d="M 324.08 186.516424 
L 324.08 180.662785 
" style="fill:none;stroke:#000000;stroke-width:1.5;"/>
    <path clip-path="url(#p98ae44aed0)" d="M 327.686545 186.516424 
L 327.686545 185.136114 
" style="fill:none;stroke:#000000;stroke-width:1.5;"/>
    <path clip-path="url(#p98ae44aed0)" d="M 331.293091 186.516424 
L 331.293091 185.655501 
" style="fill:none;stroke:#000000;stroke-width:1.5;"/>
    <path clip-path="url(#p98ae44aed0)" d="M 334.899636 186.516424 
L 334.899636 182.488879 
" style="fill:none;stroke:#000000;stroke-width:1.5;"/>
    <path clip-path="url(#p98ae44aed0)" d="M 338.506182 186.516424 
L 338.506182 184.133666 
" style="fill:none;stroke:#000000;stroke-width:1.5;"/>
    <path clip-path="url(#p98ae44aed0)" d="M 342.112727 186.516424 
L 342.112727 186.953824 
" style="fill:none;stroke:#000000;stroke-width:1.5;"/>
    <path clip-path="url(#p98ae44aed0)" d="M 345.719273 186.516424 
L 345.719273 185.688653 
" style="fill:none;stroke:#000000;stroke-width:1.5;"/>
    <path clip-path="url(#p98ae44aed0)" d="M 349.325818 186.516424 
L 349.325818 187.384449 
" style="fill:none;stroke:#000000;stroke-width:1.5;"/>
    <path clip-path="url(#p98ae44aed0)" d="M 352.932364 186.516424 
L 352.932364 183.777489 
" style="fill:none;stroke:#000000;stroke-width:1.5;"/>
    <path clip-path="url(#p98ae44aed0)" d="M 356.538909 186.516424 
L 356.538909 184.54474 
" style="fill:none;stroke:#000000;stroke-width:1.5;"/>
    <path clip-path="url(#p98ae44aed0)" d="M 360.145455 186.516424 
L 360.145455 187.608844 
" style="fill:none;stroke:#000000;stroke-width:1.5;"/>
    <path clip-path="url(#p98ae44aed0)" d="M 363.752 186.516424 
L 363.752 186.278643 
" style="fill:none;stroke:#000000;stroke-width:1.5;"/>
    <path clip-path="url(#p98ae44aed0)" d="M 367.358545 186.516424 
L 367.358545 186.970447 
" style="fill:none;stroke:#000000;stroke-width:1.5;"/>
    <path clip-path="url(#p98ae44aed0)" d="M 370.965091 186.516424 
L 370.965091 187.058694 
" style="fill:none;stroke:#000000;stroke-width:1.5;"/>
    <path clip-path="url(#p98ae44aed0)" d="M 374.571636 186.516424 
L 374.571636 189.764038 
" style="fill:none;stroke:#000000;stroke-width:1.5;"/>
    <path clip-path="url(#p98ae44aed0)" d="M 378.178182 186.516424 
L 378.178182 185.059542 
" style="fill:none;stroke:#000000;stroke-width:1.5;"/>
    <path clip-path="url(#p98ae44aed0)" d="M 381.784727 186.516424 
L 381.784727 186.178126 
" style="fill:none;stroke:#000000;stroke-width:1.5;"/>
    <path clip-path="url(#p98ae44aed0)" d="M 385.391273 186.516424 
L 385.391273 186.827392 
" style="fill:none;stroke:#000000;stroke-width:1.5;"/>
    <path clip-path="url(#p98ae44aed0)" d="M 388.997818 186.516424 
L 388.997818 186.715726 
" style="fill:none;stroke:#000000;stroke-width:1.5;"/>
    <path clip-path="url(#p98ae44aed0)" d="M 392.604364 186.516424 
L 392.604364 185.579045 
" style="fill:none;stroke:#000000;stroke-width:1.5;"/>
    <path clip-path="url(#p98ae44aed0)" d="M 396.210909 186.516424 
L 396.210909 185.60553 
" style="fill:none;stroke:#000000;stroke-width:1.5;"/>
    <path clip-path="url(#p98ae44aed0)" d="M 399.817455 186.516424 
L 399.817455 188.598392 
" style="fill:none;stroke:#000000;stroke-width:1.5;"/>
    <path clip-path="url(#p98ae44aed0)" d="M 403.424 186.516424 
L 403.424 185.236542 
" style="fill:none;stroke:#000000;stroke-width:1.5;"/>
    <path clip-path="url(#p98ae44aed0)" d="M 407.030545 186.516424 
L 407.030545 188.679558 
" style="fill:none;stroke:#000000;stroke-width:1.5;"/>
    <path clip-path="url(#p98ae44aed0)" d="M 410.637091 186.516424 
L 410.637091 188.431396 
" style="fill:none;stroke:#000000;stroke-width:1.5;"/>
    <path clip-path="url(#p98ae44aed0)" d="M 414.243636 186.516424 
L 414.243636 191.452727 
" style="fill:none;stroke:#000000;stroke-width:1.5;"/>
   </g>
   <g id="line2d_3">
    <path clip-path="url(#p98ae44aed0)" d="M 233.916364 182.209402 
L 237.522909 182.209186 
L 241.129455 182.208971 
L 244.736 182.208756 
L 248.342545 182.20854 
L 251.949091 182.208325 
L 255.555636 182.208109 
L 259.162182 182.207893 
L 262.768727 182.207678 
L 266.375273 182.207462 
L 269.981818 182.207247 
L 273.588364 182.207031 
L 277.194909 182.206815 
L 280.801455 182.206599 
L 284.408 182.206384 
L 288.014545 182.206168 
L 291.621091 182.205952 
L 295.227636 182.205736 
L 298.834182 182.20552 
L 302.440727 182.205304 
L 306.047273 182.205088 
L 309.653818 182.204872 
L 313.260364 182.204656 
L 316.866909 182.20444 
L 320.473455 182.204224 
L 324.08 182.204008 
L 327.686545 182.203792 
L 331.293091 182.203575 
L 334.899636 182.203359 
L 338.506182 182.203143 
L 342.112727 182.202927 
L 345.719273 182.20271 
L 349.325818 182.202494 
L 352.932364 182.202277 
L 356.538909 182.202061 
L 360.145455 182.201845 
L 363.752 182.201628 
L 367.358545 182.201412 
L 370.965091 182.201195 
L 374.571636 182.200978 
L 378.178182 182.200762 
L 381.784727 182.200545 
L 385.391273 182.200328 
L 388.997818 182.200112 
L 392.604364 182.199895 
L 396.210909 182.199678 
L 399.817455 182.199461 
L 403.424 182.199244 
L 407.030545 182.199028 
L 410.637091 182.198811 
L 414.243636 182.198594 
" style="fill:none;stroke:#ff0000;stroke-dasharray:5.6,2.4;stroke-dashoffset:0;stroke-width:1.5;"/>
   </g>
   <g id="line2d_4">
    <path clip-path="url(#p98ae44aed0)" d="M 233.916364 190.823446 
L 237.522909 190.823662 
L 241.129455 190.823877 
L 244.736 190.824093 
L 248.342545 190.824308 
L 251.949091 190.824524 
L 255.555636 190.824739 
L 259.162182 190.824955 
L 262.768727 190.82517 
L 266.375273 190.825386 
L 269.981818 190.825601 
L 273.588364 190.825817 
L 277.194909 190.826033 
L 280.801455 190.826249 
L 284.408 190.826464 
L 288.014545 190.82668 
L 291.621091 190.826896 
L 295.227636 190.827112 
L 298.834182 190.827328 
L 302.440727 190.827544 
L 306.047273 190.82776 
L 309.653818 190.827976 
L 313.260364 190.828192 
L 316.866909 190.828408 
L 320.473455 190.828624 
L 324.08 190.82884 
L 327.686545 190.829056 
L 331.293091 190.829273 
L 334.899636 190.829489 
L 338.506182 190.829705 
L 342.112727 190.829921 
L 345.719273 190.830138 
L 349.325818 190.830354 
L 352.932364 190.830571 
L 356.538909 190.830787 
L 360.145455 190.831003 
L 363.752 190.83122 
L 367.358545 190.831437 
L 370.965091 190.831653 
L 374.571636 190.83187 
L 378.178182 190.832086 
L 381.784727 190.832303 
L 385.391273 190.83252 
L 388.997818 190.832736 
L 392.604364 190.832953 
L 396.210909 190.83317 
L 399.817455 190.833387 
L 403.424 190.833604 
L 407.030545 190.833821 
L 410.637091 190.834037 
L 414.243636 190.834254 
" style="fill:none;stroke:#ff0000;stroke-dasharray:5.6,2.4;stroke-dashoffset:0;stroke-width:1.5;"/>
   </g>
   <g id="patch_8">
    <path d="M 224.9 200.06 
L 224.9 10.7 
" style="fill:none;stroke:#000000;stroke-linecap:square;stroke-linejoin:miter;stroke-width:0.8;"/>
   </g>
   <g id="patch_9">
    <path d="M 423.26 200.06 
L 423.26 10.7 
" style="fill:none;stroke:#000000;stroke-linecap:square;stroke-linejoin:miter;stroke-width:0.8;"/>
   </g>
   <g id="patch_10">
    <path d="M 224.9 200.06 
L 423.26 200.06 
" style="fill:none;stroke:#000000;stroke-linecap:square;stroke-linejoin:miter;stroke-width:0.8;"/>
   </g>
   <g id="patch_11">
    <path d="M 224.9 10.7 
L 423.26 10.7 
" style="fill:none;stroke:#000000;stroke-linecap:square;stroke-linejoin:miter;stroke-width:0.8;"/>
   </g>
  </g>
  <g id="axes_3">
   <g id="patch_12">
    <path d="M 439.1 200.06 
L 637.46 200.06 
L 637.46 10.7 
L 439.1 10.7 
z
" style="fill:#ffffff;"/>
   </g>
   <g id="matplotlib.axis_5">
    <g id="xtick_13"/>
    <g id="xtick_14"/>
    <g id="xtick_15"/>
    <g id="xtick_16"/>
    <g id="xtick_17"/>
    <g id="xtick_18"/>
   </g>
   <g id="matplotlib.axis_6">
    <g id="ytick_13"/>
    <g id="ytick_14"/>
    <g id="ytick_15"/>
    <g id="ytick_16"/>
    <g id="ytick_17"/>
    <g id="ytick_18"/>
   </g>
   <g id="LineCollection_3">
    <path clip-path="url(#pe8bc978797)" d="M 448.116364 187.119328 
L 448.116364 19.307273 
" style="fill:none;stroke:#000000;stroke-width:1.5;"/>
    <path clip-path="url(#pe8bc978797)" d="M 451.722909 187.119328 
L 451.722909 159.352566 
" style="fill:none;stroke:#000000;stroke-width:1.5;"/>
    <path clip-path="url(#pe8bc978797)" d="M 455.329455 187.119328 
L 455.329455 175.453422 
" style="fill:none;stroke:#000000;stroke-width:1.5;"/>
    <path clip-path="url(#pe8bc978797)" d="M 458.936 187.119328 
L 458.936 181.631441 
" style="fill:none;stroke:#000000;stroke-width:1.5;"/>
    <path clip-path="url(#pe8bc978797)" d="M 462.542545 187.119328 
L 462.542545 185.933982 
" style="fill:none;stroke:#000000;stroke-width:1.5;"/>
    <path clip-path="url(#pe8bc978797)" d="M 466.149091 187.119328 
L 466.149091 184.067998 
" style="fill:none;stroke:#000000;stroke-width:1.5;"/>
    <path clip-path="url(#pe8bc978797)" d="M 469.755636 187.119328 
L 469.755636 187.434903 
" style="fill:none;stroke:#000000;stroke-width:1.5;"/>
    <path clip-path="url(#pe8bc978797)" d="M 473.362182 187.119328 
L 473.362182 184.099203 
" style="fill:none;stroke:#000000;stroke-width:1.5;"/>
    <path clip-path="url(#pe8bc978797)" d="M 476.968727 187.119328 
L 476.968727 184.60564 
" style="fill:none;stroke:#000000;stroke-width:1.5;"/>
    <path clip-path="url(#pe8bc978797)" d="M 480.575273 187.119328 
L 480.575273 185.91876 
" style="fill:none;stroke:#000000;stroke-width:1.5;"/>
    <path clip-path="url(#pe8bc978797)" d="M 484.181818 187.119328 
L 484.181818 185.467412 
" style="fill:none;stroke:#000000;stroke-width:1.5;"/>
    <path clip-path="url(#pe8bc978797)" d="M 487.788364 187.119328 
L 487.788364 185.413784 
" style="fill:none;stroke:#000000;stroke-width:1.5;"/>
    <path clip-path="url(#pe8bc978797)" d="M 491.394909 187.119328 
L 491.394909 183.316198 
" style="fill:none;stroke:#000000;stroke-width:1.5;"/>
    <path clip-path="url(#pe8bc978797)" d="M 495.001455 187.119328 
L 495.001455 185.304758 
" style="fill:none;stroke:#000000;stroke-width:1.5;"/>
    <path clip-path="url(#pe8bc978797)" d="M 498.608 187.119328 
L 498.608 186.083766 
" style="fill:none;stroke:#000000;stroke-width:1.5;"/>
    <path clip-path="url(#pe8bc978797)" d="M 502.214545 187.119328 
L 502.214545 190.315267 
" style="fill:none;stroke:#000000;stroke-width:1.5;"/>
    <path clip-path="url(#pe8bc978797)" d="M 505.821091 187.119328 
L 505.821091 187.757471 
" style="fill:none;stroke:#000000;stroke-width:1.5;"/>
    <path clip-path="url(#pe8bc978797)" d="M 509.427636 187.119328 
L 509.427636 187.841172 
" style="fill:none;stroke:#000000;stroke-width:1.5;"/>
    <path clip-path="url(#pe8bc978797)" d="M 513.034182 187.119328 
L 513.034182 186.163063 
" style="fill:none;stroke:#000000;stroke-width:1.5;"/>
    <path clip-path="url(#pe8bc978797)" d="M 516.640727 187.119328 
L 516.640727 186.623997 
" style="fill:none;stroke:#000000;stroke-width:1.5;"/>
    <path clip-path="url(#pe8bc978797)" d="M 520.247273 187.119328 
L 520.247273 185.948495 
" style="fill:none;stroke:#000000;stroke-width:1.5;"/>
    <path clip-path="url(#pe8bc978797)" d="M 523.853818 187.119328 
L 523.853818 189.794418 
" style="fill:none;stroke:#000000;stroke-width:1.5;"/>
    <path clip-path="url(#pe8bc978797)" d="M 527.460364 187.119328 
L 527.460364 188.283363 
" style="fill:none;stroke:#000000;stroke-width:1.5;"/>
    <path clip-path="url(#pe8bc978797)" d="M 531.066909 187.119328 
L 531.066909 187.622954 
" style="fill:none;stroke:#000000;stroke-width:1.5;"/>
    <path clip-path="url(#pe8bc978797)" d="M 534.673455 187.119328 
L 534.673455 187.685888 
" style="fill:none;stroke:#000000;stroke-width:1.5;"/>
    <path clip-path="url(#pe8bc978797)" d="M 538.28 187.119328 
L 538.28 187.094836 
" style="fill:none;stroke:#000000;stroke-width:1.5;"/>
    <path clip-path="url(#pe8bc978797)" d="M 541.886545 187.119328 
L 541.886545 187.823219 
" style="fill:none;stroke:#000000;stroke-width:1.5;"/>
    <path clip-path="url(#pe8bc978797)" d="M 545.493091 187.119328 
L 545.493091 187.655275 
" style="fill:none;stroke:#000000;stroke-width:1.5;"/>
    <path clip-path="url(#pe8bc978797)" d="M 549.099636 187.119328 
L 549.099636 188.726922 
" style="fill:none;stroke:#000000;stroke-width:1.5;"/>
    <path clip-path="url(#pe8bc978797)" d="M 552.706182 187.119328 
L 552.706182 184.492018 
" style="fill:none;stroke:#000000;stroke-width:1.5;"/>
    <path clip-path="url(#pe8bc978797)" d="M 556.312727 187.119328 
L 556.312727 185.617365 
" style="fill:none;stroke:#000000;stroke-width:1.5;"/>
    <path clip-path="url(#pe8bc978797)" d="M 559.919273 187.119328 
L 559.919273 186.788873 
" style="fill:none;stroke:#000000;stroke-width:1.5;"/>
    <path clip-path="url(#pe8bc978797)" d="M 563.525818 187.119328 
L 563.525818 184.72265 
" style="fill:none;stroke:#000000;stroke-width:1.5;"/>
    <path clip-path="url(#pe8bc978797)" d="M 567.132364 187.119328 
L 567.132364 185.029386 
" style="fill:none;stroke:#000000;stroke-width:1.5;"/>
    <path clip-path="url(#pe8bc978797)" d="M 570.738909 187.119328 
L 570.738909 184.553306 
" style="fill:none;stroke:#000000;stroke-width:1.5;"/>
    <path clip-path="url(#pe8bc978797)" d="M 574.345455 187.119328 
L 574.345455 183.910616 
" style="fill:none;stroke:#000000;stroke-width:1.5;"/>
    <path clip-path="url(#pe8bc978797)" d="M 577.952 187.119328 
L 577.952 183.966331 
" style="fill:none;stroke:#000000;stroke-width:1.5;"/>
    <path clip-path="url(#pe8bc978797)" d="M 581.558545 187.119328 
L 581.558545 184.11249 
" style="fill:none;stroke:#000000;stroke-width:1.5;"/>
    <path clip-path="url(#pe8bc978797)" d="M 585.165091 187.119328 
L 585.165091 187.467682 
" style="fill:none;stroke:#000000;stroke-width:1.5;"/>
    <path clip-path="url(#pe8bc978797)" d="M 588.771636 187.119328 
L 588.771636 186.879711 
" style="fill:none;stroke:#000000;stroke-width:1.5;"/>
    <path clip-path="url(#pe8bc978797)" d="M 592.378182 187.119328 
L 592.378182 183.39749 
" style="fill:none;stroke:#000000;stroke-width:1.5;"/>
    <path clip-path="url(#pe8bc978797)" d="M 595.984727 187.119328 
L 595.984727 185.649601 
" style="fill:none;stroke:#000000;stroke-width:1.5;"/>
    <path clip-path="url(#pe8bc978797)" d="M 599.591273 187.119328 
L 599.591273 185.480117 
" style="fill:none;stroke:#000000;stroke-width:1.5;"/>
    <path clip-path="url(#pe8bc978797)" d="M 603.197818 187.119328 
L 603.197818 189.549113 
" style="fill:none;stroke:#000000;stroke-width:1.5;"/>
    <path clip-path="url(#pe8bc978797)" d="M 606.804364 187.119328 
L 606.804364 187.906951 
" style="fill:none;stroke:#000000;stroke-width:1.5;"/>
    <path clip-path="url(#pe8bc978797)" d="M 610.410909 187.119328 
L 610.410909 186.8221 
" style="fill:none;stroke:#000000;stroke-width:1.5;"/>
    <path clip-path="url(#pe8bc978797)" d="M 614.017455 187.119328 
L 614.017455 186.586815 
" style="fill:none;stroke:#000000;stroke-width:1.5;"/>
    <path clip-path="url(#pe8bc978797)" d="M 617.624 187.119328 
L 617.624 186.020366 
" style="fill:none;stroke:#000000;stroke-width:1.5;"/>
    <path clip-path="url(#pe8bc978797)" d="M 621.230545 187.119328 
L 621.230545 187.567318 
" style="fill:none;stroke:#000000;stroke-width:1.5;"/>
    <path clip-path="url(#pe8bc978797)" d="M 624.837091 187.119328 
L 624.837091 186.632598 
" style="fill:none;stroke:#000000;stroke-width:1.5;"/>
    <path clip-path="url(#pe8bc978797)" d="M 628.443636 187.119328 
L 628.443636 189.467514 
" style="fill:none;stroke:#000000;stroke-width:1.5;"/>
   </g>
   <g id="line2d_5">
    <path clip-path="url(#pe8bc978797)" d="M 448.116364 182.796776 
L 451.722909 182.79656 
L 455.329455 182.796344 
L 458.936 182.796127 
L 462.542545 182.795911 
L 466.149091 182.795695 
L 469.755636 182.795479 
L 473.362182 182.795262 
L 476.968727 182.795046 
L 480.575273 182.79483 
L 484.181818 182.794613 
L 487.788364 182.794397 
L 491.394909 182.79418 
L 495.001455 182.793964 
L 498.608 182.793747 
L 502.214545 182.79353 
L 505.821091 182.793314 
L 509.427636 182.793097 
L 513.034182 182.79288 
L 516.640727 182.792664 
L 520.247273 182.792447 
L 523.853818 182.79223 
L 527.460364 182.792013 
L 531.066909 182.791796 
L 534.673455 182.79158 
L 538.28 182.791363 
L 541.886545 182.791146 
L 545.493091 182.790929 
L 549.099636 182.790712 
L 552.706182 182.790495 
L 556.312727 182.790278 
L 559.919273 182.79006 
L 563.525818 182.789843 
L 567.132364 182.789626 
L 570.738909 182.789409 
L 574.345455 182.789192 
L 577.952 182.788974 
L 581.558545 182.788757 
L 585.165091 182.78854 
L 588.771636 182.788322 
L 592.378182 182.788105 
L 595.984727 182.787887 
L 599.591273 182.78767 
L 603.197818 182.787452 
L 606.804364 182.787235 
L 610.410909 182.787017 
L 614.017455 182.7868 
L 617.624 182.786582 
L 621.230545 182.786364 
L 624.837091 182.786147 
L 628.443636 182.785929 
" style="fill:none;stroke:#ff0000;stroke-dasharray:5.6,2.4;stroke-dashoffset:0;stroke-width:1.5;"/>
   </g>
   <g id="line2d_6">
    <path clip-path="url(#pe8bc978797)" d="M 448.116364 191.44188 
L 451.722909 191.442096 
L 455.329455 191.442313 
L 458.936 191.442529 
L 462.542545 191.442745 
L 466.149091 191.442961 
L 469.755636 191.443178 
L 473.362182 191.443394 
L 476.968727 191.44361 
L 480.575273 191.443827 
L 484.181818 191.444043 
L 487.788364 191.44426 
L 491.394909 191.444476 
L 495.001455 191.444693 
L 498.608 191.444909 
L 502.214545 191.445126 
L 505.821091 191.445342 
L 509.427636 191.445559 
L 513.034182 191.445776 
L 516.640727 191.445992 
L 520.247273 191.446209 
L 523.853818 191.446426 
L 527.460364 191.446643 
L 531.066909 191.44686 
L 534.673455 191.447077 
L 538.28 191.447294 
L 541.886545 191.44751 
L 545.493091 191.447727 
L 549.099636 191.447945 
L 552.706182 191.448162 
L 556.312727 191.448379 
L 559.919273 191.448596 
L 563.525818 191.448813 
L 567.132364 191.44903 
L 570.738909 191.449247 
L 574.345455 191.449465 
L 577.952 191.449682 
L 581.558545 191.449899 
L 585.165091 191.450117 
L 588.771636 191.450334 
L 592.378182 191.450551 
L 595.984727 191.450769 
L 599.591273 191.450986 
L 603.197818 191.451204 
L 606.804364 191.451421 
L 610.410909 191.451639 
L 614.017455 191.451857 
L 617.624 191.452074 
L 621.230545 191.452292 
L 624.837091 191.45251 
L 628.443636 191.452727 
" style="fill:none;stroke:#ff0000;stroke-dasharray:5.6,2.4;stroke-dashoffset:0;stroke-width:1.5;"/>
   </g>
   <g id="patch_13">
    <path d="M 439.1 200.06 
L 439.1 10.7 
" style="fill:none;stroke:#000000;stroke-linecap:square;stroke-linejoin:miter;stroke-width:0.8;"/>
   </g>
   <g id="patch_14">
    <path d="M 637.46 200.06 
L 637.46 10.7 
" style="fill:none;stroke:#000000;stroke-linecap:square;stroke-linejoin:miter;stroke-width:0.8;"/>
   </g>
   <g id="patch_15">
    <path d="M 439.1 200.06 
L 637.46 200.06 
" style="fill:none;stroke:#000000;stroke-linecap:square;stroke-linejoin:miter;stroke-width:0.8;"/>
   </g>
   <g id="patch_16">
    <path d="M 439.1 10.7 
L 637.46 10.7 
" style="fill:none;stroke:#000000;stroke-linecap:square;stroke-linejoin:miter;stroke-width:0.8;"/>
   </g>
  </g>
  <g id="axes_4">
   <g id="patch_17">
    <path d="M 653.3 200.06 
L 851.66 200.06 
L 851.66 10.7 
L 653.3 10.7 
z
" style="fill:#ffffff;"/>
   </g>
   <g id="matplotlib.axis_7">
    <g id="xtick_19"/>
    <g id="xtick_20"/>
    <g id="xtick_21"/>
    <g id="xtick_22"/>
    <g id="xtick_23"/>
    <g id="xtick_24"/>
   </g>
   <g id="matplotlib.axis_8">
    <g id="ytick_19"/>
    <g id="ytick_20"/>
    <g id="ytick_21"/>
    <g id="ytick_22"/>
    <g id="ytick_23"/>
    <g id="ytick_24"/>
   </g>
   <g id="LineCollection_4">
    <path clip-path="url(#p3e2b1a10e9)" d="M 662.316364 187.119328 
L 662.316364 19.307273 
" style="fill:none;stroke:#000000;stroke-width:1.5;"/>
    <path clip-path="url(#p3e2b1a10e9)" d="M 665.922909 187.119328 
L 665.922909 158.785169 
" style="fill:none;stroke:#000000;stroke-width:1.5;"/>
    <path clip-path="url(#p3e2b1a10e9)" d="M 669.529455 187.119328 
L 669.529455 175.71391 
" style="fill:none;stroke:#000000;stroke-width:1.5;"/>
    <path clip-path="url(#p3e2b1a10e9)" d="M 673.136 187.119328 
L 673.136 182.407021 
" style="fill:none;stroke:#000000;stroke-width:1.5;"/>
    <path clip-path="url(#p3e2b1a10e9)" d="M 676.742545 187.119328 
L 676.742545 185.332546 
" style="fill:none;stroke:#000000;stroke-width:1.5;"/>
    <path clip-path="url(#p3e2b1a10e9)" d="M 680.349091 187.119328 
L 680.349091 183.218082 
" style="fill:none;stroke:#000000;stroke-width:1.5;"/>
    <path clip-path="url(#p3e2b1a10e9)" d="M 683.955636 187.119328 
L 683.955636 186.778458 
" style="fill:none;stroke:#000000;stroke-width:1.5;"/>
    <path clip-path="url(#p3e2b1a10e9)" d="M 687.562182 187.119328 
L 687.562182 183.766935 
" style="fill:none;stroke:#000000;stroke-width:1.5;"/>
    <path clip-path="url(#p3e2b1a10e9)" d="M 691.168727 187.119328 
L 691.168727 183.510981 
" style="fill:none;stroke:#000000;stroke-width:1.5;"/>
    <path clip-path="url(#p3e2b1a10e9)" d="M 694.775273 187.119328 
L 694.775273 186.00067 
" style="fill:none;stroke:#000000;stroke-width:1.5;"/>
    <path clip-path="url(#p3e2b1a10e9)" d="M 698.381818 187.119328 
L 698.381818 185.925395 
" style="fill:none;stroke:#000000;stroke-width:1.5;"/>
    <path clip-path="url(#p3e2b1a10e9)" d="M 701.988364 187.119328 
L 701.988364 184.678479 
" style="fill:none;stroke:#000000;stroke-width:1.5;"/>
    <path clip-path="url(#p3e2b1a10e9)" d="M 705.594909 187.119328 
L 705.594909 182.287805 
" style="fill:none;stroke:#000000;stroke-width:1.5;"/>
    <path clip-path="url(#p3e2b1a10e9)" d="M 709.201455 187.119328 
L 709.201455 184.63368 
" style="fill:none;stroke:#000000;stroke-width:1.5;"/>
    <path clip-path="url(#p3e2b1a10e9)" d="M 712.808 187.119328 
L 712.808 185.491004 
" style="fill:none;stroke:#000000;stroke-width:1.5;"/>
    <path clip-path="url(#p3e2b1a10e9)" d="M 716.414545 187.119328 
L 716.414545 190.14852 
" style="fill:none;stroke:#000000;stroke-width:1.5;"/>
    <path clip-path="url(#p3e2b1a10e9)" d="M 720.021091 187.119328 
L 720.021091 187.788074 
" style="fill:none;stroke:#000000;stroke-width:1.5;"/>
    <path clip-path="url(#p3e2b1a10e9)" d="M 723.627636 187.119328 
L 723.627636 187.485184 
" style="fill:none;stroke:#000000;stroke-width:1.5;"/>
    <path clip-path="url(#p3e2b1a10e9)" d="M 727.234182 187.119328 
L 727.234182 186.204282 
" style="fill:none;stroke:#000000;stroke-width:1.5;"/>
    <path clip-path="url(#p3e2b1a10e9)" d="M 730.840727 187.119328 
L 730.840727 186.284411 
" style="fill:none;stroke:#000000;stroke-width:1.5;"/>
    <path clip-path="url(#p3e2b1a10e9)" d="M 734.447273 187.119328 
L 734.447273 187.636555 
" style="fill:none;stroke:#000000;stroke-width:1.5;"/>
    <path clip-path="url(#p3e2b1a10e9)" d="M 738.053818 187.119328 
L 738.053818 189.831739 
" style="fill:none;stroke:#000000;stroke-width:1.5;"/>
    <path clip-path="url(#p3e2b1a10e9)" d="M 741.660364 187.119328 
L 741.660364 189.480468 
" style="fill:none;stroke:#000000;stroke-width:1.5;"/>
    <path clip-path="url(#p3e2b1a10e9)" d="M 745.266909 187.119328 
L 745.266909 188.296587 
" style="fill:none;stroke:#000000;stroke-width:1.5;"/>
    <path clip-path="url(#p3e2b1a10e9)" d="M 748.873455 187.119328 
L 748.873455 187.602254 
" style="fill:none;stroke:#000000;stroke-width:1.5;"/>
    <path clip-path="url(#p3e2b1a10e9)" d="M 752.48 187.119328 
L 752.48 186.644366 
" style="fill:none;stroke:#000000;stroke-width:1.5;"/>
    <path clip-path="url(#p3e2b1a10e9)" d="M 756.086545 187.119328 
L 756.086545 187.167973 
" style="fill:none;stroke:#000000;stroke-width:1.5;"/>
    <path clip-path="url(#p3e2b1a10e9)" d="M 759.693091 187.119328 
L 759.693091 187.087872 
" style="fill:none;stroke:#000000;stroke-width:1.5;"/>
    <path clip-path="url(#p3e2b1a10e9)" d="M 763.299636 187.119328 
L 763.299636 188.457788 
" style="fill:none;stroke:#000000;stroke-width:1.5;"/>
    <path clip-path="url(#p3e2b1a10e9)" d="M 766.906182 187.119328 
L 766.906182 184.884275 
" style="fill:none;stroke:#000000;stroke-width:1.5;"/>
    <path clip-path="url(#p3e2b1a10e9)" d="M 770.512727 187.119328 
L 770.512727 186.237588 
" style="fill:none;stroke:#000000;stroke-width:1.5;"/>
    <path clip-path="url(#p3e2b1a10e9)" d="M 774.119273 187.119328 
L 774.119273 187.37145 
" style="fill:none;stroke:#000000;stroke-width:1.5;"/>
    <path clip-path="url(#p3e2b1a10e9)" d="M 777.725818 187.119328 
L 777.725818 185.173181 
" style="fill:none;stroke:#000000;stroke-width:1.5;"/>
    <path clip-path="url(#p3e2b1a10e9)" d="M 781.332364 187.119328 
L 781.332364 184.172818 
" style="fill:none;stroke:#000000;stroke-width:1.5;"/>
    <path clip-path="url(#p3e2b1a10e9)" d="M 784.938909 187.119328 
L 784.938909 183.451911 
" style="fill:none;stroke:#000000;stroke-width:1.5;"/>
    <path clip-path="url(#p3e2b1a10e9)" d="M 788.545455 187.119328 
L 788.545455 182.912295 
" style="fill:none;stroke:#000000;stroke-width:1.5;"/>
    <path clip-path="url(#p3e2b1a10e9)" d="M 792.152 187.119328 
L 792.152 184.465861 
" style="fill:none;stroke:#000000;stroke-width:1.5;"/>
    <path clip-path="url(#p3e2b1a10e9)" d="M 795.758545 187.119328 
L 795.758545 184.307517 
" style="fill:none;stroke:#000000;stroke-width:1.5;"/>
    <path clip-path="url(#p3e2b1a10e9)" d="M 799.365091 187.119328 
L 799.365091 187.446479 
" style="fill:none;stroke:#000000;stroke-width:1.5;"/>
    <path clip-path="url(#p3e2b1a10e9)" d="M 802.971636 187.119328 
L 802.971636 186.342521 
" style="fill:none;stroke:#000000;stroke-width:1.5;"/>
    <path clip-path="url(#p3e2b1a10e9)" d="M 806.578182 187.119328 
L 806.578182 184.034972 
" style="fill:none;stroke:#000000;stroke-width:1.5;"/>
    <path clip-path="url(#p3e2b1a10e9)" d="M 810.184727 187.119328 
L 810.184727 185.077518 
" style="fill:none;stroke:#000000;stroke-width:1.5;"/>
    <path clip-path="url(#p3e2b1a10e9)" d="M 813.791273 187.119328 
L 813.791273 185.635107 
" style="fill:none;stroke:#000000;stroke-width:1.5;"/>
    <path clip-path="url(#p3e2b1a10e9)" d="M 817.397818 187.119328 
L 817.397818 189.015365 
" style="fill:none;stroke:#000000;stroke-width:1.5;"/>
    <path clip-path="url(#p3e2b1a10e9)" d="M 821.004364 187.119328 
L 821.004364 188.688744 
" style="fill:none;stroke:#000000;stroke-width:1.5;"/>
    <path clip-path="url(#p3e2b1a10e9)" d="M 824.610909 187.119328 
L 824.610909 186.984355 
" style="fill:none;stroke:#000000;stroke-width:1.5;"/>
    <path clip-path="url(#p3e2b1a10e9)" d="M 828.217455 187.119328 
L 828.217455 186.608561 
" style="fill:none;stroke:#000000;stroke-width:1.5;"/>
    <path clip-path="url(#p3e2b1a10e9)" d="M 831.824 187.119328 
L 831.824 185.5581 
" style="fill:none;stroke:#000000;stroke-width:1.5;"/>
    <path clip-path="url(#p3e2b1a10e9)" d="M 835.430545 187.119328 
L 835.430545 186.540845 
" style="fill:none;stroke:#000000;stroke-width:1.5;"/>
    <path clip-path="url(#p3e2b1a10e9)" d="M 839.037091 187.119328 
L 839.037091 186.30115 
" style="fill:none;stroke:#000000;stroke-width:1.5;"/>
    <path clip-path="url(#p3e2b1a10e9)" d="M 842.643636 187.119328 
L 842.643636 188.602937 
" style="fill:none;stroke:#000000;stroke-width:1.5;"/>
   </g>
   <g id="line2d_7">
    <path clip-path="url(#p3e2b1a10e9)" d="M 662.316364 182.796776 
L 665.922909 182.79656 
L 669.529455 182.796344 
L 673.136 182.796127 
L 676.742545 182.795911 
L 680.349091 182.795695 
L 683.955636 182.795479 
L 687.562182 182.795262 
L 691.168727 182.795046 
L 694.775273 182.79483 
L 698.381818 182.794613 
L 701.988364 182.794397 
L 705.594909 182.79418 
L 709.201455 182.793964 
L 712.808 182.793747 
L 716.414545 182.79353 
L 720.021091 182.793314 
L 723.627636 182.793097 
L 727.234182 182.79288 
L 730.840727 182.792664 
L 734.447273 182.792447 
L 738.053818 182.79223 
L 741.660364 182.792013 
L 745.266909 182.791796 
L 748.873455 182.79158 
L 752.48 182.791363 
L 756.086545 182.791146 
L 759.693091 182.790929 
L 763.299636 182.790712 
L 766.906182 182.790495 
L 770.512727 182.790278 
L 774.119273 182.79006 
L 777.725818 182.789843 
L 781.332364 182.789626 
L 784.938909 182.789409 
L 788.545455 182.789192 
L 792.152 182.788974 
L 795.758545 182.788757 
L 799.365091 182.78854 
L 802.971636 182.788322 
L 806.578182 182.788105 
L 810.184727 182.787887 
L 813.791273 182.78767 
L 817.397818 182.787452 
L 821.004364 182.787235 
L 824.610909 182.787017 
L 828.217455 182.7868 
L 831.824 182.786582 
L 835.430545 182.786364 
L 839.037091 182.786147 
L 842.643636 182.785929 
" style="fill:none;stroke:#ff0000;stroke-dasharray:5.6,2.4;stroke-dashoffset:0;stroke-width:1.5;"/>
   </g>
   <g id="line2d_8">
    <path clip-path="url(#p3e2b1a10e9)" d="M 662.316364 191.44188 
L 665.922909 191.442096 
L 669.529455 191.442313 
L 673.136 191.442529 
L 676.742545 191.442745 
L 680.349091 191.442961 
L 683.955636 191.443178 
L 687.562182 191.443394 
L 691.168727 191.44361 
L 694.775273 191.443827 
L 698.381818 191.444043 
L 701.988364 191.44426 
L 705.594909 191.444476 
L 709.201455 191.444693 
L 712.808 191.444909 
L 716.414545 191.445126 
L 720.021091 191.445342 
L 723.627636 191.445559 
L 727.234182 191.445776 
L 730.840727 191.445992 
L 734.447273 191.446209 
L 738.053818 191.446426 
L 741.660364 191.446643 
L 745.266909 191.44686 
L 748.873455 191.447077 
L 752.48 191.447294 
L 756.086545 191.44751 
L 759.693091 191.447727 
L 763.299636 191.447945 
L 766.906182 191.448162 
L 770.512727 191.448379 
L 774.119273 191.448596 
L 777.725818 191.448813 
L 781.332364 191.44903 
L 784.938909 191.449247 
L 788.545455 191.449465 
L 792.152 191.449682 
L 795.758545 191.449899 
L 799.365091 191.450117 
L 802.971636 191.450334 
L 806.578182 191.450551 
L 810.184727 191.450769 
L 813.791273 191.450986 
L 817.397818 191.451204 
L 821.004364 191.451421 
L 824.610909 191.451639 
L 828.217455 191.451857 
L 831.824 191.452074 
L 835.430545 191.452292 
L 839.037091 191.45251 
L 842.643636 191.452727 
" style="fill:none;stroke:#ff0000;stroke-dasharray:5.6,2.4;stroke-dashoffset:0;stroke-width:1.5;"/>
   </g>
   <g id="patch_18">
    <path d="M 653.3 200.06 
L 653.3 10.7 
" style="fill:none;stroke:#000000;stroke-linecap:square;stroke-linejoin:miter;stroke-width:0.8;"/>
   </g>
   <g id="patch_19">
    <path d="M 851.66 200.06 
L 851.66 10.7 
" style="fill:none;stroke:#000000;stroke-linecap:square;stroke-linejoin:miter;stroke-width:0.8;"/>
   </g>
   <g id="patch_20">
    <path d="M 653.3 200.06 
L 851.66 200.06 
" style="fill:none;stroke:#000000;stroke-linecap:square;stroke-linejoin:miter;stroke-width:0.8;"/>
   </g>
   <g id="patch_21">
    <path d="M 653.3 10.7 
L 851.66 10.7 
" style="fill:none;stroke:#000000;stroke-linecap:square;stroke-linejoin:miter;stroke-width:0.8;"/>
   </g>
  </g>
  <g id="axes_5">
   <g id="patch_22">
    <path d="M 867.5 200.06 
L 1065.86 200.06 
L 1065.86 10.7 
L 867.5 10.7 
z
" style="fill:#ffffff;"/>
   </g>
   <g id="matplotlib.axis_9">
    <g id="xtick_25"/>
    <g id="xtick_26"/>
    <g id="xtick_27"/>
    <g id="xtick_28"/>
    <g id="xtick_29"/>
    <g id="xtick_30"/>
   </g>
   <g id="matplotlib.axis_10">
    <g id="ytick_25"/>
    <g id="ytick_26"/>
    <g id="ytick_27"/>
    <g id="ytick_28"/>
    <g id="ytick_29"/>
    <g id="ytick_30"/>
   </g>
   <g id="LineCollection_5">
    <path clip-path="url(#p4dcceef178)" d="M 876.516364 187.119328 
L 876.516364 19.307273 
" style="fill:none;stroke:#000000;stroke-width:1.5;"/>
    <path clip-path="url(#p4dcceef178)" d="M 880.122909 187.119328 
L 880.122909 160.182116 
" style="fill:none;stroke:#000000;stroke-width:1.5;"/>
    <path clip-path="url(#p4dcceef178)" d="M 883.729455 187.119328 
L 883.729455 176.320081 
" style="fill:none;stroke:#000000;stroke-width:1.5;"/>
    <path clip-path="url(#p4dcceef178)" d="M 887.336 187.119328 
L 887.336 182.824647 
" style="fill:none;stroke:#000000;stroke-width:1.5;"/>
    <path clip-path="url(#p4dcceef178)" d="M 890.942545 187.119328 
L 890.942545 185.478407 
" style="fill:none;stroke:#000000;stroke-width:1.5;"/>
    <path clip-path="url(#p4dcceef178)" d="M 894.549091 187.119328 
L 894.549091 183.315435 
" style="fill:none;stroke:#000000;stroke-width:1.5;"/>
    <path clip-path="url(#p4dcceef178)" d="M 898.155636 187.119328 
L 898.155636 187.004055 
" style="fill:none;stroke:#000000;stroke-width:1.5;"/>
    <path clip-path="url(#p4dcceef178)" d="M 901.762182 187.119328 
L 901.762182 184.089631 
" style="fill:none;stroke:#000000;stroke-width:1.5;"/>
    <path clip-path="url(#p4dcceef178)" d="M 905.368727 187.119328 
L 905.368727 184.316987 
" style="fill:none;stroke:#000000;stroke-width:1.5;"/>
    <path clip-path="url(#p4dcceef178)" d="M 908.975273 187.119328 
L 908.975273 187.066023 
" style="fill:none;stroke:#000000;stroke-width:1.5;"/>
    <path clip-path="url(#p4dcceef178)" d="M 912.581818 187.119328 
L 912.581818 186.948336 
" style="fill:none;stroke:#000000;stroke-width:1.5;"/>
    <path clip-path="url(#p4dcceef178)" d="M 916.188364 187.119328 
L 916.188364 183.971534 
" style="fill:none;stroke:#000000;stroke-width:1.5;"/>
    <path clip-path="url(#p4dcceef178)" d="M 919.794909 187.119328 
L 919.794909 182.842284 
" style="fill:none;stroke:#000000;stroke-width:1.5;"/>
    <path clip-path="url(#p4dcceef178)" d="M 923.401455 187.119328 
L 923.401455 184.056978 
" style="fill:none;stroke:#000000;stroke-width:1.5;"/>
    <path clip-path="url(#p4dcceef178)" d="M 927.008 187.119328 
L 927.008 185.647018 
" style="fill:none;stroke:#000000;stroke-width:1.5;"/>
    <path clip-path="url(#p4dcceef178)" d="M 930.614545 187.119328 
L 930.614545 190.15477 
" style="fill:none;stroke:#000000;stroke-width:1.5;"/>
    <path clip-path="url(#p4dcceef178)" d="M 934.221091 187.119328 
L 934.221091 187.223595 
" style="fill:none;stroke:#000000;stroke-width:1.5;"/>
    <path clip-path="url(#p4dcceef178)" d="M 937.827636 187.119328 
L 937.827636 187.316672 
" style="fill:none;stroke:#000000;stroke-width:1.5;"/>
    <path clip-path="url(#p4dcceef178)" d="M 941.434182 187.119328 
L 941.434182 185.517278 
" style="fill:none;stroke:#000000;stroke-width:1.5;"/>
    <path clip-path="url(#p4dcceef178)" d="M 945.040727 187.119328 
L 945.040727 185.059277 
" style="fill:none;stroke:#000000;stroke-width:1.5;"/>
    <path clip-path="url(#p4dcceef178)" d="M 948.647273 187.119328 
L 948.647273 187.442314 
" style="fill:none;stroke:#000000;stroke-width:1.5;"/>
    <path clip-path="url(#p4dcceef178)" d="M 952.253818 187.119328 
L 952.253818 189.458549 
" style="fill:none;stroke:#000000;stroke-width:1.5;"/>
    <path clip-path="url(#p4dcceef178)" d="M 955.860364 187.119328 
L 955.860364 190.327772 
" style="fill:none;stroke:#000000;stroke-width:1.5;"/>
    <path clip-path="url(#p4dcceef178)" d="M 959.466909 187.119328 
L 959.466909 189.460525 
" style="fill:none;stroke:#000000;stroke-width:1.5;"/>
    <path clip-path="url(#p4dcceef178)" d="M 963.073455 187.119328 
L 963.073455 188.021385 
" style="fill:none;stroke:#000000;stroke-width:1.5;"/>
    <path clip-path="url(#p4dcceef178)" d="M 966.68 187.119328 
L 966.68 186.834078 
" style="fill:none;stroke:#000000;stroke-width:1.5;"/>
    <path clip-path="url(#p4dcceef178)" d="M 970.286545 187.119328 
L 970.286545 186.868209 
" style="fill:none;stroke:#000000;stroke-width:1.5;"/>
    <path clip-path="url(#p4dcceef178)" d="M 973.893091 187.119328 
L 973.893091 186.503177 
" style="fill:none;stroke:#000000;stroke-width:1.5;"/>
    <path clip-path="url(#p4dcceef178)" d="M 977.499636 187.119328 
L 977.499636 188.117134 
" style="fill:none;stroke:#000000;stroke-width:1.5;"/>
    <path clip-path="url(#p4dcceef178)" d="M 981.106182 187.119328 
L 981.106182 185.623689 
" style="fill:none;stroke:#000000;stroke-width:1.5;"/>
    <path clip-path="url(#p4dcceef178)" d="M 984.712727 187.119328 
L 984.712727 186.00302 
" style="fill:none;stroke:#000000;stroke-width:1.5;"/>
    <path clip-path="url(#p4dcceef178)" d="M 988.319273 187.119328 
L 988.319273 187.845941 
" style="fill:none;stroke:#000000;stroke-width:1.5;"/>
    <path clip-path="url(#p4dcceef178)" d="M 991.925818 187.119328 
L 991.925818 184.931108 
" style="fill:none;stroke:#000000;stroke-width:1.5;"/>
    <path clip-path="url(#p4dcceef178)" d="M 995.532364 187.119328 
L 995.532364 184.322313 
" style="fill:none;stroke:#000000;stroke-width:1.5;"/>
    <path clip-path="url(#p4dcceef178)" d="M 999.138909 187.119328 
L 999.138909 182.813971 
" style="fill:none;stroke:#000000;stroke-width:1.5;"/>
    <path clip-path="url(#p4dcceef178)" d="M 1002.745455 187.119328 
L 1002.745455 183.61579 
" style="fill:none;stroke:#000000;stroke-width:1.5;"/>
    <path clip-path="url(#p4dcceef178)" d="M 1006.352 187.119328 
L 1006.352 185.431284 
" style="fill:none;stroke:#000000;stroke-width:1.5;"/>
    <path clip-path="url(#p4dcceef178)" d="M 1009.958545 187.119328 
L 1009.958545 185.119483 
" style="fill:none;stroke:#000000;stroke-width:1.5;"/>
    <path clip-path="url(#p4dcceef178)" d="M 1013.565091 187.119328 
L 1013.565091 186.774658 
" style="fill:none;stroke:#000000;stroke-width:1.5;"/>
    <path clip-path="url(#p4dcceef178)" d="M 1017.171636 187.119328 
L 1017.171636 186.244967 
" style="fill:none;stroke:#000000;stroke-width:1.5;"/>
    <path clip-path="url(#p4dcceef178)" d="M 1020.778182 187.119328 
L 1020.778182 183.645066 
" style="fill:none;stroke:#000000;stroke-width:1.5;"/>
    <path clip-path="url(#p4dcceef178)" d="M 1024.384727 187.119328 
L 1024.384727 184.658297 
" style="fill:none;stroke:#000000;stroke-width:1.5;"/>
    <path clip-path="url(#p4dcceef178)" d="M 1027.991273 187.119328 
L 1027.991273 185.949439 
" style="fill:none;stroke:#000000;stroke-width:1.5;"/>
    <path clip-path="url(#p4dcceef178)" d="M 1031.597818 187.119328 
L 1031.597818 190.171612 
" style="fill:none;stroke:#000000;stroke-width:1.5;"/>
    <path clip-path="url(#p4dcceef178)" d="M 1035.204364 187.119328 
L 1035.204364 189.065594 
" style="fill:none;stroke:#000000;stroke-width:1.5;"/>
    <path clip-path="url(#p4dcceef178)" d="M 1038.810909 187.119328 
L 1038.810909 186.891742 
" style="fill:none;stroke:#000000;stroke-width:1.5;"/>
    <path clip-path="url(#p4dcceef178)" d="M 1042.417455 187.119328 
L 1042.417455 185.977992 
" style="fill:none;stroke:#000000;stroke-width:1.5;"/>
    <path clip-path="url(#p4dcceef178)" d="M 1046.024 187.119328 
L 1046.024 184.427017 
" style="fill:none;stroke:#000000;stroke-width:1.5;"/>
    <path clip-path="url(#p4dcceef178)" d="M 1049.630545 187.119328 
L 1049.630545 185.801827 
" style="fill:none;stroke:#000000;stroke-width:1.5;"/>
    <path clip-path="url(#p4dcceef178)" d="M 1053.237091 187.119328 
L 1053.237091 186.141934 
" style="fill:none;stroke:#000000;stroke-width:1.5;"/>
    <path clip-path="url(#p4dcceef178)" d="M 1056.843636 187.119328 
L 1056.843636 189.181654 
" style="fill:none;stroke:#000000;stroke-width:1.5;"/>
   </g>
   <g id="line2d_9">
    <path clip-path="url(#p4dcceef178)" d="M 876.516364 182.796776 
L 880.122909 182.79656 
L 883.729455 182.796344 
L 887.336 182.796127 
L 890.942545 182.795911 
L 894.549091 182.795695 
L 898.155636 182.795479 
L 901.762182 182.795262 
L 905.368727 182.795046 
L 908.975273 182.79483 
L 912.581818 182.794613 
L 916.188364 182.794397 
L 919.794909 182.79418 
L 923.401455 182.793964 
L 927.008 182.793747 
L 930.614545 182.79353 
L 934.221091 182.793314 
L 937.827636 182.793097 
L 941.434182 182.79288 
L 945.040727 182.792664 
L 948.647273 182.792447 
L 952.253818 182.79223 
L 955.860364 182.792013 
L 959.466909 182.791796 
L 963.073455 182.79158 
L 966.68 182.791363 
L 970.286545 182.791146 
L 973.893091 182.790929 
L 977.499636 182.790712 
L 981.106182 182.790495 
L 984.712727 182.790278 
L 988.319273 182.79006 
L 991.925818 182.789843 
L 995.532364 182.789626 
L 999.138909 182.789409 
L 1002.745455 182.789192 
L 1006.352 182.788974 
L 1009.958545 182.788757 
L 1013.565091 182.78854 
L 1017.171636 182.788322 
L 1020.778182 182.788105 
L 1024.384727 182.787887 
L 1027.991273 182.78767 
L 1031.597818 182.787452 
L 1035.204364 182.787235 
L 1038.810909 182.787017 
L 1042.417455 182.7868 
L 1046.024 182.786582 
L 1049.630545 182.786364 
L 1053.237091 182.786147 
L 1056.843636 182.785929 
" style="fill:none;stroke:#ff0000;stroke-dasharray:5.6,2.4;stroke-dashoffset:0;stroke-width:1.5;"/>
   </g>
   <g id="line2d_10">
    <path clip-path="url(#p4dcceef178)" d="M 876.516364 191.44188 
L 880.122909 191.442096 
L 883.729455 191.442313 
L 887.336 191.442529 
L 890.942545 191.442745 
L 894.549091 191.442961 
L 898.155636 191.443178 
L 901.762182 191.443394 
L 905.368727 191.44361 
L 908.975273 191.443827 
L 912.581818 191.444043 
L 916.188364 191.44426 
L 919.794909 191.444476 
L 923.401455 191.444693 
L 927.008 191.444909 
L 930.614545 191.445126 
L 934.221091 191.445342 
L 937.827636 191.445559 
L 941.434182 191.445776 
L 945.040727 191.445992 
L 948.647273 191.446209 
L 952.253818 191.446426 
L 955.860364 191.446643 
L 959.466909 191.44686 
L 963.073455 191.447077 
L 966.68 191.447294 
L 970.286545 191.44751 
L 973.893091 191.447727 
L 977.499636 191.447945 
L 981.106182 191.448162 
L 984.712727 191.448379 
L 988.319273 191.448596 
L 991.925818 191.448813 
L 995.532364 191.44903 
L 999.138909 191.449247 
L 1002.745455 191.449465 
L 1006.352 191.449682 
L 1009.958545 191.449899 
L 1013.565091 191.450117 
L 1017.171636 191.450334 
L 1020.778182 191.450551 
L 1024.384727 191.450769 
L 1027.991273 191.450986 
L 1031.597818 191.451204 
L 1035.204364 191.451421 
L 1038.810909 191.451639 
L 1042.417455 191.451857 
L 1046.024 191.452074 
L 1049.630545 191.452292 
L 1053.237091 191.45251 
L 1056.843636 191.452727 
" style="fill:none;stroke:#ff0000;stroke-dasharray:5.6,2.4;stroke-dashoffset:0;stroke-width:1.5;"/>
   </g>
   <g id="patch_23">
    <path d="M 867.5 200.06 
L 867.5 10.7 
" style="fill:none;stroke:#000000;stroke-linecap:square;stroke-linejoin:miter;stroke-width:0.8;"/>
   </g>
   <g id="patch_24">
    <path d="M 1065.86 200.06 
L 1065.86 10.7 
" style="fill:none;stroke:#000000;stroke-linecap:square;stroke-linejoin:miter;stroke-width:0.8;"/>
   </g>
   <g id="patch_25">
    <path d="M 867.5 200.06 
L 1065.86 200.06 
" style="fill:none;stroke:#000000;stroke-linecap:square;stroke-linejoin:miter;stroke-width:0.8;"/>
   </g>
   <g id="patch_26">
    <path d="M 867.5 10.7 
L 1065.86 10.7 
" style="fill:none;stroke:#000000;stroke-linecap:square;stroke-linejoin:miter;stroke-width:0.8;"/>
   </g>
  </g>
  <g id="axes_6">
   <g id="patch_27">
    <path d="M 1081.7 200.06 
L 1280.06 200.06 
L 1280.06 10.7 
L 1081.7 10.7 
z
" style="fill:#ffffff;"/>
   </g>
   <g id="matplotlib.axis_11">
    <g id="xtick_31"/>
    <g id="xtick_32"/>
    <g id="xtick_33"/>
    <g id="xtick_34"/>
    <g id="xtick_35"/>
    <g id="xtick_36"/>
   </g>
   <g id="matplotlib.axis_12">
    <g id="ytick_31"/>
    <g id="ytick_32"/>
    <g id="ytick_33"/>
    <g id="ytick_34"/>
    <g id="ytick_35"/>
    <g id="ytick_36"/>
   </g>
   <g id="LineCollection_6">
    <path clip-path="url(#p749feebf90)" d="M 1090.716364 187.119328 
L 1090.716364 19.307273 
" style="fill:none;stroke:#000000;stroke-width:1.5;"/>
    <path clip-path="url(#p749feebf90)" d="M 1094.322909 187.119328 
L 1094.322909 158.993842 
" style="fill:none;stroke:#000000;stroke-width:1.5;"/>
    <path clip-path="url(#p749feebf90)" d="M 1097.929455 187.119328 
L 1097.929455 175.583761 
" style="fill:none;stroke:#000000;stroke-width:1.5;"/>
    <path clip-path="url(#p749feebf90)" d="M 1101.536 187.119328 
L 1101.536 182.678484 
" style="fill:none;stroke:#000000;stroke-width:1.5;"/>
    <path clip-path="url(#p749feebf90)" d="M 1105.142545 187.119328 
L 1105.142545 185.949439 
" style="fill:none;stroke:#000000;stroke-width:1.5;"/>
    <path clip-path="url(#p749feebf90)" d="M 1108.749091 187.119328 
L 1108.749091 182.909281 
" style="fill:none;stroke:#000000;stroke-width:1.5;"/>
    <path clip-path="url(#p749feebf90)" d="M 1112.355636 187.119328 
L 1112.355636 187.890317 
" style="fill:none;stroke:#000000;stroke-width:1.5;"/>
    <path clip-path="url(#p749feebf90)" d="M 1115.962182 187.119328 
L 1115.962182 184.776938 
" style="fill:none;stroke:#000000;stroke-width:1.5;"/>
    <path clip-path="url(#p749feebf90)" d="M 1119.568727 187.119328 
L 1119.568727 184.464257 
" style="fill:none;stroke:#000000;stroke-width:1.5;"/>
    <path clip-path="url(#p749feebf90)" d="M 1123.175273 187.119328 
L 1123.175273 186.373189 
" style="fill:none;stroke:#000000;stroke-width:1.5;"/>
    <path clip-path="url(#p749feebf90)" d="M 1126.781818 187.119328 
L 1126.781818 187.210123 
" style="fill:none;stroke:#000000;stroke-width:1.5;"/>
    <path clip-path="url(#p749feebf90)" d="M 1130.388364 187.119328 
L 1130.388364 184.096274 
" style="fill:none;stroke:#000000;stroke-width:1.5;"/>
    <path clip-path="url(#p749feebf90)" d="M 1133.994909 187.119328 
L 1133.994909 182.599559 
" style="fill:none;stroke:#000000;stroke-width:1.5;"/>
    <path clip-path="url(#p749feebf90)" d="M 1137.601455 187.119328 
L 1137.601455 184.077677 
" style="fill:none;stroke:#000000;stroke-width:1.5;"/>
    <path clip-path="url(#p749feebf90)" d="M 1141.208 187.119328 
L 1141.208 185.959667 
" style="fill:none;stroke:#000000;stroke-width:1.5;"/>
    <path clip-path="url(#p749feebf90)" d="M 1144.814545 187.119328 
L 1144.814545 189.314027 
" style="fill:none;stroke:#000000;stroke-width:1.5;"/>
    <path clip-path="url(#p749feebf90)" d="M 1148.421091 187.119328 
L 1148.421091 186.51204 
" style="fill:none;stroke:#000000;stroke-width:1.5;"/>
    <path clip-path="url(#p749feebf90)" d="M 1152.027636 187.119328 
L 1152.027636 187.497234 
" style="fill:none;stroke:#000000;stroke-width:1.5;"/>
    <path clip-path="url(#p749feebf90)" d="M 1155.634182 187.119328 
L 1155.634182 186.703449 
" style="fill:none;stroke:#000000;stroke-width:1.5;"/>
    <path clip-path="url(#p749feebf90)" d="M 1159.240727 187.119328 
L 1159.240727 185.326249 
" style="fill:none;stroke:#000000;stroke-width:1.5;"/>
    <path clip-path="url(#p749feebf90)" d="M 1162.847273 187.119328 
L 1162.847273 185.896228 
" style="fill:none;stroke:#000000;stroke-width:1.5;"/>
    <path clip-path="url(#p749feebf90)" d="M 1166.453818 187.119328 
L 1166.453818 189.863958 
" style="fill:none;stroke:#000000;stroke-width:1.5;"/>
    <path clip-path="url(#p749feebf90)" d="M 1170.060364 187.119328 
L 1170.060364 189.898795 
" style="fill:none;stroke:#000000;stroke-width:1.5;"/>
    <path clip-path="url(#p749feebf90)" d="M 1173.666909 187.119328 
L 1173.666909 189.283379 
" style="fill:none;stroke:#000000;stroke-width:1.5;"/>
    <path clip-path="url(#p749feebf90)" d="M 1177.273455 187.119328 
L 1177.273455 187.769386 
" style="fill:none;stroke:#000000;stroke-width:1.5;"/>
    <path clip-path="url(#p749feebf90)" d="M 1180.88 187.119328 
L 1180.88 186.79993 
" style="fill:none;stroke:#000000;stroke-width:1.5;"/>
    <path clip-path="url(#p749feebf90)" d="M 1184.486545 187.119328 
L 1184.486545 187.313578 
" style="fill:none;stroke:#000000;stroke-width:1.5;"/>
    <path clip-path="url(#p749feebf90)" d="M 1188.093091 187.119328 
L 1188.093091 186.582984 
" style="fill:none;stroke:#000000;stroke-width:1.5;"/>
    <path clip-path="url(#p749feebf90)" d="M 1191.699636 187.119328 
L 1191.699636 188.872085 
" style="fill:none;stroke:#000000;stroke-width:1.5;"/>
    <path clip-path="url(#p749feebf90)" d="M 1195.306182 187.119328 
L 1195.306182 185.696667 
" style="fill:none;stroke:#000000;stroke-width:1.5;"/>
    <path clip-path="url(#p749feebf90)" d="M 1198.912727 187.119328 
L 1198.912727 185.734587 
" style="fill:none;stroke:#000000;stroke-width:1.5;"/>
    <path clip-path="url(#p749feebf90)" d="M 1202.519273 187.119328 
L 1202.519273 187.207592 
" style="fill:none;stroke:#000000;stroke-width:1.5;"/>
    <path clip-path="url(#p749feebf90)" d="M 1206.125818 187.119328 
L 1206.125818 184.999224 
" style="fill:none;stroke:#000000;stroke-width:1.5;"/>
    <path clip-path="url(#p749feebf90)" d="M 1209.732364 187.119328 
L 1209.732364 184.722584 
" style="fill:none;stroke:#000000;stroke-width:1.5;"/>
    <path clip-path="url(#p749feebf90)" d="M 1213.338909 187.119328 
L 1213.338909 183.305877 
" style="fill:none;stroke:#000000;stroke-width:1.5;"/>
    <path clip-path="url(#p749feebf90)" d="M 1216.945455 187.119328 
L 1216.945455 183.396994 
" style="fill:none;stroke:#000000;stroke-width:1.5;"/>
    <path clip-path="url(#p749feebf90)" d="M 1220.552 187.119328 
L 1220.552 185.982985 
" style="fill:none;stroke:#000000;stroke-width:1.5;"/>
    <path clip-path="url(#p749feebf90)" d="M 1224.158545 187.119328 
L 1224.158545 185.161203 
" style="fill:none;stroke:#000000;stroke-width:1.5;"/>
    <path clip-path="url(#p749feebf90)" d="M 1227.765091 187.119328 
L 1227.765091 185.533317 
" style="fill:none;stroke:#000000;stroke-width:1.5;"/>
    <path clip-path="url(#p749feebf90)" d="M 1231.371636 187.119328 
L 1231.371636 185.992641 
" style="fill:none;stroke:#000000;stroke-width:1.5;"/>
    <path clip-path="url(#p749feebf90)" d="M 1234.978182 187.119328 
L 1234.978182 183.85233 
" style="fill:none;stroke:#000000;stroke-width:1.5;"/>
    <path clip-path="url(#p749feebf90)" d="M 1238.584727 187.119328 
L 1238.584727 184.746209 
" style="fill:none;stroke:#000000;stroke-width:1.5;"/>
    <path clip-path="url(#p749feebf90)" d="M 1242.191273 187.119328 
L 1242.191273 185.642185 
" style="fill:none;stroke:#000000;stroke-width:1.5;"/>
    <path clip-path="url(#p749feebf90)" d="M 1245.797818 187.119328 
L 1245.797818 189.760506 
" style="fill:none;stroke:#000000;stroke-width:1.5;"/>
    <path clip-path="url(#p749feebf90)" d="M 1249.404364 187.119328 
L 1249.404364 188.079914 
" style="fill:none;stroke:#000000;stroke-width:1.5;"/>
    <path clip-path="url(#p749feebf90)" d="M 1253.010909 187.119328 
L 1253.010909 186.026358 
" style="fill:none;stroke:#000000;stroke-width:1.5;"/>
    <path clip-path="url(#p749feebf90)" d="M 1256.617455 187.119328 
L 1256.617455 185.823174 
" style="fill:none;stroke:#000000;stroke-width:1.5;"/>
    <path clip-path="url(#p749feebf90)" d="M 1260.224 187.119328 
L 1260.224 184.821408 
" style="fill:none;stroke:#000000;stroke-width:1.5;"/>
    <path clip-path="url(#p749feebf90)" d="M 1263.830545 187.119328 
L 1263.830545 186.086632 
" style="fill:none;stroke:#000000;stroke-width:1.5;"/>
    <path clip-path="url(#p749feebf90)" d="M 1267.437091 187.119328 
L 1267.437091 186.887585 
" style="fill:none;stroke:#000000;stroke-width:1.5;"/>
    <path clip-path="url(#p749feebf90)" d="M 1271.043636 187.119328 
L 1271.043636 189.564169 
" style="fill:none;stroke:#000000;stroke-width:1.5;"/>
   </g>
   <g id="line2d_11">
    <path clip-path="url(#p749feebf90)" d="M 1090.716364 182.796776 
L 1094.322909 182.79656 
L 1097.929455 182.796344 
L 1101.536 182.796127 
L 1105.142545 182.795911 
L 1108.749091 182.795695 
L 1112.355636 182.795479 
L 1115.962182 182.795262 
L 1119.568727 182.795046 
L 1123.175273 182.79483 
L 1126.781818 182.794613 
L 1130.388364 182.794397 
L 1133.994909 182.79418 
L 1137.601455 182.793964 
L 1141.208 182.793747 
L 1144.814545 182.79353 
L 1148.421091 182.793314 
L 1152.027636 182.793097 
L 1155.634182 182.79288 
L 1159.240727 182.792664 
L 1162.847273 182.792447 
L 1166.453818 182.79223 
L 1170.060364 182.792013 
L 1173.666909 182.791796 
L 1177.273455 182.79158 
L 1180.88 182.791363 
L 1184.486545 182.791146 
L 1188.093091 182.790929 
L 1191.699636 182.790712 
L 1195.306182 182.790495 
L 1198.912727 182.790278 
L 1202.519273 182.79006 
L 1206.125818 182.789843 
L 1209.732364 182.789626 
L 1213.338909 182.789409 
L 1216.945455 182.789192 
L 1220.552 182.788974 
L 1224.158545 182.788757 
L 1227.765091 182.78854 
L 1231.371636 182.788322 
L 1234.978182 182.788105 
L 1238.584727 182.787887 
L 1242.191273 182.78767 
L 1245.797818 182.787452 
L 1249.404364 182.787235 
L 1253.010909 182.787017 
L 1256.617455 182.7868 
L 1260.224 182.786582 
L 1263.830545 182.786364 
L 1267.437091 182.786147 
L 1271.043636 182.785929 
" style="fill:none;stroke:#ff0000;stroke-dasharray:5.6,2.4;stroke-dashoffset:0;stroke-width:1.5;"/>
   </g>
   <g id="line2d_12">
    <path clip-path="url(#p749feebf90)" d="M 1090.716364 191.44188 
L 1094.322909 191.442096 
L 1097.929455 191.442313 
L 1101.536 191.442529 
L 1105.142545 191.442745 
L 1108.749091 191.442961 
L 1112.355636 191.443178 
L 1115.962182 191.443394 
L 1119.568727 191.44361 
L 1123.175273 191.443827 
L 1126.781818 191.444043 
L 1130.388364 191.44426 
L 1133.994909 191.444476 
L 1137.601455 191.444693 
L 1141.208 191.444909 
L 1144.814545 191.445126 
L 1148.421091 191.445342 
L 1152.027636 191.445559 
L 1155.634182 191.445776 
L 1159.240727 191.445992 
L 1162.847273 191.446209 
L 1166.453818 191.446426 
L 1170.060364 191.446643 
L 1173.666909 191.44686 
L 1177.273455 191.447077 
L 1180.88 191.447294 
L 1184.486545 191.44751 
L 1188.093091 191.447727 
L 1191.699636 191.447945 
L 1195.306182 191.448162 
L 1198.912727 191.448379 
L 1202.519273 191.448596 
L 1206.125818 191.448813 
L 1209.732364 191.44903 
L 1213.338909 191.449247 
L 1216.945455 191.449465 
L 1220.552 191.449682 
L 1224.158545 191.449899 
L 1227.765091 191.450117 
L 1231.371636 191.450334 
L 1234.978182 191.450551 
L 1238.584727 191.450769 
L 1242.191273 191.450986 
L 1245.797818 191.451204 
L 1249.404364 191.451421 
L 1253.010909 191.451639 
L 1256.617455 191.451857 
L 1260.224 191.452074 
L 1263.830545 191.452292 
L 1267.437091 191.45251 
L 1271.043636 191.452727 
" style="fill:none;stroke:#ff0000;stroke-dasharray:5.6,2.4;stroke-dashoffset:0;stroke-width:1.5;"/>
   </g>
   <g id="patch_28">
    <path d="M 1081.7 200.06 
L 1081.7 10.7 
" style="fill:none;stroke:#000000;stroke-linecap:square;stroke-linejoin:miter;stroke-width:0.8;"/>
   </g>
   <g id="patch_29">
    <path d="M 1280.06 200.06 
L 1280.06 10.7 
" style="fill:none;stroke:#000000;stroke-linecap:square;stroke-linejoin:miter;stroke-width:0.8;"/>
   </g>
   <g id="patch_30">
    <path d="M 1081.7 200.06 
L 1280.06 200.06 
" style="fill:none;stroke:#000000;stroke-linecap:square;stroke-linejoin:miter;stroke-width:0.8;"/>
   </g>
   <g id="patch_31">
    <path d="M 1081.7 10.7 
L 1280.06 10.7 
" style="fill:none;stroke:#000000;stroke-linecap:square;stroke-linejoin:miter;stroke-width:0.8;"/>
   </g>
  </g>
 </g>
 <defs>
  <clipPath id="p9bfa2aef8c">
   <rect height="189.36" width="198.36" x="10.7" y="10.7"/>
  </clipPath>
  <clipPath id="p98ae44aed0">
   <rect height="189.36" width="198.36" x="224.9" y="10.7"/>
  </clipPath>
  <clipPath id="pe8bc978797">
   <rect height="189.36" width="198.36" x="439.1" y="10.7"/>
  </clipPath>
  <clipPath id="p3e2b1a10e9">
   <rect height="189.36" width="198.36" x="653.3" y="10.7"/>
  </clipPath>
  <clipPath id="p4dcceef178">
   <rect height="189.36" width="198.36" x="867.5" y="10.7"/>
  </clipPath>
  <clipPath id="p749feebf90">
   <rect height="189.36" width="198.36" x="1081.7" y="10.7"/>
  </clipPath>
 </defs>
</svg>
