<?xml version="1.0" encoding="utf-8" standalone="no"?>
<!DOCTYPE svg PUBLIC "-//W3C//DTD SVG 1.1//EN"
  "http://www.w3.org/Graphics/SVG/1.1/DTD/svg11.dtd">
<!-- Created with matplotlib (http://matplotlib.org/) -->
<svg height="464pt" version="1.1" viewBox="0 0 467 464" width="467pt" xmlns="http://www.w3.org/2000/svg" xmlns:xlink="http://www.w3.org/1999/xlink">
 <defs>
  <style type="text/css">
*{stroke-linecap:butt;stroke-linejoin:round;}
  </style>
 </defs>
 <g id="figure_1">
  <g id="patch_1">
   <path d="M 0 464.92 
L 467.8 464.92 
L 467.8 0 
L 0 0 
z
" style="fill:#ffffff;"/>
  </g>
  <g id="axes_1">
   <g id="patch_2">
    <path d="M 10.7 141.147059 
L 141.994118 141.147059 
L 141.994118 10.7 
L 10.7 10.7 
z
" style="fill:#ffffff;"/>
   </g>
   <g id="line2d_1">
    <path clip-path="url(#p5a2e9516a3)" d="M 16.667914 135.217647 
L 20.783717 135.217647 
L 24.899521 135.217647 
L 29.015324 135.217647 
L 33.131127 135.217647 
L 37.24693 135.217646 
L 41.362733 135.21761 
L 45.478536 135.216952 
L 49.594339 135.207085 
L 53.710142 135.086828 
L 57.825945 133.991431 
L 61.941748 127.505167 
L 66.057551 105.329033 
L 70.173354 64.373801 
L 74.289157 27.980652 
L 78.40496 27.41016 
L 82.520763 63.529584 
L 86.636566 105.597175 
L 90.75237 128.387754 
L 94.868173 134.42242 
L 98.983976 135.171892 
L 103.099779 135.216215 
L 107.215582 135.217617 
L 111.331385 135.217647 
L 115.447188 135.217647 
L 119.562991 135.217647 
L 123.678794 135.217647 
L 127.794597 135.217647 
L 131.9104 135.217647 
L 136.026203 135.217647 
" style="fill:none;stroke:#1f77b4;stroke-linecap:square;stroke-width:1.5;"/>
   </g>
   <g id="line2d_2">
    <path clip-path="url(#p5a2e9516a3)" d="M 16.667914 16.629412 
" style="fill:none;stroke:#ffffff;stroke-linecap:square;stroke-width:1.5;"/>
   </g>
   <g id="patch_3">
    <path d="M 10.7 141.147059 
L 10.7 10.7 
" style="fill:none;stroke:#000000;stroke-linecap:square;stroke-linejoin:miter;stroke-width:0.5;"/>
   </g>
   <g id="patch_4">
    <path d="M 141.994118 141.147059 
L 141.994118 10.7 
" style="fill:none;stroke:#000000;stroke-linecap:square;stroke-linejoin:miter;stroke-width:0.5;"/>
   </g>
   <g id="patch_5">
    <path d="M 10.7 141.147059 
L 141.994118 141.147059 
" style="fill:none;stroke:#000000;stroke-linecap:square;stroke-linejoin:miter;stroke-width:0.5;"/>
   </g>
   <g id="patch_6">
    <path d="M 10.7 10.7 
L 141.994118 10.7 
" style="fill:none;stroke:#000000;stroke-linecap:square;stroke-linejoin:miter;stroke-width:0.5;"/>
   </g>
  </g>
  <g id="axes_2">
   <g id="patch_7">
    <path d="M 10.7 297.683529 
L 141.994118 297.683529 
L 141.994118 167.236471 
L 10.7 167.236471 
z
" style="fill:#ffffff;"/>
   </g>
   <g id="PathCollection_1">
    <path clip-path="url(#p60d18c62c3)" d="M 20.783717 292.139144 
L 24.899521 292.139144 
L 29.015324 292.139144 
L 33.131127 292.139144 
L 37.24693 292.139144 
L 41.362733 292.139144 
L 45.478536 292.139144 
L 49.594339 292.139144 
L 53.710142 292.139144 
L 57.825945 292.139144 
L 61.941748 292.139144 
L 66.057551 292.139144 
L 70.173354 292.139144 
L 74.289157 292.139144 
L 78.40496 292.139144 
L 82.520763 292.139144 
L 86.636566 292.139144 
L 90.75237 292.139144 
L 94.868173 292.139144 
L 98.983976 292.139144 
L 103.099779 292.139144 
L 107.215582 292.139144 
L 111.331385 292.139144 
L 115.447188 292.139144 
L 119.562991 292.139144 
L 123.678794 292.139144 
L 127.794597 292.139144 
L 131.9104 292.139144 
L 136.026203 292.139144 
L 136.026203 288.023341 
L 136.026203 283.907538 
L 136.026203 279.791735 
L 136.026203 275.675932 
L 136.026203 271.560129 
L 136.026203 267.444326 
L 136.026203 263.328523 
L 136.026203 259.21272 
L 136.026203 255.096917 
L 136.026203 250.981114 
L 136.026203 246.865311 
L 136.026203 242.749508 
L 136.026203 238.633705 
L 136.026203 234.517902 
L 136.026203 230.402098 
L 136.026203 226.286295 
L 136.026203 222.170492 
L 136.026203 218.054689 
L 136.026203 213.938886 
L 136.026203 209.823083 
L 136.026203 205.70728 
L 136.026203 201.591477 
L 136.026203 197.475674 
L 136.026203 193.359871 
L 136.026203 189.244068 
L 136.026203 185.128265 
L 136.026203 181.012462 
L 136.026203 176.896659 
L 136.026203 172.780856 
L 131.9104 172.780856 
L 127.794597 172.780856 
L 123.678794 172.780856 
L 119.562991 172.780856 
L 115.447188 172.780856 
L 111.331385 172.780856 
L 107.215582 172.780856 
L 103.099779 172.780856 
L 98.983976 172.780856 
L 94.868173 172.780856 
L 90.75237 172.780856 
L 86.636566 172.780856 
L 82.520763 172.780856 
L 78.40496 172.780856 
L 74.289157 172.780856 
L 70.173354 172.780856 
L 66.057551 172.780856 
L 61.941748 172.780856 
L 57.825945 172.780856 
L 53.710142 172.780856 
L 49.594339 172.780856 
L 45.478536 172.780856 
L 41.362733 172.780856 
L 37.24693 172.780856 
L 33.131127 172.780856 
L 29.015324 172.780856 
L 24.899521 172.780856 
L 20.783717 172.780856 
L 16.667914 172.780856 
L 16.667914 176.896659 
L 16.667914 181.012462 
L 16.667914 185.128265 
L 16.667914 189.244068 
L 16.667914 193.359871 
L 16.667914 197.475674 
L 16.667914 201.591477 
L 16.667914 205.70728 
L 16.667914 209.823083 
L 16.667914 213.938886 
L 16.667914 218.054689 
L 16.667914 222.170492 
L 16.667914 226.286295 
L 16.667914 230.402098 
L 16.667914 234.517902 
L 16.667914 238.633705 
L 16.667914 242.749508 
L 16.667914 246.865311 
L 16.667914 250.981114 
L 16.667914 255.096917 
L 16.667914 259.21272 
L 16.667914 263.328523 
L 16.667914 267.444326 
L 16.667914 271.560129 
L 16.667914 275.675932 
L 16.667914 279.791735 
L 16.667914 283.907538 
L 16.667914 288.023341 
L 16.667914 292.139144 
z
M 70.384281 259.21272 
L 70.173354 258.946611 
L 68.230405 255.096917 
L 67.223922 250.981114 
L 66.603857 246.865311 
L 66.057551 242.920238 
L 65.968702 242.749508 
L 63.712378 238.633705 
L 62.415918 234.517902 
L 61.941748 232.458636 
L 60.726736 230.402098 
L 59.938136 226.286295 
L 60.88421 222.170492 
L 61.941748 220.6149 
L 63.518893 218.054689 
L 66.057551 215.640168 
L 68.748357 213.938886 
L 70.173354 212.925168 
L 74.289157 211.076247 
L 78.40496 210.307245 
L 82.520763 210.289185 
L 86.636566 211.461254 
L 89.537429 213.938886 
L 90.75237 215.855541 
L 91.912008 218.054689 
L 92.810651 222.170492 
L 92.687033 226.286295 
L 91.52256 230.402098 
L 90.75237 231.722831 
L 90.156699 234.517902 
L 88.888848 238.633705 
L 86.636566 242.395478 
L 86.554813 242.749508 
L 85.778399 246.865311 
L 84.633313 250.981114 
L 82.547596 255.096917 
L 82.520763 255.146936 
L 80.59892 259.21272 
L 78.40496 261.799994 
L 74.289157 262.700793 
z
" style="fill:#ffffff;"/>
   </g>
   <g id="PathCollection_2">
    <path clip-path="url(#p60d18c62c3)" d="M 74.289157 262.700793 
L 78.40496 261.799994 
L 80.59892 259.21272 
L 82.520763 255.146936 
L 82.547596 255.096917 
L 84.633313 250.981114 
L 85.778399 246.865311 
L 86.554813 242.749508 
L 86.636566 242.395478 
L 88.888848 238.633705 
L 90.156699 234.517902 
L 90.75237 231.722831 
L 91.52256 230.402098 
L 92.687033 226.286295 
L 92.810651 222.170492 
L 91.912008 218.054689 
L 90.75237 215.855541 
L 89.537429 213.938886 
L 86.636566 211.461254 
L 82.520763 210.289185 
L 78.40496 210.307245 
L 74.289157 211.076247 
L 70.173354 212.925168 
L 68.748357 213.938886 
L 66.057551 215.640168 
L 63.518893 218.054689 
L 61.941748 220.6149 
L 60.88421 222.170492 
L 59.938136 226.286295 
L 60.726736 230.402098 
L 61.941748 232.458636 
L 62.415918 234.517902 
L 63.712378 238.633705 
L 65.968702 242.749508 
L 66.057551 242.920238 
L 66.603857 246.865311 
L 67.223922 250.981114 
L 68.230405 255.096917 
L 70.173354 258.946611 
L 70.384281 259.21272 
z
M 70.754669 255.096917 
L 70.173354 253.933278 
L 68.907939 250.981114 
L 67.735323 246.865311 
L 66.87437 242.749508 
L 66.057551 238.745577 
L 65.995103 238.633705 
L 63.954135 234.517902 
L 62.909463 230.402098 
L 62.694379 226.286295 
L 63.859865 222.170492 
L 66.057551 219.392068 
L 67.438473 218.054689 
L 70.173354 215.909266 
L 74.289157 214.234226 
L 76.224738 213.938886 
L 78.40496 213.406089 
L 82.520763 213.932599 
L 82.533617 213.938886 
L 86.636566 216.291007 
L 88.056557 218.054689 
L 89.722492 222.170492 
L 90.052784 226.286295 
L 89.649438 230.402098 
L 88.654127 234.517902 
L 86.636566 238.559296 
L 86.619388 238.633705 
L 85.664115 242.749508 
L 84.382385 246.865311 
L 82.520763 250.594205 
L 82.375904 250.981114 
L 80.631903 255.096917 
L 78.40496 258.063366 
L 74.289157 258.997578 
z
" style="fill:#0000a8;"/>
   </g>
   <g id="PathCollection_3">
    <path clip-path="url(#p60d18c62c3)" d="M 74.289157 258.997578 
L 78.40496 258.063366 
L 80.631903 255.096917 
L 82.375904 250.981114 
L 82.520763 250.594205 
L 84.382385 246.865311 
L 85.664115 242.749508 
L 86.619388 238.633705 
L 86.636566 238.559296 
L 88.654127 234.517902 
L 89.649438 230.402098 
L 90.052784 226.286295 
L 89.722492 222.170492 
L 88.056557 218.054689 
L 86.636566 216.291007 
L 82.533617 213.938886 
L 82.520763 213.932599 
L 78.40496 213.406089 
L 76.224738 213.938886 
L 74.289157 214.234226 
L 70.173354 215.909266 
L 67.438473 218.054689 
L 66.057551 219.392068 
L 63.859865 222.170492 
L 62.694379 226.286295 
L 62.909463 230.402098 
L 63.954135 234.517902 
L 65.995103 238.633705 
L 66.057551 238.745577 
L 66.87437 242.749508 
L 67.735323 246.865311 
L 68.907939 250.981114 
L 70.173354 253.933278 
L 70.754669 255.096917 
z
M 72.717338 255.096917 
L 70.437686 250.981114 
L 70.173354 250.252076 
L 68.86679 246.865311 
L 67.70862 242.749508 
L 66.742007 238.633705 
L 66.057551 235.646415 
L 65.492353 234.517902 
L 64.307593 230.402098 
L 64.350204 226.286295 
L 66.057551 222.531764 
L 66.239465 222.170492 
L 70.173354 218.308982 
L 70.694517 218.054689 
L 74.289157 216.169084 
L 78.40496 215.545274 
L 82.520763 216.440758 
L 84.674007 218.054689 
L 86.636566 220.444123 
L 87.555518 222.170492 
L 88.478238 226.286295 
L 88.292279 230.402098 
L 87.151555 234.517902 
L 86.636566 235.54948 
L 85.924529 238.633705 
L 84.773417 242.749508 
L 82.986371 246.865311 
L 82.520763 247.797939 
L 81.328973 250.981114 
L 78.731865 255.096917 
L 78.40496 255.532378 
L 74.289157 256.831577 
z
" style="fill:#0000fa;"/>
   </g>
   <g id="PathCollection_4">
    <path clip-path="url(#p60d18c62c3)" d="M 74.289157 256.831577 
L 78.40496 255.532378 
L 78.731865 255.096917 
L 81.328973 250.981114 
L 82.520763 247.797939 
L 82.986371 246.865311 
L 84.773417 242.749508 
L 85.924529 238.633705 
L 86.636566 235.54948 
L 87.151555 234.517902 
L 88.292279 230.402098 
L 88.478238 226.286295 
L 87.555518 222.170492 
L 86.636566 220.444123 
L 84.674007 218.054689 
L 82.520763 216.440758 
L 78.40496 215.545274 
L 74.289157 216.169084 
L 70.694517 218.054689 
L 70.173354 218.308982 
L 66.239465 222.170492 
L 66.057551 222.531764 
L 64.350204 226.286295 
L 64.307593 230.402098 
L 65.492353 234.517902 
L 66.057551 235.646415 
L 66.742007 238.633705 
L 67.70862 242.749508 
L 68.86679 246.865311 
L 70.173354 250.252076 
L 70.437686 250.981114 
L 72.717338 255.096917 
z
M 71.501082 250.981114 
L 70.173354 247.319186 
L 69.998256 246.865311 
L 68.542871 242.749508 
L 67.445714 238.633705 
L 66.507158 234.517902 
L 66.057551 231.573443 
L 65.705723 230.402098 
L 66.006029 226.286295 
L 66.057551 226.172995 
L 68.072958 222.170492 
L 70.173354 220.108741 
L 74.289157 218.090724 
L 74.617577 218.054689 
L 78.40496 217.485201 
L 80.26498 218.054689 
L 82.520763 218.788003 
L 85.567912 222.170492 
L 86.636566 225.349769 
L 86.903692 226.286295 
L 86.935119 230.402098 
L 86.636566 231.434203 
L 86.183079 234.517902 
L 85.229669 238.633705 
L 83.882719 242.749508 
L 82.520763 245.615938 
L 82.057648 246.865311 
L 80.282043 250.981114 
L 78.40496 253.796719 
L 74.289157 254.806372 
z
" style="fill:#0034ff;"/>
   </g>
   <g id="PathCollection_5">
    <path clip-path="url(#p60d18c62c3)" d="M 74.289157 254.806372 
L 78.40496 253.796719 
L 80.282043 250.981114 
L 82.057648 246.865311 
L 82.520763 245.615938 
L 83.882719 242.749508 
L 85.229669 238.633705 
L 86.183079 234.517902 
L 86.636566 231.434203 
L 86.935119 230.402098 
L 86.903692 226.286295 
L 86.636566 225.349769 
L 85.567912 222.170492 
L 82.520763 218.788003 
L 80.26498 218.054689 
L 78.40496 217.485201 
L 74.617577 218.054689 
L 74.289157 218.090724 
L 70.173354 220.108741 
L 68.072958 222.170492 
L 66.057551 226.172995 
L 66.006029 226.286295 
L 65.705723 230.402098 
L 66.057551 231.573443 
L 66.507158 234.517902 
L 67.445714 238.633705 
L 68.542871 242.749508 
L 69.998256 246.865311 
L 70.173354 247.319186 
L 71.501082 250.981114 
z
M 72.564478 250.981114 
L 70.770923 246.865311 
L 70.173354 244.932257 
L 69.377122 242.749508 
L 68.149421 238.633705 
L 67.217929 234.517902 
L 66.700048 230.402098 
L 67.210922 226.286295 
L 69.906451 222.170492 
L 70.173354 221.9085 
L 74.289157 219.506291 
L 78.40496 219.097404 
L 82.520763 220.847738 
L 83.71238 222.170492 
L 85.657272 226.286295 
L 85.981249 230.402098 
L 85.493115 234.517902 
L 84.534809 238.633705 
L 82.992021 242.749508 
L 82.520763 243.741336 
L 81.362775 246.865311 
L 79.235113 250.981114 
L 78.40496 252.226335 
L 74.289157 253.347385 
z
" style="fill:#0080ff;"/>
   </g>
   <g id="PathCollection_6">
    <path clip-path="url(#p60d18c62c3)" d="M 74.289157 253.347385 
L 78.40496 252.226335 
L 79.235113 250.981114 
L 81.362775 246.865311 
L 82.520763 243.741336 
L 82.992021 242.749508 
L 84.534809 238.633705 
L 85.493115 234.517902 
L 85.981249 230.402098 
L 85.657272 226.286295 
L 83.71238 222.170492 
L 82.520763 220.847738 
L 78.40496 219.097404 
L 74.289157 219.506291 
L 70.173354 221.9085 
L 69.906451 222.170492 
L 67.210922 226.286295 
L 66.700048 230.402098 
L 67.217929 234.517902 
L 68.149421 238.633705 
L 69.377122 242.749508 
L 70.173354 244.932257 
L 70.770923 246.865311 
L 72.564478 250.981114 
z
M 73.627874 250.981114 
L 71.477899 246.865311 
L 70.199943 242.749508 
L 70.173354 242.651903 
L 68.853128 238.633705 
L 67.9287 234.517902 
L 67.558589 230.402098 
L 68.401334 226.286295 
L 70.173354 223.671411 
L 72.198496 222.170492 
L 74.289157 220.921859 
L 78.40496 220.57342 
L 81.497963 222.170492 
L 82.520763 222.900516 
L 84.477893 226.286295 
L 85.141116 230.402098 
L 84.803151 234.517902 
L 83.83995 238.633705 
L 82.520763 241.931504 
L 82.250388 242.749508 
L 80.667901 246.865311 
L 78.40496 250.73507 
L 77.376853 250.981114 
L 74.289157 251.888399 
z
" style="fill:#00c8ff;"/>
   </g>
   <g id="PathCollection_7">
    <path clip-path="url(#p60d18c62c3)" d="M 74.289157 251.888399 
L 77.376853 250.981114 
L 78.40496 250.73507 
L 80.667901 246.865311 
L 82.250388 242.749508 
L 82.520763 241.931504 
L 83.83995 238.633705 
L 84.803151 234.517902 
L 85.141116 230.402098 
L 84.477893 226.286295 
L 82.520763 222.900516 
L 81.497963 222.170492 
L 78.40496 220.57342 
L 74.289157 220.921859 
L 72.198496 222.170492 
L 70.173354 223.671411 
L 68.401334 226.286295 
L 67.558589 230.402098 
L 67.9287 234.517902 
L 68.853128 238.633705 
L 70.173354 242.651903 
L 70.199943 242.749508 
L 71.477899 246.865311 
L 73.627874 250.981114 
z
M 72.184875 246.865311 
L 70.7834 242.749508 
L 70.173354 240.510122 
L 69.556835 238.633705 
L 68.63947 234.517902 
L 68.417131 230.402098 
L 69.591745 226.286295 
L 70.173354 225.428043 
L 74.289157 222.32006 
L 76.716676 222.170492 
L 78.40496 222.049436 
L 78.639407 222.170492 
L 82.520763 224.940809 
L 83.298514 226.286295 
L 84.300983 230.402098 
L 84.113188 234.517902 
L 83.14509 238.633705 
L 82.520763 240.194443 
L 81.676235 242.749508 
L 79.973027 246.865311 
L 78.40496 249.546795 
L 74.289157 250.517168 
z
" style="fill:#23ffd4;"/>
   </g>
   <g id="PathCollection_8">
    <path clip-path="url(#p60d18c62c3)" d="M 74.289157 250.517168 
L 78.40496 249.546795 
L 79.973027 246.865311 
L 81.676235 242.749508 
L 82.520763 240.194443 
L 83.14509 238.633705 
L 84.113188 234.517902 
L 84.300983 230.402098 
L 83.298514 226.286295 
L 82.520763 224.940809 
L 78.639407 222.170492 
L 78.40496 222.049436 
L 76.716676 222.170492 
L 74.289157 222.32006 
L 70.173354 225.428043 
L 69.591745 226.286295 
L 68.417131 230.402098 
L 68.63947 234.517902 
L 69.556835 238.633705 
L 70.173354 240.510122 
L 70.7834 242.749508 
L 72.184875 246.865311 
z
M 72.891851 246.865311 
L 71.366857 242.749508 
L 70.247163 238.633705 
L 70.173354 238.235921 
L 69.350241 234.517902 
L 69.275672 230.402098 
L 70.173354 227.638189 
L 70.971088 226.286295 
L 74.289157 223.588365 
L 78.40496 223.38313 
L 81.968577 226.286295 
L 82.520763 227.246617 
L 83.46085 230.402098 
L 83.423224 234.517902 
L 82.520763 238.337298 
L 82.460444 238.633705 
L 81.102083 242.749508 
L 79.278153 246.865311 
L 78.40496 248.358521 
L 74.289157 249.290253 
z
" style="fill:#5dff9a;"/>
   </g>
   <g id="PathCollection_9">
    <path clip-path="url(#p60d18c62c3)" d="M 74.289157 249.290253 
L 78.40496 248.358521 
L 79.278153 246.865311 
L 81.102083 242.749508 
L 82.460444 238.633705 
L 82.520763 238.337298 
L 83.423224 234.517902 
L 83.46085 230.402098 
L 82.520763 227.246617 
L 81.968577 226.286295 
L 78.40496 223.38313 
L 74.289157 223.588365 
L 70.971088 226.286295 
L 70.173354 227.638189 
L 69.275672 230.402098 
L 69.350241 234.517902 
L 70.173354 238.235921 
L 70.247163 238.633705 
L 71.366857 242.749508 
L 72.891851 246.865311 
z
M 73.598827 246.865311 
L 71.950314 242.749508 
L 70.842887 238.633705 
L 70.173354 235.025357 
L 70.061011 234.517902 
L 70.134214 230.402098 
L 70.173354 230.281588 
L 72.530922 226.286295 
L 74.289157 224.85667 
L 78.40496 224.704108 
L 80.347085 226.286295 
L 82.520763 230.066595 
L 82.620717 230.402098 
L 82.73326 234.517902 
L 82.520763 235.417229 
L 81.8662 238.633705 
L 80.52793 242.749508 
L 78.58328 246.865311 
L 78.40496 247.170247 
L 74.289157 248.063338 
z
" style="fill:#9aff5d;"/>
   </g>
   <g id="PathCollection_10">
    <path clip-path="url(#p60d18c62c3)" d="M 74.289157 248.063338 
L 78.40496 247.170247 
L 78.58328 246.865311 
L 80.52793 242.749508 
L 81.8662 238.633705 
L 82.520763 235.417229 
L 82.73326 234.517902 
L 82.620717 230.402098 
L 82.520763 230.066595 
L 80.347085 226.286295 
L 78.40496 224.704108 
L 74.289157 224.85667 
L 72.530922 226.286295 
L 70.173354 230.281588 
L 70.134214 230.402098 
L 70.061011 234.517902 
L 70.173354 235.025357 
L 70.842887 238.633705 
L 71.950314 242.749508 
L 73.598827 246.865311 
z
M 72.533771 242.749508 
L 71.43861 238.633705 
L 70.791572 234.517902 
L 71.162709 230.402098 
L 74.090756 226.286295 
L 74.289157 226.124975 
L 78.40496 226.025086 
L 78.725593 226.286295 
L 81.601022 230.402098 
L 82.008623 234.517902 
L 81.271956 238.633705 
L 79.953778 242.749508 
L 78.40496 245.976137 
L 74.289157 246.833352 
z
" style="fill:#d4ff23;"/>
   </g>
   <g id="PathCollection_11">
    <path clip-path="url(#p60d18c62c3)" d="M 74.289157 246.833352 
L 78.40496 245.976137 
L 79.953778 242.749508 
L 81.271956 238.633705 
L 82.008623 234.517902 
L 81.601022 230.402098 
L 78.725593 226.286295 
L 78.40496 226.025086 
L 74.289157 226.124975 
L 74.090756 226.286295 
L 71.162709 230.402098 
L 70.791572 234.517902 
L 71.43861 238.633705 
L 72.533771 242.749508 
z
M 73.117228 242.749508 
L 72.034333 238.633705 
L 71.525848 234.517902 
L 72.199321 230.402098 
L 74.289157 227.529809 
L 78.40496 227.439295 
L 80.557078 230.402098 
L 81.268556 234.517902 
L 80.677712 238.633705 
L 79.379625 242.749508 
L 78.40496 244.780014 
L 74.289157 245.47596 
z
" style="fill:#ffdb00;"/>
   </g>
   <g id="PathCollection_12">
    <path clip-path="url(#p60d18c62c3)" d="M 74.289157 245.47596 
L 78.40496 244.780014 
L 79.379625 242.749508 
L 80.677712 238.633705 
L 81.268556 234.517902 
L 80.557078 230.402098 
L 78.40496 227.439295 
L 74.289157 227.529809 
L 72.199321 230.402098 
L 71.525848 234.517902 
L 72.034333 238.633705 
L 73.117228 242.749508 
z
M 73.700685 242.749508 
L 72.630056 238.633705 
L 72.260123 234.517902 
L 73.235934 230.402098 
L 74.289157 228.954539 
L 78.40496 228.876484 
L 79.513135 230.402098 
L 80.528489 234.517902 
L 80.083469 238.633705 
L 78.805473 242.749508 
L 78.40496 243.58389 
L 74.289157 244.118568 
z
" style="fill:#ff9400;"/>
   </g>
   <g id="PathCollection_13">
    <path clip-path="url(#p60d18c62c3)" d="M 74.289157 244.118568 
L 78.40496 243.58389 
L 78.805473 242.749508 
L 80.083469 238.633705 
L 80.528489 234.517902 
L 79.513135 230.402098 
L 78.40496 228.876484 
L 74.289157 228.954539 
L 73.235934 230.402098 
L 72.260123 234.517902 
L 72.630056 238.633705 
L 73.700685 242.749508 
z
M 74.284142 242.749508 
L 73.225779 238.633705 
L 72.994399 234.517902 
L 74.272547 230.402098 
L 74.289157 230.379269 
L 78.40496 230.313673 
L 78.469191 230.402098 
L 79.788422 234.517902 
L 79.489225 238.633705 
L 78.40496 242.164312 
L 74.402912 242.749508 
L 74.289157 242.761176 
z
" style="fill:#ff5200;"/>
   </g>
   <g id="PathCollection_14">
    <path clip-path="url(#p60d18c62c3)" d="M 74.289157 242.761176 
L 74.402912 242.749508 
L 78.40496 242.164312 
L 79.489225 238.633705 
L 79.788422 234.517902 
L 78.469191 230.402098 
L 78.40496 230.313673 
L 74.289157 230.379269 
L 74.272547 230.402098 
L 72.994399 234.517902 
L 73.225779 238.633705 
L 74.284142 242.749508 
z
M 73.821503 238.633705 
L 73.728675 234.517902 
L 74.289157 232.71989 
L 78.40496 232.538657 
L 79.048355 234.517902 
L 78.894981 238.633705 
L 78.40496 240.229322 
L 74.289157 240.45252 
z
" style="fill:#fa0f00;"/>
   </g>
   <g id="PathCollection_15">
    <path clip-path="url(#p60d18c62c3)" d="M 74.289157 240.45252 
L 78.40496 240.229322 
L 78.894981 238.633705 
L 79.048355 234.517902 
L 78.40496 232.538657 
L 74.289157 232.71989 
L 73.728675 234.517902 
L 73.821503 238.633705 
z
" style="fill:#a80000;"/>
   </g>
   <g id="patch_8">
    <path d="M 10.7 297.683529 
L 10.7 167.236471 
" style="fill:none;stroke:#000000;stroke-linecap:square;stroke-linejoin:miter;stroke-width:0.5;"/>
   </g>
   <g id="patch_9">
    <path d="M 141.994118 297.683529 
L 141.994118 167.236471 
" style="fill:none;stroke:#000000;stroke-linecap:square;stroke-linejoin:miter;stroke-width:0.5;"/>
   </g>
   <g id="patch_10">
    <path d="M 10.7 297.683529 
L 141.994118 297.683529 
" style="fill:none;stroke:#000000;stroke-linecap:square;stroke-linejoin:miter;stroke-width:0.5;"/>
   </g>
   <g id="patch_11">
    <path d="M 10.7 167.236471 
L 141.994118 167.236471 
" style="fill:none;stroke:#000000;stroke-linecap:square;stroke-linejoin:miter;stroke-width:0.5;"/>
   </g>
  </g>
  <g id="axes_3">
   <g id="patch_12">
    <path d="M 168.252941 297.683529 
L 299.547059 297.683529 
L 299.547059 167.236471 
L 168.252941 167.236471 
z
" style="fill:#ffffff;"/>
   </g>
   <g id="line2d_3">
    <path clip-path="url(#ped7a5c13fb)" d="M 174.220856 291.753223 
L 178.336659 291.749845 
L 182.452462 291.735801 
L 186.568265 291.683523 
L 190.684068 291.508941 
L 194.799871 290.985026 
L 198.915674 289.572292 
L 203.031477 286.163617 
L 207.14728 278.886309 
L 211.263083 265.433685 
L 215.378886 244.648953 
L 219.494689 219.160953 
L 223.610492 196.237805 
L 227.726295 183.946631 
L 231.842098 185.824333 
L 235.957902 199.75673 
L 240.073705 220.629316 
L 244.189508 243.097472 
L 248.305311 263.003853 
L 252.421114 277.803068 
L 256.536917 286.666377 
L 260.65272 290.541017 
L 264.768523 291.598169 
L 268.884326 291.74545 
L 273.000129 291.753945 
L 277.115932 291.754117 
L 281.231735 291.754118 
L 285.347538 291.754118 
L 289.463341 291.754118 
L 293.579144 291.754118 
" style="fill:none;stroke:#1f77b4;stroke-linecap:square;stroke-width:1.5;"/>
   </g>
   <g id="line2d_4">
    <path clip-path="url(#ped7a5c13fb)" d="M 174.220856 173.165882 
" style="fill:none;stroke:#ffffff;stroke-linecap:square;stroke-width:1.5;"/>
   </g>
   <g id="patch_13">
    <path d="M 168.252941 297.683529 
L 168.252941 167.236471 
" style="fill:none;stroke:#000000;stroke-linecap:square;stroke-linejoin:miter;stroke-width:0.5;"/>
   </g>
   <g id="patch_14">
    <path d="M 299.547059 297.683529 
L 299.547059 167.236471 
" style="fill:none;stroke:#000000;stroke-linecap:square;stroke-linejoin:miter;stroke-width:0.5;"/>
   </g>
   <g id="patch_15">
    <path d="M 168.252941 297.683529 
L 299.547059 297.683529 
" style="fill:none;stroke:#000000;stroke-linecap:square;stroke-linejoin:miter;stroke-width:0.5;"/>
   </g>
   <g id="patch_16">
    <path d="M 168.252941 167.236471 
L 299.547059 167.236471 
" style="fill:none;stroke:#000000;stroke-linecap:square;stroke-linejoin:miter;stroke-width:0.5;"/>
   </g>
  </g>
  <g id="axes_4">
   <g id="patch_17">
    <path d="M 10.7 454.22 
L 141.994118 454.22 
L 141.994118 323.772941 
L 10.7 323.772941 
z
" style="fill:#ffffff;"/>
   </g>
   <g id="PathCollection_16">
    <path clip-path="url(#p32565aa3ad)" d="M 20.783717 448.675615 
L 24.899521 448.675615 
L 29.015324 448.675615 
L 33.131127 448.675615 
L 37.24693 448.675615 
L 41.362733 448.675615 
L 45.478536 448.675615 
L 49.594339 448.675615 
L 53.710142 448.675615 
L 57.825945 448.675615 
L 61.941748 448.675615 
L 66.057551 448.675615 
L 70.173354 448.675615 
L 74.289157 448.675615 
L 78.40496 448.675615 
L 82.520763 448.675615 
L 86.636566 448.675615 
L 90.75237 448.675615 
L 94.868173 448.675615 
L 98.983976 448.675615 
L 103.099779 448.675615 
L 107.215582 448.675615 
L 111.331385 448.675615 
L 115.447188 448.675615 
L 119.562991 448.675615 
L 123.678794 448.675615 
L 127.794597 448.675615 
L 131.9104 448.675615 
L 136.026203 448.675615 
L 136.026203 444.559812 
L 136.026203 440.444009 
L 136.026203 436.328206 
L 136.026203 432.212403 
L 136.026203 428.0966 
L 136.026203 423.980797 
L 136.026203 419.864994 
L 136.026203 415.74919 
L 136.026203 411.633387 
L 136.026203 407.517584 
L 136.026203 403.401781 
L 136.026203 399.285978 
L 136.026203 395.170175 
L 136.026203 391.054372 
L 136.026203 386.938569 
L 136.026203 382.822766 
L 136.026203 378.706963 
L 136.026203 374.59116 
L 136.026203 370.475357 
L 136.026203 366.359554 
L 136.026203 362.243751 
L 136.026203 358.127948 
L 136.026203 354.012145 
L 136.026203 349.896342 
L 136.026203 345.780538 
L 136.026203 341.664735 
L 136.026203 337.548932 
L 136.026203 333.433129 
L 136.026203 329.317326 
L 131.9104 329.317326 
L 127.794597 329.317326 
L 123.678794 329.317326 
L 119.562991 329.317326 
L 115.447188 329.317326 
L 111.331385 329.317326 
L 107.215582 329.317326 
L 103.099779 329.317326 
L 98.983976 329.317326 
L 94.868173 329.317326 
L 90.75237 329.317326 
L 86.636566 329.317326 
L 82.520763 329.317326 
L 78.40496 329.317326 
L 74.289157 329.317326 
L 70.173354 329.317326 
L 66.057551 329.317326 
L 61.941748 329.317326 
L 57.825945 329.317326 
L 53.710142 329.317326 
L 49.594339 329.317326 
L 45.478536 329.317326 
L 41.362733 329.317326 
L 37.24693 329.317326 
L 33.131127 329.317326 
L 29.015324 329.317326 
L 24.899521 329.317326 
L 20.783717 329.317326 
L 16.667914 329.317326 
L 16.667914 333.433129 
L 16.667914 337.548932 
L 16.667914 341.664735 
L 16.667914 345.780538 
L 16.667914 349.896342 
L 16.667914 354.012145 
L 16.667914 358.127948 
L 16.667914 362.243751 
L 16.667914 366.359554 
L 16.667914 370.475357 
L 16.667914 374.59116 
L 16.667914 378.706963 
L 16.667914 382.822766 
L 16.667914 386.938569 
L 16.667914 391.054372 
L 16.667914 395.170175 
L 16.667914 399.285978 
L 16.667914 403.401781 
L 16.667914 407.517584 
L 16.667914 411.633387 
L 16.667914 415.74919 
L 16.667914 419.864994 
L 16.667914 423.980797 
L 16.667914 428.0966 
L 16.667914 432.212403 
L 16.667914 436.328206 
L 16.667914 440.444009 
L 16.667914 444.559812 
L 16.667914 448.675615 
z
M 44.01637 423.980797 
L 43.252484 419.864994 
L 44.041809 415.74919 
L 45.478536 413.053361 
L 45.851405 411.633387 
L 47.695244 407.517584 
L 49.594339 405.129135 
L 50.464714 403.401781 
L 53.710142 399.593658 
L 53.905673 399.285978 
L 57.231143 395.170175 
L 57.825945 394.546139 
L 60.773005 391.054372 
L 61.941748 389.853538 
L 64.806837 386.938569 
L 66.057551 385.684955 
L 69.374665 382.822766 
L 70.173354 382.050102 
L 74.289157 378.878277 
L 74.594522 378.706963 
L 78.40496 375.674678 
L 80.81791 374.59116 
L 82.520763 373.369766 
L 86.636566 371.7491 
L 90.75237 371.498568 
L 93.660559 374.59116 
L 93.692342 378.706963 
L 92.662033 382.822766 
L 90.75237 386.169679 
L 90.514127 386.938569 
L 88.805782 391.054372 
L 86.636566 393.921148 
L 86.057816 395.170175 
L 83.238523 399.285978 
L 82.520763 400.11736 
L 80.530116 403.401781 
L 78.40496 405.77681 
L 77.112412 407.517584 
L 74.289157 410.522748 
L 73.267085 411.633387 
L 70.173354 414.740203 
L 69.004744 415.74919 
L 66.057551 418.525538 
L 64.06871 419.864994 
L 61.941748 421.737359 
L 57.825945 423.909699 
L 57.616054 423.980797 
L 53.710142 426.384492 
L 49.594339 427.134464 
L 45.478536 425.762071 
z
" style="fill:#ffffff;"/>
   </g>
   <g id="PathCollection_17">
    <path clip-path="url(#p32565aa3ad)" d="M 45.478536 425.762071 
L 49.594339 427.134464 
L 53.710142 426.384492 
L 57.616054 423.980797 
L 57.825945 423.909699 
L 61.941748 421.737359 
L 64.06871 419.864994 
L 66.057551 418.525538 
L 69.004744 415.74919 
L 70.173354 414.740203 
L 73.267085 411.633387 
L 74.289157 410.522748 
L 77.112412 407.517584 
L 78.40496 405.77681 
L 80.530116 403.401781 
L 82.520763 400.11736 
L 83.238523 399.285978 
L 86.057816 395.170175 
L 86.636566 393.921148 
L 88.805782 391.054372 
L 90.514127 386.938569 
L 90.75237 386.169679 
L 92.662033 382.822766 
L 93.692342 378.706963 
L 93.660559 374.59116 
L 90.75237 371.498568 
L 86.636566 371.7491 
L 82.520763 373.369766 
L 80.81791 374.59116 
L 78.40496 375.674678 
L 74.594522 378.706963 
L 74.289157 378.878277 
L 70.173354 382.050102 
L 69.374665 382.822766 
L 66.057551 385.684955 
L 64.806837 386.938569 
L 61.941748 389.853538 
L 60.773005 391.054372 
L 57.825945 394.546139 
L 57.231143 395.170175 
L 53.905673 399.285978 
L 53.710142 399.593658 
L 50.464714 403.401781 
L 49.594339 405.129135 
L 47.695244 407.517584 
L 45.851405 411.633387 
L 45.478536 413.053361 
L 44.041809 415.74919 
L 43.252484 419.864994 
L 44.01637 423.980797 
z
M 46.650967 419.864994 
L 46.707051 415.74919 
L 47.929892 411.633387 
L 49.594339 408.988432 
L 50.146857 407.517584 
L 52.634407 403.401781 
L 53.710142 402.139535 
L 55.523583 399.285978 
L 57.825945 396.727354 
L 59.0495 395.170175 
L 61.941748 392.106211 
L 62.952965 391.054372 
L 66.057551 387.930418 
L 67.222352 386.938569 
L 70.173354 384.150876 
L 72.087141 382.822766 
L 74.289157 380.899641 
L 78.197572 378.706963 
L 78.40496 378.541927 
L 82.520763 376.318786 
L 86.636566 375.603338 
L 90.098174 378.706963 
L 89.83042 382.822766 
L 88.614774 386.938569 
L 86.636566 390.272002 
L 86.3425 391.054372 
L 84.299693 395.170175 
L 82.520763 397.438086 
L 81.487399 399.285978 
L 78.40496 403.008818 
L 78.137143 403.401781 
L 74.730655 407.517584 
L 74.289157 407.987529 
L 70.934034 411.633387 
L 70.173354 412.397285 
L 66.291175 415.74919 
L 66.057551 415.969271 
L 61.941748 419.320915 
L 60.862291 419.864994 
L 57.825945 422.101271 
L 53.710142 423.510524 
L 49.594339 423.553099 
z
" style="fill:#0000a4;"/>
   </g>
   <g id="PathCollection_18">
    <path clip-path="url(#p32565aa3ad)" d="M 49.594339 423.553099 
L 53.710142 423.510524 
L 57.825945 422.101271 
L 60.862291 419.864994 
L 61.941748 419.320915 
L 66.057551 415.969271 
L 66.291175 415.74919 
L 70.173354 412.397285 
L 70.934034 411.633387 
L 74.289157 407.987529 
L 74.730655 407.517584 
L 78.137143 403.401781 
L 78.40496 403.008818 
L 81.487399 399.285978 
L 82.520763 397.438086 
L 84.299693 395.170175 
L 86.3425 391.054372 
L 86.636566 390.272002 
L 88.614774 386.938569 
L 89.83042 382.822766 
L 90.098174 378.706963 
L 86.636566 375.603338 
L 82.520763 376.318786 
L 78.40496 378.541927 
L 78.197572 378.706963 
L 74.289157 380.899641 
L 72.087141 382.822766 
L 70.173354 384.150876 
L 67.222352 386.938569 
L 66.057551 387.930418 
L 62.952965 391.054372 
L 61.941748 392.106211 
L 59.0495 395.170175 
L 57.825945 396.727354 
L 55.523583 399.285978 
L 53.710142 402.139535 
L 52.634407 403.401781 
L 50.146857 407.517584 
L 49.594339 408.988432 
L 47.929892 411.633387 
L 46.707051 415.74919 
L 46.650967 419.864994 
z
M 49.251656 419.864994 
L 48.570079 415.74919 
L 49.594339 412.728042 
L 49.806921 411.633387 
L 51.387579 407.517584 
L 53.710142 404.275123 
L 54.16271 403.401781 
L 57.141493 399.285978 
L 57.825945 398.525344 
L 60.462272 395.170175 
L 61.941748 393.602861 
L 64.391815 391.054372 
L 66.057551 389.378244 
L 68.922641 386.938569 
L 70.173354 385.75707 
L 74.289157 382.876792 
L 74.40063 382.822766 
L 78.40496 380.149859 
L 82.461819 378.706963 
L 82.520763 378.674703 
L 83.184118 378.706963 
L 86.636566 379.16241 
L 87.799686 382.822766 
L 86.71542 386.938569 
L 86.636566 387.071444 
L 85.139519 391.054372 
L 82.541571 395.170175 
L 82.520763 395.196702 
L 80.233989 399.285978 
L 78.40496 401.495002 
L 77.105428 403.401781 
L 74.289157 406.571603 
L 73.48917 407.517584 
L 70.173354 410.948564 
L 69.434867 411.633387 
L 66.057551 414.807908 
L 64.714125 415.74919 
L 61.941748 418.083308 
L 58.406865 419.864994 
L 57.825945 420.292843 
L 53.710142 421.758271 
L 49.594339 420.294383 
z
" style="fill:#0000f1;"/>
   </g>
   <g id="PathCollection_19">
    <path clip-path="url(#p32565aa3ad)" d="M 49.594339 420.294383 
L 53.710142 421.758271 
L 57.825945 420.292843 
L 58.406865 419.864994 
L 61.941748 418.083308 
L 64.714125 415.74919 
L 66.057551 414.807908 
L 69.434867 411.633387 
L 70.173354 410.948564 
L 73.48917 407.517584 
L 74.289157 406.571603 
L 77.105428 403.401781 
L 78.40496 401.495002 
L 80.233989 399.285978 
L 82.520763 395.196702 
L 82.541571 395.170175 
L 85.139519 391.054372 
L 86.636566 387.071444 
L 86.71542 386.938569 
L 87.799686 382.822766 
L 86.636566 379.16241 
L 83.184118 378.706963 
L 82.520763 378.674703 
L 82.461819 378.706963 
L 78.40496 380.149859 
L 74.40063 382.822766 
L 74.289157 382.876792 
L 70.173354 385.75707 
L 68.922641 386.938569 
L 66.057551 389.378244 
L 64.391815 391.054372 
L 61.941748 393.602861 
L 60.462272 395.170175 
L 57.825945 398.525344 
L 57.141493 399.285978 
L 54.16271 403.401781 
L 53.710142 404.275123 
L 51.387579 407.517584 
L 49.806921 411.633387 
L 49.594339 412.728042 
L 48.570079 415.74919 
L 49.251656 419.864994 
z
M 53.360989 419.864994 
L 50.260315 415.74919 
L 50.874086 411.633387 
L 52.628301 407.517584 
L 53.710142 406.007258 
L 55.060307 403.401781 
L 57.825945 399.935118 
L 58.277733 399.285978 
L 61.875045 395.170175 
L 61.941748 395.099511 
L 65.830665 391.054372 
L 66.057551 390.826071 
L 70.173354 387.177552 
L 70.546266 386.938569 
L 74.289157 383.988427 
L 76.694278 382.822766 
L 78.40496 381.680879 
L 82.520763 380.676432 
L 85.465927 382.822766 
L 85.348566 386.938569 
L 83.936539 391.054372 
L 82.520763 393.291657 
L 81.656949 395.170175 
L 78.980578 399.285978 
L 78.40496 399.981185 
L 76.073713 403.401781 
L 74.289157 405.410368 
L 72.50715 407.517584 
L 70.173354 409.932436 
L 68.339114 411.633387 
L 66.057551 413.777951 
L 63.244142 415.74919 
L 61.941748 416.845701 
L 57.825945 419.054858 
L 54.102663 419.864994 
L 53.710142 420.006018 
z
" style="fill:#0028ff;"/>
   </g>
   <g id="PathCollection_20">
    <path clip-path="url(#p32565aa3ad)" d="M 53.710142 420.006018 
L 54.102663 419.864994 
L 57.825945 419.054858 
L 61.941748 416.845701 
L 63.244142 415.74919 
L 66.057551 413.777951 
L 68.339114 411.633387 
L 70.173354 409.932436 
L 72.50715 407.517584 
L 74.289157 405.410368 
L 76.073713 403.401781 
L 78.40496 399.981185 
L 78.980578 399.285978 
L 81.656949 395.170175 
L 82.520763 393.291657 
L 83.936539 391.054372 
L 85.348566 386.938569 
L 85.465927 382.822766 
L 82.520763 380.676432 
L 78.40496 381.680879 
L 76.694278 382.822766 
L 74.289157 383.988427 
L 70.546266 386.938569 
L 70.173354 387.177552 
L 66.057551 390.826071 
L 65.830665 391.054372 
L 61.941748 395.099511 
L 61.875045 395.170175 
L 58.277733 399.285978 
L 57.825945 399.935118 
L 55.060307 403.401781 
L 53.710142 406.007258 
L 52.628301 407.517584 
L 50.874086 411.633387 
L 50.260315 415.74919 
L 53.360989 419.864994 
z
M 51.739547 415.74919 
L 51.941251 411.633387 
L 53.710142 407.812749 
L 53.808252 407.517584 
L 55.957904 403.401781 
L 57.825945 401.060235 
L 59.060792 399.285978 
L 61.941748 396.0168 
L 62.718074 395.170175 
L 66.057551 391.756031 
L 66.896637 391.054372 
L 70.173354 388.081382 
L 71.956615 386.938569 
L 74.289157 385.100062 
L 78.40496 383.164708 
L 81.584135 382.822766 
L 82.520763 382.673243 
L 82.725936 382.822766 
L 84.004776 386.938569 
L 82.733558 391.054372 
L 82.520763 391.390641 
L 80.78279 395.170175 
L 78.40496 398.603448 
L 78.013979 399.285978 
L 75.041998 403.401781 
L 74.289157 404.249133 
L 71.52513 407.517584 
L 70.173354 408.916309 
L 67.243362 411.633387 
L 66.057551 412.747995 
L 61.941748 415.658452 
L 61.731239 415.74919 
L 57.825945 417.993657 
L 53.710142 418.184233 
z
" style="fill:#006cff;"/>
   </g>
   <g id="PathCollection_21">
    <path clip-path="url(#p32565aa3ad)" d="M 53.710142 418.184233 
L 57.825945 417.993657 
L 61.731239 415.74919 
L 61.941748 415.658452 
L 66.057551 412.747995 
L 67.243362 411.633387 
L 70.173354 408.916309 
L 71.52513 407.517584 
L 74.289157 404.249133 
L 75.041998 403.401781 
L 78.013979 399.285978 
L 78.40496 398.603448 
L 80.78279 395.170175 
L 82.520763 391.390641 
L 82.733558 391.054372 
L 84.004776 386.938569 
L 82.725936 382.822766 
L 82.520763 382.673243 
L 81.584135 382.822766 
L 78.40496 383.164708 
L 74.289157 385.100062 
L 71.956615 386.938569 
L 70.173354 388.081382 
L 66.896637 391.054372 
L 66.057551 391.756031 
L 62.718074 395.170175 
L 61.941748 396.0168 
L 59.060792 399.285978 
L 57.825945 401.060235 
L 55.957904 403.401781 
L 53.808252 407.517584 
L 53.710142 407.812749 
L 51.941251 411.633387 
L 51.739547 415.74919 
z
M 53.21878 415.74919 
L 53.008416 411.633387 
L 53.710142 410.117726 
L 54.574406 407.517584 
L 56.855501 403.401781 
L 57.825945 402.185352 
L 59.84385 399.285978 
L 61.941748 396.90538 
L 63.532869 395.170175 
L 66.057551 392.589045 
L 67.892805 391.054372 
L 70.173354 388.985213 
L 73.366964 386.938569 
L 74.289157 386.211698 
L 78.40496 384.510061 
L 82.520763 386.521385 
L 82.660986 386.938569 
L 82.520763 387.401638 
L 81.6832 391.054372 
L 79.90863 395.170175 
L 78.40496 397.341276 
L 77.290955 399.285978 
L 74.289157 403.150198 
L 74.104023 403.401781 
L 70.543109 407.517584 
L 70.173354 407.900181 
L 66.14761 411.633387 
L 66.057551 411.718038 
L 61.941748 414.862552 
L 59.884785 415.74919 
L 57.825945 416.932455 
L 53.710142 416.356362 
z
" style="fill:#00b0ff;"/>
   </g>
   <g id="PathCollection_22">
    <path clip-path="url(#p32565aa3ad)" d="M 53.710142 416.356362 
L 57.825945 416.932455 
L 59.884785 415.74919 
L 61.941748 414.862552 
L 66.057551 411.718038 
L 66.14761 411.633387 
L 70.173354 407.900181 
L 70.543109 407.517584 
L 74.104023 403.401781 
L 74.289157 403.150198 
L 77.290955 399.285978 
L 78.40496 397.341276 
L 79.90863 395.170175 
L 81.6832 391.054372 
L 82.520763 387.401638 
L 82.660986 386.938569 
L 82.520763 386.521385 
L 78.40496 384.510061 
L 74.289157 386.211698 
L 73.366964 386.938569 
L 70.173354 388.985213 
L 67.892805 391.054372 
L 66.057551 392.589045 
L 63.532869 395.170175 
L 61.941748 396.90538 
L 59.84385 399.285978 
L 57.825945 402.185352 
L 56.855501 403.401781 
L 54.574406 407.517584 
L 53.710142 410.117726 
L 53.008416 411.633387 
L 53.21878 415.74919 
z
M 57.221212 415.74919 
L 54.092426 411.633387 
L 55.340559 407.517584 
L 57.753098 403.401781 
L 57.825945 403.31047 
L 60.626909 399.285978 
L 61.941748 397.793959 
L 64.347665 395.170175 
L 66.057551 393.422058 
L 68.888973 391.054372 
L 70.173354 389.889043 
L 74.289157 387.289419 
L 75.526595 386.938569 
L 78.40496 385.855414 
L 80.353306 386.938569 
L 80.665641 391.054372 
L 79.034471 395.170175 
L 78.40496 396.079105 
L 76.567932 399.285978 
L 74.289157 402.219448 
L 73.419106 403.401781 
L 70.173354 407.039046 
L 69.698921 407.517584 
L 66.057551 410.971024 
L 65.107244 411.633387 
L 61.941748 414.066653 
L 58.038331 415.74919 
L 57.825945 415.871254 
z
" style="fill:#0cf4eb;"/>
   </g>
   <g id="PathCollection_23">
    <path clip-path="url(#p32565aa3ad)" d="M 57.825945 415.871254 
L 58.038331 415.74919 
L 61.941748 414.066653 
L 65.107244 411.633387 
L 66.057551 410.971024 
L 69.698921 407.517584 
L 70.173354 407.039046 
L 73.419106 403.401781 
L 74.289157 402.219448 
L 76.567932 399.285978 
L 78.40496 396.079105 
L 79.034471 395.170175 
L 80.665641 391.054372 
L 80.353306 386.938569 
L 78.40496 385.855414 
L 75.526595 386.938569 
L 74.289157 387.289419 
L 70.173354 389.889043 
L 68.888973 391.054372 
L 66.057551 393.422058 
L 64.347665 395.170175 
L 61.941748 397.793959 
L 60.626909 399.285978 
L 57.825945 403.31047 
L 57.753098 403.401781 
L 55.340559 407.517584 
L 54.092426 411.633387 
L 57.221212 415.74919 
z
M 55.20878 411.633387 
L 56.106713 407.517584 
L 57.825945 404.597478 
L 58.457783 403.401781 
L 61.409968 399.285978 
L 61.941748 398.682538 
L 65.162461 395.170175 
L 66.057551 394.255072 
L 69.88514 391.054372 
L 70.173354 390.792874 
L 74.289157 388.303073 
L 78.40496 387.504823 
L 79.648083 391.054372 
L 78.40496 394.403041 
L 78.158628 395.170175 
L 75.844908 399.285978 
L 74.289157 401.288699 
L 72.734189 403.401781 
L 70.173354 406.271512 
L 68.937972 407.517584 
L 66.057551 410.249347 
L 64.071839 411.633387 
L 61.941748 413.270753 
L 57.825945 414.621294 
z
" style="fill:#43ffb4;"/>
   </g>
   <g id="PathCollection_24">
    <path clip-path="url(#p32565aa3ad)" d="M 57.825945 414.621294 
L 61.941748 413.270753 
L 64.071839 411.633387 
L 66.057551 410.249347 
L 68.937972 407.517584 
L 70.173354 406.271512 
L 72.734189 403.401781 
L 74.289157 401.288699 
L 75.844908 399.285978 
L 78.158628 395.170175 
L 78.40496 394.403041 
L 79.648083 391.054372 
L 78.40496 387.504823 
L 74.289157 388.303073 
L 70.173354 390.792874 
L 69.88514 391.054372 
L 66.057551 394.255072 
L 65.162461 395.170175 
L 61.941748 398.682538 
L 61.409968 399.285978 
L 58.457783 403.401781 
L 57.825945 404.597478 
L 56.106713 407.517584 
L 55.20878 411.633387 
z
M 56.325134 411.633387 
L 56.872867 407.517584 
L 57.825945 405.898786 
L 59.145428 403.401781 
L 61.941748 399.587006 
L 62.186455 399.285978 
L 65.977257 395.170175 
L 66.057551 395.088085 
L 70.173354 391.663399 
L 71.379585 391.054372 
L 74.289157 389.316727 
L 78.40496 390.410308 
L 78.630524 391.054372 
L 78.40496 391.661987 
L 77.278457 395.170175 
L 75.121884 399.285978 
L 74.289157 400.357949 
L 72.049272 403.401781 
L 70.173354 405.503979 
L 68.177022 407.517584 
L 66.057551 409.52767 
L 63.036433 411.633387 
L 61.941748 412.474854 
L 57.825945 413.346799 
z
" style="fill:#7dff7a;"/>
   </g>
   <g id="PathCollection_25">
    <path clip-path="url(#p32565aa3ad)" d="M 57.825945 413.346799 
L 61.941748 412.474854 
L 63.036433 411.633387 
L 66.057551 409.52767 
L 68.177022 407.517584 
L 70.173354 405.503979 
L 72.049272 403.401781 
L 74.289157 400.357949 
L 75.121884 399.285978 
L 77.278457 395.170175 
L 78.40496 391.661987 
L 78.630524 391.054372 
L 78.40496 390.410308 
L 74.289157 389.316727 
L 71.379585 391.054372 
L 70.173354 391.663399 
L 66.057551 395.088085 
L 65.977257 395.170175 
L 62.186455 399.285978 
L 61.941748 399.587006 
L 59.145428 403.401781 
L 57.825945 405.898786 
L 56.872867 407.517584 
L 56.325134 411.633387 
z
M 57.441488 411.633387 
L 57.63902 407.517584 
L 57.825945 407.200094 
L 59.833073 403.401781 
L 61.941748 400.5251 
L 62.949035 399.285978 
L 66.057551 395.915531 
L 66.986605 395.170175 
L 70.173354 392.520365 
L 73.076881 391.054372 
L 74.289157 390.330381 
L 76.258695 391.054372 
L 76.398285 395.170175 
L 74.398861 399.285978 
L 74.289157 399.4272 
L 71.364355 403.401781 
L 70.173354 404.736445 
L 67.416073 407.517584 
L 66.057551 408.805993 
L 62.001027 411.633387 
L 61.941748 411.678954 
L 57.825945 412.072305 
z
" style="fill:#b4ff43;"/>
   </g>
   <g id="PathCollection_26">
    <path clip-path="url(#p32565aa3ad)" d="M 57.825945 412.072305 
L 61.941748 411.678954 
L 62.001027 411.633387 
L 66.057551 408.805993 
L 67.416073 407.517584 
L 70.173354 404.736445 
L 71.364355 403.401781 
L 74.289157 399.4272 
L 74.398861 399.285978 
L 76.398285 395.170175 
L 76.258695 391.054372 
L 74.289157 390.330381 
L 73.076881 391.054372 
L 70.173354 392.520365 
L 66.986605 395.170175 
L 66.057551 395.915531 
L 62.949035 399.285978 
L 61.941748 400.5251 
L 59.833073 403.401781 
L 57.825945 407.200094 
L 57.63902 407.517584 
L 57.441488 411.633387 
z
M 58.695033 407.517584 
L 60.520718 403.401781 
L 61.941748 401.463194 
L 63.711615 399.285978 
L 66.057551 396.742368 
L 68.017221 395.170175 
L 70.173354 393.377331 
L 74.289157 391.753607 
L 75.518113 395.170175 
L 74.289157 397.730507 
L 73.535575 399.285978 
L 70.679439 403.401781 
L 70.173354 403.968911 
L 66.655124 407.517584 
L 66.057551 408.084316 
L 61.941748 410.603366 
z
" style="fill:#ebff0c;"/>
   </g>
   <g id="PathCollection_27">
    <path clip-path="url(#p32565aa3ad)" d="M 61.941748 410.603366 
L 66.057551 408.084316 
L 66.655124 407.517584 
L 70.173354 403.968911 
L 70.679439 403.401781 
L 73.535575 399.285978 
L 74.289157 397.730507 
L 75.518113 395.170175 
L 74.289157 391.753607 
L 70.173354 393.377331 
L 68.017221 395.170175 
L 66.057551 396.742368 
L 63.711615 399.285978 
L 61.941748 401.463194 
L 60.520718 403.401781 
L 58.695033 407.517584 
z
M 59.844588 407.517584 
L 61.208363 403.401781 
L 61.941748 402.401288 
L 64.474195 399.285978 
L 66.057551 397.569204 
L 69.047837 395.170175 
L 70.173354 394.234297 
L 74.289157 394.200534 
L 74.637942 395.170175 
L 74.289157 395.896811 
L 72.647201 399.285978 
L 70.173354 403.048953 
L 69.883175 403.401781 
L 66.057551 407.275944 
L 65.624173 407.517584 
L 61.941748 409.510793 
z
" style="fill:#ffc400;"/>
   </g>
   <g id="PathCollection_28">
    <path clip-path="url(#p32565aa3ad)" d="M 61.941748 409.510793 
L 65.624173 407.517584 
L 66.057551 407.275944 
L 69.883175 403.401781 
L 70.173354 403.048953 
L 72.647201 399.285978 
L 74.289157 395.896811 
L 74.637942 395.170175 
L 74.289157 394.200534 
L 70.173354 394.234297 
L 69.047837 395.170175 
L 66.057551 397.569204 
L 64.474195 399.285978 
L 61.941748 402.401288 
L 61.208363 403.401781 
L 59.844588 407.517584 
z
M 60.994142 407.517584 
L 61.896008 403.401781 
L 61.941748 403.339383 
L 65.236775 399.285978 
L 66.057551 398.396041 
L 70.078453 395.170175 
L 70.173354 395.091264 
L 70.71803 395.170175 
L 71.758827 399.285978 
L 70.173354 401.697645 
L 68.771807 403.401781 
L 66.057551 406.150475 
L 63.605659 407.517584 
L 61.941748 408.41822 
z
" style="fill:#ff8600;"/>
   </g>
   <g id="PathCollection_29">
    <path clip-path="url(#p32565aa3ad)" d="M 61.941748 408.41822 
L 63.605659 407.517584 
L 66.057551 406.150475 
L 68.771807 403.401781 
L 70.173354 401.697645 
L 71.758827 399.285978 
L 70.71803 395.170175 
L 70.173354 395.091264 
L 70.078453 395.170175 
L 66.057551 398.396041 
L 65.236775 399.285978 
L 61.941748 403.339383 
L 61.896008 403.401781 
L 60.994142 407.517584 
z
M 63.558937 403.401781 
L 65.999355 399.285978 
L 66.057551 399.222878 
L 70.173354 397.377899 
L 70.870453 399.285978 
L 70.173354 400.346337 
L 67.660439 403.401781 
L 66.057551 405.025006 
z
" style="fill:#ff4700;"/>
   </g>
   <g id="PathCollection_30">
    <path clip-path="url(#p32565aa3ad)" d="M 66.057551 405.025006 
L 67.660439 403.401781 
L 70.173354 400.346337 
L 70.870453 399.285978 
L 70.173354 397.377899 
L 66.057551 399.222878 
L 65.999355 399.285978 
L 63.558937 403.401781 
z
M 65.291361 403.401781 
L 66.057551 402.069173 
L 66.549071 403.401781 
L 66.057551 403.899537 
z
" style="fill:#f10800;"/>
   </g>
   <g id="PathCollection_31">
    <path clip-path="url(#p32565aa3ad)" d="M 66.057551 403.899537 
L 66.549071 403.401781 
L 66.057551 402.069173 
L 65.291361 403.401781 
z
" style="fill:#a40000;"/>
   </g>
   <g id="patch_18">
    <path d="M 10.7 454.22 
L 10.7 323.772941 
" style="fill:none;stroke:#000000;stroke-linecap:square;stroke-linejoin:miter;stroke-width:0.5;"/>
   </g>
   <g id="patch_19">
    <path d="M 141.994118 454.22 
L 141.994118 323.772941 
" style="fill:none;stroke:#000000;stroke-linecap:square;stroke-linejoin:miter;stroke-width:0.5;"/>
   </g>
   <g id="patch_20">
    <path d="M 10.7 454.22 
L 141.994118 454.22 
" style="fill:none;stroke:#000000;stroke-linecap:square;stroke-linejoin:miter;stroke-width:0.5;"/>
   </g>
   <g id="patch_21">
    <path d="M 10.7 323.772941 
L 141.994118 323.772941 
" style="fill:none;stroke:#000000;stroke-linecap:square;stroke-linejoin:miter;stroke-width:0.5;"/>
   </g>
  </g>
  <g id="axes_5">
   <g id="patch_22">
    <path d="M 168.252941 454.22 
L 299.547059 454.22 
L 299.547059 323.772941 
L 168.252941 323.772941 
z
" style="fill:#ffffff;"/>
   </g>
   <g id="PathCollection_32">
    <path clip-path="url(#pc766b188fc)" d="M 178.336659 448.675615 
L 182.452462 448.675615 
L 186.568265 448.675615 
L 190.684068 448.675615 
L 194.799871 448.675615 
L 198.915674 448.675615 
L 203.031477 448.675615 
L 207.14728 448.675615 
L 211.263083 448.675615 
L 215.378886 448.675615 
L 219.494689 448.675615 
L 223.610492 448.675615 
L 227.726295 448.675615 
L 231.842098 448.675615 
L 235.957902 448.675615 
L 240.073705 448.675615 
L 244.189508 448.675615 
L 248.305311 448.675615 
L 252.421114 448.675615 
L 256.536917 448.675615 
L 260.65272 448.675615 
L 264.768523 448.675615 
L 268.884326 448.675615 
L 273.000129 448.675615 
L 277.115932 448.675615 
L 281.231735 448.675615 
L 285.347538 448.675615 
L 289.463341 448.675615 
L 293.579144 448.675615 
L 293.579144 444.559812 
L 293.579144 440.444009 
L 293.579144 436.328206 
L 293.579144 432.212403 
L 293.579144 428.0966 
L 293.579144 423.980797 
L 293.579144 419.864994 
L 293.579144 415.74919 
L 293.579144 411.633387 
L 293.579144 407.517584 
L 293.579144 403.401781 
L 293.579144 399.285978 
L 293.579144 395.170175 
L 293.579144 391.054372 
L 293.579144 386.938569 
L 293.579144 382.822766 
L 293.579144 378.706963 
L 293.579144 374.59116 
L 293.579144 370.475357 
L 293.579144 366.359554 
L 293.579144 362.243751 
L 293.579144 358.127948 
L 293.579144 354.012145 
L 293.579144 349.896342 
L 293.579144 345.780538 
L 293.579144 341.664735 
L 293.579144 337.548932 
L 293.579144 333.433129 
L 293.579144 329.317326 
L 289.463341 329.317326 
L 285.347538 329.317326 
L 281.231735 329.317326 
L 277.115932 329.317326 
L 273.000129 329.317326 
L 268.884326 329.317326 
L 264.768523 329.317326 
L 260.65272 329.317326 
L 256.536917 329.317326 
L 252.421114 329.317326 
L 248.305311 329.317326 
L 244.189508 329.317326 
L 240.073705 329.317326 
L 235.957902 329.317326 
L 231.842098 329.317326 
L 227.726295 329.317326 
L 223.610492 329.317326 
L 219.494689 329.317326 
L 215.378886 329.317326 
L 211.263083 329.317326 
L 207.14728 329.317326 
L 203.031477 329.317326 
L 198.915674 329.317326 
L 194.799871 329.317326 
L 190.684068 329.317326 
L 186.568265 329.317326 
L 182.452462 329.317326 
L 178.336659 329.317326 
L 174.220856 329.317326 
L 174.220856 333.433129 
L 174.220856 337.548932 
L 174.220856 341.664735 
L 174.220856 345.780538 
L 174.220856 349.896342 
L 174.220856 354.012145 
L 174.220856 358.127948 
L 174.220856 362.243751 
L 174.220856 366.359554 
L 174.220856 370.475357 
L 174.220856 374.59116 
L 174.220856 378.706963 
L 174.220856 382.822766 
L 174.220856 386.938569 
L 174.220856 391.054372 
L 174.220856 395.170175 
L 174.220856 399.285978 
L 174.220856 403.401781 
L 174.220856 407.517584 
L 174.220856 411.633387 
L 174.220856 415.74919 
L 174.220856 419.864994 
L 174.220856 423.980797 
L 174.220856 428.0966 
L 174.220856 432.212403 
L 174.220856 436.328206 
L 174.220856 440.444009 
L 174.220856 444.559812 
L 174.220856 448.675615 
z
M 245.142138 415.74919 
L 244.189508 415.589645 
L 240.073705 413.745672 
L 237.658175 411.633387 
L 235.957902 410.662688 
L 232.45275 407.517584 
L 231.842098 407.161761 
L 227.726295 404.275507 
L 226.672998 403.401781 
L 223.610492 402.161415 
L 219.494689 399.711733 
L 218.760741 399.285978 
L 215.378886 398.437247 
L 211.263083 396.918368 
L 208.337662 395.170175 
L 207.14728 393.989347 
L 204.587557 391.054372 
L 205.193586 386.938569 
L 207.14728 385.032597 
L 210.758536 382.822766 
L 211.263083 382.550139 
L 215.378886 380.805005 
L 219.494689 379.866761 
L 223.610492 379.195638 
L 226.657362 378.706963 
L 227.726295 378.195091 
L 231.842098 376.560209 
L 235.957902 375.678396 
L 240.073705 375.539427 
L 244.189508 376.724335 
L 246.742259 378.706963 
L 248.305311 379.924567 
L 250.91616 382.822766 
L 252.421114 384.99895 
L 253.86887 386.938569 
L 256.10359 391.054372 
L 256.536917 392.103294 
L 258.338671 395.170175 
L 259.86953 399.285978 
L 260.65272 402.681799 
L 260.932515 403.401781 
L 261.400491 407.517584 
L 260.65272 410.103047 
L 260.129294 411.633387 
L 256.536917 414.781695 
L 254.040394 415.74919 
L 252.421114 416.354255 
L 248.305311 416.737458 
z
" style="fill:#ffffff;"/>
   </g>
   <g id="PathCollection_33">
    <path clip-path="url(#pc766b188fc)" d="M 248.305311 416.737458 
L 252.421114 416.354255 
L 254.040394 415.74919 
L 256.536917 414.781695 
L 260.129294 411.633387 
L 260.65272 410.103047 
L 261.400491 407.517584 
L 260.932515 403.401781 
L 260.65272 402.681799 
L 259.86953 399.285978 
L 258.338671 395.170175 
L 256.536917 392.103294 
L 256.10359 391.054372 
L 253.86887 386.938569 
L 252.421114 384.99895 
L 250.91616 382.822766 
L 248.305311 379.924567 
L 246.742259 378.706963 
L 244.189508 376.724335 
L 240.073705 375.539427 
L 235.957902 375.678396 
L 231.842098 376.560209 
L 227.726295 378.195091 
L 226.657362 378.706963 
L 223.610492 379.195638 
L 219.494689 379.866761 
L 215.378886 380.805005 
L 211.263083 382.550139 
L 210.758536 382.822766 
L 207.14728 385.032597 
L 205.193586 386.938569 
L 204.587557 391.054372 
L 207.14728 393.989347 
L 208.337662 395.170175 
L 211.263083 396.918368 
L 215.378886 398.437247 
L 218.760741 399.285978 
L 219.494689 399.711733 
L 223.610492 402.161415 
L 226.672998 403.401781 
L 227.726295 404.275507 
L 231.842098 407.161761 
L 232.45275 407.517584 
L 235.957902 410.662688 
L 237.658175 411.633387 
L 240.073705 413.745672 
L 244.189508 415.589645 
L 245.142138 415.74919 
z
M 242.84075 411.633387 
L 240.073705 410.737031 
L 235.957902 408.07541 
L 235.336217 407.517584 
L 231.842098 405.481581 
L 229.307253 403.401781 
L 227.726295 402.606525 
L 223.610492 400.290096 
L 222.067956 399.285978 
L 219.494689 398.367233 
L 215.378886 396.680815 
L 212.712865 395.170175 
L 211.263083 393.98812 
L 208.31838 391.054372 
L 209.071439 386.938569 
L 211.263083 385.14523 
L 215.378886 383.204561 
L 216.762816 382.822766 
L 219.494689 381.766057 
L 223.610492 380.615657 
L 227.726295 379.759539 
L 231.842098 379.060069 
L 235.145167 378.706963 
L 235.957902 378.498492 
L 238.587762 378.706963 
L 240.073705 378.782636 
L 244.189508 380.333265 
L 247.035581 382.822766 
L 248.305311 384.157402 
L 250.560484 386.938569 
L 252.421114 390.237051 
L 252.961092 391.054372 
L 255.02943 395.170175 
L 256.262804 399.285978 
L 256.536917 401.427909 
L 256.936919 403.401781 
L 256.536917 405.806695 
L 256.223469 407.517584 
L 252.421114 411.445817 
L 251.936537 411.633387 
L 248.305311 412.767151 
L 244.189508 412.36696 
z
" style="fill:#0000a8;"/>
   </g>
   <g id="PathCollection_34">
    <path clip-path="url(#pc766b188fc)" d="M 244.189508 412.36696 
L 248.305311 412.767151 
L 251.936537 411.633387 
L 252.421114 411.445817 
L 256.223469 407.517584 
L 256.536917 405.806695 
L 256.936919 403.401781 
L 256.536917 401.427909 
L 256.262804 399.285978 
L 255.02943 395.170175 
L 252.961092 391.054372 
L 252.421114 390.237051 
L 250.560484 386.938569 
L 248.305311 384.157402 
L 247.035581 382.822766 
L 244.189508 380.333265 
L 240.073705 378.782636 
L 238.587762 378.706963 
L 235.957902 378.498492 
L 235.145167 378.706963 
L 231.842098 379.060069 
L 227.726295 379.759539 
L 223.610492 380.615657 
L 219.494689 381.766057 
L 216.762816 382.822766 
L 215.378886 383.204561 
L 211.263083 385.14523 
L 209.071439 386.938569 
L 208.31838 391.054372 
L 211.263083 393.98812 
L 212.712865 395.170175 
L 215.378886 396.680815 
L 219.494689 398.367233 
L 222.067956 399.285978 
L 223.610492 400.290096 
L 227.726295 402.606525 
L 229.307253 403.401781 
L 231.842098 405.481581 
L 235.336217 407.517584 
L 235.957902 408.07541 
L 240.073705 410.737031 
L 242.84075 411.633387 
z
M 238.166596 407.517584 
L 235.957902 406.566537 
L 231.842098 403.801401 
L 231.355045 403.401781 
L 227.726295 401.576441 
L 224.320334 399.285978 
L 223.610492 398.96001 
L 219.494689 397.340851 
L 215.634321 395.170175 
L 215.378886 394.972346 
L 211.263083 391.460748 
L 210.85519 391.054372 
L 211.263083 389.529094 
L 211.816866 386.938569 
L 215.378886 384.559169 
L 219.494689 383.218539 
L 221.324406 382.822766 
L 223.610492 382.035675 
L 227.726295 380.956645 
L 231.842098 380.235388 
L 235.957902 379.963754 
L 240.073705 380.594354 
L 243.891802 382.822766 
L 244.189508 383.016798 
L 247.992417 386.938569 
L 248.305311 387.404556 
L 250.780297 391.054372 
L 252.421114 395.014065 
L 252.503584 395.170175 
L 253.807561 399.285978 
L 253.92376 403.401781 
L 252.421114 406.782796 
L 251.90755 407.517584 
L 248.305311 409.72132 
L 244.189508 410.031035 
L 240.073705 408.817599 
z
" style="fill:#0000fa;"/>
   </g>
   <g id="PathCollection_35">
    <path clip-path="url(#pc766b188fc)" d="M 240.073705 408.817599 
L 244.189508 410.031035 
L 248.305311 409.72132 
L 251.90755 407.517584 
L 252.421114 406.782796 
L 253.92376 403.401781 
L 253.807561 399.285978 
L 252.503584 395.170175 
L 252.421114 395.014065 
L 250.780297 391.054372 
L 248.305311 387.404556 
L 247.992417 386.938569 
L 244.189508 383.016798 
L 243.891802 382.822766 
L 240.073705 380.594354 
L 235.957902 379.963754 
L 231.842098 380.235388 
L 227.726295 380.956645 
L 223.610492 382.035675 
L 221.324406 382.822766 
L 219.494689 383.218539 
L 215.378886 384.559169 
L 211.816866 386.938569 
L 211.263083 389.529094 
L 210.85519 391.054372 
L 211.263083 391.460748 
L 215.378886 394.972346 
L 215.634321 395.170175 
L 219.494689 397.340851 
L 223.610492 398.96001 
L 224.320334 399.285978 
L 227.726295 401.576441 
L 231.355045 403.401781 
L 231.842098 403.801401 
L 235.957902 406.566537 
L 238.166596 407.517584 
z
M 242.559805 407.517584 
L 240.073705 407.094505 
L 235.957902 405.354081 
L 233.164364 403.401781 
L 231.842098 402.789585 
L 227.726295 400.546357 
L 225.852088 399.285978 
L 223.610492 398.256609 
L 219.494689 396.31447 
L 217.459656 395.170175 
L 215.378886 393.558659 
L 212.586125 391.054372 
L 213.844749 386.938569 
L 215.378886 385.913778 
L 219.494689 384.11066 
L 223.610492 383.139545 
L 225.436617 382.822766 
L 227.726295 382.15375 
L 231.842098 381.410707 
L 235.957902 381.320868 
L 240.073705 382.406073 
L 240.787655 382.822766 
L 244.189508 385.03995 
L 246.030583 386.938569 
L 248.305311 390.32628 
L 248.799039 391.054372 
L 250.714545 395.170175 
L 251.587374 399.285978 
L 251.164273 403.401781 
L 248.305311 406.848919 
L 246.237363 407.517584 
L 244.189508 407.95645 
z
" style="fill:#0034ff;"/>
   </g>
   <g id="PathCollection_36">
    <path clip-path="url(#pc766b188fc)" d="M 244.189508 407.95645 
L 246.237363 407.517584 
L 248.305311 406.848919 
L 251.164273 403.401781 
L 251.587374 399.285978 
L 250.714545 395.170175 
L 248.799039 391.054372 
L 248.305311 390.32628 
L 246.030583 386.938569 
L 244.189508 385.03995 
L 240.787655 382.822766 
L 240.073705 382.406073 
L 235.957902 381.320868 
L 231.842098 381.410707 
L 227.726295 382.15375 
L 225.436617 382.822766 
L 223.610492 383.139545 
L 219.494689 384.11066 
L 215.378886 385.913778 
L 213.844749 386.938569 
L 212.586125 391.054372 
L 215.378886 393.558659 
L 217.459656 395.170175 
L 219.494689 396.31447 
L 223.610492 398.256609 
L 225.852088 399.285978 
L 227.726295 400.546357 
L 231.842098 402.789585 
L 233.164364 403.401781 
L 235.957902 405.354081 
L 240.073705 407.094505 
L 242.559805 407.517584 
z
M 234.899263 403.401781 
L 231.842098 401.986343 
L 227.726295 399.516273 
L 227.383842 399.285978 
L 223.610492 397.553208 
L 219.494689 395.288088 
L 219.284991 395.170175 
L 215.378886 392.144972 
L 214.162658 391.054372 
L 215.378886 387.925931 
L 215.794122 386.938569 
L 219.494689 385.002781 
L 223.610492 383.850261 
L 227.726295 383.122648 
L 230.551908 382.822766 
L 231.842098 382.586026 
L 235.957902 382.677982 
L 236.458761 382.822766 
L 240.073705 383.864178 
L 244.080995 386.938569 
L 244.189508 387.062748 
L 247.173142 391.054372 
L 248.305311 393.822208 
L 248.950376 395.170175 
L 249.672101 399.285978 
L 248.568195 403.401781 
L 248.305311 403.718749 
L 244.189508 406.060531 
L 240.073705 405.783478 
L 235.957902 404.141624 
z
" style="fill:#0080ff;"/>
   </g>
   <g id="PathCollection_37">
    <path clip-path="url(#pc766b188fc)" d="M 235.957902 404.141624 
L 240.073705 405.783478 
L 244.189508 406.060531 
L 248.305311 403.718749 
L 248.568195 403.401781 
L 249.672101 399.285978 
L 248.950376 395.170175 
L 248.305311 393.822208 
L 247.173142 391.054372 
L 244.189508 387.062748 
L 244.080995 386.938569 
L 240.073705 383.864178 
L 236.458761 382.822766 
L 235.957902 382.677982 
L 231.842098 382.586026 
L 230.551908 382.822766 
L 227.726295 383.122648 
L 223.610492 383.850261 
L 219.494689 385.002781 
L 215.794122 386.938569 
L 215.378886 387.925931 
L 214.162658 391.054372 
L 215.378886 392.144972 
L 219.284991 395.170175 
L 219.494689 395.288088 
L 223.610492 397.553208 
L 227.383842 399.285978 
L 227.726295 399.516273 
L 231.842098 401.986343 
L 234.899263 403.401781 
z
M 237.287684 403.401781 
L 235.957902 403.048352 
L 231.842098 401.183101 
L 228.744577 399.285978 
L 227.726295 398.799207 
L 223.610492 396.849807 
L 220.60773 395.170175 
L 219.494689 394.279515 
L 215.652835 391.054372 
L 217.499554 386.938569 
L 219.494689 385.894902 
L 223.610492 384.560977 
L 227.726295 383.802439 
L 231.842098 383.432215 
L 235.957902 383.690468 
L 240.073705 385.216659 
L 242.318115 386.938569 
L 244.189508 389.080142 
L 245.665193 391.054372 
L 247.388198 395.170175 
L 247.793771 399.285978 
L 245.539618 403.401781 
L 244.189508 404.212549 
L 240.073705 404.472451 
z
" style="fill:#00c8ff;"/>
   </g>
   <g id="PathCollection_38">
    <path clip-path="url(#pc766b188fc)" d="M 240.073705 404.472451 
L 244.189508 404.212549 
L 245.539618 403.401781 
L 247.793771 399.285978 
L 247.388198 395.170175 
L 245.665193 391.054372 
L 244.189508 389.080142 
L 242.318115 386.938569 
L 240.073705 385.216659 
L 235.957902 383.690468 
L 231.842098 383.432215 
L 227.726295 383.802439 
L 223.610492 384.560977 
L 219.494689 385.894902 
L 217.499554 386.938569 
L 215.652835 391.054372 
L 219.494689 394.279515 
L 220.60773 395.170175 
L 223.610492 396.849807 
L 227.726295 398.799207 
L 228.744577 399.285978 
L 231.842098 401.183101 
L 235.957902 403.048352 
L 237.287684 403.401781 
z
M 230.056068 399.285978 
L 227.726295 398.172273 
L 223.610492 396.146405 
L 221.865236 395.170175 
L 219.494689 393.273253 
L 216.851514 391.054372 
L 219.204986 386.938569 
L 219.494689 386.787024 
L 223.610492 385.271693 
L 227.726295 384.482231 
L 231.842098 384.195388 
L 235.957902 384.661797 
L 240.073705 386.56914 
L 240.555234 386.938569 
L 244.160712 391.054372 
L 244.189508 391.125742 
L 245.942451 395.170175 
L 246.007498 399.285978 
L 244.189508 401.938808 
L 240.073705 403.150483 
L 235.957902 402.141655 
L 231.842098 400.379859 
z
" style="fill:#23ffd4;"/>
   </g>
   <g id="PathCollection_39">
    <path clip-path="url(#pc766b188fc)" d="M 231.842098 400.379859 
L 235.957902 402.141655 
L 240.073705 403.150483 
L 244.189508 401.938808 
L 246.007498 399.285978 
L 245.942451 395.170175 
L 244.189508 391.125742 
L 244.160712 391.054372 
L 240.555234 386.938569 
L 240.073705 386.56914 
L 235.957902 384.661797 
L 231.842098 384.195388 
L 227.726295 384.482231 
L 223.610492 385.271693 
L 219.494689 386.787024 
L 219.204986 386.938569 
L 216.851514 391.054372 
L 219.494689 393.273253 
L 221.865236 395.170175 
L 223.610492 396.146405 
L 227.726295 398.172273 
L 230.056068 399.285978 
z
M 231.367559 399.285978 
L 227.726295 397.545339 
L 223.610492 395.443004 
L 223.122742 395.170175 
L 219.494689 392.266992 
L 218.050193 391.054372 
L 219.494689 388.617344 
L 221.065219 386.938569 
L 223.610492 385.98241 
L 227.726295 385.162022 
L 231.842098 384.95856 
L 235.957902 385.633125 
L 238.629077 386.938569 
L 240.073705 388.021035 
L 242.814891 391.054372 
L 244.189508 394.461404 
L 244.496704 395.170175 
L 244.221225 399.285978 
L 244.189508 399.33226 
L 240.073705 401.779777 
L 235.957902 401.234959 
L 231.842098 399.576617 
z
" style="fill:#5dff9a;"/>
   </g>
   <g id="PathCollection_40">
    <path clip-path="url(#pc766b188fc)" d="M 231.842098 399.576617 
L 235.957902 401.234959 
L 240.073705 401.779777 
L 244.189508 399.33226 
L 244.221225 399.285978 
L 244.496704 395.170175 
L 244.189508 394.461404 
L 242.814891 391.054372 
L 240.073705 388.021035 
L 238.629077 386.938569 
L 235.957902 385.633125 
L 231.842098 384.95856 
L 227.726295 385.162022 
L 223.610492 385.98241 
L 221.065219 386.938569 
L 219.494689 388.617344 
L 218.050193 391.054372 
L 219.494689 392.266992 
L 223.122742 395.170175 
L 223.610492 395.443004 
L 227.726295 397.545339 
L 231.367559 399.285978 
z
M 233.31134 399.285978 
L 231.842098 398.793235 
L 227.726295 396.918406 
L 224.351347 395.170175 
L 223.610492 394.570472 
L 219.494689 391.26073 
L 219.248872 391.054372 
L 219.494689 390.63965 
L 222.957128 386.938569 
L 223.610492 386.693126 
L 227.726295 385.841813 
L 231.842098 385.721733 
L 235.957902 386.604454 
L 236.641562 386.938569 
L 240.073705 389.510291 
L 241.469071 391.054372 
L 243.07568 395.170175 
L 241.945542 399.285978 
L 240.073705 400.409071 
L 235.957902 400.328262 
z
" style="fill:#9aff5d;"/>
   </g>
   <g id="PathCollection_41">
    <path clip-path="url(#pc766b188fc)" d="M 235.957902 400.328262 
L 240.073705 400.409071 
L 241.945542 399.285978 
L 243.07568 395.170175 
L 241.469071 391.054372 
L 240.073705 389.510291 
L 236.641562 386.938569 
L 235.957902 386.604454 
L 231.842098 385.721733 
L 227.726295 385.841813 
L 223.610492 386.693126 
L 222.957128 386.938569 
L 219.494689 390.63965 
L 219.248872 391.054372 
L 219.494689 391.26073 
L 223.610492 394.570472 
L 224.351347 395.170175 
L 227.726295 396.918406 
L 231.842098 398.793235 
L 233.31134 399.285978 
z
M 235.61362 399.285978 
L 231.842098 398.021114 
L 227.726295 396.291472 
L 225.561639 395.170175 
L 223.610492 393.590771 
L 220.461556 391.054372 
L 223.610492 387.769257 
L 225.735391 386.938569 
L 227.726295 386.521604 
L 231.842098 386.484905 
L 233.798661 386.938569 
L 235.957902 387.706291 
L 240.073705 390.999546 
L 240.12325 391.054372 
L 241.661326 395.170175 
L 240.073705 398.715435 
L 237.821927 399.285978 
L 235.957902 399.421565 
z
" style="fill:#d4ff23;"/>
   </g>
   <g id="PathCollection_42">
    <path clip-path="url(#pc766b188fc)" d="M 235.957902 399.421565 
L 237.821927 399.285978 
L 240.073705 398.715435 
L 241.661326 395.170175 
L 240.12325 391.054372 
L 240.073705 390.999546 
L 235.957902 387.706291 
L 233.798661 386.938569 
L 231.842098 386.484905 
L 227.726295 386.521604 
L 225.735391 386.938569 
L 223.610492 387.769257 
L 220.461556 391.054372 
L 223.610492 393.590771 
L 225.561639 395.170175 
L 227.726295 396.291472 
L 231.842098 398.021114 
L 235.61362 399.285978 
z
M 226.771932 395.170175 
L 223.610492 392.61107 
L 221.677853 391.054372 
L 223.610492 389.038154 
L 227.726295 387.332511 
L 231.842098 387.3489 
L 235.957902 388.876557 
L 238.669992 391.054372 
L 240.073705 394.70576 
L 240.246972 395.170175 
L 240.073705 395.557092 
L 235.957902 398.171659 
L 231.842098 397.248993 
L 227.726295 395.664538 
z
" style="fill:#ffdb00;"/>
   </g>
   <g id="PathCollection_43">
    <path clip-path="url(#pc766b188fc)" d="M 227.726295 395.664538 
L 231.842098 397.248993 
L 235.957902 398.171659 
L 240.073705 395.557092 
L 240.246972 395.170175 
L 240.073705 394.70576 
L 238.669992 391.054372 
L 235.957902 388.876557 
L 231.842098 387.3489 
L 227.726295 387.332511 
L 223.610492 389.038154 
L 221.677853 391.054372 
L 223.610492 392.61107 
L 226.771932 395.170175 
z
M 228.183447 395.170175 
L 227.726295 394.866313 
L 223.610492 391.63137 
L 222.894151 391.054372 
L 223.610492 390.307052 
L 227.726295 388.351427 
L 231.842098 388.360675 
L 235.957902 390.046824 
L 237.212628 391.054372 
L 238.40804 395.170175 
L 235.957902 396.861405 
L 231.842098 396.476872 
z
" style="fill:#ff9400;"/>
   </g>
   <g id="PathCollection_44">
    <path clip-path="url(#pc766b188fc)" d="M 231.842098 396.476872 
L 235.957902 396.861405 
L 238.40804 395.170175 
L 237.212628 391.054372 
L 235.957902 390.046824 
L 231.842098 388.360675 
L 227.726295 388.351427 
L 223.610492 390.307052 
L 222.894151 391.054372 
L 223.610492 391.63137 
L 227.726295 394.866313 
L 228.183447 395.170175 
z
M 230.345326 395.170175 
L 227.726295 393.429344 
L 224.430233 391.054372 
L 227.726295 389.370344 
L 231.842098 389.372451 
L 235.640216 391.054372 
L 235.957902 392.38584 
L 236.509834 395.170175 
L 235.957902 395.551151 
L 231.842098 395.704751 
z
" style="fill:#ff5200;"/>
   </g>
   <g id="PathCollection_45">
    <path clip-path="url(#pc766b188fc)" d="M 231.842098 395.704751 
L 235.957902 395.551151 
L 236.509834 395.170175 
L 235.957902 392.38584 
L 235.640216 391.054372 
L 231.842098 389.372451 
L 227.726295 389.370344 
L 224.430233 391.054372 
L 227.726295 393.429344 
L 230.345326 395.170175 
z
M 226.424506 391.054372 
L 227.726295 390.38926 
L 231.842098 390.384226 
L 233.355423 391.054372 
L 231.842098 393.864776 
L 227.726295 391.992374 
z
" style="fill:#fa0f00;"/>
   </g>
   <g id="PathCollection_46">
    <path clip-path="url(#pc766b188fc)" d="M 227.726295 391.992374 
L 231.842098 393.864776 
L 233.355423 391.054372 
L 231.842098 390.384226 
L 227.726295 390.38926 
L 226.424506 391.054372 
z
" style="fill:#a80000;"/>
   </g>
   <g id="patch_23">
    <path d="M 168.252941 454.22 
L 168.252941 323.772941 
" style="fill:none;stroke:#000000;stroke-linecap:square;stroke-linejoin:miter;stroke-width:0.5;"/>
   </g>
   <g id="patch_24">
    <path d="M 299.547059 454.22 
L 299.547059 323.772941 
" style="fill:none;stroke:#000000;stroke-linecap:square;stroke-linejoin:miter;stroke-width:0.5;"/>
   </g>
   <g id="patch_25">
    <path d="M 168.252941 454.22 
L 299.547059 454.22 
" style="fill:none;stroke:#000000;stroke-linecap:square;stroke-linejoin:miter;stroke-width:0.5;"/>
   </g>
   <g id="patch_26">
    <path d="M 168.252941 323.772941 
L 299.547059 323.772941 
" style="fill:none;stroke:#000000;stroke-linecap:square;stroke-linejoin:miter;stroke-width:0.5;"/>
   </g>
  </g>
  <g id="axes_6">
   <g id="patch_27">
    <path d="M 325.805882 454.22 
L 457.1 454.22 
L 457.1 323.772941 
L 325.805882 323.772941 
z
" style="fill:#ffffff;"/>
   </g>
   <g id="line2d_5">
    <path clip-path="url(#pc927f3dcb8)" d="M 331.773797 448.290588 
L 335.8896 448.290588 
L 340.005403 448.290588 
L 344.121206 448.290588 
L 348.237009 448.290585 
L 352.352812 448.290475 
L 356.468615 448.288186 
L 360.584418 448.255754 
L 364.700221 447.944007 
L 368.816024 445.926222 
L 372.931827 437.284031 
L 377.04763 413.627376 
L 381.163434 374.726568 
L 385.279237 341.825871 
L 389.39504 340.483102 
L 393.510843 370.173577 
L 397.626646 407.627515 
L 401.742449 433.322292 
L 405.858252 444.485819 
L 409.974055 447.63426 
L 414.089858 448.214128 
L 418.205661 448.284553 
L 422.321464 448.290264 
L 426.437267 448.290576 
L 430.55307 448.290588 
L 434.668873 448.290588 
L 438.784676 448.290588 
L 442.900479 448.290588 
L 447.016283 448.290588 
L 451.132086 448.290588 
" style="fill:none;stroke:#1f77b4;stroke-linecap:square;stroke-width:1.5;"/>
   </g>
   <g id="line2d_6">
    <path clip-path="url(#pc927f3dcb8)" d="M 331.773797 329.702353 
" style="fill:none;stroke:#ffffff;stroke-linecap:square;stroke-width:1.5;"/>
   </g>
   <g id="patch_28">
    <path d="M 325.805882 454.22 
L 325.805882 323.772941 
" style="fill:none;stroke:#000000;stroke-linecap:square;stroke-linejoin:miter;stroke-width:0.5;"/>
   </g>
   <g id="patch_29">
    <path d="M 457.1 454.22 
L 457.1 323.772941 
" style="fill:none;stroke:#000000;stroke-linecap:square;stroke-linejoin:miter;stroke-width:0.5;"/>
   </g>
   <g id="patch_30">
    <path d="M 325.805882 454.22 
L 457.1 454.22 
" style="fill:none;stroke:#000000;stroke-linecap:square;stroke-linejoin:miter;stroke-width:0.5;"/>
   </g>
   <g id="patch_31">
    <path d="M 325.805882 323.772941 
L 457.1 323.772941 
" style="fill:none;stroke:#000000;stroke-linecap:square;stroke-linejoin:miter;stroke-width:0.5;"/>
   </g>
  </g>
 </g>
 <defs>
  <clipPath id="p5a2e9516a3">
   <rect height="130.447059" width="131.294118" x="10.7" y="10.7"/>
  </clipPath>
  <clipPath id="p60d18c62c3">
   <rect height="130.447059" width="131.294118" x="10.7" y="167.236471"/>
  </clipPath>
  <clipPath id="ped7a5c13fb">
   <rect height="130.447059" width="131.294118" x="168.252941" y="167.236471"/>
  </clipPath>
  <clipPath id="p32565aa3ad">
   <rect height="130.447059" width="131.294118" x="10.7" y="323.772941"/>
  </clipPath>
  <clipPath id="pc766b188fc">
   <rect height="130.447059" width="131.294118" x="168.252941" y="323.772941"/>
  </clipPath>
  <clipPath id="pc927f3dcb8">
   <rect height="130.447059" width="131.294118" x="325.805882" y="323.772941"/>
  </clipPath>
 </defs>
</svg>
