<?xml version="1.0" encoding="utf-8" standalone="no"?>
<!DOCTYPE svg PUBLIC "-//W3C//DTD SVG 1.1//EN"
  "http://www.w3.org/Graphics/SVG/1.1/DTD/svg11.dtd">
<!-- Created with matplotlib (http://matplotlib.org/) -->
<svg height="464pt" version="1.1" viewBox="0 0 467 464" width="467pt" xmlns="http://www.w3.org/2000/svg" xmlns:xlink="http://www.w3.org/1999/xlink">
 <defs>
  <style type="text/css">
*{stroke-linecap:butt;stroke-linejoin:round;}
  </style>
 </defs>
 <g id="figure_1">
  <g id="patch_1">
   <path d="M 0 464.92 
L 467.8 464.92 
L 467.8 0 
L 0 0 
z
" style="fill:#ffffff;"/>
  </g>
  <g id="axes_1">
   <g id="patch_2">
    <path d="M 10.7 141.147059 
L 141.994118 141.147059 
L 141.994118 10.7 
L 10.7 10.7 
z
" style="fill:#ffffff;"/>
   </g>
   <g id="line2d_1">
    <path clip-path="url(#pf9bf913484)" d="M 16.667914 135.217647 
L 20.783717 135.217647 
L 24.899521 135.217647 
L 29.015324 135.217647 
L 33.131127 135.217647 
L 37.24693 135.217645 
L 41.362733 135.21756 
L 45.478536 135.216065 
L 49.594339 135.197999 
L 53.710142 135.019997 
L 57.825945 133.611129 
L 61.941748 125.960638 
L 66.057551 101.700274 
L 70.173354 60.492149 
L 74.289157 27.41016 
L 78.40496 29.841461 
L 82.520763 65.999888 
L 86.636566 107.121016 
L 90.75237 129.13422 
L 94.868173 134.599985 
L 98.983976 135.187562 
L 103.099779 135.216754 
L 107.215582 135.217623 
L 111.331385 135.217646 
L 115.447188 135.217647 
L 119.562991 135.217647 
L 123.678794 135.217647 
L 127.794597 135.217647 
L 131.9104 135.217647 
L 136.026203 135.217647 
" style="fill:none;stroke:#1f77b4;stroke-linecap:square;stroke-width:1.5;"/>
   </g>
   <g id="line2d_2">
    <path clip-path="url(#pf9bf913484)" d="M 16.667914 16.629412 
" style="fill:none;stroke:#ffffff;stroke-linecap:square;stroke-width:1.5;"/>
   </g>
   <g id="patch_3">
    <path d="M 10.7 141.147059 
L 10.7 10.7 
" style="fill:none;stroke:#000000;stroke-linecap:square;stroke-linejoin:miter;stroke-width:0.5;"/>
   </g>
   <g id="patch_4">
    <path d="M 141.994118 141.147059 
L 141.994118 10.7 
" style="fill:none;stroke:#000000;stroke-linecap:square;stroke-linejoin:miter;stroke-width:0.5;"/>
   </g>
   <g id="patch_5">
    <path d="M 10.7 141.147059 
L 141.994118 141.147059 
" style="fill:none;stroke:#000000;stroke-linecap:square;stroke-linejoin:miter;stroke-width:0.5;"/>
   </g>
   <g id="patch_6">
    <path d="M 10.7 10.7 
L 141.994118 10.7 
" style="fill:none;stroke:#000000;stroke-linecap:square;stroke-linejoin:miter;stroke-width:0.5;"/>
   </g>
  </g>
  <g id="axes_2">
   <g id="patch_7">
    <path d="M 10.7 297.683529 
L 141.994118 297.683529 
L 141.994118 167.236471 
L 10.7 167.236471 
z
" style="fill:#ffffff;"/>
   </g>
   <g id="PathCollection_1">
    <path clip-path="url(#p85d3f45b91)" d="M 20.783717 292.139144 
L 24.899521 292.139144 
L 29.015324 292.139144 
L 33.131127 292.139144 
L 37.24693 292.139144 
L 41.362733 292.139144 
L 45.478536 292.139144 
L 49.594339 292.139144 
L 53.710142 292.139144 
L 57.825945 292.139144 
L 61.941748 292.139144 
L 66.057551 292.139144 
L 70.173354 292.139144 
L 74.289157 292.139144 
L 78.40496 292.139144 
L 82.520763 292.139144 
L 86.636566 292.139144 
L 90.75237 292.139144 
L 94.868173 292.139144 
L 98.983976 292.139144 
L 103.099779 292.139144 
L 107.215582 292.139144 
L 111.331385 292.139144 
L 115.447188 292.139144 
L 119.562991 292.139144 
L 123.678794 292.139144 
L 127.794597 292.139144 
L 131.9104 292.139144 
L 136.026203 292.139144 
L 136.026203 288.023341 
L 136.026203 283.907538 
L 136.026203 279.791735 
L 136.026203 275.675932 
L 136.026203 271.560129 
L 136.026203 267.444326 
L 136.026203 263.328523 
L 136.026203 259.21272 
L 136.026203 255.096917 
L 136.026203 250.981114 
L 136.026203 246.865311 
L 136.026203 242.749508 
L 136.026203 238.633705 
L 136.026203 234.517902 
L 136.026203 230.402098 
L 136.026203 226.286295 
L 136.026203 222.170492 
L 136.026203 218.054689 
L 136.026203 213.938886 
L 136.026203 209.823083 
L 136.026203 205.70728 
L 136.026203 201.591477 
L 136.026203 197.475674 
L 136.026203 193.359871 
L 136.026203 189.244068 
L 136.026203 185.128265 
L 136.026203 181.012462 
L 136.026203 176.896659 
L 136.026203 172.780856 
L 131.9104 172.780856 
L 127.794597 172.780856 
L 123.678794 172.780856 
L 119.562991 172.780856 
L 115.447188 172.780856 
L 111.331385 172.780856 
L 107.215582 172.780856 
L 103.099779 172.780856 
L 98.983976 172.780856 
L 94.868173 172.780856 
L 90.75237 172.780856 
L 86.636566 172.780856 
L 82.520763 172.780856 
L 78.40496 172.780856 
L 74.289157 172.780856 
L 70.173354 172.780856 
L 66.057551 172.780856 
L 61.941748 172.780856 
L 57.825945 172.780856 
L 53.710142 172.780856 
L 49.594339 172.780856 
L 45.478536 172.780856 
L 41.362733 172.780856 
L 37.24693 172.780856 
L 33.131127 172.780856 
L 29.015324 172.780856 
L 24.899521 172.780856 
L 20.783717 172.780856 
L 16.667914 172.780856 
L 16.667914 176.896659 
L 16.667914 181.012462 
L 16.667914 185.128265 
L 16.667914 189.244068 
L 16.667914 193.359871 
L 16.667914 197.475674 
L 16.667914 201.591477 
L 16.667914 205.70728 
L 16.667914 209.823083 
L 16.667914 213.938886 
L 16.667914 218.054689 
L 16.667914 222.170492 
L 16.667914 226.286295 
L 16.667914 230.402098 
L 16.667914 234.517902 
L 16.667914 238.633705 
L 16.667914 242.749508 
L 16.667914 246.865311 
L 16.667914 250.981114 
L 16.667914 255.096917 
L 16.667914 259.21272 
L 16.667914 263.328523 
L 16.667914 267.444326 
L 16.667914 271.560129 
L 16.667914 275.675932 
L 16.667914 279.791735 
L 16.667914 283.907538 
L 16.667914 288.023341 
L 16.667914 292.139144 
z
M 70.182788 259.21272 
L 70.173354 259.200432 
L 68.154459 255.096917 
L 67.208473 250.981114 
L 66.596802 246.865311 
L 66.057551 243.271238 
L 65.762523 242.749508 
L 63.509143 238.633705 
L 62.209614 234.517902 
L 61.941748 233.421483 
L 60.162913 230.402098 
L 59.469942 226.286295 
L 60.415214 222.170492 
L 61.941748 220.074834 
L 63.279742 218.054689 
L 66.057551 215.479963 
L 68.58493 213.938886 
L 70.173354 212.804279 
L 74.289157 211.01813 
L 78.40496 210.292292 
L 82.520763 210.343429 
L 86.636566 211.764809 
L 89.003505 213.938886 
L 90.75237 217.238012 
L 91.156133 218.054689 
L 92.179555 222.170492 
L 92.129968 226.286295 
L 90.911898 230.402098 
L 90.75237 230.673467 
L 89.971836 234.517902 
L 88.581663 238.633705 
L 86.636566 241.620774 
L 86.363801 242.749508 
L 85.406116 246.865311 
L 83.6664 250.981114 
L 82.520763 252.986304 
L 81.852958 255.096917 
L 79.831112 259.21272 
L 78.40496 261.166157 
L 74.289157 262.911144 
z
" style="fill:#ffffff;"/>
   </g>
   <g id="PathCollection_2">
    <path clip-path="url(#p85d3f45b91)" d="M 74.289157 262.911144 
L 78.40496 261.166157 
L 79.831112 259.21272 
L 81.852958 255.096917 
L 82.520763 252.986304 
L 83.6664 250.981114 
L 85.406116 246.865311 
L 86.363801 242.749508 
L 86.636566 241.620774 
L 88.581663 238.633705 
L 89.971836 234.517902 
L 90.75237 230.673467 
L 90.911898 230.402098 
L 92.129968 226.286295 
L 92.179555 222.170492 
L 91.156133 218.054689 
L 90.75237 217.238012 
L 89.003505 213.938886 
L 86.636566 211.764809 
L 82.520763 210.343429 
L 78.40496 210.292292 
L 74.289157 211.01813 
L 70.173354 212.804279 
L 68.58493 213.938886 
L 66.057551 215.479963 
L 63.279742 218.054689 
L 61.941748 220.074834 
L 60.415214 222.170492 
L 59.469942 226.286295 
L 60.162913 230.402098 
L 61.941748 233.421483 
L 62.209614 234.517902 
L 63.509143 238.633705 
L 65.762523 242.749508 
L 66.057551 243.271238 
L 66.596802 246.865311 
L 67.208473 250.981114 
L 68.154459 255.096917 
L 70.173354 259.200432 
L 70.182788 259.21272 
z
M 74.074554 259.21272 
L 70.513346 255.096917 
L 70.173354 254.383586 
L 68.761752 250.981114 
L 67.668008 246.865311 
L 66.811955 242.749508 
L 66.057551 239.370235 
L 65.629233 238.633705 
L 63.651158 234.517902 
L 62.582844 230.402098 
L 62.314485 226.286295 
L 63.391203 222.170492 
L 66.057551 218.901965 
L 66.968903 218.054689 
L 70.173354 215.595193 
L 74.289157 214.039432 
L 75.038456 213.938886 
L 78.40496 213.206506 
L 82.520763 213.913159 
L 82.568145 213.938886 
L 86.636566 216.78216 
L 87.580798 218.054689 
L 89.260556 222.170492 
L 89.678131 226.286295 
L 89.355633 230.402098 
L 88.372735 234.517902 
L 86.636566 237.909387 
L 86.468604 238.633705 
L 85.424052 242.749508 
L 83.817503 246.865311 
L 82.520763 249.169091 
L 81.889157 250.981114 
L 80.080591 255.096917 
L 78.40496 257.582504 
L 74.625284 259.21272 
L 74.289157 259.406003 
z
" style="fill:#0000a8;"/>
   </g>
   <g id="PathCollection_3">
    <path clip-path="url(#p85d3f45b91)" d="M 74.289157 259.406003 
L 74.625284 259.21272 
L 78.40496 257.582504 
L 80.080591 255.096917 
L 81.889157 250.981114 
L 82.520763 249.169091 
L 83.817503 246.865311 
L 85.424052 242.749508 
L 86.468604 238.633705 
L 86.636566 237.909387 
L 88.372735 234.517902 
L 89.355633 230.402098 
L 89.678131 226.286295 
L 89.260556 222.170492 
L 87.580798 218.054689 
L 86.636566 216.78216 
L 82.568145 213.938886 
L 82.520763 213.913159 
L 78.40496 213.206506 
L 75.038456 213.938886 
L 74.289157 214.039432 
L 70.173354 215.595193 
L 66.968903 218.054689 
L 66.057551 218.901965 
L 63.391203 222.170492 
L 62.314485 226.286295 
L 62.582844 230.402098 
L 63.651158 234.517902 
L 65.629233 238.633705 
L 66.057551 239.370235 
L 66.811955 242.749508 
L 67.668008 246.865311 
L 68.761752 250.981114 
L 70.173354 254.383586 
L 70.513346 255.096917 
L 74.074554 259.21272 
z
M 72.297814 255.096917 
L 70.264707 250.981114 
L 70.173354 250.718593 
L 68.739214 246.865311 
L 67.625835 242.749508 
L 66.621589 238.633705 
L 66.057551 236.395362 
L 65.092701 234.517902 
L 63.89581 230.402098 
L 63.845363 226.286295 
L 65.597959 222.170492 
L 66.057551 221.607104 
L 69.878622 218.054689 
L 70.173354 217.828475 
L 74.289157 215.836954 
L 78.40496 215.351851 
L 82.520763 216.478114 
L 84.414847 218.054689 
L 86.636566 221.3541 
L 87.034772 222.170492 
L 88.016415 226.286295 
L 87.909056 230.402098 
L 86.773635 234.517902 
L 86.636566 234.785656 
L 85.744238 238.633705 
L 84.484304 242.749508 
L 82.520763 246.53265 
L 82.397664 246.865311 
L 80.905395 250.981114 
L 78.40496 255.010393 
L 78.213042 255.096917 
L 74.289157 257.325652 
z
" style="fill:#0000fa;"/>
   </g>
   <g id="PathCollection_4">
    <path clip-path="url(#p85d3f45b91)" d="M 74.289157 257.325652 
L 78.213042 255.096917 
L 78.40496 255.010393 
L 80.905395 250.981114 
L 82.397664 246.865311 
L 82.520763 246.53265 
L 84.484304 242.749508 
L 85.744238 238.633705 
L 86.636566 234.785656 
L 86.773635 234.517902 
L 87.909056 230.402098 
L 88.016415 226.286295 
L 87.034772 222.170492 
L 86.636566 221.3541 
L 84.414847 218.054689 
L 82.520763 216.478114 
L 78.40496 215.351851 
L 74.289157 215.836954 
L 70.173354 217.828475 
L 69.878622 218.054689 
L 66.057551 221.607104 
L 65.597959 222.170492 
L 63.845363 226.286295 
L 63.89581 230.402098 
L 65.092701 234.517902 
L 66.057551 236.395362 
L 66.621589 238.633705 
L 67.625835 242.749508 
L 68.739214 246.865311 
L 70.173354 250.718593 
L 70.264707 250.981114 
L 72.297814 255.096917 
z
M 74.082283 255.096917 
L 71.266259 250.981114 
L 70.173354 247.840452 
L 69.81042 246.865311 
L 68.439714 242.749508 
L 67.328428 238.633705 
L 66.297641 234.517902 
L 66.057551 233.125035 
L 65.208776 230.402098 
L 65.376241 226.286295 
L 66.057551 224.805256 
L 67.438002 222.170492 
L 70.173354 219.553725 
L 73.439547 218.054689 
L 74.289157 217.634476 
L 78.40496 217.239108 
L 80.585377 218.054689 
L 82.520763 218.90355 
L 85.165557 222.170492 
L 86.434127 226.286295 
L 86.530909 230.402098 
L 85.972595 234.517902 
L 85.019873 238.633705 
L 83.544555 242.749508 
L 82.520763 244.722041 
L 81.727657 246.865311 
L 79.921634 250.981114 
L 78.40496 253.425129 
L 74.696798 255.096917 
L 74.289157 255.328453 
z
" style="fill:#0034ff;"/>
   </g>
   <g id="PathCollection_5">
    <path clip-path="url(#p85d3f45b91)" d="M 74.289157 255.328453 
L 74.696798 255.096917 
L 78.40496 253.425129 
L 79.921634 250.981114 
L 81.727657 246.865311 
L 82.520763 244.722041 
L 83.544555 242.749508 
L 85.019873 238.633705 
L 85.972595 234.517902 
L 86.530909 230.402098 
L 86.434127 226.286295 
L 85.165557 222.170492 
L 82.520763 218.90355 
L 80.585377 218.054689 
L 78.40496 217.239108 
L 74.289157 217.634476 
L 73.439547 218.054689 
L 70.173354 219.553725 
L 67.438002 222.170492 
L 66.057551 224.805256 
L 65.376241 226.286295 
L 65.208776 230.402098 
L 66.057551 233.125035 
L 66.297641 234.517902 
L 67.328428 238.633705 
L 68.439714 242.749508 
L 69.81042 246.865311 
L 70.173354 247.840452 
L 71.266259 250.981114 
L 74.082283 255.096917 
z
M 72.26781 250.981114 
L 70.636673 246.865311 
L 70.173354 245.346105 
L 69.253594 242.749508 
L 68.035267 238.633705 
L 67.023684 234.517902 
L 66.366322 230.402098 
L 66.712467 226.286295 
L 69.181581 222.170492 
L 70.173354 221.221715 
L 74.289157 219.118509 
L 78.40496 218.918384 
L 82.520763 221.116503 
L 83.374033 222.170492 
L 85.240672 226.286295 
L 85.652956 230.402098 
L 85.246375 234.517902 
L 84.295508 238.633705 
L 82.604806 242.749508 
L 82.520763 242.911432 
L 81.05765 246.865311 
L 78.937873 250.981114 
L 78.40496 251.839866 
L 74.289157 253.843196 
z
" style="fill:#0080ff;"/>
   </g>
   <g id="PathCollection_6">
    <path clip-path="url(#p85d3f45b91)" d="M 74.289157 253.843196 
L 78.40496 251.839866 
L 78.937873 250.981114 
L 81.05765 246.865311 
L 82.520763 242.911432 
L 82.604806 242.749508 
L 84.295508 238.633705 
L 85.246375 234.517902 
L 85.652956 230.402098 
L 85.240672 226.286295 
L 83.374033 222.170492 
L 82.520763 221.116503 
L 78.40496 218.918384 
L 74.289157 219.118509 
L 70.173354 221.221715 
L 69.181581 222.170492 
L 66.712467 226.286295 
L 66.366322 230.402098 
L 67.023684 234.517902 
L 68.035267 238.633705 
L 69.253594 242.749508 
L 70.173354 245.346105 
L 70.636673 246.865311 
L 72.26781 250.981114 
z
M 73.269361 250.981114 
L 71.337407 246.865311 
L 70.173354 243.048423 
L 70.067473 242.749508 
L 68.742106 238.633705 
L 67.749728 234.517902 
L 67.239682 230.402098 
L 67.892593 226.286295 
L 70.173354 222.921255 
L 71.262508 222.170492 
L 74.289157 220.506897 
L 78.40496 220.439379 
L 81.223712 222.170492 
L 82.520763 223.366185 
L 84.047217 226.286295 
L 84.775002 230.402098 
L 84.520154 234.517902 
L 83.571143 238.633705 
L 82.520763 241.161918 
L 81.994608 242.749508 
L 80.387643 246.865311 
L 78.40496 250.429178 
L 77.127463 250.981114 
L 74.289157 252.425072 
z
" style="fill:#00c8ff;"/>
   </g>
   <g id="PathCollection_7">
    <path clip-path="url(#p85d3f45b91)" d="M 74.289157 252.425072 
L 77.127463 250.981114 
L 78.40496 250.429178 
L 80.387643 246.865311 
L 81.994608 242.749508 
L 82.520763 241.161918 
L 83.571143 238.633705 
L 84.520154 234.517902 
L 84.775002 230.402098 
L 84.047217 226.286295 
L 82.520763 223.366185 
L 81.223712 222.170492 
L 78.40496 220.439379 
L 74.289157 220.506897 
L 71.262508 222.170492 
L 70.173354 222.921255 
L 67.892593 226.286295 
L 67.239682 230.402098 
L 67.749728 234.517902 
L 68.742106 238.633705 
L 70.067473 242.749508 
L 70.173354 243.048423 
L 71.337407 246.865311 
L 73.269361 250.981114 
z
M 74.270912 250.981114 
L 72.03814 246.865311 
L 70.703984 242.749508 
L 70.173354 240.859899 
L 69.448945 238.633705 
L 68.475771 234.517902 
L 68.113043 230.402098 
L 69.072719 226.286295 
L 70.173354 224.662416 
L 73.788462 222.170492 
L 74.289157 221.895286 
L 78.40496 221.960374 
L 78.747093 222.170492 
L 82.520763 225.649268 
L 82.853762 226.286295 
L 83.897048 230.402098 
L 83.793934 234.517902 
L 82.846777 238.633705 
L 82.520763 239.418405 
L 81.416777 242.749508 
L 79.717636 246.865311 
L 78.40496 249.224842 
L 74.339938 250.981114 
L 74.289157 251.006948 
z
" style="fill:#23ffd4;"/>
   </g>
   <g id="PathCollection_8">
    <path clip-path="url(#p85d3f45b91)" d="M 74.289157 251.006948 
L 74.339938 250.981114 
L 78.40496 249.224842 
L 79.717636 246.865311 
L 81.416777 242.749508 
L 82.520763 239.418405 
L 82.846777 238.633705 
L 83.793934 234.517902 
L 83.897048 230.402098 
L 82.853762 226.286295 
L 82.520763 225.649268 
L 78.747093 222.170492 
L 78.40496 221.960374 
L 74.289157 221.895286 
L 73.788462 222.170492 
L 70.173354 224.662416 
L 69.072719 226.286295 
L 68.113043 230.402098 
L 68.475771 234.517902 
L 69.448945 238.633705 
L 70.173354 240.859899 
L 70.703984 242.749508 
L 72.03814 246.865311 
L 74.270912 250.981114 
z
M 72.738874 246.865311 
L 71.313969 242.749508 
L 70.173354 238.6877 
L 70.155784 238.633705 
L 69.201814 234.517902 
L 68.986403 230.402098 
L 70.173354 226.480651 
L 70.291161 226.286295 
L 74.289157 223.239233 
L 78.40496 223.41446 
L 81.426048 226.286295 
L 82.520763 228.589139 
L 83.019094 230.402098 
L 83.067713 234.517902 
L 82.520763 236.896732 
L 82.179772 238.633705 
L 80.838946 242.749508 
L 79.04763 246.865311 
L 78.40496 248.020507 
L 74.289157 249.716045 
z
" style="fill:#5dff9a;"/>
   </g>
   <g id="PathCollection_9">
    <path clip-path="url(#p85d3f45b91)" d="M 74.289157 249.716045 
L 78.40496 248.020507 
L 79.04763 246.865311 
L 80.838946 242.749508 
L 82.179772 238.633705 
L 82.520763 236.896732 
L 83.067713 234.517902 
L 83.019094 230.402098 
L 82.520763 228.589139 
L 81.426048 226.286295 
L 78.40496 223.41446 
L 74.289157 223.239233 
L 70.291161 226.286295 
L 70.173354 226.480651 
L 68.986403 230.402098 
L 69.201814 234.517902 
L 70.155784 238.633705 
L 70.173354 238.6877 
L 71.313969 242.749508 
L 72.738874 246.865311 
z
M 73.439608 246.865311 
L 71.923954 242.749508 
L 70.807529 238.633705 
L 70.173354 235.577602 
L 69.927857 234.517902 
L 69.859764 230.402098 
L 70.173354 229.366059 
L 72.040115 226.286295 
L 74.289157 224.572194 
L 78.40496 224.857821 
L 79.907674 226.286295 
L 82.068509 230.402098 
L 82.330012 234.517902 
L 81.559712 238.633705 
L 80.261115 242.749508 
L 78.40496 246.813688 
L 78.270954 246.865311 
L 74.289157 248.427503 
z
" style="fill:#9aff5d;"/>
   </g>
   <g id="PathCollection_10">
    <path clip-path="url(#p85d3f45b91)" d="M 74.289157 248.427503 
L 78.270954 246.865311 
L 78.40496 246.813688 
L 80.261115 242.749508 
L 81.559712 238.633705 
L 82.330012 234.517902 
L 82.068509 230.402098 
L 79.907674 226.286295 
L 78.40496 224.857821 
L 74.289157 224.572194 
L 72.040115 226.286295 
L 70.173354 229.366059 
L 69.859764 230.402098 
L 69.927857 234.517902 
L 70.173354 235.577602 
L 70.807529 238.633705 
L 71.923954 242.749508 
L 73.439608 246.865311 
z
M 74.140341 246.865311 
L 72.53394 242.749508 
L 71.45787 238.633705 
L 70.71889 234.517902 
L 70.927797 230.402098 
L 73.789069 226.286295 
L 74.289157 225.905154 
L 78.261666 226.286295 
L 78.40496 226.303188 
L 81.02258 230.402098 
L 81.557283 234.517902 
L 80.939651 238.633705 
L 79.683284 242.749508 
L 78.40496 245.548487 
L 74.986651 246.865311 
L 74.289157 247.138961 
z
" style="fill:#d4ff23;"/>
   </g>
   <g id="PathCollection_11">
    <path clip-path="url(#p85d3f45b91)" d="M 74.289157 247.138961 
L 74.986651 246.865311 
L 78.40496 245.548487 
L 79.683284 242.749508 
L 80.939651 238.633705 
L 81.557283 234.517902 
L 81.02258 230.402098 
L 78.40496 226.303188 
L 78.261666 226.286295 
L 74.289157 225.905154 
L 73.789069 226.286295 
L 70.927797 230.402098 
L 70.71889 234.517902 
L 71.45787 238.633705 
L 72.53394 242.749508 
L 74.140341 246.865311 
z
M 73.143925 242.749508 
L 72.108211 238.633705 
L 71.543123 234.517902 
L 72.104888 230.402098 
L 74.289157 227.429982 
L 78.40496 227.941 
L 79.976651 230.402098 
L 80.784553 234.517902 
L 80.31959 238.633705 
L 79.105453 242.749508 
L 78.40496 244.283285 
L 74.289157 245.648952 
z
" style="fill:#ffdb00;"/>
   </g>
   <g id="PathCollection_12">
    <path clip-path="url(#p85d3f45b91)" d="M 74.289157 245.648952 
L 78.40496 244.283285 
L 79.105453 242.749508 
L 80.31959 238.633705 
L 80.784553 234.517902 
L 79.976651 230.402098 
L 78.40496 227.941 
L 74.289157 227.429982 
L 72.104888 230.402098 
L 71.543123 234.517902 
L 72.108211 238.633705 
L 73.143925 242.749508 
z
M 73.75391 242.749508 
L 72.758552 238.633705 
L 72.367357 234.517902 
L 73.281979 230.402098 
L 74.289157 229.031639 
L 78.40496 229.578813 
L 78.930722 230.402098 
L 80.011824 234.517902 
L 79.69953 238.633705 
L 78.527622 242.749508 
L 78.40496 243.018084 
L 74.289157 244.104621 
z
" style="fill:#ff9400;"/>
   </g>
   <g id="PathCollection_13">
    <path clip-path="url(#p85d3f45b91)" d="M 74.289157 244.104621 
L 78.40496 243.018084 
L 78.527622 242.749508 
L 79.69953 238.633705 
L 80.011824 234.517902 
L 78.930722 230.402098 
L 78.40496 229.578813 
L 74.289157 229.031639 
L 73.281979 230.402098 
L 72.367357 234.517902 
L 72.758552 238.633705 
L 73.75391 242.749508 
z
M 73.408892 238.633705 
L 73.19159 234.517902 
L 74.289157 230.804622 
L 78.40496 231.700239 
L 79.239095 234.517902 
L 79.079469 238.633705 
L 78.40496 241.020877 
L 74.289157 242.407866 
z
" style="fill:#ff5200;"/>
   </g>
   <g id="PathCollection_14">
    <path clip-path="url(#p85d3f45b91)" d="M 74.289157 242.407866 
L 78.40496 241.020877 
L 79.079469 238.633705 
L 79.239095 234.517902 
L 78.40496 231.700239 
L 74.289157 230.804622 
L 73.19159 234.517902 
L 73.408892 238.633705 
z
M 74.059233 238.633705 
L 74.015824 234.517902 
L 74.289157 233.593161 
L 78.40496 234.310479 
L 78.466365 234.517902 
L 78.459408 238.633705 
L 78.40496 238.826403 
L 74.289157 239.619511 
z
" style="fill:#fa0f00;"/>
   </g>
   <g id="PathCollection_15">
    <path clip-path="url(#p85d3f45b91)" d="M 74.289157 239.619511 
L 78.40496 238.826403 
L 78.459408 238.633705 
L 78.466365 234.517902 
L 78.40496 234.310479 
L 74.289157 233.593161 
L 74.015824 234.517902 
L 74.059233 238.633705 
z
" style="fill:#a80000;"/>
   </g>
   <g id="patch_8">
    <path d="M 10.7 297.683529 
L 10.7 167.236471 
" style="fill:none;stroke:#000000;stroke-linecap:square;stroke-linejoin:miter;stroke-width:0.5;"/>
   </g>
   <g id="patch_9">
    <path d="M 141.994118 297.683529 
L 141.994118 167.236471 
" style="fill:none;stroke:#000000;stroke-linecap:square;stroke-linejoin:miter;stroke-width:0.5;"/>
   </g>
   <g id="patch_10">
    <path d="M 10.7 297.683529 
L 141.994118 297.683529 
" style="fill:none;stroke:#000000;stroke-linecap:square;stroke-linejoin:miter;stroke-width:0.5;"/>
   </g>
   <g id="patch_11">
    <path d="M 10.7 167.236471 
L 141.994118 167.236471 
" style="fill:none;stroke:#000000;stroke-linecap:square;stroke-linejoin:miter;stroke-width:0.5;"/>
   </g>
  </g>
  <g id="axes_3">
   <g id="patch_12">
    <path d="M 168.252941 297.683529 
L 299.547059 297.683529 
L 299.547059 167.236471 
L 168.252941 167.236471 
z
" style="fill:#ffffff;"/>
   </g>
   <g id="line2d_3">
    <path clip-path="url(#p2231b91b39)" d="M 174.220856 291.753754 
L 178.336659 291.751873 
L 182.452462 291.742415 
L 186.568265 291.701719 
L 190.684068 291.549916 
L 194.799871 291.054222 
L 198.915674 289.630255 
L 203.031477 286.03791 
L 207.14728 278.169696 
L 211.263083 263.575549 
L 215.378886 241.559839 
L 219.494689 215.947639 
L 223.610492 194.52756 
L 227.726295 183.946631 
L 231.842098 185.987118 
L 235.957902 198.498721 
L 240.073705 217.713538 
L 244.189508 239.565038 
L 248.305311 260.225752 
L 252.421114 276.492888 
L 256.536917 286.492704 
L 260.65272 290.685532 
L 264.768523 291.656294 
L 268.884326 291.751107 
L 273.000129 291.754092 
L 277.115932 291.754118 
L 281.231735 291.754118 
L 285.347538 291.754118 
L 289.463341 291.754118 
L 293.579144 291.754118 
" style="fill:none;stroke:#1f77b4;stroke-linecap:square;stroke-width:1.5;"/>
   </g>
   <g id="line2d_4">
    <path clip-path="url(#p2231b91b39)" d="M 174.220856 173.165882 
" style="fill:none;stroke:#ffffff;stroke-linecap:square;stroke-width:1.5;"/>
   </g>
   <g id="patch_13">
    <path d="M 168.252941 297.683529 
L 168.252941 167.236471 
" style="fill:none;stroke:#000000;stroke-linecap:square;stroke-linejoin:miter;stroke-width:0.5;"/>
   </g>
   <g id="patch_14">
    <path d="M 299.547059 297.683529 
L 299.547059 167.236471 
" style="fill:none;stroke:#000000;stroke-linecap:square;stroke-linejoin:miter;stroke-width:0.5;"/>
   </g>
   <g id="patch_15">
    <path d="M 168.252941 297.683529 
L 299.547059 297.683529 
" style="fill:none;stroke:#000000;stroke-linecap:square;stroke-linejoin:miter;stroke-width:0.5;"/>
   </g>
   <g id="patch_16">
    <path d="M 168.252941 167.236471 
L 299.547059 167.236471 
" style="fill:none;stroke:#000000;stroke-linecap:square;stroke-linejoin:miter;stroke-width:0.5;"/>
   </g>
  </g>
  <g id="axes_4">
   <g id="patch_17">
    <path d="M 10.7 454.22 
L 141.994118 454.22 
L 141.994118 323.772941 
L 10.7 323.772941 
z
" style="fill:#ffffff;"/>
   </g>
   <g id="PathCollection_16">
    <path clip-path="url(#pa9db4ab032)" d="M 20.783717 448.675615 
L 24.899521 448.675615 
L 29.015324 448.675615 
L 33.131127 448.675615 
L 37.24693 448.675615 
L 41.362733 448.675615 
L 45.478536 448.675615 
L 49.594339 448.675615 
L 53.710142 448.675615 
L 57.825945 448.675615 
L 61.941748 448.675615 
L 66.057551 448.675615 
L 70.173354 448.675615 
L 74.289157 448.675615 
L 78.40496 448.675615 
L 82.520763 448.675615 
L 86.636566 448.675615 
L 90.75237 448.675615 
L 94.868173 448.675615 
L 98.983976 448.675615 
L 103.099779 448.675615 
L 107.215582 448.675615 
L 111.331385 448.675615 
L 115.447188 448.675615 
L 119.562991 448.675615 
L 123.678794 448.675615 
L 127.794597 448.675615 
L 131.9104 448.675615 
L 136.026203 448.675615 
L 136.026203 444.559812 
L 136.026203 440.444009 
L 136.026203 436.328206 
L 136.026203 432.212403 
L 136.026203 428.0966 
L 136.026203 423.980797 
L 136.026203 419.864994 
L 136.026203 415.74919 
L 136.026203 411.633387 
L 136.026203 407.517584 
L 136.026203 403.401781 
L 136.026203 399.285978 
L 136.026203 395.170175 
L 136.026203 391.054372 
L 136.026203 386.938569 
L 136.026203 382.822766 
L 136.026203 378.706963 
L 136.026203 374.59116 
L 136.026203 370.475357 
L 136.026203 366.359554 
L 136.026203 362.243751 
L 136.026203 358.127948 
L 136.026203 354.012145 
L 136.026203 349.896342 
L 136.026203 345.780538 
L 136.026203 341.664735 
L 136.026203 337.548932 
L 136.026203 333.433129 
L 136.026203 329.317326 
L 131.9104 329.317326 
L 127.794597 329.317326 
L 123.678794 329.317326 
L 119.562991 329.317326 
L 115.447188 329.317326 
L 111.331385 329.317326 
L 107.215582 329.317326 
L 103.099779 329.317326 
L 98.983976 329.317326 
L 94.868173 329.317326 
L 90.75237 329.317326 
L 86.636566 329.317326 
L 82.520763 329.317326 
L 78.40496 329.317326 
L 74.289157 329.317326 
L 70.173354 329.317326 
L 66.057551 329.317326 
L 61.941748 329.317326 
L 57.825945 329.317326 
L 53.710142 329.317326 
L 49.594339 329.317326 
L 45.478536 329.317326 
L 41.362733 329.317326 
L 37.24693 329.317326 
L 33.131127 329.317326 
L 29.015324 329.317326 
L 24.899521 329.317326 
L 20.783717 329.317326 
L 16.667914 329.317326 
L 16.667914 333.433129 
L 16.667914 337.548932 
L 16.667914 341.664735 
L 16.667914 345.780538 
L 16.667914 349.896342 
L 16.667914 354.012145 
L 16.667914 358.127948 
L 16.667914 362.243751 
L 16.667914 366.359554 
L 16.667914 370.475357 
L 16.667914 374.59116 
L 16.667914 378.706963 
L 16.667914 382.822766 
L 16.667914 386.938569 
L 16.667914 391.054372 
L 16.667914 395.170175 
L 16.667914 399.285978 
L 16.667914 403.401781 
L 16.667914 407.517584 
L 16.667914 411.633387 
L 16.667914 415.74919 
L 16.667914 419.864994 
L 16.667914 423.980797 
L 16.667914 428.0966 
L 16.667914 432.212403 
L 16.667914 436.328206 
L 16.667914 440.444009 
L 16.667914 444.559812 
L 16.667914 448.675615 
z
M 45.971257 423.980797 
L 45.478536 423.269345 
L 44.01708 419.864994 
L 44.333976 415.74919 
L 45.478536 413.196457 
L 45.804148 411.633387 
L 47.447691 407.517584 
L 49.594339 404.77178 
L 50.303107 403.401781 
L 53.710142 399.503645 
L 53.865737 399.285978 
L 57.657582 395.170175 
L 57.825945 395.001299 
L 61.867285 391.054372 
L 61.941748 390.981439 
L 66.057551 387.18213 
L 66.416448 386.938569 
L 70.173354 383.67234 
L 71.74059 382.822766 
L 74.289157 380.792569 
L 78.40496 378.946784 
L 79.318557 378.706963 
L 82.520763 377.205149 
L 86.636566 377.046584 
L 88.831043 378.706963 
L 89.744569 382.822766 
L 88.985052 386.938569 
L 87.007601 391.054372 
L 86.636566 391.570208 
L 85.219209 395.170175 
L 82.520763 398.790885 
L 82.280962 399.285978 
L 79.765468 403.401781 
L 78.40496 404.954512 
L 76.664791 407.517584 
L 74.289157 410.090224 
L 72.954291 411.633387 
L 70.173354 414.452615 
L 68.705274 415.74919 
L 66.057551 418.240269 
L 63.571678 419.864994 
L 61.941748 421.28108 
L 57.825945 423.5719 
L 56.442174 423.980797 
L 53.710142 425.575289 
L 49.594339 426.012999 
z
" style="fill:#ffffff;"/>
   </g>
   <g id="PathCollection_17">
    <path clip-path="url(#pa9db4ab032)" d="M 49.594339 426.012999 
L 53.710142 425.575289 
L 56.442174 423.980797 
L 57.825945 423.5719 
L 61.941748 421.28108 
L 63.571678 419.864994 
L 66.057551 418.240269 
L 68.705274 415.74919 
L 70.173354 414.452615 
L 72.954291 411.633387 
L 74.289157 410.090224 
L 76.664791 407.517584 
L 78.40496 404.954512 
L 79.765468 403.401781 
L 82.280962 399.285978 
L 82.520763 398.790885 
L 85.219209 395.170175 
L 86.636566 391.570208 
L 87.007601 391.054372 
L 88.985052 386.938569 
L 89.744569 382.822766 
L 88.831043 378.706963 
L 86.636566 377.046584 
L 82.520763 377.205149 
L 79.318557 378.706963 
L 78.40496 378.946784 
L 74.289157 380.792569 
L 71.74059 382.822766 
L 70.173354 383.67234 
L 66.416448 386.938569 
L 66.057551 387.18213 
L 61.941748 390.981439 
L 61.867285 391.054372 
L 57.825945 395.001299 
L 57.657582 395.170175 
L 53.865737 399.285978 
L 53.710142 399.503645 
L 50.303107 403.401781 
L 49.594339 404.77178 
L 47.447691 407.517584 
L 45.804148 411.633387 
L 45.478536 413.196457 
L 44.333976 415.74919 
L 44.01708 419.864994 
L 45.478536 423.269345 
L 45.971257 423.980797 
z
M 47.467825 419.864994 
L 46.941623 415.74919 
L 47.88974 411.633387 
L 49.594339 408.734678 
L 50.025192 407.517584 
L 52.465837 403.401781 
L 53.710142 401.978118 
L 55.634568 399.285978 
L 57.825945 396.973762 
L 59.51181 395.170175 
L 61.941748 392.759805 
L 63.954763 391.054372 
L 66.057551 389.090141 
L 69.227974 386.938569 
L 70.173354 386.116662 
L 74.289157 383.569659 
L 76.355708 382.822766 
L 78.40496 381.65507 
L 82.520763 380.996702 
L 85.436658 382.822766 
L 85.948458 386.938569 
L 84.913356 391.054372 
L 82.714876 395.170175 
L 82.520763 395.430631 
L 80.653397 399.285978 
L 78.40496 402.131843 
L 77.641666 403.401781 
L 74.289157 407.321125 
L 74.139338 407.517584 
L 70.379446 411.633387 
L 70.173354 411.842317 
L 66.057551 415.632678 
L 65.894789 415.74919 
L 61.941748 419.058092 
L 60.265473 419.864994 
L 57.825945 421.618625 
L 53.710142 422.897926 
L 49.594339 422.272755 
z
" style="fill:#0000a8;"/>
   </g>
   <g id="PathCollection_18">
    <path clip-path="url(#pa9db4ab032)" d="M 49.594339 422.272755 
L 53.710142 422.897926 
L 57.825945 421.618625 
L 60.265473 419.864994 
L 61.941748 419.058092 
L 65.894789 415.74919 
L 66.057551 415.632678 
L 70.173354 411.842317 
L 70.379446 411.633387 
L 74.139338 407.517584 
L 74.289157 407.321125 
L 77.641666 403.401781 
L 78.40496 402.131843 
L 80.653397 399.285978 
L 82.520763 395.430631 
L 82.714876 395.170175 
L 84.913356 391.054372 
L 85.948458 386.938569 
L 85.436658 382.822766 
L 82.520763 380.996702 
L 78.40496 381.65507 
L 76.355708 382.822766 
L 74.289157 383.569659 
L 70.173354 386.116662 
L 69.227974 386.938569 
L 66.057551 389.090141 
L 63.954763 391.054372 
L 61.941748 392.759805 
L 59.51181 395.170175 
L 57.825945 396.973762 
L 55.634568 399.285978 
L 53.710142 401.978118 
L 52.465837 403.401781 
L 50.025192 407.517584 
L 49.594339 408.734678 
L 47.88974 411.633387 
L 46.941623 415.74919 
L 47.467825 419.864994 
z
M 50.788558 419.864994 
L 49.594339 418.101754 
L 48.905434 415.74919 
L 49.594339 413.042756 
L 49.795022 411.633387 
L 51.280692 407.517584 
L 53.710142 404.142474 
L 54.1219 403.401781 
L 57.403399 399.285978 
L 57.825945 398.840132 
L 61.25636 395.170175 
L 61.941748 394.490307 
L 65.997366 391.054372 
L 66.057551 390.998153 
L 70.173354 387.755902 
L 71.854573 386.938569 
L 74.289157 385.287457 
L 78.40496 383.95363 
L 82.520763 384.839939 
L 83.613831 386.938569 
L 83.038066 391.054372 
L 82.520763 392.00181 
L 81.385435 395.170175 
L 79.025833 399.285978 
L 78.40496 400.071821 
L 76.403492 403.401781 
L 74.289157 405.873603 
L 73.035464 407.517584 
L 70.173354 410.555492 
L 69.090058 411.633387 
L 66.057551 414.51408 
L 64.332168 415.74919 
L 61.941748 417.750096 
L 57.825945 419.754488 
L 57.261613 419.864994 
L 53.710142 421.052208 
z
" style="fill:#0000ff;"/>
   </g>
   <g id="PathCollection_19">
    <path clip-path="url(#pa9db4ab032)" d="M 53.710142 421.052208 
L 57.261613 419.864994 
L 57.825945 419.754488 
L 61.941748 417.750096 
L 64.332168 415.74919 
L 66.057551 414.51408 
L 69.090058 411.633387 
L 70.173354 410.555492 
L 73.035464 407.517584 
L 74.289157 405.873603 
L 76.403492 403.401781 
L 78.40496 400.071821 
L 79.025833 399.285978 
L 81.385435 395.170175 
L 82.520763 392.00181 
L 83.038066 391.054372 
L 83.613831 386.938569 
L 82.520763 384.839939 
L 78.40496 383.95363 
L 74.289157 385.287457 
L 71.854573 386.938569 
L 70.173354 387.755902 
L 66.057551 390.998153 
L 65.997366 391.054372 
L 61.941748 394.490307 
L 61.25636 395.170175 
L 57.825945 398.840132 
L 57.403399 399.285978 
L 54.1219 403.401781 
L 53.710142 404.142474 
L 51.280692 407.517584 
L 49.795022 411.633387 
L 49.594339 413.042756 
L 48.905434 415.74919 
L 49.594339 418.101754 
L 50.788558 419.864994 
z
M 50.60118 415.74919 
L 50.893583 411.633387 
L 52.536193 407.517584 
L 53.710142 405.886677 
L 55.09152 403.401781 
L 57.825945 400.160709 
L 58.540447 399.285978 
L 61.941748 395.760865 
L 62.614556 395.170175 
L 66.057551 392.034044 
L 67.565381 391.054372 
L 70.173354 388.987292 
L 74.289157 386.990857 
L 74.584885 386.938569 
L 78.40496 385.941637 
L 80.402457 386.938569 
L 81.384474 391.054372 
L 80.154713 395.170175 
L 78.40496 398.038225 
L 77.832246 399.285978 
L 75.165318 403.401781 
L 74.289157 404.426081 
L 71.93159 407.517584 
L 70.173354 409.383815 
L 67.91251 411.633387 
L 66.057551 413.395483 
L 62.769546 415.74919 
L 61.941748 416.442101 
L 57.825945 418.673315 
L 53.710142 419.243155 
z
" style="fill:#0044ff;"/>
   </g>
   <g id="PathCollection_20">
    <path clip-path="url(#pa9db4ab032)" d="M 53.710142 419.243155 
L 57.825945 418.673315 
L 61.941748 416.442101 
L 62.769546 415.74919 
L 66.057551 413.395483 
L 67.91251 411.633387 
L 70.173354 409.383815 
L 71.93159 407.517584 
L 74.289157 404.426081 
L 75.165318 403.401781 
L 77.832246 399.285978 
L 78.40496 398.038225 
L 80.154713 395.170175 
L 81.384474 391.054372 
L 80.402457 386.938569 
L 78.40496 385.941637 
L 74.584885 386.938569 
L 74.289157 386.990857 
L 70.173354 388.987292 
L 67.565381 391.054372 
L 66.057551 392.034044 
L 62.614556 395.170175 
L 61.941748 395.760865 
L 58.540447 399.285978 
L 57.825945 400.160709 
L 55.09152 403.401781 
L 53.710142 405.886677 
L 52.536193 407.517584 
L 50.893583 411.633387 
L 50.60118 415.74919 
z
M 52.152075 415.74919 
L 51.992144 411.633387 
L 53.710142 407.681717 
L 53.763712 407.517584 
L 56.061139 403.401781 
L 57.825945 401.309984 
L 59.479202 399.285978 
L 61.941748 396.733792 
L 63.722739 395.170175 
L 66.057551 393.043458 
L 69.118988 391.054372 
L 70.173354 390.218681 
L 74.289157 388.337765 
L 78.40496 388.406952 
L 79.815334 391.054372 
L 78.923991 395.170175 
L 78.40496 396.020927 
L 76.906313 399.285978 
L 74.289157 403.015949 
L 74.054759 403.401781 
L 70.827715 407.517584 
L 70.173354 408.212138 
L 66.734962 411.633387 
L 66.057551 412.276885 
L 61.941748 415.355782 
L 61.051815 415.74919 
L 57.825945 417.592142 
L 53.710142 417.500203 
z
" style="fill:#0090ff;"/>
   </g>
   <g id="PathCollection_21">
    <path clip-path="url(#pa9db4ab032)" d="M 53.710142 417.500203 
L 57.825945 417.592142 
L 61.051815 415.74919 
L 61.941748 415.355782 
L 66.057551 412.276885 
L 66.734962 411.633387 
L 70.173354 408.212138 
L 70.827715 407.517584 
L 74.054759 403.401781 
L 74.289157 403.015949 
L 76.906313 399.285978 
L 78.40496 396.020927 
L 78.923991 395.170175 
L 79.815334 391.054372 
L 78.40496 388.406952 
L 74.289157 388.337765 
L 70.173354 390.218681 
L 69.118988 391.054372 
L 66.057551 393.043458 
L 63.722739 395.170175 
L 61.941748 396.733792 
L 59.479202 399.285978 
L 57.825945 401.309984 
L 56.061139 403.401781 
L 53.763712 407.517584 
L 53.710142 407.681717 
L 51.992144 411.633387 
L 52.152075 415.74919 
z
M 53.702969 415.74919 
L 53.090705 411.633387 
L 53.710142 410.208583 
L 54.588428 407.517584 
L 57.030758 403.401781 
L 57.825945 402.459259 
L 60.417958 399.285978 
L 61.941748 397.70672 
L 64.830923 395.170175 
L 66.057551 394.052873 
L 70.173354 391.386055 
L 71.161637 391.054372 
L 74.289157 389.684672 
L 78.03251 391.054372 
L 77.708791 395.170175 
L 75.980381 399.285978 
L 74.289157 401.69631 
L 73.253061 403.401781 
L 70.173354 407.123107 
L 69.838209 407.517584 
L 66.057551 411.285048 
L 65.606335 411.633387 
L 61.941748 414.519187 
L 59.159349 415.74919 
L 57.825945 416.510969 
L 53.710142 415.757251 
z
" style="fill:#00e0fb;"/>
   </g>
   <g id="PathCollection_22">
    <path clip-path="url(#pa9db4ab032)" d="M 53.710142 415.757251 
L 57.825945 416.510969 
L 59.159349 415.74919 
L 61.941748 414.519187 
L 65.606335 411.633387 
L 66.057551 411.285048 
L 69.838209 407.517584 
L 70.173354 407.123107 
L 73.253061 403.401781 
L 74.289157 401.69631 
L 75.980381 399.285978 
L 77.708791 395.170175 
L 78.03251 391.054372 
L 74.289157 389.684672 
L 71.161637 391.054372 
L 70.173354 391.386055 
L 66.057551 394.052873 
L 64.830923 395.170175 
L 61.941748 397.70672 
L 60.417958 399.285978 
L 57.825945 402.459259 
L 57.030758 403.401781 
L 54.588428 407.517584 
L 53.710142 410.208583 
L 53.090705 411.633387 
L 53.702969 415.74919 
z
M 54.236514 411.633387 
L 55.413145 407.517584 
L 57.825945 403.640204 
L 57.972755 403.401781 
L 61.356713 399.285978 
L 61.941748 398.679647 
L 65.939106 395.170175 
L 66.057551 395.062287 
L 70.173354 392.418233 
L 74.237112 391.054372 
L 74.289157 391.031579 
L 74.35145 391.054372 
L 76.504912 395.170175 
L 75.054448 399.285978 
L 74.289157 400.37667 
L 72.451363 403.401781 
L 70.173354 406.154385 
L 69.015188 407.517584 
L 66.057551 410.464899 
L 64.543969 411.633387 
L 61.941748 413.682592 
L 57.825945 415.377311 
z
" style="fill:#3cffba;"/>
   </g>
   <g id="PathCollection_23">
    <path clip-path="url(#pa9db4ab032)" d="M 57.825945 415.377311 
L 61.941748 413.682592 
L 64.543969 411.633387 
L 66.057551 410.464899 
L 69.015188 407.517584 
L 70.173354 406.154385 
L 72.451363 403.401781 
L 74.289157 400.37667 
L 75.054448 399.285978 
L 76.504912 395.170175 
L 74.35145 391.054372 
L 74.289157 391.031579 
L 74.237112 391.054372 
L 70.173354 392.418233 
L 66.057551 395.062287 
L 65.939106 395.170175 
L 61.941748 398.679647 
L 61.356713 399.285978 
L 57.972755 403.401781 
L 57.825945 403.640204 
L 55.413145 407.517584 
L 54.236514 411.633387 
z
M 55.443408 411.633387 
L 56.237862 407.517584 
L 57.825945 404.965527 
L 58.78883 403.401781 
L 61.941748 399.651711 
L 62.329965 399.285978 
L 66.057551 395.98504 
L 67.493859 395.170175 
L 70.173354 393.450411 
L 74.289157 393.273156 
L 75.301033 395.170175 
L 74.289157 398.58178 
L 74.103484 399.285978 
L 71.649664 403.401781 
L 70.173354 405.185663 
L 68.192167 407.517584 
L 66.057551 409.644751 
L 63.481604 411.633387 
L 61.941748 412.845997 
L 57.825945 414.118471 
z
" style="fill:#7dff7a;"/>
   </g>
   <g id="PathCollection_24">
    <path clip-path="url(#pa9db4ab032)" d="M 57.825945 414.118471 
L 61.941748 412.845997 
L 63.481604 411.633387 
L 66.057551 409.644751 
L 68.192167 407.517584 
L 70.173354 405.185663 
L 71.649664 403.401781 
L 74.103484 399.285978 
L 74.289157 398.58178 
L 75.301033 395.170175 
L 74.289157 393.273156 
L 70.173354 393.450411 
L 67.493859 395.170175 
L 66.057551 395.98504 
L 62.329965 399.285978 
L 61.941748 399.651711 
L 58.78883 403.401781 
L 57.825945 404.965527 
L 56.237862 407.517584 
L 55.443408 411.633387 
z
M 56.650302 411.633387 
L 57.062578 407.517584 
L 57.825945 406.290851 
L 59.604905 403.401781 
L 61.941748 400.622348 
L 63.360274 399.285978 
L 66.057551 396.897423 
L 69.102054 395.170175 
L 70.173354 394.482589 
L 73.494115 395.170175 
L 73.033272 399.285978 
L 70.847966 403.401781 
L 70.173354 404.21694 
L 67.369147 407.517584 
L 66.057551 408.824602 
L 62.419238 411.633387 
L 61.941748 412.009403 
L 57.825945 412.859631 
z
" style="fill:#baff3c;"/>
   </g>
   <g id="PathCollection_25">
    <path clip-path="url(#pa9db4ab032)" d="M 57.825945 412.859631 
L 61.941748 412.009403 
L 62.419238 411.633387 
L 66.057551 408.824602 
L 67.369147 407.517584 
L 70.173354 404.21694 
L 70.847966 403.401781 
L 73.033272 399.285978 
L 73.494115 395.170175 
L 70.173354 394.482589 
L 69.102054 395.170175 
L 66.057551 396.897423 
L 63.360274 399.285978 
L 61.941748 400.622348 
L 59.604905 403.401781 
L 57.825945 406.290851 
L 57.062578 407.517584 
L 56.650302 411.633387 
z
M 57.930462 407.517584 
L 60.42098 403.401781 
L 61.941748 401.592985 
L 64.390582 399.285978 
L 66.057551 397.809805 
L 70.173354 395.855102 
L 71.963059 399.285978 
L 70.173354 403.045413 
L 69.988061 403.401781 
L 66.546126 407.517584 
L 66.057551 408.004454 
L 61.941748 410.968025 
z
" style="fill:#fbf100;"/>
   </g>
   <g id="PathCollection_26">
    <path clip-path="url(#pa9db4ab032)" d="M 61.941748 410.968025 
L 66.057551 408.004454 
L 66.546126 407.517584 
L 69.988061 403.401781 
L 70.173354 403.045413 
L 71.963059 399.285978 
L 70.173354 395.855102 
L 66.057551 397.809805 
L 64.390582 399.285978 
L 61.941748 401.592985 
L 60.42098 403.401781 
L 57.930462 407.517584 
z
M 59.335467 407.517584 
L 61.237055 403.401781 
L 61.941748 402.563622 
L 65.42089 399.285978 
L 66.057551 398.722187 
L 70.173354 397.906705 
L 70.892847 399.285978 
L 70.173354 400.797338 
L 68.819178 403.401781 
L 66.057551 406.913567 
L 65.317947 407.517584 
L 61.941748 409.759464 
z
" style="fill:#ffa700;"/>
   </g>
   <g id="PathCollection_27">
    <path clip-path="url(#pa9db4ab032)" d="M 61.941748 409.759464 
L 65.317947 407.517584 
L 66.057551 406.913567 
L 68.819178 403.401781 
L 70.173354 400.797338 
L 70.892847 399.285978 
L 70.173354 397.906705 
L 66.057551 398.722187 
L 65.42089 399.285978 
L 61.941748 402.563622 
L 61.237055 403.401781 
L 59.335467 407.517584 
z
M 60.740472 407.517584 
L 61.941748 403.968353 
L 62.316469 403.401781 
L 66.057551 400.187294 
L 67.650294 403.401781 
L 66.057551 405.427172 
L 63.497892 407.517584 
L 61.941748 408.550902 
z
" style="fill:#ff6000;"/>
   </g>
   <g id="PathCollection_28">
    <path clip-path="url(#pa9db4ab032)" d="M 61.941748 408.550902 
L 63.497892 407.517584 
L 66.057551 405.427172 
L 67.650294 403.401781 
L 66.057551 400.187294 
L 62.316469 403.401781 
L 61.941748 403.968353 
L 60.740472 407.517584 
z
M 65.061977 403.401781 
L 66.057551 402.546344 
L 66.481411 403.401781 
L 66.057551 403.940777 
z
" style="fill:#ff1600;"/>
   </g>
   <g id="PathCollection_29">
    <path clip-path="url(#pa9db4ab032)" d="M 66.057551 403.940777 
L 66.481411 403.401781 
L 66.057551 402.546344 
L 65.061977 403.401781 
z
" style="fill:#a80000;"/>
   </g>
   <g id="patch_18">
    <path d="M 10.7 454.22 
L 10.7 323.772941 
" style="fill:none;stroke:#000000;stroke-linecap:square;stroke-linejoin:miter;stroke-width:0.5;"/>
   </g>
   <g id="patch_19">
    <path d="M 141.994118 454.22 
L 141.994118 323.772941 
" style="fill:none;stroke:#000000;stroke-linecap:square;stroke-linejoin:miter;stroke-width:0.5;"/>
   </g>
   <g id="patch_20">
    <path d="M 10.7 454.22 
L 141.994118 454.22 
" style="fill:none;stroke:#000000;stroke-linecap:square;stroke-linejoin:miter;stroke-width:0.5;"/>
   </g>
   <g id="patch_21">
    <path d="M 10.7 323.772941 
L 141.994118 323.772941 
" style="fill:none;stroke:#000000;stroke-linecap:square;stroke-linejoin:miter;stroke-width:0.5;"/>
   </g>
  </g>
  <g id="axes_5">
   <g id="patch_22">
    <path d="M 168.252941 454.22 
L 299.547059 454.22 
L 299.547059 323.772941 
L 168.252941 323.772941 
z
" style="fill:#ffffff;"/>
   </g>
   <g id="PathCollection_30">
    <path clip-path="url(#p0e5d3e1a80)" d="M 178.336659 448.675615 
L 182.452462 448.675615 
L 186.568265 448.675615 
L 190.684068 448.675615 
L 194.799871 448.675615 
L 198.915674 448.675615 
L 203.031477 448.675615 
L 207.14728 448.675615 
L 211.263083 448.675615 
L 215.378886 448.675615 
L 219.494689 448.675615 
L 223.610492 448.675615 
L 227.726295 448.675615 
L 231.842098 448.675615 
L 235.957902 448.675615 
L 240.073705 448.675615 
L 244.189508 448.675615 
L 248.305311 448.675615 
L 252.421114 448.675615 
L 256.536917 448.675615 
L 260.65272 448.675615 
L 264.768523 448.675615 
L 268.884326 448.675615 
L 273.000129 448.675615 
L 277.115932 448.675615 
L 281.231735 448.675615 
L 285.347538 448.675615 
L 289.463341 448.675615 
L 293.579144 448.675615 
L 293.579144 444.559812 
L 293.579144 440.444009 
L 293.579144 436.328206 
L 293.579144 432.212403 
L 293.579144 428.0966 
L 293.579144 423.980797 
L 293.579144 419.864994 
L 293.579144 415.74919 
L 293.579144 411.633387 
L 293.579144 407.517584 
L 293.579144 403.401781 
L 293.579144 399.285978 
L 293.579144 395.170175 
L 293.579144 391.054372 
L 293.579144 386.938569 
L 293.579144 382.822766 
L 293.579144 378.706963 
L 293.579144 374.59116 
L 293.579144 370.475357 
L 293.579144 366.359554 
L 293.579144 362.243751 
L 293.579144 358.127948 
L 293.579144 354.012145 
L 293.579144 349.896342 
L 293.579144 345.780538 
L 293.579144 341.664735 
L 293.579144 337.548932 
L 293.579144 333.433129 
L 293.579144 329.317326 
L 289.463341 329.317326 
L 285.347538 329.317326 
L 281.231735 329.317326 
L 277.115932 329.317326 
L 273.000129 329.317326 
L 268.884326 329.317326 
L 264.768523 329.317326 
L 260.65272 329.317326 
L 256.536917 329.317326 
L 252.421114 329.317326 
L 248.305311 329.317326 
L 244.189508 329.317326 
L 240.073705 329.317326 
L 235.957902 329.317326 
L 231.842098 329.317326 
L 227.726295 329.317326 
L 223.610492 329.317326 
L 219.494689 329.317326 
L 215.378886 329.317326 
L 211.263083 329.317326 
L 207.14728 329.317326 
L 203.031477 329.317326 
L 198.915674 329.317326 
L 194.799871 329.317326 
L 190.684068 329.317326 
L 186.568265 329.317326 
L 182.452462 329.317326 
L 178.336659 329.317326 
L 174.220856 329.317326 
L 174.220856 333.433129 
L 174.220856 337.548932 
L 174.220856 341.664735 
L 174.220856 345.780538 
L 174.220856 349.896342 
L 174.220856 354.012145 
L 174.220856 358.127948 
L 174.220856 362.243751 
L 174.220856 366.359554 
L 174.220856 370.475357 
L 174.220856 374.59116 
L 174.220856 378.706963 
L 174.220856 382.822766 
L 174.220856 386.938569 
L 174.220856 391.054372 
L 174.220856 395.170175 
L 174.220856 399.285978 
L 174.220856 403.401781 
L 174.220856 407.517584 
L 174.220856 411.633387 
L 174.220856 415.74919 
L 174.220856 419.864994 
L 174.220856 423.980797 
L 174.220856 428.0966 
L 174.220856 432.212403 
L 174.220856 436.328206 
L 174.220856 440.444009 
L 174.220856 444.559812 
L 174.220856 448.675615 
z
M 242.760978 415.74919 
L 240.073705 414.532001 
L 236.748156 411.633387 
L 235.957902 411.174913 
L 231.890571 407.517584 
L 231.842098 407.488371 
L 227.726295 404.855326 
L 226.061404 403.401781 
L 223.610492 402.2567 
L 219.542933 399.285978 
L 219.494689 399.26553 
L 215.378886 398.052937 
L 211.263083 395.919347 
L 210.03791 395.170175 
L 207.14728 393.042576 
L 205.040838 391.054372 
L 205.39009 386.938569 
L 207.14728 385.326279 
L 211.263083 383.049471 
L 212.023638 382.822766 
L 215.378886 381.442915 
L 219.494689 380.436986 
L 223.610492 379.73469 
L 227.726295 379.11945 
L 230.555548 378.706963 
L 231.842098 378.14926 
L 235.957902 377.066625 
L 240.073705 376.992916 
L 244.189508 378.469328 
L 244.523704 378.706963 
L 248.305311 381.003213 
L 250.091607 382.822766 
L 252.421114 385.559393 
L 253.548707 386.938569 
L 256.201895 391.054372 
L 256.536917 391.69187 
L 258.896706 395.170175 
L 260.650811 399.285978 
L 260.65272 399.29191 
L 262.696678 403.401781 
L 263.693574 407.517584 
L 263.4921 411.633387 
L 260.65272 415.052507 
L 259.566074 415.74919 
L 256.536917 417.192577 
L 252.421114 418.172575 
L 248.305311 418.143053 
L 244.189508 416.807652 
z
" style="fill:#ffffff;"/>
   </g>
   <g id="PathCollection_31">
    <path clip-path="url(#p0e5d3e1a80)" d="M 244.189508 416.807652 
L 248.305311 418.143053 
L 252.421114 418.172575 
L 256.536917 417.192577 
L 259.566074 415.74919 
L 260.65272 415.052507 
L 263.4921 411.633387 
L 263.693574 407.517584 
L 262.696678 403.401781 
L 260.65272 399.29191 
L 260.650811 399.285978 
L 258.896706 395.170175 
L 256.536917 391.69187 
L 256.201895 391.054372 
L 253.548707 386.938569 
L 252.421114 385.559393 
L 250.091607 382.822766 
L 248.305311 381.003213 
L 244.523704 378.706963 
L 244.189508 378.469328 
L 240.073705 376.992916 
L 235.957902 377.066625 
L 231.842098 378.14926 
L 230.555548 378.706963 
L 227.726295 379.11945 
L 223.610492 379.73469 
L 219.494689 380.436986 
L 215.378886 381.442915 
L 212.023638 382.822766 
L 211.263083 383.049471 
L 207.14728 385.326279 
L 205.39009 386.938569 
L 205.040838 391.054372 
L 207.14728 393.042576 
L 210.03791 395.170175 
L 211.263083 395.919347 
L 215.378886 398.052937 
L 219.494689 399.26553 
L 219.542933 399.285978 
L 223.610492 402.2567 
L 226.061404 403.401781 
L 227.726295 404.855326 
L 231.842098 407.488371 
L 231.890571 407.517584 
L 235.957902 411.174913 
L 236.748156 411.633387 
L 240.073705 414.532001 
L 242.760978 415.74919 
z
M 240.364907 411.633387 
L 240.073705 411.530368 
L 235.957902 409.106578 
L 234.190776 407.517584 
L 231.842098 406.102111 
L 228.633646 403.401781 
L 227.726295 402.903095 
L 223.610492 400.524792 
L 221.914289 399.285978 
L 219.494689 398.260436 
L 215.378886 396.172815 
L 213.743031 395.170175 
L 211.263083 393.358278 
L 208.628058 391.054372 
L 209.246646 386.938569 
L 211.263083 385.405561 
L 215.378886 383.587154 
L 219.213562 382.822766 
L 219.494689 382.72618 
L 223.610492 381.494071 
L 227.726295 380.607095 
L 231.842098 379.952429 
L 235.957902 379.608598 
L 240.073705 379.899598 
L 244.189508 381.515135 
L 245.87645 382.822766 
L 248.305311 384.76696 
L 250.298381 386.938569 
L 252.421114 389.871396 
L 253.31345 391.054372 
L 255.746797 395.170175 
L 256.536917 397.086649 
L 257.756441 399.285978 
L 259.098498 403.401781 
L 259.355313 407.517584 
L 257.142934 411.633387 
L 256.536917 412.112847 
L 252.421114 414.099397 
L 248.305311 414.55233 
L 244.189508 413.802865 
z
" style="fill:#0000a8;"/>
   </g>
   <g id="PathCollection_32">
    <path clip-path="url(#p0e5d3e1a80)" d="M 244.189508 413.802865 
L 248.305311 414.55233 
L 252.421114 414.099397 
L 256.536917 412.112847 
L 257.142934 411.633387 
L 259.355313 407.517584 
L 259.098498 403.401781 
L 257.756441 399.285978 
L 256.536917 397.086649 
L 255.746797 395.170175 
L 253.31345 391.054372 
L 252.421114 389.871396 
L 250.298381 386.938569 
L 248.305311 384.76696 
L 245.87645 382.822766 
L 244.189508 381.515135 
L 240.073705 379.899598 
L 235.957902 379.608598 
L 231.842098 379.952429 
L 227.726295 380.607095 
L 223.610492 381.494071 
L 219.494689 382.72618 
L 219.213562 382.822766 
L 215.378886 383.587154 
L 211.263083 385.405561 
L 209.246646 386.938569 
L 208.628058 391.054372 
L 211.263083 393.358278 
L 213.743031 395.170175 
L 215.378886 396.172815 
L 219.494689 398.260436 
L 221.914289 399.285978 
L 223.610492 400.524792 
L 227.726295 402.903095 
L 228.633646 403.401781 
L 231.842098 406.102111 
L 234.190776 407.517584 
L 235.957902 409.106578 
L 240.073705 411.530368 
L 240.364907 411.633387 
z
M 246.263073 411.633387 
L 244.189508 411.441775 
L 240.073705 409.99727 
L 236.473722 407.517584 
L 235.957902 407.281338 
L 231.842098 404.71585 
L 230.28076 403.401781 
L 227.726295 401.997828 
L 223.967716 399.285978 
L 223.610492 399.094653 
L 219.494689 397.255342 
L 216.134759 395.170175 
L 215.378886 394.557473 
L 211.263083 391.117097 
L 211.191344 391.054372 
L 211.263083 390.749095 
L 212.030883 386.938569 
L 215.378886 384.915335 
L 219.494689 383.691195 
L 223.610492 383.004771 
L 224.982811 382.822766 
L 227.726295 382.094739 
L 231.842098 381.377587 
L 235.957902 381.182433 
L 240.073705 381.898731 
L 241.947871 382.822766 
L 244.189508 383.859186 
L 247.704295 386.938569 
L 248.305311 387.592618 
L 251.115015 391.054372 
L 252.421114 393.354741 
L 253.594787 395.170175 
L 255.387793 399.285978 
L 256.296678 403.401781 
L 255.778612 407.517584 
L 252.421114 410.798984 
L 249.592384 411.633387 
L 248.305311 411.936022 
z
" style="fill:#0000fa;"/>
   </g>
   <g id="PathCollection_33">
    <path clip-path="url(#p0e5d3e1a80)" d="M 248.305311 411.936022 
L 249.592384 411.633387 
L 252.421114 410.798984 
L 255.778612 407.517584 
L 256.296678 403.401781 
L 255.387793 399.285978 
L 253.594787 395.170175 
L 252.421114 393.354741 
L 251.115015 391.054372 
L 248.305311 387.592618 
L 247.704295 386.938569 
L 244.189508 383.859186 
L 241.947871 382.822766 
L 240.073705 381.898731 
L 235.957902 381.182433 
L 231.842098 381.377587 
L 227.726295 382.094739 
L 224.982811 382.822766 
L 223.610492 383.004771 
L 219.494689 383.691195 
L 215.378886 384.915335 
L 212.030883 386.938569 
L 211.263083 390.749095 
L 211.191344 391.054372 
L 211.263083 391.117097 
L 215.378886 394.557473 
L 216.134759 395.170175 
L 219.494689 397.255342 
L 223.610492 399.094653 
L 223.967716 399.285978 
L 227.726295 401.997828 
L 230.28076 403.401781 
L 231.842098 404.71585 
L 235.957902 407.281338 
L 236.473722 407.517584 
L 240.073705 409.99727 
L 244.189508 411.441775 
L 246.263073 411.633387 
z
M 238.699458 407.517584 
L 235.957902 406.261951 
L 231.917098 403.401781 
L 231.842098 403.364095 
L 227.726295 401.092561 
L 225.222401 399.285978 
L 223.610492 398.422656 
L 219.494689 396.250248 
L 217.754316 395.170175 
L 215.378886 393.244678 
L 212.778213 391.054372 
L 214.228728 386.938569 
L 215.378886 386.243516 
L 219.494689 384.597879 
L 223.610492 383.748275 
L 227.726295 383.188661 
L 231.731901 382.822766 
L 231.842098 382.802746 
L 235.957902 382.756267 
L 236.257719 382.822766 
L 240.073705 383.520075 
L 244.189508 385.733886 
L 245.564525 386.938569 
L 248.305311 389.9212 
L 249.225041 391.054372 
L 251.700384 395.170175 
L 252.421114 397.142822 
L 253.401945 399.285978 
L 254.007414 403.401781 
L 252.421114 407.516224 
L 252.420202 407.517584 
L 248.305311 409.736595 
L 244.189508 409.810291 
L 240.073705 408.464173 
z
" style="fill:#0034ff;"/>
   </g>
   <g id="PathCollection_34">
    <path clip-path="url(#p0e5d3e1a80)" d="M 240.073705 408.464173 
L 244.189508 409.810291 
L 248.305311 409.736595 
L 252.420202 407.517584 
L 252.421114 407.516224 
L 254.007414 403.401781 
L 253.401945 399.285978 
L 252.421114 397.142822 
L 251.700384 395.170175 
L 249.225041 391.054372 
L 248.305311 389.9212 
L 245.564525 386.938569 
L 244.189508 385.733886 
L 240.073705 383.520075 
L 236.257719 382.822766 
L 235.957902 382.756267 
L 231.842098 382.802746 
L 231.731901 382.822766 
L 227.726295 383.188661 
L 223.610492 383.748275 
L 219.494689 384.597879 
L 215.378886 386.243516 
L 214.228728 386.938569 
L 212.778213 391.054372 
L 215.378886 393.244678 
L 217.754316 395.170175 
L 219.494689 396.250248 
L 223.610492 398.422656 
L 225.222401 399.285978 
L 227.726295 401.092561 
L 231.842098 403.364095 
L 231.917098 403.401781 
L 235.957902 406.261951 
L 238.699458 407.517584 
z
M 242.07225 407.517584 
L 240.073705 407.089977 
L 235.957902 405.242563 
L 233.357273 403.401781 
L 231.842098 402.640426 
L 227.726295 400.187294 
L 226.477086 399.285978 
L 223.610492 397.75066 
L 219.494689 395.245153 
L 219.373873 395.170175 
L 215.378886 391.931883 
L 214.336969 391.054372 
L 215.378886 388.65189 
L 216.332086 386.938569 
L 219.494689 385.504563 
L 223.610492 384.491779 
L 227.726295 383.905236 
L 231.842098 383.602004 
L 235.957902 383.752218 
L 240.073705 384.816712 
L 243.451739 386.938569 
L 244.189508 387.517539 
L 247.521785 391.054372 
L 248.305311 392.331146 
L 250.115023 395.170175 
L 251.584992 399.285978 
L 251.745021 403.401781 
L 248.442746 407.517584 
L 248.305311 407.591698 
L 244.189508 408.178807 
z
" style="fill:#0080ff;"/>
   </g>
   <g id="PathCollection_35">
    <path clip-path="url(#p0e5d3e1a80)" d="M 244.189508 408.178807 
L 248.305311 407.591698 
L 248.442746 407.517584 
L 251.745021 403.401781 
L 251.584992 399.285978 
L 250.115023 395.170175 
L 248.305311 392.331146 
L 247.521785 391.054372 
L 244.189508 387.517539 
L 243.451739 386.938569 
L 240.073705 384.816712 
L 235.957902 383.752218 
L 231.842098 383.602004 
L 227.726295 383.905236 
L 223.610492 384.491779 
L 219.494689 385.504563 
L 216.332086 386.938569 
L 215.378886 388.65189 
L 214.336969 391.054372 
L 215.378886 391.931883 
L 219.373873 395.170175 
L 219.494689 395.245153 
L 223.610492 397.75066 
L 226.477086 399.285978 
L 227.726295 400.187294 
L 231.842098 402.640426 
L 233.357273 403.401781 
L 235.957902 405.242563 
L 240.073705 407.089977 
L 242.07225 407.517584 
z
M 234.797449 403.401781 
L 231.842098 401.916757 
L 227.731231 399.285978 
L 227.726295 399.283246 
L 223.610492 397.078663 
L 220.5062 395.170175 
L 219.494689 394.22567 
L 215.775742 391.054372 
L 218.331716 386.938569 
L 219.494689 386.411247 
L 223.610492 385.235282 
L 227.726295 384.62181 
L 231.842098 384.392345 
L 235.957902 384.722675 
L 240.073705 386.11335 
L 241.387468 386.938569 
L 244.189508 389.137489 
L 245.995526 391.054372 
L 248.305311 394.81822 
L 248.529661 395.170175 
L 249.932869 399.285978 
L 249.543264 403.401781 
L 248.305311 404.916564 
L 244.189508 406.577661 
L 240.073705 405.972239 
L 235.957902 404.223175 
z
" style="fill:#00c8ff;"/>
   </g>
   <g id="PathCollection_36">
    <path clip-path="url(#p0e5d3e1a80)" d="M 235.957902 404.223175 
L 240.073705 405.972239 
L 244.189508 406.577661 
L 248.305311 404.916564 
L 249.543264 403.401781 
L 249.932869 399.285978 
L 248.529661 395.170175 
L 248.305311 394.81822 
L 245.995526 391.054372 
L 244.189508 389.137489 
L 241.387468 386.938569 
L 240.073705 386.11335 
L 235.957902 384.722675 
L 231.842098 384.392345 
L 227.726295 384.62181 
L 223.610492 385.235282 
L 219.494689 386.411247 
L 218.331716 386.938569 
L 215.775742 391.054372 
L 219.494689 394.22567 
L 220.5062 395.170175 
L 223.610492 397.078663 
L 227.726295 399.283246 
L 227.731231 399.285978 
L 231.842098 401.916757 
L 234.797449 403.401781 
z
M 236.493005 403.401781 
L 235.957902 403.236042 
L 231.842098 401.193089 
L 228.862039 399.285978 
L 227.726295 398.657157 
L 223.610492 396.406666 
L 221.599251 395.170175 
L 219.494689 393.205027 
L 216.972639 391.054372 
L 219.494689 387.620427 
L 220.502165 386.938569 
L 223.610492 385.978786 
L 227.726295 385.338384 
L 231.842098 385.182685 
L 235.957902 385.693132 
L 239.16511 386.938569 
L 240.073705 387.379474 
L 244.189508 390.75744 
L 244.469267 391.054372 
L 247.120154 395.170175 
L 248.280895 399.285978 
L 247.060374 403.401781 
L 244.189508 404.997189 
L 240.073705 404.854502 
z
" style="fill:#23ffd4;"/>
   </g>
   <g id="PathCollection_37">
    <path clip-path="url(#p0e5d3e1a80)" d="M 240.073705 404.854502 
L 244.189508 404.997189 
L 247.060374 403.401781 
L 248.280895 399.285978 
L 247.120154 395.170175 
L 244.469267 391.054372 
L 244.189508 390.75744 
L 240.073705 387.379474 
L 239.16511 386.938569 
L 235.957902 385.693132 
L 231.842098 385.182685 
L 227.726295 385.338384 
L 223.610492 385.978786 
L 220.502165 386.938569 
L 219.494689 387.620427 
L 216.972639 391.054372 
L 219.494689 393.205027 
L 221.599251 395.170175 
L 223.610492 396.406666 
L 227.726295 398.657157 
L 228.862039 399.285978 
L 231.842098 401.193089 
L 235.957902 403.236042 
L 236.493005 403.401781 
z
M 239.248032 403.401781 
L 235.957902 402.382718 
L 231.842098 400.46942 
L 229.992847 399.285978 
L 227.726295 398.031067 
L 223.610492 395.73467 
L 222.692302 395.170175 
L 219.494689 392.184384 
L 218.169536 391.054372 
L 219.494689 389.250085 
L 222.910056 386.938569 
L 223.610492 386.72229 
L 227.726295 386.054959 
L 231.842098 385.973026 
L 235.957902 386.663589 
L 236.666021 386.938569 
L 240.073705 388.592185 
L 243.008839 391.054372 
L 244.189508 392.787437 
L 245.739636 395.170175 
L 246.638802 399.285978 
L 244.216384 403.401781 
L 244.189508 403.416717 
L 240.073705 403.736764 
z
" style="fill:#5dff9a;"/>
   </g>
   <g id="PathCollection_38">
    <path clip-path="url(#p0e5d3e1a80)" d="M 240.073705 403.736764 
L 244.189508 403.416717 
L 244.216384 403.401781 
L 246.638802 399.285978 
L 245.739636 395.170175 
L 244.189508 392.787437 
L 243.008839 391.054372 
L 240.073705 388.592185 
L 236.666021 386.938569 
L 235.957902 386.663589 
L 231.842098 385.973026 
L 227.726295 386.054959 
L 223.610492 386.72229 
L 222.910056 386.938569 
L 219.494689 389.250085 
L 218.169536 391.054372 
L 219.494689 392.184384 
L 222.692302 395.170175 
L 223.610492 395.73467 
L 227.726295 398.031067 
L 229.992847 399.285978 
L 231.842098 400.46942 
L 235.957902 402.382718 
L 239.248032 403.401781 
z
M 231.123656 399.285978 
L 227.726295 397.404978 
L 223.78704 395.170175 
L 223.610492 394.982252 
L 219.494689 391.163741 
L 219.366434 391.054372 
L 219.494689 390.879743 
L 223.610492 387.658698 
L 226.708043 386.938569 
L 227.726295 386.771533 
L 231.842098 386.763367 
L 232.814455 386.938569 
L 235.957902 387.630001 
L 240.073705 389.804896 
L 241.563185 391.054372 
L 244.189508 394.909464 
L 244.359117 395.170175 
L 244.996709 399.285978 
L 244.189508 400.651051 
L 240.073705 402.456384 
L 235.957902 401.529394 
L 231.842098 399.745751 
z
" style="fill:#9aff5d;"/>
   </g>
   <g id="PathCollection_39">
    <path clip-path="url(#p0e5d3e1a80)" d="M 231.842098 399.745751 
L 235.957902 401.529394 
L 240.073705 402.456384 
L 244.189508 400.651051 
L 244.996709 399.285978 
L 244.359117 395.170175 
L 244.189508 394.909464 
L 241.563185 391.054372 
L 240.073705 389.804896 
L 235.957902 387.630001 
L 232.814455 386.938569 
L 231.842098 386.763367 
L 227.726295 386.771533 
L 226.708043 386.938569 
L 223.610492 387.658698 
L 219.494689 390.879743 
L 219.366434 391.054372 
L 219.494689 391.163741 
L 223.610492 394.982252 
L 223.78704 395.170175 
L 227.726295 397.404978 
L 231.123656 399.285978 
z
M 232.594915 399.285978 
L 231.842098 398.978783 
L 227.726295 396.778889 
L 224.890638 395.170175 
L 223.610492 393.807545 
L 220.630085 391.054372 
L 223.610492 388.674239 
L 227.726295 387.576197 
L 231.842098 387.589341 
L 235.957902 388.594813 
L 240.073705 391.017607 
L 240.117532 391.054372 
L 242.94403 395.170175 
L 243.06258 399.285978 
L 240.073705 401.106402 
L 235.957902 400.67607 
z
" style="fill:#d4ff23;"/>
   </g>
   <g id="PathCollection_40">
    <path clip-path="url(#p0e5d3e1a80)" d="M 235.957902 400.67607 
L 240.073705 401.106402 
L 243.06258 399.285978 
L 242.94403 395.170175 
L 240.117532 391.054372 
L 240.073705 391.017607 
L 235.957902 388.594813 
L 231.842098 387.589341 
L 227.726295 387.576197 
L 223.610492 388.674239 
L 220.630085 391.054372 
L 223.610492 393.807545 
L 224.890638 395.170175 
L 227.726295 396.778889 
L 231.842098 398.978783 
L 232.594915 399.285978 
z
M 234.659324 399.285978 
L 231.842098 398.136377 
L 227.726295 396.1528 
L 225.994236 395.170175 
L 223.610492 392.632837 
L 221.901748 391.054372 
L 223.610492 389.68978 
L 227.726295 388.407636 
L 231.842098 388.425464 
L 235.957902 389.559626 
L 238.489301 391.054372 
L 240.073705 393.058765 
L 241.5241 395.170175 
L 240.846101 399.285978 
L 240.073705 399.756419 
L 235.957902 399.822746 
z
" style="fill:#ffdb00;"/>
   </g>
   <g id="PathCollection_41">
    <path clip-path="url(#p0e5d3e1a80)" d="M 235.957902 399.822746 
L 240.073705 399.756419 
L 240.846101 399.285978 
L 241.5241 395.170175 
L 240.073705 393.058765 
L 238.489301 391.054372 
L 235.957902 389.559626 
L 231.842098 388.425464 
L 227.726295 388.407636 
L 223.610492 389.68978 
L 221.901748 391.054372 
L 223.610492 392.632837 
L 225.994236 395.170175 
L 227.726295 396.1528 
L 231.842098 398.136377 
L 234.659324 399.285978 
z
M 227.097835 395.170175 
L 223.610492 391.458129 
L 223.173411 391.054372 
L 223.610492 390.705322 
L 227.726295 389.239075 
L 231.842098 389.261587 
L 235.957902 390.524438 
L 236.855361 391.054372 
L 240.073705 395.125825 
L 240.10417 395.170175 
L 240.073705 395.301396 
L 235.957902 398.674688 
L 231.842098 397.29397 
L 227.726295 395.526711 
z
" style="fill:#ff9400;"/>
   </g>
   <g id="PathCollection_42">
    <path clip-path="url(#p0e5d3e1a80)" d="M 227.726295 395.526711 
L 231.842098 397.29397 
L 235.957902 398.674688 
L 240.073705 395.301396 
L 240.10417 395.170175 
L 240.073705 395.125825 
L 236.855361 391.054372 
L 235.957902 390.524438 
L 231.842098 389.261587 
L 227.726295 389.239075 
L 223.610492 390.705322 
L 223.173411 391.054372 
L 223.610492 391.458129 
L 227.097835 395.170175 
z
M 228.634248 395.170175 
L 227.726295 394.072184 
L 225.078827 391.054372 
L 227.726295 390.070514 
L 231.842098 390.09771 
L 234.794726 391.054372 
L 235.957902 392.230384 
L 238.160678 395.170175 
L 235.957902 397.026867 
L 231.842098 396.451564 
z
" style="fill:#ff5200;"/>
   </g>
   <g id="PathCollection_43">
    <path clip-path="url(#p0e5d3e1a80)" d="M 231.842098 396.451564 
L 235.957902 397.026867 
L 238.160678 395.170175 
L 235.957902 392.230384 
L 234.794726 391.054372 
L 231.842098 390.09771 
L 227.726295 390.070514 
L 225.078827 391.054372 
L 227.726295 394.072184 
L 228.634248 395.170175 
z
M 230.743142 395.170175 
L 227.726295 391.521892 
L 227.31615 391.054372 
L 227.726295 390.901953 
L 231.842098 390.933833 
L 232.214129 391.054372 
L 235.957902 394.839459 
L 236.205706 395.170175 
L 235.957902 395.379046 
L 231.842098 395.609158 
z
" style="fill:#fa0f00;"/>
   </g>
   <g id="PathCollection_44">
    <path clip-path="url(#p0e5d3e1a80)" d="M 231.842098 395.609158 
L 235.957902 395.379046 
L 236.205706 395.170175 
L 235.957902 394.839459 
L 232.214129 391.054372 
L 231.842098 390.933833 
L 227.726295 390.901953 
L 227.31615 391.054372 
L 227.726295 391.521892 
L 230.743142 395.170175 
z
" style="fill:#a80000;"/>
   </g>
   <g id="patch_23">
    <path d="M 168.252941 454.22 
L 168.252941 323.772941 
" style="fill:none;stroke:#000000;stroke-linecap:square;stroke-linejoin:miter;stroke-width:0.5;"/>
   </g>
   <g id="patch_24">
    <path d="M 299.547059 454.22 
L 299.547059 323.772941 
" style="fill:none;stroke:#000000;stroke-linecap:square;stroke-linejoin:miter;stroke-width:0.5;"/>
   </g>
   <g id="patch_25">
    <path d="M 168.252941 454.22 
L 299.547059 454.22 
" style="fill:none;stroke:#000000;stroke-linecap:square;stroke-linejoin:miter;stroke-width:0.5;"/>
   </g>
   <g id="patch_26">
    <path d="M 168.252941 323.772941 
L 299.547059 323.772941 
" style="fill:none;stroke:#000000;stroke-linecap:square;stroke-linejoin:miter;stroke-width:0.5;"/>
   </g>
  </g>
  <g id="axes_6">
   <g id="patch_27">
    <path d="M 325.805882 454.22 
L 457.1 454.22 
L 457.1 323.772941 
L 325.805882 323.772941 
z
" style="fill:#ffffff;"/>
   </g>
   <g id="line2d_5">
    <path clip-path="url(#p596f4c57e3)" d="M 331.773797 448.290588 
L 335.8896 448.290588 
L 340.005403 448.290588 
L 344.121206 448.290588 
L 348.237009 448.290586 
L 352.352812 448.290494 
L 356.468615 448.288307 
L 360.584418 448.253914 
L 364.700221 447.89794 
L 368.816024 445.495171 
L 372.931827 435.153436 
L 377.04763 407.986808 
L 381.163434 367.61697 
L 385.279237 340.483102 
L 389.39504 348.543917 
L 393.510843 382.85101 
L 397.626646 417.976932 
L 401.742449 438.644256 
L 405.858252 446.247817 
L 409.974055 448.007847 
L 414.089858 448.265039 
L 418.205661 448.289071 
L 422.321464 448.290529 
L 426.437267 448.290587 
L 430.55307 448.290588 
L 434.668873 448.290588 
L 438.784676 448.290588 
L 442.900479 448.290588 
L 447.016283 448.290588 
L 451.132086 448.290588 
" style="fill:none;stroke:#1f77b4;stroke-linecap:square;stroke-width:1.5;"/>
   </g>
   <g id="line2d_6">
    <path clip-path="url(#p596f4c57e3)" d="M 331.773797 329.702353 
" style="fill:none;stroke:#ffffff;stroke-linecap:square;stroke-width:1.5;"/>
   </g>
   <g id="patch_28">
    <path d="M 325.805882 454.22 
L 325.805882 323.772941 
" style="fill:none;stroke:#000000;stroke-linecap:square;stroke-linejoin:miter;stroke-width:0.5;"/>
   </g>
   <g id="patch_29">
    <path d="M 457.1 454.22 
L 457.1 323.772941 
" style="fill:none;stroke:#000000;stroke-linecap:square;stroke-linejoin:miter;stroke-width:0.5;"/>
   </g>
   <g id="patch_30">
    <path d="M 325.805882 454.22 
L 457.1 454.22 
" style="fill:none;stroke:#000000;stroke-linecap:square;stroke-linejoin:miter;stroke-width:0.5;"/>
   </g>
   <g id="patch_31">
    <path d="M 325.805882 323.772941 
L 457.1 323.772941 
" style="fill:none;stroke:#000000;stroke-linecap:square;stroke-linejoin:miter;stroke-width:0.5;"/>
   </g>
  </g>
 </g>
 <defs>
  <clipPath id="pf9bf913484">
   <rect height="130.447059" width="131.294118" x="10.7" y="10.7"/>
  </clipPath>
  <clipPath id="p85d3f45b91">
   <rect height="130.447059" width="131.294118" x="10.7" y="167.236471"/>
  </clipPath>
  <clipPath id="p2231b91b39">
   <rect height="130.447059" width="131.294118" x="168.252941" y="167.236471"/>
  </clipPath>
  <clipPath id="pa9db4ab032">
   <rect height="130.447059" width="131.294118" x="10.7" y="323.772941"/>
  </clipPath>
  <clipPath id="p0e5d3e1a80">
   <rect height="130.447059" width="131.294118" x="168.252941" y="323.772941"/>
  </clipPath>
  <clipPath id="p596f4c57e3">
   <rect height="130.447059" width="131.294118" x="325.805882" y="323.772941"/>
  </clipPath>
 </defs>
</svg>
