<?xml version="1.0" encoding="utf-8" standalone="no"?>
<!DOCTYPE svg PUBLIC "-//W3C//DTD SVG 1.1//EN"
  "http://www.w3.org/Graphics/SVG/1.1/DTD/svg11.dtd">
<!-- Created with matplotlib (http://matplotlib.org/) -->
<svg height="464pt" version="1.1" viewBox="0 0 467 464" width="467pt" xmlns="http://www.w3.org/2000/svg" xmlns:xlink="http://www.w3.org/1999/xlink">
 <defs>
  <style type="text/css">
*{stroke-linecap:butt;stroke-linejoin:round;}
  </style>
 </defs>
 <g id="figure_1">
  <g id="patch_1">
   <path d="M 0 464.92 
L 467.8 464.92 
L 467.8 0 
L 0 0 
z
" style="fill:#ffffff;"/>
  </g>
  <g id="axes_1">
   <g id="patch_2">
    <path d="M 10.7 141.147059 
L 141.994118 141.147059 
L 141.994118 10.7 
L 10.7 10.7 
z
" style="fill:#ffffff;"/>
   </g>
   <g id="line2d_1">
    <path clip-path="url(#pde5239fe0b)" d="M 16.667914 135.217647 
L 20.783717 135.217647 
L 24.899521 135.217647 
L 29.015324 135.217647 
L 33.131127 135.217647 
L 37.24693 135.217646 
L 41.362733 135.217626 
L 45.478536 135.2171 
L 49.594339 135.207269 
L 53.710142 135.076044 
L 57.825945 133.900083 
L 61.941748 127.299057 
L 66.057551 105.378426 
L 70.173354 64.490949 
L 74.289157 27.41016 
L 78.40496 27.527996 
L 82.520763 64.795882 
L 86.636566 105.881653 
L 90.75237 127.792476 
L 94.868173 134.127823 
L 98.983976 135.126375 
L 103.099779 135.213113 
L 107.215582 135.217499 
L 111.331385 135.217643 
L 115.447188 135.217647 
L 119.562991 135.217647 
L 123.678794 135.217647 
L 127.794597 135.217647 
L 131.9104 135.217647 
L 136.026203 135.217647 
" style="fill:none;stroke:#1f77b4;stroke-linecap:square;stroke-width:1.5;"/>
   </g>
   <g id="line2d_2">
    <path clip-path="url(#pde5239fe0b)" d="M 16.667914 16.629412 
" style="fill:none;stroke:#ffffff;stroke-linecap:square;stroke-width:1.5;"/>
   </g>
   <g id="patch_3">
    <path d="M 10.7 141.147059 
L 10.7 10.7 
" style="fill:none;stroke:#000000;stroke-linecap:square;stroke-linejoin:miter;stroke-width:0.5;"/>
   </g>
   <g id="patch_4">
    <path d="M 141.994118 141.147059 
L 141.994118 10.7 
" style="fill:none;stroke:#000000;stroke-linecap:square;stroke-linejoin:miter;stroke-width:0.5;"/>
   </g>
   <g id="patch_5">
    <path d="M 10.7 141.147059 
L 141.994118 141.147059 
" style="fill:none;stroke:#000000;stroke-linecap:square;stroke-linejoin:miter;stroke-width:0.5;"/>
   </g>
   <g id="patch_6">
    <path d="M 10.7 10.7 
L 141.994118 10.7 
" style="fill:none;stroke:#000000;stroke-linecap:square;stroke-linejoin:miter;stroke-width:0.5;"/>
   </g>
  </g>
  <g id="axes_2">
   <g id="patch_7">
    <path d="M 10.7 297.683529 
L 141.994118 297.683529 
L 141.994118 167.236471 
L 10.7 167.236471 
z
" style="fill:#ffffff;"/>
   </g>
   <g id="PathCollection_1">
    <path clip-path="url(#pefd1dee003)" d="M 20.783717 292.139144 
L 24.899521 292.139144 
L 29.015324 292.139144 
L 33.131127 292.139144 
L 37.24693 292.139144 
L 41.362733 292.139144 
L 45.478536 292.139144 
L 49.594339 292.139144 
L 53.710142 292.139144 
L 57.825945 292.139144 
L 61.941748 292.139144 
L 66.057551 292.139144 
L 70.173354 292.139144 
L 74.289157 292.139144 
L 78.40496 292.139144 
L 82.520763 292.139144 
L 86.636566 292.139144 
L 90.75237 292.139144 
L 94.868173 292.139144 
L 98.983976 292.139144 
L 103.099779 292.139144 
L 107.215582 292.139144 
L 111.331385 292.139144 
L 115.447188 292.139144 
L 119.562991 292.139144 
L 123.678794 292.139144 
L 127.794597 292.139144 
L 131.9104 292.139144 
L 136.026203 292.139144 
L 136.026203 288.023341 
L 136.026203 283.907538 
L 136.026203 279.791735 
L 136.026203 275.675932 
L 136.026203 271.560129 
L 136.026203 267.444326 
L 136.026203 263.328523 
L 136.026203 259.21272 
L 136.026203 255.096917 
L 136.026203 250.981114 
L 136.026203 246.865311 
L 136.026203 242.749508 
L 136.026203 238.633705 
L 136.026203 234.517902 
L 136.026203 230.402098 
L 136.026203 226.286295 
L 136.026203 222.170492 
L 136.026203 218.054689 
L 136.026203 213.938886 
L 136.026203 209.823083 
L 136.026203 205.70728 
L 136.026203 201.591477 
L 136.026203 197.475674 
L 136.026203 193.359871 
L 136.026203 189.244068 
L 136.026203 185.128265 
L 136.026203 181.012462 
L 136.026203 176.896659 
L 136.026203 172.780856 
L 131.9104 172.780856 
L 127.794597 172.780856 
L 123.678794 172.780856 
L 119.562991 172.780856 
L 115.447188 172.780856 
L 111.331385 172.780856 
L 107.215582 172.780856 
L 103.099779 172.780856 
L 98.983976 172.780856 
L 94.868173 172.780856 
L 90.75237 172.780856 
L 86.636566 172.780856 
L 82.520763 172.780856 
L 78.40496 172.780856 
L 74.289157 172.780856 
L 70.173354 172.780856 
L 66.057551 172.780856 
L 61.941748 172.780856 
L 57.825945 172.780856 
L 53.710142 172.780856 
L 49.594339 172.780856 
L 45.478536 172.780856 
L 41.362733 172.780856 
L 37.24693 172.780856 
L 33.131127 172.780856 
L 29.015324 172.780856 
L 24.899521 172.780856 
L 20.783717 172.780856 
L 16.667914 172.780856 
L 16.667914 176.896659 
L 16.667914 181.012462 
L 16.667914 185.128265 
L 16.667914 189.244068 
L 16.667914 193.359871 
L 16.667914 197.475674 
L 16.667914 201.591477 
L 16.667914 205.70728 
L 16.667914 209.823083 
L 16.667914 213.938886 
L 16.667914 218.054689 
L 16.667914 222.170492 
L 16.667914 226.286295 
L 16.667914 230.402098 
L 16.667914 234.517902 
L 16.667914 238.633705 
L 16.667914 242.749508 
L 16.667914 246.865311 
L 16.667914 250.981114 
L 16.667914 255.096917 
L 16.667914 259.21272 
L 16.667914 263.328523 
L 16.667914 267.444326 
L 16.667914 271.560129 
L 16.667914 275.675932 
L 16.667914 279.791735 
L 16.667914 283.907538 
L 16.667914 288.023341 
L 16.667914 292.139144 
z
M 72.146477 259.21272 
L 70.173354 255.906598 
L 69.798583 255.096917 
L 68.411273 250.981114 
L 67.486774 246.865311 
L 66.688018 242.749508 
L 66.057551 239.912768 
L 65.163956 238.633705 
L 62.970601 234.517902 
L 61.941748 231.124436 
L 61.433556 230.402098 
L 60.169075 226.286295 
L 60.617804 222.170492 
L 61.941748 219.699025 
L 62.768927 218.054689 
L 66.057551 214.632907 
L 67.065632 213.938886 
L 70.173354 211.811455 
L 74.289157 210.388917 
L 78.40496 209.9223 
L 82.520763 210.436482 
L 86.636566 212.862145 
L 87.641433 213.938886 
L 90.221298 218.054689 
L 90.75237 219.862876 
L 91.537214 222.170492 
L 91.82149 226.286295 
L 90.75237 230.246657 
L 90.73569 230.402098 
L 89.763369 234.517902 
L 88.036006 238.633705 
L 86.636566 240.77122 
L 86.20663 242.749508 
L 85.412463 246.865311 
L 84.335949 250.981114 
L 82.520763 255.012257 
L 82.490153 255.096917 
L 79.954872 259.21272 
L 78.40496 260.717373 
L 74.289157 261.143473 
z
" style="fill:#ffffff;"/>
   </g>
   <g id="PathCollection_2">
    <path clip-path="url(#pefd1dee003)" d="M 74.289157 261.143473 
L 78.40496 260.717373 
L 79.954872 259.21272 
L 82.490153 255.096917 
L 82.520763 255.012257 
L 84.335949 250.981114 
L 85.412463 246.865311 
L 86.20663 242.749508 
L 86.636566 240.77122 
L 88.036006 238.633705 
L 89.763369 234.517902 
L 90.73569 230.402098 
L 90.75237 230.246657 
L 91.82149 226.286295 
L 91.537214 222.170492 
L 90.75237 219.862876 
L 90.221298 218.054689 
L 87.641433 213.938886 
L 86.636566 212.862145 
L 82.520763 210.436482 
L 78.40496 209.9223 
L 74.289157 210.388917 
L 70.173354 211.811455 
L 67.065632 213.938886 
L 66.057551 214.632907 
L 62.768927 218.054689 
L 61.941748 219.699025 
L 60.617804 222.170492 
L 60.169075 226.286295 
L 61.433556 230.402098 
L 61.941748 231.124436 
L 62.970601 234.517902 
L 65.163956 238.633705 
L 66.057551 239.912768 
L 66.688018 242.749508 
L 67.486774 246.865311 
L 68.411273 250.981114 
L 69.798583 255.096917 
L 70.173354 255.906598 
L 72.146477 259.21272 
z
M 72.075002 255.096917 
L 70.517022 250.981114 
L 70.173354 249.434157 
L 69.218127 246.865311 
L 67.840121 242.749508 
L 66.728443 238.633705 
L 66.057551 236.158201 
L 65.029779 234.517902 
L 63.56072 230.402098 
L 63.192238 226.286295 
L 64.217627 222.170492 
L 66.057551 219.511902 
L 67.456685 218.054689 
L 70.173354 215.894143 
L 74.289157 214.346331 
L 78.40496 214.091495 
L 82.520763 215.296999 
L 85.558513 218.054689 
L 86.636566 219.530185 
L 88.051009 222.170492 
L 89.00634 226.286295 
L 88.87177 230.402098 
L 87.7825 234.517902 
L 86.636566 236.620537 
L 86.175863 238.633705 
L 85.165326 242.749508 
L 83.81007 246.865311 
L 82.520763 249.81794 
L 82.186214 250.981114 
L 80.356185 255.096917 
L 78.40496 257.415406 
L 74.289157 257.722778 
z
" style="fill:#0000ad;"/>
   </g>
   <g id="PathCollection_3">
    <path clip-path="url(#pefd1dee003)" d="M 74.289157 257.722778 
L 78.40496 257.415406 
L 80.356185 255.096917 
L 82.186214 250.981114 
L 82.520763 249.81794 
L 83.81007 246.865311 
L 85.165326 242.749508 
L 86.175863 238.633705 
L 86.636566 236.620537 
L 87.7825 234.517902 
L 88.87177 230.402098 
L 89.00634 226.286295 
L 88.051009 222.170492 
L 86.636566 219.530185 
L 85.558513 218.054689 
L 82.520763 215.296999 
L 78.40496 214.091495 
L 74.289157 214.346331 
L 70.173354 215.894143 
L 67.456685 218.054689 
L 66.057551 219.511902 
L 64.217627 222.170492 
L 63.192238 226.286295 
L 63.56072 230.402098 
L 65.029779 234.517902 
L 66.057551 236.158201 
L 66.728443 238.633705 
L 67.840121 242.749508 
L 69.218127 246.865311 
L 70.173354 249.434157 
L 70.517022 250.981114 
L 72.075002 255.096917 
z
M 74.164562 255.096917 
L 71.551395 250.981114 
L 70.471961 246.865311 
L 70.173354 245.613152 
L 68.992224 242.749508 
L 67.619098 238.633705 
L 66.50644 234.517902 
L 66.057551 232.172829 
L 65.372369 230.402098 
L 65.342042 226.286295 
L 66.057551 224.406787 
L 67.085134 222.170492 
L 70.173354 219.004804 
L 72.330077 218.054689 
L 74.289157 217.146238 
L 78.40496 217.031218 
L 80.642613 218.054689 
L 82.520763 218.961625 
L 85.206494 222.170492 
L 86.636566 225.95752 
L 86.744662 226.286295 
L 87.00785 230.402098 
L 86.636566 231.722954 
L 86.266719 234.517902 
L 85.344096 238.633705 
L 84.124023 242.749508 
L 82.520763 246.401824 
L 82.389252 246.865311 
L 81.130763 250.981114 
L 78.40496 254.964822 
L 75.978614 255.096917 
L 74.289157 255.24468 
z
" style="fill:#0000ff;"/>
   </g>
   <g id="PathCollection_4">
    <path clip-path="url(#pefd1dee003)" d="M 74.289157 255.24468 
L 75.978614 255.096917 
L 78.40496 254.964822 
L 81.130763 250.981114 
L 82.389252 246.865311 
L 82.520763 246.401824 
L 84.124023 242.749508 
L 85.344096 238.633705 
L 86.266719 234.517902 
L 86.636566 231.722954 
L 87.00785 230.402098 
L 86.744662 226.286295 
L 86.636566 225.95752 
L 85.206494 222.170492 
L 82.520763 218.961625 
L 80.642613 218.054689 
L 78.40496 217.031218 
L 74.289157 217.146238 
L 72.330077 218.054689 
L 70.173354 219.004804 
L 67.085134 222.170492 
L 66.057551 224.406787 
L 65.342042 226.286295 
L 65.372369 230.402098 
L 66.057551 232.172829 
L 66.50644 234.517902 
L 67.619098 238.633705 
L 68.992224 242.749508 
L 70.173354 245.613152 
L 70.471961 246.865311 
L 71.551395 250.981114 
L 74.164562 255.096917 
z
M 72.585768 250.981114 
L 71.138082 246.865311 
L 70.173354 242.819885 
L 70.144327 242.749508 
L 68.509752 238.633705 
L 67.402636 234.517902 
L 66.766987 230.402098 
L 67.169358 226.286295 
L 69.680007 222.170492 
L 70.173354 221.664769 
L 74.289157 219.491706 
L 78.40496 219.511262 
L 82.520763 222.06525 
L 82.608848 222.170492 
L 85.043518 226.286295 
L 85.71938 230.402098 
L 85.389264 234.517902 
L 84.512329 238.633705 
L 83.082719 242.749508 
L 82.520763 244.029675 
L 81.716171 246.865311 
L 80.075313 250.981114 
L 78.40496 253.422302 
L 74.289157 253.600916 
z
" style="fill:#0054ff;"/>
   </g>
   <g id="PathCollection_5">
    <path clip-path="url(#pefd1dee003)" d="M 74.289157 253.600916 
L 78.40496 253.422302 
L 80.075313 250.981114 
L 81.716171 246.865311 
L 82.520763 244.029675 
L 83.082719 242.749508 
L 84.512329 238.633705 
L 85.389264 234.517902 
L 85.71938 230.402098 
L 85.043518 226.286295 
L 82.608848 222.170492 
L 82.520763 222.06525 
L 78.40496 219.511262 
L 74.289157 219.491706 
L 70.173354 221.664769 
L 69.680007 222.170492 
L 67.169358 226.286295 
L 66.766987 230.402098 
L 67.402636 234.517902 
L 68.509752 238.633705 
L 70.144327 242.749508 
L 70.173354 242.819885 
L 71.138082 246.865311 
L 72.585768 250.981114 
z
M 73.620142 250.981114 
L 71.804203 246.865311 
L 70.722044 242.749508 
L 70.173354 240.57215 
L 69.400406 238.633705 
L 68.298832 234.517902 
L 67.907943 230.402098 
L 68.835797 226.286295 
L 70.173354 224.237624 
L 73.290985 222.170492 
L 74.289157 221.618912 
L 78.40496 221.745792 
L 79.081565 222.170492 
L 82.520763 224.868066 
L 83.37051 226.286295 
L 84.574049 230.402098 
L 84.511809 234.517902 
L 83.680563 238.633705 
L 82.520763 241.727978 
L 82.257997 242.749508 
L 81.043089 246.865311 
L 79.019862 250.981114 
L 78.40496 251.879781 
L 74.289157 252.010056 
z
" style="fill:#00a8ff;"/>
   </g>
   <g id="PathCollection_6">
    <path clip-path="url(#pefd1dee003)" d="M 74.289157 252.010056 
L 78.40496 251.879781 
L 79.019862 250.981114 
L 81.043089 246.865311 
L 82.257997 242.749508 
L 82.520763 241.727978 
L 83.680563 238.633705 
L 84.511809 234.517902 
L 84.574049 230.402098 
L 83.37051 226.286295 
L 82.520763 224.868066 
L 79.081565 222.170492 
L 78.40496 221.745792 
L 74.289157 221.618912 
L 73.290985 222.170492 
L 70.173354 224.237624 
L 68.835797 226.286295 
L 67.907943 230.402098 
L 68.298832 234.517902 
L 69.400406 238.633705 
L 70.173354 240.57215 
L 70.722044 242.749508 
L 71.804203 246.865311 
L 73.620142 250.981114 
z
M 72.470324 246.865311 
L 71.284916 242.749508 
L 70.255734 238.633705 
L 70.173354 238.189245 
L 69.195028 234.517902 
L 69.048899 230.402098 
L 70.173354 226.972985 
L 70.636779 226.286295 
L 74.289157 223.498201 
L 78.40496 223.66278 
L 81.463702 226.286295 
L 82.520763 227.862633 
L 83.428719 230.402098 
L 83.634354 234.517902 
L 82.848796 238.633705 
L 82.520763 239.508875 
L 81.687181 242.749508 
L 80.370008 246.865311 
L 78.40496 250.466277 
L 74.289157 250.509677 
z
" style="fill:#13fce4;"/>
   </g>
   <g id="PathCollection_7">
    <path clip-path="url(#pefd1dee003)" d="M 74.289157 250.509677 
L 78.40496 250.466277 
L 80.370008 246.865311 
L 81.687181 242.749508 
L 82.520763 239.508875 
L 82.848796 238.633705 
L 83.634354 234.517902 
L 83.428719 230.402098 
L 82.520763 227.862633 
L 81.463702 226.286295 
L 78.40496 223.66278 
L 74.289157 223.498201 
L 70.636779 226.286295 
L 70.173354 226.972985 
L 69.048899 230.402098 
L 69.195028 234.517902 
L 70.173354 238.189245 
L 70.255734 238.633705 
L 71.284916 242.749508 
L 72.470324 246.865311 
z
M 73.136445 246.865311 
L 71.847788 242.749508 
L 70.879081 238.633705 
L 70.173354 234.826111 
L 70.091224 234.517902 
L 70.173354 230.963088 
L 70.193555 230.402098 
L 72.984938 226.286295 
L 74.289157 225.290701 
L 78.40496 225.505253 
L 79.315573 226.286295 
L 82.241026 230.402098 
L 82.520763 232.192771 
L 82.756899 234.517902 
L 82.520763 235.784138 
L 82.133056 238.633705 
L 81.116365 242.749508 
L 79.696927 246.865311 
L 78.40496 249.23285 
L 74.289157 249.174981 
z
" style="fill:#5aff9d;"/>
   </g>
   <g id="PathCollection_8">
    <path clip-path="url(#pefd1dee003)" d="M 74.289157 249.174981 
L 78.40496 249.23285 
L 79.696927 246.865311 
L 81.116365 242.749508 
L 82.133056 238.633705 
L 82.520763 235.784138 
L 82.756899 234.517902 
L 82.520763 232.192771 
L 82.241026 230.402098 
L 79.315573 226.286295 
L 78.40496 225.505253 
L 74.289157 225.290701 
L 72.984938 226.286295 
L 70.193555 230.402098 
L 70.173354 230.963088 
L 70.091224 234.517902 
L 70.173354 234.826111 
L 70.879081 238.633705 
L 71.847788 242.749508 
L 73.136445 246.865311 
z
M 73.802566 246.865311 
L 72.41066 242.749508 
L 71.502429 238.633705 
L 70.962575 234.517902 
L 71.590315 230.402098 
L 74.289157 227.056154 
L 78.40496 227.266808 
L 80.891301 230.402098 
L 81.875431 234.517902 
L 81.492872 238.633705 
L 80.545549 242.749508 
L 79.023845 246.865311 
L 78.40496 247.999422 
L 74.289157 247.840285 
z
" style="fill:#9dff5a;"/>
   </g>
   <g id="PathCollection_9">
    <path clip-path="url(#pefd1dee003)" d="M 74.289157 247.840285 
L 78.40496 247.999422 
L 79.023845 246.865311 
L 80.545549 242.749508 
L 81.492872 238.633705 
L 81.875431 234.517902 
L 80.891301 230.402098 
L 78.40496 227.266808 
L 74.289157 227.056154 
L 71.590315 230.402098 
L 70.962575 234.517902 
L 71.502429 238.633705 
L 72.41066 242.749508 
L 73.802566 246.865311 
z
M 72.973531 242.749508 
L 72.125776 238.633705 
L 71.83142 234.517902 
L 72.987076 230.402098 
L 74.289157 228.787817 
L 78.40496 228.96882 
L 79.541575 230.402098 
L 80.992485 234.517902 
L 80.852689 238.633705 
L 79.974733 242.749508 
L 78.40496 246.74823 
L 74.289157 246.43979 
z
" style="fill:#e4ff13;"/>
   </g>
   <g id="PathCollection_10">
    <path clip-path="url(#pefd1dee003)" d="M 74.289157 246.43979 
L 78.40496 246.74823 
L 79.974733 242.749508 
L 80.852689 238.633705 
L 80.992485 234.517902 
L 79.541575 230.402098 
L 78.40496 228.96882 
L 74.289157 228.787817 
L 72.987076 230.402098 
L 71.83142 234.517902 
L 72.125776 238.633705 
L 72.973531 242.749508 
z
M 73.536403 242.749508 
L 72.749124 238.633705 
L 72.700265 234.517902 
L 74.289157 230.549204 
L 78.40496 230.713263 
L 80.109539 234.517902 
L 80.212506 238.633705 
L 79.403917 242.749508 
L 78.40496 245.294176 
L 74.289157 244.860955 
z
" style="fill:#ffbd00;"/>
   </g>
   <g id="PathCollection_11">
    <path clip-path="url(#pefd1dee003)" d="M 74.289157 244.860955 
L 78.40496 245.294176 
L 79.403917 242.749508 
L 80.212506 238.633705 
L 80.109539 234.517902 
L 78.40496 230.713263 
L 74.289157 230.549204 
L 72.700265 234.517902 
L 72.749124 238.633705 
L 73.536403 242.749508 
z
M 74.099275 242.749508 
L 73.372472 238.633705 
L 73.56911 234.517902 
L 74.289157 232.719384 
L 78.40496 232.684008 
L 79.226593 234.517902 
L 79.572323 238.633705 
L 78.833101 242.749508 
L 78.40496 243.840122 
L 74.289157 243.282121 
z
" style="fill:#ff6f00;"/>
   </g>
   <g id="PathCollection_12">
    <path clip-path="url(#pefd1dee003)" d="M 74.289157 243.282121 
L 78.40496 243.840122 
L 78.833101 242.749508 
L 79.572323 238.633705 
L 79.226593 234.517902 
L 78.40496 232.684008 
L 74.289157 232.719384 
L 73.56911 234.517902 
L 73.372472 238.633705 
L 74.099275 242.749508 
z
M 73.995819 238.633705 
L 74.289157 235.616092 
L 78.40496 234.837985 
L 78.932139 238.633705 
L 78.40496 241.791139 
L 74.289157 240.342819 
z
" style="fill:#ff2200;"/>
   </g>
   <g id="PathCollection_13">
    <path clip-path="url(#pefd1dee003)" d="M 74.289157 240.342819 
L 78.40496 241.791139 
L 78.932139 238.633705 
L 78.40496 234.837985 
L 74.289157 235.616092 
L 73.995819 238.633705 
z
" style="fill:#ad0000;"/>
   </g>
   <g id="patch_8">
    <path d="M 10.7 297.683529 
L 10.7 167.236471 
" style="fill:none;stroke:#000000;stroke-linecap:square;stroke-linejoin:miter;stroke-width:0.5;"/>
   </g>
   <g id="patch_9">
    <path d="M 141.994118 297.683529 
L 141.994118 167.236471 
" style="fill:none;stroke:#000000;stroke-linecap:square;stroke-linejoin:miter;stroke-width:0.5;"/>
   </g>
   <g id="patch_10">
    <path d="M 10.7 297.683529 
L 141.994118 297.683529 
" style="fill:none;stroke:#000000;stroke-linecap:square;stroke-linejoin:miter;stroke-width:0.5;"/>
   </g>
   <g id="patch_11">
    <path d="M 10.7 167.236471 
L 141.994118 167.236471 
" style="fill:none;stroke:#000000;stroke-linecap:square;stroke-linejoin:miter;stroke-width:0.5;"/>
   </g>
  </g>
  <g id="axes_3">
   <g id="patch_12">
    <path d="M 168.252941 297.683529 
L 299.547059 297.683529 
L 299.547059 167.236471 
L 168.252941 167.236471 
z
" style="fill:#ffffff;"/>
   </g>
   <g id="line2d_3">
    <path clip-path="url(#p2341fcfc11)" d="M 174.220856 291.753962 
L 178.336659 291.75311 
L 182.452462 291.74851 
L 186.568265 291.726922 
L 190.684068 291.638063 
L 194.799871 291.315263 
L 198.915674 290.277812 
L 203.031477 287.3405 
L 207.14728 280.130924 
L 211.263083 265.300114 
L 215.378886 241.121559 
L 219.494689 212.286005 
L 223.610492 190.184697 
L 227.726295 183.946631 
L 231.842098 193.145927 
L 235.957902 211.097149 
L 240.073705 231.256187 
L 244.189508 249.766962 
L 248.305311 265.004045 
L 252.421114 276.522023 
L 256.536917 284.387246 
L 260.65272 288.972317 
L 264.768523 291.030617 
L 268.884326 291.644137 
L 273.000129 291.745969 
L 277.115932 291.753868 
L 281.231735 291.754115 
L 285.347538 291.754118 
L 289.463341 291.754118 
L 293.579144 291.754118 
" style="fill:none;stroke:#1f77b4;stroke-linecap:square;stroke-width:1.5;"/>
   </g>
   <g id="line2d_4">
    <path clip-path="url(#p2341fcfc11)" d="M 174.220856 173.165882 
" style="fill:none;stroke:#ffffff;stroke-linecap:square;stroke-width:1.5;"/>
   </g>
   <g id="patch_13">
    <path d="M 168.252941 297.683529 
L 168.252941 167.236471 
" style="fill:none;stroke:#000000;stroke-linecap:square;stroke-linejoin:miter;stroke-width:0.5;"/>
   </g>
   <g id="patch_14">
    <path d="M 299.547059 297.683529 
L 299.547059 167.236471 
" style="fill:none;stroke:#000000;stroke-linecap:square;stroke-linejoin:miter;stroke-width:0.5;"/>
   </g>
   <g id="patch_15">
    <path d="M 168.252941 297.683529 
L 299.547059 297.683529 
" style="fill:none;stroke:#000000;stroke-linecap:square;stroke-linejoin:miter;stroke-width:0.5;"/>
   </g>
   <g id="patch_16">
    <path d="M 168.252941 167.236471 
L 299.547059 167.236471 
" style="fill:none;stroke:#000000;stroke-linecap:square;stroke-linejoin:miter;stroke-width:0.5;"/>
   </g>
  </g>
  <g id="axes_4">
   <g id="patch_17">
    <path d="M 10.7 454.22 
L 141.994118 454.22 
L 141.994118 323.772941 
L 10.7 323.772941 
z
" style="fill:#ffffff;"/>
   </g>
   <g id="PathCollection_14">
    <path clip-path="url(#pb9df1de1d3)" d="M 20.783717 448.675615 
L 24.899521 448.675615 
L 29.015324 448.675615 
L 33.131127 448.675615 
L 37.24693 448.675615 
L 41.362733 448.675615 
L 45.478536 448.675615 
L 49.594339 448.675615 
L 53.710142 448.675615 
L 57.825945 448.675615 
L 61.941748 448.675615 
L 66.057551 448.675615 
L 70.173354 448.675615 
L 74.289157 448.675615 
L 78.40496 448.675615 
L 82.520763 448.675615 
L 86.636566 448.675615 
L 90.75237 448.675615 
L 94.868173 448.675615 
L 98.983976 448.675615 
L 103.099779 448.675615 
L 107.215582 448.675615 
L 111.331385 448.675615 
L 115.447188 448.675615 
L 119.562991 448.675615 
L 123.678794 448.675615 
L 127.794597 448.675615 
L 131.9104 448.675615 
L 136.026203 448.675615 
L 136.026203 444.559812 
L 136.026203 440.444009 
L 136.026203 436.328206 
L 136.026203 432.212403 
L 136.026203 428.0966 
L 136.026203 423.980797 
L 136.026203 419.864994 
L 136.026203 415.74919 
L 136.026203 411.633387 
L 136.026203 407.517584 
L 136.026203 403.401781 
L 136.026203 399.285978 
L 136.026203 395.170175 
L 136.026203 391.054372 
L 136.026203 386.938569 
L 136.026203 382.822766 
L 136.026203 378.706963 
L 136.026203 374.59116 
L 136.026203 370.475357 
L 136.026203 366.359554 
L 136.026203 362.243751 
L 136.026203 358.127948 
L 136.026203 354.012145 
L 136.026203 349.896342 
L 136.026203 345.780538 
L 136.026203 341.664735 
L 136.026203 337.548932 
L 136.026203 333.433129 
L 136.026203 329.317326 
L 131.9104 329.317326 
L 127.794597 329.317326 
L 123.678794 329.317326 
L 119.562991 329.317326 
L 115.447188 329.317326 
L 111.331385 329.317326 
L 107.215582 329.317326 
L 103.099779 329.317326 
L 98.983976 329.317326 
L 94.868173 329.317326 
L 90.75237 329.317326 
L 86.636566 329.317326 
L 82.520763 329.317326 
L 78.40496 329.317326 
L 74.289157 329.317326 
L 70.173354 329.317326 
L 66.057551 329.317326 
L 61.941748 329.317326 
L 57.825945 329.317326 
L 53.710142 329.317326 
L 49.594339 329.317326 
L 45.478536 329.317326 
L 41.362733 329.317326 
L 37.24693 329.317326 
L 33.131127 329.317326 
L 29.015324 329.317326 
L 24.899521 329.317326 
L 20.783717 329.317326 
L 16.667914 329.317326 
L 16.667914 333.433129 
L 16.667914 337.548932 
L 16.667914 341.664735 
L 16.667914 345.780538 
L 16.667914 349.896342 
L 16.667914 354.012145 
L 16.667914 358.127948 
L 16.667914 362.243751 
L 16.667914 366.359554 
L 16.667914 370.475357 
L 16.667914 374.59116 
L 16.667914 378.706963 
L 16.667914 382.822766 
L 16.667914 386.938569 
L 16.667914 391.054372 
L 16.667914 395.170175 
L 16.667914 399.285978 
L 16.667914 403.401781 
L 16.667914 407.517584 
L 16.667914 411.633387 
L 16.667914 415.74919 
L 16.667914 419.864994 
L 16.667914 423.980797 
L 16.667914 428.0966 
L 16.667914 432.212403 
L 16.667914 436.328206 
L 16.667914 440.444009 
L 16.667914 444.559812 
L 16.667914 448.675615 
z
M 47.021785 423.980797 
L 45.478536 419.91335 
L 45.4676 419.864994 
L 45.478536 419.819336 
L 45.942805 415.74919 
L 47.047279 411.633387 
L 49.409451 407.517584 
L 49.594339 407.270928 
L 51.268053 403.401781 
L 53.710142 400.300104 
L 54.237849 399.285978 
L 57.357406 395.170175 
L 57.825945 394.645489 
L 60.247051 391.054372 
L 61.941748 389.201957 
L 63.711837 386.938569 
L 66.057551 384.444474 
L 67.539093 382.822766 
L 70.173354 380.117917 
L 71.692766 378.706963 
L 74.289157 376.157963 
L 76.297227 374.59116 
L 78.40496 372.63438 
L 81.729561 370.475357 
L 82.520763 369.787978 
L 86.636566 367.167894 
L 88.933304 366.359554 
L 90.75237 365.290558 
L 94.868173 364.822382 
L 96.954093 366.359554 
L 98.023984 370.475357 
L 97.418977 374.59116 
L 95.880109 378.706963 
L 94.868173 380.28754 
L 93.979724 382.822766 
L 91.629608 386.938569 
L 90.75237 388.056761 
L 89.311772 391.054372 
L 86.636566 394.368318 
L 86.180217 395.170175 
L 83.027367 399.285978 
L 82.520763 399.852369 
L 79.98963 403.401781 
L 78.40496 405.112808 
L 76.35805 407.517584 
L 74.289157 409.658287 
L 72.270451 411.633387 
L 70.173354 413.700328 
L 67.640293 415.74919 
L 66.057551 417.228163 
L 62.072276 419.864994 
L 61.941748 419.980015 
L 57.825945 422.950155 
L 54.929214 423.980797 
L 53.710142 424.740984 
L 49.594339 425.414737 
z
" style="fill:#ffffff;"/>
   </g>
   <g id="PathCollection_15">
    <path clip-path="url(#pb9df1de1d3)" d="M 49.594339 425.414737 
L 53.710142 424.740984 
L 54.929214 423.980797 
L 57.825945 422.950155 
L 61.941748 419.980015 
L 62.072276 419.864994 
L 66.057551 417.228163 
L 67.640293 415.74919 
L 70.173354 413.700328 
L 72.270451 411.633387 
L 74.289157 409.658287 
L 76.35805 407.517584 
L 78.40496 405.112808 
L 79.98963 403.401781 
L 82.520763 399.852369 
L 83.027367 399.285978 
L 86.180217 395.170175 
L 86.636566 394.368318 
L 89.311772 391.054372 
L 90.75237 388.056761 
L 91.629608 386.938569 
L 93.979724 382.822766 
L 94.868173 380.28754 
L 95.880109 378.706963 
L 97.418977 374.59116 
L 98.023984 370.475357 
L 96.954093 366.359554 
L 94.868173 364.822382 
L 90.75237 365.290558 
L 88.933304 366.359554 
L 86.636566 367.167894 
L 82.520763 369.787978 
L 81.729561 370.475357 
L 78.40496 372.63438 
L 76.297227 374.59116 
L 74.289157 376.157963 
L 71.692766 378.706963 
L 70.173354 380.117917 
L 67.539093 382.822766 
L 66.057551 384.444474 
L 63.711837 386.938569 
L 61.941748 389.201957 
L 60.247051 391.054372 
L 57.825945 394.645489 
L 57.357406 395.170175 
L 54.237849 399.285978 
L 53.710142 400.300104 
L 51.268053 403.401781 
L 49.594339 407.270928 
L 49.409451 407.517584 
L 47.047279 411.633387 
L 45.942805 415.74919 
L 45.478536 419.819336 
L 45.4676 419.864994 
L 45.478536 419.91335 
L 47.021785 423.980797 
z
M 49.764265 419.864994 
L 49.594339 419.474902 
L 48.935229 415.74919 
L 49.594339 413.647874 
L 49.950211 411.633387 
L 51.353717 407.517584 
L 53.710142 403.865787 
L 53.907361 403.401781 
L 56.168365 399.285978 
L 57.825945 397.27341 
L 59.139044 395.170175 
L 61.941748 391.917193 
L 62.588369 391.054372 
L 66.057551 387.224324 
L 66.315556 386.938569 
L 70.173354 382.926951 
L 70.287486 382.822766 
L 74.289157 378.956911 
L 74.62509 378.706963 
L 78.40496 375.370295 
L 79.710984 374.59116 
L 82.520763 372.36743 
L 86.573299 370.475357 
L 86.636566 370.431493 
L 90.75237 369.321021 
L 92.875706 370.475357 
L 94.103772 374.59116 
L 93.322593 378.706963 
L 91.627773 382.822766 
L 90.75237 384.143384 
L 89.581288 386.938569 
L 86.779408 391.054372 
L 86.636566 391.231318 
L 84.394898 395.170175 
L 82.520763 397.402071 
L 81.243854 399.285978 
L 78.40496 402.499619 
L 77.67051 403.401781 
L 74.289157 407.00147 
L 73.778275 407.517584 
L 70.173354 411.090469 
L 69.508593 411.633387 
L 66.057551 414.783346 
L 64.559107 415.74919 
L 61.941748 417.916976 
L 57.977668 419.864994 
L 57.825945 419.97631 
L 53.710142 421.451054 
z
" style="fill:#0000ad;"/>
   </g>
   <g id="PathCollection_16">
    <path clip-path="url(#pb9df1de1d3)" d="M 53.710142 421.451054 
L 57.825945 419.97631 
L 57.977668 419.864994 
L 61.941748 417.916976 
L 64.559107 415.74919 
L 66.057551 414.783346 
L 69.508593 411.633387 
L 70.173354 411.090469 
L 73.778275 407.517584 
L 74.289157 407.00147 
L 77.67051 403.401781 
L 78.40496 402.499619 
L 81.243854 399.285978 
L 82.520763 397.402071 
L 84.394898 395.170175 
L 86.636566 391.231318 
L 86.779408 391.054372 
L 89.581288 386.938569 
L 90.75237 384.143384 
L 91.627773 382.822766 
L 93.322593 378.706963 
L 94.103772 374.59116 
L 92.875706 370.475357 
L 90.75237 369.321021 
L 86.636566 370.431493 
L 86.573299 370.475357 
L 82.520763 372.36743 
L 79.710984 374.59116 
L 78.40496 375.370295 
L 74.62509 378.706963 
L 74.289157 378.956911 
L 70.287486 382.822766 
L 70.173354 382.926951 
L 66.315556 386.938569 
L 66.057551 387.224324 
L 62.588369 391.054372 
L 61.941748 391.917193 
L 59.139044 395.170175 
L 57.825945 397.27341 
L 56.168365 399.285978 
L 53.907361 403.401781 
L 53.710142 403.865787 
L 51.353717 407.517584 
L 49.950211 411.633387 
L 49.594339 413.647874 
L 48.935229 415.74919 
L 49.594339 419.474902 
L 49.764265 419.864994 
z
M 51.508327 415.74919 
L 51.635544 411.633387 
L 53.179797 407.517584 
L 53.710142 406.695699 
L 55.110176 403.401781 
L 57.825945 399.528511 
L 57.956618 399.285978 
L 60.602432 395.170175 
L 61.941748 393.615686 
L 63.861264 391.054372 
L 66.057551 388.629626 
L 67.584385 386.938569 
L 70.173354 384.246371 
L 71.732885 382.822766 
L 74.289157 380.353253 
L 76.50179 378.706963 
L 78.40496 377.026945 
L 82.48794 374.59116 
L 82.520763 374.565183 
L 86.636566 372.667725 
L 90.75237 373.550052 
L 91.38461 374.59116 
L 91.300891 378.706963 
L 90.75237 379.948947 
L 89.915545 382.822766 
L 88.094755 386.938569 
L 86.636566 389.036397 
L 85.620745 391.054372 
L 82.60958 395.170175 
L 82.520763 395.275947 
L 79.802771 399.285978 
L 78.40496 400.868306 
L 76.342459 403.401781 
L 74.289157 405.587666 
L 72.378803 407.517584 
L 70.173354 409.703433 
L 67.81028 411.633387 
L 66.057551 413.2332 
L 62.154158 415.74919 
L 61.941748 415.925116 
L 57.825945 418.174648 
L 53.710142 418.460854 
z
" style="fill:#0000ff;"/>
   </g>
   <g id="PathCollection_17">
    <path clip-path="url(#pb9df1de1d3)" d="M 53.710142 418.460854 
L 57.825945 418.174648 
L 61.941748 415.925116 
L 62.154158 415.74919 
L 66.057551 413.2332 
L 67.81028 411.633387 
L 70.173354 409.703433 
L 72.378803 407.517584 
L 74.289157 405.587666 
L 76.342459 403.401781 
L 78.40496 400.868306 
L 79.802771 399.285978 
L 82.520763 395.275947 
L 82.60958 395.170175 
L 85.620745 391.054372 
L 86.636566 389.036397 
L 88.094755 386.938569 
L 89.915545 382.822766 
L 90.75237 379.948947 
L 91.300891 378.706963 
L 91.38461 374.59116 
L 90.75237 373.550052 
L 86.636566 372.667725 
L 82.520763 374.565183 
L 82.48794 374.59116 
L 78.40496 377.026945 
L 76.50179 378.706963 
L 74.289157 380.353253 
L 71.732885 382.822766 
L 70.173354 384.246371 
L 67.584385 386.938569 
L 66.057551 388.629626 
L 63.861264 391.054372 
L 61.941748 393.615686 
L 60.602432 395.170175 
L 57.956618 399.285978 
L 57.825945 399.528511 
L 55.110176 403.401781 
L 53.710142 406.695699 
L 53.179797 407.517584 
L 51.635544 411.633387 
L 51.508327 415.74919 
z
M 54.585718 415.74919 
L 53.710142 414.479822 
L 53.320877 411.633387 
L 53.710142 410.622657 
L 54.511034 407.517584 
L 56.312991 403.401781 
L 57.825945 401.243984 
L 58.88089 399.285978 
L 61.941748 395.272916 
L 62.011925 395.170175 
L 65.134159 391.054372 
L 66.057551 390.034928 
L 68.853214 386.938569 
L 70.173354 385.565791 
L 73.178284 382.822766 
L 74.289157 381.749595 
L 78.378489 378.706963 
L 78.40496 378.683595 
L 82.520763 376.08225 
L 86.636566 374.954673 
L 89.335428 378.706963 
L 88.58259 382.822766 
L 86.636566 386.885507 
L 86.617321 386.938569 
L 84.5442 391.054372 
L 82.520763 393.78809 
L 81.676794 395.170175 
L 78.40496 399.252701 
L 78.379913 399.285978 
L 75.014408 403.401781 
L 74.289157 404.173861 
L 70.979331 407.517584 
L 70.173354 408.316398 
L 66.111966 411.633387 
L 66.057551 411.683055 
L 61.941748 414.638566 
L 59.039424 415.74919 
L 57.825945 416.418569 
z
" style="fill:#0054ff;"/>
   </g>
   <g id="PathCollection_18">
    <path clip-path="url(#pb9df1de1d3)" d="M 57.825945 416.418569 
L 59.039424 415.74919 
L 61.941748 414.638566 
L 66.057551 411.683055 
L 66.111966 411.633387 
L 70.173354 408.316398 
L 70.979331 407.517584 
L 74.289157 404.173861 
L 75.014408 403.401781 
L 78.379913 399.285978 
L 78.40496 399.252701 
L 81.676794 395.170175 
L 82.520763 393.78809 
L 84.5442 391.054372 
L 86.617321 386.938569 
L 86.636566 386.885507 
L 88.58259 382.822766 
L 89.335428 378.706963 
L 86.636566 374.954673 
L 82.520763 376.08225 
L 78.40496 378.683595 
L 78.378489 378.706963 
L 74.289157 381.749595 
L 73.178284 382.822766 
L 70.173354 385.565791 
L 68.853214 386.938569 
L 66.057551 390.034928 
L 65.134159 391.054372 
L 62.011925 395.170175 
L 61.941748 395.272916 
L 58.88089 399.285978 
L 57.825945 401.243984 
L 56.312991 403.401781 
L 54.511034 407.517584 
L 53.710142 410.622657 
L 53.320877 411.633387 
L 53.710142 414.479822 
L 54.585718 415.74919 
z
M 55.071363 411.633387 
L 55.639732 407.517584 
L 57.515807 403.401781 
L 57.825945 402.959457 
L 59.805162 399.285978 
L 61.941748 396.48472 
L 62.839653 395.170175 
L 66.057551 391.325885 
L 66.293986 391.054372 
L 70.122043 386.938569 
L 70.173354 386.885212 
L 74.289157 383.047482 
L 74.624803 382.822766 
L 78.40496 379.836478 
L 80.756796 378.706963 
L 82.520763 377.591175 
L 86.636566 377.658189 
L 87.390905 378.706963 
L 87.249636 382.822766 
L 86.636566 384.102679 
L 85.608008 386.938569 
L 83.467655 391.054372 
L 82.520763 392.333648 
L 80.788641 395.170175 
L 78.40496 398.144482 
L 77.545784 399.285978 
L 74.289157 402.97312 
L 73.881606 403.401781 
L 70.173354 407.134309 
L 69.695922 407.517584 
L 66.057551 410.684784 
L 64.421319 411.633387 
L 61.941748 413.420347 
L 57.825945 414.578197 
z
" style="fill:#00a8ff;"/>
   </g>
   <g id="PathCollection_19">
    <path clip-path="url(#pb9df1de1d3)" d="M 57.825945 414.578197 
L 61.941748 413.420347 
L 64.421319 411.633387 
L 66.057551 410.684784 
L 69.695922 407.517584 
L 70.173354 407.134309 
L 73.881606 403.401781 
L 74.289157 402.97312 
L 77.545784 399.285978 
L 78.40496 398.144482 
L 80.788641 395.170175 
L 82.520763 392.333648 
L 83.467655 391.054372 
L 85.608008 386.938569 
L 86.636566 384.102679 
L 87.249636 382.822766 
L 87.390905 378.706963 
L 86.636566 377.658189 
L 82.520763 377.591175 
L 80.756796 378.706963 
L 78.40496 379.836478 
L 74.624803 382.822766 
L 74.289157 383.047482 
L 70.173354 386.885212 
L 70.122043 386.938569 
L 66.293986 391.054372 
L 66.057551 391.325885 
L 62.839653 395.170175 
L 61.941748 396.48472 
L 59.805162 399.285978 
L 57.825945 402.959457 
L 57.515807 403.401781 
L 55.639732 407.517584 
L 55.071363 411.633387 
z
M 56.841419 411.633387 
L 56.76843 407.517584 
L 57.825945 405.220962 
L 58.496056 403.401781 
L 60.729435 399.285978 
L 61.941748 397.696525 
L 63.667381 395.170175 
L 66.057551 392.314737 
L 67.155086 391.054372 
L 70.173354 387.823146 
L 71.168882 386.938569 
L 74.289157 384.018423 
L 76.075042 382.822766 
L 78.40496 380.982153 
L 82.520763 379.188418 
L 85.749857 382.822766 
L 84.598694 386.938569 
L 82.520763 390.826909 
L 82.415328 391.054372 
L 79.900487 395.170175 
L 78.40496 397.036263 
L 76.711655 399.285978 
L 74.289157 402.028722 
L 72.983714 403.401781 
L 70.173354 406.23054 
L 68.570128 407.517584 
L 66.057551 409.704781 
L 62.730927 411.633387 
L 61.941748 412.202127 
L 57.825945 412.685904 
z
" style="fill:#13fce4;"/>
   </g>
   <g id="PathCollection_20">
    <path clip-path="url(#pb9df1de1d3)" d="M 57.825945 412.685904 
L 61.941748 412.202127 
L 62.730927 411.633387 
L 66.057551 409.704781 
L 68.570128 407.517584 
L 70.173354 406.23054 
L 72.983714 403.401781 
L 74.289157 402.028722 
L 76.711655 399.285978 
L 78.40496 397.036263 
L 79.900487 395.170175 
L 82.415328 391.054372 
L 82.520763 390.826909 
L 84.598694 386.938569 
L 85.749857 382.822766 
L 82.520763 379.188418 
L 78.40496 380.982153 
L 76.075042 382.822766 
L 74.289157 384.018423 
L 71.168882 386.938569 
L 70.173354 387.823146 
L 67.155086 391.054372 
L 66.057551 392.314737 
L 63.667381 395.170175 
L 61.941748 397.696525 
L 60.729435 399.285978 
L 58.496056 403.401781 
L 57.825945 405.220962 
L 56.76843 407.517584 
L 56.841419 411.633387 
z
M 57.928771 407.517584 
L 59.398979 403.401781 
L 61.653707 399.285978 
L 61.941748 398.90833 
L 64.495109 395.170175 
L 66.057551 393.30359 
L 68.016186 391.054372 
L 70.173354 388.745002 
L 72.206365 386.938569 
L 74.289157 384.989364 
L 77.525281 382.822766 
L 78.40496 382.127828 
L 82.520763 381.036321 
L 84.108008 382.822766 
L 83.58938 386.938569 
L 82.520763 388.938225 
L 81.53987 391.054372 
L 79.012334 395.170175 
L 78.40496 395.928043 
L 75.877526 399.285978 
L 74.289157 401.084324 
L 72.085823 403.401781 
L 70.173354 405.326771 
L 67.444334 407.517584 
L 66.057551 408.724778 
L 61.941748 410.900592 
z
" style="fill:#5aff9d;"/>
   </g>
   <g id="PathCollection_21">
    <path clip-path="url(#pb9df1de1d3)" d="M 61.941748 410.900592 
L 66.057551 408.724778 
L 67.444334 407.517584 
L 70.173354 405.326771 
L 72.085823 403.401781 
L 74.289157 401.084324 
L 75.877526 399.285978 
L 78.40496 395.928043 
L 79.012334 395.170175 
L 81.53987 391.054372 
L 82.520763 388.938225 
L 83.58938 386.938569 
L 84.108008 382.822766 
L 82.520763 381.036321 
L 78.40496 382.127828 
L 77.525281 382.822766 
L 74.289157 384.989364 
L 72.206365 386.938569 
L 70.173354 388.745002 
L 68.016186 391.054372 
L 66.057551 393.30359 
L 64.495109 395.170175 
L 61.941748 398.90833 
L 61.653707 399.285978 
L 59.398979 403.401781 
L 57.928771 407.517584 
z
M 59.559216 407.517584 
L 60.301903 403.401781 
L 61.941748 400.417198 
L 62.537675 399.285978 
L 65.322837 395.170175 
L 66.057551 394.292442 
L 68.877287 391.054372 
L 70.173354 389.666858 
L 73.243849 386.938569 
L 74.289157 385.960305 
L 78.40496 383.380728 
L 82.520763 384.3104 
L 82.580067 386.938569 
L 82.520763 387.049541 
L 80.664413 391.054372 
L 78.40496 394.721036 
L 78.127919 395.170175 
L 75.043397 399.285978 
L 74.289157 400.139926 
L 71.187932 403.401781 
L 70.173354 404.423001 
L 66.31854 407.517584 
L 66.057551 407.744775 
L 61.941748 409.5261 
z
" style="fill:#9dff5a;"/>
   </g>
   <g id="PathCollection_22">
    <path clip-path="url(#pb9df1de1d3)" d="M 61.941748 409.5261 
L 66.057551 407.744775 
L 66.31854 407.517584 
L 70.173354 404.423001 
L 71.187932 403.401781 
L 74.289157 400.139926 
L 75.043397 399.285978 
L 78.127919 395.170175 
L 78.40496 394.721036 
L 80.664413 391.054372 
L 82.520763 387.049541 
L 82.580067 386.938569 
L 82.520763 384.3104 
L 78.40496 383.380728 
L 74.289157 385.960305 
L 73.243849 386.938569 
L 70.173354 389.666858 
L 68.877287 391.054372 
L 66.057551 394.292442 
L 65.322837 395.170175 
L 62.537675 399.285978 
L 61.941748 400.417198 
L 60.301903 403.401781 
L 59.559216 407.517584 
z
M 61.18966 407.517584 
L 61.204827 403.401781 
L 61.941748 402.060556 
L 63.403397 399.285978 
L 66.057551 395.315698 
L 66.170075 395.170175 
L 69.738387 391.054372 
L 70.173354 390.588715 
L 74.281332 386.938569 
L 74.289157 386.931246 
L 78.40496 384.798945 
L 80.939495 386.938569 
L 79.788955 391.054372 
L 78.40496 393.300334 
L 77.251591 395.170175 
L 74.289157 399.172582 
L 74.189813 399.285978 
L 70.290041 403.401781 
L 70.173354 403.519232 
L 66.057551 406.633315 
L 63.485956 407.517584 
L 61.941748 408.151607 
z
" style="fill:#e4ff13;"/>
   </g>
   <g id="PathCollection_23">
    <path clip-path="url(#pb9df1de1d3)" d="M 61.941748 408.151607 
L 63.485956 407.517584 
L 66.057551 406.633315 
L 70.173354 403.519232 
L 70.290041 403.401781 
L 74.189813 399.285978 
L 74.289157 399.172582 
L 77.251591 395.170175 
L 78.40496 393.300334 
L 79.788955 391.054372 
L 80.939495 386.938569 
L 78.40496 384.798945 
L 74.289157 386.931246 
L 74.281332 386.938569 
L 70.173354 390.588715 
L 69.738387 391.054372 
L 66.170075 395.170175 
L 66.057551 395.315698 
L 63.403397 399.285978 
L 61.941748 402.060556 
L 61.204827 403.401781 
L 61.18966 407.517584 
z
M 62.321782 403.401781 
L 64.269119 399.285978 
L 66.057551 396.610709 
L 67.171423 395.170175 
L 70.173354 391.637517 
L 70.880864 391.054372 
L 74.289157 388.148367 
L 77.010282 386.938569 
L 78.40496 386.217162 
L 79.259517 386.938569 
L 78.913497 391.054372 
L 78.40496 391.879631 
L 76.375263 395.170175 
L 74.289157 397.988616 
L 73.152563 399.285978 
L 70.173354 402.444893 
L 68.835844 403.401781 
L 66.057551 405.482183 
z
" style="fill:#ffbd00;"/>
   </g>
   <g id="PathCollection_24">
    <path clip-path="url(#pb9df1de1d3)" d="M 66.057551 405.482183 
L 68.835844 403.401781 
L 70.173354 402.444893 
L 73.152563 399.285978 
L 74.289157 397.988616 
L 76.375263 395.170175 
L 78.40496 391.879631 
L 78.913497 391.054372 
L 79.259517 386.938569 
L 78.40496 386.217162 
L 77.010282 386.938569 
L 74.289157 388.148367 
L 70.880864 391.054372 
L 70.173354 391.637517 
L 67.171423 395.170175 
L 66.057551 396.610709 
L 64.269119 399.285978 
L 62.321782 403.401781 
z
M 64.388866 403.401781 
L 65.13484 399.285978 
L 66.057551 397.905719 
L 68.17277 395.170175 
L 70.173354 392.815898 
L 72.310552 391.054372 
L 74.289157 389.367358 
L 77.448248 391.054372 
L 75.498935 395.170175 
L 74.289157 396.80465 
L 72.115312 399.285978 
L 70.173354 401.345075 
L 67.298554 403.401781 
L 66.057551 404.331051 
z
" style="fill:#ff6f00;"/>
   </g>
   <g id="PathCollection_25">
    <path clip-path="url(#pb9df1de1d3)" d="M 66.057551 404.331051 
L 67.298554 403.401781 
L 70.173354 401.345075 
L 72.115312 399.285978 
L 74.289157 396.80465 
L 75.498935 395.170175 
L 77.448248 391.054372 
L 74.289157 389.367358 
L 72.310552 391.054372 
L 70.173354 392.815898 
L 68.17277 395.170175 
L 66.057551 397.905719 
L 65.13484 399.285978 
L 64.388866 403.401781 
z
M 66.000562 399.285978 
L 66.057551 399.20073 
L 69.174118 395.170175 
L 70.173354 393.994279 
L 73.74024 391.054372 
L 74.289157 390.58635 
L 75.165572 391.054372 
L 74.622608 395.170175 
L 74.289157 395.620684 
L 71.078062 399.285978 
L 70.173354 400.245258 
L 66.057551 400.333837 
z
" style="fill:#ff2200;"/>
   </g>
   <g id="PathCollection_26">
    <path clip-path="url(#pb9df1de1d3)" d="M 66.057551 400.333837 
L 70.173354 400.245258 
L 71.078062 399.285978 
L 74.289157 395.620684 
L 74.622608 395.170175 
L 75.165572 391.054372 
L 74.289157 390.58635 
L 73.74024 391.054372 
L 70.173354 393.994279 
L 69.174118 395.170175 
L 66.057551 399.20073 
L 66.000562 399.285978 
z
" style="fill:#ad0000;"/>
   </g>
   <g id="patch_18">
    <path d="M 10.7 454.22 
L 10.7 323.772941 
" style="fill:none;stroke:#000000;stroke-linecap:square;stroke-linejoin:miter;stroke-width:0.5;"/>
   </g>
   <g id="patch_19">
    <path d="M 141.994118 454.22 
L 141.994118 323.772941 
" style="fill:none;stroke:#000000;stroke-linecap:square;stroke-linejoin:miter;stroke-width:0.5;"/>
   </g>
   <g id="patch_20">
    <path d="M 10.7 454.22 
L 141.994118 454.22 
" style="fill:none;stroke:#000000;stroke-linecap:square;stroke-linejoin:miter;stroke-width:0.5;"/>
   </g>
   <g id="patch_21">
    <path d="M 10.7 323.772941 
L 141.994118 323.772941 
" style="fill:none;stroke:#000000;stroke-linecap:square;stroke-linejoin:miter;stroke-width:0.5;"/>
   </g>
  </g>
  <g id="axes_5">
   <g id="patch_22">
    <path d="M 168.252941 454.22 
L 299.547059 454.22 
L 299.547059 323.772941 
L 168.252941 323.772941 
z
" style="fill:#ffffff;"/>
   </g>
   <g id="PathCollection_27">
    <path clip-path="url(#p335fbd88f7)" d="M 178.336659 448.675615 
L 182.452462 448.675615 
L 186.568265 448.675615 
L 190.684068 448.675615 
L 194.799871 448.675615 
L 198.915674 448.675615 
L 203.031477 448.675615 
L 207.14728 448.675615 
L 211.263083 448.675615 
L 215.378886 448.675615 
L 219.494689 448.675615 
L 223.610492 448.675615 
L 227.726295 448.675615 
L 231.842098 448.675615 
L 235.957902 448.675615 
L 240.073705 448.675615 
L 244.189508 448.675615 
L 248.305311 448.675615 
L 252.421114 448.675615 
L 256.536917 448.675615 
L 260.65272 448.675615 
L 264.768523 448.675615 
L 268.884326 448.675615 
L 273.000129 448.675615 
L 277.115932 448.675615 
L 281.231735 448.675615 
L 285.347538 448.675615 
L 289.463341 448.675615 
L 293.579144 448.675615 
L 293.579144 444.559812 
L 293.579144 440.444009 
L 293.579144 436.328206 
L 293.579144 432.212403 
L 293.579144 428.0966 
L 293.579144 423.980797 
L 293.579144 419.864994 
L 293.579144 415.74919 
L 293.579144 411.633387 
L 293.579144 407.517584 
L 293.579144 403.401781 
L 293.579144 399.285978 
L 293.579144 395.170175 
L 293.579144 391.054372 
L 293.579144 386.938569 
L 293.579144 382.822766 
L 293.579144 378.706963 
L 293.579144 374.59116 
L 293.579144 370.475357 
L 293.579144 366.359554 
L 293.579144 362.243751 
L 293.579144 358.127948 
L 293.579144 354.012145 
L 293.579144 349.896342 
L 293.579144 345.780538 
L 293.579144 341.664735 
L 293.579144 337.548932 
L 293.579144 333.433129 
L 293.579144 329.317326 
L 289.463341 329.317326 
L 285.347538 329.317326 
L 281.231735 329.317326 
L 277.115932 329.317326 
L 273.000129 329.317326 
L 268.884326 329.317326 
L 264.768523 329.317326 
L 260.65272 329.317326 
L 256.536917 329.317326 
L 252.421114 329.317326 
L 248.305311 329.317326 
L 244.189508 329.317326 
L 240.073705 329.317326 
L 235.957902 329.317326 
L 231.842098 329.317326 
L 227.726295 329.317326 
L 223.610492 329.317326 
L 219.494689 329.317326 
L 215.378886 329.317326 
L 211.263083 329.317326 
L 207.14728 329.317326 
L 203.031477 329.317326 
L 198.915674 329.317326 
L 194.799871 329.317326 
L 190.684068 329.317326 
L 186.568265 329.317326 
L 182.452462 329.317326 
L 178.336659 329.317326 
L 174.220856 329.317326 
L 174.220856 333.433129 
L 174.220856 337.548932 
L 174.220856 341.664735 
L 174.220856 345.780538 
L 174.220856 349.896342 
L 174.220856 354.012145 
L 174.220856 358.127948 
L 174.220856 362.243751 
L 174.220856 366.359554 
L 174.220856 370.475357 
L 174.220856 374.59116 
L 174.220856 378.706963 
L 174.220856 382.822766 
L 174.220856 386.938569 
L 174.220856 391.054372 
L 174.220856 395.170175 
L 174.220856 399.285978 
L 174.220856 403.401781 
L 174.220856 407.517584 
L 174.220856 411.633387 
L 174.220856 415.74919 
L 174.220856 419.864994 
L 174.220856 423.980797 
L 174.220856 428.0966 
L 174.220856 432.212403 
L 174.220856 436.328206 
L 174.220856 440.444009 
L 174.220856 444.559812 
L 174.220856 448.675615 
z
M 239.84134 411.633387 
L 235.957902 409.086906 
L 234.390223 407.517584 
L 231.842098 405.818659 
L 229.184344 403.401781 
L 227.726295 402.661734 
L 223.610492 400.270572 
L 222.0963 399.285978 
L 219.494689 398.718592 
L 215.378886 397.897766 
L 211.263083 396.553896 
L 208.80899 395.170175 
L 207.14728 393.569201 
L 205.157435 391.054372 
L 205.597997 386.938569 
L 207.14728 385.266356 
L 211.249303 382.822766 
L 211.263083 382.815888 
L 215.378886 381.188341 
L 219.494689 380.182486 
L 223.610492 379.335471 
L 226.266536 378.706963 
L 227.726295 377.721711 
L 231.842098 375.52197 
L 234.431673 374.59116 
L 235.957902 373.463594 
L 240.073705 372.035979 
L 244.189508 372.363052 
L 247.490419 374.59116 
L 248.305311 375.193723 
L 251.266046 378.706963 
L 252.421114 380.644634 
L 253.79346 382.822766 
L 255.653299 386.938569 
L 256.536917 389.893247 
L 257.037639 391.054372 
L 258.169976 395.170175 
L 258.579332 399.285978 
L 258.140132 403.401781 
L 256.536917 407.144241 
L 256.375693 407.517584 
L 252.866945 411.633387 
L 252.421114 412.00752 
L 248.305311 414.089091 
L 244.189508 414.011873 
L 240.073705 411.858327 
z
" style="fill:#ffffff;"/>
   </g>
   <g id="PathCollection_28">
    <path clip-path="url(#p335fbd88f7)" d="M 240.073705 411.858327 
L 244.189508 414.011873 
L 248.305311 414.089091 
L 252.421114 412.00752 
L 252.866945 411.633387 
L 256.375693 407.517584 
L 256.536917 407.144241 
L 258.140132 403.401781 
L 258.579332 399.285978 
L 258.169976 395.170175 
L 257.037639 391.054372 
L 256.536917 389.893247 
L 255.653299 386.938569 
L 253.79346 382.822766 
L 252.421114 380.644634 
L 251.266046 378.706963 
L 248.305311 375.193723 
L 247.490419 374.59116 
L 244.189508 372.363052 
L 240.073705 372.035979 
L 235.957902 373.463594 
L 234.431673 374.59116 
L 231.842098 375.52197 
L 227.726295 377.721711 
L 226.266536 378.706963 
L 223.610492 379.335471 
L 219.494689 380.182486 
L 215.378886 381.188341 
L 211.263083 382.815888 
L 211.249303 382.822766 
L 207.14728 385.266356 
L 205.597997 386.938569 
L 205.157435 391.054372 
L 207.14728 393.569201 
L 208.80899 395.170175 
L 211.263083 396.553896 
L 215.378886 397.897766 
L 219.494689 398.718592 
L 222.0963 399.285978 
L 223.610492 400.270572 
L 227.726295 402.661734 
L 229.184344 403.401781 
L 231.842098 405.818659 
L 234.390223 407.517584 
L 235.957902 409.086906 
L 239.84134 411.633387 
z
M 238.754207 407.517584 
L 235.957902 406.285406 
L 232.224257 403.401781 
L 231.842098 403.229174 
L 227.726295 401.071612 
L 225.212002 399.285978 
L 223.610492 398.730638 
L 219.494689 397.558751 
L 215.378886 395.970836 
L 213.694507 395.170175 
L 211.263083 393.815466 
L 208.462861 391.054372 
L 209.021012 386.938569 
L 211.263083 385.056423 
L 215.378886 383.310862 
L 217.572952 382.822766 
L 219.494689 382.090876 
L 223.610492 380.637927 
L 227.726295 379.467377 
L 230.433778 378.706963 
L 231.842098 377.826252 
L 235.957902 376.228025 
L 240.073705 375.755759 
L 244.189508 377.041037 
L 246.171299 378.706963 
L 248.305311 381.101546 
L 249.542416 382.822766 
L 251.609042 386.938569 
L 252.421114 389.641576 
L 252.97041 391.054372 
L 253.78982 395.170175 
L 253.725699 399.285978 
L 252.445081 403.401781 
L 252.421114 403.442033 
L 249.242492 407.517584 
L 248.305311 408.239709 
L 244.189508 409.463868 
L 240.073705 408.491037 
z
" style="fill:#0000a8;"/>
   </g>
   <g id="PathCollection_29">
    <path clip-path="url(#p335fbd88f7)" d="M 240.073705 408.491037 
L 244.189508 409.463868 
L 248.305311 408.239709 
L 249.242492 407.517584 
L 252.421114 403.442033 
L 252.445081 403.401781 
L 253.725699 399.285978 
L 253.78982 395.170175 
L 252.97041 391.054372 
L 252.421114 389.641576 
L 251.609042 386.938569 
L 249.542416 382.822766 
L 248.305311 381.101546 
L 246.171299 378.706963 
L 244.189508 377.041037 
L 240.073705 375.755759 
L 235.957902 376.228025 
L 231.842098 377.826252 
L 230.433778 378.706963 
L 227.726295 379.467377 
L 223.610492 380.637927 
L 219.494689 382.090876 
L 217.572952 382.822766 
L 215.378886 383.310862 
L 211.263083 385.056423 
L 209.021012 386.938569 
L 208.462861 391.054372 
L 211.263083 393.815466 
L 213.694507 395.170175 
L 215.378886 395.970836 
L 219.494689 397.558751 
L 223.610492 398.730638 
L 225.212002 399.285978 
L 227.726295 401.071612 
L 231.842098 403.229174 
L 232.224257 403.401781 
L 235.957902 406.285406 
L 238.754207 407.517584 
z
M 234.744163 403.401781 
L 231.842098 402.091024 
L 227.726295 399.48149 
L 227.451001 399.285978 
L 223.610492 397.954241 
L 219.494689 396.39891 
L 216.842271 395.170175 
L 215.378886 394.530636 
L 211.263083 391.556849 
L 210.753486 391.054372 
L 211.263083 388.651534 
L 211.533609 386.938569 
L 215.378886 384.425596 
L 219.494689 383.263966 
L 221.455598 382.822766 
L 223.610492 381.940384 
L 227.726295 380.502254 
L 231.842098 379.362076 
L 235.137125 378.706963 
L 235.957902 378.376357 
L 240.073705 378.435333 
L 240.688295 378.706963 
L 244.189508 380.571444 
L 246.283953 382.822766 
L 248.305311 386.38318 
L 248.619178 386.938569 
L 250.11848 391.054372 
L 250.665437 395.170175 
L 250.204526 399.285978 
L 248.305311 403.088608 
L 248.079254 403.401781 
L 244.189508 406.014098 
L 240.073705 405.997277 
L 235.957902 404.339194 
z
" style="fill:#0000fa;"/>
   </g>
   <g id="PathCollection_30">
    <path clip-path="url(#p335fbd88f7)" d="M 235.957902 404.339194 
L 240.073705 405.997277 
L 244.189508 406.014098 
L 248.079254 403.401781 
L 248.305311 403.088608 
L 250.204526 399.285978 
L 250.665437 395.170175 
L 250.11848 391.054372 
L 248.619178 386.938569 
L 248.305311 386.38318 
L 246.283953 382.822766 
L 244.189508 380.571444 
L 240.688295 378.706963 
L 240.073705 378.435333 
L 235.957902 378.376357 
L 235.137125 378.706963 
L 231.842098 379.362076 
L 227.726295 380.502254 
L 223.610492 381.940384 
L 221.455598 382.822766 
L 219.494689 383.263966 
L 215.378886 384.425596 
L 211.533609 386.938569 
L 211.263083 388.651534 
L 210.753486 391.054372 
L 211.263083 391.556849 
L 215.378886 394.530636 
L 216.842271 395.170175 
L 219.494689 396.39891 
L 223.610492 397.954241 
L 227.451001 399.285978 
L 227.726295 399.48149 
L 231.842098 402.091024 
L 234.744163 403.401781 
z
M 238.939459 403.401781 
L 235.957902 402.736103 
L 231.842098 400.952873 
L 229.267862 399.285978 
L 227.726295 398.696191 
L 223.610492 397.177845 
L 219.494689 395.239069 
L 219.345972 395.170175 
L 215.378886 393.436451 
L 212.346207 391.054372 
L 213.239342 386.938569 
L 215.378886 385.54033 
L 219.494689 383.979633 
L 223.610492 383.015432 
L 224.458792 382.822766 
L 227.726295 381.53713 
L 231.842098 380.422484 
L 235.957902 379.867703 
L 240.073705 380.542127 
L 243.311832 382.822766 
L 244.189508 383.846221 
L 246.269651 386.938569 
L 247.644569 391.054372 
L 248.001136 395.170175 
L 247.150216 399.285978 
L 244.189508 402.849472 
L 242.330177 403.401781 
L 240.073705 403.829282 
z
" style="fill:#0034ff;"/>
   </g>
   <g id="PathCollection_31">
    <path clip-path="url(#p335fbd88f7)" d="M 240.073705 403.829282 
L 242.330177 403.401781 
L 244.189508 402.849472 
L 247.150216 399.285978 
L 248.001136 395.170175 
L 247.644569 391.054372 
L 246.269651 386.938569 
L 244.189508 383.846221 
L 243.311832 382.822766 
L 240.073705 380.542127 
L 235.957902 379.867703 
L 231.842098 380.422484 
L 227.726295 381.53713 
L 224.458792 382.822766 
L 223.610492 383.015432 
L 219.494689 383.979633 
L 215.378886 385.54033 
L 213.239342 386.938569 
L 212.346207 391.054372 
L 215.378886 393.436451 
L 219.345972 395.170175 
L 219.494689 395.239069 
L 223.610492 397.177845 
L 227.726295 398.696191 
L 229.267862 399.285978 
L 231.842098 400.952873 
L 235.957902 402.736103 
L 238.939459 403.401781 
z
M 231.025542 399.285978 
L 227.726295 398.02372 
L 223.610492 396.401448 
L 221.026989 395.170175 
L 219.494689 394.50333 
L 215.378886 392.342265 
L 213.739239 391.054372 
L 214.945076 386.938569 
L 215.378886 386.655064 
L 219.494689 384.695299 
L 223.610492 383.612798 
L 227.088977 382.822766 
L 227.726295 382.572006 
L 231.842098 381.482892 
L 235.957902 381.239558 
L 240.073705 382.584309 
L 240.412274 382.822766 
L 244.025474 386.938569 
L 244.189508 387.38844 
L 245.607466 391.054372 
L 245.825598 395.170175 
L 244.326006 399.285978 
L 244.189508 399.450267 
L 240.073705 401.842314 
L 235.957902 401.451854 
L 231.842098 399.814723 
z
" style="fill:#0080ff;"/>
   </g>
   <g id="PathCollection_32">
    <path clip-path="url(#p335fbd88f7)" d="M 231.842098 399.814723 
L 235.957902 401.451854 
L 240.073705 401.842314 
L 244.189508 399.450267 
L 244.326006 399.285978 
L 245.825598 395.170175 
L 245.607466 391.054372 
L 244.189508 387.38844 
L 244.025474 386.938569 
L 240.412274 382.822766 
L 240.073705 382.584309 
L 235.957902 381.239558 
L 231.842098 381.482892 
L 227.726295 382.572006 
L 227.088977 382.822766 
L 223.610492 383.612798 
L 219.494689 384.695299 
L 215.378886 386.655064 
L 214.945076 386.938569 
L 213.739239 391.054372 
L 215.378886 392.342265 
L 219.494689 394.50333 
L 221.026989 395.170175 
L 223.610492 396.401448 
L 227.726295 398.02372 
L 231.025542 399.285978 
z
M 233.6456 399.285978 
L 231.842098 398.844175 
L 227.726295 397.351249 
L 223.610492 395.625052 
L 222.656053 395.170175 
L 219.494689 393.794373 
L 215.378886 391.24808 
L 215.132272 391.054372 
L 215.378886 390.264701 
L 216.444458 386.938569 
L 219.494689 385.410966 
L 223.610492 384.210165 
L 227.726295 383.311342 
L 230.779952 382.822766 
L 231.842098 382.5433 
L 235.957902 382.611413 
L 236.569198 382.822766 
L 240.073705 384.695542 
L 242.105137 386.938569 
L 243.679877 391.054372 
L 243.706747 395.170175 
L 241.099678 399.285978 
L 240.073705 399.89981 
L 235.957902 400.167604 
z
" style="fill:#00c8ff;"/>
   </g>
   <g id="PathCollection_33">
    <path clip-path="url(#p335fbd88f7)" d="M 235.957902 400.167604 
L 240.073705 399.89981 
L 241.099678 399.285978 
L 243.706747 395.170175 
L 243.679877 391.054372 
L 242.105137 386.938569 
L 240.073705 384.695542 
L 236.569198 382.822766 
L 235.957902 382.611413 
L 231.842098 382.5433 
L 230.779952 382.822766 
L 227.726295 383.311342 
L 223.610492 384.210165 
L 219.494689 385.410966 
L 216.444458 386.938569 
L 215.378886 390.264701 
L 215.132272 391.054372 
L 215.378886 391.24808 
L 219.494689 393.794373 
L 222.656053 395.170175 
L 223.610492 395.625052 
L 227.726295 397.351249 
L 231.842098 398.844175 
L 233.6456 399.285978 
z
M 224.25186 395.170175 
L 223.610492 394.903413 
L 219.494689 393.085416 
L 216.297365 391.054372 
L 217.87346 386.938569 
L 219.494689 386.126632 
L 223.610492 384.807532 
L 227.726295 383.956164 
L 231.842098 383.458366 
L 235.957902 383.93975 
L 240.073705 386.815903 
L 240.184799 386.938569 
L 242.003098 391.054372 
L 241.759824 395.170175 
L 240.073705 397.469764 
L 235.957902 398.861605 
L 231.842098 398.019046 
L 227.726295 396.678778 
z
" style="fill:#23ffd4;"/>
   </g>
   <g id="PathCollection_34">
    <path clip-path="url(#p335fbd88f7)" d="M 227.726295 396.678778 
L 231.842098 398.019046 
L 235.957902 398.861605 
L 240.073705 397.469764 
L 241.759824 395.170175 
L 242.003098 391.054372 
L 240.184799 386.938569 
L 240.073705 386.815903 
L 235.957902 383.93975 
L 231.842098 383.458366 
L 227.726295 383.956164 
L 223.610492 384.807532 
L 219.494689 386.126632 
L 217.87346 386.938569 
L 216.297365 391.054372 
L 219.494689 393.085416 
L 223.610492 394.903413 
L 224.25186 395.170175 
z
M 225.800615 395.170175 
L 223.610492 394.259243 
L 219.494689 392.37646 
L 217.413423 391.054372 
L 219.302463 386.938569 
L 219.494689 386.842299 
L 223.610492 385.404899 
L 227.726295 384.600987 
L 231.842098 384.321421 
L 235.957902 385.260161 
L 238.321686 386.938569 
L 240.073705 390.486967 
L 240.326318 391.054372 
L 240.073705 393.233 
L 239.777449 395.170175 
L 235.957902 397.507983 
L 231.842098 397.193916 
L 227.726295 396.006307 
z
" style="fill:#5dff9a;"/>
   </g>
   <g id="PathCollection_35">
    <path clip-path="url(#p335fbd88f7)" d="M 227.726295 396.006307 
L 231.842098 397.193916 
L 235.957902 397.507983 
L 239.777449 395.170175 
L 240.073705 393.233 
L 240.326318 391.054372 
L 240.073705 390.486967 
L 238.321686 386.938569 
L 235.957902 385.260161 
L 231.842098 384.321421 
L 227.726295 384.600987 
L 223.610492 385.404899 
L 219.494689 386.842299 
L 219.302463 386.938569 
L 217.413423 391.054372 
L 219.494689 392.37646 
L 223.610492 394.259243 
L 225.800615 395.170175 
z
M 227.34937 395.170175 
L 223.610492 393.615074 
L 219.494689 391.667503 
L 218.529482 391.054372 
L 219.494689 388.997239 
L 220.958869 386.938569 
L 223.610492 386.002266 
L 227.726295 385.245809 
L 231.842098 385.184476 
L 235.957902 386.580572 
L 236.462086 386.938569 
L 238.761316 391.054372 
L 237.565879 395.170175 
L 235.957902 396.15436 
L 231.842098 396.368787 
L 227.726295 395.333836 
z
" style="fill:#9aff5d;"/>
   </g>
   <g id="PathCollection_36">
    <path clip-path="url(#p335fbd88f7)" d="M 227.726295 395.333836 
L 231.842098 396.368787 
L 235.957902 396.15436 
L 237.565879 395.170175 
L 238.761316 391.054372 
L 236.462086 386.938569 
L 235.957902 386.580572 
L 231.842098 385.184476 
L 227.726295 385.245809 
L 223.610492 386.002266 
L 220.958869 386.938569 
L 219.494689 388.997239 
L 218.529482 391.054372 
L 219.494689 391.667503 
L 223.610492 393.615074 
L 227.34937 395.170175 
z
M 230.301527 395.170175 
L 227.726295 394.533213 
L 223.610492 392.970905 
L 219.673546 391.054372 
L 222.650621 386.938569 
L 223.610492 386.599633 
L 227.726295 385.890631 
L 231.842098 386.047531 
L 234.254667 386.938569 
L 235.957902 388.882549 
L 237.216141 391.054372 
L 235.957902 394.13699 
L 234.409708 395.170175 
L 231.842098 395.543657 
z
" style="fill:#d4ff23;"/>
   </g>
   <g id="PathCollection_37">
    <path clip-path="url(#p335fbd88f7)" d="M 231.842098 395.543657 
L 234.409708 395.170175 
L 235.957902 394.13699 
L 237.216141 391.054372 
L 235.957902 388.882549 
L 234.254667 386.938569 
L 231.842098 386.047531 
L 227.726295 385.890631 
L 223.610492 386.599633 
L 222.650621 386.938569 
L 219.673546 391.054372 
L 223.610492 392.970905 
L 227.726295 394.533213 
L 230.301527 395.170175 
z
M 220.996801 391.054372 
L 223.610492 387.678063 
L 225.293806 386.938569 
L 227.726295 386.535454 
L 231.842098 386.910585 
L 231.917867 386.938569 
L 235.62721 391.054372 
L 231.842098 394.32732 
L 227.726295 393.691368 
L 223.610492 392.326735 
z
" style="fill:#ffdb00;"/>
   </g>
   <g id="PathCollection_38">
    <path clip-path="url(#p335fbd88f7)" d="M 223.610492 392.326735 
L 227.726295 393.691368 
L 231.842098 394.32732 
L 235.62721 391.054372 
L 231.917867 386.938569 
L 231.842098 386.910585 
L 227.726295 386.535454 
L 225.293806 386.938569 
L 223.610492 387.678063 
L 220.996801 391.054372 
z
M 222.320055 391.054372 
L 223.610492 389.387413 
L 227.726295 387.553898 
L 231.842098 388.84119 
L 233.84641 391.054372 
L 231.842098 392.78748 
L 227.726295 392.849523 
L 223.610492 391.682566 
z
" style="fill:#ff9400;"/>
   </g>
   <g id="PathCollection_39">
    <path clip-path="url(#p335fbd88f7)" d="M 223.610492 391.682566 
L 227.726295 392.849523 
L 231.842098 392.78748 
L 233.84641 391.054372 
L 231.842098 388.84119 
L 227.726295 387.553898 
L 223.610492 389.387413 
L 222.320055 391.054372 
z
M 223.698699 391.054372 
L 227.726295 389.195462 
L 231.842098 390.807569 
L 232.06561 391.054372 
L 231.842098 391.24764 
L 227.726295 392.007679 
z
" style="fill:#ff5200;"/>
   </g>
   <g id="PathCollection_40">
    <path clip-path="url(#p335fbd88f7)" d="M 227.726295 392.007679 
L 231.842098 391.24764 
L 232.06561 391.054372 
L 231.842098 390.807569 
L 227.726295 389.195462 
L 223.698699 391.054372 
z
M 227.255384 391.054372 
L 227.726295 390.837026 
L 228.267506 391.054372 
L 227.726295 391.165834 
z
" style="fill:#fa0f00;"/>
   </g>
   <g id="PathCollection_41">
    <path clip-path="url(#p335fbd88f7)" d="M 227.726295 391.165834 
L 228.267506 391.054372 
L 227.726295 390.837026 
L 227.255384 391.054372 
z
" style="fill:#a80000;"/>
   </g>
   <g id="patch_23">
    <path d="M 168.252941 454.22 
L 168.252941 323.772941 
" style="fill:none;stroke:#000000;stroke-linecap:square;stroke-linejoin:miter;stroke-width:0.5;"/>
   </g>
   <g id="patch_24">
    <path d="M 299.547059 454.22 
L 299.547059 323.772941 
" style="fill:none;stroke:#000000;stroke-linecap:square;stroke-linejoin:miter;stroke-width:0.5;"/>
   </g>
   <g id="patch_25">
    <path d="M 168.252941 454.22 
L 299.547059 454.22 
" style="fill:none;stroke:#000000;stroke-linecap:square;stroke-linejoin:miter;stroke-width:0.5;"/>
   </g>
   <g id="patch_26">
    <path d="M 168.252941 323.772941 
L 299.547059 323.772941 
" style="fill:none;stroke:#000000;stroke-linecap:square;stroke-linejoin:miter;stroke-width:0.5;"/>
   </g>
  </g>
  <g id="axes_6">
   <g id="patch_27">
    <path d="M 325.805882 454.22 
L 457.1 454.22 
L 457.1 323.772941 
L 325.805882 323.772941 
z
" style="fill:#ffffff;"/>
   </g>
   <g id="line2d_5">
    <path clip-path="url(#pd3a19ab9a8)" d="M 331.773797 448.290588 
L 335.8896 448.290588 
L 340.005403 448.290588 
L 344.121206 448.290588 
L 348.237009 448.290584 
L 352.352812 448.290479 
L 356.468615 448.288581 
L 360.584418 448.264463 
L 364.700221 448.048996 
L 368.816024 446.704128 
L 372.931827 440.90737 
L 377.04763 424.027254 
L 381.163434 392.114612 
L 385.279237 356.292363 
L 389.39504 340.483102 
L 393.510843 356.696115 
L 397.626646 391.524182 
L 401.742449 422.748847 
L 405.858252 440.046064 
L 409.974055 446.403335 
L 414.089858 447.985993 
L 418.205661 448.255931 
L 422.321464 448.287802 
L 426.437267 448.29043 
L 430.55307 448.290582 
L 434.668873 448.290588 
L 438.784676 448.290588 
L 442.900479 448.290588 
L 447.016283 448.290588 
L 451.132086 448.290588 
" style="fill:none;stroke:#1f77b4;stroke-linecap:square;stroke-width:1.5;"/>
   </g>
   <g id="line2d_6">
    <path clip-path="url(#pd3a19ab9a8)" d="M 331.773797 329.702353 
" style="fill:none;stroke:#ffffff;stroke-linecap:square;stroke-width:1.5;"/>
   </g>
   <g id="patch_28">
    <path d="M 325.805882 454.22 
L 325.805882 323.772941 
" style="fill:none;stroke:#000000;stroke-linecap:square;stroke-linejoin:miter;stroke-width:0.5;"/>
   </g>
   <g id="patch_29">
    <path d="M 457.1 454.22 
L 457.1 323.772941 
" style="fill:none;stroke:#000000;stroke-linecap:square;stroke-linejoin:miter;stroke-width:0.5;"/>
   </g>
   <g id="patch_30">
    <path d="M 325.805882 454.22 
L 457.1 454.22 
" style="fill:none;stroke:#000000;stroke-linecap:square;stroke-linejoin:miter;stroke-width:0.5;"/>
   </g>
   <g id="patch_31">
    <path d="M 325.805882 323.772941 
L 457.1 323.772941 
" style="fill:none;stroke:#000000;stroke-linecap:square;stroke-linejoin:miter;stroke-width:0.5;"/>
   </g>
  </g>
 </g>
 <defs>
  <clipPath id="pde5239fe0b">
   <rect height="130.447059" width="131.294118" x="10.7" y="10.7"/>
  </clipPath>
  <clipPath id="pefd1dee003">
   <rect height="130.447059" width="131.294118" x="10.7" y="167.236471"/>
  </clipPath>
  <clipPath id="p2341fcfc11">
   <rect height="130.447059" width="131.294118" x="168.252941" y="167.236471"/>
  </clipPath>
  <clipPath id="pb9df1de1d3">
   <rect height="130.447059" width="131.294118" x="10.7" y="323.772941"/>
  </clipPath>
  <clipPath id="p335fbd88f7">
   <rect height="130.447059" width="131.294118" x="168.252941" y="323.772941"/>
  </clipPath>
  <clipPath id="pd3a19ab9a8">
   <rect height="130.447059" width="131.294118" x="325.805882" y="323.772941"/>
  </clipPath>
 </defs>
</svg>
