<?xml version="1.0" encoding="utf-8" standalone="no"?>
<!DOCTYPE svg PUBLIC "-//W3C//DTD SVG 1.1//EN"
  "http://www.w3.org/Graphics/SVG/1.1/DTD/svg11.dtd">
<!-- Created with matplotlib (http://matplotlib.org/) -->
<svg height="464pt" version="1.1" viewBox="0 0 467 464" width="467pt" xmlns="http://www.w3.org/2000/svg" xmlns:xlink="http://www.w3.org/1999/xlink">
 <defs>
  <style type="text/css">
*{stroke-linecap:butt;stroke-linejoin:round;}
  </style>
 </defs>
 <g id="figure_1">
  <g id="patch_1">
   <path d="M 0 464.92 
L 467.8 464.92 
L 467.8 0 
L 0 0 
z
" style="fill:#ffffff;"/>
  </g>
  <g id="axes_1">
   <g id="patch_2">
    <path d="M 10.7 141.147059 
L 141.994118 141.147059 
L 141.994118 10.7 
L 10.7 10.7 
z
" style="fill:#ffffff;"/>
   </g>
   <g id="line2d_1">
    <path clip-path="url(#p909d57eba9)" d="M 16.667914 135.217647 
L 20.783717 135.217647 
L 24.899521 135.217647 
L 29.015324 135.217647 
L 33.131127 135.217647 
L 37.24693 135.217645 
L 41.362733 135.21759 
L 45.478536 135.216516 
L 49.594339 135.200933 
L 53.710142 135.02825 
L 57.825945 133.64123 
L 61.941748 126.323238 
L 66.057551 103.190658 
L 70.173354 62.28737 
L 74.289157 27.41016 
L 78.40496 29.353035 
L 82.520763 66.910472 
L 86.636566 107.853281 
L 90.75237 128.988381 
L 94.868173 134.470052 
L 98.983976 135.170347 
L 103.099779 135.215882 
L 107.215582 135.217599 
L 111.331385 135.217646 
L 115.447188 135.217647 
L 119.562991 135.217647 
L 123.678794 135.217647 
L 127.794597 135.217647 
L 131.9104 135.217647 
L 136.026203 135.217647 
" style="fill:none;stroke:#1f77b4;stroke-linecap:square;stroke-width:1.5;"/>
   </g>
   <g id="line2d_2">
    <path clip-path="url(#p909d57eba9)" d="M 16.667914 16.629412 
" style="fill:none;stroke:#ffffff;stroke-linecap:square;stroke-width:1.5;"/>
   </g>
   <g id="patch_3">
    <path d="M 10.7 141.147059 
L 10.7 10.7 
" style="fill:none;stroke:#000000;stroke-linecap:square;stroke-linejoin:miter;stroke-width:0.5;"/>
   </g>
   <g id="patch_4">
    <path d="M 141.994118 141.147059 
L 141.994118 10.7 
" style="fill:none;stroke:#000000;stroke-linecap:square;stroke-linejoin:miter;stroke-width:0.5;"/>
   </g>
   <g id="patch_5">
    <path d="M 10.7 141.147059 
L 141.994118 141.147059 
" style="fill:none;stroke:#000000;stroke-linecap:square;stroke-linejoin:miter;stroke-width:0.5;"/>
   </g>
   <g id="patch_6">
    <path d="M 10.7 10.7 
L 141.994118 10.7 
" style="fill:none;stroke:#000000;stroke-linecap:square;stroke-linejoin:miter;stroke-width:0.5;"/>
   </g>
  </g>
  <g id="axes_2">
   <g id="patch_7">
    <path d="M 10.7 297.683529 
L 141.994118 297.683529 
L 141.994118 167.236471 
L 10.7 167.236471 
z
" style="fill:#ffffff;"/>
   </g>
   <g id="PathCollection_1">
    <path clip-path="url(#p805bdf50f9)" d="M 20.783717 292.139144 
L 24.899521 292.139144 
L 29.015324 292.139144 
L 33.131127 292.139144 
L 37.24693 292.139144 
L 41.362733 292.139144 
L 45.478536 292.139144 
L 49.594339 292.139144 
L 53.710142 292.139144 
L 57.825945 292.139144 
L 61.941748 292.139144 
L 66.057551 292.139144 
L 70.173354 292.139144 
L 74.289157 292.139144 
L 78.40496 292.139144 
L 82.520763 292.139144 
L 86.636566 292.139144 
L 90.75237 292.139144 
L 94.868173 292.139144 
L 98.983976 292.139144 
L 103.099779 292.139144 
L 107.215582 292.139144 
L 111.331385 292.139144 
L 115.447188 292.139144 
L 119.562991 292.139144 
L 123.678794 292.139144 
L 127.794597 292.139144 
L 131.9104 292.139144 
L 136.026203 292.139144 
L 136.026203 288.023341 
L 136.026203 283.907538 
L 136.026203 279.791735 
L 136.026203 275.675932 
L 136.026203 271.560129 
L 136.026203 267.444326 
L 136.026203 263.328523 
L 136.026203 259.21272 
L 136.026203 255.096917 
L 136.026203 250.981114 
L 136.026203 246.865311 
L 136.026203 242.749508 
L 136.026203 238.633705 
L 136.026203 234.517902 
L 136.026203 230.402098 
L 136.026203 226.286295 
L 136.026203 222.170492 
L 136.026203 218.054689 
L 136.026203 213.938886 
L 136.026203 209.823083 
L 136.026203 205.70728 
L 136.026203 201.591477 
L 136.026203 197.475674 
L 136.026203 193.359871 
L 136.026203 189.244068 
L 136.026203 185.128265 
L 136.026203 181.012462 
L 136.026203 176.896659 
L 136.026203 172.780856 
L 131.9104 172.780856 
L 127.794597 172.780856 
L 123.678794 172.780856 
L 119.562991 172.780856 
L 115.447188 172.780856 
L 111.331385 172.780856 
L 107.215582 172.780856 
L 103.099779 172.780856 
L 98.983976 172.780856 
L 94.868173 172.780856 
L 90.75237 172.780856 
L 86.636566 172.780856 
L 82.520763 172.780856 
L 78.40496 172.780856 
L 74.289157 172.780856 
L 70.173354 172.780856 
L 66.057551 172.780856 
L 61.941748 172.780856 
L 57.825945 172.780856 
L 53.710142 172.780856 
L 49.594339 172.780856 
L 45.478536 172.780856 
L 41.362733 172.780856 
L 37.24693 172.780856 
L 33.131127 172.780856 
L 29.015324 172.780856 
L 24.899521 172.780856 
L 20.783717 172.780856 
L 16.667914 172.780856 
L 16.667914 176.896659 
L 16.667914 181.012462 
L 16.667914 185.128265 
L 16.667914 189.244068 
L 16.667914 193.359871 
L 16.667914 197.475674 
L 16.667914 201.591477 
L 16.667914 205.70728 
L 16.667914 209.823083 
L 16.667914 213.938886 
L 16.667914 218.054689 
L 16.667914 222.170492 
L 16.667914 226.286295 
L 16.667914 230.402098 
L 16.667914 234.517902 
L 16.667914 238.633705 
L 16.667914 242.749508 
L 16.667914 246.865311 
L 16.667914 250.981114 
L 16.667914 255.096917 
L 16.667914 259.21272 
L 16.667914 263.328523 
L 16.667914 267.444326 
L 16.667914 271.560129 
L 16.667914 275.675932 
L 16.667914 279.791735 
L 16.667914 283.907538 
L 16.667914 288.023341 
L 16.667914 292.139144 
z
M 70.346757 259.21272 
L 70.173354 258.947717 
L 68.290243 255.096917 
L 67.279627 250.981114 
L 66.632621 246.865311 
L 66.057551 242.994113 
L 65.916454 242.749508 
L 63.517588 238.633705 
L 62.192728 234.517902 
L 61.941748 233.499415 
L 60.095755 230.402098 
L 59.376923 226.286295 
L 60.223965 222.170492 
L 61.941748 219.738175 
L 63.063534 218.054689 
L 66.057551 215.305027 
L 68.321033 213.938886 
L 70.173354 212.656561 
L 74.289157 210.916493 
L 78.40496 210.146859 
L 82.520763 210.079692 
L 86.636566 211.219988 
L 89.643268 213.938886 
L 90.75237 215.977546 
L 91.764732 218.054689 
L 92.620639 222.170492 
L 92.49635 226.286295 
L 91.276786 230.402098 
L 90.75237 231.27803 
L 90.046118 234.517902 
L 88.609405 238.633705 
L 86.636566 241.69464 
L 86.389992 242.749508 
L 85.518127 246.865311 
L 84.133142 250.981114 
L 82.520763 254.140635 
L 82.231476 255.096917 
L 80.508118 259.21272 
L 78.40496 261.933679 
L 74.289157 263.03117 
z
" style="fill:#ffffff;"/>
   </g>
   <g id="PathCollection_2">
    <path clip-path="url(#p805bdf50f9)" d="M 74.289157 263.03117 
L 78.40496 261.933679 
L 80.508118 259.21272 
L 82.231476 255.096917 
L 82.520763 254.140635 
L 84.133142 250.981114 
L 85.518127 246.865311 
L 86.389992 242.749508 
L 86.636566 241.69464 
L 88.609405 238.633705 
L 90.046118 234.517902 
L 90.75237 231.27803 
L 91.276786 230.402098 
L 92.49635 226.286295 
L 92.620639 222.170492 
L 91.764732 218.054689 
L 90.75237 215.977546 
L 89.643268 213.938886 
L 86.636566 211.219988 
L 82.520763 210.079692 
L 78.40496 210.146859 
L 74.289157 210.916493 
L 70.173354 212.656561 
L 68.321033 213.938886 
L 66.057551 215.305027 
L 63.063534 218.054689 
L 61.941748 219.738175 
L 60.223965 222.170492 
L 59.376923 226.286295 
L 60.095755 230.402098 
L 61.941748 233.499415 
L 62.192728 234.517902 
L 63.517588 238.633705 
L 65.916454 242.749508 
L 66.057551 242.994113 
L 66.632621 246.865311 
L 67.279627 250.981114 
L 68.290243 255.096917 
L 70.173354 258.947717 
L 70.346757 259.21272 
z
M 73.918029 259.21272 
L 70.654166 255.096917 
L 70.173354 253.96496 
L 68.908845 250.981114 
L 67.714831 246.865311 
L 66.819897 242.749508 
L 66.057551 239.316959 
L 65.647771 238.633705 
L 63.619113 234.517902 
L 62.552627 230.402098 
L 62.283081 226.286295 
L 63.355858 222.170492 
L 66.057551 218.862921 
L 66.931628 218.054689 
L 70.173354 215.587206 
L 74.289157 214.005748 
L 74.728849 213.938886 
L 78.40496 213.053957 
L 82.520763 213.564344 
L 83.247862 213.938886 
L 86.636566 216.155792 
L 88.059028 218.054689 
L 89.588295 222.170492 
L 89.908289 226.286295 
L 89.509093 230.402098 
L 88.452194 234.517902 
L 86.636566 237.943593 
L 86.474808 238.633705 
L 85.461417 242.749508 
L 83.991239 246.865311 
L 82.520763 249.716943 
L 82.126408 250.981114 
L 80.563604 255.096917 
L 78.40496 258.236404 
L 75.133768 259.21272 
L 74.289157 259.57218 
z
" style="fill:#0000a4;"/>
   </g>
   <g id="PathCollection_3">
    <path clip-path="url(#p805bdf50f9)" d="M 74.289157 259.57218 
L 75.133768 259.21272 
L 78.40496 258.236404 
L 80.563604 255.096917 
L 82.126408 250.981114 
L 82.520763 249.716943 
L 83.991239 246.865311 
L 85.461417 242.749508 
L 86.474808 238.633705 
L 86.636566 237.943593 
L 88.452194 234.517902 
L 89.509093 230.402098 
L 89.908289 226.286295 
L 89.588295 222.170492 
L 88.059028 218.054689 
L 86.636566 216.155792 
L 83.247862 213.938886 
L 82.520763 213.564344 
L 78.40496 213.053957 
L 74.728849 213.938886 
L 74.289157 214.005748 
L 70.173354 215.587206 
L 66.931628 218.054689 
L 66.057551 218.862921 
L 63.355858 222.170492 
L 62.283081 226.286295 
L 62.552627 230.402098 
L 63.619113 234.517902 
L 65.647771 238.633705 
L 66.057551 239.316959 
L 66.819897 242.749508 
L 67.714831 246.865311 
L 68.908845 250.981114 
L 70.173354 253.96496 
L 70.654166 255.096917 
L 73.918029 259.21272 
z
M 72.287138 255.096917 
L 70.376135 250.981114 
L 70.173354 250.365084 
L 68.797041 246.865311 
L 67.608729 242.749508 
L 66.59681 238.633705 
L 66.057551 236.442727 
L 65.045498 234.517902 
L 63.866618 230.402098 
L 63.852258 226.286295 
L 65.659787 222.170492 
L 66.057551 221.683526 
L 69.982021 218.054689 
L 70.173354 217.909054 
L 74.289157 215.842151 
L 78.40496 215.247708 
L 82.520763 216.170569 
L 84.862377 218.054689 
L 86.636566 220.556849 
L 87.430895 222.170492 
L 88.299983 226.286295 
L 88.09661 230.402098 
L 86.85827 234.517902 
L 86.636566 234.936208 
L 85.769891 238.633705 
L 84.532842 242.749508 
L 82.520763 246.796311 
L 82.497915 246.865311 
L 81.202722 250.981114 
L 78.895733 255.096917 
L 78.40496 255.810687 
L 74.289157 257.474758 
z
" style="fill:#0000f1;"/>
   </g>
   <g id="PathCollection_4">
    <path clip-path="url(#p805bdf50f9)" d="M 74.289157 257.474758 
L 78.40496 255.810687 
L 78.895733 255.096917 
L 81.202722 250.981114 
L 82.497915 246.865311 
L 82.520763 246.796311 
L 84.532842 242.749508 
L 85.769891 238.633705 
L 86.636566 234.936208 
L 86.85827 234.517902 
L 88.09661 230.402098 
L 88.299983 226.286295 
L 87.430895 222.170492 
L 86.636566 220.556849 
L 84.862377 218.054689 
L 82.520763 216.170569 
L 78.40496 215.247708 
L 74.289157 215.842151 
L 70.173354 217.909054 
L 69.982021 218.054689 
L 66.057551 221.683526 
L 65.659787 222.170492 
L 63.852258 226.286295 
L 63.866618 230.402098 
L 65.045498 234.517902 
L 66.057551 236.442727 
L 66.59681 238.633705 
L 67.608729 242.749508 
L 68.797041 246.865311 
L 70.173354 250.365084 
L 70.376135 250.981114 
L 72.287138 255.096917 
z
M 73.920111 255.096917 
L 71.281989 250.981114 
L 70.173354 247.613174 
L 69.879251 246.865311 
L 68.397561 242.749508 
L 67.264514 238.633705 
L 66.256872 234.517902 
L 66.057551 233.269766 
L 65.18061 230.402098 
L 65.421434 226.286295 
L 66.057551 224.932822 
L 67.538534 222.170492 
L 70.173354 219.655887 
L 73.551038 218.054689 
L 74.289157 217.678555 
L 78.40496 217.129289 
L 81.146697 218.054689 
L 82.520763 218.57911 
L 85.515604 222.170492 
L 86.636566 226.07456 
L 86.691677 226.286295 
L 86.684127 230.402098 
L 86.636566 230.557016 
L 86.040226 234.517902 
L 85.064975 238.633705 
L 83.604267 242.749508 
L 82.520763 244.92871 
L 81.879465 246.865311 
L 80.279036 250.981114 
L 78.40496 254.034728 
L 75.287453 255.096917 
L 74.289157 255.535241 
z
" style="fill:#0028ff;"/>
   </g>
   <g id="PathCollection_5">
    <path clip-path="url(#p805bdf50f9)" d="M 74.289157 255.535241 
L 75.287453 255.096917 
L 78.40496 254.034728 
L 80.279036 250.981114 
L 81.879465 246.865311 
L 82.520763 244.92871 
L 83.604267 242.749508 
L 85.064975 238.633705 
L 86.040226 234.517902 
L 86.636566 230.557016 
L 86.684127 230.402098 
L 86.691677 226.286295 
L 86.636566 226.07456 
L 85.515604 222.170492 
L 82.520763 218.57911 
L 81.146697 218.054689 
L 78.40496 217.129289 
L 74.289157 217.678555 
L 73.551038 218.054689 
L 70.173354 219.655887 
L 67.538534 222.170492 
L 66.057551 224.932822 
L 65.421434 226.286295 
L 65.18061 230.402098 
L 66.057551 233.269766 
L 66.256872 234.517902 
L 67.264514 238.633705 
L 68.397561 242.749508 
L 69.879251 246.865311 
L 70.173354 247.613174 
L 71.281989 250.981114 
L 73.920111 255.096917 
z
M 72.187844 250.981114 
L 70.627313 246.865311 
L 70.173354 245.351077 
L 69.186392 242.749508 
L 67.932219 238.633705 
L 66.943059 234.517902 
L 66.337936 230.402098 
L 66.755794 226.286295 
L 69.328557 222.170492 
L 70.173354 221.364239 
L 74.289157 219.152351 
L 78.40496 218.805228 
L 82.520763 220.706714 
L 83.741403 222.170492 
L 85.521261 226.286295 
L 85.828754 230.402098 
L 85.347538 234.517902 
L 84.360058 238.633705 
L 82.675692 242.749508 
L 82.520763 243.061109 
L 81.261016 246.865311 
L 79.35535 250.981114 
L 78.40496 252.529676 
L 74.289157 254.067198 
z
" style="fill:#006cff;"/>
   </g>
   <g id="PathCollection_6">
    <path clip-path="url(#p805bdf50f9)" d="M 74.289157 254.067198 
L 78.40496 252.529676 
L 79.35535 250.981114 
L 81.261016 246.865311 
L 82.520763 243.061109 
L 82.675692 242.749508 
L 84.360058 238.633705 
L 85.347538 234.517902 
L 85.828754 230.402098 
L 85.521261 226.286295 
L 83.741403 222.170492 
L 82.520763 220.706714 
L 78.40496 218.805228 
L 74.289157 219.152351 
L 70.173354 221.364239 
L 69.328557 222.170492 
L 66.755794 226.286295 
L 66.337936 230.402098 
L 66.943059 234.517902 
L 67.932219 238.633705 
L 69.186392 242.749508 
L 70.173354 245.351077 
L 70.627313 246.865311 
L 72.187844 250.981114 
z
M 73.093699 250.981114 
L 71.250679 246.865311 
L 70.173354 243.271766 
L 69.975224 242.749508 
L 68.599923 238.633705 
L 67.629246 234.517902 
L 67.180914 230.402098 
L 67.930066 226.286295 
L 70.173354 223.061792 
L 71.441 222.170492 
L 74.289157 220.532746 
L 78.40496 220.282147 
L 81.71341 222.170492 
L 82.520763 222.842787 
L 84.366381 226.286295 
L 84.992793 230.402098 
L 84.65485 234.517902 
L 83.655142 238.633705 
L 82.520763 241.345516 
L 82.088527 242.749508 
L 80.642567 246.865311 
L 78.431664 250.981114 
L 78.40496 251.024624 
L 74.289157 252.736819 
z
" style="fill:#00b0ff;"/>
   </g>
   <g id="PathCollection_7">
    <path clip-path="url(#p805bdf50f9)" d="M 74.289157 252.736819 
L 78.40496 251.024624 
L 78.431664 250.981114 
L 80.642567 246.865311 
L 82.088527 242.749508 
L 82.520763 241.345516 
L 83.655142 238.633705 
L 84.65485 234.517902 
L 84.992793 230.402098 
L 84.366381 226.286295 
L 82.520763 222.842787 
L 81.71341 222.170492 
L 78.40496 220.282147 
L 74.289157 220.532746 
L 71.441 222.170492 
L 70.173354 223.061792 
L 67.930066 226.286295 
L 67.180914 230.402098 
L 67.629246 234.517902 
L 68.599923 238.633705 
L 69.975224 242.749508 
L 70.173354 243.271766 
L 71.250679 246.865311 
L 73.093699 250.981114 
z
M 73.999554 250.981114 
L 71.874045 246.865311 
L 70.575065 242.749508 
L 70.173354 241.285571 
L 69.267627 238.633705 
L 68.315433 234.517902 
L 68.023892 230.402098 
L 69.104339 226.286295 
L 70.173354 224.749692 
L 73.841606 222.170492 
L 74.289157 221.913142 
L 78.40496 221.759066 
L 79.125794 222.170492 
L 82.520763 224.997532 
L 83.211502 226.286295 
L 84.156832 230.402098 
L 83.962162 234.517902 
L 82.950225 238.633705 
L 82.520763 239.660363 
L 81.569731 242.749508 
L 80.024118 246.865311 
L 78.40496 249.867541 
L 75.308554 250.981114 
L 74.289157 251.406439 
z
" style="fill:#0cf4eb;"/>
   </g>
   <g id="PathCollection_8">
    <path clip-path="url(#p805bdf50f9)" d="M 74.289157 251.406439 
L 75.308554 250.981114 
L 78.40496 249.867541 
L 80.024118 246.865311 
L 81.569731 242.749508 
L 82.520763 239.660363 
L 82.950225 238.633705 
L 83.962162 234.517902 
L 84.156832 230.402098 
L 83.211502 226.286295 
L 82.520763 224.997532 
L 79.125794 222.170492 
L 78.40496 221.759066 
L 74.289157 221.913142 
L 73.841606 222.170492 
L 70.173354 224.749692 
L 69.104339 226.286295 
L 68.023892 230.402098 
L 68.315433 234.517902 
L 69.267627 238.633705 
L 70.173354 241.285571 
L 70.575065 242.749508 
L 71.874045 246.865311 
L 73.999554 250.981114 
z
M 72.497412 246.865311 
L 71.111517 242.749508 
L 70.173354 239.330609 
L 69.935331 238.633705 
L 69.001619 234.517902 
L 68.86687 230.402098 
L 70.173354 226.51132 
L 70.317662 226.286295 
L 74.289157 223.191236 
L 78.40496 223.139854 
L 81.917857 226.286295 
L 82.520763 227.503451 
L 83.320871 230.402098 
L 83.269474 234.517902 
L 82.520763 237.540841 
L 82.306933 238.633705 
L 81.050935 242.749508 
L 79.405669 246.865311 
L 78.40496 248.720817 
L 74.289157 250.193411 
z
" style="fill:#43ffb4;"/>
   </g>
   <g id="PathCollection_9">
    <path clip-path="url(#p805bdf50f9)" d="M 74.289157 250.193411 
L 78.40496 248.720817 
L 79.405669 246.865311 
L 81.050935 242.749508 
L 82.306933 238.633705 
L 82.520763 237.540841 
L 83.269474 234.517902 
L 83.320871 230.402098 
L 82.520763 227.503451 
L 81.917857 226.286295 
L 78.40496 223.139854 
L 74.289157 223.191236 
L 70.317662 226.286295 
L 70.173354 226.51132 
L 68.86687 230.402098 
L 69.001619 234.517902 
L 69.935331 238.633705 
L 70.173354 239.330609 
L 71.111517 242.749508 
L 72.497412 246.865311 
z
M 73.120778 246.865311 
L 71.647968 242.749508 
L 70.541862 238.633705 
L 70.173354 236.673409 
L 69.687806 234.517902 
L 69.709847 230.402098 
L 70.173354 229.021752 
L 71.927596 226.286295 
L 74.289157 224.445887 
L 78.40496 224.483522 
L 80.417697 226.286295 
L 82.478883 230.402098 
L 82.520763 231.828375 
L 82.576785 234.517902 
L 82.520763 234.744092 
L 81.759719 238.633705 
L 80.532139 242.749508 
L 78.78722 246.865311 
L 78.40496 247.574094 
L 74.289157 249.035532 
z
" style="fill:#7dff7a;"/>
   </g>
   <g id="PathCollection_10">
    <path clip-path="url(#p805bdf50f9)" d="M 74.289157 249.035532 
L 78.40496 247.574094 
L 78.78722 246.865311 
L 80.532139 242.749508 
L 81.759719 238.633705 
L 82.520763 234.744092 
L 82.576785 234.517902 
L 82.520763 231.828375 
L 82.478883 230.402098 
L 80.417697 226.286295 
L 78.40496 224.483522 
L 74.289157 224.445887 
L 71.927596 226.286295 
L 70.173354 229.021752 
L 69.709847 230.402098 
L 69.687806 234.517902 
L 70.173354 236.673409 
L 70.541862 238.633705 
L 71.647968 242.749508 
L 73.120778 246.865311 
z
M 73.744144 246.865311 
L 72.184419 242.749508 
L 71.114505 238.633705 
L 70.388098 234.517902 
L 70.652478 230.402098 
L 73.53753 226.286295 
L 74.289157 225.700538 
L 78.40496 225.827189 
L 78.917537 226.286295 
L 81.502409 230.402098 
L 81.885677 234.517902 
L 81.212505 238.633705 
L 80.013344 242.749508 
L 78.40496 246.413906 
L 77.1537 246.865311 
L 74.289157 247.877653 
z
" style="fill:#b4ff43;"/>
   </g>
   <g id="PathCollection_11">
    <path clip-path="url(#p805bdf50f9)" d="M 74.289157 247.877653 
L 77.1537 246.865311 
L 78.40496 246.413906 
L 80.013344 242.749508 
L 81.212505 238.633705 
L 81.885677 234.517902 
L 81.502409 230.402098 
L 78.917537 226.286295 
L 78.40496 225.827189 
L 74.289157 225.700538 
L 73.53753 226.286295 
L 70.652478 230.402098 
L 70.388098 234.517902 
L 71.114505 238.633705 
L 72.184419 242.749508 
L 73.744144 246.865311 
z
M 72.72087 242.749508 
L 71.687148 238.633705 
L 71.122524 234.517902 
L 71.71683 230.402098 
L 74.289157 227.03013 
L 78.40496 227.243587 
L 80.525935 230.402098 
L 81.194708 234.517902 
L 80.665291 238.633705 
L 79.494548 242.749508 
L 78.40496 245.231928 
L 74.289157 246.695648 
z
" style="fill:#ebff0c;"/>
   </g>
   <g id="PathCollection_12">
    <path clip-path="url(#p805bdf50f9)" d="M 74.289157 246.695648 
L 78.40496 245.231928 
L 79.494548 242.749508 
L 80.665291 238.633705 
L 81.194708 234.517902 
L 80.525935 230.402098 
L 78.40496 227.243587 
L 74.289157 227.03013 
L 71.71683 230.402098 
L 71.122524 234.517902 
L 71.687148 238.633705 
L 72.72087 242.749508 
z
M 73.257321 242.749508 
L 72.259791 238.633705 
L 71.856951 234.517902 
L 72.781181 230.402098 
L 74.289157 228.425349 
L 78.40496 228.697732 
L 79.54946 230.402098 
L 80.503739 234.517902 
L 80.118077 238.633705 
L 78.975752 242.749508 
L 78.40496 244.04995 
L 74.289157 245.345825 
z
" style="fill:#ffc400;"/>
   </g>
   <g id="PathCollection_13">
    <path clip-path="url(#p805bdf50f9)" d="M 74.289157 245.345825 
L 78.40496 244.04995 
L 78.975752 242.749508 
L 80.118077 238.633705 
L 80.503739 234.517902 
L 79.54946 230.402098 
L 78.40496 228.697732 
L 74.289157 228.425349 
L 72.781181 230.402098 
L 71.856951 234.517902 
L 72.259791 238.633705 
L 73.257321 242.749508 
z
M 73.793772 242.749508 
L 72.832434 238.633705 
L 72.591377 234.517902 
L 73.845533 230.402098 
L 74.289157 229.820568 
L 78.40496 230.151878 
L 78.572986 230.402098 
L 79.81277 234.517902 
L 79.570863 238.633705 
L 78.456957 242.749508 
L 78.40496 242.867972 
L 74.289157 243.996001 
z
" style="fill:#ff8600;"/>
   </g>
   <g id="PathCollection_14">
    <path clip-path="url(#p805bdf50f9)" d="M 74.289157 243.996001 
L 78.40496 242.867972 
L 78.456957 242.749508 
L 79.570863 238.633705 
L 79.81277 234.517902 
L 78.572986 230.402098 
L 78.40496 230.151878 
L 74.289157 229.820568 
L 73.845533 230.402098 
L 72.591377 234.517902 
L 72.832434 238.633705 
L 73.793772 242.749508 
z
M 73.405077 238.633705 
L 73.325804 234.517902 
L 74.289157 231.668825 
L 78.40496 232.228859 
L 79.121801 234.517902 
L 79.023648 238.633705 
L 78.40496 240.925574 
L 74.289157 242.555069 
z
" style="fill:#ff4700;"/>
   </g>
   <g id="PathCollection_15">
    <path clip-path="url(#p805bdf50f9)" d="M 74.289157 242.555069 
L 78.40496 240.925574 
L 79.023648 238.633705 
L 79.121801 234.517902 
L 78.40496 232.228859 
L 74.289157 231.668825 
L 73.325804 234.517902 
L 73.405077 238.633705 
z
M 73.97772 238.633705 
L 74.060231 234.517902 
L 74.289157 233.84086 
L 78.40496 234.435288 
L 78.430832 234.517902 
L 78.476434 238.633705 
L 78.40496 238.898473 
L 74.289157 240.015093 
z
" style="fill:#f10800;"/>
   </g>
   <g id="PathCollection_16">
    <path clip-path="url(#p805bdf50f9)" d="M 74.289157 240.015093 
L 78.40496 238.898473 
L 78.476434 238.633705 
L 78.430832 234.517902 
L 78.40496 234.435288 
L 74.289157 233.84086 
L 74.060231 234.517902 
L 73.97772 238.633705 
z
" style="fill:#a40000;"/>
   </g>
   <g id="patch_8">
    <path d="M 10.7 297.683529 
L 10.7 167.236471 
" style="fill:none;stroke:#000000;stroke-linecap:square;stroke-linejoin:miter;stroke-width:0.5;"/>
   </g>
   <g id="patch_9">
    <path d="M 141.994118 297.683529 
L 141.994118 167.236471 
" style="fill:none;stroke:#000000;stroke-linecap:square;stroke-linejoin:miter;stroke-width:0.5;"/>
   </g>
   <g id="patch_10">
    <path d="M 10.7 297.683529 
L 141.994118 297.683529 
" style="fill:none;stroke:#000000;stroke-linecap:square;stroke-linejoin:miter;stroke-width:0.5;"/>
   </g>
   <g id="patch_11">
    <path d="M 10.7 167.236471 
L 141.994118 167.236471 
" style="fill:none;stroke:#000000;stroke-linecap:square;stroke-linejoin:miter;stroke-width:0.5;"/>
   </g>
  </g>
  <g id="axes_3">
   <g id="patch_12">
    <path d="M 168.252941 297.683529 
L 299.547059 297.683529 
L 299.547059 167.236471 
L 168.252941 167.236471 
z
" style="fill:#ffffff;"/>
   </g>
   <g id="line2d_3">
    <path clip-path="url(#p50ca940564)" d="M 174.220856 291.753422 
L 178.336659 291.750597 
L 182.452462 291.738204 
L 186.568265 291.6898 
L 190.684068 291.521218 
L 194.799871 290.99703 
L 198.915674 289.542935 
L 203.031477 285.962703 
L 207.14728 278.235788 
L 211.263083 263.95836 
L 215.378886 242.215783 
L 219.494689 216.393617 
L 223.610492 194.423103 
L 227.726295 183.946631 
L 231.842098 187.268074 
L 235.957902 201.495292 
L 240.073705 221.700314 
L 244.189508 243.259959 
L 248.305311 262.652331 
L 252.421114 277.497022 
L 256.536917 286.639763 
L 260.65272 290.62804 
L 264.768523 291.635512 
L 268.884326 291.749627 
L 273.000129 291.75407 
L 277.115932 291.754118 
L 281.231735 291.754118 
L 285.347538 291.754118 
L 289.463341 291.754118 
L 293.579144 291.754118 
" style="fill:none;stroke:#1f77b4;stroke-linecap:square;stroke-width:1.5;"/>
   </g>
   <g id="line2d_4">
    <path clip-path="url(#p50ca940564)" d="M 174.220856 173.165882 
" style="fill:none;stroke:#ffffff;stroke-linecap:square;stroke-width:1.5;"/>
   </g>
   <g id="patch_13">
    <path d="M 168.252941 297.683529 
L 168.252941 167.236471 
" style="fill:none;stroke:#000000;stroke-linecap:square;stroke-linejoin:miter;stroke-width:0.5;"/>
   </g>
   <g id="patch_14">
    <path d="M 299.547059 297.683529 
L 299.547059 167.236471 
" style="fill:none;stroke:#000000;stroke-linecap:square;stroke-linejoin:miter;stroke-width:0.5;"/>
   </g>
   <g id="patch_15">
    <path d="M 168.252941 297.683529 
L 299.547059 297.683529 
" style="fill:none;stroke:#000000;stroke-linecap:square;stroke-linejoin:miter;stroke-width:0.5;"/>
   </g>
   <g id="patch_16">
    <path d="M 168.252941 167.236471 
L 299.547059 167.236471 
" style="fill:none;stroke:#000000;stroke-linecap:square;stroke-linejoin:miter;stroke-width:0.5;"/>
   </g>
  </g>
  <g id="axes_4">
   <g id="patch_17">
    <path d="M 10.7 454.22 
L 141.994118 454.22 
L 141.994118 323.772941 
L 10.7 323.772941 
z
" style="fill:#ffffff;"/>
   </g>
   <g id="PathCollection_17">
    <path clip-path="url(#p8026aa40a1)" d="M 20.783717 448.675615 
L 24.899521 448.675615 
L 29.015324 448.675615 
L 33.131127 448.675615 
L 37.24693 448.675615 
L 41.362733 448.675615 
L 45.478536 448.675615 
L 49.594339 448.675615 
L 53.710142 448.675615 
L 57.825945 448.675615 
L 61.941748 448.675615 
L 66.057551 448.675615 
L 70.173354 448.675615 
L 74.289157 448.675615 
L 78.40496 448.675615 
L 82.520763 448.675615 
L 86.636566 448.675615 
L 90.75237 448.675615 
L 94.868173 448.675615 
L 98.983976 448.675615 
L 103.099779 448.675615 
L 107.215582 448.675615 
L 111.331385 448.675615 
L 115.447188 448.675615 
L 119.562991 448.675615 
L 123.678794 448.675615 
L 127.794597 448.675615 
L 131.9104 448.675615 
L 136.026203 448.675615 
L 136.026203 444.559812 
L 136.026203 440.444009 
L 136.026203 436.328206 
L 136.026203 432.212403 
L 136.026203 428.0966 
L 136.026203 423.980797 
L 136.026203 419.864994 
L 136.026203 415.74919 
L 136.026203 411.633387 
L 136.026203 407.517584 
L 136.026203 403.401781 
L 136.026203 399.285978 
L 136.026203 395.170175 
L 136.026203 391.054372 
L 136.026203 386.938569 
L 136.026203 382.822766 
L 136.026203 378.706963 
L 136.026203 374.59116 
L 136.026203 370.475357 
L 136.026203 366.359554 
L 136.026203 362.243751 
L 136.026203 358.127948 
L 136.026203 354.012145 
L 136.026203 349.896342 
L 136.026203 345.780538 
L 136.026203 341.664735 
L 136.026203 337.548932 
L 136.026203 333.433129 
L 136.026203 329.317326 
L 131.9104 329.317326 
L 127.794597 329.317326 
L 123.678794 329.317326 
L 119.562991 329.317326 
L 115.447188 329.317326 
L 111.331385 329.317326 
L 107.215582 329.317326 
L 103.099779 329.317326 
L 98.983976 329.317326 
L 94.868173 329.317326 
L 90.75237 329.317326 
L 86.636566 329.317326 
L 82.520763 329.317326 
L 78.40496 329.317326 
L 74.289157 329.317326 
L 70.173354 329.317326 
L 66.057551 329.317326 
L 61.941748 329.317326 
L 57.825945 329.317326 
L 53.710142 329.317326 
L 49.594339 329.317326 
L 45.478536 329.317326 
L 41.362733 329.317326 
L 37.24693 329.317326 
L 33.131127 329.317326 
L 29.015324 329.317326 
L 24.899521 329.317326 
L 20.783717 329.317326 
L 16.667914 329.317326 
L 16.667914 333.433129 
L 16.667914 337.548932 
L 16.667914 341.664735 
L 16.667914 345.780538 
L 16.667914 349.896342 
L 16.667914 354.012145 
L 16.667914 358.127948 
L 16.667914 362.243751 
L 16.667914 366.359554 
L 16.667914 370.475357 
L 16.667914 374.59116 
L 16.667914 378.706963 
L 16.667914 382.822766 
L 16.667914 386.938569 
L 16.667914 391.054372 
L 16.667914 395.170175 
L 16.667914 399.285978 
L 16.667914 403.401781 
L 16.667914 407.517584 
L 16.667914 411.633387 
L 16.667914 415.74919 
L 16.667914 419.864994 
L 16.667914 423.980797 
L 16.667914 428.0966 
L 16.667914 432.212403 
L 16.667914 436.328206 
L 16.667914 440.444009 
L 16.667914 444.559812 
L 16.667914 448.675615 
z
M 44.174231 423.980797 
L 43.373579 419.864994 
L 44.102951 415.74919 
L 45.478536 413.052106 
L 45.831932 411.633387 
L 47.557014 407.517584 
L 49.594339 404.873169 
L 50.302701 403.401781 
L 53.710142 399.299166 
L 53.718274 399.285978 
L 56.640253 395.170175 
L 57.825945 393.914733 
L 60.240339 391.054372 
L 61.941748 389.308003 
L 64.313001 386.938569 
L 66.057551 385.205803 
L 68.886736 382.822766 
L 70.173354 381.59434 
L 74.260107 378.706963 
L 74.289157 378.680534 
L 78.40496 375.445744 
L 80.303499 374.59116 
L 82.520763 373.006549 
L 86.636566 371.448597 
L 90.75237 371.177977 
L 93.628949 374.59116 
L 93.565794 378.706963 
L 92.477992 382.822766 
L 90.75237 385.803594 
L 90.399387 386.938569 
L 88.626832 391.054372 
L 86.636566 393.679379 
L 85.946078 395.170175 
L 82.958474 399.285978 
L 82.520763 399.792694 
L 80.332472 403.401781 
L 78.40496 405.556941 
L 76.95607 407.517584 
L 74.289157 410.36657 
L 73.14053 411.633387 
L 70.173354 414.637372 
L 68.922008 415.74919 
L 66.057551 418.481309 
L 64.087824 419.864994 
L 61.941748 421.780956 
L 57.859735 423.980797 
L 57.825945 424.008681 
L 53.710142 426.504173 
L 49.594339 427.214237 
L 45.478536 425.650577 
z
" style="fill:#ffffff;"/>
   </g>
   <g id="PathCollection_18">
    <path clip-path="url(#p8026aa40a1)" d="M 45.478536 425.650577 
L 49.594339 427.214237 
L 53.710142 426.504173 
L 57.825945 424.008681 
L 57.859735 423.980797 
L 61.941748 421.780956 
L 64.087824 419.864994 
L 66.057551 418.481309 
L 68.922008 415.74919 
L 70.173354 414.637372 
L 73.14053 411.633387 
L 74.289157 410.36657 
L 76.95607 407.517584 
L 78.40496 405.556941 
L 80.332472 403.401781 
L 82.520763 399.792694 
L 82.958474 399.285978 
L 85.946078 395.170175 
L 86.636566 393.679379 
L 88.626832 391.054372 
L 90.399387 386.938569 
L 90.75237 385.803594 
L 92.477992 382.822766 
L 93.565794 378.706963 
L 93.628949 374.59116 
L 90.75237 371.177977 
L 86.636566 371.448597 
L 82.520763 373.006549 
L 80.303499 374.59116 
L 78.40496 375.445744 
L 74.289157 378.680534 
L 74.260107 378.706963 
L 70.173354 381.59434 
L 68.886736 382.822766 
L 66.057551 385.205803 
L 64.313001 386.938569 
L 61.941748 389.308003 
L 60.240339 391.054372 
L 57.825945 393.914733 
L 56.640253 395.170175 
L 53.718274 399.285978 
L 53.710142 399.299166 
L 50.302701 403.401781 
L 49.594339 404.873169 
L 47.557014 407.517584 
L 45.831932 411.633387 
L 45.478536 413.052106 
L 44.102951 415.74919 
L 43.373579 419.864994 
L 44.174231 423.980797 
z
M 46.82195 419.864994 
L 46.785178 415.74919 
L 47.917983 411.633387 
L 49.594339 408.844934 
L 50.068386 407.517584 
L 52.364473 403.401781 
L 53.710142 401.781573 
L 55.24903 399.285978 
L 57.825945 396.377439 
L 58.763087 395.170175 
L 61.941748 391.790619 
L 62.651048 391.054372 
L 66.057551 387.648862 
L 66.899317 386.938569 
L 70.173354 383.883038 
L 71.714681 382.822766 
L 74.289157 380.602031 
L 77.679303 378.706963 
L 78.40496 378.134369 
L 82.520763 376.012777 
L 86.636566 375.25612 
L 90.073379 378.706963 
L 89.710591 382.822766 
L 88.443514 386.938569 
L 86.636566 389.928681 
L 86.207505 391.054372 
L 84.081883 395.170175 
L 82.520763 397.153832 
L 81.323677 399.285978 
L 78.40496 402.803449 
L 77.995393 403.401781 
L 74.414712 407.517584 
L 74.289157 407.651711 
L 70.678958 411.633387 
L 70.173354 412.145263 
L 66.117153 415.74919 
L 66.057551 415.806039 
L 61.941748 419.288502 
L 60.825734 419.864994 
L 57.825945 422.092429 
L 53.710142 423.512804 
L 49.594339 423.433535 
z
" style="fill:#0000a8;"/>
   </g>
   <g id="PathCollection_19">
    <path clip-path="url(#p8026aa40a1)" d="M 49.594339 423.433535 
L 53.710142 423.512804 
L 57.825945 422.092429 
L 60.825734 419.864994 
L 61.941748 419.288502 
L 66.057551 415.806039 
L 66.117153 415.74919 
L 70.173354 412.145263 
L 70.678958 411.633387 
L 74.289157 407.651711 
L 74.414712 407.517584 
L 77.995393 403.401781 
L 78.40496 402.803449 
L 81.323677 399.285978 
L 82.520763 397.153832 
L 84.081883 395.170175 
L 86.207505 391.054372 
L 86.636566 389.928681 
L 88.443514 386.938569 
L 89.710591 382.822766 
L 90.073379 378.706963 
L 86.636566 375.25612 
L 82.520763 376.012777 
L 78.40496 378.134369 
L 77.679303 378.706963 
L 74.289157 380.602031 
L 71.714681 382.822766 
L 70.173354 383.883038 
L 66.899317 386.938569 
L 66.057551 387.648862 
L 62.651048 391.054372 
L 61.941748 391.790619 
L 58.763087 395.170175 
L 57.825945 396.377439 
L 55.24903 399.285978 
L 53.710142 401.781573 
L 52.364473 403.401781 
L 50.068386 407.517584 
L 49.594339 408.844934 
L 47.917983 411.633387 
L 46.785178 415.74919 
L 46.82195 419.864994 
z
M 49.532549 419.864994 
L 48.712544 415.74919 
L 49.594339 412.869539 
L 49.812534 411.633387 
L 51.307635 407.517584 
L 53.710142 404.027115 
L 54.021293 403.401781 
L 56.779787 399.285978 
L 57.825945 398.10519 
L 60.104259 395.170175 
L 61.941748 393.216554 
L 64.024793 391.054372 
L 66.057551 389.022207 
L 68.526862 386.938569 
L 70.173354 385.401962 
L 73.922754 382.822766 
L 74.289157 382.506708 
L 78.40496 379.869619 
L 81.714789 378.706963 
L 82.520763 378.273665 
L 86.636566 378.646976 
L 86.69631 378.706963 
L 87.730087 382.822766 
L 86.636566 386.43977 
L 86.537252 386.938569 
L 84.973881 391.054372 
L 82.520763 394.859112 
L 82.374723 395.170175 
L 79.993743 399.285978 
L 78.40496 401.200689 
L 76.89828 403.401781 
L 74.289157 406.342235 
L 73.295352 407.517584 
L 70.173354 410.768393 
L 69.248951 411.633387 
L 66.057551 414.666891 
L 64.542272 415.74919 
L 61.941748 417.967732 
L 58.268889 419.864994 
L 57.825945 420.193893 
L 53.710142 421.633664 
L 49.594339 419.944528 
z
" style="fill:#0000fa;"/>
   </g>
   <g id="PathCollection_20">
    <path clip-path="url(#p8026aa40a1)" d="M 49.594339 419.944528 
L 53.710142 421.633664 
L 57.825945 420.193893 
L 58.268889 419.864994 
L 61.941748 417.967732 
L 64.542272 415.74919 
L 66.057551 414.666891 
L 69.248951 411.633387 
L 70.173354 410.768393 
L 73.295352 407.517584 
L 74.289157 406.342235 
L 76.89828 403.401781 
L 78.40496 401.200689 
L 79.993743 399.285978 
L 82.374723 395.170175 
L 82.520763 394.859112 
L 84.973881 391.054372 
L 86.537252 386.938569 
L 86.636566 386.43977 
L 87.730087 382.822766 
L 86.69631 378.706963 
L 86.636566 378.646976 
L 82.520763 378.273665 
L 81.714789 378.706963 
L 78.40496 379.869619 
L 74.289157 382.506708 
L 73.922754 382.822766 
L 70.173354 385.401962 
L 68.526862 386.938569 
L 66.057551 389.022207 
L 64.024793 391.054372 
L 61.941748 393.216554 
L 60.104259 395.170175 
L 57.825945 398.10519 
L 56.779787 399.285978 
L 54.021293 403.401781 
L 53.710142 404.027115 
L 51.307635 407.517584 
L 49.812534 411.633387 
L 49.594339 412.869539 
L 48.712544 415.74919 
L 49.532549 419.864994 
z
M 50.450024 415.74919 
L 50.92352 411.633387 
L 52.546883 407.517584 
L 53.710142 405.82755 
L 54.917146 403.401781 
L 57.825945 399.651615 
L 58.073659 399.285978 
L 61.445431 395.170175 
L 61.941748 394.64249 
L 65.398539 391.054372 
L 66.057551 390.395552 
L 70.154407 386.938569 
L 70.173354 386.920886 
L 74.289157 383.725611 
L 76.161829 382.822766 
L 78.40496 381.346887 
L 82.520763 380.341349 
L 85.536185 382.822766 
L 85.232936 386.938569 
L 83.740256 391.054372 
L 82.520763 392.945783 
L 81.476435 395.170175 
L 78.663809 399.285978 
L 78.40496 399.597928 
L 75.801166 403.401781 
L 74.289157 405.1058 
L 72.249897 407.517584 
L 70.173354 409.679803 
L 68.085597 411.633387 
L 66.057551 413.561094 
L 62.994095 415.74919 
L 61.941748 416.646962 
L 57.825945 418.918525 
L 53.710142 419.751166 
z
" style="fill:#0034ff;"/>
   </g>
   <g id="PathCollection_21">
    <path clip-path="url(#p8026aa40a1)" d="M 53.710142 419.751166 
L 57.825945 418.918525 
L 61.941748 416.646962 
L 62.994095 415.74919 
L 66.057551 413.561094 
L 68.085597 411.633387 
L 70.173354 409.679803 
L 72.249897 407.517584 
L 74.289157 405.1058 
L 75.801166 403.401781 
L 78.40496 399.597928 
L 78.663809 399.285978 
L 81.476435 395.170175 
L 82.520763 392.945783 
L 83.740256 391.054372 
L 85.232936 386.938569 
L 85.536185 382.822766 
L 82.520763 380.341349 
L 78.40496 381.346887 
L 76.161829 382.822766 
L 74.289157 383.725611 
L 70.173354 386.920886 
L 70.154407 386.938569 
L 66.057551 390.395552 
L 65.398539 391.054372 
L 61.941748 394.64249 
L 61.445431 395.170175 
L 58.073659 399.285978 
L 57.825945 399.651615 
L 54.917146 403.401781 
L 53.710142 405.82755 
L 52.546883 407.517584 
L 50.92352 411.633387 
L 50.450024 415.74919 
z
M 52.027363 415.74919 
L 52.034506 411.633387 
L 53.710142 407.678379 
L 53.759388 407.517584 
L 55.812999 403.401781 
L 57.825945 400.806593 
L 58.856142 399.285978 
L 61.941748 395.737097 
L 62.454516 395.170175 
L 66.057551 391.487268 
L 66.573178 391.054372 
L 70.173354 387.818869 
L 71.549249 386.938569 
L 74.289157 384.808078 
L 78.40496 382.824056 
L 78.421928 382.822766 
L 82.520763 382.363228 
L 83.079195 382.822766 
L 83.928619 386.938569 
L 82.520763 391.01115 
L 82.509429 391.054372 
L 80.578147 395.170175 
L 78.40496 398.258033 
L 77.802476 399.285978 
L 74.704053 403.401781 
L 74.289157 403.869364 
L 71.204442 407.517584 
L 70.173354 408.591214 
L 66.922242 411.633387 
L 66.057551 412.455297 
L 61.941748 415.475378 
L 61.310674 415.74919 
L 57.825945 417.773734 
L 53.710142 417.814895 
z
" style="fill:#0080ff;"/>
   </g>
   <g id="PathCollection_22">
    <path clip-path="url(#p8026aa40a1)" d="M 53.710142 417.814895 
L 57.825945 417.773734 
L 61.310674 415.74919 
L 61.941748 415.475378 
L 66.057551 412.455297 
L 66.922242 411.633387 
L 70.173354 408.591214 
L 71.204442 407.517584 
L 74.289157 403.869364 
L 74.704053 403.401781 
L 77.802476 399.285978 
L 78.40496 398.258033 
L 80.578147 395.170175 
L 82.509429 391.054372 
L 82.520763 391.01115 
L 83.928619 386.938569 
L 83.079195 382.822766 
L 82.520763 382.363228 
L 78.421928 382.822766 
L 78.40496 382.824056 
L 74.289157 384.808078 
L 71.549249 386.938569 
L 70.173354 387.818869 
L 66.573178 391.054372 
L 66.057551 391.487268 
L 62.454516 395.170175 
L 61.941748 395.737097 
L 58.856142 399.285978 
L 57.825945 400.806593 
L 55.812999 403.401781 
L 53.759388 407.517584 
L 53.710142 407.678379 
L 52.034506 411.633387 
L 52.027363 415.74919 
z
M 53.604701 415.74919 
L 53.145493 411.633387 
L 53.710142 410.300644 
L 54.562506 407.517584 
L 56.708852 403.401781 
L 57.825945 401.96157 
L 59.638624 399.285978 
L 61.941748 396.637062 
L 63.268514 395.170175 
L 66.057551 392.319311 
L 67.564234 391.054372 
L 70.173354 388.709537 
L 72.941351 386.938569 
L 74.289157 385.890545 
L 78.40496 384.194871 
L 82.520763 386.55514 
L 82.624302 386.938569 
L 82.520763 387.238081 
L 81.519971 391.054372 
L 79.679859 395.170175 
L 78.40496 396.981666 
L 77.05439 399.285978 
L 74.289157 402.809103 
L 73.844425 403.401781 
L 70.173354 407.506595 
L 70.16234 407.517584 
L 66.057551 411.436922 
L 65.775823 411.633387 
L 61.941748 414.620427 
L 59.340213 415.74919 
L 57.825945 416.628943 
L 53.710142 415.878625 
z
" style="fill:#00c8ff;"/>
   </g>
   <g id="PathCollection_23">
    <path clip-path="url(#p8026aa40a1)" d="M 53.710142 415.878625 
L 57.825945 416.628943 
L 59.340213 415.74919 
L 61.941748 414.620427 
L 65.775823 411.633387 
L 66.057551 411.436922 
L 70.16234 407.517584 
L 70.173354 407.506595 
L 73.844425 403.401781 
L 74.289157 402.809103 
L 77.05439 399.285978 
L 78.40496 396.981666 
L 79.679859 395.170175 
L 81.519971 391.054372 
L 82.520763 387.238081 
L 82.624302 386.938569 
L 82.520763 386.55514 
L 78.40496 384.194871 
L 74.289157 385.890545 
L 72.941351 386.938569 
L 70.173354 388.709537 
L 67.564234 391.054372 
L 66.057551 392.319311 
L 63.268514 395.170175 
L 61.941748 396.637062 
L 59.638624 399.285978 
L 57.825945 401.96157 
L 56.708852 403.401781 
L 54.562506 407.517584 
L 53.710142 410.300644 
L 53.145493 411.633387 
L 53.604701 415.74919 
z
M 54.310267 411.633387 
L 55.365625 407.517584 
L 57.604705 403.401781 
L 57.825945 403.116548 
L 60.421107 399.285978 
L 61.941748 397.537027 
L 64.082512 395.170175 
L 66.057551 393.151353 
L 68.555289 391.054372 
L 70.173354 389.600205 
L 74.289157 386.971889 
L 74.415895 386.938569 
L 78.40496 385.565686 
L 80.549466 386.938569 
L 80.530513 391.054372 
L 78.781571 395.170175 
L 78.40496 395.705298 
L 76.306304 399.285978 
L 74.289157 401.855982 
L 73.129227 403.401781 
L 70.173354 406.706894 
L 69.360855 407.517584 
L 66.057551 410.671648 
L 64.678433 411.633387 
L 61.941748 413.765475 
L 57.825945 415.443032 
z
" style="fill:#23ffd4;"/>
   </g>
   <g id="PathCollection_24">
    <path clip-path="url(#p8026aa40a1)" d="M 57.825945 415.443032 
L 61.941748 413.765475 
L 64.678433 411.633387 
L 66.057551 410.671648 
L 69.360855 407.517584 
L 70.173354 406.706894 
L 73.129227 403.401781 
L 74.289157 401.855982 
L 76.306304 399.285978 
L 78.40496 395.705298 
L 78.781571 395.170175 
L 80.530513 391.054372 
L 80.549466 386.938569 
L 78.40496 385.565686 
L 74.415895 386.938569 
L 74.289157 386.971889 
L 70.173354 389.600205 
L 68.555289 391.054372 
L 66.057551 393.151353 
L 64.082512 395.170175 
L 61.941748 397.537027 
L 60.421107 399.285978 
L 57.825945 403.116548 
L 57.604705 403.401781 
L 55.365625 407.517584 
L 54.310267 411.633387 
z
M 55.530631 411.633387 
L 56.168743 407.517584 
L 57.825945 404.502212 
L 58.371886 403.401781 
L 61.203589 399.285978 
L 61.941748 398.436992 
L 64.89651 395.170175 
L 66.057551 393.983396 
L 69.546344 391.054372 
L 70.173354 390.490874 
L 74.289157 388.019057 
L 78.398953 386.938569 
L 78.40496 386.936501 
L 78.40819 386.938569 
L 79.541055 391.054372 
L 78.40496 393.787693 
L 77.904893 395.170175 
L 75.558217 399.285978 
L 74.289157 400.902861 
L 72.414028 403.401781 
L 70.173354 405.907193 
L 68.559371 407.517584 
L 66.057551 409.906374 
L 63.581043 411.633387 
L 61.941748 412.910524 
L 57.825945 414.120626 
z
" style="fill:#5dff9a;"/>
   </g>
   <g id="PathCollection_25">
    <path clip-path="url(#p8026aa40a1)" d="M 57.825945 414.120626 
L 61.941748 412.910524 
L 63.581043 411.633387 
L 66.057551 409.906374 
L 68.559371 407.517584 
L 70.173354 405.907193 
L 72.414028 403.401781 
L 74.289157 400.902861 
L 75.558217 399.285978 
L 77.904893 395.170175 
L 78.40496 393.787693 
L 79.541055 391.054372 
L 78.40819 386.938569 
L 78.40496 386.936501 
L 78.398953 386.938569 
L 74.289157 388.019057 
L 70.173354 390.490874 
L 69.546344 391.054372 
L 66.057551 393.983396 
L 64.89651 395.170175 
L 61.941748 398.436992 
L 61.203589 399.285978 
L 58.371886 403.401781 
L 57.825945 404.502212 
L 56.168743 407.517584 
L 55.530631 411.633387 
z
M 56.750996 411.633387 
L 56.971861 407.517584 
L 57.825945 405.963531 
L 59.096868 403.401781 
L 61.941748 399.344545 
L 61.987448 399.285978 
L 65.710508 395.170175 
L 66.057551 394.815438 
L 70.173354 391.386014 
L 70.840571 391.054372 
L 74.289157 389.066226 
L 78.40496 390.522443 
L 78.551597 391.054372 
L 78.40496 391.407164 
L 77.043814 395.170175 
L 74.810131 399.285978 
L 74.289157 399.94974 
L 71.698829 403.401781 
L 70.173354 405.107493 
L 67.757887 407.517584 
L 66.057551 409.1411 
L 62.483653 411.633387 
L 61.941748 412.055573 
L 57.825945 412.79822 
z
" style="fill:#9aff5d;"/>
   </g>
   <g id="PathCollection_26">
    <path clip-path="url(#p8026aa40a1)" d="M 57.825945 412.79822 
L 61.941748 412.055573 
L 62.483653 411.633387 
L 66.057551 409.1411 
L 67.757887 407.517584 
L 70.173354 405.107493 
L 71.698829 403.401781 
L 74.289157 399.94974 
L 74.810131 399.285978 
L 77.043814 395.170175 
L 78.40496 391.407164 
L 78.551597 391.054372 
L 78.40496 390.522443 
L 74.289157 389.066226 
L 70.840571 391.054372 
L 70.173354 391.386014 
L 66.057551 394.815438 
L 65.710508 395.170175 
L 61.987448 399.285978 
L 61.941748 399.344545 
L 59.096868 403.401781 
L 57.825945 405.963531 
L 56.971861 407.517584 
L 56.750996 411.633387 
z
M 57.774979 407.517584 
L 57.825945 407.424849 
L 59.821851 403.401781 
L 61.941748 400.378482 
L 62.794222 399.285978 
L 66.057551 395.681384 
L 66.684649 395.170175 
L 70.173354 392.288855 
L 72.656962 391.054372 
L 74.289157 390.113394 
L 76.402071 391.054372 
L 76.182735 395.170175 
L 74.289157 398.786703 
L 74.023572 399.285978 
L 70.98363 403.401781 
L 70.173354 404.307792 
L 66.956402 407.517584 
L 66.057551 408.375826 
L 61.941748 411.076628 
L 57.825945 408.94784 
z
" style="fill:#d4ff23;"/>
   </g>
   <g id="PathCollection_27">
    <path clip-path="url(#p8026aa40a1)" d="M 57.825945 408.94784 
L 61.941748 411.076628 
L 66.057551 408.375826 
L 66.956402 407.517584 
L 70.173354 404.307792 
L 70.98363 403.401781 
L 74.023572 399.285978 
L 74.289157 398.786703 
L 76.182735 395.170175 
L 76.402071 391.054372 
L 74.289157 390.113394 
L 72.656962 391.054372 
L 70.173354 392.288855 
L 66.684649 395.170175 
L 66.057551 395.681384 
L 62.794222 399.285978 
L 61.941748 400.378482 
L 59.821851 403.401781 
L 57.825945 407.424849 
L 57.774979 407.517584 
z
M 59.041026 407.517584 
L 60.546834 403.401781 
L 61.941748 401.412419 
L 63.600996 399.285978 
L 66.057551 396.572527 
L 67.77781 395.170175 
L 70.173354 393.191697 
L 74.289157 391.375308 
L 75.321656 395.170175 
L 74.289157 397.142136 
L 73.14876 399.285978 
L 70.268431 403.401781 
L 70.173354 403.508091 
L 66.154918 407.517584 
L 66.057551 407.610552 
L 61.941748 409.976722 
z
" style="fill:#ffdb00;"/>
   </g>
   <g id="PathCollection_28">
    <path clip-path="url(#p8026aa40a1)" d="M 61.941748 409.976722 
L 66.057551 407.610552 
L 66.154918 407.517584 
L 70.173354 403.508091 
L 70.268431 403.401781 
L 73.14876 399.285978 
L 74.289157 397.142136 
L 75.321656 395.170175 
L 74.289157 391.375308 
L 70.173354 393.191697 
L 67.77781 395.170175 
L 66.057551 396.572527 
L 63.600996 399.285978 
L 61.941748 401.412419 
L 60.546834 403.401781 
L 59.041026 407.517584 
z
M 60.338442 407.517584 
L 61.271816 403.401781 
L 61.941748 402.446355 
L 64.40777 399.285978 
L 66.057551 397.46367 
L 68.870972 395.170175 
L 70.173354 394.094538 
L 74.289157 394.540133 
L 74.460578 395.170175 
L 74.289157 395.497569 
L 72.273948 399.285978 
L 70.173354 402.309866 
L 69.223901 403.401781 
L 66.057551 406.558511 
L 64.347375 407.517584 
L 61.941748 408.876815 
z
" style="fill:#ff9400;"/>
   </g>
   <g id="PathCollection_29">
    <path clip-path="url(#p8026aa40a1)" d="M 61.941748 408.876815 
L 64.347375 407.517584 
L 66.057551 406.558511 
L 69.223901 403.401781 
L 70.173354 402.309866 
L 72.273948 399.285978 
L 74.289157 395.497569 
L 74.460578 395.170175 
L 74.289157 394.540133 
L 70.173354 394.094538 
L 68.870972 395.170175 
L 66.057551 397.46367 
L 64.40777 399.285978 
L 61.941748 402.446355 
L 61.271816 403.401781 
L 60.338442 407.517584 
z
M 61.635857 407.517584 
L 61.941748 404.404426 
L 62.100592 403.401781 
L 65.214544 399.285978 
L 66.057551 398.354813 
L 69.964133 395.170175 
L 70.173354 394.99738 
L 70.967183 395.170175 
L 71.399135 399.285978 
L 70.173354 401.050539 
L 68.128878 403.401781 
L 66.057551 405.466815 
L 62.400712 407.517584 
L 61.941748 407.776909 
z
" style="fill:#ff5200;"/>
   </g>
   <g id="PathCollection_30">
    <path clip-path="url(#p8026aa40a1)" d="M 61.941748 407.776909 
L 62.400712 407.517584 
L 66.057551 405.466815 
L 68.128878 403.401781 
L 70.173354 401.050539 
L 71.399135 399.285978 
L 70.967183 395.170175 
L 70.173354 394.99738 
L 69.964133 395.170175 
L 66.057551 398.354813 
L 65.214544 399.285978 
L 62.100592 403.401781 
L 61.941748 404.404426 
L 61.635857 407.517584 
z
M 64.192469 403.401781 
L 66.021318 399.285978 
L 66.057551 399.245956 
L 70.173354 397.921101 
L 70.524323 399.285978 
L 70.173354 399.791212 
L 67.033855 403.401781 
L 66.057551 404.375119 
z
" style="fill:#fa0f00;"/>
   </g>
   <g id="PathCollection_31">
    <path clip-path="url(#p8026aa40a1)" d="M 66.057551 404.375119 
L 67.033855 403.401781 
L 70.173354 399.791212 
L 70.524323 399.285978 
L 70.173354 397.921101 
L 66.057551 399.245956 
L 66.021318 399.285978 
L 64.192469 403.401781 
z
" style="fill:#a80000;"/>
   </g>
   <g id="patch_18">
    <path d="M 10.7 454.22 
L 10.7 323.772941 
" style="fill:none;stroke:#000000;stroke-linecap:square;stroke-linejoin:miter;stroke-width:0.5;"/>
   </g>
   <g id="patch_19">
    <path d="M 141.994118 454.22 
L 141.994118 323.772941 
" style="fill:none;stroke:#000000;stroke-linecap:square;stroke-linejoin:miter;stroke-width:0.5;"/>
   </g>
   <g id="patch_20">
    <path d="M 10.7 454.22 
L 141.994118 454.22 
" style="fill:none;stroke:#000000;stroke-linecap:square;stroke-linejoin:miter;stroke-width:0.5;"/>
   </g>
   <g id="patch_21">
    <path d="M 10.7 323.772941 
L 141.994118 323.772941 
" style="fill:none;stroke:#000000;stroke-linecap:square;stroke-linejoin:miter;stroke-width:0.5;"/>
   </g>
  </g>
  <g id="axes_5">
   <g id="patch_22">
    <path d="M 168.252941 454.22 
L 299.547059 454.22 
L 299.547059 323.772941 
L 168.252941 323.772941 
z
" style="fill:#ffffff;"/>
   </g>
   <g id="PathCollection_32">
    <path clip-path="url(#p03845167e1)" d="M 178.336659 448.675615 
L 182.452462 448.675615 
L 186.568265 448.675615 
L 190.684068 448.675615 
L 194.799871 448.675615 
L 198.915674 448.675615 
L 203.031477 448.675615 
L 207.14728 448.675615 
L 211.263083 448.675615 
L 215.378886 448.675615 
L 219.494689 448.675615 
L 223.610492 448.675615 
L 227.726295 448.675615 
L 231.842098 448.675615 
L 235.957902 448.675615 
L 240.073705 448.675615 
L 244.189508 448.675615 
L 248.305311 448.675615 
L 252.421114 448.675615 
L 256.536917 448.675615 
L 260.65272 448.675615 
L 264.768523 448.675615 
L 268.884326 448.675615 
L 273.000129 448.675615 
L 277.115932 448.675615 
L 281.231735 448.675615 
L 285.347538 448.675615 
L 289.463341 448.675615 
L 293.579144 448.675615 
L 293.579144 444.559812 
L 293.579144 440.444009 
L 293.579144 436.328206 
L 293.579144 432.212403 
L 293.579144 428.0966 
L 293.579144 423.980797 
L 293.579144 419.864994 
L 293.579144 415.74919 
L 293.579144 411.633387 
L 293.579144 407.517584 
L 293.579144 403.401781 
L 293.579144 399.285978 
L 293.579144 395.170175 
L 293.579144 391.054372 
L 293.579144 386.938569 
L 293.579144 382.822766 
L 293.579144 378.706963 
L 293.579144 374.59116 
L 293.579144 370.475357 
L 293.579144 366.359554 
L 293.579144 362.243751 
L 293.579144 358.127948 
L 293.579144 354.012145 
L 293.579144 349.896342 
L 293.579144 345.780538 
L 293.579144 341.664735 
L 293.579144 337.548932 
L 293.579144 333.433129 
L 293.579144 329.317326 
L 289.463341 329.317326 
L 285.347538 329.317326 
L 281.231735 329.317326 
L 277.115932 329.317326 
L 273.000129 329.317326 
L 268.884326 329.317326 
L 264.768523 329.317326 
L 260.65272 329.317326 
L 256.536917 329.317326 
L 252.421114 329.317326 
L 248.305311 329.317326 
L 244.189508 329.317326 
L 240.073705 329.317326 
L 235.957902 329.317326 
L 231.842098 329.317326 
L 227.726295 329.317326 
L 223.610492 329.317326 
L 219.494689 329.317326 
L 215.378886 329.317326 
L 211.263083 329.317326 
L 207.14728 329.317326 
L 203.031477 329.317326 
L 198.915674 329.317326 
L 194.799871 329.317326 
L 190.684068 329.317326 
L 186.568265 329.317326 
L 182.452462 329.317326 
L 178.336659 329.317326 
L 174.220856 329.317326 
L 174.220856 333.433129 
L 174.220856 337.548932 
L 174.220856 341.664735 
L 174.220856 345.780538 
L 174.220856 349.896342 
L 174.220856 354.012145 
L 174.220856 358.127948 
L 174.220856 362.243751 
L 174.220856 366.359554 
L 174.220856 370.475357 
L 174.220856 374.59116 
L 174.220856 378.706963 
L 174.220856 382.822766 
L 174.220856 386.938569 
L 174.220856 391.054372 
L 174.220856 395.170175 
L 174.220856 399.285978 
L 174.220856 403.401781 
L 174.220856 407.517584 
L 174.220856 411.633387 
L 174.220856 415.74919 
L 174.220856 419.864994 
L 174.220856 423.980797 
L 174.220856 428.0966 
L 174.220856 432.212403 
L 174.220856 436.328206 
L 174.220856 440.444009 
L 174.220856 444.559812 
L 174.220856 448.675615 
z
M 245.484951 415.74919 
L 244.189508 415.546553 
L 240.073705 413.681995 
L 237.773414 411.633387 
L 235.957902 410.556302 
L 232.678864 407.517584 
L 231.842098 407.000711 
L 227.726295 403.543594 
L 227.564387 403.401781 
L 223.610492 401.681547 
L 220.195725 399.285978 
L 219.494689 399.046098 
L 215.378886 397.950248 
L 211.263083 396.140672 
L 209.537003 395.170175 
L 207.14728 393.605071 
L 204.468265 391.054372 
L 204.681027 386.938569 
L 207.14728 384.652927 
L 210.644912 382.822766 
L 211.263083 382.503901 
L 215.378886 380.835559 
L 219.494689 379.89988 
L 223.610492 379.205564 
L 226.51042 378.706963 
L 227.726295 378.066173 
L 231.842098 376.33989 
L 235.957902 375.406774 
L 240.073705 375.193902 
L 244.189508 376.257576 
L 247.27782 378.706963 
L 248.305311 379.53502 
L 251.208069 382.822766 
L 252.421114 384.610641 
L 254.132191 386.938569 
L 256.262869 391.054372 
L 256.536917 391.71349 
L 258.561977 395.170175 
L 260.066618 399.285978 
L 260.65272 401.800845 
L 261.273569 403.401781 
L 261.674579 407.517584 
L 260.65272 410.457782 
L 260.127001 411.633387 
L 256.536917 414.515371 
L 253.213071 415.74919 
L 252.421114 416.051121 
L 248.305311 416.567805 
z
" style="fill:#ffffff;"/>
   </g>
   <g id="PathCollection_33">
    <path clip-path="url(#p03845167e1)" d="M 248.305311 416.567805 
L 252.421114 416.051121 
L 253.213071 415.74919 
L 256.536917 414.515371 
L 260.127001 411.633387 
L 260.65272 410.457782 
L 261.674579 407.517584 
L 261.273569 403.401781 
L 260.65272 401.800845 
L 260.066618 399.285978 
L 258.561977 395.170175 
L 256.536917 391.71349 
L 256.262869 391.054372 
L 254.132191 386.938569 
L 252.421114 384.610641 
L 251.208069 382.822766 
L 248.305311 379.53502 
L 247.27782 378.706963 
L 244.189508 376.257576 
L 240.073705 375.193902 
L 235.957902 375.406774 
L 231.842098 376.33989 
L 227.726295 378.066173 
L 226.51042 378.706963 
L 223.610492 379.205564 
L 219.494689 379.89988 
L 215.378886 380.835559 
L 211.263083 382.503901 
L 210.644912 382.822766 
L 207.14728 384.652927 
L 204.681027 386.938569 
L 204.468265 391.054372 
L 207.14728 393.605071 
L 209.537003 395.170175 
L 211.263083 396.140672 
L 215.378886 397.950248 
L 219.494689 399.046098 
L 220.195725 399.285978 
L 223.610492 401.681547 
L 227.564387 403.401781 
L 227.726295 403.543594 
L 231.842098 407.000711 
L 232.678864 407.517584 
L 235.957902 410.556302 
L 237.773414 411.633387 
L 240.073705 413.681995 
L 244.189508 415.546553 
L 245.484951 415.74919 
z
M 243.170757 411.633387 
L 240.073705 410.619426 
L 235.957902 407.818701 
L 235.632971 407.517584 
L 231.842098 405.175946 
L 229.780312 403.401781 
L 227.726295 402.309976 
L 223.610492 399.437774 
L 223.394115 399.285978 
L 219.494689 397.951674 
L 215.378886 395.990435 
L 213.892944 395.170175 
L 211.263083 393.656641 
L 208.158871 391.054372 
L 208.456488 386.938569 
L 211.263083 384.759484 
L 215.378886 383.120117 
L 216.569067 382.822766 
L 219.494689 381.696045 
L 223.610492 380.5367 
L 227.726295 379.652017 
L 231.842098 378.899327 
L 233.490827 378.706963 
L 235.957902 378.028435 
L 240.073705 378.275141 
L 241.041218 378.706963 
L 244.189508 379.906702 
L 247.471898 382.822766 
L 248.305311 383.717944 
L 250.875321 386.938569 
L 252.421114 389.696966 
L 253.306977 391.054372 
L 255.286174 395.170175 
L 256.513012 399.285978 
L 256.536917 399.496844 
L 257.229508 403.401781 
L 256.536917 406.623046 
L 256.308979 407.517584 
L 252.421114 411.211798 
L 251.248744 411.633387 
L 248.305311 412.54126 
L 244.189508 412.187512 
z
" style="fill:#0000a8;"/>
   </g>
   <g id="PathCollection_34">
    <path clip-path="url(#p03845167e1)" d="M 244.189508 412.187512 
L 248.305311 412.54126 
L 251.248744 411.633387 
L 252.421114 411.211798 
L 256.308979 407.517584 
L 256.536917 406.623046 
L 257.229508 403.401781 
L 256.536917 399.496844 
L 256.513012 399.285978 
L 255.286174 395.170175 
L 253.306977 391.054372 
L 252.421114 389.696966 
L 250.875321 386.938569 
L 248.305311 383.717944 
L 247.471898 382.822766 
L 244.189508 379.906702 
L 241.041218 378.706963 
L 240.073705 378.275141 
L 235.957902 378.028435 
L 233.490827 378.706963 
L 231.842098 378.899327 
L 227.726295 379.652017 
L 223.610492 380.5367 
L 219.494689 381.696045 
L 216.569067 382.822766 
L 215.378886 383.120117 
L 211.263083 384.759484 
L 208.456488 386.938569 
L 208.158871 391.054372 
L 211.263083 393.656641 
L 213.892944 395.170175 
L 215.378886 395.990435 
L 219.494689 397.951674 
L 223.394115 399.285978 
L 223.610492 399.437774 
L 227.726295 402.309976 
L 229.780312 403.401781 
L 231.842098 405.175946 
L 235.632971 407.517584 
L 235.957902 407.818701 
L 240.073705 410.619426 
L 243.170757 411.633387 
z
M 238.529996 407.517584 
L 235.957902 406.371793 
L 231.890983 403.401781 
L 231.842098 403.378308 
L 227.726295 401.182783 
L 225.077869 399.285978 
L 223.610492 398.617272 
L 219.494689 396.85725 
L 216.506158 395.170175 
L 215.378886 394.499896 
L 211.263083 391.613377 
L 210.596254 391.054372 
L 211.146304 386.938569 
L 211.263083 386.8479 
L 215.378886 384.285327 
L 219.494689 383.116909 
L 220.901906 382.822766 
L 223.610492 381.867836 
L 227.726295 380.773142 
L 231.842098 380.011484 
L 235.957902 379.67091 
L 240.073705 380.206534 
L 244.189508 382.537512 
L 244.510596 382.822766 
L 248.305311 386.898709 
L 248.337119 386.938569 
L 251.07078 391.054372 
L 252.421114 394.340155 
L 252.851769 395.170175 
L 254.069241 399.285978 
L 254.079394 403.401781 
L 252.421114 406.676159 
L 251.71862 407.517584 
L 248.305311 409.483911 
L 244.189508 409.826065 
L 240.073705 408.597577 
z
" style="fill:#0000fa;"/>
   </g>
   <g id="PathCollection_35">
    <path clip-path="url(#p03845167e1)" d="M 240.073705 408.597577 
L 244.189508 409.826065 
L 248.305311 409.483911 
L 251.71862 407.517584 
L 252.421114 406.676159 
L 254.079394 403.401781 
L 254.069241 399.285978 
L 252.851769 395.170175 
L 252.421114 394.340155 
L 251.07078 391.054372 
L 248.337119 386.938569 
L 248.305311 386.898709 
L 244.510596 382.822766 
L 244.189508 382.537512 
L 240.073705 380.206534 
L 235.957902 379.67091 
L 231.842098 380.011484 
L 227.726295 380.773142 
L 223.610492 381.867836 
L 220.901906 382.822766 
L 219.494689 383.116909 
L 215.378886 384.285327 
L 211.263083 386.8479 
L 211.146304 386.938569 
L 210.596254 391.054372 
L 211.263083 391.613377 
L 215.378886 394.499896 
L 216.506158 395.170175 
L 219.494689 396.85725 
L 223.610492 398.617272 
L 225.077869 399.285978 
L 227.726295 401.182783 
L 231.842098 403.378308 
L 231.890983 403.401781 
L 235.957902 406.371793 
L 238.529996 407.517584 
z
M 243.674791 407.517584 
L 240.073705 406.877294 
L 235.957902 405.084396 
L 233.65385 403.401781 
L 231.842098 402.531824 
L 227.726295 400.05559 
L 226.65172 399.285978 
L 223.610492 397.900044 
L 219.494689 395.762826 
L 218.444851 395.170175 
L 215.378886 393.347143 
L 212.364143 391.054372 
L 213.025732 386.938569 
L 215.378886 385.450538 
L 219.494689 383.906117 
L 223.610492 383.006844 
L 224.657668 382.822766 
L 227.726295 381.894267 
L 231.842098 381.123641 
L 235.957902 380.971461 
L 240.073705 381.950518 
L 241.552816 382.822766 
L 244.189508 384.600556 
L 246.423721 386.938569 
L 248.305311 389.797303 
L 249.142574 391.054372 
L 250.961603 395.170175 
L 251.773209 399.285978 
L 251.180236 403.401781 
L 248.305311 406.569916 
L 244.917035 407.517584 
L 244.189508 407.661697 
z
" style="fill:#0034ff;"/>
   </g>
   <g id="PathCollection_36">
    <path clip-path="url(#p03845167e1)" d="M 244.189508 407.661697 
L 244.917035 407.517584 
L 248.305311 406.569916 
L 251.180236 403.401781 
L 251.773209 399.285978 
L 250.961603 395.170175 
L 249.142574 391.054372 
L 248.305311 389.797303 
L 246.423721 386.938569 
L 244.189508 384.600556 
L 241.552816 382.822766 
L 240.073705 381.950518 
L 235.957902 380.971461 
L 231.842098 381.123641 
L 227.726295 381.894267 
L 224.657668 382.822766 
L 223.610492 383.006844 
L 219.494689 383.906117 
L 215.378886 385.450538 
L 213.025732 386.938569 
L 212.364143 391.054372 
L 215.378886 393.347143 
L 218.444851 395.170175 
L 219.494689 395.762826 
L 223.610492 397.900044 
L 226.65172 399.285978 
L 227.726295 400.05559 
L 231.842098 402.531824 
L 233.65385 403.401781 
L 235.957902 405.084396 
L 240.073705 406.877294 
L 243.674791 407.517584 
z
M 235.416717 403.401781 
L 231.842098 401.685339 
L 228.140564 399.285978 
L 227.726295 399.08824 
L 223.610492 397.182816 
L 220.072711 395.170175 
L 219.494689 394.792036 
L 215.378886 392.194391 
L 213.879887 391.054372 
L 214.868381 386.938569 
L 215.378886 386.615748 
L 219.494689 384.695325 
L 223.610492 383.658172 
L 227.726295 382.933802 
L 228.737114 382.822766 
L 231.842098 382.235798 
L 235.957902 382.272012 
L 237.84558 382.822766 
L 240.073705 383.498876 
L 244.189508 386.594551 
L 244.518253 386.938569 
L 247.448434 391.054372 
L 248.305311 393.243345 
L 249.188408 395.170175 
L 249.783209 399.285978 
L 248.407049 403.401781 
L 248.305311 403.513896 
L 244.189508 405.754355 
L 240.073705 405.502806 
L 235.957902 403.797 
z
" style="fill:#0080ff;"/>
   </g>
   <g id="PathCollection_37">
    <path clip-path="url(#p03845167e1)" d="M 235.957902 403.797 
L 240.073705 405.502806 
L 244.189508 405.754355 
L 248.305311 403.513896 
L 248.407049 403.401781 
L 249.783209 399.285978 
L 249.188408 395.170175 
L 248.305311 393.243345 
L 247.448434 391.054372 
L 244.518253 386.938569 
L 244.189508 386.594551 
L 240.073705 383.498876 
L 237.84558 382.822766 
L 235.957902 382.272012 
L 231.842098 382.235798 
L 228.737114 382.822766 
L 227.726295 382.933802 
L 223.610492 383.658172 
L 219.494689 384.695325 
L 215.378886 386.615748 
L 214.868381 386.938569 
L 213.879887 391.054372 
L 215.378886 392.194391 
L 219.494689 394.792036 
L 220.072711 395.170175 
L 223.610492 397.182816 
L 227.726295 399.08824 
L 228.140564 399.285978 
L 231.842098 401.685339 
L 235.416717 403.401781 
z
M 238.292787 403.401781 
L 235.957902 402.750565 
L 231.842098 400.838855 
L 229.44645 399.285978 
L 227.726295 398.464914 
L 223.610492 396.465588 
L 221.333441 395.170175 
L 219.494689 393.967273 
L 215.391719 391.054372 
L 216.538775 386.938569 
L 219.494689 385.484532 
L 223.610492 384.3095 
L 227.726295 383.580056 
L 231.842098 383.176134 
L 235.957902 383.381948 
L 240.073705 384.851495 
L 242.752776 386.938569 
L 244.189508 388.659247 
L 245.933932 391.054372 
L 247.550549 395.170175 
L 247.810858 399.285978 
L 245.025126 403.401781 
L 244.189508 403.865347 
L 240.073705 404.128319 
z
" style="fill:#00c8ff;"/>
   </g>
   <g id="PathCollection_38">
    <path clip-path="url(#p03845167e1)" d="M 240.073705 404.128319 
L 244.189508 403.865347 
L 245.025126 403.401781 
L 247.810858 399.285978 
L 247.550549 395.170175 
L 245.933932 391.054372 
L 244.189508 388.659247 
L 242.752776 386.938569 
L 240.073705 384.851495 
L 235.957902 383.381948 
L 231.842098 383.176134 
L 227.726295 383.580056 
L 223.610492 384.3095 
L 219.494689 385.484532 
L 216.538775 386.938569 
L 215.391719 391.054372 
L 219.494689 393.967273 
L 221.333441 395.170175 
L 223.610492 396.465588 
L 227.726295 398.464914 
L 229.44645 399.285978 
L 231.842098 400.838855 
L 235.957902 402.750565 
L 238.292787 403.401781 
z
M 230.752336 399.285978 
L 227.726295 397.841589 
L 223.610492 395.74836 
L 222.594171 395.170175 
L 219.494689 393.142509 
L 216.553441 391.054372 
L 218.143157 386.938569 
L 219.494689 386.27374 
L 223.610492 384.960828 
L 227.726295 384.226309 
L 231.842098 383.924437 
L 235.957902 384.351871 
L 240.073705 386.204114 
L 241.016487 386.938569 
L 244.189508 390.738684 
L 244.41943 391.054372 
L 246.046963 395.170175 
L 245.889439 399.285978 
L 244.189508 401.507235 
L 240.073705 402.748156 
L 235.957902 401.810871 
L 231.842098 399.99237 
z
" style="fill:#23ffd4;"/>
   </g>
   <g id="PathCollection_39">
    <path clip-path="url(#p03845167e1)" d="M 231.842098 399.99237 
L 235.957902 401.810871 
L 240.073705 402.748156 
L 244.189508 401.507235 
L 245.889439 399.285978 
L 246.046963 395.170175 
L 244.41943 391.054372 
L 244.189508 390.738684 
L 241.016487 386.938569 
L 240.073705 386.204114 
L 235.957902 384.351871 
L 231.842098 383.924437 
L 227.726295 384.226309 
L 223.610492 384.960828 
L 219.494689 386.27374 
L 218.143157 386.938569 
L 216.553441 391.054372 
L 219.494689 393.142509 
L 222.594171 395.170175 
L 223.610492 395.74836 
L 227.726295 397.841589 
L 230.752336 399.285978 
z
M 232.209811 399.285978 
L 231.842098 399.160609 
L 227.726295 397.218264 
L 223.8398 395.170175 
L 223.610492 395.014697 
L 219.494689 392.317746 
L 217.715163 391.054372 
L 219.494689 387.322521 
L 219.790326 386.938569 
L 223.610492 385.612156 
L 227.726295 384.872563 
L 231.842098 384.672741 
L 235.957902 385.321794 
L 239.188092 386.938569 
L 240.073705 387.661179 
L 243.023599 391.054372 
L 244.189508 394.2762 
L 244.543377 395.170175 
L 244.189508 397.932846 
L 243.895244 399.285978 
L 240.073705 401.36163 
L 235.957902 400.871177 
z
" style="fill:#5dff9a;"/>
   </g>
   <g id="PathCollection_40">
    <path clip-path="url(#p03845167e1)" d="M 235.957902 400.871177 
L 240.073705 401.36163 
L 243.895244 399.285978 
L 244.189508 397.932846 
L 244.543377 395.170175 
L 244.189508 394.2762 
L 243.023599 391.054372 
L 240.073705 387.661179 
L 239.188092 386.938569 
L 235.957902 385.321794 
L 231.842098 384.672741 
L 227.726295 384.872563 
L 223.610492 385.612156 
L 219.790326 386.938569 
L 219.494689 387.322521 
L 217.715163 391.054372 
L 219.494689 392.317746 
L 223.610492 395.014697 
L 223.8398 395.170175 
L 227.726295 397.218264 
L 231.842098 399.160609 
L 232.209811 399.285978 
z
M 234.43165 399.285978 
L 231.842098 398.403088 
L 227.726295 396.594939 
L 225.022634 395.170175 
L 223.610492 394.212696 
L 219.494689 391.492982 
L 218.876885 391.054372 
L 219.494689 389.758772 
L 221.666199 386.938569 
L 223.610492 386.263484 
L 227.726295 385.518816 
L 231.842098 385.421044 
L 235.957902 386.291716 
L 237.250262 386.938569 
L 240.073705 389.242338 
L 241.649009 391.054372 
L 243.039009 395.170175 
L 241.342472 399.285978 
L 240.073705 399.975103 
L 235.957902 399.931484 
z
" style="fill:#9aff5d;"/>
   </g>
   <g id="PathCollection_41">
    <path clip-path="url(#p03845167e1)" d="M 235.957902 399.931484 
L 240.073705 399.975103 
L 241.342472 399.285978 
L 243.039009 395.170175 
L 241.649009 391.054372 
L 240.073705 389.242338 
L 237.250262 386.938569 
L 235.957902 386.291716 
L 231.842098 385.421044 
L 227.726295 385.518816 
L 223.610492 386.263484 
L 221.666199 386.938569 
L 219.494689 389.758772 
L 218.876885 391.054372 
L 219.494689 391.492982 
L 223.610492 394.212696 
L 225.022634 395.170175 
L 227.726295 396.594939 
L 231.842098 398.403088 
L 234.43165 399.285978 
z
M 226.205469 395.170175 
L 223.610492 393.410694 
L 220.060418 391.054372 
L 223.542071 386.938569 
L 223.610492 386.914812 
L 227.726295 386.16507 
L 231.842098 386.169347 
L 234.95064 386.938569 
L 235.957902 387.359479 
L 240.073705 390.823496 
L 240.274418 391.054372 
L 241.534401 395.170175 
L 240.073705 397.88132 
L 235.957902 398.893792 
L 231.842098 397.645567 
L 227.726295 395.971614 
z
" style="fill:#d4ff23;"/>
   </g>
   <g id="PathCollection_42">
    <path clip-path="url(#p03845167e1)" d="M 227.726295 395.971614 
L 231.842098 397.645567 
L 235.957902 398.893792 
L 240.073705 397.88132 
L 241.534401 395.170175 
L 240.274418 391.054372 
L 240.073705 390.823496 
L 235.957902 387.359479 
L 234.95064 386.938569 
L 231.842098 386.169347 
L 227.726295 386.16507 
L 223.610492 386.914812 
L 223.542071 386.938569 
L 220.060418 391.054372 
L 223.610492 393.410694 
L 226.205469 395.170175 
z
M 227.388304 395.170175 
L 223.610492 392.608693 
L 221.268727 391.054372 
L 223.610492 388.305302 
L 227.027937 386.938569 
L 227.726295 386.811323 
L 231.842098 386.91765 
L 231.926634 386.938569 
L 235.957902 388.623136 
L 238.808446 391.054372 
L 240.013694 395.170175 
L 235.957902 397.641077 
L 231.842098 396.888046 
L 227.726295 395.348289 
z
" style="fill:#ffdb00;"/>
   </g>
   <g id="PathCollection_43">
    <path clip-path="url(#p03845167e1)" d="M 227.726295 395.348289 
L 231.842098 396.888046 
L 235.957902 397.641077 
L 240.013694 395.170175 
L 238.808446 391.054372 
L 235.957902 388.623136 
L 231.926634 386.938569 
L 231.842098 386.91765 
L 227.726295 386.811323 
L 227.027937 386.938569 
L 223.610492 388.305302 
L 221.268727 391.054372 
L 223.610492 392.608693 
L 227.388304 395.170175 
z
M 229.209502 395.170175 
L 227.726295 394.355809 
L 223.610492 391.806692 
L 222.477035 391.054372 
L 223.610492 389.723772 
L 227.726295 387.832243 
L 231.842098 388.007354 
L 235.957902 389.886794 
L 237.326849 391.054372 
L 237.957459 395.170175 
L 235.957902 396.388362 
L 231.842098 396.130525 
z
" style="fill:#ff9400;"/>
   </g>
   <g id="PathCollection_44">
    <path clip-path="url(#p03845167e1)" d="M 231.842098 396.130525 
L 235.957902 396.388362 
L 237.957459 395.170175 
L 237.326849 391.054372 
L 235.957902 389.886794 
L 231.842098 388.007354 
L 227.726295 387.832243 
L 223.610492 389.723772 
L 222.477035 391.054372 
L 223.610492 391.806692 
L 227.726295 394.355809 
L 229.209502 395.170175 
z
M 231.286086 395.170175 
L 227.726295 393.215643 
L 223.74074 391.054372 
L 227.726295 388.945019 
L 231.842098 389.106876 
L 235.788496 391.054372 
L 235.573753 395.170175 
L 231.842098 395.373004 
z
" style="fill:#ff5200;"/>
   </g>
   <g id="PathCollection_45">
    <path clip-path="url(#p03845167e1)" d="M 231.842098 395.373004 
L 235.573753 395.170175 
L 235.788496 391.054372 
L 231.842098 389.106876 
L 227.726295 388.945019 
L 223.74074 391.054372 
L 227.726295 393.215643 
L 231.286086 395.170175 
z
M 225.843297 391.054372 
L 227.726295 390.057796 
L 231.842098 390.206398 
L 233.560429 391.054372 
L 231.842098 393.165619 
L 227.726295 392.075477 
z
" style="fill:#fa0f00;"/>
   </g>
   <g id="PathCollection_46">
    <path clip-path="url(#p03845167e1)" d="M 227.726295 392.075477 
L 231.842098 393.165619 
L 233.560429 391.054372 
L 231.842098 390.206398 
L 227.726295 390.057796 
L 225.843297 391.054372 
z
" style="fill:#a80000;"/>
   </g>
   <g id="patch_23">
    <path d="M 168.252941 454.22 
L 168.252941 323.772941 
" style="fill:none;stroke:#000000;stroke-linecap:square;stroke-linejoin:miter;stroke-width:0.5;"/>
   </g>
   <g id="patch_24">
    <path d="M 299.547059 454.22 
L 299.547059 323.772941 
" style="fill:none;stroke:#000000;stroke-linecap:square;stroke-linejoin:miter;stroke-width:0.5;"/>
   </g>
   <g id="patch_25">
    <path d="M 168.252941 454.22 
L 299.547059 454.22 
" style="fill:none;stroke:#000000;stroke-linecap:square;stroke-linejoin:miter;stroke-width:0.5;"/>
   </g>
   <g id="patch_26">
    <path d="M 168.252941 323.772941 
L 299.547059 323.772941 
" style="fill:none;stroke:#000000;stroke-linecap:square;stroke-linejoin:miter;stroke-width:0.5;"/>
   </g>
  </g>
  <g id="axes_6">
   <g id="patch_27">
    <path d="M 325.805882 454.22 
L 457.1 454.22 
L 457.1 323.772941 
L 325.805882 323.772941 
z
" style="fill:#ffffff;"/>
   </g>
   <g id="line2d_5">
    <path clip-path="url(#pe107a8eb5b)" d="M 331.773797 448.290588 
L 335.8896 448.290588 
L 340.005403 448.290588 
L 344.121206 448.290588 
L 348.237009 448.290584 
L 352.352812 448.290472 
L 356.468615 448.288186 
L 360.584418 448.256515 
L 364.700221 447.957905 
L 368.816024 446.057367 
L 372.931827 438.017176 
L 377.04763 416.019675 
L 381.163434 378.97014 
L 385.279237 345.287308 
L 389.39504 340.483102 
L 393.510843 367.72517 
L 397.626646 405.310028 
L 401.742449 432.141764 
L 405.858252 444.092899 
L 409.974055 447.544762 
L 414.089858 448.200277 
L 418.205661 448.283116 
L 422.321464 448.290164 
L 426.437267 448.290572 
L 430.55307 448.290588 
L 434.668873 448.290588 
L 438.784676 448.290588 
L 442.900479 448.290588 
L 447.016283 448.290588 
L 451.132086 448.290588 
" style="fill:none;stroke:#1f77b4;stroke-linecap:square;stroke-width:1.5;"/>
   </g>
   <g id="line2d_6">
    <path clip-path="url(#pe107a8eb5b)" d="M 331.773797 329.702353 
" style="fill:none;stroke:#ffffff;stroke-linecap:square;stroke-width:1.5;"/>
   </g>
   <g id="patch_28">
    <path d="M 325.805882 454.22 
L 325.805882 323.772941 
" style="fill:none;stroke:#000000;stroke-linecap:square;stroke-linejoin:miter;stroke-width:0.5;"/>
   </g>
   <g id="patch_29">
    <path d="M 457.1 454.22 
L 457.1 323.772941 
" style="fill:none;stroke:#000000;stroke-linecap:square;stroke-linejoin:miter;stroke-width:0.5;"/>
   </g>
   <g id="patch_30">
    <path d="M 325.805882 454.22 
L 457.1 454.22 
" style="fill:none;stroke:#000000;stroke-linecap:square;stroke-linejoin:miter;stroke-width:0.5;"/>
   </g>
   <g id="patch_31">
    <path d="M 325.805882 323.772941 
L 457.1 323.772941 
" style="fill:none;stroke:#000000;stroke-linecap:square;stroke-linejoin:miter;stroke-width:0.5;"/>
   </g>
  </g>
 </g>
 <defs>
  <clipPath id="p909d57eba9">
   <rect height="130.447059" width="131.294118" x="10.7" y="10.7"/>
  </clipPath>
  <clipPath id="p805bdf50f9">
   <rect height="130.447059" width="131.294118" x="10.7" y="167.236471"/>
  </clipPath>
  <clipPath id="p50ca940564">
   <rect height="130.447059" width="131.294118" x="168.252941" y="167.236471"/>
  </clipPath>
  <clipPath id="p8026aa40a1">
   <rect height="130.447059" width="131.294118" x="10.7" y="323.772941"/>
  </clipPath>
  <clipPath id="p03845167e1">
   <rect height="130.447059" width="131.294118" x="168.252941" y="323.772941"/>
  </clipPath>
  <clipPath id="pe107a8eb5b">
   <rect height="130.447059" width="131.294118" x="325.805882" y="323.772941"/>
  </clipPath>
 </defs>
</svg>
