<?xml version="1.0" encoding="utf-8"?>
<!-- Generator: Adobe Illustrator 13.0.0, SVG Export Plug-In . SVG Version: 6.00 Build 14948)  -->
<!DOCTYPE svg PUBLIC "-//W3C//DTD SVG 1.1//EN" "http://www.w3.org/Graphics/SVG/1.1/DTD/svg11.dtd">
<svg version="1.1" id="Layer_5" xmlns="http://www.w3.org/2000/svg" xmlns:xlink="http://www.w3.org/1999/xlink" x="0px" y="0px"
	 width="170.079px" height="177.469px" viewBox="0 0 170.079 177.469" enable-background="new 0 0 170.079 177.469"
	 xml:space="preserve">	 
<path d="M50.972,142.582l-1.3,3.834h1.854l1.152-3.395c0.608,0.108,1.38,0.162,2.102,0.162c4.898,0.003,7.853-1.892,9.555-4.33
	c1.705-2.435,2.171-5.396,2.171-7.549c0.003-4.815-2.63-8.541-6.608-9.878l1.42-4.168h-1.822l-1.275,3.764
	c-0.731-0.113-1.495-0.196-2.343-0.196c-7.362,0.053-11.495,5.177-11.484,11.911C44.387,137.247,46.55,141.041,50.972,142.582z
	 M59.086,123.889c2.487,2.073,3.388,5.371,3.388,8.604c-0.015,5.044-1.667,9.001-6.813,9.098c-0.872,0.001-1.776-0.162-2.386-0.448
	L59.086,123.889z M54.964,122.418c0.852,0,1.904,0.168,2.601,0.535l-5.811,17.252c-2.394-2.181-3.333-6.219-3.329-9.206
	C48.439,126.595,49.914,122.512,54.964,122.418z M136.944,137.95c-0.001-0.602-0.264-0.811-0.477-0.812
	c-0.765,0.064-0.87,1.084-1.848,2.04c-0.954,0.967-2.688,1.953-6.446,1.954c-1.911-0.034-1.895-0.73-1.935-2.304
	c0-0.172,0.002-0.353,0.002-0.542v-14.302c0.016-1.111,0.464-1.31,0.979-1.473c0.489-0.14,1.17-0.156,1.185-0.875
	c0.009-0.191-0.057-0.388-0.238-0.463c-0.169-0.072-0.371-0.072-0.695-0.074c-0.513,0-0.854,0.121-3.444,0.121
	c-1.151,0.001-2.92-0.121-4.147-0.122c-0.663,0.001-1.103,0.251-1.117,0.661c0.063,0.729,1.002,0.715,1.824,0.98
	c0.851,0.26,1.614,0.637,1.621,1.854v14.423c-0.012,1.838-0.544,2.258-1.069,2.476c-0.271,0.107-0.557,0.147-0.804,0.26
	c-0.252,0.107-0.453,0.351-0.443,0.741c0.004,0.298,0.3,0.475,0.721,0.475c1.684,0,2.967-0.121,3.902-0.121
	c1.517,0,3.352,0.121,7.989,0.121C135.106,142.962,136.941,140.394,136.944,137.95z M88.307,130.8
	c2.002-0.776,3.087-2.438,3.084-4.313c0-0.374-0.006-1.725-0.978-2.983c-0.972-1.262-2.903-2.404-6.663-2.403
	c-2.566,0.001-5.159,0.123-7.745,0.122c-1.404,0-1.566-0.117-1.83-0.121c-0.009,0-0.03-0.002-0.059-0.002
	c-0.091,0.001-0.235,0.002-0.371,0.089c-0.139,0.087-0.233,0.266-0.23,0.512c-0.008,0.433,0.271,0.683,0.595,0.798
	c0.981,0.397,2.607,0.146,2.638,3.227v13.478c-0.01,1.436-0.604,1.886-1.227,2.172c-0.604,0.289-1.351,0.295-1.396,0.969
	c-0.009,0.243,0.115,0.454,0.327,0.533c0.206,0.085,0.466,0.094,0.822,0.095c0.656,0,1.448-0.121,2.164-0.121
	c1.517,0,3.048,0.121,7.593,0.121c2.508,0,4.488-0.661,5.844-1.85c1.356-1.186,2.073-2.894,2.072-4.938
	C92.962,133.479,91.788,131.755,88.307,130.8z M80.78,125.45c0.033-1.766,0.01-2.732,1.995-2.757
	c2.646,0.005,4.828,1.893,4.828,4.616c-0.026,2.223-0.8,3.25-3.06,3.273h-1.831c-1.779-0.174-1.886-0.132-1.933-1.598V125.45z
	 M84.39,141.47c-2.932-0.041-3.571-0.736-3.61-3.61v-3.415c0.042-1.611-0.014-2.17,1.72-2.207c5.499,0.022,6.27,2.652,6.291,4.433
	C88.776,139.581,87.305,141.457,84.39,141.47z M160.909,137.951c0-0.604-0.264-0.812-0.476-0.812
	c-0.766,0.063-0.87,1.083-1.847,2.038c-0.954,0.969-2.688,1.954-6.448,1.955c-1.911-0.034-1.894-0.731-1.934-2.305
	c0-0.173,0.001-0.353,0.001-0.543v-3.902c0-0.264-0.003-0.494-0.003-0.696c0.054-1.187-0.026-1.245,1.144-1.296h2.256
	c1.533,0.01,2.033,0.743,2.338,1.523c0.318,0.762,0.269,1.639,0.955,1.708c0.595-0.009,0.7-0.589,0.702-1.011
	c0-0.254-0.032-0.498-0.043-0.636l-0.214-5.423c-0.014-0.372-0.085-0.598-0.215-0.739c-0.134-0.146-0.307-0.16-0.416-0.158
	c-0.036,0-0.066,0.001-0.087,0.001c-0.278,0.02-0.393,0.256-0.534,0.515c-0.422,0.814-0.919,2.289-2.79,2.291h-1.921
	c-0.658,0.002-0.936-0.068-1.035-0.216c-0.121-0.144-0.141-0.511-0.137-1.167v-4.27c0-1.067,0.045-1.521,0.449-1.733
	c0.423-0.242,1.381-0.264,3.223-0.261c2.923,0.01,3.703,0.864,4.007,1.691c0.152,0.422,0.172,0.854,0.245,1.207
	c0.057,0.342,0.251,0.681,0.688,0.669c0.589-0.006,0.691-0.58,0.693-0.989c0-0.224-0.025-0.434-0.034-0.564l-0.122-3.015
	c0-0.336-0.273-0.714-0.751-0.714c-2.688,0-4.794,0.122-6.952,0.122c-4.664,0-6.853-0.122-8.11-0.122
	c-0.479,0-0.812,0.292-0.813,0.66c0.052,0.791,1.006,0.797,1.824,1.057c0.85,0.261,1.614,0.632,1.621,1.932v14.271
	c-0.012,1.837-0.543,2.256-1.067,2.474c-0.271,0.109-0.559,0.148-0.806,0.262c-0.251,0.106-0.454,0.35-0.442,0.74
	c0.003,0.297,0.299,0.475,0.72,0.475c1.683,0,2.97-0.121,3.903-0.121c1.516,0,3.352,0.121,7.987,0.123
	C159.072,142.962,160.909,140.394,160.909,137.951z M102.926,141.44c-0.498,0.282-1.148,0.349-1.172,1.024
	c0,0.174,0.104,0.505,0.477,0.505c0.806,0,2.111-0.121,3.416-0.121c2.373,0,3.495,0.121,4.634,0.121
	c0.359,0,0.616-0.027,0.811-0.114c0.197-0.085,0.313-0.277,0.306-0.482c-0.005-0.358-0.33-0.486-0.647-0.543
	c-1.009-0.221-2.748-0.065-2.767-2.781v-14.545c0.013-1.414,0.521-1.769,1.052-1.983c0.271-0.104,0.552-0.152,0.79-0.249
	c0.235-0.087,0.452-0.284,0.445-0.604c0.012-0.191-0.067-0.407-0.279-0.481c-0.197-0.076-0.468-0.084-0.93-0.086
	c-1.745,0-2.848,0.122-3.934,0.121c-1.056,0.001-2.247-0.121-3.444-0.122c-0.064,0.001-0.173-0.007-0.293-0.007
	c-0.316,0.001-0.866,0.045-0.885,0.575c0.064,0.731,1.002,0.708,1.821,0.989c0.846,0.274,1.615,0.684,1.624,1.999v14.637
	C103.94,140.707,103.44,141.151,102.926,141.44z M33.399,142.849c0.871-0.001,1.725,0.121,2.622,0.121
	c0.535,0,0.902,0.003,1.17-0.068c0.274-0.062,0.45-0.297,0.435-0.591c0.007-0.354-0.256-0.549-0.534-0.638
	c-0.846-0.319-2.283-0.217-2.424-3.148l-0.519-13.507c-0.002-0.069-0.003-0.136-0.003-0.2c0.013-1.586,0.66-2.029,1.342-2.29
	c0.661-0.263,1.477-0.2,1.529-0.92c0.008-0.122-0.032-0.315-0.21-0.4c-0.166-0.081-0.396-0.105-0.816-0.107
	c-0.866,0-1.455,0.124-1.982,0.123c-0.433,0.001-1.021-0.121-1.768-0.123c-0.664-0.011-0.822,0.512-0.891,0.696l-7.073,14.752
	c-0.012,0.037-0.09,0.204-0.178,0.339c-0.043,0.069-0.093,0.136-0.134,0.177c-0.02,0.021-0.039,0.034-0.049,0.042l0,0.003
	c-0.047,0.021-0.147-0.112-0.267-0.405l-6.709-14.637c-0.387-0.88-0.8-0.984-1.134-0.967h-0.062c-1.017,0-2.148,0.123-2.835,0.123
	c-0.966,0-1.404-0.121-1.83-0.123c-0.33,0.017-0.5,0.321-0.506,0.568c0.04,0.816,0.911,0.784,1.618,1.175
	c0.728,0.389,1.459,1.114,1.468,3.365c0,0.128-0.001,0.259-0.007,0.394l-0.426,12.259c-0.067,1.563-0.674,2.101-1.283,2.438
	c-0.59,0.337-1.308,0.404-1.339,1.104c0.001,0.247,0.21,0.566,0.721,0.566c0.475,0,1.53-0.122,3.019-0.121
	c1.392-0.001,2.03,0.121,3.14,0.123c0.347-0.002,0.56-0.057,0.703-0.16c0.144-0.104,0.179-0.263,0.176-0.36
	c0-0.054-0.006-0.101-0.006-0.109c0.007-0.384-0.29-0.574-0.597-0.656c-0.937-0.309-2.547-0.159-2.582-3.641
	c0-0.126,0.002-0.258,0.007-0.394l0.305-8.538c0-0.111,0.001-0.296,0.024-0.443c0.012-0.069,0.029-0.13,0.046-0.162
	c0.051,0.073,0.152,0.284,0.212,0.419l5.913,13.138c0.147,0.305,0.298,0.917,0.89,0.937c0.608-0.011,0.75-0.572,0.92-0.936
	l5.762-12.043c0.229-0.502,0.433-0.903,0.593-1.174c0.08-0.136,0.149-0.239,0.2-0.303c0.008-0.011,0.015-0.019,0.022-0.027
	c0.018,0.048,0.042,0.14,0.054,0.278c0.025,0.216,0.039,0.526,0.052,0.926l0.457,9.241c0.007,0.123,0.011,0.24,0.011,0.352
	c-0.011,1.445-0.512,1.873-1.023,2.136c-0.495,0.258-1.152,0.268-1.183,0.921c0.019,0.561,0.589,0.604,1.055,0.604
	c0.165-0.001,0.332-0.007,0.488-0.007C30.703,142.97,31.422,142.848,33.399,142.849z M164.285,163.593
	c-2.211-0.899-3.769-1.45-4.753-2.019c-0.984-0.577-1.377-1.112-1.384-2.084c0.009-1.96,1.384-3.042,3.511-3.054
	c2.78,0.003,4.264,1.376,5.179,2.768c0.455,0.696,0.763,1.398,1.004,1.931c0.263,0.522,0.364,0.919,0.737,0.973
	c0.32,0,0.562-0.068,0.721-0.233c0.158-0.168,0.2-0.393,0.2-0.645c0-0.101-0.006-0.207-0.018-0.32l-0.361-4.085
	c-0.032-0.343-0.022-0.628-0.073-0.862c-0.034-0.234-0.237-0.448-0.533-0.43c-0.506,0.013-1.329,0.5-1.682,0.487
	c-0.885,0.02-2.337-1.187-5.074-1.188c-3.923,0.006-6.633,2.629-6.64,6.215c-0.008,3.277,2.033,4.536,4.869,5.685
	c2.655,1.083,4.503,1.726,5.662,2.407c1.158,0.69,1.62,1.356,1.628,2.61c-0.003,2.347-1.88,3.747-4.398,3.756
	c-3.573,0-5.568-2.699-6.62-5.604c-0.104-0.371-0.264-0.786-0.862-0.768c-0.239-0.002-0.428,0.069-0.544,0.204
	c-0.116,0.137-0.147,0.306-0.148,0.467c0.002,0.304,0.109,0.624,0.153,0.819l0.144-0.033l-0.144,0.034l1.023,4.18
	c0.13,0.691,0.198,1.103,1.065,1.265c1.894,0.392,3.587,1.131,5.634,1.133c4.379-0.007,7.489-2.777,7.498-6.854
	C170.088,166.4,167.809,165.012,164.285,163.593z M147.192,166.607c-1.109,0-2.176,0.12-3.294,0.12c-1.425,0-2.828-0.12-4.269-0.12
	c-0.172,0-0.417-0.032-0.664-0.032c-0.223,0.002-0.454,0.023-0.65,0.144c-0.197,0.119-0.325,0.353-0.321,0.669
	c-0.002,0.396,0.354,0.53,0.69,0.56c1.069,0.163,2.905-0.205,2.939,3.283c-0.037,1.762-0.004,4.152-5.44,4.188
	c-2.413-0.002-4.131-1.348-5.268-3.229c-1.135-1.88-1.665-4.292-1.665-6.356c0.018-7.664,3.948-9.419,6.721-9.434
	c3.969,0.004,5.912,1.631,6.981,3.26c0.533,0.814,0.842,1.635,1.061,2.255c0.11,0.31,0.196,0.57,0.28,0.763
	c0.09,0.181,0.15,0.346,0.367,0.369c0.3,0,0.518-0.035,0.682-0.153c0.166-0.122,0.224-0.321,0.221-0.536v-5.092
	c-0.012-0.462,0.052-1.244-0.598-1.3c-0.343,0.009-0.5,0.284-0.654,0.483c-0.161,0.211-0.299,0.369-0.564,0.37
	c-0.353,0.014-1.201-0.489-2.501-0.991c-1.283-0.497-3.006-0.992-5.122-0.99c-7.786,0.002-10.956,6.834-10.966,12.002
	c0.01,2.436,1.403,10.352,10.447,10.355c3.362-0.001,6.765-1.416,9.671-3.005c0.328-0.169,0.393-0.444,0.379-0.917
	c0-0.443-0.092-1.286-0.092-2.53c0.01-1.937,0.505-2.409,0.97-2.628c0.242-0.111,0.498-0.147,0.725-0.25
	c0.23-0.096,0.421-0.324,0.409-0.69C147.667,166.809,147.419,166.607,147.192,166.607z M118.308,155.112
	c-0.296,0-1.344,0.12-3.263,0.12c-2.102,0-2.97-0.12-3.477-0.12c-0.491,0-0.628,0.418-0.628,0.658
	c0.071,0.706,1.057,0.731,1.952,1.086c0.918,0.339,1.763,0.836,1.767,2.146l0.001,10.154c0,0.375-0.017,0.653-0.051,0.82
	c-0.017,0.084-0.039,0.139-0.054,0.158l0.002,0.008c-0.042,0.033-0.468-0.322-0.843-0.748l-12.256-13.445
	c-0.263-0.276-0.286-0.438-0.414-0.607c-0.144-0.18-0.363-0.233-0.85-0.23c-1.623,0-2.425,0.12-3.201,0.12
	c-0.56,0.002-1.108-0.12-1.708-0.12c-0.439,0-0.658,0.335-0.658,0.658c-0.01,0.434,0.295,0.657,0.627,0.76
	c0.997,0.373,2.75,0.229,2.788,4.576h-0.001v11.588c-0.008,1.507-0.682,2.074-1.39,2.475c-0.692,0.398-1.507,0.546-1.538,1.306
	c-0.004,0.195,0.086,0.358,0.222,0.436c0.134,0.078,0.28,0.09,0.423,0.09c0.166,0,0.332-0.021,0.442-0.021
	c0.838,0,1.658-0.121,2.622-0.121c1.057,0,2.096,0.121,3.598,0.121h0.164c0.395-0.015,1.078,0.032,1.137-0.536
	c0.005-0.443-0.344-0.644-0.715-0.732c-1.138-0.331-3.154-0.149-3.189-4.48l0.001-10.367c-0.001-0.127,0.016-0.234,0.041-0.291
	c0.032-0.058,0.032-0.052,0.062-0.058c0.057-0.012,0.239,0.108,0.442,0.35l14.67,15.857c0.198,0.237,0.423,0.48,0.896,0.473
	c0.011,0.001,0.021,0.001,0.032,0.001c0.197,0,0.376-0.12,0.422-0.305c0.056-0.185,0.051-0.415,0.052-0.751v-17.106
	c0.009-1.564,0.606-2.103,1.22-2.425c0.596-0.33,1.319-0.324,1.372-0.96c0-0.049,0.003-0.192-0.105-0.323
	C118.815,155.194,118.618,155.11,118.308,155.112z M69.208,175.958c-0.526-0.251-1.639-0.335-3.42-2.739l-5.825-7.835
	c-0.462-0.606-0.716-0.985-0.705-1.167c-0.028-0.142,0.445-0.648,0.621-0.775l-0.09-0.108l0.095,0.103l5.366-4.971
	c1.468-1.331,2.428-1.758,3.026-1.963c0.3-0.103,0.51-0.146,0.679-0.231c0.176-0.08,0.285-0.271,0.273-0.5
	c-0.002-0.623-0.601-0.659-0.853-0.659h-0.081c-1.32,0-2.12,0.121-2.867,0.121c-0.908,0-3.006-0.121-3.323-0.121
	c-0.202,0.002-0.398,0.001-0.573,0.104c-0.18,0.106-0.273,0.32-0.27,0.616c0.038,0.518,0.602,0.559,1.04,0.671
	c0.478,0.112,0.832,0.233,0.82,0.58c0.035,1.224-2.904,3.753-3.77,4.595l-4.024,3.932c-0.361,0.368-0.549,0.495-0.619,0.483
	c-0.012,0-0.02-0.002-0.025-0.003c-0.002,0-0.004,0-0.006-0.001c-0.014-0.047-0.032-0.183-0.027-0.319
	c0-0.08,0.002-0.163,0.002-0.241v-6.981c0.016-1.656,0.505-1.974,0.996-2.129c0.256-0.076,0.525-0.088,0.761-0.164
	c0.24-0.068,0.452-0.285,0.439-0.635c0.008-0.233-0.146-0.403-0.31-0.453c-0.161-0.058-0.333-0.053-0.471-0.054
	c-0.621,0-2.536,0.121-4.238,0.121c-2.069,0-3.063-0.121-3.659-0.121c-0.199,0.001-0.377,0.03-0.521,0.126
	c-0.146,0.098-0.232,0.271-0.229,0.473c-0.008,0.403,0.278,0.628,0.596,0.723c0.976,0.338,2.582,0.079,2.605,2.752v13.265
	c-0.008,2.287-0.589,2.851-1.135,3.1c-0.283,0.126-0.58,0.163-0.839,0.274c-0.264,0.104-0.477,0.354-0.466,0.773
	c0.078,0.425,0.526,0.362,1.087,0.384c0.956,0,2.538-0.122,3.995-0.122c1.731,0,2.546,0.122,3.385,0.122
	c0.373-0.002,0.594-0.019,0.76-0.093c0.179-0.075,0.244-0.264,0.234-0.413c-0.05-0.729-0.893-0.71-1.592-0.958
	c-0.724-0.251-1.385-0.624-1.397-1.969v-3.995c0-0.149-0.003-0.278-0.003-0.393c0.006-0.431,0.023-0.612,0.364-1.009
	c0.648-0.762,1.231-1.269,1.328-1.232c0.004-0.004,0.08,0.031,0.19,0.179c0.112,0.143,0.259,0.357,0.46,0.619l6.065,8.321
	c0.576,0.802,0.98,0.943,1.528,0.943c0.026,0,0.053,0,0.08-0.001c0.867,0,1.484-0.123,2.042-0.122c0.81,0,1.6,0.121,2.288,0.122
	c0.202,0.001,0.359-0.054,0.449-0.175c0.085-0.12,0.087-0.251,0.087-0.362C69.545,176.206,69.391,176.033,69.208,175.958z
	 M40.132,175.842c-1.01-0.222-2.748-0.066-2.767-2.782v-14.546c0.012-1.413,0.521-1.769,1.052-1.983
	c0.272-0.104,0.553-0.152,0.79-0.247c0.235-0.087,0.453-0.285,0.445-0.604c0.013-0.191-0.066-0.408-0.279-0.482
	c-0.196-0.076-0.467-0.084-0.928-0.087c-1.745,0-2.848,0.122-3.934,0.122c-1.057,0-2.247-0.122-3.446-0.122
	c-0.064,0-0.171-0.007-0.292-0.007c-0.317,0.002-0.867,0.044-0.886,0.576c0.065,0.728,1.001,0.707,1.822,0.987
	c0.846,0.274,1.615,0.685,1.624,2v14.637c-0.009,1.414-0.509,1.859-1.024,2.146c-0.498,0.282-1.148,0.35-1.172,1.024
	c0.001,0.175,0.104,0.505,0.477,0.505c0.805,0,2.112-0.121,3.416-0.121c2.373,0,3.496,0.121,4.635,0.123
	c0.358-0.002,0.616-0.028,0.81-0.117c0.198-0.083,0.315-0.275,0.307-0.481C40.774,176.024,40.449,175.898,40.132,175.842z
	 M22.671,155.195c-0.151-0.083-0.323-0.09-0.519-0.091c-0.139,0-0.29,0.008-0.454,0.008c-0.866,0-1.72,0.121-2.561,0.12
	c-0.871,0.001-1.725-0.12-2.622-0.12c-0.083,0-0.203-0.007-0.334-0.007c-0.391,0.001-1.032,0.036-1.058,0.634
	c0.06,0.727,0.925,0.646,1.644,0.865c0.746,0.218,1.422,0.566,1.436,1.941c-0.001,0.471-0.056,1.51-0.964,3.54l-4.177,9.269
	c-0.05,0.118-0.103,0.275-0.162,0.396c-0.028,0.061-0.06,0.11-0.084,0.137c-0.021,0.024-0.021,0.018-0.021,0.024
	c-0.001,0-0.002,0.001-0.03-0.027c-0.09-0.089-0.2-0.364-0.269-0.527l-3.962-9.815c-0.76-1.853-1.15-3.279-1.148-4.156
	c0.005-0.552,0.36-0.702,0.817-0.859c0.425-0.146,0.989-0.23,1.013-0.787c0.003-0.231-0.033-0.439-0.229-0.542
	c-0.179-0.089-0.396-0.084-0.761-0.087c-0.085,0-0.179,0.002-0.279,0.002c-0.508,0-1.375,0.12-3.324,0.121
	c-1.026,0-2.063-0.121-3.079-0.123c-0.166,0.002-0.431-0.039-0.692-0.039c-0.373,0-0.852,0.123-0.853,0.668
	c0.047,0.38,0.474,0.503,0.584,0.562c1.248,0.317,1.588,0.581,2.111,1.753l7.592,17.743c0.554,1.276,0.858,1.652,1.289,1.672h0.006
	c0.419,0,0.626-0.284,0.945-1.059h0l8.294-18.325c0.401-0.873,0.889-1.257,1.294-1.525c0.39-0.264,0.779-0.418,0.791-0.88
	C22.913,155.463,22.829,155.281,22.671,155.195z M86.492,175.842c-1.011-0.222-2.749-0.066-2.767-2.782v-14.546
	c0.012-1.413,0.52-1.769,1.052-1.983c0.271-0.104,0.552-0.152,0.789-0.247c0.234-0.087,0.452-0.285,0.445-0.604
	c0.012-0.191-0.067-0.408-0.279-0.482c-0.197-0.076-0.468-0.084-0.93-0.087c-1.745,0-2.847,0.122-3.933,0.122
	c-1.058,0-2.247-0.122-3.446-0.122c-0.063,0-0.171-0.007-0.292-0.007c-0.317,0.002-0.867,0.044-0.886,0.576
	c0.065,0.728,1.002,0.707,1.822,0.987c0.847,0.274,1.616,0.685,1.624,2v14.637c-0.009,1.414-0.508,1.859-1.023,2.146
	c-0.498,0.282-1.148,0.35-1.171,1.024c0,0.175,0.104,0.505,0.476,0.505c0.805,0,2.112-0.121,3.416-0.121
	c2.374,0,3.495,0.121,4.634,0.123c0.358-0.002,0.616-0.028,0.811-0.117c0.197-0.083,0.313-0.275,0.306-0.481
	C87.134,176.024,86.809,175.898,86.492,175.842z M50.104,103.619c-0.721,0.042-13.101,1.4-20.521,2.46s-12.041,2.798-12.041,2.798
	h137.585c0,0-1.447-0.984-5.645-1.619c-4.196-0.636-9.923-1.857-15.901-3.088c-5.978-1.229-6.4-3.816-6.4-3.816
	s3.772,0.511,5.342,1.994c-0.552-3.562-2.247-4.875-3.986-5.935c2.206-2.587,0.679-3.943-0.17-4.199c0,0,1.367-1.786,2.786-0.987
	c-1.309-2.429-4.104-1.933-5.245-1.259c0.043-1.102,0.34-2.373,0.891-4.536c2.843,0.44,3.52-1.229,3.604-2.163
	c1.102,0.509,1.187,2.29-0.17,2.884c3.727-0.433,4.662-3.245,4.62-5.111c5.767,1.484,5.986,7.609,5.308,9.646
	c1.23-2.162,2.367-6.952-1.066-11.148c-3.434-4.197-8.733-4.156-10.728-4.24c-0.254-0.551-0.712-1.046-1.212-1.546
	c2.29-6.274,3.163-12.191,1.51-21.051c-1.653-8.861-7.335-15.857-7.335-15.857s8.521,2.077,9.964,2.416
	c1.442,0.339,2.204-0.466,1.822-1.398c-0.382-0.933-0.55-1.824-0.976-3.477c-0.423-1.654-1.271-3.011-2.628-3.731
	s-3.434-1.314-7.547-5.342c-4.111-4.028-8.225-7.038-11.489-8.861c0.423-4.282,3.561-9.963,6.146-11.702
	c-6.953,1.739-10.853,8.48-10.853,8.48l-0.678-1.824l-2.757,1.696c0,0-0.425-1.145-1.018-3.095
	c0.763-4.282,2.926-8.268,4.621-10.006c-7.462,3.646-10.048,9.752-10.048,9.752l-1.779-3.478l-2.757,6.105l-4.452-5.003
	l-1.949,6.741l-6.021-2.671l0.467,6.275l-4.494-0.297c0,0-0.594-7.038-0.679-8.098c-0.084-1.06-1.441-0.636-1.399,0.085
	c0.042,0.721,0.255,6.995,0.339,11.023c-14.626,3.561-21.876,12.931-21.876,12.931s-1.229-0.212-2.247-0.297
	c-1.018-0.085-0.849,1.103-0.466,1.229c0.381,0.126,0.678,0.17,1.526,0.424c-6.105,7.504-7.586,14.919-7.926,17.251
	c-0.369-0.6-0.766-0.717-1.232-0.971c-0.381-1.823-0.042-6.105,0.297-8.183c-3.349,5.724-3.604,17.68-3.561,19.63
	c-1.441,0.127-1.546,3.394-0.485,7.845c1.059,4.452,2.447,7.22,2.447,7.22s-1.286-0.333-2.853,0.665
	c-2.228,1.417-2.205,3.391-1.611,4.451c-1.314,0.255-1.908,1.526-1.781,2.461c-4.749,3.137-4.239,6.527-4.239,6.527
	s0.763-0.762,1.908-1.144c-0.339,0.552-0.975,2.84,1.06,4.367c2.035,1.526,4.579,0.424,4.579,0.424s0.255,0.975,1.145,1.654
	c-4.876,4.79-5.13,7.206-5.13,7.206s1.526-1.018,5.046-2.247c6.656-0.593,11.702,0.934,12.168,1.145
	C50.4,103.238,50.825,103.577,50.104,103.619z M27.6,107.613c2.163-0.054,32.937-1.793,35.574-2.005
	c0.316-1.582-1.529-3.216-3.587-3.798c-2.058-0.58-5.223-0.264-7.597-0.792c-2.374-0.526-1.688-2.004-1.424-2.372
	c0.264-0.37,1.583-0.423,6.33,1.423c4.747,1.846,14.771,6.12,20.731,6.648c5.961,0.527,13.134-0.105,17.777-0.105
	c4.642,0,17.303-0.211,23.632-0.317c6.33-0.105,8.599,0.106,15.878,0.37c7.28,0.265,11.419,1.154,11.419,1.154
	S32.822,107.771,27.6,107.613z M116.241,105.452c-9.285,0-17.408,0.316-17.883,0.053c-0.476-0.264,2.427-1.055,5.803-1.847
	C107.537,104.396,116.241,105.452,116.241,105.452z M106.64,103.13c0,0,0.687-0.211,2.901-0.686
	c7.966,1.793,14.612,2.692,14.612,2.692C115.186,104.924,106.64,103.13,106.64,103.13z M138.502,106.084
	c0,0-9.02-0.686-16.511-1.846s-10.551-2.162-10.551-2.162l3.534-0.739c0,0,1.847,1.319,4.801,1.319s4.22-0.106,7.966,1.002
	C131.486,104.766,138.502,106.084,138.502,106.084z M127.214,102.393c-2.585-0.949-4.959-0.896-7.068-0.792
	c-2.11,0.106-2.901-0.685-2.901-0.685c6.382-1.216,8.861-0.687,8.861-0.687S126.105,101.231,127.214,102.393z M131.012,100.177
	c-3.481-1.845-8.704-1.899-19.624,0.528c-10.918,2.426-17.564,4.008-26.216,4.8s-15.614-1.583-21.628-3.957
	c-6.013-2.374-6.521-2.855-9.344-3.637c4.919-0.426,6.765-0.283,11.589,0.387c5.81,0.808,9.939,1.736,18.696,2.105
	c8.757,0.37,16.612-1.739,18.934-3.216c6.991-0.147,10.343-2.603,12.928-2.919s2.638,1.002,2.479,1.636
	C129.112,96.063,131.012,100.177,131.012,100.177z M110.385,94.164c1.372-0.792,3.061-1.213,3.904-0.686
	c-2.216,1.001-4.695,1.898-6.12,2.057c0-1.265,0.792-3.112,2.11-5.327c1.319-2.216,3.061-2.216,3.061-2.216
	C111.493,91.156,110.966,92.317,110.385,94.164z M114.5,88.468c0.37,0.526,0.738,1.635-0.845,3.85
	c-0.526-0.105-1.317,0.053-1.317,0.053S113.023,90.313,114.5,88.468z M107.168,95.693l-1.477,0.211c0,0,1.318-0.791,2.584-3.218
	C107.537,94.374,107.168,95.693,107.168,95.693z M120.093,83.191c-1.9,0.633-2.85,1.055-4.221,2.163
	c-0.316-0.581-0.845-0.95-0.845-0.95S117.19,82.875,120.093,83.191z M114.5,84.088c-0.475-0.368-0.896-0.527-0.896-0.527
	s1.16-0.896,3.851-0.791C116.294,83.085,115.027,83.351,114.5,84.088z M118.246,85.461c1.371-0.793,2.373-1.162,4.8-1.215
	c0.264,2.269,0.791,5.646-1.319,10.444c-0.896-0.157-1.846-0.105-1.846-0.105s-0.738-2.32-4.537-1.424
	c-0.105-0.158-0.264-0.316-0.264-0.316S117.402,89.522,118.246,85.461z M129.798,90.577c-1.161,0-2.11,0.791-2.743,2.215
	c2.954-0.053,1.372,2.375,0.527,3.323c-1.214-0.526-2.32-0.845-4.272-1.214c2.162-6.752,1.002-10.392,1.002-10.392
	s0.791,0.317,1.583,0.686c-0.739,2.954-0.685,4.543-0.779,6.414C126.803,89.552,128.604,89.905,129.798,90.577z M132.91,76.703
	c4.748,0.897,8.282,5.434,7.913,10.972c-0.158-5.116-3.323-7.175-6.964-7.912c0.211,0.739,0.494,4.304-2.106,5.539
	c0.817-1.39-0.688-3.271-2.536-3.112c0.898,0.422,0.265,2.479-1.635,2.373c-1.899-0.104-5.38-2.373-9.336-2.637
	c-3.957-0.265-6.173,1.107-7.122,2.215c1.635-0.475,5.117,0.687,4.326,4.063c-0.58-1.899-3.852-1.583-5.908,1.16
	c-2.059,2.743-2.691,4.114-4.168,5.116c0.738-1.001,0.105-4.588-3.165-4.904c1.003-1.741,1.318-3.378,1.318-3.378
	s6.963-5.011,14.032-7.595C124.629,76.017,128.163,75.807,132.91,76.703z M103.013,57.67c2.697,5.061,4.091,9.788,4.395,15.243
	c0.304,5.455-2.242,10.758-2.242,10.758s-0.334,0.183-1.304,0.758c0.455-3.817,0.273-7.849-2.909-12.485
	c-3.182-4.637-5.939-6.728-8.151-8.364c-0.304-2.122-0.728-2.97-1.728-10.182c-0.999-7.212-0.546-9.062,0.062-12.243
	c0.604-3.182,3.423-5.091,3.423-5.091C91.315,42.306,100.316,52.609,103.013,57.67z M122.547,48.598
	c-0.966-1.006-10.226-9.904-11.513-11.272c-1.289-1.369-2.119-1.929-1.893-2.255c0.361-0.524,3.38,0.001,7.043,0.685
	c5.678,6.24,8.174,12.199,9.463,17.956c1.288,5.757,0.04,12.117-1.008,15.498c-1.973-6.563-6.641-8.775-7.607-9.419
	c-0.121-0.402,0.08-1.53,0.522-2.617c0.443-1.087,2.617-1.57,2.858-0.242c0.242,1.329-0.604,2.134-1.852,2.335
	c0.805,0.242,1.53,0.322,2.617,0.121c1.088-0.201,3.059-1.087,2.536-3.382c-0.522-2.294-1.933-2.375-2.818-2.415
	c-0.2-0.443-0.805-1.651-2.415-1.611c-1.611,0.04-2.698,1.208-2.979,2.496c-2.738-0.161-3.382,2.053-3.342,3.1
	c-1.57-0.564-2.979-0.886-5.192-1.208c-0.162-3.945-0.967-8.213-0.967-8.213s2.818,0.644,3.543,0.765
	c0.725,0.121,0.845-0.886,0.201-1.208c-0.645-0.322-4.389-1.852-4.389-1.852s-0.087-0.041-0.207-0.523
	c-2.877-1.295-8.215-4.167-9.705-4.771c-0.08-1.087,0.009-1.71,0.291-2.877c3.1,5.475,9.299,6.28,12.076,7.247
	c2.779,0.966,4.63,2.294,6.604,3.744c1.973,1.45,3.1,2.416,3.984,2.416c0.887,0,2.215-0.242,3.061-0.121
	c0.847,0.121,2.054,0.523,2.295-0.242S123.514,49.604,122.547,48.598z M104.874,56.892c0,0,6.482,5.837,9.662,10.668
	c3.181,4.831,3.02,9.904,3.02,9.904s-2.617,0.966-5.516,2.456C112.241,76.417,112.927,68.969,104.874,56.892z M107.975,68.849
	c-1.208-6.522-4.51-12.32-6.925-15.862c0,0,2.014,2.214,3.502,4.429c1.49,2.214,4.106,6.32,5.637,11.434
	c1.53,5.113,1.328,8.535,1.248,11.434c-2.657,1.368-4.229,2.254-4.229,2.254S109.183,75.371,107.975,68.849z M100.605,50.451
	c0,0-0.241-3.181-0.725-6.401c0,0,3.784,1.771,4.268,2.134c0.482,2.174,1.047,4.791,1.208,9.139
	C103.866,53.873,100.605,50.451,100.605,50.451z M107.652,57.415c0,0,2.575,0.483,4.146,1.087c-0.926,0.201-1.933,1.046-1.933,1.046
	L107.652,57.415z M117.032,69.774c1.248,1.892,2.697,4.227,3.744,6.643c-1.128,0.281-1.731,0.483-1.731,0.483
	S118.563,72.271,117.032,69.774z M110.793,60.515c0.482-1.168,2.496-1.972,2.496-1.972s-0.645-1.087,0.241-2.417
	c0.885-1.329,2.656-0.845,2.656-0.845s0.201-1.852,1.893-2.254s2.295,1.449,2.295,1.449s1.811-0.362,2.254,1.208
	c0.533,1.89-0.563,2.778-2.133,3.14c1.167-0.644,0.885-3.301-1.128-3.664c-2.012-0.362-4.429,1.651-4.952,4.429
	c-0.522,2.778,1.208,5.113,3.905,8.656c2.698,3.543,3.422,7.125,3.422,7.125C118.159,67.761,112,61.602,110.793,60.515z
	 M115.462,62.809c-1.489-2.858,0.805-5.354,0.805-5.354c-1.569,4.066,2.737,7.931,5.637,10.427c2.899,2.497,2.618,4.67,2.215,5.757
	c1.367,0.081,2.496,0.724,2.898,1.731c-1.248-0.04-2.738,0.322-4.59,0.685C122.226,71.747,116.951,65.667,115.462,62.809z
	 M117.313,61.159c2.656,1.972,4.47,3.703,5.758,6.521C118.32,63.896,117.313,61.159,117.313,61.159z M99.559,49.364
	c-2.979-3.624-3.864-7.207-3.864-7.207s0.845,0.402,3.1,1.409C99.156,45.498,99.559,49.364,99.559,49.364z M128.224,56.812
	c0.973,9.563-2.415,16.304-2.415,16.304s0,0-0.563-0.282c0.281-1.328-0.12-2.133-0.12-2.133c2.818-8.857,1.891-16.667-0.525-23.108
	c-2.415-6.441-7.206-11.635-7.206-11.635l2.456,0.482C123.796,41.994,127.258,47.31,128.224,56.812z M106.84,13.791
	c0.408-0.678,2.079-3.975,6.189-6.596c-1.129,1.582-2.846,3.975-3.704,8.718c0,0-1.22-0.586-1.897-0.813
	C106.751,14.875,106.435,14.468,106.84,13.791z M104.718,12.39l0.813,2.259l-2.71-0.858L104.718,12.39z M101.419,13.564l-0.451-0.18
	l0.046-1.943L101.419,13.564z M97.47,9.307c1.96-3.774,5.242-6.189,5.242-6.189c-3.666,6.058-3.068,11.062-2.855,13.257
	c0.213,2.195-0.384,2.897-1.45,3.292c-1.065,0.395-2.514-0.175-2.728-1.667C95.466,16.506,95.509,13.082,97.47,9.307z M94.147,7.918
	l1.265,3.071c0,0-0.452,0.903-0.588,1.762c-0.948-0.045-2.665,0.135-2.665,0.135L94.147,7.918z M87.149,8.78l3.541,4.411
	c0,0-2.298,0.249-4.846,1.429L87.149,8.78z M94.499,14.211c-0.251,2.502-0.313,6.025,2.021,6.525s3.84-0.479,4.35-2.008
	c0.384-1.151,0.127-2.792,0.053-3.945c0,0,7.814,1.581,13.598,5.783c5.783,4.201,6.424,5.798,10.797,9.035
	c2.896,2.144,3.98,2.061,4.731,3.228c0.75,1.168,0.833,3.253,1.417,4.253c0.585,1.001,0.251,1.084-0.918,0.667
	c-1.167-0.417-6.17-1.751-11.175-2.919c-5.005-1.168-10.118-1.766-11.099-1.069c-1.02,0.725-0.911,1.653,0.089,2.904
	c1.001,1.251,12.927,12.176,13.595,12.76c0.667,0.584,0.418,0.751-0.583,0.5c-1.001-0.25-1.669-0.417-2.253-0.25
	c-0.583,0.166-1.418-0.25-3.336-1.918c-1.918-1.668-4.004-2.836-6.588-3.92c-2.587-1.084-13.678-2.836-12.01-9.926
	c-3.003,0.668-5.839,2.753-7.007,7.006c-1.168,4.253-0.417,12.928,1.251,20.267c-2.419-7.673-3.253-15.096-2.085-21.602
	c1.167-6.505,6.173-8.674,10.926-10.091c4.755-1.418,13.124,0.499,15.158,1.261c-1.419-2.401-2.314-4.848-6.901-7.183
	c-4.587-2.335-9.336-2.881-14.095-0.583c-4.502,2.174-9.592,6.338-9.175,15.179c0.417,8.84,2.753,17.348,4.504,23.103
	c-3.92-3.086-15.43-12.01-15.43-24.688S82.405,14.795,94.499,14.211z M107.431,27.676c0.651,0.682,0.292,0.58-0.243,0.5
	c-5.083-0.766-13.275,1.517-16.286,6.231c-3.01,4.714-2.924,10.053-2.526,14.909s2.188,11.331,2.698,13.006
	c-0.739-0.455-2.499-7.071-3.465-11.274c-0.965-4.203-2.697-13.034-1.051-18.799s7.157-8.28,10.394-9.217
	c3.238-0.937,6.597-0.319,7.223,0.675C104.799,24.701,106.776,26.995,107.431,27.676z M106.24,24.023c0,0,3.635,1.297,5.796,4.17
	c-1.32-0.356-1.881-0.178-2.669-0.687C108.579,26.999,107.664,26.007,106.24,24.023z M79.974,77.994c0,0-0.563,2.138-1.406,3.938
	C75.98,82.55,70.469,83,66.87,82.888c1.125-1.857,4.949-9.506,5.568-17.324c0.618-7.818,0.281-13.667-0.788-19.404
	c-1.068-5.736-2.587-10.629-2.587-10.629l2.981,0.506l-1.968,2.25l2.531,1.293l-1.519,1.913l2.194,0.956l-0.844,1.856
	c0,0,0.225,0.112,1.293,0.281c0.675,9.111,4.387,12.992,8.043,17.042c0.731,5.962-0.899,13.161-0.899,13.161
	s-1.575,1.519-2.25,3.263C79.242,77.826,79.974,77.994,79.974,77.994z M44.991,79.738c0,0-0.676-0.337-1.35-0.506
	c-0.168-2.024-0.056-5.174,0.619-8.662C44.541,72.65,43.922,75.238,44.991,79.738z M72.799,36.55c0,0.621,0.186,2.236,0.186,2.236
	l-2.05-0.745C70.935,38.041,71.867,37.233,72.799,36.55z M72.737,35.184l-2.361-1.119c0,0,1.243-0.87,2.609-1.74
	C72.8,33.879,72.737,35.184,72.737,35.184z M73.234,40.402l0.248,0.993l-0.994-0.248L73.234,40.402z M73.234,30.835l-2.858-2.112
	c0,0,2.05-0.746,3.728-1.305C73.606,28.909,73.234,30.835,73.234,30.835z M74.166,44.067l-0.994-0.062l0.621-1.18L74.166,44.067z
	 M69.072,28.536l3.417,3.044l-3.725,2.79c-7.145-1.181-12.117-1.485-12.117-1.485l0.373,1.242c0,0,0,0-1.926-0.248
	c6.275-6.834,16.152-9.94,16.152-9.94l1.988,2.858L69.072,28.536z M68.637,83.95c1.925-0.062,6.274-0.248,6.274-0.248l-0.063,1.305
	c0,0-5.281,1.554-9.94,0.063C64.909,85.069,66.711,84.014,68.637,83.95z M63.438,84.632c0,0-1.293-0.507-1.912-0.957
	c0,0,2.418,0.281,3.543,0.226C64.226,84.35,63.438,84.632,63.438,84.632z M51.065,79.794c1.462-1.576,7.312-11.193,8.942-22.161
	c1.631-10.967-0.112-17.717-1.631-23.341c5.793,0.45,9.562,1.125,9.562,1.125s3.374,9.28,3.88,22.216
	c0.465,11.872-3.824,21.316-5.961,25.085C56.353,82.494,51.065,79.794,51.065,79.794z M56.521,65.902c0,0-1.631,4.556-2.868,7.03
	c-0.45-1.125-0.731-3.993-0.731-3.993C53.877,66.915,56.521,65.902,56.521,65.902z M52.921,66.915
	c0.056-2.025,0.956-5.456,0.956-5.456s1.406-1.125,4.387-1.856c-0.563,2.475-1.35,5.174-1.35,5.174S54.496,65.339,52.921,66.915z
	 M57.646,36.655c0,0,3.094,10.461,0.844,21.823c-1.743,0.281-4.049,1.181-4.049,1.181s0.763-2.37,1.985-5.823
	c1.231-3.479,1.221-5.932-0.467-7.788c-1.531-1.684-3.54-2.032-5.73-1.465c-2.063,0.534-3.324,2.451-3.324,2.451
	s2.193-6.498,6.523-11.447C55.902,36.206,57.646,36.655,57.646,36.655z M47.747,47.342c1.631-1.968,4.329-2.703,6.522-1.466
	c2.193,1.237,2.42,4.165,1.408,7.034c-1.012,2.869-3.431,7.424-4.105,12.149c-0.675,4.725,0.225,7.818,1.012,9.899
	c-0.563,1.182-1.799,2.981-1.799,2.981c-2.924-5.175-2.531-9.956-1.969-13.162s0.169-3.937-0.281-4.781
	c0.337-0.787,1.181-1.912,2.924-4.724c1.744-2.813,2.363-3.994,2.362-5.793c0-1.8-1.799-2.643-3.374-2.193
	c-1.576,0.45-2.419,1.968-1.857,3.487c0.562,1.518,1.969,1.181,2.194,0.674c-1.181-0.731-0.676-1.743,0.112-1.968
	s2.025,0.843,1.463,2.081c-0.563,1.238-1.912,2.194-3.769,1.407C46.734,52.179,46.116,49.31,47.747,47.342z M52.921,49.985
	c-0.113-0.281-0.338-0.844-1.069-1.238s-2.305,0.113-2.474,0.9c-0.057-0.844,0.787-1.969,2.362-1.519
	C53.315,48.579,52.921,49.985,52.921,49.985z M51.291,54.26c-1.294,2.081-2.531,3.431-3.319,5.006
	c-0.337-0.282-1.631-0.675-2.475,0.281c0.843-2.024,0.226-3.993-0.225-4.443c0-0.675,0.563-4.163,0.563-4.163
	C46.903,54.485,49.828,54.766,51.291,54.26z M46.285,60.503c1.069-0.563,1.687,0.337,1.575,1.743
	c-0.112,1.406-0.957,4.218-0.506,8.718c0.45,4.5,2.531,8.099,2.531,8.099l-1.013,1.069c-2.643-4.612-3.6-10.35-3.937-13.049
	C44.597,64.383,45.216,61.065,46.285,60.503z M47.69,80.862c0,0-0.393,0-0.956,0.168c-0.563-0.224-1.519-3.316-1.406-5.905
	C45.723,77.15,47.69,80.862,47.69,80.862z M46.792,82.661c0,0,0.844-1.462,4.612,1.125c-1.913-2.081-2.362-3.093-2.362-3.093
	s2.081,0.731,4.612,3.487c2.531,2.755,7.817,6.918,13.835,8.491c6.019,1.576,10.349,1.295,17.942-1.462
	c0,0-5.905,5.794-19.854,3.094C51.629,91.604,47.13,83.28,44.093,80.75C45.274,81.256,46.792,82.661,46.792,82.661z M67.715,91.21
	c14.006,1.97,20.639-5.567,20.639-5.567s-0.225,1.968-1.349,3.487C75.591,94.529,67.715,91.21,67.715,91.21z M66.25,89.862
	c-7.48-1.24-12.204-7.426-12.204-7.426s1.406,0.338,4.162,0.787c5.569,4.274,11.136,4.611,16.479,3.432
	c5.343-1.182,8.886-4.331,10.518-7.425c1.855,0.619,3.148,2.757,3.205,5.006C81.605,90.873,73.731,91.099,66.25,89.862z
	 M76.278,84.635v-1.056c0,0,1.553-0.125,3.23-0.436C77.645,84.262,76.278,84.635,76.278,84.635z M79.806,81.649
	c0.506-0.731,1.237-3.431,1.237-3.431s1.462,0.056,2.812,0.45C82.562,81.425,80.818,81.425,79.806,81.649z M84.789,15.117
	c0,0-1.926,0.808-4.411,2.92l-0.745-5.529L84.789,15.117z M79.633,18.658c0,0-2.236,2.485-3.044,3.79l-1.864-4.224L79.633,18.658z
	 M76.278,22.945c-1.18,1.802-1.926,3.728-1.926,3.728l-2.485-3.292C71.867,23.38,73.048,23.256,76.278,22.945z M73.172,21.454v0.932
	l-2.609,0.559c0,0,0,0,0.373,0.56c-10.437,3.293-16.65,10.189-16.65,10.189s-0.621-0.063-1.739-0.249
	C60.747,24.187,73.172,21.454,73.172,21.454z M51.177,34.912c1.35,0.337,1.631,0.506,1.631,0.506s-6.974,7.312-8.212,19.123
	c-0.618-0.281-1.012-0.338-1.518-0.226C43.079,54.315,43.641,43.966,51.177,34.912z M37.51,64.552
	c0.057-1.462,1.132-1.251,1.47-0.745c-0.45-4.218,0.443-13.991,1.343-17.309c-0.45,1.744-0.282,4.274,0.056,5.455
	c2.025,0.788,1.575,3.206,1.575,4.668c0.337-1.013,1.293-1.688,2.137-1.237c0.843,0.449,1.125,1.406,0.506,4.218
	c-0.62,2.813-1.124,4.724-0.787,8.38c-1.8,5.005-1.968,10.123-1.968,10.123C38.186,73.044,37.454,66.014,37.51,64.552z
	 M37.456,93.402c-3.488,2.024-5.849,0.171-5.231-2.191c0.619-2.362,5.512-4.949,10.968-3.376
	c-5.343-2.586-10.406-0.056-12.937,1.576c0.787-1.969,3.431-3.544,4.218-3.713c-0.337-1.294,1.181-2.418,2.362-2.362
	c-1.687-2.081,0.113-4.78,2.757-4.162c2.643,0.619,4.162,3.825,8.83,7.874c4.669,4.051,13.161,9.506,25.366,9.168
	c12.205-0.337,16.254-6.523,15.973-12.318c-0.281-5.792-6.063-7.244-8.931-7.075c3.936-5.006,12.981-1.642,14.781,0.833
	c0.788-3.768-7.985-12.036-13.78-18.11c-5.793-6.074-7.03-10.63-7.255-14.624c3.937,9.393,10.405,14.398,17.716,19.966
	c7.312,5.568,10.405,11.754,10.405,17.21c0,5.456-2.925,9.056-2.925,9.056s2.756-1.407,3.993,0.788
	c1.237,2.192-0.338,4.161-5.118,5.96c-4.782,1.801-13.893,2.25-21.935,1.125c-8.043-1.124-11.755-2.305-19.741-2.643
	c-7.987-0.337-11.137,1.068-15.242,0.618C37.624,96.553,37.456,93.402,37.456,93.402z M82.955,62.864
	c1.012,1.238,2.306,4.781,2.306,10.067c0,0-1.968,0.169-3.206,1.182C82.674,71.638,83.18,65.507,82.955,62.864z M85.992,66.014
	c5.513,5.288,6.862,8.549,6.862,8.549c-2.531-1.294-4.051-1.519-6.131-1.688C86.836,70.288,86.386,67.87,85.992,66.014z
	 M34.115,102.509c1.013-1.461,3.398-4.1,4.861-4.832c1.519,0.676,2.812,1.013,4.724,0.9c1.913-0.113,4.78-0.281,5.681-0.113
	c-0.169,0.451-0.231,0.611-0.231,0.611S41.755,98.304,34.115,102.509z M39.426,101.051c2.137-0.562,5.792-1.181,9.842-0.561
	c2.193,2.642,5.625,1.798,8.437,1.911c2.812,0.111,3.487,1.462,3.487,1.462c-4.05-0.563-6.862-0.394-9.393-0.337
	C51.068,101.783,43.193,100.714,39.426,101.051z M61.753,105.102c-2.924,0.225-28.009,1.293-28.009,1.293
	C51.686,104.146,58.885,104.65,61.753,105.102z M127.611,33.796c0.645,0.583,1.525,2.352,1.806,0.876
	c0.226-1.178-1.08-1.809-2.127-2.159C126.245,32.164,127.021,33.261,127.611,33.796z"/>
</svg>
