<?xml version="1.0" encoding="UTF-8" standalone="no"?>
<!-- Created with Inkscape (http://www.inkscape.org/) -->

<svg
   xmlns:dc="http://purl.org/dc/elements/1.1/"
   xmlns:cc="http://creativecommons.org/ns#"
   xmlns:rdf="http://www.w3.org/1999/02/22-rdf-syntax-ns#"
   xmlns:svg="http://www.w3.org/2000/svg"
   xmlns="http://www.w3.org/2000/svg"
   xmlns:sodipodi="http://sodipodi.sourceforge.net/DTD/sodipodi-0.dtd"
   xmlns:inkscape="http://www.inkscape.org/namespaces/inkscape"
   width="24"
   height="24"
   id="svg3040"
   version="1.1"
   inkscape:version="0.48.4 r9939"
   sodipodi:docname="New document 2">
  <defs
     id="defs3042" />
  <sodipodi:namedview
     id="base"
     pagecolor="#ffffff"
     bordercolor="#666666"
     borderopacity="1.0"
     inkscape:pageopacity="0.0"
     inkscape:pageshadow="2"
     inkscape:zoom="10.609585"
     inkscape:cx="2.06714"
     inkscape:cy="11.375"
     inkscape:document-units="px"
     inkscape:current-layer="layer1"
     showgrid="false"
     inkscape:window-width="1201"
     inkscape:window-height="1137"
     inkscape:window-x="932"
     inkscape:window-y="0"
     inkscape:window-maximized="0" />
  <metadata
     id="metadata3045">
    <rdf:RDF>
      <cc:Work
         rdf:about="">
        <dc:format>image/svg+xml</dc:format>
        <dc:type
           rdf:resource="http://purl.org/dc/dcmitype/StillImage" />
        <dc:title></dc:title>
      </cc:Work>
    </rdf:RDF>
  </metadata>
  <g
     inkscape:label="Layer 1"
     inkscape:groupmode="layer"
     id="layer1"
     transform="translate(0,-1028.3622)">
    <path
       style="fill:#dc963c;fill-opacity:1;stroke:none;stroke-width:0.24946117000000001;stroke-linecap:butt;stroke-linejoin:miter;stroke-miterlimit:4;stroke-opacity:1;stroke-dasharray:none"
       d="m 9.7787638,1033.5193 c -0.7719644,0.6939 -1.4384264,2.7617 -1.4384264,2.7617 l 3.3371506,3.6824 -2.4453257,2.7043 1.2082787,8.6305 1.237047,-2.5028 1.812418,2.6754 0.805518,-2.7617 1.927493,2.359 0.316454,-1.87 2.35902,1.8124 -3.653604,-9.2347 c -0.47456,-3.3117 1.238612,-4.7536 1.208278,-5.6961 -0.260275,-2.2323 -1.030739,-4.2923 -5.207104,-3.1359 0,0 -1.0765,0.2243 -1.4671972,0.5755 z"
       id="path2987"
       inkscape:connector-curvature="0"
       sodipodi:nodetypes="scccccccccccccs"
       inkscape:export-filename="/opt/coquery/logo/logo.png"
       inkscape:export-xdpi="127.91716"
       inkscape:export-ydpi="127.91716" />
    <path
       style="fill:#aa0000;stroke:none;stroke-width:0.20137975000000000;stroke-linecap:butt;stroke-linejoin:miter;stroke-miterlimit:4;stroke-opacity:1;stroke-dasharray:none"
       d="m 11.83834,1030.2893 c 2.758241,2.3896 1.828167,-1.0688 2.726521,-0.7758 0.966857,0.3153 1.87811,2.4043 1.87811,2.4043 0,0 0.999601,-2.0118 1.805874,-1.7679 0.668725,0.2024 0.433409,2.0508 0.433409,2.0508 0,0 2.118869,-0.6313 2.492166,0.1118 0.346841,0.6904 -1.298926,1.9197 -1.298926,1.9197 0,0 2.126565,0.104 2.246793,0.902 0.127838,0.8485 -2.000394,1.6204 -2.000394,1.6204 0,0 1.937134,1.2148 1.565859,1.9658 -0.917248,1.8553 -6.207736,-0.1251 -6.207736,-0.1251 1.628925,-5.3449 -3.09156,-6.6942 -5.7190302,-5.0422 0,0 0.070413,-5.0026 2.0773542,-3.2638 z"
       id="path2985"
       inkscape:connector-curvature="0"
       sodipodi:nodetypes="sacacacacaccs"
       inkscape:export-filename="/opt/coquery/logo/logo.png"
       inkscape:export-xdpi="127.91716"
       inkscape:export-ydpi="127.91716" />
    <path
       style="fill:#aa0000;fill-opacity:1;stroke:none;stroke-width:0.20137975000000000;stroke-linecap:butt;stroke-linejoin:miter;stroke-miterlimit:4;stroke-opacity:1;stroke-dasharray:none"
       d="m 9.0644865,1036.9506 c 0,0 0.4297094,-2.0742 1.4671955,-2.8867 0.741743,-0.5811 1.172962,-0.6054 2.008861,-0.5734 0.502878,0.02 1.429001,0.55 1.639808,1.0069 0.555118,1.2033 0.461798,2.0242 -0.115074,3.0207 -0.591988,1.0226 -1.3783,1.4505 -2.461332,1.9197 0,0 0.875709,3.2397 0.413974,4.6453 -0.735181,2.2381 -1.626245,1.3725 -2.1865539,2.4002 -0.4974181,0.9123 -2.0690863,1.8013 -2.9006858,1.4058 -0.7960741,-0.3785 -1.1908926,-0.9121 -1.3233538,-1.7836 -0.1052017,-0.6922 0.2213557,-1.2773 0.7048301,-1.7836 0.6203802,-0.6498 2.4689831,-1.0618 2.4689831,-1.0618 l 0.4797918,-0.5349 1.5958805,-2.8024 z"
       id="path3757"
       inkscape:connector-curvature="0"
       sodipodi:nodetypes="csssscssssscccc"
       inkscape:export-filename="/opt/coquery/logo/logo.png"
       inkscape:export-xdpi="127.91716"
       inkscape:export-ydpi="127.91716" />
    <path
       sodipodi:type="arc"
       style="fill:#ffffff;fill-opacity:1;stroke:#fff7f7;stroke-width:0;stroke-miterlimit:4;stroke-opacity:1;stroke-dasharray:none"
       id="path3765"
       sodipodi:cx="224.46428"
       sodipodi:cy="375.93362"
       sodipodi:rx="33.035713"
       sodipodi:ry="52.142857"
       d="m 257.49999,375.93362 a 33.035713,52.142857 0 1 1 -66.07142,0 33.035713,52.142857 0 1 1 66.07142,0 z"
       transform="matrix(0.04116659,0.01587693,-0.01802453,0.03510498,9.0260889,1019.654)"
       inkscape:export-filename="/opt/coquery/logo/logo.png"
       inkscape:export-xdpi="127.91716"
       inkscape:export-ydpi="127.91716" />
    <path
       sodipodi:type="arc"
       style="fill:#000000;fill-opacity:1;stroke:#000000;stroke-width:0;stroke-miterlimit:4;stroke-opacity:1;stroke-dasharray:none"
       id="path3767"
       sodipodi:cx="210.53572"
       sodipodi:cy="379.14789"
       sodipodi:rx="13.392858"
       sodipodi:ry="26.428572"
       d="m 223.92858,379.14789 a 13.392858,26.428572 0 1 1 -26.78572,0 13.392858,26.428572 0 1 1 26.78572,0 z"
       transform="matrix(0.04973726,0.0162605,-0.01931723,0.04118512,8.1340568,1017.5042)"
       inkscape:export-filename="/opt/coquery/logo/logo.png"
       inkscape:export-xdpi="127.91716"
       inkscape:export-ydpi="127.91716" />
    <path
       style="fill:#ffcb00;fill-opacity:1;stroke:none;stroke-width:0.20137975000000000;stroke-linecap:butt;stroke-linejoin:miter;stroke-miterlimit:4;stroke-opacity:1;stroke-dasharray:none"
       d="m 11.694716,1039.4155 c -3.1286466,-5.2418 -9.4150541,-6.2527 -9.4150541,-6.2527 0,0 6.7335914,4.3668 7.3479525,7.0294 -1.0836826,1.1679 -4.0351318,1.2666 -4.0351318,1.2666 0,0 2.0938335,1.8735 4.3396691,0.8317 2.0990963,-0.9737 1.7625643,-2.875 1.7625643,-2.875 z"
       id="path3775"
       inkscape:connector-curvature="0"
       sodipodi:nodetypes="ccccsc"
       inkscape:export-filename="/opt/coquery/logo/logo.png"
       inkscape:export-xdpi="127.91716"
       inkscape:export-ydpi="127.91716" />
  </g>
</svg>
