<?xml version="1.0" encoding="utf-8"?>
<!-- Generator: Adobe Illustrator 18.1.0, SVG Export Plug-In . SVG Version: 6.00 Build 0)  -->
<svg version="1.1" xmlns="http://www.w3.org/2000/svg" xmlns:xlink="http://www.w3.org/1999/xlink" x="0px" y="0px" width="190px"
	 height="45.3px" viewBox="0 0 190 45.3" enable-background="new 0 0 190 45.3" xml:space="preserve">
<g id="Layer_2" display="none">
	<rect x="0" y="47.8" display="inline" opacity="0.1" fill="#00AEEF" width="595" height="13.1"/>
	
		<line display="inline" fill="none" stroke="#00AEEF" stroke-width="0.5" stroke-miterlimit="10" x1="-27.8" y1="5.2" x2="665.2" y2="5.2"/>
	
		<line display="inline" fill="none" stroke="#00AEEF" stroke-width="0.5" stroke-miterlimit="10" x1="-27.8" y1="60.9" x2="665.2" y2="60.9"/>
	<line display="inline" fill="none" stroke="#00AEEF" stroke-miterlimit="10" x1="-27.8" y1="-13.8" x2="665.2" y2="-13.8"/>
	<line display="inline" fill="none" stroke="#00AEEF" stroke-miterlimit="10" x1="-27.8" y1="47.8" x2="665.2" y2="47.8"/>
	
		<rect x="0" y="-49" display="inline" fill="none" stroke="#EC008C" stroke-width="0.5" stroke-miterlimit="10" stroke-dasharray="2,2" width="595" height="139.8"/>
	
		<line display="inline" fill="none" stroke="#00AEEF" stroke-width="0.5" stroke-miterlimit="10" stroke-dasharray="2,2" x1="110.4" y1="-47.4" x2="110.4" y2="68.8"/>
	<line display="inline" fill="none" stroke="#00AEEF" stroke-miterlimit="10" x1="595" y1="47.8" x2="595" y2="60.9"/>
	<text transform="matrix(1 0 0 1 599.3629 56.9199)" display="inline" fill="#00AEEF" font-family="'Consolas-Bold'" font-size="8">125% y</text>
	<line display="inline" fill="none" stroke="#EC008C" stroke-miterlimit="10" x1="595" y1="60.9" x2="595" y2="90.8"/>
	<line display="inline" fill="none" stroke="#EC008C" stroke-miterlimit="10" x1="595" y1="5.2" x2="595" y2="47.8"/>
	<text transform="matrix(1 0 0 1 599.3629 77.4363)" display="inline" fill="#EC008C" font-family="'Consolas-Bold'" font-size="8">70% x</text>
	<text transform="matrix(1 0 0 1 599.3629 30.4363)" display="inline" fill="#EC008C" font-family="'Consolas-Bold'" font-size="8">x</text>
</g>
<g id="Layer_1">
	<g>
		<path fill="#222426" d="M43,23.1l-2.2-0.2c-1.7-0.1-2.4-0.8-2.4-2c0-1.4,1-2.2,3-2.2c1.4,0,2.6,0.3,3.6,1.1l1.3-1.3
			c-1.2-1-2.9-1.5-4.8-1.5c-2.9,0-5,1.5-5,3.9c0,2.2,1.4,3.4,4,3.6l2.2,0.2c1.6,0.1,2.2,0.8,2.2,2c0,1.6-1.4,2.4-3.6,2.4
			c-1.7,0-3.1-0.4-4.2-1.6L36,28.9c1.5,1.4,3.3,1.9,5.5,1.9c3.3,0,5.5-1.5,5.5-4.1C47,24.2,45.4,23.3,43,23.1z M59.9,17
			c-2.2,0-3.5,0.4-4.7,1.9c0,0,1.3,1.3,1.3,1.3c0.8-1.1,1.7-1.5,3.4-1.5c2.5,0,3.5,1,3.5,3V23h-4.1c-3,0-4.7,1.5-4.7,3.9
			c0,1.1,0.4,2.1,1,2.7c0.8,0.9,1.9,1.2,3.8,1.2c1.8,0,2.8-0.4,3.9-1.5v1.3h2v-9.1C65.3,18.6,63.5,17,59.9,17z M63.3,25.9
			c0,1.1-0.2,1.9-0.7,2.3c-0.8,0.8-1.9,0.9-3,0.9c-2.1,0-3.1-0.7-3.1-2.3c0-1.6,1-2.4,3-2.4h3.8V25.9z M73,18.8
			c1.3,0,2.1,0.4,3.1,1.5c0,0,1.3-1.3,1.3-1.3c-1.4-1.5-2.6-2-4.4-2c-3.4,0-6,2.3-6,6.9c0,4.6,2.6,6.9,6,6.9c1.9,0,3-0.5,4.4-2
			l-1.3-1.3c-1,1.1-1.8,1.5-3.1,1.5c-1.3,0-2.4-0.5-3.1-1.5c-0.6-0.9-0.9-1.9-0.9-3.6c0-1.7,0.2-2.7,0.9-3.6
			C70.6,19.3,71.7,18.8,73,18.8z M89.9,17.2h-2.5l-6.1,5.9l0-12h-2v19.5h2l0-4.9l2.4-2.4l4.5,7.3h2.4L85.1,22L89.9,17.2z M99.2,16.5
			c-2.1,0-3.5,0.8-4.3,1.7c-1.3,1.3-1.6,2.9-1.6,5.4c0,2.6,0.3,4.1,1.6,5.5c0.9,0.9,2.3,1.7,4.3,1.7c2.1,0,3.5-0.8,4.4-1.7
			c1.3-1.3,1.6-2.9,1.6-5.5c0-2.5-0.3-4.1-1.6-5.4C102.7,17.3,101.2,16.5,99.2,16.5z M100.8,27.1c-0.4,0.4-0.9,0.6-1.6,0.6
			s-1.2-0.2-1.6-0.6c-0.7-0.7-0.8-2-0.8-3.4c0-1.5,0.1-2.7,0.8-3.4c0.4-0.4,0.9-0.6,1.6-0.6s1.2,0.2,1.6,0.6
			c0.7,0.7,0.8,1.9,0.8,3.4C101.6,25.1,101.5,26.3,100.8,27.1z M114.4,16.6l-2.8,8.7l-2.9-8.7h-3.7l5.2,14h2.7l5.1-14H114.4z
			 M124.1,16.5c-3.6,0-6.1,2.6-6.1,7.2c0,5.7,3.2,7.2,6.5,7.2c2.5,0,3.9-0.8,5.3-2.2l-2.1-2.1c-0.9,0.9-1.6,1.3-3.2,1.3
			c-2,0-3.1-1.3-3.1-3.1h8.8v-1.6C130.2,19.3,128,16.5,124.1,16.5z M121.4,22.3c0-0.6,0.1-1,0.3-1.5c0.4-0.8,1.2-1.5,2.3-1.5
			c1.2,0,2,0.6,2.3,1.5c0.2,0.5,0.3,0.9,0.3,1.5H121.4z M135.4,18v-1.3h-3.4v14h3.5v-8.5c0-1.8,1.2-2.6,2.3-2.6
			c0.9,0,1.3,0.3,1.8,0.8l2.7-2.7c-1-1-1.9-1.3-3.3-1.3C137.4,16.5,136,17.2,135.4,18z M143.3,15.2v15.5h3.5V19.6h2.6v-2.7h-2.6
			v-1.5c0-0.8,0.4-1.3,1.2-1.3h1.3v-3h-2C144.5,11.2,143.3,13.2,143.3,15.2z M163.8,16.5c-2.1,0-3.5,0.8-4.3,1.7
			c-1.3,1.3-1.6,2.9-1.6,5.4c0,2.6,0.3,4.1,1.6,5.5c0.9,0.9,2.3,1.7,4.3,1.7c2.1,0,3.5-0.8,4.4-1.7c1.3-1.3,1.6-2.9,1.6-5.5
			c0-2.5-0.3-4.1-1.6-5.4C167.3,17.3,165.9,16.5,163.8,16.5z M165.5,27.1c-0.4,0.4-0.9,0.6-1.6,0.6c-0.7,0-1.2-0.2-1.6-0.6
			c-0.7-0.7-0.8-2-0.8-3.4c0-1.5,0.1-2.7,0.8-3.4c0.4-0.4,0.9-0.6,1.6-0.6c0.7,0,1.2,0.2,1.6,0.6c0.7,0.7,0.8,1.9,0.8,3.4
			C166.3,25.1,166.2,26.3,165.5,27.1z M186.3,16.6l-2.3,8.7l-2.9-8.7h-2.6l-2.9,8.7l-2.3-8.7h-3.7l4.3,14h2.9l2.9-8.8l2.9,8.8h2.9
			l4.3-14H186.3z M154.6,26.4V11.2h-3.5v15.5c0,2,1.2,4,4.1,4h2v-3h-1.3C154.9,27.7,154.6,27.3,154.6,26.4z M52.5,19.3l1.8-1.8h-3.7
			v-4.4h-2v14c0,2,1.2,3.6,3.5,3.6h1.4V29h-1c-1.3,0-1.8-0.7-1.8-2v-7.7H52.5z"/>
		<polygon fill="#BCBBBB" points="26.6,34 26.6,24 29.9,24 29.9,37.3 0,37.3 0,24 3.3,24 3.3,34 		"/>
		<path fill="#F48024" d="M50.4,35.1c-0.1-0.1-0.2-0.2-0.4-0.2h-1.2c-0.2,0-0.3,0.1-0.4,0.2l-3.5,9.7c0,0.1,0,0.2,0,0.3
			c0.1,0.1,0.2,0.2,0.3,0.2h1.6c0.2,0,0.3-0.1,0.4-0.3l0.6-1.7H51l0.6,1.7c0.1,0.2,0.2,0.3,0.4,0.3h1.6c0.1,0,0.2-0.1,0.3-0.2
			c0.1-0.1,0.1-0.2,0-0.3L50.4,35.1z M48.5,41.3l1-2.8l0.9,2.8H48.5z M40.4,36.8c1,0,1.4,0.7,1.6,1.4c0,0.2,0.2,0.3,0.4,0.3h1.5
			c0.1,0,0.2,0,0.3-0.1c0.1-0.1,0.1-0.2,0.1-0.3c-0.4-2.1-1.8-3.3-3.8-3.3c-1.1,0-2.1,0.4-2.8,1.1c-1,1-1,2.3-1,4.1v0.2
			c0,1.8,0,3,1,4.1c0.7,0.7,1.7,1.1,2.8,1.1c2,0,3.5-1.3,3.8-3.3c0-0.1,0-0.2-0.1-0.3c-0.1-0.1-0.2-0.1-0.3-0.1h-1.5
			c-0.2,0-0.3,0.1-0.4,0.3c-0.1,0.5-0.5,1.4-1.6,1.4c-0.5,0-0.9-0.2-1.1-0.5c-0.4-0.4-0.5-0.8-0.5-2.8c0-1.9,0.1-2.4,0.5-2.8
			C39.5,37,40,36.8,40.4,36.8z M79.3,34.8h-6.2c-0.2,0-0.4,0.2-0.4,0.4v9.7c0,0.2,0.2,0.4,0.4,0.4h6.2c0.2,0,0.4-0.2,0.4-0.4v-1.3
			c0-0.2-0.2-0.4-0.4-0.4H75V41h3.6c0.2,0,0.4-0.2,0.4-0.4v-1.3c0-0.2-0.2-0.4-0.4-0.4H75v-2.1h4.3c0.2,0,0.4-0.2,0.4-0.4v-1.3
			C79.7,35,79.5,34.8,79.3,34.8z M96.3,39.9c-0.5-0.4-1.1-0.7-2-0.8l-1.1-0.2c-0.4-0.1-0.7-0.2-0.9-0.4c-0.2-0.1-0.2-0.3-0.2-0.6
			c0-0.7,0.5-1.1,1.4-1.1c0.8,0,1.4,0.2,1.8,0.6c0.1,0.1,0.4,0.1,0.5,0l0.9-0.9c0.1-0.1,0.1-0.2,0.1-0.3c0-0.1,0-0.2-0.1-0.3
			c-0.9-0.8-1.9-1.2-3.3-1.2c-2.2,0-3.6,1.3-3.6,3.2c0,0.9,0.3,1.6,0.8,2.1c0.5,0.5,1.2,0.8,2,0.9l1.1,0.2c0.5,0.1,0.7,0.2,0.9,0.3
			c0.2,0.2,0.3,0.5,0.3,0.7c0,1-1,1.1-1.6,1.1c-1,0-1.6-0.2-2.2-0.8c-0.1-0.1-0.4-0.1-0.5,0l-1,1c-0.1,0.1-0.1,0.4,0,0.5
			c1,1,2.1,1.4,3.7,1.4c2.3,0,3.9-1.3,3.9-3.2C97.2,41.2,96.9,40.4,96.3,39.9z M86.8,40.8c1.1-0.5,1.8-1.5,1.8-2.8
			c0-1.9-1.4-3.2-3.4-3.2h-3.7c-0.2,0-0.4,0.2-0.4,0.4v9.7c0,0.2,0.2,0.4,0.4,0.4H83c0.2,0,0.4-0.2,0.4-0.4v-3.7h1.2l1.9,3.9
			c0.1,0.1,0.2,0.2,0.3,0.2h1.7c0.1,0,0.3-0.1,0.3-0.2c0.1-0.1,0.1-0.3,0-0.4L86.8,40.8z M85.1,39.2h-1.8v-2.3h1.8
			c0.8,0,1.3,0.4,1.3,1.1C86.4,39.1,85.5,39.2,85.1,39.2z M70.7,34.8h-6.2c-0.2,0-0.4,0.2-0.4,0.4v9.7c0,0.2,0.2,0.4,0.4,0.4h6.2
			c0.2,0,0.4-0.2,0.4-0.4v-1.3c0-0.2-0.2-0.4-0.4-0.4h-4.3V41H70c0.2,0,0.4-0.2,0.4-0.4v-1.3c0-0.2-0.2-0.4-0.4-0.4h-3.6v-2.1h4.3
			c0.2,0,0.4-0.2,0.4-0.4v-1.3C71.1,35,70.9,34.8,70.7,34.8z M60.8,40.8c1.1-0.5,1.8-1.5,1.8-2.8c0-1.9-1.4-3.2-3.4-3.2h-3.7
			c-0.2,0-0.4,0.2-0.4,0.4v9.7c0,0.2,0.2,0.4,0.4,0.4h1.5c0.2,0,0.4-0.2,0.4-0.4v-3.7h1.2l1.9,3.9c0.1,0.1,0.2,0.2,0.3,0.2h1.7
			c0.1,0,0.3-0.1,0.3-0.2c0.1-0.1,0.1-0.3,0-0.4L60.8,40.8z M59,39.2h-1.8v-2.3H59c0.8,0,1.3,0.4,1.3,1.1
			C60.3,39.1,59.4,39.2,59,39.2z M9.1,15.3l15.1,7l1.4-3l-15.1-7L9.1,15.3z M7,23.1l16.3,3.4l0.7-3.3L7.7,19.8L7,23.1z M6.7,30.7
			l16.6,0v-3.3l-16.6,0V30.7z M13.3,7.9l12.8,10.7l2.1-2.6L15.5,5.3L13.3,7.9z M18.9,2l9.9,13.4l2.7-2L21.6,0L18.9,2z"/>
	</g>
</g>
</svg>
